<svg id="Layer_1" data-name="Layer 1" xmlns="http://www.w3.org/2000/svg" viewBox="0 0 100 116"><path d="M48.64,2a4.64,4.64,0,0,1,5.4,0Q75.64,15,97.35,27.73a4.61,4.61,0,0,1,2.6,4.5q-.11,26.12,0,52.23a4.67,4.67,0,0,1-2.71,4.69c-7.52,4.1-14.91,8.46-22.45,12.53-6.91,3.73-13.69,7.68-20.53,11.53-.63.35-1.25.7-1.89,1a5.1,5.1,0,0,1-5.3-.28q-13.65-8.2-27.45-16.2c-4.94-2.86-9.7-6-14.82-8.59-.24-.12-.45-.29-.68-.43-3-1.8-4.27-4.13-4.16-7.9C.44,64.66.5,48.5.63,32.34A4.5,4.5,0,0,1,3,28M71.76,60.42l.73.24a14.9,14.9,0,0,0,5.26.59c3.25-.18,5.81-1.51,7.24-4.6.71-1.53,1.43-3,2-4.63,1.54-4.27,3.18-8.49,6.8-11.54.07-.06,0-.31-.09-.81-3.06,1.15-6,2.24-7.93,5a59.85,59.85,0,0,0-5,9.1,14.27,14.27,0,0,1-2.59,3.67c-1.64,1.77-3.81,2.16-5.94,2.73l-.52.18a1.48,1.48,0,0,0-1.2.1,21.06,21.06,0,0,0-9.25,1.06c-1,.26-2.08.49-3.1.79a17.47,17.47,0,0,0-6.88,3.42,34.57,34.57,0,0,0-7.58,8.89,24.93,24.93,0,0,1-2.4,3.53C39.91,80,38.2,81.31,35.72,81.3a21,21,0,0,0-3.71.38c-1,.19-1.09.74-.36,1.47a5.87,5.87,0,0,0,7,.73c4.44-2.49,8.54-5.28,11.05-10.09,2.66-5.11,6.21-9.58,12.08-11.46,3-.52,6-.57,8.81-1.87A1.22,1.22,0,0,0,71.76,60.42Zm-.12,1.89.09.06-.11,0c-1.22-.51-2.37,0-3.53.28s-2.27.41-3.42.49c-5,.31-8.33,3.19-11.15,6.88a42.43,42.43,0,0,0-3.58,5.59A18.3,18.3,0,0,1,44,82c-1,.7-2,1.48-3.06,2.11-3.16,1.89-6.41,2.59-9.72.36a4.23,4.23,0,0,0-2.76-.67,11.62,11.62,0,0,0-7.69,3.74,6.94,6.94,0,0,0-2.9,3l3.24-2.4a38.64,38.64,0,0,1,3.59-2.27c3.41-1.69,5.46-.88,6.75,2.68a2.43,2.43,0,0,0,2.06,1.78A5.8,5.8,0,0,0,36.69,90a26.35,26.35,0,0,0,7.51-4.89A89.83,89.83,0,0,0,54.29,74.51c3.07-3.53,5.82-7.44,10.33-9.4,1.3-.57,2.57-1.2,3.85-1.8A8.28,8.28,0,0,0,71.64,62.31Zm2.22-23.79a31.67,31.67,0,0,0,9-2.24,42.38,42.38,0,0,0-9.3,1.58c-.22.11-.51.25-.34.51S73.63,38.48,73.86,38.52Zm-23-31.43a12.29,12.29,0,0,0-1.25,1,31.72,31.72,0,0,1-10.42,6.74,30.83,30.83,0,0,0-6.52,4c-.36.27-1,.54-.57,1.22a1.91,1.91,0,0,0,1.4-.66,30.64,30.64,0,0,1,8-4.63,26.44,26.44,0,0,0,5.34-2.94c1.68-1.21,3.54-2.42,4-4.74ZM13.64,61.25a1.14,1.14,0,0,0,.25.06c.06,0,.11-.05.17-.08l-.42.06a6.9,6.9,0,0,0-4.58,1C5.8,64.53,3.79,70.13,4.76,74c.21.88.72.94,1.37.54a4,4,0,0,0,1.51-4.64c-.76-3,0-5,2.54-6.64C11.3,62.53,12.49,61.91,13.64,61.25ZM31.78,17.92l2.69-2.2a8.59,8.59,0,0,0-3,1.6,8.23,8.23,0,0,0-3.2,2.35,10.69,10.69,0,0,1-6.61,3.63,10,10,0,0,0-5.4,2.95,3.25,3.25,0,0,0,3,.64,14.37,14.37,0,0,0,4.24-1.53C26.91,23.6,29.1,20.49,31.78,17.92ZM16.06,63.35A67.64,67.64,0,0,0,28.3,59.84C23.91,60,20,62.11,15.69,62.7h-.26a8,8,0,0,0-6.27,3c-1.48,1.73-.52,3.51,0,5.28a3.68,3.68,0,0,1-1,4.13c-.8.71-1.57,1.44-2.31,2.2-.33.33-1,.62-.39,1.43a58.49,58.49,0,0,1,6.66-4.29c2.28-1.26,2.49-1.9,1.68-4.3C12.48,66.37,12.78,65.47,16.06,63.35ZM90.77,81.62c-2.53.37-5.13.12-7.62.88C79,83.77,77.57,85.73,77.64,90a4.07,4.07,0,0,1-2.15,4c-1.47.8-3,1.52-4.5,2.27-3.6.65-6.92,2.28-10.48,3-4.17.89-7.12,3.42-9.7,6.58a3.75,3.75,0,0,0-1.3,2.57,8.7,8.7,0,0,0,3-2.73,12,12,0,0,1,3.45-2.89,35.81,35.81,0,0,1,7-3.29c2.71-.86,5.39-1.79,8.08-2.69,2.24.43,3.81-1.19,5.65-1.91,3.07-1.19,5.41-3.22,6.19-6.69a6.17,6.17,0,0,1,4.6-4.67c1.26-.38,2.5-.85,3.75-1.27,1-.32,2.13-.19,3-1.44Zm-11.7-15a25.82,25.82,0,0,0-15.89,5.72c-3,2.37-5.78,4.91-8.5,7.56a12.49,12.49,0,0,0-2.6,3A40.94,40.94,0,0,0,45.41,89a35.36,35.36,0,0,1-8.35,6.92c-1.38.8-2.75,1.62-4.12,2.44-.3.18-.6.41-.53.83a1,1,0,0,0,.94.8,3.49,3.49,0,0,0,2.47-.78A31.11,31.11,0,0,0,43.08,93a76.25,76.25,0,0,1,9.38-9.38c1.36-1.13,2.67-2.34,4.09-3.4,7.07-5.32,15.08-9,23-12.73A84.23,84.23,0,0,0,90.1,64.87a17.1,17.1,0,0,0,3.22-1.8l-.25-.5C88.63,64.76,83.82,65.59,79.07,66.67ZM45.5,105.74a15,15,0,0,0,2.1-2c3.31-4.74,7.91-7.53,13.34-9.13a37.27,37.27,0,0,0,6.36-2.73,3.59,3.59,0,0,0,2.27-3.59,5.33,5.33,0,0,1,2.31-4.58c.85-.68,1.66-1.43,2.48-2.15L74,81.05c-3,1.35-6.33,2.33-7.8,5.72s-3.93,5.14-7,6.49c-1.88.81-3.76,1.63-5.54,2.61-3.88,2.14-6.38,5.59-8.51,9.35-.26.35-1,.7-.4,1.15C45.08,106.68,45.39,106.17,45.5,105.74ZM80.18,69.57l14.25-4a63.39,63.39,0,0,0-14.71,3.31c-3,.73-5.42,2.64-8.18,3.84-8.25,3.6-15.26,9-21.86,15C46.53,90.59,44,94,41,97a20,20,0,0,0-3.74,4.86,13.93,13.93,0,0,0,5.52-4.76c4.8-6.14,10.16-11.6,17.31-15.08a55.08,55.08,0,0,0,5.36-3.48C70.29,75.49,75,72.1,80.18,69.57ZM46,95.8a30.11,30.11,0,0,0-5.5,7.59,10.34,10.34,0,0,0,2.38-2.52C44,99.27,45,97.63,46.09,96a2.81,2.81,0,0,0,1.76-1.11,18.15,18.15,0,0,1,6.86-5,20.66,20.66,0,0,0,6.64-4.85,21.24,21.24,0,0,1,6.53-5c2.64-1.29,5.31-2.5,8-3.7a19,19,0,0,0,4.56-2.75,22.63,22.63,0,0,1,7.13-4.09c.4-.15,1.12-.12,1-1.06-3.84.94-7.74,1.67-11.06,3.75-4.14,2.6-8.4,5-12.36,7.92a69.21,69.21,0,0,1-7.45,4.63,36.74,36.74,0,0,0-10.32,8.76A5,5,0,0,0,46,95.8ZM89.36,70.72a10.45,10.45,0,0,0,4.08-1.54c-1.43.42-3,.31-4.29,1.11a17.46,17.46,0,0,0-6.22,3c-2.91,2.44-6.29,4-9.67,5.61s-7.25,3.12-10,6a29.27,29.27,0,0,1-8.79,6.39,17.47,17.47,0,0,0-6.35,5.17c-1.69,2.17-3,4.64-5,6.6a1.34,1.34,0,0,0-.42,1.78,36,36,0,0,0,4.3-4.74,18.27,18.27,0,0,1,8.12-6.29,49.88,49.88,0,0,0,5.09-2.35A8.89,8.89,0,0,0,64.64,87a9.78,9.78,0,0,1,4-4.5A27.38,27.38,0,0,1,77.55,79a15.49,15.49,0,0,0,8.21-4.7A44.76,44.76,0,0,1,89.36,70.72ZM80.93,81.64c.22,0,.57.33.64-.2l-.65.24c-3.64-.32-6.5,1.32-9,3.69A3.27,3.27,0,0,0,70.81,88c.23,2.77-1.4,4.25-3.64,5.26A52.23,52.23,0,0,1,60.25,96a23,23,0,0,0-11.68,8.37c-.43.55-1.16,1.11-.69,2.17A11.66,11.66,0,0,0,50,104.51a20.33,20.33,0,0,1,9.73-6.16,102.26,102.26,0,0,0,13.38-4.43c2.94-1.22,3.31-1.83,3.25-5a6.71,6.71,0,0,1,2.54-5.59ZM35,58.64a20.71,20.71,0,0,0,3.41-.39c3.43-.7,6.49-2.38,9.78-3.46A4.31,4.31,0,0,0,51,52.14c1.16-3.14,3.5-5.32,6.08-7.25A18.87,18.87,0,0,0,61,41.26a17.08,17.08,0,0,1,7-5.14,73.81,73.81,0,0,1,11.73-4.29c1.2-.33,2.37-.74,3.55-1.13A11.75,11.75,0,0,0,86.52,29c.44-.31.87-.73.51-1.32a1.17,1.17,0,0,0-1.4-.46,4,4,0,0,0-.75.29c-5,2.4-10.24,4.45-15.48,6.41A22.1,22.1,0,0,0,62.59,38c-2.08,1.81-4.16,3.61-6.18,5.48a20,20,0,0,1-5.36,3.42c-2.34,1.06-4.64,2.23-6.92,3.41a4.73,4.73,0,0,0-2.73,3.13c-.49,2.4-2.14,3.32-4.25,3.84-.86.21-1.71.47-2.56.71s-1.61.17-2.33.88A5.92,5.92,0,0,0,35,58.64ZM8.53,55.4A77,77,0,0,0,16.35,54c2.72-.62,4.44-2,5-4.78a8.75,8.75,0,0,1,3.2-4.76c2.92-2.54,6.52-4,9.52-6.35,2.73-2.13,5.54-3.52,9.09-2.58a2.62,2.62,0,0,0,.79,0,34,34,0,0,0,14.37-5.2,4.59,4.59,0,0,0,1.69-2c.87-1.12,1.72-2.26,2.63-3.34,1.81-2.17,3.91-3.8,6.94-3.9a4.07,4.07,0,0,0,3.19-1.79c-5.63.29-8.9,2-11.84,5.89-.53.71-1,1.47-1.47,2.21a26.84,26.84,0,0,1-7.82,4c-1.46.43-2.92.49-3.86-.9-1-1.55-2.36-1.38-3.76-.87a15.74,15.74,0,0,0-3.31,1.71,55.33,55.33,0,0,0-5.64,4.47c-3.9,3.34-8.59,5.34-13,7.74-2,1.07-4,2.21-5.15,4.14C15,50.81,12.57,53.25,9,54.33A6.43,6.43,0,0,0,6.34,55.9,2.73,2.73,0,0,0,8.53,55.4Zm74.21,9.25a57.13,57.13,0,0,0,5.91-1.43,11.76,11.76,0,0,0,5-3.31,5.26,5.26,0,0,0,1.25-5.58c-.85.48-.84,1.16-1,1.74a7.77,7.77,0,0,1-5,5.71c-2,.8-4,1.31-6,2a33.06,33.06,0,0,1-7.17.07c-6.3-.54-11.53,1.82-15.9,6.05a101,101,0,0,0-8.1,9.18A57,57,0,0,1,40.23,89.65a11,11,0,0,1-4.42,1.77c-3.18.57-4.55-.26-5.66-3.29-.59-1.64-1-1.93-2.79-1.64-2.84.45-4.87,2.21-7.24,4.26a2.8,2.8,0,0,0,2.48-1,7.92,7.92,0,0,1,2-1.32c.74-.33,1.51-.72,2.26-.15a2,2,0,0,1,.55,2.21,14.63,14.63,0,0,0-.5,3.41c.08,2.09,1.17,3.06,3.24,2.88a17.55,17.55,0,0,0,9.46-3.91C43.74,89.59,47.07,85.49,51,82c3-2.74,5.86-5.69,8.93-8.39,5.28-4.64,11.21-7.78,18.43-8A13.38,13.38,0,0,0,82.74,64.65Zm1.77-27c-3.47.75-6.94,1.55-10.43,2.24A5.2,5.2,0,0,0,70.85,42a15.32,15.32,0,0,0-2.8,7.66,6.59,6.59,0,0,1-3.63,5.23,24.93,24.93,0,0,1-5.23,1.93c-2.23.61-4.57,1-6.53,2.25a34.55,34.55,0,0,1-13.84,5.29c-2.26.34-4.31,1.52-4.65,4.13-.45,3.39-2.51,5.1-5.55,6.08a75.75,75.75,0,0,0-11.08,4.57,19.38,19.38,0,0,0-6.43,5.06c-.29.35-.88.7-.19,1.45,2.18-1.47,4.4-2.93,6.58-4.45,3.39-2.37,7-4.26,11.18-4.62,1.24-.1,2.46-.43,3.68-.64a6.4,6.4,0,0,0,4.51-3c.61-1,1.2-2,1.82-2.94,1.4-2.21,3-4.25,5.45-5.35,3.16-1.42,6.22-3,9.25-4.71a10.25,10.25,0,0,1,2.25-.82A54.23,54.23,0,0,1,67.16,57a6,6,0,0,0,5.52-4,27,27,0,0,0,1-3,32.31,32.31,0,0,1,2.63-7,5.75,5.75,0,0,1,3.36-2.85c1.78-.55,3.54-1.16,5.32-1.74,3.36-1,7-1.37,9.62-4.2-1.64.46-3.12,1.32-4.71,1.9S86.3,37.15,84.51,37.64ZM5.4,83.29c1.13-1,2.07-2.15,3.24-3.13C12,77.36,16,75.8,19.81,74c2.52-1.2,3.76-2.64,3.84-5.39a6.1,6.1,0,0,1,3.66-5.47c2.85-1.46,5.93-1.79,9-2.14a34,34,0,0,0,9.06-2c3.54-1.44,6.73-3.62,10.41-4.75a13.12,13.12,0,0,0,2.14-1.1,6.3,6.3,0,0,0,3.56-5.5A10.26,10.26,0,0,1,67,39a19.85,19.85,0,0,1,5.4-2.22,107.44,107.44,0,0,1,11.54-2.13c2.95-.33,4.47-2.34,5.91-5.23-2.5,1-4.24,2.33-6.49,2.77A66.42,66.42,0,0,0,67,37.88a12.08,12.08,0,0,0-4.39,3.41A28.24,28.24,0,0,1,58,45.66c-2.2,1.8-4.52,3.57-5.54,6.35a6.31,6.31,0,0,1-3.82,3.82c-4.61,1.86-9.2,3.83-14.29,4a9.3,9.3,0,0,0-2.09.4c-4.8,1.33-9.57,2.73-14.38,4-3.45.91-4.23,2.22-3.07,5.6s.86,4-2.26,5.75a22.83,22.83,0,0,0-6.26,5.32,2.47,2.47,0,0,0-.87,2.38Zm8.67,3.29A74.83,74.83,0,0,1,21.6,82c2.56-1.29,5.19-2.49,8.15-2a23.08,23.08,0,0,0,5.57,0,6.94,6.94,0,0,0,5.37-3.07c.89-1.22,1.64-2.54,2.49-3.8,3.07-4.53,6.5-8.74,11.7-11a38.49,38.49,0,0,1,11.82-3c1.77-.15,3.54-.32,5.31-.46,3.64-.3,6.07-2.31,7.7-5.42,1-1.89,1.9-3.82,2.85-5.73,2.22-4.45,5.24-8,10.25-9.47a2.07,2.07,0,0,0,1.45-1.06c-4.6,1.32-9,2.54-13.43,3.89a6.44,6.44,0,0,0-4,3.64,60,60,0,0,0-2.66,7.82c-1.24,3.94-3.43,5.46-7.58,5.86-5.66.55-11.31,1.32-16.24,4.6a17.8,17.8,0,0,1-3.81,1.89A12.92,12.92,0,0,0,40,70.16c-4.76,7.26-3.21,6.23-11.92,7.74a23.24,23.24,0,0,0-9,3.66A25,25,0,0,0,13.81,86a3.37,3.37,0,0,0-.57.48c-.14.19-.35.56-.29.63.32.36.56,0,.8-.2A1.64,1.64,0,0,0,14.07,86.58ZM5.78,59.22c.51.48.77.42,1,.31A50.1,50.1,0,0,1,18.49,56c5.24-1,9.13-3.62,11.4-8.59a10.14,10.14,0,0,1,7.73-5.94c1.48-.28,3-.61,4.47-.75a15.84,15.84,0,0,0,6.29-2,87.39,87.39,0,0,1,8.08-4.09,17.16,17.16,0,0,0,7.9-6.13,7.25,7.25,0,0,1,3.56-2.7,23.06,23.06,0,0,1,5.62-1.58A7.53,7.53,0,0,0,76,23.3c.57-.26,1.2-.65.91-1.39a1.15,1.15,0,0,0-1.61-.5,20.55,20.55,0,0,1-6,1.08,7.73,7.73,0,0,0-5.82,3.32C63,26.52,62.43,27.24,62,28a14.1,14.1,0,0,1-6,5.15c-2.34,1.14-4.81,1.85-7.21,2.79a12.26,12.26,0,0,1-7.06.67,4.91,4.91,0,0,0-3.86.62c-4.11,2.79-8.67,4.9-12.46,8.21a8.59,8.59,0,0,0-3.12,4.8A5.93,5.93,0,0,1,17.46,55c-2.34.56-4.66,1.16-7,1.76A10.81,10.81,0,0,0,5.78,59.22Zm66-20.46c-.6-.08-.87-.21-1.09-.14-4.63,1.54-7.55,4.59-8.12,9.56-.17,1.54-.37,3-1.6,4.1A14.45,14.45,0,0,1,57.07,55c-2.87,1.19-5.73,2.35-8.49,3.81a24.05,24.05,0,0,1-10.15,3.07,50.87,50.87,0,0,0-8.14,1.37c-3.86.84-5.24,2.47-5.53,6.37a5.35,5.35,0,0,1-3.39,5c-1.79.77-3.51,1.73-5.3,2.52a23.92,23.92,0,0,0-8,6.14c-.25.28-.63.69.08,1.17A27.52,27.52,0,0,1,15.57,79a60.27,60.27,0,0,1,12.25-5.24c2.92-.8,4.81-2.48,5.28-5.64.41-2.84,2.41-4.22,5-4.86.77-.19,1.58-.25,2.37-.38a19.93,19.93,0,0,0,7.56-2.51,44.9,44.9,0,0,1,13-5.3c3.69-1,5.89-3.15,6.06-7.09a12,12,0,0,1,2.52-6.36C70.27,40.71,70.94,39.89,71.8,38.76ZM7.48,61.26c1.52-.39,2.44-.65,3.38-.86a128.78,128.78,0,0,0,15.42-4.22c2.83-1,5.35-2.37,7-5a11.78,11.78,0,0,1,3.48-3.26,20.9,20.9,0,0,1,7.83-3.25,21,21,0,0,0,9.48-4.63c3.43-2.82,7.18-5.22,10.54-8.14a14.57,14.57,0,0,1,5.15-2.76c2.37-.76,4.71-1.6,7.08-2.37a6.68,6.68,0,0,0,3-1.73c.35-.38.88-.77.4-1.33-.32-.38-.83-.25-1.21,0-2.35,1.67-5.07,2-7.82,2.33a8.26,8.26,0,0,0-6.13,3.36A15.88,15.88,0,0,1,57,35.7a19.85,19.85,0,0,0-4.13,1.82A28.85,28.85,0,0,1,39,42.42c-4.15.26-6.79,2.65-8.51,6.34a13.86,13.86,0,0,1-8.31,7.4c-1.68.59-3.43.93-5.15,1.35C13.86,58.28,10.63,58.88,7.48,61.26ZM65.55,15.62l-.46-.57c-1,.56-2,1.16-3,1.69a30.44,30.44,0,0,1-3.57,1.78,3,3,0,0,1-4-1.19c-1.2-1.73-1.46-1.83-3.43-1.06-1.24.49-2.43,1.11-3.66,1.63a19.78,19.78,0,0,0-9.72,8.35A11,11,0,0,1,36.51,28c-3.62,4.19-8.55,6.62-13.17,9.41A48.48,48.48,0,0,1,11.71,42a12,12,0,0,0-5.05,2.89c-.85.84-1.67,1.76-1.27,3.32,1.75-1,2.83-2.69,4.58-3,4.15-.75,7.63-2.93,11.17-5,7.49-4.26,15.08-8.4,20.49-15.46a9.68,9.68,0,0,1,6.45-3.44,3.85,3.85,0,0,1,3.47.91c2.27,2.1,3.66,2.17,6,.23,1.65-1.37,3.38-2.61,5.06-3.92C63.69,17.71,65,17,65.55,15.62Zm3,1.66a2.24,2.24,0,0,0-2.18.49,39.08,39.08,0,0,0-7.79,5.53c-2.46,2.45-5.25,2.35-7.7,0a3.39,3.39,0,0,0-3.21-.79A8.77,8.77,0,0,0,42.09,26c-4.28,5.71-10.28,9.24-16.2,12.81a93.73,93.73,0,0,1-15.13,7.82c-2.89,1.08-3.8,3-3.56,6.3,3.83-1,5.64-2.08,7.88-5a20,20,0,0,1,6.73-5.53c5.51-2.88,11-5.7,15.62-10.06a16.36,16.36,0,0,1,6.34-3.85c1.82-.58,3.63-1.09,5,.95a2.26,2.26,0,0,0,2.66.71c2.89-.74,5.62-1.91,7.5-4.29C61.6,22.46,64.39,19.3,68.53,17.28ZM25.72,58.51c.63,0,.89.05,1.14,0,3.55-.44,6.93-1.6,10.4-2.39A3.28,3.28,0,0,0,40,53.82c.77-2.93,2.8-4.53,5.52-5.68,4.58-1.93,9.09-4,12.59-7.79A34.49,34.49,0,0,1,73.9,30.89a29.66,29.66,0,0,0,8.21-3.78,1.5,1.5,0,0,0,.81-1.95c-4.1,2.92-8.84,3.62-13.23,5.23a12.73,12.73,0,0,0-3.75,2c-2.46,2-5.11,3.87-7.55,5.92-4.49,3.76-9.19,6.87-15.11,8a15,15,0,0,0-10,6.66,9.85,9.85,0,0,1-5,3.77A4,4,0,0,0,25.72,58.51ZM63,13.79a1.74,1.74,0,0,0-1.76-.25c-1.92.55-3.49.41-4.32-1.81-.47-1.28-1.61-1.28-2.69-.82a4.15,4.15,0,0,0-1.28.94A27.73,27.73,0,0,1,44,17.51a24,24,0,0,0-10.73,8.11,33.81,33.81,0,0,1-8,7.76c-3.42,2.42-7,4.5-11.36,5a25.83,25.83,0,0,0-6,1.27,6,6,0,0,0-2.12,1.1,1.24,1.24,0,0,0-.33,1.46c.3.68.88.44,1.37.28,1.35-.46,2.68-1,4-1.4a60.16,60.16,0,0,0,20.24-9.88c2.65-2.05,5.18-4,6.73-7.06a5.63,5.63,0,0,1,1-1.26c3.5-3.88,8-6.19,12.78-8a6.3,6.3,0,0,1,1.57-.27c1.13-.09,2.16,0,2.49,1.4.18.76.63,1.33,1.51,1.16A10,10,0,0,0,63,13.79ZM6.27,37.66c1.54-.06,2.86-.19,4.17-.16A17.91,17.91,0,0,0,17,36.44,31.27,31.27,0,0,0,31.28,26.1,31,31,0,0,1,45.42,15.6c3.64-1.34,6.12-4.21,9.31-6.91a3.57,3.57,0,0,0-3,1.23c-3.2,3.29-7.37,4.88-11.44,6.67a21.22,21.22,0,0,0-8.78,6.7,38.81,38.81,0,0,1-4.38,5c-3.11,3-6.67,5-11.18,4.92a38.45,38.45,0,0,0-4.5.43A5.67,5.67,0,0,0,6.27,37.66ZM80.61,62.45a16.37,16.37,0,0,0,7.93-1.79,7.43,7.43,0,0,0,4.26-7.08,11.36,11.36,0,0,1,1.66-6.33,4.48,4.48,0,0,0,.81-2.49c0-.43.07-.93-.36-1.21s-1,0-1.42.37a18.64,18.64,0,0,0-5.37,8.36C86.64,56.41,85.18,60.52,80.61,62.45ZM7.69,32.21c3.55-.09,6.54-.11,9.53-.26A12.59,12.59,0,0,0,24.52,29a36,36,0,0,0,5.25-5.29c.51-.63,1.24-1.25.94-2.35a3.29,3.29,0,0,0-.84.3,4.88,4.88,0,0,0-1,.88,16.1,16.1,0,0,1-11.37,5.67c-1.24.12-2.49.14-3.72.32A9.64,9.64,0,0,0,7.69,32.21Zm85.6,38.68C90.82,71.51,89,72.3,87.67,74a18,18,0,0,1-5.49,4.55,3,3,0,0,0-1.78,1.68c2.82-.56,5.34-.71,7.7-1.73a3.24,3.24,0,0,0,1.52-1.43C90.74,75.15,91.87,73.26,93.29,70.89ZM83.81,91c2-.87,3.81-1.62,4.55-3.7a4.09,4.09,0,0,1,1.85-1.85c.48-.31,1.21-.41,1.23-1.41-1.37-.14-2.51.55-3.71,1C84.69,86,83.83,87.23,83.81,91ZM88,80.28c3.22.2,5.69-1.16,6.89-3.55.47-.92.79-2,0-2.69s-1.56.36-2.18.9a5,5,0,0,0-1.32,1.64A8.06,8.06,0,0,1,88,80.28ZM29.52,82c-3.48-1.92-12,2.37-14.14,7.2C17.91,87.7,19.8,86,22,84.71A26.24,26.24,0,0,1,29.52,82Zm-5.05,12.7a13.64,13.64,0,0,0,1.59-4c.08-.42.17-.91-.32-1.17a1,1,0,0,0-1,.1A10.59,10.59,0,0,0,21.33,93C23.56,91.92,24,93.12,24.47,94.74Zm-8.36-34c3.29.3,6.7-.67,8.37-2.4A36.49,36.49,0,0,0,16.11,60.76ZM87,35.43a9.7,9.7,0,0,0,5.72-3.88C90.21,32,88.94,34.18,87,35.43ZM37.76,13.67a6,6,0,0,0,5.1-2.94Zm16.61,92.85,5.37-4.36C57.84,103.25,55.55,103.81,54.37,106.52Zm15.46-7.69a17.28,17.28,0,0,0-5.91,1.87C65.76,100.36,67.72,100.53,69.83,98.83ZM60,104c.83-.42,1.89-.43,2.93-1.66A5.56,5.56,0,0,0,60,104ZM59.34,11.1c-.3-.31-.66-.58-1.1-.38-.27.12-.14.44,0,.65a.81.81,0,0,0,.89.34C59.45,11.62,59.48,11.38,59.34,11.1Zm17.1,69.5c-.17.18-.15.31.06.36a.42.42,0,0,0,.25-.07c.2-.09.29-.28.16-.37S76.6,80.57,76.44,80.6ZM84.65,36h.19l-.06-.15Z"/></svg>