<svg id="Layer_1" data-name="Layer 1" xmlns="http://www.w3.org/2000/svg" viewBox="0 0 100 116"><g id="_Radial_Repeat_" data-name="&lt;Radial Repeat&gt;"><path d="M30.67,35.83a.67.67,0,0,0-.3-.88c-.86-.37-1.45.14-1.93.69-.24.39-.27.71,0,1C29,37,30.34,36.56,30.67,35.83Z"/><path d="M63.49,19.52a1.89,1.89,0,0,0-.69,2,6.1,6.1,0,0,1,.34,1.8c0,.64,0,1.26-.81,1.47s-1.14-.29-1.39-.88a14.81,14.81,0,0,1-1.15-3.5c0-.9-.77-1.32-1.19-1.95s-1-.22-1.41.1c-.3.21-.56.59-.34.89A7.23,7.23,0,0,0,58,20.55c-.8.58-.44,1.23-.1,1.85a8.12,8.12,0,0,1,.94,3.26,1.8,1.8,0,0,1-1.32,2c-1,.35-1.46-.35-1.79-1.09-.79-1.74-1.53-3.49-2.29-5.24-2.27,1-2.37,1.13-1.35,2.92A21.55,21.55,0,0,1,53.94,28c.2.59.34,1.24-.25,1.69s-1.3.11-1.84-.39A13.24,13.24,0,0,1,48.92,25c0-.89-.38-1.21-1.2-.65l-.95.54c-.37.14-.51.37-.28.74.24.61.81.89,1.25,1.31a7.1,7.1,0,0,1,2.12,3.52c.16.63.19,1.26-.47,1.61s-1.18-.06-1.59-.53c-.63-.72-1.21-1.48-1.8-2.23-.27-.34-.49-.73-.78-1-.64-.72-1.27-.36-1.83.12s-.23,1.08.22,1.53a19.27,19.27,0,0,1,2.16,1.88c.82,1.1,1,2.11.22,2.77a2.16,2.16,0,0,1-3-.33,9.38,9.38,0,0,1-1.67-2.34c-.64-1.56-1.67-1.78-3.08-1.27h0a6.32,6.32,0,0,1,.31-1c.19-.39.51-.79,0-1.09a.85.85,0,0,0-1,.26c-.34.33-.5.71-.09,1.11.24.24.51.45.76.68a2.2,2.2,0,0,0,1.07,2.21A8.6,8.6,0,0,1,41.17,35a1.55,1.55,0,0,1-.53,2.43c-1.49,1-2.24.85-3.22-.66a8.32,8.32,0,0,1-.88-1.6c-.37-1-1.22-1.08-2.09-1.15l0-.05h0a3,3,0,0,1,.09-.68c.17-.51,1-1,.25-1.51a1.43,1.43,0,0,0-2,.69c-.65,1,.58,1.19.93,1.76a2.51,2.51,0,0,0,.6,2.37A5.21,5.21,0,0,1,35.89,39,1.38,1.38,0,0,1,35,40.69a1.16,1.16,0,0,1-1.62-.36,6.15,6.15,0,0,1-1.28-2.25c-.2-.92-.83-.81-1.39-.52s-1,.74-.52,1.47a9.56,9.56,0,0,1,1,1.82,2,2,0,0,1-.74,2.54c-1.09.68-1.82.13-2.38-.77s-1.19-1.94-1.72-2.94c-.31-.6-.67-1-1.41-.87h0c-.7.23-1.43.45-.81,1.44.79,1,1.55,2.1,2.38,3.12a1.46,1.46,0,0,1-.12,2.29c-.81.67-1.49.38-2.29-.3A26.05,26.05,0,0,1,21,41.47c-.13-.85-.42-1.45-1.41-.82-1.44,1.2-1.44,1.2-.43,2.25.79.82,1.57,1.64,2.33,2.48,1.16,1.27,1.21,2.22.19,3.08-1.29,1.11-2.36,1.11-3.4-.14a13.93,13.93,0,0,1-1.37-2.22c-.27-.45-.45-1-1.15-.73-.59-.46-.06-1.81-1.21-1.72A1.64,1.64,0,0,0,13,45.2c0,1.14.91.68,1.55.63.26,0,.52,0,.78,0-1.13.91-1.28,1.82,0,2.78a9.06,9.06,0,0,1,.9,1c.51.57.77,1.2.21,1.88a1.53,1.53,0,0,1-1.89.47c-.64-.28-1.12-.93-1.8-1.06-.44-.08-1.48-.07-1.83.63s-.55,1.55.63,1.81a6.52,6.52,0,0,1,2.33,1,2.07,2.07,0,0,0,.62.41c1.47.5,4.76,1.38,4.76,1.38A4.53,4.53,0,0,1,21.56,54C25.16,52,58.65,32.73,61,31.11a16.92,16.92,0,0,1,3.89-1.83s.65-6.54.55-8a2.64,2.64,0,0,0-1.19-1.92A1.74,1.74,0,0,0,63.49,19.52Z"/><path d="M64.06,18.68c.46-.33.63-.95-.42-1.21a.88.88,0,0,0-1.08.45c-.29.74.25.89.78.94A1.51,1.51,0,0,0,64.06,18.68Z"/><path d="M43.2,26.91a.45.45,0,0,0,.08-.68c-.46-.3-.84-.08-1.19.2s-.43.61,0,.84S42.89,27.21,43.2,26.91Z"/><path d="M24.23,37.65c.16-.27,0-.48-.29-.6s-.87.09-1,.58c-.09.28.14.48.42.48A.93.93,0,0,0,24.23,37.65Z"/><path d="M9.53,51.72c.21-.51.69-1.07.09-1.62s-.95,0-1.14.45-.71,1,.12,1.52A.61.61,0,0,0,9.53,51.72Z"/></g></svg>