<svg id="Layer_1" data-name="Layer 1" xmlns="http://www.w3.org/2000/svg" viewBox="0 0 100 116"><path d="M34.57,107.25Q19.23,98.69,3.88,90.12C-.67,87.57,0,88.18,0,83.49,0,66.94.12,50.4,0,33.85c0-2.71,1-4.14,3.25-5.49,5.9-3.53,11.91-6.91,17.43-11,2-1.51,4.45-2.27,6.58-3.6,6.6-4.12,13.31-8.06,19.9-12.19a4.17,4.17,0,0,1,4.93,0c15.22,9.05,30.64,17.75,45.76,27a4,4,0,0,1,2.13,3.9c0,16.19-.34,32.37-.59,48.55a16,16,0,0,0,0,2.68c.36,2.5-.8,3.93-2.9,5.13C88.27,93.47,80.13,98.32,72,103.11c-6.25,3.65-12.56,7.21-18.76,11-1.93,1.17-3.62,1.83-5.63.38a5.16,5.16,0,0,0-1.51-.5C42.68,110.93,38.49,109.32,34.57,107.25ZM72,34.44c-2.79,0-8.91,4.11-9.77,6.43-.58,1.56.09,2.56,1.86,2.65a23.54,23.54,0,0,0,5.85-.65,15.88,15.88,0,0,0,5-1.81c1.62-1,1.8-2,.73-3.51-.42-.57-.89-1.12-1.27-1.72A2.79,2.79,0,0,0,72,34.44ZM48.68,83.9a10.75,10.75,0,0,1,4-3.71c1.57-1,1.79-2.94,2.13-4.66a1.45,1.45,0,0,0-.51-1.19c-1.14-1.18-4.32-1.52-5.69-.69a2.33,2.33,0,0,0-1.33,1.85A32.64,32.64,0,0,0,47,80,4.64,4.64,0,0,0,48.68,83.9ZM68.16,67.67a15.74,15.74,0,0,1,3.6-.72c.43-.09.91-.21,1.07-.68s-.22-.84-.57-1.11c-2.64-2.08-5.56-3.86-7.32-6.9a1.52,1.52,0,0,0-1.61-.75c-.78.17-.76.89-.87,1.49-.51,2.83,1.72,7.11,4.34,8.28A9,9,0,0,0,68.16,67.67ZM59.87,88.56c2.81,0,4.23-.78,4.53-3.07a5.35,5.35,0,0,0-1.9-4.72c-1.86-1.66-3.8-1.07-4.37,1.36a30.45,30.45,0,0,0-.49,4C57.43,88.31,57.63,88.53,59.87,88.56ZM78.63,76.35a10.55,10.55,0,0,0,1.51,0c1.26-.25,3.11.24,3.58-1.11s-1.3-1.95-2.16-2.78c-2.47-2.41-4.38-2.51-7-.5-1.12.85-1.22,1.63-.3,2.7A4.9,4.9,0,0,0,78.63,76.35Zm7-11.23c-1-2.27-1.91-3.38-3.8-4.09a18.69,18.69,0,0,1-3.79-2c-1.27-.83-2.53-1.67-3.83-2.46a1.47,1.47,0,0,0-2.15.31c-.55.78,0,1.32.61,1.79a15.52,15.52,0,0,0,2.94,1.86,66.17,66.17,0,0,1,7.83,4.09C84,65.08,84.7,65.67,85.58,65.12ZM23.2,75.53c.09.51,0,1.25.66,1.55s1.17-.19,1.65-.58c.89-.73,1.76-1.49,2.64-2.22,2-1.68,2.12-2.11.66-4.37-.45-.7-.73-1.83-1.84-1.65a3,3,0,0,0-2.6,2C23.9,72,23.59,73.72,23.2,75.53ZM27.52,39.3c1.51,0,2.07-.67,1.51-2-1-2.58-3.3-3.84-5.65-5a1,1,0,0,0-1.17.38,3.47,3.47,0,0,0,.84,5.26A17.83,17.83,0,0,0,27.52,39.3Zm3.11,25.23a14.65,14.65,0,0,0,1.86,4.94,1,1,0,0,0,.95.32c1.67-.24,3.48-2.57,3.7-4.77.13-1.33-.28-1.68-2.89-2.44a7.43,7.43,0,0,0-1-.27A2.07,2.07,0,0,0,30.63,64.53ZM44.75,46.72c0-2.11-.4-2.93-1.77-3.18a8.15,8.15,0,0,0-3.44.13c-.86.22-.92.68-.42,1.36.7.92,1.38,1.85,2,2.82A2.29,2.29,0,0,0,44.08,49C45.21,48.55,44.57,47.43,44.75,46.72ZM84.92,33.81c-2,.06-4.69,3.72-4.07,5.65a2.62,2.62,0,0,0,.23.48c.25.44.7.75,1,.31,1.23-1.54,3.29-2.17,4.3-3.94.36-.62.69-1.31.21-2S85.54,33.83,84.92,33.81ZM26.44,51.53c-2,0-3.66,1.34-4.42,3.57-.21.63-.84,1.31.07,1.86a1.69,1.69,0,0,0,2.22,0c1.1-1,2.2-2.08,3.28-3.14A1.38,1.38,0,0,0,28,52.31C27.74,51.6,27.09,51.53,26.44,51.53ZM5.22,32.87a13.63,13.63,0,0,0,4.14,2.2,7.67,7.67,0,0,0,3.61.84c.43,0,.95.09,1.14-.46a.91.91,0,0,0-.52-1.11c-1.3-.76-2.65-1.46-3.94-2.25C8,31.1,6.63,31.18,5.22,32.87ZM58,21.57a2.56,2.56,0,0,0-.5,1.82c-.12,2,.5,3.88.64,5.84a1.48,1.48,0,0,0,1.61,1.48c1-.08,1.28-.84,1.42-1.68a2.41,2.41,0,0,0,0-.8C60.76,25.78,60.24,23.35,58,21.57ZM39,41.72c.85-.08,2.13-.06,2.63-1s-.46-1.78-1-2.59a6.17,6.17,0,0,0-.84-1c-1.38-1.35-1.89-1.29-2.71.37a7.14,7.14,0,0,0-.53,1.49C36.11,41,36.74,41.76,39,41.72Zm39.27.33a25.65,25.65,0,0,1-5.58,2.41c-1.34.48-2.69,1-4,1.56-.75.33-2.12.45-1.61,1.64s1.7.71,2.65.46a3.07,3.07,0,0,0,.93-.52,45.58,45.58,0,0,1,4.16-2.43C76.19,44.41,77.66,43.71,78.29,42.05ZM31.15,95.13l.56.41c.69-.8,1.33-1.65,2.09-2.38s.71-2,.83-3a.86.86,0,0,0-.74-1,2.41,2.41,0,0,0-3.17,2.5C30.77,92.86,31,94,31.15,95.13Zm26-1.58c0,1.86.38,2.4,1.92,2.44s2.26-1,2.26-2.89c0-1.17-.78-1.76-2.38-1.81C57.55,91.26,57.17,91.73,57.14,93.55ZM51,90.64c2-.6,2.93-1.85,2.57-4a9.37,9.37,0,0,1,0-1.59c0-.54,0-1.14-.66-1.28a1.32,1.32,0,0,0-1.31.72C50.25,86.45,49.49,88.41,51,90.64ZM48,8.17l-.77.12c.25,2.68.48,5.37.76,8.06a.84.84,0,0,0,.93.78,1.13,1.13,0,0,0,.92-.86C51,13.15,49.71,10.6,48,8.17ZM15.55,51.46a11.65,11.65,0,0,0,6.54-2.09,1.9,1.9,0,0,0,.37-.38c.37-.57.29-1-.43-1.15C18.9,47,16.5,48.33,15.55,51.46Zm72,4.9c-1.88-1.68-3.64-2.92-6-3-.62,0-1.36-.07-1.6.65s.3,1,.75,1.3C82.7,56.45,84.63,57.87,87.57,56.36Zm-53.46-25a2.66,2.66,0,0,0-2.22-3.09.8.8,0,0,0-.84.48,6.57,6.57,0,0,0,.18,4.9c.7.92,1.55.93,2.07-.09A15.93,15.93,0,0,0,34.11,31.31ZM20.56,23.48a4,4,0,0,0-2.62,1.25,1.46,1.46,0,0,0-.39,1.94,3.55,3.55,0,0,0,2.82,1.78,1.76,1.76,0,0,0,1.8-.92,1.18,1.18,0,0,0-.08-1.26C21.58,25.35,21.07,24.41,20.56,23.48ZM36,98.84c-.11-.87,0-1.89-.76-2.25-1-.45-1.54.62-2.16,1.19a4.54,4.54,0,0,0-.73,1.11,1.56,1.56,0,0,0,.59,2.28c1.76,1.24,2.38,1,2.85-1.09C35.9,99.64,36,99.2,36,98.84ZM44.74,9c-3.21,1-3.65,2.13-1.8,4.46a6.65,6.65,0,0,0,1.13,1.12c.79.61,1.33.37,1.36-.64A17.29,17.29,0,0,0,44.74,9Zm30.9,79.87a.94.94,0,0,0-.88,1A13.79,13.79,0,0,0,75.32,94c.16.84.58,1.6,1.66,1.08.89-.43,1.92-.94,1.33-2.19a36.92,36.92,0,0,0-2.12-3.71C76.08,89,75.78,88.91,75.64,88.82Zm4.3-60.52c-1.26.06-2.44-.32-3.65-.28a2.73,2.73,0,0,0-1.76.45c-.42.33-.84.71-.71,1.31s.51.66,1,.81C76.79,31.25,78.38,30.66,79.94,28.3ZM93.81,38.47c-2.61-.46-4.54.88-6.64,1.47a.92.92,0,0,0-.71.72c-.06.56.42.72.83.87C89.54,42.37,92.26,41.15,93.81,38.47ZM13.72,57.11c-2.3-1-4.24-.51-6.15-.37a1.34,1.34,0,0,0-1.2,1.52c.07.76.81.88,1.41,1a12.09,12.09,0,0,0,1.59,0C11,59.18,12.06,58,13.72,57.11ZM39.54,19.59A15.49,15.49,0,0,0,42.81,25c.29.33.66.65,1.14.39a1.31,1.31,0,0,0,.79-1.52,3.42,3.42,0,0,0-.84-1.31A12.15,12.15,0,0,0,39.54,19.59ZM78.25,80a21.22,21.22,0,0,0,4.55,4.28c.46.31,1.11.79,1.62,0a1.36,1.36,0,0,0-.2-1.93C82.46,81.13,80.66,79.87,78.25,80Zm-62.17-.43c.13.56-.35,1.47.71,1.67.63.12,2.73-1.32,3-2,.62-1.45-.08-2.47-1.67-2.43S16.09,77.38,16.08,79.57Zm6.29,2.75c2.67.42,4.37-.85,6.27-1,.74,0,1.14-1.83.65-2.51s-1.13-.36-1.62,0A34.29,34.29,0,0,0,22.37,82.32ZM6.85,73.65c-1.2,0-2.11-.23-2.39.86A1.53,1.53,0,0,0,5,76.18a4,4,0,0,0,4.06-.08c.9-.74.81-1.61-.29-2A13.85,13.85,0,0,0,6.85,73.65ZM94.78,49.19a9.64,9.64,0,0,0-7.44-1.32C89.81,50.34,92.25,50,94.78,49.19ZM9.83,83.9C8.64,82.63,7.6,81.6,6,81.63A1.41,1.41,0,0,0,4.4,83.06c0,1,.38,1.76,1.47,1.8A7.71,7.71,0,0,0,9.83,83.9ZM51,104.9c.79-2.12,1-4.35,1.81-6.41a2.07,2.07,0,0,0,.14-.78,1.42,1.42,0,0,0-1.45-1.55c-.85,0-.89.74-.93,1.35A29.57,29.57,0,0,0,51,104.9ZM44.9,92.4c2.42-2.67,2.26-4.52-.67-6.24C44.28,88.33,42.86,90.48,44.9,92.4ZM88.58,62.86c1.54,2.35,3.07,3.84,5.58,3.87.47,0,.94,0,1-.6a.88.88,0,0,0-.5-.88C92.92,64.27,91.24,63.05,88.58,62.86Zm4,12.73c-.47,0-.65,0-.82,0-.42.07-.94,0-1.1.54s.28.78.64,1c.88.58,1.74,1.2,2.66,1.71s1.5.1,1.51-1C95.48,76.37,94.44,75.62,92.56,75.59Zm-.83-2.68A11.82,11.82,0,0,0,88,69.69c-.63-.33-1.48-.51-1.89.27s.38,1.07.87,1.42A7.76,7.76,0,0,0,91.73,72.91ZM34.67,24.4a1.6,1.6,0,0,0-.13-.5,11.45,11.45,0,0,0-2.93-3c-.44-.33-.82.1-.91.59A3.27,3.27,0,0,0,34,25.07.77.77,0,0,0,34.67,24.4Zm-6.24,2a3.51,3.51,0,0,0-.23-1.82c-.3-.51-.8-.8-1.31-.38a3.14,3.14,0,0,0-1.27,2.51c0,.73,1.34,2.11,1.89,2,.89-.24.71-1.1.87-1.74A4.75,4.75,0,0,0,28.43,26.4Zm-20.78,45a1,1,0,0,0,.1.24c1,1.28,3.86.88,4.54-.63.42-.93,0-1.6-1.09-1.38a22.09,22.09,0,0,0-3,1A.74.74,0,0,0,7.65,71.37ZM47.37,99.51c-1.49,2.08-.91,5.69,1.29,9C47.64,105.77,48.28,102.8,47.37,99.51ZM56.71,105c-.05-.81-.06-1.8-1-2s-1.24.81-1.46,1.59a4.73,4.73,0,0,0-.23,1c0,.84-.5,2,.66,2.26s1.62-.85,1.83-1.88C56.59,105.68,56.65,105.33,56.71,105ZM44.77,35.92a8.1,8.1,0,0,0,0,1c.15.84,0,1.89,1.15,2.14.66.15,1.49-1.51,1.3-2.57a2.8,2.8,0,0,0-1-1.81c-.62-.48-1.17-.42-1.39.41A2.47,2.47,0,0,0,44.77,35.92ZM13.24,81.24c-.49-.69.24-2.12-1.18-2.45-.56-.14-2.61,1.56-2.61,2,0,.59,1.71,1.68,2.75,1.78C13.07,82.62,13.21,82.06,13.24,81.24ZM10.16,48.5a2.22,2.22,0,0,0-1.45.56c-.57.53-1.37.93-1.32,1.85,0,.34.37.58.74.67a2.25,2.25,0,0,0,2.41-.64,3.92,3.92,0,0,0,.59-.87C11.58,49.13,11.15,48.47,10.16,48.5ZM61.1,21.19c0-2.08.57-3.67.32-5.42C58.57,17.77,58.46,18.72,61.1,21.19ZM19.62,89.05c-.08.76.33,1,.95,1,1.12,0,2.76-.73,2.68-1.34-.13-1.15-1.17-1.26-2-1.36C20,87.21,19.88,88.25,19.62,89.05Zm-5.09.72c.05.37-.07.92.47,1.07.72.19.86-.45,1-.93.31-.83.59-1.67.83-2.52a.8.8,0,0,0-.48-1.08.92.92,0,0,0-1.3.55A8.7,8.7,0,0,0,14.53,89.77Zm19.4-12.94a12.87,12.87,0,0,0-1.69,3.81c-.12.59-.22,1.32.65,1.45a1.15,1.15,0,0,0,1.3-1A8.53,8.53,0,0,0,33.93,76.83ZM72.7,96.47a7.85,7.85,0,0,0-1.37-3.9c-.27-.43-.63-1-1.24-.55a1.07,1.07,0,0,0-.27,1.43A6.31,6.31,0,0,0,72.7,96.47ZM64.87,16.34c-.21,1.58-1.27,3.11-.25,5C66.07,19.6,66.18,18,64.87,16.34Zm23.5,43.17c2,.62,3,2.33,5.08,1.8C91.61,59,91,58.67,88.37,59.51ZM17.34,74a2.15,2.15,0,0,0,1.9,0,1.15,1.15,0,0,0,.83-1.22,1,1,0,0,0-.58-1.09,1.22,1.22,0,0,0-1.41.47A2.19,2.19,0,0,0,17.34,74ZM53.81,9.76C52.76,11,53,12.11,52.75,13.1c-.11.4-.11.94.48,1a1,1,0,0,0,1.05-.65C54.93,12.25,54.36,11.16,53.81,9.76ZM20.64,59.41a1.58,1.58,0,0,0-1.34,1.65c0,.75.61,1,1.27,1A1.36,1.36,0,0,0,22,60.76C22,59.91,21.43,59.55,20.64,59.41ZM82.16,30.54l.46.47c1.41-.48,1.91-1.83,2.56-3a.55.55,0,0,0-.17-.72.63.63,0,0,0-.94.11C83.4,28.41,82.79,29.48,82.16,30.54ZM35.69,14a2,2,0,0,0-.46.24c-.49.45-.31,1-.09,1.46.28.64.47,1.38,1.28,1.57a.54.54,0,0,0,.47-.15,1.71,1.71,0,0,0,.12-2C36.74,14.52,36.45,14,35.69,14ZM90.47,44.47a8.32,8.32,0,0,0,4.22.94.61.61,0,0,0,.62-.7.78.78,0,0,0-.47-.57A5.74,5.74,0,0,0,90.47,44.47ZM26.3,95a3.52,3.52,0,0,0,2.34-1.56,1,1,0,0,0-.16-1.21c-.41-.4-.8-.13-1.15.15A2.43,2.43,0,0,0,26.3,95ZM85.2,78.81c0-.65-.13-1.29-1-1.19-.66.07-1.46.09-1.67.95-.1.41,1.47,1.62,1.94,1.5C85.14,79.91,85.13,79.33,85.2,78.81Zm6.61,2.39a6.41,6.41,0,0,0,2.39,2.67.64.64,0,0,0,.93-.15.76.76,0,0,0,0-1A4.47,4.47,0,0,0,91.81,81.2ZM79,22.23c-.72,0-1.09.22-1,.76a2.29,2.29,0,0,0,2.17,1.62c.35.06.84,0,.91-.35.24-1.05-.86-1.14-1.37-1.65A2.14,2.14,0,0,0,79,22.23Zm12,63a6.08,6.08,0,0,0-2.22-3.12A.52.52,0,0,0,88,82a.69.69,0,0,0-.13,1A4.73,4.73,0,0,0,91,85.19ZM11.69,60.09a5.2,5.2,0,0,0,4.27.47.85.85,0,0,0,.63-1c-.1-.39-.5-.48-.85-.47A7.93,7.93,0,0,0,11.69,60.09Zm26.8-37c-.3,2.08,0,2.53,2.22,3.42A4.09,4.09,0,0,0,38.49,23.13Zm21.7,81.57a3.8,3.8,0,0,0,2-1,1,1,0,0,0,0-1.63c-.5-.46-1-.24-1.37.22A2.2,2.2,0,0,0,60.19,104.7Zm20-59.27c-.88.5-2,.67-2.52,1.74a.48.48,0,0,0,.18.43,4,4,0,0,0,2.94-.88.63.63,0,0,0,.19-.93C80.88,45.61,80.56,45.57,80.22,45.43ZM46,28.36c-.51.3-1.31.49-1.1,1.44a1,1,0,0,0,1.2.81c.88-.13,1.11-.79,1-1.57C47,28.56,46.64,28.29,46,28.36Zm46.54,6.8A2.07,2.07,0,0,0,90,34.71a.66.66,0,0,0-.18,1c.87,1,1.74.41,2.58-.11C92.46,35.52,92.46,35.4,92.54,35.16ZM76.39,63.73c1.44,2,1.44,2,3.48,1.21C79,64,77.9,63.94,76.39,63.73ZM70,20.55a1.07,1.07,0,0,0,.39-1c-.1-.76.23-1.65-.57-2.2a.72.72,0,0,0-.71.07,2,2,0,0,0,0,2.47A1.13,1.13,0,0,0,70,20.55ZM47.45,93.8c-1,.85-2.22,1.59-1.65,3.54C47,96.26,47.71,95.29,47.45,93.8ZM29.27,99.07c-.21-1.21.21-2.25-.95-2.76-.39-.16-.87.27-1,.71C27,98.4,28,98.54,29.27,99.07Zm-9.51-5.52a1.56,1.56,0,0,0,1,1,.88.88,0,0,0,1.2-.18,1.21,1.21,0,0,0,.25-1.26c-.26-.51-.75-.35-1.18-.26A1.67,1.67,0,0,0,19.76,93.55ZM10.14,38.26c-.51,0-1,.15-.91.7a1.55,1.55,0,0,0,1.58,1.16c.49,0,1-.19.88-.71C11.54,38.6,10.85,38.35,10.14,38.26Zm82.7,32.09c.44,1,1,1.86,2.1,2,.25,0,.43-.33.36-.58C95,70.57,93.91,70.45,92.84,70.35ZM67.08,23.14c-.17,0-.4,0-.48.13a2.2,2.2,0,0,0-.31,2.46.51.51,0,0,0,.44.19c.74-.19.87-.81.92-1.44S67.7,23.4,67.08,23.14ZM11,63c1.12.59,1.91,1.17,2.89.46a.48.48,0,0,0,.09-.45C13.1,62.26,12.19,62.11,11,63ZM88.27,85.65a.59.59,0,0,0-.85.46,1.37,1.37,0,0,0,.88,1.72.75.75,0,0,0,1.11-.39C89.65,86.48,88.89,86.05,88.27,85.65ZM13.16,30.18a1.9,1.9,0,0,0-.6-1.59.75.75,0,0,0-1.16,0,.66.66,0,0,0,0,1.12A1.59,1.59,0,0,0,13.16,30.18ZM33.65,19.91a4.39,4.39,0,0,0-2.38-3.36A4.21,4.21,0,0,0,33.65,19.91ZM4.56,39.82a1,1,0,0,0,1.12,1c.43,0,1,0,1-.59a1.29,1.29,0,0,0-1.3-1.35C4.86,38.88,4.66,39.29,4.56,39.82ZM57.72,97.89c-.47.11-.6.42-.45.79.21.54.16,1.38.95,1.41.62,0,.87-.57.78-1.13A1.29,1.29,0,0,0,57.72,97.89Zm36.8-66c-.48.06-1,.2-1,.7-.08.72.59.78,1.08.9a.66.66,0,0,0,.93-.62C95.55,32.24,95.1,32,94.52,31.9ZM4.51,64c0,.6.21,1.07.92,1,.45-.06,1-.29,1-.73A1.16,1.16,0,0,0,5.2,63.09C4.62,63.05,4.56,63.56,4.51,64ZM26,85.62a1.24,1.24,0,0,0,1.38.45c.36-.08.69-.34.56-.73-.22-.67-.81-.54-1.32-.42C26.31,85,26,85.17,26,85.62Zm53.63,4.17c.1,1.3.36,2.07,1.8,2.39C81.18,91.1,81,90.29,79.65,89.79Zm9.66-60.15a.85.85,0,0,0,1.08.82c.4-.06.65-.33.56-.71a1.09,1.09,0,0,0-1.14-.86C89.35,28.89,89.3,29.27,89.31,29.64Zm-3.62.67c0,.44.2.67.6.7a1,1,0,0,0,1.13-.79c.07-.36,0-.75-.41-.82C86.29,29.26,86,29.77,85.69,30.31ZM50.35,6.05a.54.54,0,0,0-.36.8c.14.4.26.94.76.93s.58-.56.51-1A.83.83,0,0,0,50.35,6.05ZM18.44,54.59c-.33.08-.72.18-.65.6s.43.51.79.5.67-.23.62-.63S18.81,54.55,18.44,54.59ZM9.72,86.93a.42.42,0,0,0-.47-.5c-.43,0-1,0-1.13.51s.23.62.6.66A.94.94,0,0,0,9.72,86.93ZM25,22.63a.89.89,0,0,0-.74-.9c-.39-.07-.62.25-.63.62,0,.54.11,1,.8,1C24.85,23.35,25,23,25,22.63ZM85,43.9c-.43.11-1.1-.12-1.16.65,0,.27.27.44.53.44.54,0,1.07-.09,1.2-.71C85.59,44,85.26,43.92,85,43.9ZM69.79,98.8c.3-.12.5-.34.42-.59-.2-.59-.54-1.11-1.26-1.09-.28,0-.39.32-.32.58C68.81,98.29,69,98.85,69.79,98.8Zm-50.08-68a.67.67,0,0,0-.57-.72c-.26,0-.53.05-.55.33a.73.73,0,0,0,.65.88C19.51,31.3,19.66,31.05,19.71,30.78ZM5,36.12a.72.72,0,0,0,.72.63c.29,0,.54-.16.41-.45a1.1,1.1,0,0,0-.58-.47A.36.36,0,0,0,5,36.12Zm.59,12.51a.86.86,0,0,0-.8.59.39.39,0,0,0,.45.5.85.85,0,0,0,.79-.6C6.07,48.79,5.86,48.64,5.54,48.63ZM94.37,42a.51.51,0,0,0,.55.52.49.49,0,0,0,.53-.48.45.45,0,0,0-.52-.47A.61.61,0,0,0,94.37,42ZM38.79,28.14c-.09.11-.27.23-.26.34a.38.38,0,1,0,.75.12A.47.47,0,0,0,38.79,28.14ZM11.94,89c.09.14.15.36.27.39a.36.36,0,0,0,.49-.4.51.51,0,0,0-.26-.39C12.14,88.5,12,88.7,11.94,89Zm83.38-36c-.12-.09-.25-.26-.37-.26a.43.43,0,0,0-.31.29.36.36,0,0,0,.49.37C95.22,53.31,95.26,53.08,95.32,52.94ZM53.48,93.44l-.2-.44c-.14.07-.35.12-.4.23s.11.28.18.42ZM78.71,35.27c.14-.08.32-.12.41-.23a.26.26,0,0,0-.13-.43c-.26-.1-.52,0-.55.28C78.43,35,78.62,35.14,78.71,35.27ZM41.12,32c-.11.81,0,1,.28,1.11s.49-.08.54-.35,0-.7-.44-.72C41.24,32,41.08,32.23,41.12,32ZM5,53.56a1.85,1.85,0,0,0-.23.34s.11.19.13.18.25-.14.38-.21C5.22,53.77,5.13,53.66,5,53.56Zm39.58,53.28c-.07-.23-.2-.29-.4-.16s-.15.18-.14.21.2.31.32.32S44.66,107.05,44.61,106.84ZM24.72,30c-.11-.09-.22-.25-.35-.27a.19.19,0,0,0-.22.29.54.54,0,0,0,.34.29C24.67,30.34,24.75,30.19,24.72,30Z"/></svg>