<svg id="Layer_1" data-name="Layer 1" xmlns="http://www.w3.org/2000/svg" viewBox="0 0 100 116"><defs><style>.cls-1{fill:none;}</style></defs><path class="cls-1" d="M20.29,91.69c-.85,0-1.17.68-1.24,1.39s.47.92,1,.92c.84,0,1.15-.61,1.3-1.34A1.11,1.11,0,0,0,20.29,91.69Z"/><path class="cls-1" d="M25,93.5a3.8,3.8,0,0,1-.05.46c-.12-.18-.24-.35,0-.48a4,4,0,0,1-.06-.5c0-.5.31-1.12-.3-1.39s-1,.17-1.34.58A15.65,15.65,0,0,0,22,93.91a1,1,0,0,0,.4,1.56c.66.38,1.35,1,2.1.21a7.2,7.2,0,0,0,.82-1.33l.63-.86Z"/><path class="cls-1" d="M18.59,88.61a6.1,6.1,0,0,0-2.75,2,6.09,6.09,0,0,0-.36.76,1.35,1.35,0,0,0,1.47.82,5.25,5.25,0,0,0,2.46-2.92C19.44,88.71,19.14,88.38,18.59,88.61Z"/><path class="cls-1" d="M6.65,65.28c-1.06.26-1.87,1-1.78,2,.1,1.26,1.35.81,2,1a2.86,2.86,0,0,0,2.76-1.52.73.73,0,0,0,0-1A2.84,2.84,0,0,0,6.65,65.28Z"/><path class="cls-1" d="M4.66,74.19c0,.34.07.76.52.71s.62-.54.62-1a.67.67,0,0,0-.68-.74C4.69,73.32,4.64,73.74,4.66,74.19Z"/><path class="cls-1" d="M27.78,92.36c0-.11-.18-.37-.25-.36a1.59,1.59,0,0,0-1.45,1.44C26.83,93.39,27.62,93.37,27.78,92.36Z"/><path class="cls-1" d="M31.54,98.43c-2.23-.67-2.19-2.28-1.85-4.09a1.54,1.54,0,0,0-.45-1.46h0c-.81,1.23-1.26,2.78-2.92,3.24-.35.1-.67.28-.6.72s.38.74.68.71c1.32-.1,2,.84,2.82,1.57a6.47,6.47,0,0,0,1.88,1c.72.28.9-.27,1-.82C31.93,99,31.8,98.5,31.54,98.43Z"/><path class="cls-1" d="M34.23,100.81a.72.72,0,0,0,.4,1.08.69.69,0,0,0,.92-.28,3.18,3.18,0,0,0,.57-2.53A2.77,2.77,0,0,0,34.23,100.81Z"/><path class="cls-1" d="M5,77.63c.19.6.71.45,1.12.38,1.85-.27,3.09-1.52,4.37-2.74-1.91-.23-3.43.71-5,1.52C5.18,77,4.87,77.22,5,77.63Z"/><path class="cls-1" d="M35.1,91.29c-.14-.78-.68-1.08-1.38-.71-1,.52-2.29.59-3,1.69a6.36,6.36,0,0,0,1.12,4.26,6.88,6.88,0,0,1,.7,2.26c1.34.19,1.92-.64,2.36-1.71A10.11,10.11,0,0,0,35.1,91.29Z"/><path class="cls-1" d="M32.7,89.45c.33-.27.75-.7.42-1.07-.52-.58-.92,0-1.21.39s-.37.6-.12.94S32.45,89.66,32.7,89.45Z"/><path class="cls-1" d="M50.88,16.72a8.69,8.69,0,0,0,0,6.93A9.66,9.66,0,0,0,50.88,16.72Z"/><path class="cls-1" d="M47,41.62c-.1.23.2.56.46.52,1.15-.16,1.78-.87,2.13-2.21A2.8,2.8,0,0,0,47,41.62Z"/><path class="cls-1" d="M5.48,70.07c.46.78.86,1.43,1.24,2.09s.81.78,1.3.38c1-.83,2.33-1.47,2.76-3.35C8.89,69.64,7.22,69.32,5.48,70.07Z"/><path class="cls-1" d="M48.19,13.78a2.36,2.36,0,0,0,.23.77A1.43,1.43,0,0,0,51,15a36.56,36.56,0,0,0,2.36-2.91,1.35,1.35,0,0,0,.08-1.74,10.28,10.28,0,0,1-1.32-2.9c-.43-1.21-1.26-1.3-2.25-.39A5.85,5.85,0,0,0,48,11.91C48.09,12.54,48.12,13.16,48.19,13.78Z"/><path class="cls-1" d="M49,45.52c1,0,1-.73,1.07-1.39-.09-.48-.17-1.05-.73-.85a1.56,1.56,0,0,0-1.07,1.62A.71.71,0,0,0,49,45.52Z"/><path class="cls-1" d="M50.35,35.27c.6-.05.43-.61.49-1s0-.8-.46-.76-.55.57-.55,1S50,35.3,50.35,35.27Z"/><path class="cls-1" d="M10,84.34c-.42-.49,0-1,.22-1.48A6.13,6.13,0,0,0,11,80.3c.07-1.29-.63-1.77-1.86-1.38a5.41,5.41,0,0,0-2.7,2.49l-.9,0c0-.33.07-.76-.31-.91s-.66.19-.68.53c0,.6,0,1.21,0,1.82l.94-1.44.9,0C6.22,82,6,82.5,5.87,83.05,5.6,84.4,6.18,85,7.51,84.8c.47,0,1.22-.44,1.28.28s-.74.53-1.24.55-1.15,0-1.46.5.13.65.45.83c1.19.67,2-.19,2.91-.73C10.1,85.82,10.87,85.33,10,84.34Z"/><path class="cls-1" d="M6.11,32.88c.28-.34,1.17-.38.72-1.07s-1-.43-1.46.13a3.11,3.11,0,0,0-.3.95Z"/><path class="cls-1" d="M48.39,21.42c-.64.39-1.2.81-.81,1.74a.47.47,0,0,0,.42.22c.81-.3.74-1,.69-1.68C48.69,21.64,48.57,21.59,48.39,21.42Z"/><path class="cls-1" d="M35.59,14.07h.27c.44,0,.91.1,1.19-.37a.52.52,0,0,0,0-.46c-.48-.28-.84.06-1.21.29l-.24.13c0,.13,0,.27,0,.4Z"/><path class="cls-1" d="M40,89c-3.4,3.14-3.73,4-2.37,6.09C38.44,93.15,39.85,91.61,40,89Z"/><path class="cls-1" d="M57,101.81c-1.54.31-3.19,3.19-2.73,4.73.13.46.34.81.91.76a3.94,3.94,0,0,0,3.12-3.22c-.11-.41-.27-1.1-.49-1.77A.65.65,0,0,0,57,101.81Z"/><path class="cls-1" d="M63.47,97.82c-.83,0-.83,1.24-1.8,1.06,0-.37-.06-.72-.12-1.06-.32-1.83-1.31-2.37-2.68-1.3a5.87,5.87,0,0,0-2.72,4.11c1.46-.72,2.25-.34,3.2.78.64.77,2.4.43,3.15,1.65,0,0,.16,0,.25,0a2.16,2.16,0,0,0,1.77-2.92A5.62,5.62,0,0,0,63.47,97.82Z"/><path class="cls-1" d="M36.56,89.9a.48.48,0,0,1-.19-.09A.48.48,0,0,0,36.56,89.9Z"/><path class="cls-1" d="M51.59,108.06c0,.33,0,.76.5.82a.83.83,0,0,0,.92-.77,5.4,5.4,0,0,0-.61-4A6.67,6.67,0,0,0,51.59,108.06Z"/><path class="cls-1" d="M52.81,96.6c-.55-.27-1.1-.39-1.27.3a8.28,8.28,0,0,0-.42,4.18c.18.64.23,1.53,1.14,1.59a1.74,1.74,0,0,0,1.84-1.57,7.54,7.54,0,0,0,.13-1.25C54.19,98.34,54,97.22,52.81,96.6Z"/><path class="cls-1" d="M66.78,92a4,4,0,0,0-2,2.73c-.15.75.6,1.5,1,1,1.47-1.71,1.79,0,2.48.64.3.3.52.77,1.24.59a12.25,12.25,0,0,0-.35-3.85A1.49,1.49,0,0,0,66.78,92Z"/><path class="cls-1" d="M47.09,18.83a1.2,1.2,0,0,1,.08.42A1.2,1.2,0,0,0,47.09,18.83Z"/><path class="cls-1" d="M53.77,80.15c-.51,0-2.67,2.78-2.63,3.35s0,1.18.74,1.22A1.26,1.26,0,0,0,53.16,84c.3-.74-.09-1.6.37-2.3.69-.47,1.25.87,2,0A1.91,1.91,0,0,0,53.77,80.15Z"/><path class="cls-1" d="M6.14,46c-.11.1-.22.2-.34.29C5.92,46.24,6,46.14,6.14,46Z"/><path class="cls-1" d="M9.44,64.08h0Z"/><path class="cls-1" d="M66.29,97.58c-.78.14-.86.76-.86,1.46s.24,1.67,1.31,1.53A1.47,1.47,0,0,0,68.2,99,1.81,1.81,0,0,0,66.29,97.58Z"/><path class="cls-1" d="M57.13,84.58c-.36-1.13-1.74-1.69-2.21-.82-.88,1.61-2.83,2.84-2.14,5.14a9,9,0,0,0,1.51,3.58,9.56,9.56,0,0,0,2.11-2.31A5.61,5.61,0,0,0,57.13,84.58Z"/><path class="cls-1" d="M40.85,98.49a10.15,10.15,0,0,0,.92-4,1.64,1.64,0,0,0,0-.43c-.08-.52-.09-1.14-.7-1.32s-1,.34-1.24.79c-.94,1.46-1.67,3-1.06,4.78.16.47.09,1.17.75,1.27S40.61,99,40.85,98.49Z"/><path class="cls-1" d="M37,102.81a1.11,1.11,0,0,0,1.09,1c.72.06.81-.52.87-1a3.18,3.18,0,0,0-1-2.79A3.46,3.46,0,0,0,37,102.81Z"/><path class="cls-1" d="M54.37,9.32A.37.37,0,0,0,54.91,9c.08-.4-.19-.59-.5-.69s-.55.11-.47.41A1,1,0,0,0,54.37,9.32Z"/><path class="cls-1" d="M44.34,98.2a2.14,2.14,0,0,0,.91-2.52,6.49,6.49,0,0,0-3.53,3.45c-.63,1.17-1.08,2.44-1.61,3.67-.82,1.85-.82,1.85,1.3,2.55a3.17,3.17,0,0,0,.42-1.78C42.1,101.51,42.45,99.54,44.34,98.2Z"/><path class="cls-1" d="M42.29,87.27c-.32,1.81-.67,3,.48,4.7C43.43,90.2,43.53,89,42.29,87.27Z"/><path class="cls-1" d="M50.09,105.62c0-.1-.26-.14-.41-.22-.57.52-.08,1.64-1.19,2-.26-1.08-.16-2.47-1.79-2.45-.17.66-.36,1.32-.51,2-.12.52-.2,1.14.32,1.46,1,.63,2.07,1.83,3.28,1.37s.55-1.85.53-2.86A5.73,5.73,0,0,0,50.09,105.62Z"/><path class="cls-1" d="M52.81,93.15c-.6-1.15-.64-2.37-1.75-3.13-2.17,1.92-1.42,4.2-1.13,6.9a4.2,4.2,0,0,0,.8-3C50.74,92.17,51.94,93.18,52.81,93.15Z"/><path class="cls-1" d="M46.68,104.89c.17-1,1-1.35,1.65-2a2.68,2.68,0,0,0,.91-2.66A5.76,5.76,0,0,0,47.76,97c-2,1.13-2.95,3.21-4.26,4.91a2.5,2.5,0,0,0,.47,3c.73.84,1.48.12,2.22,0A2.68,2.68,0,0,1,46.68,104.89Z"/><path class="cls-1" d="M36.19,88.88a.47.47,0,0,0-.15.5,1.22,1.22,0,0,0,.3.42,1.22,1.22,0,0,1-.3-.42A.47.47,0,0,1,36.19,88.88Z"/><path class="cls-1" d="M65.07,107a1,1,0,0,0-.15.13l4.36-2.52a1.82,1.82,0,0,0-.29.08A23.44,23.44,0,0,0,65.07,107Z"/><path class="cls-1" d="M79.8,98.53l4.92-2.84a3.44,3.44,0,0,0-1.34.55C81.23,97.6,80.25,98,79.8,98.53Z"/><path class="cls-1" d="M94.28,38.44a3,3,0,0,0,.88-2.69,1,1,0,0,0-.35-.67c-.37-.23-.69.05-.89.33a4.92,4.92,0,0,0-.42.9c.53.1,1.11.21.57.94-.7.94-2,1.44-2.15,2.79A6.68,6.68,0,0,0,94.28,38.44Z"/><path class="cls-1" d="M46.71,113.83h0l.82.47A1.72,1.72,0,0,0,46.71,113.83Z"/><path class="cls-1" d="M87.51,43c1.21-.22,1-1.59,1.58-2.3.33-.39.78-.76.65-1.42a5.57,5.57,0,0,0-3-.77,3.79,3.79,0,0,0-3.37,1.8c-.55.72-.45,1.37.35,1.74A6.34,6.34,0,0,0,87.51,43Z"/><path class="cls-1" d="M83.57,37c-1.91,0-3.78-.09-5.54,1.49,1.57.32,2.16,1.38,2.86,3.16A16,16,0,0,1,83.57,37Z"/><path class="cls-1" d="M82.76,43.93c-.09-.46.45-1.11-.17-1.32-.85-.29-1.45.16-1.65,1.06C81.58,44,82.22,43.6,82.76,43.93Z"/><path class="cls-1" d="M84.51,44.18c-.52-.44-1.11-.09-1.67-.16C83.24,45.25,83.27,45.24,84.51,44.18Z"/><path class="cls-1" d="M50.18.37,50,.26l-.27.16a1.6,1.6,0,0,0,.31,0C50.1.41,50.13.38,50.18.37Z"/><polygon class="cls-1" points="79.77 44.34 79.62 44.26 79.6 44.4 79.77 44.34"/><path class="cls-1" d="M.55,28.81.24,29A.9.9,0,0,0,.55,28.81Z"/><path class="cls-1" d="M90.89,23.87l-1.16-.66a1.23,1.23,0,0,0,1.16.66Z"/><path class="cls-1" d="M99.21,29.3a.78.78,0,0,0,.79.09v-.26l-1.71-1A1.9,1.9,0,0,0,99.21,29.3Z"/><path class="cls-1" d="M64.37,34.88c.37.32.55-.4.73-.73l-.26-.62C64.33,33.87,63.79,34.37,64.37,34.88Z"/><path class="cls-1" d="M54.67,13.19c-1.55,3.19-1.84,6.48-2.15,9.76,0,.51-.23,1.21.45,1.34.86.16,1-.65,1-1.24q.66-4.23,1.24-8.48A1.22,1.22,0,0,0,54.67,13.19Z"/><path class="cls-1" d="M57.26,4.46l-.56-.33a.83.83,0,0,0,.26.23A.88.88,0,0,0,57.26,4.46Z"/><path class="cls-1" d="M52.61,114.23a5.35,5.35,0,0,0-1.39.8Z"/><path class="cls-1" d="M75,14.7l-.31-.17a1.13,1.13,0,0,0,.26.16Z"/><path class="cls-1" d="M66,9.49,65.08,9A1.35,1.35,0,0,0,66,9.49Z"/><path class="cls-1" d="M61.59,7l-1.11-.64a2.24,2.24,0,0,0,.58.43A1.88,1.88,0,0,0,61.59,7Z"/><path class="cls-1" d="M70.64,12.35a2,2,0,0,0,.56.15l-1.61-.92A2.32,2.32,0,0,0,70.64,12.35Z"/><path class="cls-1" d="M78.93,17l.17,0-.64-.37A1.19,1.19,0,0,0,78.93,17Z"/><path class="cls-1" d="M58.61,12.49c.45-.06.93-.31.87-.84-.11-.86-.83-1.06-1.48-1.16a.87.87,0,0,0-.88.93C57.16,12.36,57.79,12.62,58.61,12.49Z"/><path class="cls-1" d="M59.45,17.8c.15-.17.33-.49.56-.3s0,.45-.18.62h0c-.18,1-.38,1.92-.52,2.89s-.69,1.68-.38,2.86c1-1.17,1-2.41,1.55-3.43,1-2.12.76-4.58,1.66-6.74a.64.64,0,0,0-.35-.88c-.14-.05-.46,0-.48.06-.58,1.45-1.45,1.6-2.73.8-.32-.2-.7.44-1,.74-2.35,2.25-1.27,4.8-.9,7.62C58.19,20.72,58.18,18.85,59.45,17.8Z"/><path class="cls-1" d="M67.36,16.94l-.06.34C67.43,17.2,67.68,17.15,67.36,16.94Z"/><path class="cls-1" d="M71.61,22.65c-.63-1.28,1.31-2,.78-3.41-1,.26-1.31,1-1.73,1.7C69.92,22.13,70.66,22.46,71.61,22.65Z"/><path class="cls-1" d="M73.25,23.3c.61-.47,1-1.28,1.85-1.41.45-.07.87-.36.63-.92s-.67-.53-1.12-.41a7.68,7.68,0,0,0-2.93,2.11C72,23.52,72.45,23.9,73.25,23.3Z"/><path class="cls-1" d="M69.59,19.09a.83.83,0,0,0,.81-.86.64.64,0,0,0-.59-.75.9.9,0,0,0-.78.89C69,18.77,69.17,19.1,69.59,19.09Z"/><path class="cls-1" d="M52.26,36.38c1.55-1.84,1.58-2,.5-4A3.89,3.89,0,0,0,52.26,36.38Z"/><path class="cls-1" d="M58.59,32.66c.7.24,1-.31,1.14-.81a4.42,4.42,0,0,0-.14-3.2,7,7,0,0,0-1.39,2.91C58,32,58.07,32.48,58.59,32.66Z"/><path class="cls-1" d="M55.06,33.88c0,.29.18.64.48.45a1.67,1.67,0,0,0,.57-.85c.08-.24,0-.58-.36-.55C55.18,33,55.11,33.44,55.06,33.88Z"/><path class="cls-1" d="M57.16,25.24c-.71-.39-1.36,0-2,.32A4.26,4.26,0,0,0,53,28.14c-.3.89-.64,1.92.64,2.49S56.34,31,57,30a6.24,6.24,0,0,0,.75-3C57.64,26.48,57.93,25.67,57.16,25.24Z"/><path class="cls-1" d="M95.06,44.71c0-.52,0-1.08-.83-1.16A1.87,1.87,0,0,0,92.6,45.3c0,.79.51,1.11,1.19,1.07C94.78,46.31,95.09,45.61,95.06,44.71Z"/><path class="cls-1" d="M94.12,48.77a4.13,4.13,0,0,0-4.38-.2A7,7,0,0,0,94.12,48.77Z"/><path class="cls-1" d="M77.56,27.31c1.72-1.27,1-3,1.5-4.42.12-.31-.5-.66-1-.65a1,1,0,0,0-1,.73,1.87,1.87,0,0,0,.08,1.77C77.86,25.47,77.46,26.31,77.56,27.31Z"/><path class="cls-1" d="M81.66,29.44a3.24,3.24,0,0,0,3-2.91c-.06-.85-1.78-2.25-2.75-2.22s-1.79,1.54-1.74,3S80.69,29.43,81.66,29.44Z"/><path class="cls-1" d="M89.7,35.31c-.32,0-.59.06-.85.12-.72.17-1.74-.2-2,.89-.11.52,1.62,1.29,2.48,1.11a2.55,2.55,0,0,0,1-.46c.41-.32,1-.69.73-1.29S90.16,35.28,89.7,35.31Z"/><path class="cls-1" d="M86,48.6c.37-1.63,1.7-1.53,3-1.61a2.6,2.6,0,0,0,1.9-.81c.29-.33.63-.71.39-1.17s-.77-.4-1.17-.24c-1.53.63-3,1.53-4.72,1.49-.52,0-.68.5-.48,1A2,2,0,0,0,86,48.6Z"/><path class="cls-1" d="M90.78,42.72c1.42.09,2.57.17,3.57-.62a1,1,0,0,0,.44-1.17c-.22-.55-.7-.51-1.12-.29C92.74,41.13,91.6,41.29,90.78,42.72Z"/><path class="cls-1" d="M84,33.85a5,5,0,0,1-5.72-.75l0-.47c0,.16,0,.31,0,.47A5.68,5.68,0,0,1,77.78,36c2.41.21,4.39-.62,6.44-.89.22,0,.38-.54.57-.83C84.56,34,84.33,33.66,84,33.85Z"/><path class="cls-1" d="M78.47,29.42c-.67,1.09-.1,1.92-.15,2.74h0l.93,0C80,31,79,30.4,78.47,29.42Z"/><path class="cls-1" d="M80.67,32.74c2.68.1,4.55-1.62,6.57-3,.26-.57,1-1,.44-2.06-2.42,1.75-5.12,2.79-7,5h0Z"/><path class="cls-1" d="M85.49,34.4l-.7-.11.7.11c1.33,0,2.63-.45,4-.14s2-.71,2.55-1.61a1.69,1.69,0,0,0-.24-2.22,1.42,1.42,0,0,0-1.92-.33,10.24,10.24,0,0,1-1.78.55l-.86-.9.86.9C87,31.76,85.61,32.63,85.49,34.4Z"/><path class="cls-1" d="M65.26,20.35c.41-.3,1.08-.62.87-1.19s-1,.1-1.6-.41c.44-1,.87-1.85,1.23-2.75s-.32-1.46-1.05-1.83c-.89-.44-1.33.12-1.61.85a5.27,5.27,0,0,0,.13,4.5C64,21.08,63.92,21.33,65.26,20.35Z"/><path class="cls-1" d="M94.23,71.82l-.18,1.07c.59,0,1.29.3,1.52-.55a.86.86,0,0,0-.14-.73C95,71.24,94.63,71.74,94.23,71.82Z"/><path class="cls-1" d="M52.49,74.79a.24.24,0,0,0,0,.42.3.3,0,0,0,.22.08c.21,0,.28-.15.21-.36S52.67,74.68,52.49,74.79Z"/><path class="cls-1" d="M86.48,71.65C87.57,72.84,89,72.92,90,73.79c.35.15,1.08.06.77.68-.2.41-.78.1-1.17-.11h0c-2.8-.52-5.64,0-8.45-.32-1.5.2-3.18-.57-4.58.79.26.28.39.57.6.63a64.86,64.86,0,0,0,7.6,1.44,1.19,1.19,0,0,0,1.4-.53c.65-1.49,1.75-1.21,2.92-.89s2.07.55,3.11.77,2.64,1.23,3.28-.34-1.16-1.7-2-2.35A9.66,9.66,0,0,0,86.48,71.65Z"/><path class="cls-1" d="M28,81.56a4.59,4.59,0,0,1,2.63-3.8c0-.34.15-.56.53-.54a.52.52,0,0,1-.52.55c0,.35,0,.69,0,1a1.26,1.26,0,0,0,1.2-.75c.22-.58-.39-.62-.69-.85-.33-1.48.76-2.29,1.54-3.25a.56.56,0,0,1,.52-.55A3.88,3.88,0,0,1,33,73a1.25,1.25,0,0,0-1.67-.87c-.75.26-.19.89-.29,1.34-.24,1.11-.51,2.27-2,2.2-.55-.36-1-.36-1.36.3-1.13.88-2.34,1.78-2.46,3.31-.25,3.47-1.9,5.53-5.18,6.19-1.15.4-2.07,1.81-3.26,1.42-1.43-.47-2.35.12-3.39.73l-.6.44c-.2.13-.42.21-.56,0-.05-.09.07-.27.1-.41h0l.54-.56h0c.1-.68.87-1.11.67-2.24-1.06.92-2,1.68-2.88,2.53s-.85,1.42.26,2a2.59,2.59,0,0,0,2.28.3,27.3,27.3,0,0,0,4.18-1.74,3.82,3.82,0,0,1,3.12-.13c1,.32,0,1.56,1,2.09l3.77-4.76c.42-.85.9-1.67,1.23-2.55A1.4,1.4,0,0,1,28,81.56Zm1-5.9a.77.77,0,0,1-.3,1.24c-.62.3-.6-.3-.71-.67C28.26,76,28.47,75.63,28.93,75.66Zm-1.87,2.48c.18-.21.4-.35.6-.07.06.07-.08.29-.13.44-.49.29-.6.11-.47-.37Z"/><path class="cls-1" d="M84.69,61.32c1.2,1.81,1.61,1.91,9.28,2.12A20,20,0,0,0,84.69,61.32Z"/><path class="cls-1" d="M76.08,84c.66.19,1.35.78,2,.28,1.91-1.4,3.77-.46,5.66,0,.24.11.51.17.62-.14,0-.11-.11-.29-.17-.44l-.27-.9c-1.7-1-2.68-3-4.66-3.48A7.24,7.24,0,0,1,73.9,74a1.05,1.05,0,0,0-1.25-.74,7.27,7.27,0,0,0-1.31.28c-2,.62-3.42-.47-4.83-1.64a2.58,2.58,0,0,1-.69-3.57,1,1,0,0,0,0-.78c-1-1.86-.16-3.2,1.37-4.18-.63-1.08-1.58-1.17-2.4-1.49a15.44,15.44,0,0,1-2.21-.94,1.9,1.9,0,0,1-.84-2.55c.87-2,7.29-3.75,8.92-2.21a3.15,3.15,0,0,0,3.13.89c1.1-.24,1.64.24,2.07,1.18a4.19,4.19,0,0,1-.22,4.57c-.33.45-1.1,1.16-.25,1.55,1.69.78,3.2,2.26,5.12,2.19a16.58,16.58,0,0,0,7.06-2.15c-2.93-.47-4.49-2-6-3.65-.61-.65-1.4-1.22-1-2.29a1.89,1.89,0,0,1,2.23-1.06c1.17.16,1.71-.39,2.32-1.32,1-1.6,2-3.33,3.91-4.22.23-.11.37-.37.24-.84a1.77,1.77,0,0,0-1.63-.27,8.16,8.16,0,0,1-3.43-.47c-.73-.19-1.43-.53-1.37-1.4.1-1.39-.59-1.56-1.78-1.61-4.22-.16-4.94-1.31-3.15-5.16.61-1.31.27-1.64-1-2-1.68-.48-2-1.07-1.8-2.78a8.23,8.23,0,0,1,1.46-4,2.17,2.17,0,0,0,.16-2.74,6.09,6.09,0,0,1-1.3-4.53c.12-.94-.43-1.29-1.33-1.13-.61.11-1.22.26-1.84.36a2.47,2.47,0,0,1-3-1.66c-.16-.42-.33-.84-.46-1.27a1.36,1.36,0,0,0-2-1.05,17.83,17.83,0,0,1-3.68.76,1.79,1.79,0,0,0-1.77,1.7,20.11,20.11,0,0,0,.24,5.08c.17.94.8,1.14,1.6.75.47-.24.86-.66,1.33-.87a1.83,1.83,0,0,1,2,0c.65.57.37,1.32.12,2s-.6,1.49-.91,2.23l.12,1.09c.57,2.34-1.31,3.18-2.65,4.36a4.81,4.81,0,0,0-.65,1.7c-.18.89-1,1.19-1.73,1.45a1.08,1.08,0,0,1-1.22-.23,1.26,1.26,0,0,1-.1-1.47c.34-.82,1.35-.8,1.82-1.46-.46-.85-1.36-1.13-2.1-1.62a2.16,2.16,0,0,0-3.27.45,10.21,10.21,0,0,1-3.15,2.88,2.42,2.42,0,0,0-1.34,3.13,6.92,6.92,0,0,1,0,3.2c-.14.64-.44,1.18-1.2,1.25a8.4,8.4,0,0,1-4.39-1.06c-1.12-.54-.47-1.57-.54-2.4a2.82,2.82,0,0,0-.28-1c-.7-1.38-.08-2.45.83-3.39a11.69,11.69,0,0,1,2.11-1.64,1.28,1.28,0,0,0,.6-1.82c-.88-1.71-.31-3.32.22-4.95a23.54,23.54,0,0,0,.78-2.56c.48-2.44.36-2.66-1.87-4-2-1.24-2.26-2-1.45-4.4a1.47,1.47,0,0,0,0-.51h0a0,0,0,0,1,0,0c-1.58.09-2.4,1.66-3.9,2-.52.12-.5,1-.49,1.7a10.1,10.1,0,0,1-.13,2.4c-.18.81-.73,1-1.32.27-.46-.57-.6-1.77-1.69-1.18s-.51,1.61-.2,2.39c.73,1.86.18,3.54-.58,5.18s-1.24,1.9-3.15,1.8c-1.41-.07-2.24-.65-2.22-2.08a3.56,3.56,0,0,0-2.47-3.73c-.9-.33-1-1.48-1.93-2a2.39,2.39,0,0,0-.74,2.79A5,5,0,0,1,25.69,35a5.32,5.32,0,0,0-1.14,1.78c-.82,1.56-1.78,1.91-3.56,1.53-1.31-.27-2.5-1-3.89-.94-.07,0-.13.11-.34.27.08,1.38.89,2.78.55,4.33-.17.73.5,1.34,1.14,1.69A18.81,18.81,0,0,0,21.36,45a5.62,5.62,0,0,1,3.25,2.64,6.55,6.55,0,0,0,1.15,1.47c.87.85,1.81,1.49,3.08.65,1.06-.7,1.89-.07,2.64.61a1.49,1.49,0,0,1,.06,2.52,5.1,5.1,0,0,1-2.33,1.28,3.9,3.9,0,0,0-2.12,1.56c-.54.74-.7,1.26.09,2,1.37,1.38,1.26,1.55-.66,2.83h0c-1.43,1.37-4,1.93-5.53,1.21-.42-.21-.83-.44-.9-.91-.28-1.78-1.51-1.51-2.64-1.17-1.62.5-3.19,1.15-4.78,1.74-.37.65,0,.94.55,1.17,1.29.52,2.94.72,3.12,2.47.21,1.93-1.77,1.92-2.79,2.75a1.76,1.76,0,0,1-.23.14c-.05-.42-.09-.84-.14-1.26.05.42.09.84.14,1.26-.25,1.75-1.5,3.18-1.79,4.87a2,2,0,0,0,1.4.32,5,5,0,0,1,3.1.66c1,.71.43,1.79.49,2.74.08,1.16.83.54,1.37.41,1.6-.91,3.24-1.46,5.06-.58.87.42,1.55,0,2.2-.55a12.9,12.9,0,0,0,3.06-3.71c.66-1.08,1.33-2.15,2.87-2.05,1,.06,1.54-.81,2.2-1.38,1.49-1.26,2.26-1.43,3.88-.47,3.57,2.13,4,5.87.53,8-2.89,1.79-5.55,4.18-8.94,5.17a6.36,6.36,0,0,1-.76.14,3.4,3.4,0,0,0,.42,1.75c1.25,2.41,1,3.38-1.25,4.84a4.94,4.94,0,0,1-1.22.45l-.78,1.11c-.5-.31-.47-.71-.19-1.15-.28.44-.31.84.19,1.15,1.71.65,3.44.7,4.7-.76,1.55-1.78,3.39-2.08,5.57-1.8,1.38.18,2.78.44,4.11-.54a3.26,3.26,0,0,1,4-.12c1.33.93,1.52,2.32,1.28,3.83s-.42,2.89-.64,4.41a3.38,3.38,0,0,0,3-1.83c.42-.57.58-1.42,1.11-1.81,1.89-1.38,2-3.09,1.44-5.17-.88-3.35.6-5.78,3.3-7.64,0-1.4-1.37-1.75-2-2.66-.93-1.34-.91-1.6.56-2,2-.52,3.32.51,3.3,2.54,0,.71-.59,1.33-.32,2.08h0c.64.19.95.77,1.4,1.2C57.51,81,58,81,59.42,79.15c.69-.89,1.27-.92,1.9-.11a6.08,6.08,0,0,1,1.06,1.84,12,12,0,0,1,0,7.14c-.5,1.61-2,2.4-3.41,3.25-1.56,1-1.84,2-1.39,4.06.71.11,1.16-.4,1.65-.74a3.26,3.26,0,0,1,2.74-.8,1.8,1.8,0,0,0,2.32-1.26,4.93,4.93,0,0,1,3.24-3,2.39,2.39,0,0,0,1.77-2.39c.06-.62.12-1.25.23-1.86.34-1.76,1.15-2.34,3-2.34A12.65,12.65,0,0,1,76.08,84ZM37.42,40.35c-.42-1.31-.75-2.22-1-3.15s.33-1.53,1.16-1.78,1.37.39,1.57,1.07C39.61,38.05,38.87,39.17,37.42,40.35ZM58.57,77.59c-.88,0-1.27-.56-1.35-1.34a.72.72,0,0,1,.77-.87,1.51,1.51,0,0,1,1.41,1.31C59.36,77.26,59.06,77.58,58.57,77.59Z"/><path class="cls-1" d="M62.67,34.07a2.49,2.49,0,0,0,.95-2.67C62.6,32,62,32.85,62.67,34.07Z"/><path class="cls-1" d="M62.09,35.07s.16.11.22.08c.49-.21.45-.6.35-1C62.28,34.34,61.94,34.55,62.09,35.07Z"/><path class="cls-1" d="M60.69,82c-.32-.33-.54,0-.75.27-1.68,2.27-.74,4.58-.46,7.25,1.91-2.06,2.05-2.64,1.15-4.6a4.22,4.22,0,0,1-.14-2.08C60.75,82.55,61,82.23,60.69,82Z"/><path class="cls-1" d="M12.79,76.76c.49-.19,1-.44.8-1.1-.09-.28-.45-.24-.68-.11-.38.19-.8.38-.75.9A.47.47,0,0,0,12.79,76.76Z"/><path class="cls-1" d="M16.52,79c-.87,0-2.1,1.64-2.47-.7-.09-.64-1.13,0-1.3.58-.42,1.6-.72,3.24-1.1,5A11.41,11.41,0,0,0,16.52,79Zm-2.72.89-.1.17-.08-.18Z"/><path class="cls-1" d="M26,87.09c.89-.4,1.17-1.15,1.4-2.35A2.52,2.52,0,0,0,25.89,87l-.48.1c-.08-.66-.16-1.33-.25-2,.09.66.17,1.33.25,2L25,88.59h1C26,88.1,26,87.6,26,87.09Z"/><path class="cls-1" d="M8.05,61.58a26.14,26.14,0,0,0,3.76-.93l.6.67-.6-.67c.31-.46.33-.78-.35-.77a16.36,16.36,0,0,1-4.88-.53c-.61-.27-.89-.63-.43-1.16l-.11,0H6c-.25-.23-.47-.59-.77-.67-.47-.13-.51.34-.53.67,0,.79-.22,1.82.47,2.23,1.7,1,.91,2,0,3a3.33,3.33,0,0,0,2.48.24l0-.51C7.18,62.44,6.53,61.68,8.05,61.58Z"/><path class="cls-1" d="M19.15,58.09c1.57-.13,3,.22,4.31-1.49.71-1,2.41-1.28,3.08-2.7.25-.55,1.06-.57,1.65-.79.43-.16,1.15,0,1.1-.84a5.3,5.3,0,0,0-2.62-.13,1.18,1.18,0,0,0-1.21.84c-1,2.83-3.24,3.3-5.82,3.06a12.53,12.53,0,0,0-4.2.14A3.7,3.7,0,0,0,19.15,58.09Z"/><path class="cls-1" d="M35.62,75.82c1.52-.84,1.52-.85,1.92-2.41-.71-.39-1,.53-1.62.5C36.11,74.58,35.06,75.07,35.62,75.82Z"/><path class="cls-1" d="M19.33,54.3c.35.08.71.09,1.3.16A6,6,0,0,0,22,54.25c1.19-.42,1.34-1.42.34-2.21a3.59,3.59,0,0,0-2.69-.95c-.95.12-2.27,1.34-2.15,2.07C17.63,54.2,18.58,54.14,19.33,54.3Z"/><path class="cls-1" d="M23.34,50.31c.27,0,.53-.16.35-.48a1,1,0,0,0-.9-.38,2.85,2.85,0,0,0-.68.18c0,.15,0,.25.08.31A1.17,1.17,0,0,0,23.34,50.31Z"/><path class="cls-1" d="M7.32,58.07c2.25,1.06,4.37.68,6.63-.42-1.44-1.5-3.26-1.47-4.76-2.17-1.29-.15-1.68.79-2.1,1.7l.23.89Z"/><path class="cls-1" d="M21.57,83.39c2.18-2.52,2.08-2.84-1.17-3.82l-1.78.62a4.13,4.13,0,0,0-2.27,2.19c-.76,1.6,0,2.67,1.71,2.56.62,0,1.24-.18,1.86-.27l0,.76,0-.76A4.87,4.87,0,0,0,21.57,83.39Z"/><path class="cls-1" d="M12.72,63.86a9.67,9.67,0,0,0-1.78-.35l-1.31-.23c.13.26.25.51.37.77h0a2.37,2.37,0,0,1,2,1.77,1.22,1.22,0,0,0,1.13.94C14.37,65.15,14.29,64.49,12.72,63.86Z"/><path class="cls-1" d="M22.34,77.85c-.71-.69-1.28,0-1.88.1l-.12.81C20.92,78.33,21.87,78.65,22.34,77.85Z"/><path class="cls-1" d="M32.69,74c.44.49.69,1.54,1.64.5.4-.43.87-.89,1.57-.58-.6-1.35,1.07-2.32.73-3.81-1.66.75-1.89,2.71-3.41,3.33C33.21,73.76,33.06,74,32.69,74Z"/><path class="cls-1" d="M84.51,87l1.6.26h0Z"/><path class="cls-1" d="M73.21,62.92A2.4,2.4,0,0,0,74.6,62c.06-.17.08-.29,0-.28.12,0,.1.11,0,.28l-.22-.22.22.22A2.4,2.4,0,0,1,73.21,62.92Z"/><path class="cls-1" d="M86.77,87.88a.66.66,0,0,1-.27-.12A.66.66,0,0,0,86.77,87.88Z"/><path class="cls-1" d="M84.83,67.13c2.32,0,4.65-.23,7,.32l2.14,0c.73,0,1.53.06,1.59-1s-.73-1.24-1.61-1.26a64.54,64.54,0,0,0-7.47.65,2.08,2.08,0,0,0-1.64,1.17h0A.05.05,0,0,0,84.83,67.13Z"/><path class="cls-1" d="M88.59,68.67a.75.75,0,0,0,.52.83A9.17,9.17,0,0,0,94,70.69c.38-1.79-.9-2.2-2.18-2.62-.8,0-1.61,0-2.41.05C89.07,68.14,88.67,68.24,88.59,68.67Z"/><path class="cls-1" d="M77.61,93.25a.49.49,0,0,1,.42.37.49.49,0,0,0-.42-.37c-.1.11-.29.23-.3.35C77.32,93.48,77.51,93.36,77.61,93.25Z"/><path class="cls-1" d="M76.79,85.73a10,10,0,0,1-4.36-1.19,4.23,4.23,0,0,0,1.11,3.07c.24.37.67.75,1.11.37,1.28-1.06,1.76.08,2.26.83.74,1.11,1.29,2.34,2,3.46a1.14,1.14,0,0,0,1.64.4c.58-.32,1-.62,1-1.41C81.49,89.07,79,85.72,76.79,85.73Zm3.68,5c.09.37,0,.78-.46.75-.8-.06-.84-.81-1.09-1.2,0-.43.08-.75.36-.75C80.06,89.5,80.31,90.1,80.47,90.72Z"/><path class="cls-1" d="M95.36,78.67c.09-.54-.26-.82-.73-.93a8.47,8.47,0,0,0-4.24-.24c1.3,1.31,2.76,1.16,4,1.69A.66.66,0,0,0,95.36,78.67Z"/><path class="cls-1" d="M23.46,60.08a7.22,7.22,0,0,0,3,.51C25.68,58.62,25.43,58.58,23.46,60.08Z"/><path class="cls-1" d="M94.26,80.15c-.31,0-.4.31-.27.56a1.29,1.29,0,0,0,1,.76c.29,0,.45-.2.44-.66A1.2,1.2,0,0,0,94.26,80.15Z"/><path class="cls-1" d="M86,86.72l-.66-.33c-1.16-.65-2.31-1.32-3.49-1.92a1,1,0,0,0-1.22.27c-.36.41-.16.81.07,1.21.91,1.55,1.51,1.72,3.82,1l.82-.6Z"/><path class="cls-1" d="M86.33,86.89h0c-.08.12-.15.24-.22.36C86.18,87.13,86.25,87,86.33,86.89Z"/><path class="cls-1" d="M83.82,88.44c-.95.32-.94,1.2-1.08,2-.07.4.28.62.69.59.81-.06,2.13-1.11,1.92-1.55A2.13,2.13,0,0,0,83.82,88.44Z"/><path class="cls-1" d="M69.63,64.84c-.92.06-1.63.11-2.08,1.32A2.07,2.07,0,0,0,69.63,64.84Z"/><path class="cls-1" d="M86.22,69.37a7.16,7.16,0,0,1-1.39-2.24h-.06s0,0,0,0c-1.26-.17-2,.29-2.1,1.66h0C83.88,68.79,85,69.57,86.22,69.37Z"/><path class="cls-1" d="M73.37,58.65a23.64,23.64,0,0,0-7,.85c1.3.94,2.64.12,3.23.82,1.62,1.92,2.83.32,4.18-.24a.73.73,0,0,0,.42-.88A.82.82,0,0,0,73.37,58.65Z"/><path class="cls-1" d="M82.69,69.29c-2-.11-4,.68-5.88-.44a.63.63,0,0,0-.81.46.79.79,0,0,0,.44.88c1.55,1,3.12,2,4.68,3C85.05,72.42,85.08,72.35,82.69,69.29Z"/><path class="cls-1" d="M69.4,67.29a.67.67,0,0,0,.44.71,3,3,0,0,0,2.56-.07.8.8,0,0,0,.37-.63c-.11-.9-.84-1.07-1.56-1.09A1.68,1.68,0,0,0,69.4,67.29Z"/><path class="cls-1" d="M74.59,89.56c-.74.06-1,.56-1.09,1.28-.07,1,.38,1.92-.07,3-.84-.07-1-.66-1.3-1-.76-.87-1.23-.41-1.57.36a3.29,3.29,0,0,0,1.09,3.32c1.07.66,1.63-.19,2.24-.8s1-1.06,1.44-1.58c1-1,.77-2.31.6-3.52A1.21,1.21,0,0,0,74.59,89.56Z"/><path class="cls-1" d="M81.32,78.43a2.14,2.14,0,0,0,2.86-.21C82.94,77.89,82.16,77.62,81.32,78.43Z"/><path class="cls-1" d="M90.78,83.21c-1.89,1.75-2,1.72-3.73-.81a16.19,16.19,0,0,1,4-.22c1.46-.75,1-1.7.15-2.52a4.8,4.8,0,0,0-2.91-1.14c-2.24-.23-2.87.64-2.11,2.8,0,.12-.11.31-.19.5-.65.26-1.85-.52-2,.9,2,.62,3.32,2.23,5,3.37.65.45,1.24,1.12,2.12.68a7.21,7.21,0,0,0,3.34-2.39c-1.13-.87-2.37-.79-3.39-1.27A.82.82,0,0,0,90.78,83.21Z"/><path class="cls-1" d="M69.15,71.73a9.36,9.36,0,0,0,2.41.41c1.13-.08,1.76-.07,2.38-.17s1.43-.24,1.11-1.1c-.24-.65-.15-1.92-1.24-1.74a13.19,13.19,0,0,1-4.26-.2c-1.22-.19-1.27.73-1.53,1.42C67.64,71.37,68.44,71.57,69.15,71.73ZM70.25,70c.47,0,.94,0,1.1.51s-.26.61-.62.65a.9.9,0,0,1-1.08-.53C69.47,70.14,70,70.14,70.25,70Z"/><path class="cls-1" d="M78.07,67.49a4,4,0,0,0-3.18-1.55C75.23,68.54,75.54,68.69,78.07,67.49Z"/><path class="cls-1" d="M71.26,86.63c-.13.63-.2,1.07-.31,1.49s-.49,1,.13,1.43c.1.07.35,0,.5-.07a1.18,1.18,0,0,0,.63-1.35A2,2,0,0,0,71.26,86.63Z"/><path class="cls-1" d="M46.28,19.9h0v0h.6a1.09,1.09,0,0,0,.25-.65,1.09,1.09,0,0,1-.25.65C46.71,19.75,46.49,19.53,46.28,19.9Z"/><path class="cls-1" d="M44.52,13c1.1,0,1.85.2,1.71,1.64a4.91,4.91,0,0,0,.55,3.62c.78-.53,1.89-.91,1.34-2.2-.93-2.19-.84-4.5-.9-6.81,0-.53.17-1.2-.53-1.48-.82.64-.29,1.63-.82,2.24-.81.14-.55-1.44-1.69-.91.11,1.28.22,2.59.34,3.9l.06,1h0Z"/><path class="cls-1" d="M12.08,35.57c.12-1-1.21-1.49-.91-2.56,3.33-.09,5.56,2.77,8.86,3.2-.22-1.72-1.58-3-.56-4.49-.7.4-1.5.7-1.78,1.59.15.23.25.5.06.71s-.61.15-.89-.09h0v0l-.33-.19-.48-.28.48.28-.48-.29a.29.29,0,0,1-.27,0l-2.19-.88c-.42-.14-.9-.22-1.06-.74-1.26.12-2.07-.87-3.13-1.24-.46-.16-1-.58-1.32.15.09,1.06,1.75,1,1.62,1.93-.28,1.93,1.08,2.34,2.33,2.93v0Z"/><path class="cls-1" d="M24.76,22.37h.06c.08-.68-.16-1.22-.86-1.34-.48-.09-.48.37-.47.73h0l1.29.65Z"/><path class="cls-1" d="M7.47,48.55c.78.12,1.56.28,2.34.36A5.56,5.56,0,0,0,13.33,48c.46-.28.88-.66.74-1.28a1.19,1.19,0,0,0-.91-.87c-.85-.24-1.7-.46-2.56-.69h0l-4.11-.23a3.78,3.78,0,0,1-.56-.08,3.78,3.78,0,0,0,.56.08l-.18,1L6.14,46l.17-.14a1,1,0,0,1,.14.37L6.39,48l.06-1.68A4.32,4.32,0,0,1,7.47,48.55Z"/><path class="cls-1" d="M98,87.66a4.6,4.6,0,0,0-1.53,1.23l3.5-2v-.41C99.36,86.8,98.73,87.3,98,87.66Z"/><path class="cls-1" d="M29.52,23.35c.09-.94.18-1.88.33-3.42,1.45,2,1.07,4,2.09,5.45l-.24,1.13-1-.78c-.47.63-.37,1.22.31,1.52s.66-.31.72-.74l.24-1.13c1.5.25.75-1.3,1.42-1.8,1.8-1.33,1.73-3.11.85-5-.53-.67-1.77-.44-2-1.59-.24-1.48-1.09-1-1.5-.24S30,18,29,17.81c-.85-.15-1.28.47-1.07,1.37.16.69.36,1.37.54,2.06h0C28.82,21.94,29.17,22.65,29.52,23.35Z"/><path class="cls-1" d="M15.21,49.16a4,4,0,0,1-2.52,1.18c3.34.22,3.34.22,6.91-1.26-.38-.35-1.14-.5-1.08-1.07s.78-.51,1.3-.49,1,.41,1.53-.38a11.74,11.74,0,0,0-2.19-.87c-1.92-.38-3-1.88-4.21-3.12a1.13,1.13,0,0,1-.19-1.42c1.05-2.64.15-4.63-2.68-6.16v0l0,0a4.92,4.92,0,0,0,1.44,2.74c.94,1.1,0,1.28-.79,1.54-.42,1-1.19,1.87-.25,3.11A6.47,6.47,0,0,1,7.51,41.9c1.44-.78,3.67.39,3.68-2.06.18-3-1.88-4.27-4-5.44a1.55,1.55,0,0,0-2.38,1.26,3.22,3.22,0,0,0,.6,2.54c.43.58.86,1.16,1.26,1.75.55.8.71,1.5-.54,1.74-.53.1-1.2.12-1.12.85s.8.93,1.43.9a12.27,12.27,0,0,1,4.21.78,30.85,30.85,0,0,1,3.18.47C16.15,45.27,16.71,47.26,15.21,49.16Z"/><path class="cls-1" d="M37.28,15.68c-2.35.16-2.46.3-2.23,2.76C37.05,18.54,37.1,17.06,37.28,15.68Z"/><path class="cls-1" d="M13.63,31.75l1.6.47.57,1.2-.57-1.2c2.65-1.33,3-3.23.94-5.42-.51-.55-1-1.06-1.82-.58-1.17.72-2.72,1-3.29,2.46-.19.51.35.95.67,1.37s1.18.83.87,1.67A.87.87,0,0,1,13.63,31.75Z"/><path class="cls-1" d="M43.47,14c-.44-.86-.91-1.72-1.34-2.59-.55-1.12-1.31-1-2.16-.4-1.48,1-.86,2.32-.63,3.59h0a4.43,4.43,0,0,1,1,2.12C42.45,17.09,42.77,15.33,43.47,14Z"/><path class="cls-1" d="M24.78,22.4A9.4,9.4,0,0,0,27,24.66a3.54,3.54,0,0,0,.42-3.34c-.89.12-.71.76-.65,1.33.13.21.17.43-.08.55-.07,0-.23-.12-.35-.19h0c-.49-.23-.84-.82-1.5-.65,0,0,0,0,0,.06Z"/><path class="cls-1" d="M38.6,18.56a8.05,8.05,0,0,1-.35,4.68l-.11.07.12-.06c1.52-.37,2-1.51,2.35-2.89a6.94,6.94,0,0,0-.33-3.59C39.13,16.8,38.09,16.92,38.6,18.56Z"/><path class="cls-1" d="M34.87,30.25a3.1,3.1,0,0,0-.5-3.44s-.15,0-.67-.17c-.14,1.4-.31,2.59.5,3.68A.4.4,0,0,0,34.87,30.25Z"/><path class="cls-1" d="M43,19.37a.83.83,0,0,0,.7-.22c.92-1.59,2.11-3.16.88-5.12a7.45,7.45,0,0,1-1.45,3.09,2.11,2.11,0,0,0-.62,1.43C42.52,18.92,42.6,19.29,43,19.37Z"/><path class="cls-1" d="M15.24,54.16a1,1,0,0,0,.73-1,.83.83,0,0,0-.84-.85c-.8-.07-1.6-.07-2.4-.1-2.48-.08-5,.08-7.4-.63a1.18,1.18,0,0,0-.45,1.26l1.5.3h0l3.85.23h0A5.39,5.39,0,0,0,15.24,54.16Z"/><path class="cls-1" d="M94,51.11A18.86,18.86,0,0,0,90,53.17c.42.89,1.65.29,1.91,1.28a13.79,13.79,0,0,1-2.79,1c-.47.19-1.2.36-1,1,.48,1.34-.51,1.24-1.24,1.4-1.08.24-2.33-.31-3.6.93a4.56,4.56,0,0,0,4.51.17c.58-.33,1.43-.7,1.63-.06.69,2.21,2.52,1.69,4,1.74,1.77,0,2.36-.87,1.77-2.61-.25-.73-.46-1.28.07-2a.94.94,0,0,0-.11-1.43c-1.07-.72-.5-1.27.05-1.92a1.13,1.13,0,0,0,.16-1.47C95,50.73,94.48,50.88,94,51.11Zm-2.83,7.6c-.49.25-1.11.49-1.26-.23s.58-1,1.13-1.28C92.25,57.6,91.61,58.16,91.14,58.71Zm1.34-1.12-.17-.12.2-.06Zm1.68-.35a.58.58,0,0,1-.35.28.36.36,0,0,1-.5-.35c0-.31.23-.38.49-.39S94.28,56.93,94.16,57.24Z"/><path class="cls-1" d="M23.1,36.06a3.7,3.7,0,0,1,1.39-2.46c.91-.72.57-1.41-.46-1.73a4.15,4.15,0,0,0-1.06,0c-2.28-1.69-3.17-4.14-3.65-6.79-.09-.48.21-1.25-.61-1.16s-.85.75-.61,1.45c.66,1.9.83,4,2,5.69h0c.6.78,1.23,1.54,1.8,2.34S21.37,35.6,23.1,36.06Z"/><path class="cls-1" d="M7.46,48.56a1.17,1.17,0,0,1-1.09,0h0c-1.82.43-1.88.56-1.06,2.36,0,.23,0,.47,0,.7,0-.23,0-.47,0-.7C6.82,50.84,7.33,49.88,7.46,48.56Z"/><path class="cls-1" d="M12.41,61.32l.25.17-.25-.17Z"/><path class="cls-1" d="M25,24.93c-.6-1-1.29-1.86-1.94-2.79-.54-.18-1.25-.3-1.34.36-.33,2.23-1.2,4.59.94,6.49a15.15,15.15,0,0,1,1.23,1.41A4.12,4.12,0,0,0,25,24.93Z"/><path d="M24.81,22.42s0,0,0-.06h-.06Z"/><polygon points="16.86 33.93 16.86 33.93 16.86 33.93 16.86 33.93"/><path d="M46.27,19.91h0v0Z"/><path d="M12.05,35.55v0l0,0Z"/><path d="M84.81,67.09h0s0,0,0,0Z"/><path d="M89.73,23.21,79.1,17.07l-.17,0a1.19,1.19,0,0,1-.47-.34L75,14.7H75a1.13,1.13,0,0,1-.26-.16l-3.5-2a2,2,0,0,1-.56-.15,2.32,2.32,0,0,1-1-.77L66,9.49A1.35,1.35,0,0,1,65.08,9L61.59,7a1.88,1.88,0,0,1-.53-.21,2.24,2.24,0,0,1-.58-.43L57.26,4.46a.88.88,0,0,1-.3-.1.83.83,0,0,1-.26-.23L50.18.37s-.08,0-.14,0a1.6,1.6,0,0,1-.31,0L.55,28.81A.9.9,0,0,1,.24,29L0,29.13V86.87l46.7,27h0a1.72,1.72,0,0,1,.81.47L50,115.74l1.22-.71a5.35,5.35,0,0,1,1.39-.8l12.31-7.11a1,1,0,0,1,.15-.13A23.44,23.44,0,0,1,69,104.68a1.82,1.82,0,0,1,.29-.08L79.8,98.53c.45-.55,1.43-.93,3.58-2.29a3.44,3.44,0,0,1,1.34-.55l11.78-6.8A4.6,4.6,0,0,1,98,87.66c.7-.36,1.33-.86,2-1.2V29.39m-1.71-1.24-7.4-4.28m3.18,13.38c.54-.73,0-.84-.57-.94a4.92,4.92,0,0,1,.42-.9c.2-.28.52-.56.89-.33a1,1,0,0,1,.35.67,3,3,0,0,1-.88,2.69A6.68,6.68,0,0,1,91.92,40C92.09,38.69,93.37,38.19,94.07,37.25ZM78,38.52c1.76-1.58,3.63-1.5,5.54-1.49a16,16,0,0,0-2.68,4.65C80.19,39.9,79.6,38.84,78,38.52Zm1.74,5.82-.17.06,0-.14Zm2.82-1.73c.62.21.08.86.17,1.32-.54-.33-1.18.11-1.82-.26C81.14,42.77,81.74,42.32,82.59,42.61Zm1.92,1.57c-1.24,1.06-1.27,1.07-1.67-.16C83.4,44.09,84,43.74,84.51,44.18Zm-.8-2.13c-.8-.37-.9-1-.35-1.74a3.79,3.79,0,0,1,3.37-1.8,5.57,5.57,0,0,1,3,.77c.13.66-.32,1-.65,1.42-.62.71-.37,2.08-1.58,2.3A6.34,6.34,0,0,1,83.71,42.05Zm10-1.41c.42-.22.9-.26,1.12.29a1,1,0,0,1-.44,1.17c-1,.79-2.15.71-3.57.62C91.6,41.29,92.74,41.13,93.67,40.64ZM90.3,37a2.55,2.55,0,0,1-1,.46c-.86.18-2.59-.59-2.48-1.11.24-1.09,1.26-.72,2-.89.26-.06.53-.07.85-.12s1.09-.28,1.33.37S90.71,36.65,90.3,37Zm-5,9.29c1.76,0,3.19-.86,4.72-1.49.4-.16.91-.23,1.17.24s-.1.84-.39,1.17a2.6,2.6,0,0,1-1.9.81c-1.28.08-2.61,0-3,1.61a2,2,0,0,1-1.1-1.36C84.66,46.76,84.82,46.25,85.34,46.26Zm8.78,2.51a7,7,0,0,1-4.38-.2A4.13,4.13,0,0,1,94.12,48.77Zm-.33-2.4c-.68,0-1.24-.28-1.19-1.07a1.87,1.87,0,0,1,1.63-1.75c.78.08.81.64.83,1.16C95.09,45.61,94.78,46.31,93.79,46.37ZM81.9,24.31c1,0,2.69,1.37,2.75,2.22a3.24,3.24,0,0,1-3,2.91c-1,0-1.45-.7-1.5-2.14S81,24.33,81.9,24.31Zm-2,8.5.75-.08c1.89-2.25,4.59-3.29,7-5,.57,1-.18,1.49-.44,2.06l.86.9a10.24,10.24,0,0,0,1.78-.55,1.42,1.42,0,0,1,1.92.33A1.69,1.69,0,0,1,92,32.65c-.59.9-1.29,1.9-2.55,1.61s-2.67.16-4,.14l-.7-.11c-.19.29-.35.8-.57.83-2,.27-4,1.1-6.44.89a5.68,5.68,0,0,0,.45-2.91c0-.16,0-.31,0-.47s0-.31,0-.47h0c.05-.82-.52-1.65.15-2.74.56,1,1.49,1.59.78,2.78ZM77.09,23a1,1,0,0,1,1-.73c.48,0,1.1.34,1,.65-.49,1.38.22,3.15-1.5,4.42-.1-1,.3-1.84-.39-2.57A1.87,1.87,0,0,1,77.09,23Zm-1.36-2c.24.56-.18.85-.63.92-.9.13-1.24.94-1.85,1.41-.8.6-1.3.22-1.57-.63a7.68,7.68,0,0,1,2.93-2.11C75.06,20.44,75.53,20.48,75.73,21Zm-5.07,0c.42-.67.74-1.44,1.73-1.7.53,1.36-1.41,2.13-.78,3.41C70.66,22.46,69.92,22.13,70.66,20.94Zm-.85-3.46a.64.64,0,0,1,.59.75.83.83,0,0,1-.81.86c-.42,0-.61-.32-.56-.72A.9.9,0,0,1,69.81,17.48Zm-2.51-.2.06-.34C67.68,17.15,67.43,17.2,67.3,17.28ZM63.1,15c.28-.73.72-1.29,1.61-.85.73.37,1.47.8,1.05,1.83s-.79,1.77-1.23,2.75c.61.51,1.37-.24,1.6.41s-.46.89-.87,1.19c-1.34,1-1.28.73-2-.83A5.27,5.27,0,0,1,63.1,15ZM58,10.49c.65.1,1.37.3,1.48,1.16.06.53-.42.78-.87.84-.82.13-1.45-.13-1.49-1.07A.87.87,0,0,1,58,10.49Zm-.44,3.93c.32-.3.7-.94,1-.74,1.28.8,2.15.65,2.73-.8,0-.08.34-.11.48-.06a.64.64,0,0,1,.35.88c-.9,2.16-.62,4.62-1.66,6.74-.5,1-.53,2.26-1.55,3.43-.31-1.18.27-2,.38-2.86s.34-1.93.52-2.89h0l-.38-.32c-1.27,1.05-1.26,2.92-2.79,4.24C56.29,19.22,55.21,16.67,57.56,14.42Zm2.17,17.43c-.12.5-.44,1-1.14.81-.52-.18-.57-.64-.39-1.1a7,7,0,0,1,1.39-2.91A4.42,4.42,0,0,1,59.73,31.85Zm-2-4.91A6.24,6.24,0,0,1,57,30c-.61,1-2,1.26-3.31.67S52.7,29,53,28.14a4.26,4.26,0,0,1,2.15-2.58c.65-.31,1.3-.71,2-.32S57.64,26.48,57.7,26.94Zm-1.59,6.54a1.67,1.67,0,0,1-.57.85c-.3.19-.43-.16-.48-.45,0-.44.12-.91.69-1C56.06,32.9,56.19,33.24,56.11,33.48Zm-3.85,2.9a3.89,3.89,0,0,1,.5-4C53.84,34.35,53.81,34.54,52.26,36.38Zm3-21.81q-.59,4.24-1.24,8.48c-.09.59-.18,1.4-1,1.24-.68-.13-.49-.83-.45-1.34.31-3.28.6-6.57,2.15-9.76A1.22,1.22,0,0,1,55.25,14.57Zm-.84-6.23c.31.1.58.29.5.69a.37.37,0,0,1-.54.29,1,1,0,0,1-.43-.57C53.86,8.45,54.06,8.3,54.41,8.34ZM49.83,7.05c1-.91,1.82-.82,2.25.39a10.28,10.28,0,0,0,1.32,2.9,1.35,1.35,0,0,1-.08,1.74A36.56,36.56,0,0,1,51,15a1.43,1.43,0,0,1-2.54-.44,2.36,2.36,0,0,1-.23-.77c-.07-.62-.1-1.24-.15-1.87A5.85,5.85,0,0,1,49.83,7.05Zm-.5,36.23c.56-.2.64.37.73.85C50,44.79,50,45.51,49,45.52a.71.71,0,0,1-.73-.62A1.56,1.56,0,0,1,49.33,43.28Zm-1.88-1.14c-.26,0-.56-.29-.46-.52a2.8,2.8,0,0,1,2.59-1.69C49.23,41.27,48.6,42,47.45,42.14Zm2.38-7.61c0-.43,0-.94.55-1s.41.42.46.76.11.93-.49,1C50,35.3,49.84,34.88,49.83,34.53Zm1.05-17.81a9.66,9.66,0,0,1,0,6.93A8.69,8.69,0,0,1,50.88,16.72ZM48,23.38a.47.47,0,0,1-.42-.22c-.39-.93.17-1.35.81-1.74.18.17.3.22.3.28C48.74,22.38,48.81,23.08,48,23.38Zm-12.55-9.6a.52.52,0,0,1,.1-.11l.24-.13c.37-.23.73-.57,1.21-.29a.52.52,0,0,1,0,.46c-.28.47-.75.39-1.19.37h-.27C35.44,14,35.39,13.88,35.45,13.78ZM5.37,31.94c.41-.56,1-.81,1.46-.13s-.44.73-.72,1.07h0a1,1,0,0,1-.52.27.58.58,0,0,1-.52-.26A3.11,3.11,0,0,1,5.37,31.94ZM6.54,87c-.32-.18-.68-.45-.45-.83s1-.34,1.46-.5c0-.28,0-.56,0-.83-1.33.15-1.91-.4-1.64-1.75l-1.32-.22c0-.61-.09-1.22,0-1.82,0-.34.27-.69.68-.53s.3.58.31.91l.9,0a5.41,5.41,0,0,1,2.7-2.49C10.32,78.53,11,79,11,80.3a6.13,6.13,0,0,1-.7,2.56c-.25.45-.64,1-.22,1.48.84,1,.07,1.48-.58,1.89C8.58,86.77,7.73,87.63,6.54,87ZM8,72.54c-.49.4-1,.16-1.3-.38s-.78-1.31-1.24-2.09c1.74-.75,3.41-.43,5.3-.88C10.35,71.07,9.05,71.71,8,72.54Zm2.46,2.73C9.2,76.49,8,77.74,6.11,78c-.41.07-.93.22-1.12-.38-.12-.41.19-.68.5-.84C7.05,76,8.57,75,10.48,75.27Zm-.85-8.45a2.86,2.86,0,0,1-2.76,1.52c-.65-.21-1.9.24-2-1-.09-1.09.72-1.78,1.78-2a2.84,2.84,0,0,1,3,.56A.73.73,0,0,1,9.63,66.82ZM5.12,73.17a.67.67,0,0,1,.68.74c0,.45-.07.93-.62,1s-.51-.37-.52-.71S4.69,73.32,5.12,73.17ZM17,92.16a1.35,1.35,0,0,1-1.47-.82,6.09,6.09,0,0,1,.36-.76,6.1,6.1,0,0,1,2.75-2c.55-.23.85.1.82.63A5.25,5.25,0,0,1,17,92.16ZM20.07,94c-.55,0-1.07-.31-1-.92s.39-1.42,1.24-1.39a1.11,1.11,0,0,1,1.08,1C21.22,93.39,20.91,94,20.07,94Zm4.46,1.68c-.75.83-1.44.17-2.1-.21a1,1,0,0,1-.4-1.56,15.65,15.65,0,0,1,1.18-1.74c.32-.41.78-.84,1.34-.58s.33.89.3,1.39a4,4,0,0,0,.06.5l.06,0a.43.43,0,0,0,0,0h1l-.63.86A7.2,7.2,0,0,1,24.53,95.68Zm8,3.11-.44.49c-.12.55-.3,1.1-1,.82a6.47,6.47,0,0,1-1.88-1c-.84-.73-1.5-1.67-2.82-1.57-.3,0-.62-.33-.68-.71s.25-.62.6-.72c1.66-.46,2.11-2,2.92-3.24h0a2,2,0,0,1,.33-.26,3.31,3.31,0,0,1,1.17-.35c.69-1.1,2-1.17,3-1.69.7-.37,1.24-.07,1.38.71a10.11,10.11,0,0,1-.18,5.79C34.48,98.15,33.9,99,32.56,98.79Zm-6.48-5.35A1.59,1.59,0,0,1,27.53,92c.07,0,.27.25.25.36C27.62,93.37,26.83,93.39,26.08,93.44Zm5.83-4.67c.29-.41.69-1,1.21-.39.33.37-.09.8-.42,1.07s-.53.46-.91.26S31.72,89,31.91,88.77Zm3.64,12.84a.69.69,0,0,1-.92.28.72.72,0,0,1-.4-1.08,2.77,2.77,0,0,1,1.89-1.73A3.18,3.18,0,0,1,35.55,101.61Zm1-11.71a.48.48,0,0,1-.19-.09h0a1.22,1.22,0,0,1-.3-.42.47.47,0,0,1,.15-.5.36.36,0,0,1,.19,0,.64.64,0,0,1,.67.65.53.53,0,0,1-.22.41A.61.61,0,0,1,36.56,89.9ZM40,89c-.15,2.63-1.56,4.17-2.37,6.09C36.27,93,36.6,92.12,40,89Zm-1.09,13.74c-.06.53-.15,1.11-.87,1a1.11,1.11,0,0,1-1.09-1,3.46,3.46,0,0,1,1-2.88A3.18,3.18,0,0,1,38.91,102.72Zm-.15-4.39c-.61-1.8.12-3.32,1.06-4.78.28-.45.6-1,1.24-.79s.62.8.7,1.32a1.64,1.64,0,0,1,0,.43,10.15,10.15,0,0,1-.92,4c-.24.55-.58,1.22-1.34,1.11S38.92,98.8,38.76,98.33Zm2.65,7c-2.12-.7-2.12-.7-1.3-2.55.53-1.23,1-2.5,1.61-3.67a6.49,6.49,0,0,1,3.53-3.45,2.14,2.14,0,0,1-.91,2.52c-1.89,1.34-2.24,3.31-2.51,5.37A3.17,3.17,0,0,1,41.41,105.35Zm.88-18.08c1.24,1.71,1.14,2.93.48,4.7C41.62,90.3,42,89.08,42.29,87.27Zm1.15,19.48s-.1-.09-.15-.13,0-.16.08-.19a.21.21,0,0,1,.2,0C43.71,106.62,43.66,106.74,43.44,106.75Zm.53-1.87a2.5,2.5,0,0,1-.47-3c1.31-1.7,2.29-3.78,4.26-4.91a5.76,5.76,0,0,1,1.48,3.3,2.68,2.68,0,0,1-.91,2.66c-.61.6-1.48,1-1.65,2a2.68,2.68,0,0,0-.49,0C45.45,105,44.7,105.72,44,104.88Zm3.81-9.72h.15l-.09.14Zm2,14.61c-1.21.46-2.25-.74-3.28-1.37-.52-.32-.44-.94-.32-1.46.15-.67.34-1.33.51-2,1.63,0,1.53,1.37,1.79,2.45,1.11-.36.62-1.48,1.19-2,.15.08.38.12.41.22a5.73,5.73,0,0,1,.23,1.29C50.34,107.92,51,109.32,49.79,109.77Zm.14-12.85c-.29-2.7-1-5,1.13-6.9,1.11.76,1.15,2,1.75,3.13-.87,0-2.07-1-2.08.77A4.2,4.2,0,0,1,49.93,96.92Zm4.36-4.44a9,9,0,0,1-1.51-3.58c-.69-2.3,1.26-3.53,2.14-5.14.47-.87,1.85-.31,2.21.82a5.61,5.61,0,0,1-.73,5.59A9.56,9.56,0,0,1,54.29,92.48Zm.57,3c-.4.07-.56-.37-.58-.74a.7.7,0,0,1,.55-.8.48.48,0,0,1,.51.46C55.39,94.81,55.4,95.34,54.86,95.44ZM53.53,81.65c-.46.7-.07,1.56-.37,2.3a1.26,1.26,0,0,1-1.28.77c-.69,0-.71-.69-.74-1.22s2.12-3.37,2.63-3.35a1.91,1.91,0,0,1,1.81,1.5C54.78,82.52,54.22,81.18,53.53,81.65ZM53,108.11a.83.83,0,0,1-.92.77c-.47-.06-.47-.49-.5-.82a6.67,6.67,0,0,1,.81-3.94A5.4,5.4,0,0,1,53,108.11Zm-.75-5.44c-.91-.06-1-1-1.14-1.59a8.28,8.28,0,0,1,.42-4.18c.17-.69.72-.57,1.27-.3,1.22.62,1.38,1.74,1.42,3.25a7.54,7.54,0,0,1-.13,1.25A1.74,1.74,0,0,1,52.26,102.67Zm3,4.63c-.57,0-.78-.3-.91-.76-.46-1.54,1.19-4.42,2.73-4.73a.65.65,0,0,1,.81.5c.22.67.38,1.36.49,1.77A3.94,3.94,0,0,1,55.21,107.3ZM62.75,103c-.09,0-.23.07-.25,0-.75-1.22-2.51-.88-3.15-1.65-1-1.12-1.74-1.5-3.2-.78a5.87,5.87,0,0,1,2.72-4.11c1.37-1.07,2.36-.53,2.68,1.3.06.34.08.69.12,1.06,1,.18,1-1,1.8-1.06a5.62,5.62,0,0,1,1,2.28A2.16,2.16,0,0,1,62.75,103Zm4-2.45c-1.07.14-1.17-.8-1.31-1.53s.08-1.32.86-1.46A1.81,1.81,0,0,1,68.2,99,1.47,1.47,0,0,1,66.74,100.57ZM69.5,97c-.72.18-.94-.29-1.24-.59-.69-.69-1-2.35-2.48-.64-.4.46-1.15-.29-1-1a4,4,0,0,1,2-2.73,1.49,1.49,0,0,1,2.37,1.15A12.25,12.25,0,0,1,69.5,97Zm0-11.65c-.11.61-.17,1.24-.23,1.86a2.39,2.39,0,0,1-1.77,2.39,4.93,4.93,0,0,0-3.24,3,1.8,1.8,0,0,1-2.32,1.26,3.26,3.26,0,0,0-2.74.8c-.49.34-.94.85-1.65.74-.45-2.09-.17-3.11,1.39-4.06,1.39-.85,2.91-1.64,3.41-3.25a12,12,0,0,0,0-7.14A6.08,6.08,0,0,0,61.32,79c-.63-.81-1.21-.78-1.9.11C58,81,57.51,81,55.92,79.49c-.45-.43-.76-1-1.4-1.2h0l-1.53,0c-2.7,1.86-4.18,4.29-3.3,7.64.55,2.08.45,3.79-1.44,5.17-.53.39-.69,1.24-1.11,1.81a3.38,3.38,0,0,1-3,1.83c.22-1.52.41-3,.64-4.41s0-2.9-1.28-3.83a3.26,3.26,0,0,0-4,.12c-1.33,1-2.73.72-4.11.54-2.18-.28-4,0-5.57,1.8-1.26,1.46-3,1.41-4.7.76-.5-.31-.47-.71-.19-1.15l.45-1.5c-.08-.66-.16-1.33-.25-2l-3.77,4.76c-1-.53,0-1.77-1-2.09a3.82,3.82,0,0,0-3.12.13,27.3,27.3,0,0,1-4.18,1.74,2.59,2.59,0,0,1-2.28-.3c-1.11-.62-1.2-1.11-.26-2s1.82-1.61,2.88-2.53c.2,1.13-.57,1.56-.67,2.24h0l.52.57c1-.61,2-1.2,3.39-.73,1.19.39,2.11-1,3.26-1.42l0-.76c-.62.09-1.24.23-1.86.27-1.74.11-2.47-1-1.71-2.56a4.13,4.13,0,0,1,2.27-2.19l1.78-.62-.06-.81h0l.12-.81L17.88,77c-.54.13-1.29.75-1.37-.41-.06-1,.47-2-.49-2.74a5,5,0,0,0-3.1-.66,2,2,0,0,1-1.4-.32c.29-1.69,1.54-3.12,1.79-4.87-.05-.42-.09-.84-.14-1.26A1.22,1.22,0,0,1,12,65.82a2.37,2.37,0,0,0-2-1.77h0a5.25,5.25,0,0,1-.56,0h0a3.68,3.68,0,0,1-.58,0,2.94,2.94,0,0,1-1.11-.44,3.33,3.33,0,0,1-2.48-.24c.88-1,1.67-2,0-3C4.51,60,4.69,59,4.73,58.17c0-.33.06-.8.53-.67.3.08.52.44.77.67H6l1.06-1c.42-.91.81-1.85,2.1-1.7a2.78,2.78,0,0,1,.32-1.16,3.62,3.62,0,0,1,.72-1l-3.85-.23h0a5.28,5.28,0,0,1,.21,1,1,1,0,0,1-1,1c-.67,0-.91-.45-.9-1a11.57,11.57,0,0,1,.17-1.3,1.18,1.18,0,0,1,.45-1.26c0-.23,0-.47,0-.7-.82-1.8-.76-1.93,1.06-2.36l0-.58.06-1.68a1,1,0,0,0-.14-.37L6.14,46c-.11.1-.22.2-.34.29a.75.75,0,0,1-1,.06.78.78,0,0,1-.26-.93c.3-.8.85-.73,1.41-.63a3.78,3.78,0,0,0,.56.08l4.11.23h0v-.92a12.27,12.27,0,0,0-4.21-.78c-.63,0-1.34-.14-1.43-.9s.59-.75,1.12-.85c1.25-.24,1.09-.94.54-1.74-.4-.59-.83-1.17-1.26-1.75a3.22,3.22,0,0,1-.6-2.54A1.55,1.55,0,0,1,7.15,34.4c2.16,1.17,4.22,2.49,4,5.44H12.7c.77-.26,1.73-.44.79-1.54a4.92,4.92,0,0,1-1.44-2.74c-1.25-.59-2.61-1-2.33-2.93.13-1-1.53-.87-1.62-1.93.35-.73.86-.31,1.32-.15,1.06.37,1.87,1.36,3.13,1.24,0,0,0,0,0,0l.07-.05c.31-.84-.49-1.16-.87-1.67s-.86-.86-.67-1.37c.57-1.46,2.12-1.74,3.29-2.46.79-.48,1.31,0,1.82.58,2,2.19,1.71,4.09-.94,5.42l.57,1.2a.29.29,0,0,0,.27,0l.48.29.33.19-.33-.19.33.19v0l.82-.62c.28-.89,1.08-1.19,1.78-1.59l.67-.7h0c-1.21-1.71-1.38-3.79-2-5.69-.24-.7-.18-1.36.61-1.45s.52.68.61,1.16c.48,2.65,1.37,5.1,3.65,6.79l.92-1.43A15.15,15.15,0,0,0,22.66,29c-2.14-1.9-1.27-4.26-.94-6.49.09-.66.8-.54,1.34-.36l.43-.39h0c0-.36,0-.82.47-.73.7.12.94.66.86,1.34.66-.17,1,.42,1.5.65h0l.43-.36c-.06-.57-.24-1.21.65-1.33l1.06-.08c-.18-.69-.38-1.37-.54-2.06-.21-.9.22-1.52,1.07-1.37,1,.18,1.34-.2,1.77-1s1.26-1.24,1.5.24c.18,1.15,1.42.92,2,1.59l.84-.17c-.23-2.46-.12-2.6,2.23-2.76a1.88,1.88,0,0,0,.59-.12,4.22,4.22,0,0,0,1.47-1h0C39.11,13.34,38.49,12,40,11c.85-.57,1.61-.72,2.16.4.43.87.9,1.73,1.34,2.59h1.11l-.06-1c-.12-1.31-.23-2.62-.34-3.9,1.14-.53.88,1,1.69.91.53-.61,0-1.6.82-2.24.7.28.52.95.53,1.48.06,2.31,0,4.62.9,6.81.55,1.29-.56,1.67-1.34,2.2a3.19,3.19,0,0,1,.31.61,1.2,1.2,0,0,1,.08.42,1.09,1.09,0,0,1-.25.65h-.6a1.47,1.47,0,0,1,0,.51c-.81,2.44-.57,3.16,1.45,4.4,2.23,1.37,2.35,1.59,1.87,4a23.54,23.54,0,0,1-.78,2.56c-.53,1.63-1.1,3.24-.22,4.95a1.28,1.28,0,0,1-.6,1.82,11.69,11.69,0,0,0-2.11,1.64c-.91.94-1.53,2-.83,3.39a2.82,2.82,0,0,1,.28,1c.07.83-.58,1.86.54,2.4a8.4,8.4,0,0,0,4.39,1.06c.76-.07,1.06-.61,1.2-1.25a6.92,6.92,0,0,0,0-3.2,2.42,2.42,0,0,1,1.34-3.13A10.21,10.21,0,0,0,56,37.24a2.16,2.16,0,0,1,3.27-.45c.74.49,1.64.77,2.1,1.62h1.88c1.34-1.18,3.22-2,2.65-4.36l-.83.09c-.18.33-.36,1.05-.73.73-.58-.51,0-1,.47-1.35l1-.56c.31-.74.64-1.47.91-2.23s.53-1.42-.12-2a1.83,1.83,0,0,0-2,0c-.47.21-.86.63-1.33.87-.8.39-1.43.19-1.6-.75a20.11,20.11,0,0,1-.24-5.08,1.79,1.79,0,0,1,1.77-1.7,17.83,17.83,0,0,0,3.68-.76,1.36,1.36,0,0,1,2,1.05c.13.43.3.85.46,1.27a2.47,2.47,0,0,0,3,1.66c.62-.1,1.23-.25,1.84-.36.9-.16,1.45.19,1.33,1.13a6.09,6.09,0,0,0,1.3,4.53,2.17,2.17,0,0,1-.16,2.74,8.23,8.23,0,0,0-1.46,4c-.15,1.71.12,2.3,1.8,2.78,1.27.35,1.61.68,1,2-1.79,3.85-1.07,5,3.15,5.16,1.19,0,1.88.22,1.78,1.61-.06.87.64,1.21,1.37,1.4a8.16,8.16,0,0,0,3.43.47,1.77,1.77,0,0,1,1.63.27c.13.47,0,.73-.24.84-1.87.89-2.86,2.62-3.91,4.22-.61.93-1.15,1.48-2.32,1.32a1.89,1.89,0,0,0-2.23,1.06c-.45,1.07.34,1.64,1,2.29,1.53,1.61,3.09,3.18,6,3.65a16.58,16.58,0,0,1-7.06,2.15c-1.92.07-3.43-1.41-5.12-2.19-.85-.39-.08-1.1.25-1.55a4.19,4.19,0,0,0,.22-4.57c-.43-.94-1-1.42-2.07-1.18a3.15,3.15,0,0,1-3.13-.89c-1.63-1.54-8,.18-8.92,2.21a1.9,1.9,0,0,0,.84,2.55,15.44,15.44,0,0,0,2.21.94c.82.32,1.77.41,2.4,1.49-1.53,1-2.34,2.32-1.37,4.18a1,1,0,0,1,0,.78,2.58,2.58,0,0,0,.69,3.57c1.41,1.17,2.82,2.26,4.83,1.64a7.27,7.27,0,0,1,1.31-.28A1.05,1.05,0,0,1,73.9,74a7.24,7.24,0,0,0,5.39,5.29c2,.51,3,2.51,4.66,3.48l.27.9c.06.15.21.33.17.44-.11.31-.38.25-.62.14-1.89-.44-3.75-1.38-5.66,0-.68.5-1.37-.09-2-.28a12.65,12.65,0,0,0-3.6-1C70.64,83,69.83,83.54,69.49,85.3Zm-8.86-.43c.9,2,.76,2.54-1.15,4.6-.28-2.67-1.22-5,.46-7.25.21-.22.43-.6.75-.27s.06.6-.2.84A4.22,4.22,0,0,0,60.63,84.87Zm-47.88-6c.17-.62,1.21-1.22,1.3-.58.37,2.34,1.6.71,2.47.7a11.41,11.41,0,0,1-4.87,4.86C12,82.13,12.33,80.49,12.75,78.89Zm-.59-2.44c-.05-.52.37-.71.75-.9.23-.13.59-.17.68.11.19.66-.31.91-.8,1.1A.47.47,0,0,1,12.16,76.45ZM63.62,31.4a2.49,2.49,0,0,1-.95,2.67C62,32.85,62.6,32,63.62,31.4Zm-1,2.75c.1.4.14.79-.35,1-.06,0-.21,0-.22-.08C61.94,34.55,62.28,34.34,62.66,34.15Zm22,27.17A20,20,0,0,1,94,63.44C86.3,63.23,85.89,63.13,84.69,61.32ZM71.3,63a3.36,3.36,0,0,1,3.08-1.15.42.42,0,0,1,.18-.06c.12,0,.1.11,0,.28a2.4,2.4,0,0,1-1.39.9A5.7,5.7,0,0,1,71.3,63Zm1.47,4.35a.8.8,0,0,1-.37.63,3,3,0,0,1-2.56.07.67.67,0,0,1-.44-.71,1.68,1.68,0,0,1,1.81-1.08C71.93,66.23,72.66,66.4,72.77,67.3Zm1-7.22c-1.35.56-2.56,2.16-4.18.24-.59-.7-1.93.12-3.23-.82a23.64,23.64,0,0,1,7-.85.82.82,0,0,1,.83.55A.73.73,0,0,1,73.78,60.08Zm-4.15,4.76a2.07,2.07,0,0,1-2.08,1.32C68,65,68.71,64.9,69.63,64.84ZM68,70.35c.26-.69.31-1.61,1.53-1.42a13.19,13.19,0,0,0,4.26.2c1.09-.18,1,1.09,1.24,1.74.32.86-.51,1-1.11,1.1s-1.25.09-2.38.17a9.36,9.36,0,0,1-2.41-.41C68.44,71.57,67.64,71.37,68,70.35Zm6.87-4.41a4,4,0,0,1,3.18,1.55C75.54,68.69,75.23,68.54,74.89,65.94Zm6.43,12.49c.84-.81,1.62-.54,2.86-.21A2.14,2.14,0,0,1,81.32,78.43Zm-9.74,11c-.15.07-.4.14-.5.07-.62-.41-.26-.93-.13-1.43s.18-.86.31-1.49a2,2,0,0,1,.95,1.5A1.18,1.18,0,0,1,71.58,89.48Zm3.75,4.66c-.49.52-.94,1.07-1.44,1.58s-1.17,1.46-2.24.8a3.29,3.29,0,0,1-1.09-3.32c.34-.77.81-1.23,1.57-.36.33.38.46,1,1.3,1,.45-1.12,0-2.08.07-3,0-.72.35-1.22,1.09-1.28a1.21,1.21,0,0,1,1.34,1.06C76.1,91.83,76.32,93.1,75.33,94.14Zm2.4,0c-.31,0-.44-.27-.42-.55,0-.12.2-.24.3-.35a.49.49,0,0,1,.42.37.58.58,0,0,1,0,.19C78,93.94,77.84,94.15,77.73,94.15Zm2.83-1.48a1.14,1.14,0,0,1-1.64-.4c-.72-1.12-1.27-2.35-2-3.46-.5-.75-1-1.89-2.26-.83-.44.38-.87,0-1.11-.37a4.23,4.23,0,0,1-1.11-3.07,10,10,0,0,0,4.36,1.19c2.16,0,4.7,3.34,4.77,5.53C81.59,92.05,81.14,92.35,80.56,92.67ZM83.43,91c-.41,0-.76-.19-.69-.59.14-.76.13-1.64,1.08-2a2.13,2.13,0,0,1,1.53,1C85.56,89.88,84.24,90.93,83.43,91Zm3.69-3.13a.85.85,0,0,1-.35,0,.66.66,0,0,1-.27-.12,1.72,1.72,0,0,1-.39-.51L84.51,87c-2.31.68-2.91.51-3.82-1-.23-.4-.43-.8-.07-1.21a1,1,0,0,1,1.22-.27c1.18.6,2.33,1.27,3.49,1.92l.66.33.34.17h0c.42.11.85.22.92.76A.27.27,0,0,1,87.12,87.86Zm4-1.09c-.88.44-1.47-.23-2.12-.68-1.65-1.14-3-2.75-5-3.37.12-1.42,1.32-.64,2-.9.08-.19.23-.38.19-.5-.76-2.16-.13-3,2.11-2.8a4.8,4.8,0,0,1,2.91,1.14c.85.82,1.31,1.77-.15,2.52,0,.31,0,.62,0,.93,1,.48,2.26.4,3.39,1.27A7.21,7.21,0,0,1,91.08,86.77Zm-.69-9.27a8.47,8.47,0,0,1,4.24.24c.47.11.82.39.73.93a.66.66,0,0,1-1,.52C93.15,78.66,91.69,78.81,90.39,77.5Zm4.59,4a1.29,1.29,0,0,1-1-.76c-.13-.25,0-.54.27-.56a1.2,1.2,0,0,1,1.16.66C95.43,81.27,95.27,81.5,95,81.47Zm.59-9.13c-.23.85-.93.58-1.52.55l-.63.68c.86.65,2.62.87,2,2.35s-2.13.59-3.28.34-2.08-.48-3.11-.77-2.27-.6-2.92.89a1.19,1.19,0,0,1-1.4.53,64.86,64.86,0,0,1-7.6-1.44c-.21-.06-.34-.35-.6-.63,1.4-1.36,3.08-.59,4.58-.79,0-.3,0-.59,0-.88-1.56-1-3.13-2-4.68-3a.79.79,0,0,1-.44-.88.63.63,0,0,1,.81-.46c1.9,1.12,3.92.33,5.88.44v-.54h0c.06-1.37.84-1.83,2.1-1.66a2.08,2.08,0,0,1,1.64-1.17,64.54,64.54,0,0,1,7.47-.65c.88,0,1.68.12,1.61,1.26s-.86,1-1.59,1l-2.14,0c0,.21,0,.42,0,.62,1.28.42,2.56.83,2.18,2.62.08.38.15.75.23,1.13.4-.08.77-.58,1.2-.21A.86.86,0,0,1,95.57,72.34Zm-.31-19.62c-.55.65-1.12,1.2-.05,1.92a.94.94,0,0,1,.11,1.43c-.53.68-.32,1.23-.07,2,.59,1.74,0,2.66-1.77,2.61-1.46,0-3.29.47-4-1.74-.2-.64-1-.27-1.63.06a4.56,4.56,0,0,1-4.51-.17c1.27-1.24,2.52-.69,3.6-.93.73-.16,1.72-.06,1.24-1.4-.24-.68.49-.85,1-1a13.79,13.79,0,0,0,2.79-1c-.26-1-1.49-.39-1.91-1.28A18.86,18.86,0,0,1,94,51.11c.51-.23,1.06-.38,1.45.14A1.13,1.13,0,0,1,95.26,52.72Z"/><path d="M24.76,22.37l0,0,0,0Z"/><path d="M12.08,35.59v0l0,0Z"/><path d="M46.28,19.9a0,0,0,0,0,0,0l0,0Z"/><path d="M7.32,58.07h0l-.27.21c-.16.35-.32.71-.47,1.07a16.36,16.36,0,0,0,4.88.53c.68,0,.66.31.35.77l.6.67.25.17c1.59-.59,3.16-1.24,4.78-1.74,1.13-.34,2.36-.61,2.64,1.17.07.47.48.7.9.91,1.5.72,4.1.16,5.53-1.21h0c1.92-1.28,2-1.45.66-2.83-.79-.79-.63-1.31-.09-2a3.9,3.9,0,0,1,2.12-1.56,5.1,5.1,0,0,0,2.33-1.28,1.49,1.49,0,0,0-.06-2.52c-.75-.68-1.58-1.31-2.64-.61-1.27.84-2.21.2-3.08-.65a6.55,6.55,0,0,1-1.15-1.47A5.62,5.62,0,0,0,21.36,45a18.81,18.81,0,0,1-2.91-1.37c-.64-.35-1.31-1-1.14-1.69.34-1.55-.47-3-.55-4.33.21-.16.27-.26.34-.27,1.39-.08,2.58.67,3.89.94,1.78.38,2.74,0,3.56-1.53A5.32,5.32,0,0,1,25.69,35a5,5,0,0,0,1.77-5.53,2.39,2.39,0,0,1,.74-2.79c.95.53,1,1.68,1.93,2A3.56,3.56,0,0,1,32.6,32.4c0,1.43.81,2,2.22,2.08,1.91.1,2.34,0,3.15-1.8s1.31-3.32.58-5.18c-.31-.78-.88-1.8.2-2.39s1.23.61,1.69,1.18c.59.74,1.14.54,1.32-.27a10.1,10.1,0,0,0,.13-2.4c0-.65,0-1.58.49-1.7,1.5-.36,2.32-1.93,3.9-2,.21-.37.43-.15.64,0a1.09,1.09,0,0,0,.25-.65,1.2,1.2,0,0,0-.08-.42,3.19,3.19,0,0,0-.31-.61,4.91,4.91,0,0,1-.55-3.62c.14-1.44-.61-1.65-1.71-1.64l.06,1H43.47c-.7,1.32-1,3.08-3.16,2.72a4.43,4.43,0,0,0-1-2.12h0a4.22,4.22,0,0,1-1.47,1,1.88,1.88,0,0,1-.59.12c-.18,1.38-.23,2.86-2.23,2.76l-.84.17c.88,1.86.95,3.64-.85,5-.67.5.08,2.05-1.42,1.8l-.24,1.13c-.06.43-.1,1-.72.74s-.78-.89-.31-1.52a5.19,5.19,0,0,0-1.15-2.38c-.35-.7-.7-1.41-1.06-2.11h0l-1.06.08A3.54,3.54,0,0,1,27,24.66a9.4,9.4,0,0,1-2.2-2.26l-1.29-.65h0l-.43.39c.65.93,1.34,1.83,1.94,2.79a4.12,4.12,0,0,1-1.11,5.47L23,31.83a4.15,4.15,0,0,1,1.06,0c1,.32,1.37,1,.46,1.73a3.7,3.7,0,0,0-1.39,2.46c-1.73-.46-.59-1.92-1.16-2.7s-1.2-1.56-1.8-2.34h0l-.67.7c-1,1.5.34,2.77.56,4.49-3.3-.43-5.53-3.29-8.86-3.2-.3,1.07,1,1.59.91,2.56,2.83,1.53,3.73,3.52,2.68,6.16A1.13,1.13,0,0,0,15,43.15c1.25,1.24,2.29,2.74,4.21,3.12a11.74,11.74,0,0,1,2.19.87c-.5.79-1.05.39-1.53.38s-1.23-.23-1.3.49.7.72,1.08,1.07C16,50.56,16,50.56,12.69,50.34a4,4,0,0,0,2.52-1.18c1.5-1.9.94-3.89-1.42-4.47a30.85,30.85,0,0,0-3.18-.47v.92h0c.86.23,1.71.45,2.56.69a1.19,1.19,0,0,1,.91.87c.14.62-.28,1-.74,1.28a5.56,5.56,0,0,1-3.52.93c-.78-.08-1.56-.24-2.34-.36h0c-.13,1.32-.64,2.28-2.15,2.33,0,.23,0,.47,0,.7,2.42.71,4.92.55,7.4.63.8,0,1.6,0,2.4.1a.83.83,0,0,1,.84.85,1,1,0,0,1-.73,1,5.39,5.39,0,0,1-5-.79h0a3.62,3.62,0,0,0-.72,1,2.78,2.78,0,0,0-.32,1.16c1.5.7,3.32.67,4.76,2.17C11.69,58.75,9.57,59.13,7.32,58.07ZM43.13,17.12A7.45,7.45,0,0,0,44.58,14c1.23,2,0,3.53-.88,5.12a.83.83,0,0,1-.7.22c-.4-.08-.48-.45-.49-.82A2.11,2.11,0,0,1,43.13,17.12Zm-2.85-.35a6.94,6.94,0,0,1,.33,3.59c-.31,1.38-.83,2.52-2.35,2.89l-.12.06.11-.07a8.05,8.05,0,0,0,.35-4.68C38.09,16.92,39.13,16.8,40.28,16.77ZM33.7,26.64c.52.13.63.12.67.17a3.1,3.1,0,0,1,.5,3.44.4.4,0,0,1-.67.07C33.39,29.23,33.56,28,33.7,26.64ZM23.46,60.08c2-1.5,2.22-1.46,3,.51A7.22,7.22,0,0,1,23.46,60.08Zm-.67-10.63a1,1,0,0,1,.9.38c.18.32-.08.45-.35.48a1.17,1.17,0,0,1-1.15-.37c-.05-.06,0-.16-.08-.31A2.85,2.85,0,0,1,22.79,49.45Zm-3.18,1.64A3.59,3.59,0,0,1,22.3,52c1,.79.85,1.79-.34,2.21a6,6,0,0,1-1.33.21c-.59-.07-.95-.08-1.3-.16-.75-.16-1.7-.1-1.87-1.14C17.34,52.43,18.66,51.21,19.61,51.09Zm0,4.95c2.58.24,4.84-.23,5.82-3.06a1.18,1.18,0,0,1,1.21-.84,5.3,5.3,0,0,1,2.62.13c.05.84-.67.68-1.1.84-.59.22-1.4.24-1.65.79-.67,1.42-2.37,1.73-3.08,2.7-1.27,1.71-2.74,1.36-4.31,1.49a3.7,3.7,0,0,1-3.71-1.91A12.53,12.53,0,0,1,19.64,56Z"/><path d="M25.12,79.24c.12-1.53,1.33-2.43,2.46-3.31.33-.66.81-.66,1.36-.3,1.54.07,1.81-1.09,2-2.2.1-.45-.46-1.08.29-1.34A1.25,1.25,0,0,1,33,73a3.88,3.88,0,0,0,.24.45h0c1.52-.62,1.75-2.58,3.41-3.33.34,1.49-1.33,2.46-.73,3.81-.7-.31-1.17.15-1.57.58-.95,1-1.2,0-1.64-.5h0c-.78,1-1.87,1.77-1.54,3.25.3.23.91.27.69.85a1.26,1.26,0,0,1-1.2.75c0-.35,0-.69,0-1h0A4.59,4.59,0,0,0,28,81.56h0v0a6.36,6.36,0,0,0,.76-.14c3.39-1,6.05-3.38,8.94-5.17,3.43-2.13,3-5.87-.53-8-1.62-1-2.39-.79-3.88.47-.66.57-1.17,1.44-2.2,1.38-1.54-.1-2.21,1-2.87,2.05a12.9,12.9,0,0,1-3.06,3.71c-.65.5-1.33,1-2.2.55-1.82-.88-3.46-.33-5.06.58l2.58.93c.6-.13,1.17-.79,1.88-.1-.47.8-1.42.48-2,.91h0l.06.81c3.25,1,3.35,1.3,1.17,3.82a4.87,4.87,0,0,1-1.65,1.28l0,.76C23.22,84.77,24.87,82.71,25.12,79.24Zm12.42-5.83c-.4,1.56-.4,1.57-1.92,2.41-.56-.75.49-1.24.3-1.91C36.52,73.94,36.83,73,37.54,73.41Z"/><path d="M94,70.69a9.17,9.17,0,0,1-4.89-1.19.75.75,0,0,1-.52-.83c.08-.43.48-.53.82-.55.8-.05,1.61,0,2.41-.05,0-.2,0-.41,0-.62-2.3-.55-4.63-.28-7-.32a7.16,7.16,0,0,0,1.39,2.24c-1.27.2-2.34-.58-3.53-.62h0v.54c2.39,3.06,2.36,3.13-1.57,3.88,0,.29,0,.58,0,.88,2.81.31,5.65-.2,8.45.32h0l.4-.57c-.93-.87-2.39-1-3.48-2.14a9.66,9.66,0,0,1,6.94,1.92l.63-.68.18-1.07C94.15,71.44,94.08,71.07,94,70.69Z"/><path d="M84.77,67.13h.06a.05.05,0,0,1,0,0Z"/><path d="M25.89,87a2.52,2.52,0,0,1,1.51-2.25c-.23,1.2-.51,2-1.4,2.35,0,.51-.05,1-.07,1.51h0l0,0a4.94,4.94,0,0,0,1.22-.45c2.23-1.46,2.5-2.43,1.25-4.84A3.4,3.4,0,0,1,28,81.59v0h0a1.4,1.4,0,0,0-1.57,1c-.33.88-.81,1.7-1.23,2.55.09.66.17,1.33.25,2Z"/><path d="M78.32,32.16c0,.16,0,.31,0,.47l0,.47a5,5,0,0,0,5.72.75c.38-.19.61.19.84.44l.7.11c.12-1.77,1.54-2.64,2.61-3.75l-.86-.9c-2,1.37-3.89,3.09-6.57,3h0l-.75.08-.67-.61-.93,0Z"/><path d="M54.84,76.21c0-2-1.32-3.06-3.3-2.54-1.47.38-1.49.64-.56,2,.64.91,2,1.26,2,2.66l1.53,0h0C54.25,77.54,54.83,76.92,54.84,76.21Zm-2.15-.92a.3.3,0,0,1-.22-.08.24.24,0,0,1,0-.42c.18-.11.32-.05.41.14S52.9,75.27,52.69,75.29Z"/><path d="M13.54,67.88c1-.83,3-.82,2.79-2.75-.18-1.75-1.83-1.95-3.12-2.47-.58-.23-.92-.52-.55-1.17l-.25-.17a2.22,2.22,0,0,0-1.36,1.47,2.72,2.72,0,0,0-.11.72,9.67,9.67,0,0,1,1.78.35c1.57.63,1.65,1.29.45,2.9.05.42.09.84.14,1.26A1.76,1.76,0,0,0,13.54,67.88Z"/><path d="M30.74,92.27a3.31,3.31,0,0,0-1.17.35,2,2,0,0,0-.33.26h0a1.54,1.54,0,0,1,.45,1.46c-.34,1.81-.38,3.42,1.85,4.09.26.07.39.56.58.85l.44-.49a6.88,6.88,0,0,0-.7-2.26A6.36,6.36,0,0,1,30.74,92.27Z"/><path d="M59.58,39.87a1.26,1.26,0,0,0,.1,1.47,1.08,1.08,0,0,0,1.22.23c.75-.26,1.55-.56,1.73-1.45a4.81,4.81,0,0,1,.65-1.7H61.4C60.93,39.07,59.92,39.05,59.58,39.87Z"/><path d="M7.51,41.9A6.47,6.47,0,0,0,12.45,43c-.94-1.24-.17-2.15.25-3.11H11.19C11.18,42.29,9,41.12,7.51,41.9Z"/><path d="M87.05,82.4c1.7,2.53,1.84,2.56,3.73.81a.82.82,0,0,1,.25-.1c0-.31,0-.62,0-.93A16.19,16.19,0,0,0,87.05,82.4Z"/><path d="M4.71,54.15c0,.59.23,1.07.9,1a1,1,0,0,0,1-1,5.28,5.28,0,0,0-.21-1h0l-1.5-.3A11.57,11.57,0,0,0,4.71,54.15Z"/><path d="M6.49,44.91a3.78,3.78,0,0,1-.56-.08c-.56-.1-1.11-.17-1.41.63a.78.78,0,0,0,.26.93.75.75,0,0,0,1-.06c.12-.09.23-.19.34-.29l.17-.14Z"/><path d="M54.83,93.9a.7.7,0,0,0-.55.8c0,.37.18.81.58.74s.53-.63.48-1.08A.48.48,0,0,0,54.83,93.9Z"/><path d="M7.74,63.08l0,.51A2.94,2.94,0,0,0,8.82,64a3.68,3.68,0,0,0,.58,0h0a5.25,5.25,0,0,0,.56,0h0c-.12-.26-.24-.51-.37-.77A4.05,4.05,0,0,0,7.74,63.08Z"/><path d="M37.05,89.49a.64.64,0,0,0-.67-.65.36.36,0,0,0-.19,0,.47.47,0,0,0-.15.5,1.22,1.22,0,0,0,.3.42h0a.48.48,0,0,0,.19.09.61.61,0,0,0,.27,0A.53.53,0,0,0,37.05,89.49Z"/><path d="M77.61,93.25c-.1.11-.29.23-.3.35,0,.28.11.54.42.55.11,0,.31-.21.32-.34a.58.58,0,0,0,0-.19A.49.49,0,0,0,77.61,93.25Z"/><path d="M13.63,31.75l0,.79,2.19.88-.57-1.2Z"/><path d="M8.79,85.08c-.06-.72-.81-.32-1.28-.28,0,.27,0,.55,0,.83C8.05,85.61,8.84,85.77,8.79,85.08Z"/><path d="M7.46,48.56h0a4.32,4.32,0,0,0-1-2.28L6.39,48l0,.58h0A1.17,1.17,0,0,0,7.46,48.56Z"/><path d="M5.49,81.39l-.94,1.44,1.32.22c.17-.55.35-1.09.52-1.64Z"/><path d="M25.15,89.74l.78-1.11,0,0H25C24.68,89,24.65,89.43,25.15,89.74Z"/><path d="M86.33,86.89h0c-.08.12-.15.24-.22.36h0a1.72,1.72,0,0,0,.39.51.66.66,0,0,0,.27.12.85.85,0,0,0,.35,0,.27.27,0,0,0,.13-.21C87.18,87.11,86.75,87,86.33,86.89Z"/><path d="M43.37,106.43s-.06.12-.08.19.1.13.15.13c.22,0,.27-.13.13-.29A.21.21,0,0,0,43.37,106.43Z"/><path d="M64.84,33.53l.26.62.83-.09L65.81,33Z"/><path d="M16.86,33.93h0c.28.24.59.41.89.09s.09-.48-.06-.71l-.82.62Z"/><path d="M86.33,86.89h0L86,86.72l-.66-.33-.82.6,1.6.26C86.18,87.13,86.25,87,86.33,86.89Z"/><path d="M6.26,58.06l.79.22.27-.21h0l-.23-.89L6,58.16H6l.11,0Z"/><path d="M6.11,32.88h-1a.58.58,0,0,0,.52.26A1,1,0,0,0,6.11,32.88Z"/><polygon points="47.78 95.16 47.84 95.31 47.93 95.17 47.78 95.16"/><path d="M35.59,14.07h0c0-.13,0-.27,0-.4a.52.52,0,0,0-.1.11C35.39,13.88,35.44,14,35.59,14.07Z"/><path class="cls-1" d="M16.55,33.72l.33.19"/><path class="cls-1" d="M16.55,33.72l-.48-.28"/><path d="M74.56,61.74a.42.42,0,0,0-.18.06l.22.22C74.66,61.85,74.68,61.73,74.56,61.74Z"/><path d="M37.57,35.42c-.83.25-1.44.79-1.16,1.78s.59,1.84,1,3.15c1.45-1.18,2.19-2.3,1.72-3.86C38.94,35.81,38.44,35.16,37.57,35.42Z"/><path d="M58,75.38a.72.72,0,0,0-.77.87c.08.78.47,1.37,1.35,1.34.49,0,.79-.33.83-.9A1.51,1.51,0,0,0,58,75.38Z"/><path d="M11.81,60.65a26.14,26.14,0,0,1-3.76.93c-1.52.1-.87.86-.31,1.5a4.05,4.05,0,0,1,1.89.2l1.31.23a2.72,2.72,0,0,1,.11-.72,2.22,2.22,0,0,1,1.36-1.47h0Z"/><path d="M31.94,25.38c-1-1.46-.64-3.47-2.09-5.45-.15,1.54-.24,2.48-.33,3.42a5.19,5.19,0,0,1,1.15,2.38l1,.78Z"/><path d="M6.26,58.06l-.11.13c-.46.53-.18.89.43,1.16.15-.36.31-.72.47-1.07Z"/><path d="M28.63,76.9a.77.77,0,0,0,.3-1.24c-.46,0-.67.38-1,.57C28,76.6,28,77.2,28.63,76.9Z"/><path d="M27.53,78.51c0-.15.19-.37.13-.44-.2-.28-.42-.14-.6.07h0C27.21,78.27,27.37,78.39,27.53,78.51Z"/><path d="M27.53,78.51c-.16-.12-.32-.24-.47-.37h0C26.93,78.62,27,78.8,27.53,78.51Z"/><path d="M30.6,77.77a.52.52,0,0,0,.52-.55c-.38,0-.53.2-.53.54h0Z"/><path d="M32.69,74c.37,0,.52-.21.53-.56h0a.56.56,0,0,0-.52.55h0Z"/><path d="M12.23,87.57h0l.46.45.6-.44L12.77,87h0l-.54.56Z"/><path d="M12.23,87.57c0,.14-.15.32-.1.41.14.25.36.17.56,0l-.46-.45Z"/><path d="M89.88,58.48c.15.72.77.48,1.26.23,0-.5-.09-1-.13-1.51C90.46,57.49,89.74,57.77,89.88,58.48Z"/><path d="M93.8,56.78c-.26,0-.5.08-.49.39a.36.36,0,0,0,.5.35.58.58,0,0,0,.35-.28C94.28,56.93,94,56.84,93.8,56.78Z"/><path d="M91,57.2c0,.5.09,1,.13,1.51C91.61,58.16,92.25,57.6,91,57.2Z"/><polygon points="92.48 57.59 92.51 57.41 92.31 57.48 92.48 57.59"/><path d="M90.73,74.47c.31-.62-.42-.53-.77-.68l-.4.57h0C90,74.57,90.53,74.88,90.73,74.47Z"/><path d="M60,17.5c-.23-.19-.41.13-.56.3l.38.32h0C60.05,18,60.23,17.68,60,17.5Z"/><path d="M13.61,32.54l0-.79a.87.87,0,0,0-1,0l-.07.05s0,0,0,0C12.71,32.32,13.19,32.4,13.61,32.54Z"/><path d="M78.92,90.27c.25.39.29,1.14,1.09,1.2.49,0,.55-.38.46-.75-.16-.62-.41-1.22-1.19-1.2C79,89.52,78.91,89.84,78.92,90.27Z"/><path d="M70.73,71.18c.36,0,.75-.19.62-.65s-.63-.53-1.1-.51c-.29.12-.78.12-.6.63A.9.9,0,0,0,70.73,71.18Z"/><polygon points="13.8 79.9 13.63 79.89 13.7 80.07 13.8 79.9"/><path d="M24.91,94A3.8,3.8,0,0,0,25,93.5a.43.43,0,0,1,0,0l-.06,0C24.67,93.61,24.79,93.78,24.91,94Z"/><path d="M26.75,22.65l-.43.36h0c.12.07.28.22.35.19C26.92,23.08,26.88,22.86,26.75,22.65Z"/></svg>