<svg xmlns="http://www.w3.org/2000/svg" viewBox="0 0 400 400"><defs><style>.a{fill:#fafafa;}</style></defs><path d="M297.513,244.432c-6.182.911-9.022,6.87-13.622,8.451-1.476,2.583-.369,3.673.7,4.556,1.837,1.514,4.756,2.656,3.807,5.512a5.367,5.367,0,0,1-7.1,3.544c-5.534-2.406-9.158-1.492-11.855,3.989-.489,1-2.9,2.1-3.722,1.708-6.377-3.069-7.41,2.087-9,5.8-3.282,7.649-6.153,15.472-9.351,23.159a32.938,32.938,0,0,1-3.629,6.274c-1.392,1.967-5.026,1.22-6.081-1.1-.2-.44-.623-.829-.681-1.275-1.435-11.14-6.106-21.523-6.621-33.009-.546-12.161-2.948-24.251-4.782-36.335-.425-2.807-.427-5.937-3.446-9.044-1.944,6.065-3.714,11.666-5.546,17.247-.557,1.7.539,2.731,1.32,3.914,5.079,7.683,5.79,16.466,6.528,25.288,1.754,20.967,3.819,41.9,7.681,62.613,2.521,13.527,5.274,26.942,13.026,38.707a17.587,17.587,0,0,1,1.735,4.029c1.373,4.03-.415,6.955-4.454,7.021-7.845.128-15.7.324-23.537.071-21.087-.68-42.135-.715-63.089,2.228a26.931,26.931,0,0,1-4.39.2c-2.48-.061-4.578-2.777-3.957-5.024a13.83,13.83,0,0,1,.863-2.8c9.518-18.021,12.908-37.857,17.118-57.457,3.08-14.338,6.253-28.655,9.4-42.978.63-2.862,2.1-5.758,1.9-8.547-1.164-16.385,4.157-31.954,5.758-47.986a97.534,97.534,0,0,0-1.9-29.187c-.634-3.166-2.143-5.414-5.235-6.445-2.774-.926-5.535-1.931-8.37-2.626-8.076-1.978-9.307-5.113-3.949-11.643,2.774-3.38,5.743-7.237,9.505-9.045,8.793-4.226,10.063-12.611,12.738-20.248,1.111-3.17.937-6.765,1.708-10.084.982-4.233,3.707-6.67,8.2-7.177,7.71-.868,9.842.65,12.472,8.542a26.819,26.819,0,0,1,1.177,7.081c.409,6.58,3,12.492,8.327,16.511,12.727,9.6,15.384,23.482,15.32,37.814-.034,7.513,1.5,13.276,6.862,18.234a42.674,42.674,0,0,1,9.485,12.954c1.447,2.99,3.987,5.525,6.319,8,5.4,5.728,5.471,5.662,8.429,13.212,3.791-1.4,2.071-4.655,2.412-7.13.349-2.527.838-5.111,3.94-5.134,2.917-.022,4.007,2.3,4.536,4.878a9.378,9.378,0,0,0,1.12,1.9c17.328-13.38,34.634-26.661,51.847-40.063,11.607-9.037,23.022-18.321,34.66-27.319a50.286,50.286,0,0,1,8.895-5.022c1.808-.879,3.761-.712,5.713,1.334-4.263,9.679-12.968,15.69-20.652,22.213-13.051,11.078-27.1,20.976-40.39,31.781C309,231.938,300.823,236,297.293,244.647Z"/><path d="M297.293,244.647c8.041-.136,15.521-1.406,20.059-9.243,1.362-2.351,3.914-2.587,6.373-2.962,3.978-.608,8.124-2.064,10.012-5.458,3.551-6.385,8.617-8.711,15.569-8.9a4.8,4.8,0,0,0,4.4-5.089c-.461-6.109,3.329-9.244,8.026-10.868s7.535-4.407,8.808-8.877c.861-3.022,2.911-4.807,4.992-6.931,8.484-8.657,8.763-19.059,5.4-29.923-.916-2.961-2.9-4.279-6.491-4.585-8.3-.708-15.317,1.631-20.382,7.9-3.5,4.334-4.2,1.123-5.916-1.033-3.444-4.322-4.668-4.154-6.688.6-1.525,3.588-2.608,7.392-4.413,10.824-1.635,3.109-2.152,6.731-7.966,6.66-4.738-.058-7.307,7.192-12.9,8.376-.7.148-1.382,2.548-1.306,3.86.478,8.165-2.971,14.12-9.787,18.4-4.786-1.972-1.041-7.316-4.086-10.087-1.773-1.613-3.063-4.166-5.85-3.128a6.561,6.561,0,0,0-4.406,5.464c-.257,4.357.246,8.754.277,13.135.023,3.27-1.512,6.178-4.77,6.429-5.551.429-5.578,4.388-6.513,8.166-.576,2.33-1.559,4.893-4.817,4.054-2.9-.747-4.963-4.387-3.608-6.949a126.493,126.493,0,0,1,8.974-14.741c1.057-1.47,3.238-2.377,3.1-4.5-.51-8.037,5.02-13.438,8.377-19.789a8.717,8.717,0,0,0,2.813-.588c3.557-2.167,6-1.738,7.864,2.334,1.481,3.231,1.069,8.085,7.273,8.727-1.927-7.344,3.576-13.6,2.671-22.194-7.554,3.446-14.491,4.472-21.7,3.151-2.216-.407-2.985,1.486-1.7,3.817.907,1.641,1.912,3.229,2.873,4.84-5.7,3.262-12.38,1.871-19.04,3.289,1.089,1.867,1.72,3.055,2.452,4.178,1.169,1.794,1.95,3.741-1.057,4.059a39.42,39.42,0,0,1-10.25-.049c-4.272-.682-6.818.761-10.23,3.541-6.017,4.9-16.177,3.721-17.87-6.238a18.6,18.6,0,0,1-.424-5.841c1.677-10.651-2.745-19.092-9.289-26.864a12.728,12.728,0,0,1-1.314-2.709c.684-3.919,4.5-4.519,7.119-6.458,6.728-4.984,8.008-10.047,5.189-17.891-2.253-6.266-6.824-10.656-11.339-15.149a16.451,16.451,0,0,1-5.041-13.238c.259-5.1,2.894-8.208,7.122-10.208a14.15,14.15,0,0,1,5.683-1.253c14.378-.219,28.065-3.77,41.611-8.2,3.593-1.174,7.563-2.946,10.319,1.7,7.388,1.765,14.369.258,21.457-2.042C329.717,78.8,352.94,72.9,375.376,64.5c1.72-.644,3.5-2.047,6.232.041C370.3,78.594,353.342,83.676,338.14,91.466c7.549,1.761,13.788-1.235,20.263-2.972,6.58-1.765,13.182-3.354,20.536-3.226-7.643,9.463-7.643,9.463-30.351,19.838,6.5,2.651,12.6.314,18.554.713a2.462,2.462,0,0,1,1.772,1.578,3.14,3.14,0,0,1-.993,2.486c-6.9,5.115-15.082,6.83-23.257,8.453-5.178,1.028-10.414,1.767-16.526,2.786,2.79,3.646,5.707,2.729,8.173,2.9,5.853.411,11.726.54,17.577.965.555.041,1.1,1.331,1.465,2.124.1.216-.374.873-.729,1.095a25.985,25.985,0,0,1-10.865,3.988c-4.846.578-9.629,1.656-14.466,2.326-4.3.6-8.83-.423-12.933,1.744,1.127,2.961,3.824,2.288,6,2.7,4.333.818,8.655,1.933,13.028,2.225,4.048.27,7.83,5.422,12.24.847.082-.085,1.793.831,1.931,1.458,1.145,5.193,3.782,4.808,7.365,2.313,5.885-4.1,9.2-9.826,10.226-17.977,5.025,3.673,3.621,7.737,3.845,11.3.117,1.866-.328,4.3,2.258,4.608,2.211.267,3.218-1.709,4.044-3.526a8.238,8.238,0,0,1,1.2-1.425c6.463,10.56,11.208,21.341,10.379,34.085-.464,7.132-2.383,13.483-7.027,18.862-5.414,6.271-10.9,12.487-16.616,18.481-1.7,1.779-3.527,3.219-4.26,5.721-.723,2.469-2.561,3.923-4.916,5.063-13.2,6.39-24.816,15.219-36.786,23.565-4.178,2.914-10,3.654-15.2,4.858-3.673.852-4.088-3.65-6.555-4.994Zm26.722-84.224c-4.02,4.885-9.413,3.016-13.991,4.154-1.759.437-4.119.452-3.745,3.195.305,2.232,2.331,2.88,4.146,3.57,4.805,1.829,9-1.5,13.521-2.059,3.335-.411,3.856-9.094,10.538-5.337.175.1,1.43-1.083,1.655-1.826,1.122-3.7,2.111-7.448,3.057-11.2.495-1.964-1.434-4.135-3.291-3.437-8.434,3.172-17.188,2.74-25.934,2.758-1.085,0-3.21-.333-2.546,2.692Z"/><path d="M215.066,117.255c-9.849-5.338-19.727-5.986-30.929-1.482-5.805,2.335-11.375,5.62-9.869,17.484.313,2.46.158,5.035,2.275,6.688,1.069.835,2.736,1.694,3.866,1.424a3.917,3.917,0,0,0,2.153-3.166c-.205-2.372-1.182-4.676-1.824-7.013-.724-2.632-.042-5.14,2.081-6.554,6.716-4.478,13.844-7.256,22.134-4.312,7.668,2.722,9.2,5.374,7.665,14.257a9.986,9.986,0,0,0-.371,2.888,3.307,3.307,0,0,0,1.2,2.275,3.017,3.017,0,0,0,2.686-.037C225.353,132.571,225.114,122.7,215.066,117.255Z"/><path d="M179.047,110.646a30.511,30.511,0,0,0,2.933-6.666,7.546,7.546,0,0,0-5.512-9.032,73.792,73.792,0,0,0-8.76-.772c-8.293-.645-16.589-1.245-24.878-1.935-9.815-.817-19.3-3.247-28.715-6-1.869-.546-5.206-.938-5.182.734.108,7.6-5.19,4.745-8.176,4.117C90.734,88.983,80.5,87.112,71,83.45,56.291,77.776,40.54,76.37,25.784,71.141c-.625-.221-1.609.572-3.252,1.217,9.047,12.117,23.309,15.853,35.415,22.991a5.579,5.579,0,0,1-5.723,1.1C43.749,94.107,35.292,91.7,26.8,89.413c-1.671-.45-3.943-1.576-4.738.931-.306.965.783,2.882,1.784,3.665,4.23,3.307,8.63,6.4,13.051,9.455,1.178.813,1.447,1.331.376,2.17-2.03,2.346-5.727-.6-7.59,2.383,2.436,7.474,9.867,9.013,15.283,12.94,5.553,4.026,13.777,1.3,18.759,7.653-4.905,1.769-9.719-.153-14.424.345-1.706.18-4.327-.773-4.537,1.983-.171,2.238,2.2,2.973,3.878,3.816,8.483,4.271,17.626,5.72,27,6.205,2.521.131,5.42-.776,7.566,1.769-7.688,6.3-17.55,1.1-25.7,5.731,6.4,5.9,14.244,7.61,21.205,11.019,3.467,1.7,2.344,3.646-.293,5.008-2.359,1.219-2.816,2.489-.4,3.83,2.973,1.647,6.132,4.167,9.207,4.162,5.767-.011,2.763,5.983,6.455,7.555a31.327,31.327,0,0,0,20.1,1.606c2.834-.661,5.662-2.324,8.578-1.146,9.512,3.84,19.389-.006,29,1.573a3.927,3.927,0,0,0,4.552-2.837c2.344-7.9,8.212-13.145,13.706-18.731a3.315,3.315,0,0,0-.526-5.134c-1.914-1.429-4.327-2.169-6.415-3.392-5.179-3.033-7.127-7.421-6.6-13.546.553-6.384,3.039-10.257,8.709-14.023C168.139,122.178,177.891,112.731,179.047,110.646Z"/><path d="M138.507,250.567c0,15.667-.022,31.334.02,47,.007,2.922.266,5.844.416,8.765.071,1.384.713,1.929,1.737,1.348a5.263,5.263,0,0,0,2-1.716c2.03-3.537,2.108-7.473,2.081-11.411-.079-11.744-.232-23.488-.216-35.233q.042-32.3.283-64.592c.052-5.976.974-6.732,6.867-6.561a145.744,145.744,0,0,1,16.124.93c5.293.748,8.515,4.528,8.816,9.959.784,14.164,1.192,28.286-1.6,42.385-1.9,9.567-2.24,19.442-4.132,29.011-2.272,11.493-5.174,22.884-8.345,34.168-1.7,6.064-3.7,12.208-7.668,17.337-17.022,21.985-14.517,23.131-29.52-2.266-6.878-11.643-9.672-25.482-13.253-38.72a242.191,242.191,0,0,1-7.676-85.783c.475-5.254.881-5.671,6.133-6.207,6.3-.644,12.581-.941,18.829-2.506,5.573-1.4,9,2.043,9.041,8.271.127,18.6.045,37.212.045,55.818Z"/><path class="a" d="M324.015,160.423l-16.59-7.49c-.664-3.025,1.461-2.69,2.546-2.692,8.746-.018,17.5.414,25.934-2.758,1.857-.7,3.786,1.473,3.291,3.437-.946,3.752-1.935,7.5-3.057,11.2-.225.743-1.48,1.924-1.655,1.826-6.682-3.757-7.2,4.926-10.538,5.337-4.516.556-8.716,3.888-13.521,2.059-1.815-.69-3.841-1.338-4.146-3.57-.374-2.743,1.986-2.758,3.745-3.195C314.6,163.439,320,165.308,324.015,160.423Z"/><path class="a" d="M291.867,185.54c-.961-1.611-1.966-3.2-2.873-4.84-1.288-2.331-.519-4.224,1.7-3.817,7.208,1.321,14.145.295,21.7-3.151.905,8.591-4.6,14.85-2.671,22.194-6.2-.642-5.792-5.5-7.273-8.727-1.867-4.072-4.307-4.5-7.864-2.334a8.717,8.717,0,0,1-2.813.588Z"/></svg>