<svg xmlns="http://www.w3.org/2000/svg" viewBox="0 0 400 400"><path d="M270.267,374.1c-3.994-13.081-8.465-26.03-12.028-39.225-4.472-16.562-8.04-33.314-6.6-50.726.4-4.851-.154-9.789-.373-14.682-.716-16.047-3.563-31.95-3-48.1.166-4.743-2.225-9.856-1.128-14.218,1.428-5.672,8.781-5.459,12.779-9.02,6.766-6.026,8.143-12.226,2.809-17.583a49.315,49.315,0,0,1-4.665-5.664c-1.592-2.166-6.024-13.074-6.951-17.621-1.166-5.722-3.24-11.348-9.068-14.306-6.751-3.428-12.547-10-21.53-5.92-2.643,1.2-4.784-.713-5.213-3.475a36.159,36.159,0,0,1-.388-8.769c.584-6.323-1.785-11.375-5.666-16.131-8.336-10.217-15.947-9.025-21.057,3.729-1.237,3.09-1.278,6.668-1.8,10.032s-.9,6.766-1.461,10.131c-.385,2.316-2.048,3.379-4.188,2.806-12.6-3.373-21.484,3.747-30.046,10.964-3.278,2.763-5.939,7.029-5.089,11.72,1.691,9.34-1.558,17.314-5.849,25.146a26.6,26.6,0,0,0-3.447,14.085c.156,4.107.721,8.11,4.54,10.237,8.379,4.666,8.67,12.291,8.149,20.385-1.13,17.556-2.111,35.122-3.393,52.666-.714,9.764-1.23,19.624-3.078,29.2-1.934,10.021-5.252,19.786-8.159,29.605-2.773,9.365-5.153,18.974-10.805,27.126-2.966,4.28-5.461,8.979-2.69,13.366,2.566,4.063,8.086,2.655,12.339,2.294,15.512-1.316,30.85-2.215,46.518-.138,13.586,1.8,41.151,3.106,54.788,1.76,7.362-.726,14.525-1.884,21.882-1.646a72.332,72.332,0,0,0,8.81-.007C269.875,381.7,271.693,378.768,270.267,374.1Zm-57.534-39.393c-5.121,1.919-16.34,3.68-21.712,2.658-4.793-.912-8.792-4.031-13.74-4.775-5.833-.877-9.92-4.647-10.579-10.483-.539-4.775-3.214-7.79-5.6-11.5-4.283-6.656-6.9-14.05.732-21.27,3,2.431,6.333,4.575,8.931,7.4,2.3,2.5,3.788,5.755,5.635,8.675-.562-8.722-1.645-17.164-5.123-24.467-3.807-7.99-2.365-15.172.085-22.5,1.5-4.487,3.449.216,5.436.478a18.015,18.015,0,0,0-2.632-15.28c-4.845-7.228-5.1-15.777-6.813-23.783-.8-3.746-.951-8.656,2.186-12.565,3.5-4.355,3.491-10.053,4.7-15.228.922-3.937-.453-6.726-5.205-6.709-.792,0-1.586-.861-2.557-1.429,1.3-5.492,6.112-9.753,4.784-16.489-.883-4.475,2.867-6.365,7.832-6.011,4.56.326,8.081,2.822,12.061,4.963a34.352,34.352,0,0,1,1.585-4.161c2.2-4.091,5.326-7.216,10.318-6.479,5.444.805,11.3,2.35,11.339,9.2.031,5.008,2.5,5.27,6.179,5.733,4.9.617,8.036,4,9.089,8.533,2.47,10.631,3.186,21.305-2.841,31.18-2.108,3.454-2.883,7.233-3.892,11.318,1.267.551,2.553,1.07,3.805,1.661,5.218,2.465,6.269,3.7,3.261,7.179-2.888,3.343-1.267,7.557-3.886,10.584-2.424,2.8-4.561,5.848-7.351,9.472,2.426-.191,3.841-.36,5.259-.4,6.306-.2,7.376,1.054,5.294,6.374a29.157,29.157,0,0,1-3.17,6.5c-4.993,6.912-6.494,15.225-9.4,22.957-.912,2.427-1.606,5.551,1.324,7.672a43.086,43.086,0,0,1,2.943-3.329,18.248,18.248,0,0,1,3.489-2.624c3.731-2.077,7.241-.506,7.433,3.556C232.769,308.943,230.2,328.162,212.733,334.705Z"/><path d="M45.51,332.639c-.007-.038-.016-.074-.023-.111-.044-.016-.083-.034-.128-.049Z"/><path d="M149.116,74.819c-7.358-9.983-17.567-11.709-28.2-13.209-4.553.241-10.129,2.916-11.141,3.267-3.685,1.281-3.244,1.54-6.938,2.8-6.948,2.364-14,4.542-19.532,9.769-1.847,1.746-3.739,3.794-2.636,6.329,1.933,4.438-.438,6.445-3.836,7.9-8.956,3.841-14.918,10.454-19.384,19.815,2.233,0,3.6-.13,4.94.025,3.845.444,4.89,1.7,3.469,4.164-1.467,2.545-3.136,4.974-4.7,7.464q-9.726,15.484-19.435,30.98c-2.057,3.293-4.1,6.451-5.161,10.413-3.53,13.242-6.444,26.555-8.926,40.059a201.337,201.337,0,0,0-2.147,61.343c1.9,15.418,4.148,30.86,10.782,45.367,3.193,6.984,7.8,13.449,9.215,21.223,4.225,1.479,5.685,5.329,6.362,8.98,2.224,11.987,9.354,21.321,15.637,31.221a42.509,42.509,0,0,0,17.475,15.936c-2.954-4.533-4.647-7.842-6.988-10.6C67.3,365.485,61.237,350.584,57.444,334.94c-4.124-17.011-6.39-34.466-10.228-51.557-2.519-11.218-2.076-22.362-1.571-33.6.057-1.265.046-2.977,1.852-3.282,2.242-.379,2.291,1.613,2.317,2.844.443,20.691,5.827,40.561,10.09,60.6,2.277,10.7,8.12,19.641,16.063,29.6-.9-4.595-1.276-7.292-1.959-9.909-6.961-26.657-11.109-53.624-9.366-81.288.246-3.905-.057-7.842.057-11.759.143-4.887.375-9.774.731-14.649a4.244,4.244,0,0,1,3.526-4.057c.366-.021.331.156.438.493.713,4.305,2.2,8.643,1.981,12.893-.638,12.383,2.108,24.354,4.4,36.258,1.535,7.976,5.526,15.553,9.008,23.034.979,2.1,3.092,4.77,6.793,4.243.74-3.156-1.222-5.59-2.21-8.264-1.7-4.592-4.3-9.09-4.854-13.822a379.454,379.454,0,0,1-1.947-61.62,6.451,6.451,0,0,1,.841-2.781c.4-.71,1.328-1.766,1.783-1.659.794.188,1.931,1.1,2,1.8.4,3.884.371,7.813.769,11.7,1.166,11.39,3.5,22.341,12.544,30.633-3.663-5.877-2.584-12.385-2.842-18.685a285.506,285.506,0,0,1,.906-39.64c.318-3.246,1.57-8.526,4.335-8.281,5.284.467,1.305,5.288,1.743,8.165.212,1.4-.362,2.9-.529,4.362a56.107,56.107,0,0,0,6.148,32.668,25.24,25.24,0,0,0,10.3,10.651c1.218-2.959.015-4.661-.828-6.373-3.566-7.246-4.393-14.935-4.072-22.881.218-5.389.094-10.79.251-16.182a15.614,15.614,0,0,1,.884-5.718c.468-1.063,2.184-1.648,3.446-2.2a3.6,3.6,0,0,1,1.413,2.042c.165,5.371-.02,10.755.224,16.121.454,9.942,4.872,17.648,13.473,23.2.859-4.474-.917-7.918-2.187-11.652-3.542-10.412-2.872-21.137-.593-31.694,2.643-12.24,11.641-22.533,11.089-35.862-.07-1.678,1.716-3.424,2.614-5.153,4.147-7.985,4.256-10.652-2.219-16.613-3.76-3.461-5.622-7.91-8.7-11.626-3.062-3.7-2.591-7.059.363-10.505.944-1.1,1.5-2.527,2.381-3.7,3.311-4.408,5.285-4.783,11.219-2.011,1.561.73,2.771,2.9,5.247.3C153.7,91.383,155.1,82.944,149.116,74.819Z"/><path d="M251.863,146.242c-3.574-5.03-3.19-6.025.911-10.136,3.156-3.165,6-6.343,7.724-10.543,6.425-15.645.673-27.234-16.65-32.554,1.834-10.1,9.328-16.518,15.635-23.559,3.037-3.391,7.564-4.321,12.142-4.366,11.6-.113,22.3,2.526,31.66,9.76,4.894,3.783,11.475,6.01,10.763,14.233-.22,2.539,2.579,4,4.591,5.338,2.855,1.895,6.184,3.2,8.716,5.425,3.528,3.107,10.59,5.129,4.676,12.291-1.5,1.814,1.632,2.917,2.788,4.284,5.3,6.278,11.714,11.317,15.837,18.974,7.289,13.534,11.648,27.914,14.671,42.645,4.529,22.071,7.763,44.477,6.069,67.077-1.172,15.632-2.356,31.244-2.872,46.911a25.991,25.991,0,0,1-1.52,7.124c-3.06,9.286-6.089,18.588-9.452,27.766a85.132,85.132,0,0,1-16.38,27.621c-6.5,7.3-12.64,14.908-19.233,22.112a22.993,22.993,0,0,1-17.633,7.853c10.246-9.261,16.841-19.735,21.662-31.7,3.79-9.405,10.511-17.439,13.805-27.245,4.665-13.888,8.947-27.834,10.324-42.5a7.314,7.314,0,0,0-.14-2.909,3.49,3.49,0,0,0-1.635-2.049c-2.059-.769-2.542,1.1-2.687,2.361-.9,7.855-3.612,15.21-6.185,22.579a95.431,95.431,0,0,1-13.584,25.888,33.528,33.528,0,0,1-6.387,6.034c-1.051.819-2.936,1.555-3.99,1.15-1.5-.575-1.265-2.566-.569-3.851,3.526-6.517,4.66-13.946,7.528-20.577,6.693-15.476,7.939-32.173,12.141-48.179,1.452-5.533.615-11.69.659-17.563.066-8.827.022-17.655-.064-26.483a13.109,13.109,0,0,0-.806-4.271c-.226-.622-1.39-1.468-1.833-1.321-.788.261-1.883,1.163-1.932,1.861-.858,12.3-4.8,23.887-7.822,35.708-2.448,9.567-6.944,17.912-12.26,25.823-3.864-.344-2.589-2.939-2.294-4.31,3.636-16.87,2.1-34.162,4.24-51.2,1.183-9.419-1.688-19.348-2.753-29.045-.145-1.317-.883-1.863-1.878-1.357-.821.418-2.047.982-2.176,1.657a81.753,81.753,0,0,0-1.68,11.556c-.5,10.892-3.589,21.138-7,31.375-1.868,5.609-5.417,8.632-11.334,9.437.052-7.062,4.886-12.685,4.488-19.852-.567-10.185.116-20.436.081-30.659,0-1.2-.346-3-3.105-3.27-2.026,15,1.987,32.311-14,43.482a29.12,29.12,0,0,1,.68-13.654c.665-2.532-.027-4.793-.955-7.107-.451-1.127-.993-1.874-2.05-1.508a3.233,3.233,0,0,0-1.938,1.528c-1.176,3.677-2.15,7.419-3.183,11.105-4.653-6.4-4.771-6.874-4.67-11.741.095-4.543,1.014-9.159,3.915-12.384,4.322-4.806,5.079-10.467,5.752-16.262.465-4.007-.1-7.918-4.292-10.09C262.913,173.159,256.636,152.958,251.863,146.242Z"/><path d="M197.282,330.564c-6.527-5.93-8.842-12.035-7.692-20.222,1.082-7.695.457-15.665.215-23.5-.532-17.147,1.714-34.1,3.14-51.119.286-3.414.145-6.862.372-10.283.331-4.958-.7-8.691-6.6-9.4-1.651-.2-4.074-.792-3.561-3.573.392-2.123,1.873-3.29,3.865-3.96a24.006,24.006,0,0,0,4.072-1.663c2.745-1.532,3.02-3.531.833-5.7a13.237,13.237,0,0,0-2.393-1.69c-5.177-3.224-5.44-9.127-6.029-13.915-.493-4.006,5.1-5.345,8.3-7.312,9.655-5.938,16.507-4.17,21.971,5.289,1.515,2.623.7,5.428-1.873,5.979-6.352,1.361-7.238,8.652-12.825,10.879-1.95.778-.3,3.35.747,5.012,2.442,3.879,6.711,3.539,10.341,4.741.732.242,1.353,1.327,1.686,2.159.644,1.611-.347,2.814-1.535,3.68a6.652,6.652,0,0,1-2.7,1.052c-3.4.6-4.938,2.187-4.512,5.972.654,5.83.948,11.718,1.042,17.588q.518,32.321.781,64.644C205.046,317.692,204.968,317.693,197.282,330.564Z"/></svg>