<svg xmlns="http://www.w3.org/2000/svg" viewBox="0 0 400 400"><defs><style>.a{fill:#fff;}</style></defs><path d="M179.732,382.011c-15.668-2.077-31.006-1.178-46.518.138-4.253.361-9.773,1.769-12.339-2.294-2.771-4.387-.276-9.086,2.69-13.366,5.652-8.152,8.032-17.761,10.805-27.126,2.907-9.82,6.226-19.584,8.159-29.605,1.848-9.577,2.364-19.437,3.078-29.2,1.282-17.544,2.263-35.11,3.393-52.666.521-8.094.23-15.719-8.149-20.385-3.818-2.127-4.384-6.13-4.54-10.237a26.59,26.59,0,0,1,3.447-14.085c4.291-7.832,7.54-15.806,5.849-25.146-.85-4.691,1.811-8.957,5.089-11.72,8.562-7.217,17.446-14.337,30.046-10.964,2.14.573,3.8-.49,4.188-2.806.561-3.365.937-6.759,1.461-10.131s.564-6.942,1.8-10.032c5.11-12.754,12.721-13.946,21.057-3.729,3.881,4.756,6.25,9.808,5.666,16.131a36.159,36.159,0,0,0,.388,8.769c.429,2.762,2.57,4.676,5.213,3.475,8.983-4.084,14.779,2.492,21.53,5.92,5.828,2.958,7.9,8.584,9.068,14.306.927,4.547,5.359,15.455,6.951,17.621a49.315,49.315,0,0,0,4.665,5.664c5.334,5.357,3.957,11.557-2.809,17.583-4,3.561-11.351,3.348-12.779,9.02-1.1,4.362,1.294,9.475,1.128,14.218-.567,16.152,2.28,32.055,3,48.1.219,4.893.774,9.831.373,14.682-1.44,17.412,2.128,34.164,6.6,50.726,3.563,13.195,8.035,26.144,12.028,39.225,1.426,4.67-.392,7.6-5.055,8.02a72.332,72.332,0,0,1-8.81.007c-7.357-.238-14.52.92-21.882,1.646C220.882,385.117,193.317,383.812,179.732,382.011Z"/><path class="a" d="M212.733,334.705c17.468-6.543,20.036-25.762,19.2-43.386-.192-4.062-3.7-5.633-7.433-3.556a18.248,18.248,0,0,0-3.489,2.624,43.086,43.086,0,0,0-2.943,3.329c-2.93-2.121-2.236-5.245-1.324-7.672,2.9-7.732,4.4-16.045,9.4-22.957a29.157,29.157,0,0,0,3.17-6.5c2.082-5.32,1.012-6.57-5.294-6.374-1.418.044-2.833.213-5.259.4,2.79-3.624,4.927-6.672,7.35-9.472,2.62-3.027,1-7.241,3.887-10.584,3.008-3.481,1.957-4.714-3.261-7.179-1.252-.591-2.538-1.11-3.805-1.661,1.009-4.085,1.784-7.864,3.892-11.318,6.027-9.875,5.311-20.549,2.841-31.18-1.053-4.531-4.192-7.916-9.089-8.533-3.676-.463-6.148-.725-6.179-5.733-.042-6.852-5.9-8.4-11.339-9.2-4.992-.737-8.119,2.388-10.318,6.479a34.352,34.352,0,0,0-1.585,4.161c-3.981-2.141-7.5-4.637-12.061-4.963-4.965-.354-8.715,1.536-7.832,6.011,1.328,6.736-3.482,11-4.784,16.489.971.568,1.765,1.432,2.557,1.429,4.752-.017,6.127,2.772,5.205,6.709-1.21,5.175-1.205,10.873-4.7,15.228-3.137,3.909-2.988,8.819-2.187,12.565,1.712,8.006,1.969,16.555,6.814,23.783a18.015,18.015,0,0,1,2.632,15.28c-1.987-.262-3.936-4.965-5.436-.478-2.45,7.328-3.892,14.51-.085,22.5,3.478,7.3,4.561,15.745,5.123,24.467-1.847-2.92-3.333-6.173-5.635-8.675-2.6-2.821-5.93-4.965-8.931-7.4-7.63,7.22-5.015,14.614-.732,21.27,2.385,3.706,5.06,6.721,5.6,11.5.659,5.836,4.746,9.606,10.579,10.483,4.949.744,8.947,3.863,13.74,4.775C196.393,338.385,207.612,336.624,212.733,334.705Z"/><path d="M45.51,332.639c-.007-.038-.016-.074-.023-.111-.044-.016-.083-.034-.128-.049Z"/><path d="M149.116,74.819c-7.358-9.983-17.567-11.709-28.2-13.209-4.553.241-10.129,2.916-11.141,3.267-3.685,1.281-3.244,1.54-6.938,2.8-6.948,2.364-14,4.542-19.532,9.769-1.847,1.746-3.739,3.794-2.636,6.329,1.933,4.438-.438,6.445-3.836,7.9-8.956,3.841-14.918,10.454-19.384,19.815,2.233,0,3.6-.13,4.94.025,3.845.444,4.89,1.7,3.469,4.164-1.467,2.545-3.136,4.974-4.7,7.464q-9.726,15.484-19.435,30.98c-2.057,3.293-4.1,6.451-5.161,10.413-3.53,13.242-6.444,26.555-8.926,40.059a201.337,201.337,0,0,0-2.147,61.343c1.9,15.418,4.148,30.86,10.782,45.367,3.193,6.984,7.8,13.449,9.215,21.223,4.225,1.479,5.685,5.329,6.362,8.98,2.224,11.987,9.354,21.321,15.637,31.221a42.509,42.509,0,0,0,17.475,15.936c-2.954-4.533-4.647-7.842-6.988-10.6C67.3,365.485,61.237,350.584,57.444,334.94c-4.124-17.011-6.39-34.466-10.228-51.557-2.519-11.218-2.076-22.362-1.571-33.6.057-1.265.046-2.977,1.852-3.282,2.242-.379,2.291,1.613,2.317,2.844.443,20.691,5.827,40.561,10.09,60.6,2.277,10.7,8.12,19.641,16.063,29.6-.9-4.595-1.276-7.292-1.959-9.909-6.961-26.657-11.109-53.624-9.366-81.288.246-3.905-.057-7.842.057-11.759.143-4.887.375-9.774.731-14.649a4.244,4.244,0,0,1,3.526-4.057c.366-.021.331.156.438.493.713,4.305,2.2,8.643,1.981,12.893-.638,12.383,2.108,24.354,4.4,36.258,1.535,7.976,5.526,15.553,9.008,23.034.979,2.1,3.092,4.77,6.793,4.243.74-3.156-1.222-5.59-2.21-8.264-1.7-4.592-4.3-9.09-4.854-13.822a379.454,379.454,0,0,1-1.947-61.62,6.451,6.451,0,0,1,.841-2.781c.4-.71,1.328-1.766,1.783-1.659.794.188,1.931,1.1,2,1.8.4,3.884.371,7.813.769,11.7,1.166,11.39,3.5,22.341,12.544,30.633-3.663-5.877-2.584-12.385-2.842-18.685a285.506,285.506,0,0,1,.906-39.64c.318-3.246,1.57-8.526,4.335-8.281,5.284.467,1.305,5.288,1.743,8.165.212,1.4-.362,2.9-.529,4.362a56.107,56.107,0,0,0,6.148,32.668,25.24,25.24,0,0,0,10.3,10.651c1.218-2.959.015-4.661-.828-6.373-3.566-7.246-4.393-14.935-4.072-22.881.218-5.389.094-10.79.251-16.182a15.614,15.614,0,0,1,.884-5.718c.468-1.063,2.184-1.648,3.446-2.2a3.6,3.6,0,0,1,1.413,2.042c.165,5.371-.02,10.755.224,16.121.454,9.942,4.872,17.648,13.473,23.2.859-4.474-.917-7.918-2.187-11.652-3.542-10.412-2.872-21.137-.593-31.694,2.643-12.24,11.641-22.533,11.089-35.862-.07-1.678,1.716-3.424,2.614-5.153,4.147-7.985,4.256-10.652-2.219-16.613-3.76-3.461-5.622-7.91-8.7-11.626-3.062-3.7-2.591-7.059.363-10.505.944-1.1,1.5-2.527,2.381-3.7,3.311-4.408,5.285-4.783,11.219-2.011,1.561.73,2.771,2.9,5.247.3C153.7,91.383,155.1,82.944,149.116,74.819Z"/><path d="M251.863,146.242c-3.574-5.03-3.19-6.025.911-10.136,3.156-3.165,6-6.343,7.724-10.543,6.425-15.645.673-27.234-16.65-32.554,1.834-10.1,9.328-16.518,15.635-23.559,3.037-3.391,7.564-4.321,12.142-4.366,11.6-.113,22.3,2.526,31.66,9.76,4.894,3.783,11.475,6.01,10.763,14.233-.22,2.539,2.579,4,4.591,5.338,2.855,1.895,6.184,3.2,8.716,5.425,3.528,3.107,10.59,5.129,4.676,12.291-1.5,1.814,1.632,2.917,2.788,4.284,5.3,6.278,11.714,11.317,15.837,18.974,7.289,13.534,11.648,27.914,14.671,42.645,4.529,22.071,7.763,44.477,6.069,67.077-1.172,15.632-2.356,31.244-2.872,46.911a25.991,25.991,0,0,1-1.52,7.124c-3.06,9.286-6.089,18.588-9.452,27.766a85.132,85.132,0,0,1-16.38,27.621c-6.5,7.3-12.64,14.908-19.233,22.112a22.993,22.993,0,0,1-17.633,7.853c10.246-9.261,16.841-19.735,21.662-31.7,3.79-9.405,10.511-17.439,13.805-27.245,4.665-13.888,8.947-27.834,10.324-42.5a7.314,7.314,0,0,0-.14-2.909,3.49,3.49,0,0,0-1.635-2.049c-2.059-.769-2.542,1.1-2.687,2.361-.9,7.855-3.612,15.21-6.185,22.579a95.431,95.431,0,0,1-13.584,25.888,33.528,33.528,0,0,1-6.387,6.034c-1.051.819-2.936,1.555-3.99,1.15-1.5-.575-1.265-2.566-.569-3.851,3.526-6.517,4.66-13.946,7.528-20.577,6.693-15.476,7.939-32.173,12.141-48.179,1.452-5.533.615-11.69.659-17.563.066-8.827.022-17.655-.064-26.483a13.109,13.109,0,0,0-.806-4.271c-.226-.622-1.39-1.468-1.833-1.321-.788.261-1.883,1.163-1.932,1.861-.858,12.3-4.8,23.887-7.822,35.708-2.448,9.567-6.944,17.912-12.26,25.823-3.864-.344-2.589-2.939-2.294-4.31,3.636-16.87,2.1-34.162,4.24-51.2,1.183-9.419-1.688-19.348-2.753-29.045-.145-1.317-.883-1.863-1.878-1.357-.821.418-2.047.982-2.176,1.657a81.753,81.753,0,0,0-1.68,11.556c-.5,10.892-3.589,21.138-7,31.375-1.868,5.609-5.417,8.632-11.334,9.437.052-7.062,4.886-12.685,4.488-19.852-.567-10.185.116-20.436.081-30.659,0-1.2-.346-3-3.105-3.27-2.026,15,1.987,32.311-14,43.482a29.12,29.12,0,0,1,.68-13.654c.665-2.532-.027-4.793-.955-7.107-.451-1.127-.993-1.874-2.05-1.508a3.233,3.233,0,0,0-1.938,1.528c-1.176,3.677-2.15,7.419-3.183,11.105-4.653-6.4-4.771-6.874-4.67-11.741.095-4.543,1.014-9.159,3.915-12.384,4.322-4.806,5.079-10.467,5.752-16.262.465-4.007-.1-7.918-4.292-10.09C262.913,173.159,256.636,152.958,251.863,146.242Z"/><path d="M197.282,330.564c-6.527-5.93-8.842-12.035-7.692-20.222,1.082-7.695.457-15.665.215-23.5-.532-17.147,1.714-34.1,3.14-51.119.286-3.414.145-6.862.372-10.283.331-4.958-.7-8.691-6.6-9.4-1.651-.2-4.074-.792-3.561-3.573.392-2.123,1.873-3.29,3.865-3.96a24.006,24.006,0,0,0,4.072-1.663c2.745-1.532,3.02-3.531.833-5.7a13.237,13.237,0,0,0-2.393-1.69c-5.177-3.224-5.44-9.127-6.029-13.915-.493-4.006,5.1-5.345,8.3-7.312,9.655-5.938,16.507-4.17,21.971,5.289,1.515,2.623.7,5.428-1.873,5.979-6.352,1.361-7.238,8.652-12.825,10.879-1.95.778-.3,3.35.747,5.012,2.442,3.879,6.711,3.539,10.341,4.741.732.242,1.353,1.327,1.686,2.159.644,1.611-.347,2.814-1.535,3.68a6.652,6.652,0,0,1-2.7,1.052c-3.4.6-4.938,2.187-4.512,5.972.654,5.83.948,11.718,1.042,17.588q.518,32.321.781,64.644C205.046,317.692,204.968,317.693,197.282,330.564Z"/></svg>