<svg xmlns="http://www.w3.org/2000/svg" viewBox="0 0 400 400"><path d="M326.085,168.918c.5,4.139-3.69,10,4.313,11.489.592.11,1.063,2.508,1.068,3.844.014,4.639,1.039,7.892,6.788,6.206,2.239-.657,3.6.718,4.76,2.361,1.305,1.844,2.9,2.236,4.965,1.2,2.053-1.024,4.287-3.042,6.437-.488,2.479,2.947,5.405,5.9,4.845,10.206a6.588,6.588,0,0,1-2.411,3.515c-4.973,4.241-12.635,1.729-17.449,6.743-.274.286-2.325-1.007-3.467-1.7-4.369-2.649-8.921-3.826-13.975-2.182a7.781,7.781,0,0,0-4.6,3.267c-.845,1.34.4,4.47-2.26,3.885-1.327-.292-2.416-2.829-3.122-4.552-1.886-4.608-.722-8.641,3-11.892,1.456-1.272,3.067-2.367,4.9-3.767-.938-1.73-1.52-3.762-2.831-5.06a76.1,76.1,0,0,1-17.315-25.208c-2.507-6.08-7.579-10.083-12.671-13.984-8.9-6.816-9.617-9.582-5.294-19.792,1.127-2.66,3.352-4.909,2.94-8.123l-.312.311c3.756-2.022,3.76-3.024.023-6.236l.267.346c-.136-3.993-2.209-6.049-6.2-6.192l.314.3c-7.432-7.232-16.668-6.508-25.825-5.608-1.732.17-4.242,1.419-4.82,2.818-2.953,7.157-9.048,12.7-10.566,20.517-1.552,7.989-3.975,15.567,1.769,23.68,3.721,5.256,3.808,12.936,9.4,17.625,1.427,1.195,2.4.849,3.574-.052l-.279-.257c-.236.422-.787,1.014-.664,1.242,3.586,6.65,2.936,14.927,7.9,20.986,2.276,2.776,3.936,5.877,3.28,9.255-1.229,6.337-.086,12.344.855,18.537.514,3.383-3.044,2.729-5.3,2.925-.5-1.6-1.178-2.994-3.252-2.725,1.666-5.119-2.961-6.351-5.5-8.852-2.88-2.837-6.022-4.761-11.084-1.917,6.463,2.815,10.185,8.761,16.817,10.526.313,1.844,1.1,3.118,3.277,2.7,1.657,7.475,4.648,14.918.567,22.533-1.526,2.846.172,5.757-.2,8.612-.929,7.165-.8,14.8-8.457,19.012-3.416,1.878-3.324,5.807-4.755,8.8-2.254,4.724-4.513,8.637-10.848,6.052-1.121-.458-2.873.195-4.148.756-.527.232-.857,2.28-.783,2.31,9.353,3.868,12.917,12.587,16.729,20.729,2.894,6.18,6.691,9.467,13.569,8.248,4.432-.785,7.543,1.194,10.183,4.359,2.3,2.755,4.634,3.053,7.351.523,2.433-2.265,5.817-2.9,7.973-.67,7.391,7.655,18.349,13.92,12.7,27.631-2.213.625-3.519-.6-4.631-2.354-1.181-1.863-3.372-2.92-4.9-1.611-3.749,3.208-7.012,5.095-11.231.7-.944-.984-2.874.19-3.537,1.517-1.823,3.648-.472,8.992-6.09,10.949-.362-1.422-.583-2.74-1.032-3.976-1.482-4.084,3.1-8.92-1.2-12.443-3.25-2.662-7.541-1.184-11.355-1.577-3.56-.368-4.718-2.72-5.814-5.621-1.157-3.064-.282-4.428,2.819-4.908.787-.122,1.475-.884,3.074-1.9-3.981-1.215-7.356-2.4-10.812-3.26-4.524-1.124-6.529-.183-8.173,3.7-.755,1.784-.994,3.783-1.72,5.583-3.123,7.736-6.908,8.313-12.741,2.707-3.465-3.331-5.192-8.361-10.075-10.259l.209.325c-.746-5.319-1.064-10.742-2.332-15.933-2.2-9-4.708-17.941-7.616-26.733-2.185-6.608-1.9-12.42,2.758-17.81,1.6-1.848,2.959-3.9,4.46-5.83,2.605-3.353,2.878-6.973,1.2-11.227a36.294,36.294,0,0,0-1.893,4.153c-1.544,5.014-4.828,7.655-9.7,9.936-9,4.214-17.809,3.7-27.154,2.293-14-2.113-14.049-1.8-23.375-9-1.056,6.325-.763,7.629,1.466,13.56,1.585,4.219,2.261,8.53-1.392,12.284A49.1,49.1,0,0,0,139.343,299c-3.97,7.635-13.266,8.824-19.5,13.914a3.3,3.3,0,0,1-2.838-.09c-8.857-4.453-17.173-.206-25.417,1.9-8.157,2.089-16.245,3.291-24.577,2.366-4.064-.452-5.942-2.9-5.941-6.945a25.689,25.689,0,0,1,.246-4.381c1.169-6.738,3.181-8.368,11-8.362,2.5,0,4.928.434,6.572-1.951a4.409,4.409,0,0,0,1.006-2.6c-.069-.6-1.344-1.652-1.827-1.526-3.779.982-7.39,1.914-11.487,1.257-10.759-1.727-11.08-1.315-13.019,9.348-.349,1.922-1.326,3.888-1.109,5.728,1.267,10.729,3.209,17.594,17.246,16.218,7.294-.715,14.7-1.528,21.72-3.486,9.373-2.614,18.313-1.849,27.409.689,3.169.885,6.22,3.187,9.781,1.3l-.248-.3c-1.1,3.233.6,3.7,3.221,3.263l-.3-.3c-.545,2.71-.062,4.386,3.243,3.222l-.32-.331c-.212.922-.923,2.174-.563,2.717,8.7,13.157,3.3,25.276-2.48,37.462-1.657,3.493-4.612,5.1-7.888,6.035-4.446,1.275-6.513,3.457-5.836,8.408.5,3.636-2.644,5.317-5.619,5.293a31.164,31.164,0,0,1-11.521-1.864c-5.772-2.4-12.26-3.785-16.517-9.045,1.3-6.96,7.14-10.2,11.857-14.323,3.678-3.214,7.474-6.3,11.286-9.353,2.836-2.273,4.944-1.647,6.644,1.812,2.316,4.712,4.663,6.416,6.808,4.941,2.675-1.839,3.676-5.928,2.425-9.177a13.506,13.506,0,0,0-5.574-6.644,24.72,24.72,0,0,0-13.841-4.222c-10.849.277-21.355,1.963-31.073,7.191-3.817,2.053-7.279,4.983-12.146,4.517-3.15-.3-5.431-.8-6.351-4.536-.681-2.765.586-7.373-4.731-7.359l.222.231c.989-1.03,2.1-2.014,1.228-3.67-6.3-12.011-15.5-12.967-24.492-10.008-1.38.454-2.593,1.393-3.954,1.931-2.1.831-4.379.124-4.934-1.737-4.627-15.5-9.442-30.987-3.584-47.363,1.564-4.371,7.468-9.474-.836-13.5a10.093,10.093,0,0,1,1.338-3.442c2.5-3.46,6.922-3.37,10.246-5.318,3.929-2.3,4.279-5.96,1.011-9.481-.994-1.071-2.335-1.831-3.277-2.938a4.141,4.141,0,0,1-.854-2.563c.038-2.114,1.934-2.023,3.232-2.042,4.406-.065,8.816.181,13.224.161,1.876-.008,3.972.16,5.213-1.763,1.395-2.162-.121-3.593-1.4-5.075a20.8,20.8,0,0,1-2.729-3.449,2.8,2.8,0,0,1,.123-2.551,3.219,3.219,0,0,1,2.577-.908c3.37.577,6.674,1.55,10.048,2.092,3.228.517,5.647-.839,7.2-3.811.962-1.835,1.683-3.623-.333-5.074-1.977-1.422-4.367-2.33-6.164-3.926-1.86-1.652-.858-3.477.809-4.831a12.148,12.148,0,0,1,8.218-2.6c2.927.065,5.958.625,8.748.041a13.383,13.383,0,0,0,6.17-3.648c2.291-2.264-.493-4.384-.948-6.592-.279-1.355-.508-2.721-.75-4.029,4.306-2.047,7.8,0,11.408,1.5,2.379.993,4.8.989,6.873-.784,1.488-1.272,3.034-2.871,1.719-4.9s-3.222-3.667-4.775-5.554c-1.116-1.356-.713-2.529.8-3.3,2.6-1.332,5.088-2.792,8.291-1.492,2.7,1.1,5.772,1.34,8.366,2.6,4.116,2,7.673.237,11.328-1,1.3-.437,2.687-1.453,1.822-3.23-.377-.774-1.2-1.755-1.927-1.861-2.829-.409-5.851.254-8.724-1.98,3-4.9,6.2-9.735,8.969-14.81,2.033-3.729-.161-8.053-4.2-9.418a6.737,6.737,0,0,0-6.81,1.57c-6.279,5.413-13.118,10.257-17.805,17.354-.614.93-2.526,1.472-3.786,1.392-1.788-.114-1.68-1.968-1.861-3.35-1.21-9.2,2.1-17.381,5.892-25.409,1.249-2.645,2.975-5.06,4.355-7.648a2.841,2.841,0,0,0-2.69-4.006,16.492,16.492,0,0,0-5.582,1.138c-14.31,7.191-26.7,16.369-32.631,32.132a17.589,17.589,0,0,1-3.238,4.8c-.188.224-2.1-.358-2.267-.871a15.347,15.347,0,0,1-1.007-5.662c.775-9.837,2.588-19.429,7.968-27.965,3.91-6.2,7.912-12.349,11.806-18.562.762-1.215,1.358-2.884-.111-3.818a5.393,5.393,0,0,0-4.047-.8C50.5,114.277,41.58,122.847,35.331,133.458c-5.922,10.055-10.114,21.083-10.178,33.295-.038,7.224-.131,14.63-3.92,23.053-1.571-4.592-3.3-7.841-3.739-11.255-1.567-12.159-2.47-24.392-.556-36.609,2.348-14.992,9.319-27.706,19.652-38.655,2.349-2.49,5.037-4.659,7.4-7.133,2.328-2.433,7.03-5.809,5.281-8-3.175-3.974-6.735.466-9.948,2.437a54.708,54.708,0,0,1-7.883,3.835,2.609,2.609,0,0,1-2.414-.748,2.885,2.885,0,0,1,.042-2.657c9.9-13.182,21.644-24,38.408-27.413,8.24-1.68,16.633-.411,24.9.592,22.371,2.714,44.812,4.64,67.342,4.538,10.233-.046,20.305-3.228,30.672-2.626,2.93.17,5.879,0,8.813.135,3.252.153,5.786,1.6,6.1,5.073.549,6.037,7.807,8.955,6.9,15.713-.717,5.32-.846,10.72-1.214,16.087a8.756,8.756,0,0,0,.14,1.461L203.4,107.97c-2.195-3.245.05-5.785.6-8.513.488-2.415.8-5.008-2.312-5.986-2.751-.866-4.7.937-6.288,2.724a14.124,14.124,0,0,0-2.873,5.017,11.964,11.964,0,0,1-9.1,8.571c-6.082,1.4-8.857,5.49-10.583,10.881-.892,2.784-1.818,5.562-2.842,8.3-6.4,17.109-2.1,31.353,11.484,43.136.464,1.562.009,4.151,3.1,2.772-.859,1.106-1.323,2.269-.369,3.546.781,1.044,1.686,2.435,3.067,1.368.4-.308-.178-2.275-.715-3.258-.361-.659-1.442-.925-2.2-1.365-.411-1.641-.816-3.288-3.132-2.807-.1-4.391-.631-8.83-.155-13.159.347-3.151-.606-8.306,3.275-8.866,4.912-.708,5.056,4.49,5.959,8.089a14.818,14.818,0,0,0,1.048,2.729c2.669,5.585,7.153,6.25,11.6,1.7,1.621-1.658,2.029-5.467,4.614-4.95,3.506.7,2.941,4.515,3.229,7.373.392,3.893.708,7.8,1.232,11.673.391,2.9,2.021,3.654,5.083,3.483,4.494-.251,4.5.152,4.341,5.626-.026.887-.181,2.141.309,2.6a2.352,2.352,0,0,0,3.679-.195c.639-.741,1.379-1.4,1.989-2.158,1.99-2.478,7-2.548,6.183-7.2-.965-5.519-5.737-4.137-9.358-4.709-1.246-.2-1.753-.794-1.2-3.325a85.756,85.756,0,0,0,4.011-7.844c1.056-2.581-1.957-6.013-4.863-5.676-1.389.161-2.691.981-4.058,1.427-3.8,1.241-5,.285-5.225-3.357-.19-3.1.769-5.634,2.085-8.348a104.544,104.544,0,0,0,4.69-12.132c.672-1.982-1.538-4.122-3.339-3.332-1.777.78-3.336,2.043-5.091,2.885-1.156.555-2.735,2.065-3.645-.008a6.854,6.854,0,0,1,.043-4.108c1.164-4.548,4.61-7.358,8.062-10.162,2.629-2.135,5.2-4.347,7.673-6.662,1.052-.987-.559-4.251-2.046-4.752-2.058-.694-3.732.436-5.591.793-4.624.889-4.645.782-4.9-5.453,5.053-6.593,12.094-9.386,20.022-10.521,1.464-.21,3.086-.75,3.14-2.41a4.007,4.007,0,0,0-3.346-4.139c-1.893-.432-3.908-.343-5.789-.808a2.467,2.467,0,0,1-1.391-1.992,3.512,3.512,0,0,1,1.714-2.221,18.281,18.281,0,0,1,12.772-1.782c4.674,1.126,9.415,1.977,14.585,3.042,1.076-8.74-2.684-13.473-11.038-15.511,6.6-3.162,11.5-1.509,16.077,1.635,2.006,1.377,3.547,3.471,5.617,4.7,2.836,1.691,4.595,7.117,8.009,5.2,4.222-2.37,1.643-6.918-.024-10.374-.559-1.158-.864-1.865.433-2.352a4.427,4.427,0,0,1,2.72-.326,10.222,10.222,0,0,1,6.759,7.2c1.167,4.241,2.042,8.562,3.225,12.8.369,1.32,1.032,3.007,2.953,2.555a10.885,10.885,0,0,0,3.829-1.717c3.587-2.608,1.106-7.427,3.593-10.506,4.225,2.172,4.116,6.261,4.948,10.09,1.01,4.656,4.4,6.533,8.71,5.111,5.669-1.873,10.31-5.412,14.909-9.178,11.472-9.4,20.514-20.927,29.669-32.417,2.026-2.543,2.933-6.34,6.792-7.2,2.341,1.279,1.352,3.247.965,4.949a60.48,60.48,0,0,1-14.768,28.281c-3.988,4.3-7.824,8.74-11.612,13.216a2.344,2.344,0,0,0,.185,2.311,2.832,2.832,0,0,0,2.561.4,31.062,31.062,0,0,0,5.923-4.178c11.344-10.834,22.665-21.7,30.746-35.386.9-1.523,1.6-3.719,4.985-3.433.641,11.706-3.615,21.379-11.453,29.913-7.29,7.937-14.326,16.108-21.48,24.171-2.156,2.429-2.808,4.447-.35,7.55,6.144,7.757,5.949,7.953-2.329,14.411-1.815,1.416-2.716,2.939-.508,4.453,2.371,1.626,4.5,4,7.667,4,6.182,0,11.364,2.815,16.386,5.861,2.621,1.591,5.315,2,8.225,2.566,9.539,1.839,14.178,8.505,12.339,18.064-2.012,10.46-8.21,18.674-15.709,25.935-.522.5-2.42.609-2.643.253-5.466-8.74-8.194,1.687-12.353,1.71l-2.478-2.525c-.517-2.095.084-5.272-3.712-4.405-1.313.3-2.435,1.41-3.661,2.122-2.876,1.672-4.506.847-4.115-2.484.414-3.525-.527-5.839-4.376-5.158-4.122.729-4.3-1.023-4.683-4.52-.566-5.215-1.223-5.187-7.7-2.1-1.708-3.28.739-9.142-4.126-10-5.581-.981-3.838-8.033-8.8-8.684-3.467-.456-5.051-6.227-9.891-3.549,7.14,5.752,11.459,13.41,16.5,20.473C321.4,170.122,323.853,168.631,326.085,168.918Zm-13.952-54.981c1.564,5.709,3.418,9.077,6.059,11.893a5.348,5.348,0,0,0,6.648,1.148c1.172-.619,2.707-1.972,2.736-3.029.055-2-1.749-3.234-3.518-4.114C320.617,118.121,317.168,116.425,312.133,113.937ZM144.847,256.872c.449-4.347-2.8-5.7-4.867-6.765-5.095-2.612-11.008-3.355-16-6.5-1.579-1,.651-.151-.844,1.089-.463.385-.467,2.335-.105,2.537a53.111,53.111,0,0,0,7.825,3.7c2.251.808,4.819.789,7,1.712C140.239,253.646,142.34,255.316,144.847,256.872Zm-55.98-29.434c2.819.4,4.6-1.294,6.176-3.143a3.5,3.5,0,0,0,.8-2.636,2.4,2.4,0,0,0-3.252-1.763,24.265,24.265,0,0,0-5.221,2.409,2.519,2.519,0,0,0-.805,3.688C87.031,226.692,88.107,226.985,88.867,227.438ZM90.758,98.723a18.375,18.375,0,0,0-3.121-1.914c-3.225-1.287-5.227,1.141-7.373,2.826-.26.2.023,1.632.467,2.113,2.666,2.893,5.961,3.118,8.606.57C89.917,101.759,90.008,100.694,90.758,98.723Zm106.06-18.746c-.851-1-1.625-2.73-2.63-2.876-1.044-.152-2.693.964-3.393,1.992-1.181,1.731-.648,3.821.349,5.542a2.552,2.552,0,0,0,4.474-.206A24.634,24.634,0,0,0,196.818,79.977Zm41.86,240.263c-.078-2.306-3.283-5.65-5.548-5.706a1.328,1.328,0,0,0-.944.657c-1.364,2.625.041,4.47,1.891,6.083,1.237,1.079,2.619.766,3.886-.034C238.284,321.037,238.444,320.58,238.678,320.24ZM64.293,248.772c1.386-.127,2.313-.193,3.235-.3A2.935,2.935,0,0,0,70.17,245.7c.1-.779-.268-2.178-.777-2.371a7.945,7.945,0,0,0-3.895-.38c-.8.125-1.556.992-2.2,1.655s-1.694,1.99-1.555,2.15A14,14,0,0,0,64.293,248.772Zm293.65-97.209a4.9,4.9,0,0,0-6.561-3.2c-1.236.429-2.341,1.624-1.458,3.286,1.236,2.327,3.2,3.531,5.82,3.026A2.434,2.434,0,0,0,357.943,151.563Zm-220.092,3.4c-1.429.7-2.117,1.807-1.265,3.231a4.685,4.685,0,0,0,2.152,1.7c1.261.528,2.9,1.141,3.8-.289,1.364-2.165-.479-3.325-2.019-4.236A7.357,7.357,0,0,0,137.851,154.963Zm73.217,59.182c-.261-2.007-1.055-3.663-3.307-3.951-1.794-.23-4.034-.5-4.195,2-.061.95,1.455,2.29,2.553,2.961A3.472,3.472,0,0,0,211.068,214.145Zm-18.1-1.189c-.317-.8-.406-1.947-.993-2.325-1.71-1.1-3.623-.771-5.481-.133-1.074.37-1.612,1.489-.661,2.126a14.938,14.938,0,0,0,5.2,1.927C191.542,214.659,192.314,213.524,192.969,212.956Zm-62.511-79.134c0-.561.2-1.209-.034-1.51-1.364-1.729-5.592-2.278-6.574-.9a1.265,1.265,0,0,0-.1,1.147c1.481,2.041,3.36,3.244,5.978,2.311C130.074,134.749,130.25,134.136,130.458,133.822ZM110.1,98.227c-.6.34-1.289.51-1.343.8-.138.746-.311,1.863.092,2.255a9.855,9.855,0,0,0,3.475,2.246,2.761,2.761,0,0,0,2.414-.82,1.992,1.992,0,0,0-.821-3.324A29.576,29.576,0,0,0,110.1,98.227Zm81.634,83.089c-.731.785-1.749,1.53-1.633,1.815.533,1.318,1.236,2.807,3,2.644.547-.05,1.5-1.317,1.45-1.379C193.7,183.315,192.71,182.335,191.736,181.316ZM331.1,93.98c-.293-.153-.686-.523-.908-.439-.388.147-1.006.723-.945.857.523,1.162,1.229,1.341,1.831.525C331.231,94.718,331.1,94.308,331.1,93.98Z"/><path d="M281.558,283.932c6.838-5.575,14.8-15.621,17.46-22.026,2.5-6.03,2.5-5.97,9.214-5.863,6.922.111,13.145-2.617,19.154-5.517,3.31-1.6,4.243-5.263,3.965-8.9-.419-5.469,1.769-9.237,6.48-12.122,2.391-1.465,4.285-3.958,5.983-6.292,3.107-4.268,7.269-4.564,11.806-3.614,2.5.522,4.8,1.993,5.291,4.513.735,3.778-2.729,2.875-4.754,3.579-2.708.941-4.085,2.954-2.747,5.62,1.849,3.683,2.132,7.47,1.506,12.1,5.029.165,9.757.414,14.486.45,5.132.04,8.286,2.559,9.609,7.374.757,2.755,2.737,5.249,1.914,8.367-.42.25-.862.747-1.26.715-7.59-.615-12.054,9.044-21.309,5.343-6.4-2.56-13.756,2-21.432,2.1,5.557,5.548,11.731,2.1,17.24,3.093,2.367.425,4.89-.09,7.307.158,2.553.261,5.015,1.588,5.814,3.951,3.309,9.78,5.925,19.659-.889,29.312-3.735-.718-2.239-3.619-2.809-5.467-.8-2.579-2.241-4.237-5.09-4.332-4.848-.163-9.543-1.92-14.551-.876a20.873,20.873,0,0,1-8.755.039,20.6,20.6,0,0,0-14.1,1.419,22.275,22.275,0,0,1-17.219.576c-4.8-1.818-9.394-1.7-14.355-.735-5.1,1-7.18-.93-7.66-6.03-.226-2.4-.015-4.847,0-7.272Z"/><path d="M258.084,171.95a7.019,7.019,0,0,0-6.035.186l.281.259c.647-3.339-1.845-5.324-3.336-7.751-5.26-8.558-4.547-11.38,4.455-17.324-.6-2.435-2.753-1.551-4.219-1.8-7.6-1.3-10.1-4.6-8.6-11.624,1.194-5.592,7.843-9.415,13.312-7.631.924.3,1.808.722,2.71,1.089,8.4,3.41,9.544,6.573,5.208,15.435-.963,1.967-1.619,3.353.618,4.742a23.5,23.5,0,0,1,4.734,3.4c3.214,3.37,8.187,6.691,6.741,11.68-1.184,4.087-6.832,2.514-10.386,3.774-1.131.4-1.871,1.9-2.79,2.9l.322-.247c-2.261-.117-3.407.881-3.221,3.215Z"/><path d="M281.16,219.845c4.634,0,7.587-.343,10.433.066,7.984,1.145,11.674,6.548,10.265,14.544-1.481,8.4-5.988,12.94-14.326,13.844a75.59,75.59,0,0,1-11.629.143c-6.829-.319-10.534-3.821-12.026-10.293-1.333-5.786,1.18-10.484,3.92-15.017.847-1.4,3.158-2.35,4.946-2.658A67.232,67.232,0,0,1,281.16,219.845Z"/><path d="M210.853,330.958c-1.47,5,.07,10.745-4.136,15.261-.738-.835-1.692-1.783-2.49-2.848-1.77-2.36-3.666-3.165-5.762-.49-1.2,1.532-1.931,3.539-3.368,4.74a4.428,4.428,0,0,1-3.975.194c-1.17-.594-2.655-2.287-2.541-3.344a24.7,24.7,0,0,1,2.242-6.868c1.348-3.128.883-5.589-1.933-7.668-2.519-1.859-4.491-.768-6.53.8-1.511,1.16-3.1,2.22-4.654,3.325-3.5-3.85-2.844-9.9-8.076-12l.266.306a8.8,8.8,0,0,0-7.871-5.583c-3.389-.325-6.821-.34-10.168-.891a2.725,2.725,0,0,1-2.239-3.219c.262-1.835,1.621-2.275,3-2.348,6.872-.365,13.736-.554,19.551,4.148,3.221,2.6,7.06,2.951,11.02,3.2,17.381,1.1,17.378,1.149,27.878,13.616Z"/><path d="M299.408,206.5c.821,5-1.487,8.439-4.991,11.55-2.4,2.135-4.751,3.186-7.88,1.977a63.13,63.13,0,0,0-15.45-4.107c-1.59-.187-3.331-1.979-4.364-3.476-3.324-4.816-.33-16.683,4.842-19.3a30.868,30.868,0,0,1,12.58-3.433c11.035-.548,14.245,1.923,15.244,12.515C299.526,203.669,299.408,205.142,299.408,206.5Z"/><path d="M274.867,274.3c-.964-.128-1.926-.271-2.89-.391-11.412-1.413-13.91-5.762-9.557-16.688,1.335-3.352,3.186-5.81,7.421-5.7,7.3.189,14.612-.009,21.918.017,3.585.012,5.023,1.845,4.653,5.55C295.1,270.3,285.209,273.554,274.867,274.3Z"/><path d="M260.78,169.282c4.44,1.788,8.539-1.049,12.893-.953,5.165.114,9.72,1.349,13.076,5.45,2.164,2.643,4.657,5.541,3.472,9.181-1.279,3.928-5,4.188-8.548,4.114a48,48,0,0,0-14.489,1.794c-4.047,1.167-7.721-1.44-8.48-5.816-.629-3.627-.443-7.4-.619-11.1l-.2.3c3.391,1.248,3.944-.344,3.221-3.215Z"/><path d="M157.752,327.966c1.2,6.387.485,12.34-3.916,17.477a25.849,25.849,0,0,1-1.763,2.251c-1.923,1.792-4.378,1.859-6.73,1.5-2.162-.329-3.049-2.158-3.118-4.156-.185-5.4-2.149-10.228-4.748-14.8-.595-1.046-2.154-1.544-3.27-2.294l.321.33c-.018-2.143-.976-3.341-3.243-3.222l.3.3c.074-2.219-1.455-2.857-3.221-3.263l.248.3c.658-1.183,1.02-2.92,2.024-3.456,4.96-2.647,9.787-2.165,15.067.058,5.075,2.136,7.429,7.332,12.333,9.355Z"/><path d="M281.852,283.6c-5.76,4.476-11.148,9.675-19.144,9.8a12.816,12.816,0,0,0-1.433.306c-7.056.951-13.289-1.667-13.5-5.661-.27-5.062,5.027-12.364,10.614-12.35,7.652.019,15.352,1.507,22.907,3,1.638.323.483,3.417.261,5.245C281.558,283.932,281.852,283.6,281.852,283.6Z"/><path d="M284.7,124.891c-7.567.079-15.113-3.311-22.721-.093a6.041,6.041,0,0,1-2.875,0c-4.338-.54-9.7-4.227-10.272-7.01s4.116-5.919,9.957-6.755a22.734,22.734,0,0,1,8.565.685c3.741.875,7.621,1.157,11.442,1.694l-.314-.3a7.749,7.749,0,0,0,6.2,6.192l-.268-.346q-.011,3.119-.022,6.236Z"/><path d="M169.63,322.053c-1.024,5.494,3.023,10.114,2.677,15.471-.129,2.009-.87,4.05-3.022,4.455-1.139.214-2.592-.658-3.761-1.3a8.77,8.77,0,0,1-4.652-6.979c-.293-2.269.091-5.011-3.12-5.736l.284.375c1.129-6.347,1.127-6.314,6.407-5.991,1.811.111,3.635.012,5.453.009Z"/><path d="M356.535,188.275c-.936.761-1.962,2.091-3.141.863-1.045-1.088-.32-2.394.667-3.385Q355.294,187.012,356.535,188.275Z"/><path d="M178.548,295.777c-.5,2.766.81,6.132-2.095,8.1-2.592,1.756-5.652,1.376-8.49.559-4.162-1.2-3.582-5.382-5.209-9.051-1.843,2.715-3.176,5.359-5.136,7.4-2.616,2.724-6.236,2.352-9.661,1.9-3.965-.526-5.932-4.254-3.651-7.543,3.576-5.155,7.012-10.16,8.845-16.409,1.44-4.912,5.585-7.571,11.417-7.181,8.783.587,17.608.526,26.408.912,3.341.146,5.688,2,5.324,5.574-.669,6.585.529,12.428,4.521,17.926,1.687,2.323-.612,4.753-2.763,5.864-3.569,1.843-7.489,1.862-11.439,1.047-4.212-.869-4.637-4.515-6.008-7.577-.293-.656-1.543-.884-2.349-1.31,1.187-1.361.368-2.659-.166-3.926-.763-1.807,1.325-.649-.533-1.274-.258-.087-1.009.421-1.059.73C176.205,293.367,175.692,295.411,178.548,295.777Z"/></svg>