<svg xmlns="http://www.w3.org/2000/svg" viewBox="0 0 400 400"><defs><style>.a{fill:#fafafa;}</style></defs><path d="M92.147,295.62c-8.758-2.927-15.047-8.931-19.689-16.594-17.952-29.636-20.922-60.51-7.108-92.614a106.557,106.557,0,0,1,39.872-47.8c14.689-9.69,29.756-18.8,44.5-28.409a28.811,28.811,0,0,1,12.152-4.818c8.329-1.063,14.308,2,18.233,9.322,2.758,5.144,5.252,10.432,7.8,15.685,2.366,4.873,3.587,9.878,1.76,15.861-4.751-2.6-5.571-7.38-8.42-10.529-7.163-7.916-16.418-6.714-21.273,2.926-4.715,9.36-6.158,19.683-7.294,29.789-.741,6.594,1.74,13.4,5.789,19.246,3.378,4.879,5.992,10.133,4.465,16.423l.253-.241c-1.6.186-2.89,1.13-2.905,2.633-.072,7.312-.547,14.7.367,21.909.52,4.106,3.591,7.847,5.153,11.892.408,1.056-.444,2.669-.965,3.924a4.129,4.129,0,0,1-2.538-.585c-4.036-3.533-7.893-7.27-11.942-10.786-1.662-1.444-3.442-1.531-4.479.946-.678,1.62-.229,4.506-2.586,4.325-1.544-.119-3.2-2.055-4.334-3.534a27.987,27.987,0,0,1-5.149-10.436,57.6,57.6,0,0,0-2.362-6.929c-2.964-7.666-6.9-11.354-10.636-10.058-6.522,2.264-11.7,11.087-10.158,17.618.44,1.858,1.7,3.509,2.267,5.352.785,2.544,4.145,5.638.8,7.547-1.529.872-5.634-1.305-7.671-3.113-3.614-3.21-6.462-7.265-9.772-10.835-6.278-6.772-13.927-4.969-16.234,4.23-5.247,20.923-2.476,40.62,10.354,58.407,1.7,2.355,4.032,4.272,4.558,7.341Z"/><path d="M286.647,246.78c-.854-4.413,1.764-7.624,3.017-11.161,3.048-8.606-.667-15.288-6.1-21.335-2.92-3.248-8.833-2.281-11.417,1.652-2.423,3.689-4.583,7.56-5.351,11.991-.7,4.018-2.808,7.273-5.339,10.3-1.527,1.827-3.1,2.091-4.221-.44-1.311-2.949-3.459-3.158-5.858-1.622-2.054,1.315-3.89,2.968-5.832,4.459-1.536,1.179-3.152,2.152-5.288,1.8-1.559-3.5.371-6.659,1.312-9.812,2.653-8.891,2.439-17.676-2.357-25.548-2.635-4.326-1.813-6.865.97-10.286,4.492-5.523,6.017-12.25,6.376-19.217.609-11.822-.543-23.412-4.874-34.556-1.071-2.757-2.218-5.352-4.5-7.434-2.965-2.705-6.293-3.1-9.02-.1-2.608,2.863-4.654,6.232-7.033,9.312-1.743,2.259-3.625,4.41-5.536,6.718-1.073-1.158-2.161-1.823-2.092-2.334a83.1,83.1,0,0,1,11.172-31.531c3.732-6.322,8.786-8.79,15.757-8.447,6.012.295,11.557,1.614,16.221,5.822,8.447,7.624,18.16,13.085,28.69,17.482,11,4.593,19.545,12.834,27.717,21.326,2.035,2.114,3.588,4.738,5.783,6.646,17.108,14.87,22.121,34.707,24.834,56.168a93.965,93.965,0,0,1-4.106,41.9,84.09,84.09,0,0,1-22.575,35.477,2.273,2.273,0,0,1-1.238.746,8.023,8.023,0,0,1-2.715-.418c-1.159-.424-1.075-1.212-.4-2.352a134.172,134.172,0,0,0,12.435-26.514c2.2-6.756,2.655-13.274.49-20.123-1.465-4.633-2.1-9.521-3.316-14.241a37.969,37.969,0,0,0-2.569-6.809c-1.542-3.236-3.8-5.865-7.757-5.778-3.983.087-6.1,2.552-7.084,6.256-1.663,6.239-5.114,11.611-8.605,16.916C294.064,244.984,291.157,247.305,286.647,246.78Z"/><path d="M162.94,204.107c4.553,1.537,4.838-3.7,7.735-4.913,2.041-.855,3.63-1.161,4.769.991a11.328,11.328,0,0,1,1.475,4.033c1.352,14.394,10.871,25.686,14.76,39.105a5.741,5.741,0,0,0,6.512,4.531c2.886-.228,5.746-.812,8.633-1.007,6.686-.452,9.195-4.524,9.515-10.615l.021-.027c5.442-8.786,10.313-17.731,8.76-28.677a6.077,6.077,0,0,1,.843-2.788c.753-1.8,1.679-3.775,4-3.335a5.491,5.491,0,0,1,3.45,2.363c5.133,9.58,7.3,20.647,2.2,29.728-6.727,11.984-7.162,25.2-11.4,37.539-2.437,7.1-1.666,14.489-2,21.774-.152,3.294,1.46,5.578,4.943,6.688,3.032-2.838-1.343-4.72-1.117-7.246a29.788,29.788,0,0,0-.765-7.28c-1.894-11.554,3.427-21.239,9.521-29.829,8.065-11.367,28.538-9.8,35.259,1.9,3.908,6.8,3.027,14.316,1.32,21.439-.96,4.008-5.234,5.652-9.024,6.747-4.2,1.215-8.572,1.864-12.8,3-1.089.292-2.787,1.179-1.666,2.879a2.838,2.838,0,0,0,2.537.96c5.658-2.562,11.357-2.457,17.155-.693,4.944,1.5,9.01,9.313,7.385,14.26-.142.429-.647,1.091-.938,1.069-7.244-.563-13.746,7.329-21.044,2.508a16.229,16.229,0,0,0-11.025-2.777c-2.8.267-5.64-3.482-7.807-.581-1.2,1.6-.368,4.7-.506,7.124-.08,1.415-.054,2.656-1.853,3.483-7.42,3.408-20.027,2.594-27.052-2.062a7.734,7.734,0,0,1-3.761-7.508c.838-6.727-.354-13.631,2.836-20.2,1.976-4.074.648-5.835-3.5-8.286-2.069-1.223-4.136-.413-4.187,1.737-.149,6.367-.092,12.7,1.824,18.9a36.951,36.951,0,0,1,1.643,8.585c.212,3.514-2.551,7.305-5.774,7.542-9.458.693-18.942,1.121-28.424,1.371-2.881.076-4.226-2.192-3.748-4.9,1.021-5.768,1.726-11.93,9.888-11.948,2.066,0,4.257-1.074,4.092-3.306-.578-7.828,3.326-14.858,2.628-23.064-.945-11.127-4.973-21.137-9.556-30.4-5.6-11.322-7.071-22.073-4.375-33.884.469-2.051.664-3.754-1.122-5.181Zm48.86,53.816c-.373-.328-.684-.771-1.1-.919a1.773,1.773,0,0,0-1.409.037,8.688,8.688,0,0,0-3.644,7.426c0,.357.536.872.931,1.014a2.008,2.008,0,0,0,1.367-.2C211.059,263.793,210.462,260.348,211.8,257.923Z"/><path d="M154.6,294.356c-2.883-3.868-5.584-3.239-7.848-3.792-4.678-1.142-9.815-1.232-12.186-6.673-2.716-6.232-6.237-12.3-3.773-19.476.621-1.81,2.189-3.4,2.429-5.214.449-3.386.372-6.605,3.773-8.894,4.252-2.863,8.8-4.5,13.783-3.784,10.27,1.486,18.031,7.167,23.314,15.892,1.376,2.273,1.6,5.653,1.329,8.423-.524,5.293-2.041,10.482-2.667,15.771-.564,4.764-2.077,8.32-7.1,9.856-2.31.706-4.6,2.312-4.549,5.121.132,6.828-5.229,7.388-9.753,8.788-6.38,1.975-12.894-1.118-19.449.45-3.3.789-6.378-4.6-5.43-8.494a12.1,12.1,0,0,1,13.061-9.311c2.87.3,5.649,1.433,8.519,1.8C149.868,295.059,151.782,294.588,154.6,294.356Z"/><path d="M216.339,236.232c-2.522,2.029-3.023,6.794-7.377,6.215-5.228-.695-10.931,1.406-15.636-2.135-1.873-1.411-4.11-3.393-3.811-5.965.924-7.961-2.736-14.034-7.1-20.111-3.1-4.314-1.739-6.68,3.78-7.613,1.4-.235,2.817-.314,4.438-.487a14.961,14.961,0,0,0-1.308-2.333c-3.022-3.537-9.905-.356-11.192-5.171-.866-3.239,1.735-7.341,2.52-11.112a41.755,41.755,0,0,0,.272-5.856c.125-2.041.775-3.811,2.912-4.589a3.417,3.417,0,0,1,4.6,2.4c1.631,6.775,5.929,8.134,12.072,7.037,2.372-.424,4.887.023,7.32-.159a5.811,5.811,0,0,0,5.416-4.184c.907-2.664,1.373-6.2,5.419-5.006,2.812.826,2.632,3.758,2.729,6.2.078,1.955.177,3.91.195,5.866.034,3.741,5.942,6.669,2.263,10.537-2.507,2.635-6.468,3.885-10.443,6.129,2.008.205,3.308.3,4.6.477,4.371.605,5.715,2.136,4.5,5.1a10.364,10.364,0,0,1-1.234,2.648c-5.309,6.562-6.188,14.079-4.915,22.088Z"/><path d="M94.956,293.714a15.365,15.365,0,0,1,2.151,1.659,2.373,2.373,0,0,1,.05,3.563c-.3.285-1.6-.129-2.182-.564a27.79,27.79,0,0,1-2.828-2.752Z"/><path class="a" d="M211.8,257.923c-1.338,2.425-.741,5.87-3.855,7.359a2.008,2.008,0,0,1-1.367.2c-.4-.142-.926-.657-.931-1.014a8.688,8.688,0,0,1,3.644-7.426A1.773,1.773,0,0,1,210.7,257C211.116,257.152,211.427,257.6,211.8,257.923Z"/></svg>