<svg xmlns="http://www.w3.org/2000/svg" viewBox="0 0 400 400"><defs><style>.a{fill:#fafafa;}</style></defs><path d="M266.008,142.288c-4.622-5.243-4.546-11.318-4.555-17.789a22.621,22.621,0,0,0-21.877-22.809c-4.377-.224-8.7.316-13.037-1.328-7.877-2.989-9.029-4.534-7.849-12.856.274-1.931.638-3.855.789-5.8.7-9.012-.582-16.563-11.439-19.007-4.85-.832-10.456-1.642-15.136.274-6.188,2.312-7.367,7.046-6.911,12.947.34,4.388-.119,8.842.288,13.22.571,6.149-1.819,6.528-6.162,8.158-5.244,1.967-10.544,1.7-15.959,1.392-4.386-.253-9.1-.613-12.7,2.458-8.2,7.011-16.944,13.846-14.987,26.667.821,5.377-1.118,9.758-5.873,12.4-4.716,2.619-7.116,6.924-8.271,11.642-1.577,6.44-4.712,11.441-9.292,16.247-7.762,8.147-11.393,18.117-9.421,29.611.662,3.859,1.282,7.725,2,11.573A121.533,121.533,0,0,1,107.4,241.48c-.1,1.305-.034,2.9-1.786,3.406-2.163.619-2.191-1.27-2.757-2.448-.7-1.454.117-4.42-2.912-3.472-1.017.319-2.028,2.221-2.152,3.485a21.4,21.4,0,0,0,.4,7.226c1.042,4.1,4.765,5.811,8.877,3.515,2.457-1.372,4.405-2.2,6.486-.375,4.211,3.7,8.183,1.865,12.133-.205,18.726-9.814,18-11.232,17.345-26.432a5.429,5.429,0,0,1-1.137-.773c-1.437-1.642-3.735-4.215-1.3-5.457,3.79-1.936,3.79,2.069,4.462,4.466,5.345,6.219,6.239,6.536,11.6,3.963,1.317-.632,2.6-1.347,3.868-2.067,11.448-6.485,22.457-13.743,35.232-17.718,6.4-1.992,8.117-5.9,7.151-12.582-.48-3.324-3.482-5.434-6.341-4.019-8.759,4.337-17.3,9.154-27.058,11.028-8.516,8.6-20.946,9.6-30.39,16.454-6.78-5.579-12.941-11.007-22.8-12.847,10.191-8.081,17.536-16.277,19.428-28.1.253-1.584,2.175-3.24,3.729-4.219a45.421,45.421,0,0,0,17.463-19.379c.849-1.808,2.1-3.492,4.408-2.576a4.949,4.949,0,0,1,3.284,4.529c-.285,8.278,3.542,15.161,7.294,22,2.789,5.082,6.048,9.91,7.98,16.245,5.063-2.61,7.811-6.775,12.392-8.573,10.429-4.1,20.667-8.742,30.733-13.675,5.635-2.761,11.285-5.836,11.829-13.629.2-2.9,3.314-5.757,6.39-4.514,10.04,4.057,16.378-2.782,23.492-7.287C266.3,146.462,267.515,144,266.008,142.288Z"/><path d="M229.741,203.051c.654,1.464,1.378,2.337,1.385,3.215.084,10.227,3.981,18.869,10.217,26.831,5.227,6.675,7.746,14.325,8.253,23.048.649,11.151,1.716,22.364,5.528,33.092a26.889,26.889,0,0,1,1.709,10.05c-.88,17.467.456,35.031-2.515,52.421-.815,4.776-.422,9.766-.505,14.659a10.412,10.412,0,0,0,6.627,10.44c3.568,1.6,7.118,3.239,10.688,4.834a4.068,4.068,0,0,1,2.591,4.659,4.253,4.253,0,0,1-3.142,2.526c-10.26.319-20.537,1.5-30.79-.094-10.447-1.625-13.168-5.451-10.491-15.915a30.412,30.412,0,0,0-.693-17.3c-1.817-5.71-2.589-11.317.849-16.966,1.979-3.252,1.1-6.739-2.082-9.1-4.038-3-3.572-6.6-1.638-10.38,4.186-8.195,2.772-15.1-4.6-20.667-4.154-3.136-6.038-7.573-7.142-12.38-1.744-7.6-4.739-14.894-5-22.867-.072-2.228-1.582-4.516-2.79-6.566a2.146,2.146,0,0,0-3.614-.069,14.044,14.044,0,0,0-2.451,5.261c-3.375,15.069-9.313,28.732-20.689,39.653a9.031,9.031,0,0,0-2.512,9.439,40.05,40.05,0,0,1,1.677,8.541c.574,10.508-1.094,20.437-8.07,28.911-4.154,5.047-6.962,10.091-2.721,16.96,1.916,3.1,1.821,7.542,2.29,11.417.555,4.582-1.835,8.155-6.142,8.382-6.822.358-13.65,2.421-20.125,2.3-6.2-.117-12.538-.282-18.82-.415-2.355-.049-4.093-3.431-2.878-5.592a22.455,22.455,0,0,1,3.371-4.637c4.723-4.862,9.739-9.449,14.308-14.448,3.36-3.677,5.429-8.078,4.991-13.35-1.136-13.663,2.83-27.32.088-40.991,2.628-23.32,4.9-46.746,20.282-66.163,1.215-1.534,2.108-3.361,3.471-4.733,4.516-4.547,5.454-11.892,11.167-15.233,4.985-2.915,10.543-4.9,15.954-7.03C206.6,210.53,216.823,204.577,229.741,203.051Z"/><path d="M311.42,156.461c.35,4.637-.195,7.444-1.507,10.173-.832,1.73-2.05,3.755-1.793,5.452,2.064,13.687-8.087,18.6-17.2,24.041A106.221,106.221,0,0,1,275.1,203.7c-7.136,2.781-13.414.545-18.709-4.649-2.646-2.6-2.449-7.547.819-8.829,9.778-3.836,17.364-13.159,29.419-11.508,2.795.383,5.5-3.393,4.6-6.284-2.271-7.282-.3-15.732-6.407-22.014-2.093-2.154-.29-4.777,1.55-6.374,9.5-8.248,22.112-3.963,24.5,8.249C311.246,154.2,311.382,156.16,311.42,156.461Z"/><path d="M295.588,120.838c12.119-3.2,12.119-3.2,15.719-12.969,9.007,7.621,9.007,7.621,19.191,5.075,1.953,2.733-.809,5.736.462,8.483,1.225,2.645,2.538,5.249,3.829,7.863,2.774,5.618,2.591,12.493,7.377,17.3.367.369.1,1.959-.4,2.5-2.647,2.894-5.2,5.539-5.1,10.062.084,3.484,4.026,5.592,2.8,9.308-9.572-1.7-9.572-1.7-17.033,5.386-5.306-6.226-5.259-14.226-6.182-21.648-.726-5.839-2.44-10.541-7.208-13.608C302.307,134.255,298.641,127.837,295.588,120.838Z"/><path d="M264.472,162.929c-1.738,5.61,3.751,12.262-1.138,16.841-3.741,3.5-9.453,4.841-14.131,7.426-10.344,5.715-22.043,7.734-32.822,12.246-2.72,1.138-4.892-.059-6.061-2.445-3.773-7.7-4.514-8.482,2.886-12.906,10.027-6,20.287-11.612,30.565-17.171,3.409-1.843,7.36-2.717,10.1-5.722,4.16-4.571,6.663-.844,9.447,1.784.293.277.94.179,1.423.255Z"/><path d="M264.737,163.237c2.983-9.269,7.342-14.824,10.82-13.313,6.026,2.616,7.673,8.424,8.949,14.166,1.1,4.948-3.732,10.653-9.139,10.782-1.231.03-2.635-1.045-3.713-1.917-3.292-2.663-1.626-8.914-7.177-10.021Z"/><path class="a" d="M143.034,226.18a5.429,5.429,0,0,1-1.137-.773c-1.437-1.642-3.735-4.216-1.3-5.457,3.79-1.936,3.79,2.069,4.462,4.466Q144.006,225.253,143.034,226.18Z"/></svg>