<svg xmlns="http://www.w3.org/2000/svg" viewBox="0 0 400 400"><path d="M287.982,101.182c.413,5.864.965,11.724,1.155,17.6.057,1.772-.35,4.527-1.49,5.179-2.9,1.658-4.214-1.475-5.41-3.258-7.018-10.451-16.458-17.957-27.6-23.658C240.484,103.648,233.2,115,230.32,129.817c-1.089,5.6,1.026,10.68,1.71,15.95.743,5.722-.632,13.455,4.218,16.52,4.359,2.756,11.144.258,16.71-1.249,5.3-1.437,10.7-1.261,16.087-.987a24.616,24.616,0,0,1,15.91,6.716c6.114,5.631,12.069,11.539,18.753,16.422,10.208,7.457,16.8,17.825,23.255,28.088,5.242,8.331,4.7,18.482,4.351,28.086-.155,4.259-5.776,2.765-7.765,5.863,9.568,2.11,18.893,4.55,26.735,10.79,10.157,8.082,21.133,9.678,32.875,3.5A2.84,2.84,0,0,1,384.5,259c.891.072,2.046.084,2.567.625a2.971,2.971,0,0,1,.492,2.563,16.934,16.934,0,0,1-9.687,10.452c-10.765,4.483-21.463,6.448-32.488.493-3.77-2.037-7.313.719-6.07,4.617,1.972,6.187,2.283,12.439,2.567,18.827.361,8.127-4.572,12.557-10.51,16.291-1.429.9-3.825.751-5.652.413-3.333-.616-6.851-3.032-9.8-2.4-8.751,1.876-13.841-2.288-17.671-9.467-4.063,3.963-3.066,8.726-3.87,12.865a31.144,31.144,0,0,1-3.28,9.651c-.83,1.466-4.006,1.379-5.01-.116-2.774-4.129-4.433-8.284-3.96-13.67.8-9.089,1.378-18.25-2.285-27.2-1.276-3.115,1.424-5.216,5.189-4.976.813.051,3.441.531,2.281-2.089-.374-.844-1.081-1.991-1.815-2.145-2.837-.6-5.765-.739-8.624-1.248-3.6-.641-6.5-2.027-6.722-6.42-.082-1.626-1.357-2.26-2.987-1.464a4.346,4.346,0,0,0-2.48,4.828A7.266,7.266,0,0,0,266.9,273c1.744,1.713,3.818,3.084,5.606,4.757,7,6.551,9.965,14.7,7.763,23.987-2,8.424-3.468,17.248-11.116,23.251-2.135,1.676-2.96,4.972-4.529,7.433-1.905,2.988-5.062,3.386-7.193.589-4.145-5.439-7.986-11.112-11.906-16.72-.95-1.358-.767-3.625.287-3.954,7.576-2.361,6.332-11.744,12.545-15.244-3.26-4.622-9.355-2.256-13.184-5.458-3.742-3.129-7.723-5.977-11.651-8.877a7.722,7.722,0,0,0-2.662-1.166c-3.274-.83-7.421-.557-8.984-4.094-2.051-4.643,1.411-8.223,3.473-12.063,1.295-2.411,3.731-4.743,2.182-8.027-3.265.357-2.837,3.149-3.744,5.237-2.938,6.765-7.393,10.758-15.7,10.536-8.874-.237-17.839-.1-26.222-2.805-15.343-4.95-30.985-3.228-46.561-3.458-1.877-.028-4.332-.11-5.174,1.969-2.3,5.682-7.331,7.392-12.36,9.411a11.616,11.616,0,0,0-4.434,3.664c-6.914,8.855-15.025,17.129-20.091,26.96-4.055,7.869-9.293,11.963-17,14.691a48.543,48.543,0,0,1-11.339,2.825c-3.489.351-5.58-1.977-4.739-5.251.606-2.361,1.879-4.641,2.037-7.011.839-12.528,8.074-20.2,18.842-25.117,3.57-1.629,5.006-4.377,5.964-7.793,1.718-6.126,3.624-12.2,5.26-18.347,1.55-5.825,3.413-11.259,9.86-13.527,2.515-.885,3.545-3.224,4.447-5.534,2.136-5.465,4.3-10.918,6.36-16.413a3.035,3.035,0,0,0-1.052-3.823,3.611,3.611,0,0,0-2.728.121,31.593,31.593,0,0,0-12.845,9.473c-6.262,7.5-12.542,14.993-19.141,22.19a70.374,70.374,0,0,1-11.963,10.8c-13.422,9.116-32.367,1.587-36.154-14.189-3.175-13.222-3.434-26.052,4.721-38.048,3.276-4.818,5.208-10.526,8.146-15.6,4.006-6.922,9.417-12.532,16.989-15.634,1.782-.73,4.26-2,5.542-1.341,7.609,3.938,15.224-.616,22.754.5,6.286.932,12.573,1.86,18.747,2.773.43,6.732-7.088,4.4-9.052,9.553l10.82,3.015c-6.015,6.431-12.658,8.989-21.188,7.074-4.2-.944-4.325-.405-4.655,5.7-.193,3.571-1.976,4.9-4.344,2.766-7.478-6.721-15.557-7.426-24.571-3.719-3.838,1.578-6.815,3.9-8.54,7.61a52.605,52.605,0,0,0-5.27,25.639c.743,11.832,12.634,16.963,22.553,10.014a41.925,41.925,0,0,0,9.137-9.4,257.437,257.437,0,0,1,28.1-31.847c10.908-10.31,22.662-18.486,37.5-21.762,7.161-1.581,14.256-3.463,21.412-5.071,3.747-.841,6.592.678,8.78,3.806,2.48,3.544,3.372,8.2,7.468,10.885,2.655-3.4-.5-5.541-1.874-7.336-3.212-4.2-6.482-8.335-11.754-10.662-6.578-2.9-13.3-3.111-20.169-2.9-3.415.1-6.814.688-10.231.841a2.668,2.668,0,0,1-2.04-1.422,2.981,2.981,0,0,1,.423-2.581c2.3-2.5,4.717-4.916,7.242-7.2,2.909-2.626,6.042-5,8.949-7.634,1.524-1.38,2.308-3.333,1.026-5.18a5.659,5.659,0,0,0-3.426-2.407c-7.816-.76-15.608-1.069-23.349,1.1-11.311,3.171-22.654,6.181-32.976,12.039-1.367.775-2.866.83-3.606-.693a3.492,3.492,0,0,1,.588-2.724c5.577-8.761,12.926-15.862,21.125-22.12,1.935-1.477,4.258-2.465,6.118-4.018,2.777-2.319,8.007-3.815,6.272-8.4-1.372-3.625-6.083-2.266-9.279-1.984a128.347,128.347,0,0,0-17.421,2.707c-4.248.976-9.007,1.955-12.292,4.525-15.719,12.3-34.25,21.161-46.577,37.669-.771,1.034-2.442,1.4-3.727,2.089-.407-1.113-1.209-2.15-.982-2.855A137.084,137.084,0,0,1,52.11,122.765c13.282-15.679,30.439-25.79,49.417-33.063,4.1-1.572,8.4-2.71,12.379-4.535,18.863-8.642,38.621-13.524,59.212-16.13,19.664-2.488,39.1-1.049,58.6.723,5.353.487,10.663,1.715,16.015,1.885a53.007,53.007,0,0,1,17.131,3.788c6.114,2.3,10.642,5.721,13.949,11.956,2.573,4.851,4,11,9.42,14.142ZM245.041,225.13c1.444-4.612,2.758-9.148,4.284-13.612,3.259-9.539,13.616-14.986,23.027-12.064,2.762.857,5.342,2.288,8.085,3.223.683.233,1.674-.441,2.524-.7-.405-1.25-.489-2.8-1.3-3.671a5.713,5.713,0,0,0-3.753-1.889c-7.773.24-15.566.484-23.3,1.281-6.032.622-8.851,3.282-9.443,9.261C244.584,212.877,245.041,218.9,245.041,225.13Zm-31.228-36.11c2.067,4.441-1.233,9.782,1.242,14.148.965,1.7,2.57,3.448,4.518,2.892,2.4-.685,1.783-2.838.862-4.592C218.249,197.307,216.023,193.168,213.813,189.02ZM329.175,278c.5-2.155-.5-3.555-2.271-4.6a1.528,1.528,0,0,0-2.439.606,3.9,3.9,0,0,0,2.9,5.328C327.916,279.386,328.571,278.465,329.175,278Zm-34.1,14.031c-.077,1.336-.206,2.7-.2,4.067,0,.422.362.843.559,1.264.456-.405,1.312-.826,1.3-1.214a26.156,26.156,0,0,0-.666-4.111A5.437,5.437,0,0,0,295.077,292.026Z"/><path d="M251.407,155.393c-3.4.23-5.369.61-7.292.434-2.527-.23-4.8-1.4-5.71-3.941-5.252-14.689-7.123-30.944,7.521-41.075,2.408-1.666,4.462-3.854,6.906-5.454,1.624-1.064,3.809-1.592,5.593-.408,8.14,5.4,16.334,10.763,20.238,20.408,1.245,3.074,1.2,6.194-1.56,7.882-5.255,3.217-9.127,7.36-10.951,13.2-2.066,6.615-6.428,9.515-13.251,8.966A5.245,5.245,0,0,0,251.407,155.393Z"/><path d="M288.235,101.531c.906-13.362,2.566-14.3,14.463-8.732,7.442,3.482,14.3,8.062,22.539,10.074,7.279,1.777,11.451,6.948,10.894,15.1-.431,6.311-.564,12.644-.764,18.969a15.6,15.6,0,0,1-3.469,9.406,3.346,3.346,0,0,1-2.361,1.2,2.638,2.638,0,0,1-1.977-1.477c-1.276-4.691-2.611-9.391-3.445-14.172-1.11-6.368-5.154-9.214-11.063-9.652-4.818-.358-9.684-.024-14.526-.112-3.9-.072-6.311-2.035-6.938-5.932-.539-3.357-.691-6.779-.936-10.178a5.575,5.575,0,0,0-2.664-4.832C287.982,101.182,288.235,101.531,288.235,101.531Z"/><path d="M151.7,273.016c-.046.487.074,1.091-.171,1.435a5.6,5.6,0,0,1-1.917,1.994c-10.924,4.787-18.314,12.38-20.927,24.441-1.308,6.036-5.3,10.2-11.464,12.2a83.74,83.74,0,0,0-10.739,4.574,3.817,3.817,0,0,1-5.058-1.135,4.852,4.852,0,0,1-.8-5.438,80.557,80.557,0,0,1,18.133-24.293c3.568-3.309,7.5-6.237,11.369-9.209,5.649-4.34,12.243-5.847,19.216-5.907C150.128,271.668,150.916,272.547,151.7,273.016Z"/></svg>