<svg xmlns="http://www.w3.org/2000/svg" viewBox="0 0 400 400"><defs><style>.a{fill:#1c1c1c;}.b{fill:#fafafa;}</style></defs><path class="a" d="M214.475,286.1c1.4-2.539.538-4.943-1.174-6.679-4.918-4.985-10.517-8.6-18.009-8.483-10.276.155-20.573-.4-30.832.036-8,.339-15.584-.539-22.935-3.721a58.528,58.528,0,0,0-6.947-2.238c-6.27-1.826-8.416-7.854-4.483-12.945a22.526,22.526,0,0,1,3.285-2.893c12.118-10.481,12.971-12.163,15.036-29.648-2.146.247-3.154,1.817-3.824,3.56-3.545,9.209-7.544,18.01-17.183,22.635-1.841.883-2.56,2.865-2.817,4.887-.431,3.379-.729,6.781-1.316,10.133-.351,2.006-2,4.361-3.778,3.344-4.387-2.514-7.013-.863-10.176,2.14-5.39,5.117-7.447,5.729-12.128,1.075-5.106-5.077-10.689-6.058-17.228-6.064-4.583,0-8.958-.232-11.155,4.853-1.915,4.431-6.373,5.964-9.887,8.425-6.135,4.3-10.064,3.3-14.645-3.037a20.221,20.221,0,0,1-1.754-3.982c3.033-3.245,5.156.635,7.709.885,4.81.471,7.5-1.482,7.962-6.226a14.345,14.345,0,0,0-2.16-9.8c-2.8-4.206-6.673-6.984-11.026-9.4-3.778-2.1-5.509-.649-6.065,2.938-.438,2.829-2.188,1.653-2.905.881-3.375-3.636-3.46-6.94-.622-10.437,2.4-2.959,5.838-3.962,9.122-2.222,2.565,1.36,4.809,3.317,7.333,4.772a2.871,2.871,0,0,0,2.6-.447,3.362,3.362,0,0,0,.957-2.572c-.949-7.632-2.806-9.329-10.929-10.385-1.276-.166-3.177.065-2.405-2.2.264-.772,1.287-1.923,1.847-1.861,7.94.89,14.948-4.027,22.8-3.539,5.21.324,8.152,2.919,8.888,7.9,1,6.753-1.637,12.392-5.032,17.944-2,3.267-.738,5.724,2.76,6.173,8.721,1.12,16.641.633,21.187-8.784,1.888-3.912,5.094-7.171,7.169-11.015,5.283-9.785,10.266-19.733,15.369-29.615,1.055-.445,3.984.24,1.691-2.244-.554-.6-1.771,1.016-1.556,2.375-6.018.072-7.917,5.148-10.368,9.083a120.287,120.287,0,0,0-7.177,14.466c-1.354,3.014-3.418,4.733-6.687,4.708s-6.148-1.85-6.766-4.707a45.86,45.86,0,0,0-9.454-19.486c-2.232-2.77-2.148-6.427-.3-9.726,1.439-2.566,2.889-5.126,4.38-7.661a4.937,4.937,0,0,0,.075-5.491c-3.6-5.743-1.3-9.991,3.055-14.176,2.025-1.944,1.322-4.287-1.215-6.056-4.68-3.261-10.163-3.256-15.409-4.306a2.874,2.874,0,0,1-1.857-1.949c-.088-.793.871-1.658,1.215-2.552,1.144-2.965,6.187-.586,6.446-4.767a19.8,19.8,0,0,0-10.094-1.053c-2.523.461-4.481,1.713-5.173,4.484-.424,1.7-.284,4.523-3.01,3.808a6.845,6.845,0,0,1-3.949-3.842c-2.991-8.224-2.154-17.307,7.238-20.9a12.158,12.158,0,0,0,5.936-4.052c2.543-3.5,6.232-4.522,10.317-4.612,16.149-.356,32.307-.564,48.238-3.763a8.407,8.407,0,0,1,2.843.469c.337,2.452-1.844,3.139-3.178,4.3-2.291,2-3.377,3.594.664,4.518,1.445.33,2.905.742,3.088,2.4.205,1.85-1.287,2.319-2.755,2.708a18.921,18.921,0,0,0-4.165,1.361c-.741.4-1.174,1.447-1.64,2.263-.652,1.14-.206,1.776,1.015,2.276,2.694,1.1,5.642,1.941,7.908,3.652,3.659,2.765,9.038,5.089,5.64,11.5a1.538,1.538,0,0,0,.077,1.419c6.911,5.865,4.867,15.547,9.073,22.253,4.216.547,6.822-2.282,10.1-3.169,18.664-5.047,21.964-35.6,7.56-46.116-2.769-2.021-5.366-4.279-8.154-6.273-1.581-1.13-3.458-1.839-5.081-2.919a19.3,19.3,0,0,1-8.707-19.075c.844-6.673,6.944-10.639,13.133-12.7,5.046-1.681,10.5-2.238,15.826-2.948,10.267-1.371,20.585-.46,30.776.575,9.781.993,19.542,1.413,29.342,1.772,9.294.341,18.566,1.27,27.855,1.822,9.795.582,19.574,1.055,29.311-1.046,3.783-.816,7.739-.827,11.668-1.209.027,3.719-2.636,4.121-4.827,4.824-4.648,1.491-9.357,2.791-14.016,4.249-.24.075-.244.9-.358,1.38.618,1.618,2.073,1.592,3.384,1.559,17.611-.446,35.365.257,52.776-1.855,10.5-1.274,21.1-3.746,31.637-5.756,6.717-1.281,13.51-2.18,20.289-3.106a2.648,2.648,0,0,1,2.174,1.284,2.7,2.7,0,0,1-.645,2.464c-5.4,4.252-11.026,8.554-17.838,9.835-10.068,1.894-19.85,5.144-30.232,5.692-7.778.41-15.5,1.98-23.222,3.187-.641.1-1.123,1.365-1.582,2.145a2.7,2.7,0,0,0,1.107.852,15.714,15.714,0,0,0,4.161.926c8.826-.012,17.645-.378,26.3-2.275,8.221-1.8,16.53-1.831,24.867-1.706,1.3.019,2,.539,1.756,1.657-.2.892-.449,2.093-1.1,2.512a30.742,30.742,0,0,1-10.749,4.518c-18.7,3.77-37.269,8.142-56.646,6.8-6.161-.428-12.45.987-21.387,1.806,7.008,4.195,12.132,3.194,16.967,3.5,4.892.315,9.793.479,14.69.71,5.379.254,10.76.467,16.135.777,4.892.282,9.773.811,14.668.972,5.2.172,10.4.039,16.122.039-2.119,4.51-5.392,5.3-8.685,6.114-12.931,3.192-26.2,3.161-39.36,4.054a402.869,402.869,0,0,1-41.109.582c-5.816-.2-11.684.909-17.511,1.573-.62.07-1.332,1.057-1.64,1.774-.488,1.137.17,1.741,1.24,2.253,3.246,1.555,6.7,1.3,10.1,1.331,8.339.069,16.684.239,25.016-.013,16.242-.492,32.249,2.056,48.352,3.376,1.294.106,1.97.68,1.645,1.654a4.668,4.668,0,0,1-1.37,2.443c-4.712,2.934-10.079,3.419-15.45,4.19-16.608,2.384-33.171,1.507-49.8.289-10.208-.748-20.5-1.574-32.589.661,18.638,6.824,37.287,2.914,54.791,9.312-8.418,5.566-17.225,5.432-25.985,4.439-11.257-1.276-22.419-.792-33.669.087-.092,4.038,2.8,3.415,4.8,3.745,8.644,1.421,17.383,2.406,26.974,5.974-4,2.926-7.321,4.293-10.962,4.268a174.233,174.233,0,0,1-17.595-.886c-7.563-.82-11.17-.192-9.91,2.038,2.112,3.739,5.937,2.169,9.024,2.579a47.6,47.6,0,0,1,13.942,4.173c-1.44,3.058-4.22,3.877-7.038,3.931-5.869.113-11.747-.12-17.619-.279-4.078-.111-9.52,3.524-10.637,7.746-.527,1.991.949,3.749,2.969,4.376,12.374,3.838,22.43,11.817,33.164,18.554a33.046,33.046,0,0,1,10.8,11.621,106.285,106.285,0,0,0,32.055,33.549c10.932,7.408,23.3,10,36.248,9.7A24.082,24.082,0,0,0,341.94,284c6.482-4.214,9.53-11.877,7.207-19.146-1.418-4.437-4.159-7.618-9.073-8.639-10.109-2.1-20.227-4.059-30.309-.21-5.333,2.036-9.592,1.8-14.608-1.874-3.666-2.687-9.318-2.518-13.915-4.113-11.971-4.153-16.8-12.046-16.209-26.339,7.789,4.112,12.488,12.457,21.838,14.1a60.142,60.142,0,0,0,18.579.237c1.6-5.828-.138-13.638,6.676-17.68,1.14-.87,1.6-.522,1.851.963,1.829,10.7,1.875,10.582,12.151,12.885,7.112,1.594,14.477,1.8,21.261,5.224,18.664,9.414,20.368,37.864,3.895,50.626-16.387,12.694-44.56,10.192-61.551-3.362-8.758-6.986-18.039-13.331-27.253-19.722-4.14-2.872-8.153-.789-7.887,3.96.554,9.916,2.148,19.527,10.19,26.624,5.371,4.74,8.017,10.674,9.424,17.756a72.729,72.729,0,0,0,5.394,16.68,26.024,26.024,0,0,1-1.3,25.3c-3,5.044-7.012,8.127-13.283,6.979a22.04,22.04,0,0,0-2.938-.135c-14.4-.672-15.028-11.644-10.721-20.772,1.419-3.007,4.653-5.339,4.352-9.022-1.05-12.874-3.522-22.693-22.993-23.19-.287-.007-.594.731-.892,1.121l.254.282c.156-1.109,1.8-1.873.266-3.412s-2.3.1-3.413.256l.17.183c.685-1,2.43-1.734.824-3.3-1.929-1.882-3.46-4.763-6.94-2.78l.225.29c.723-5.837-1.131-9.524-6.088-12.113l.213.335c1.23-3.889.635-5.062-3.16-6.232Zm-24.157-58.684c-1.963,0,1.356.292.229-1.267-.612-.848-1.049-.161.012,1.1,1.736,2.795,4.419,2.807,7.205,2.372.228-.035.429-.708.5-1.111.059-.316-.027-.936-.166-.972C195.516,226.868,192.919,225.65,190.318,227.415Zm17.887,30.344c7.861-12.322,7.686-17.421,1.013-25.411-1.961-2.348-4.491-3.846-7.877-.971C206.549,238.025,209.163,245.707,208.205,257.759Zm-48.417-8.151c.86-.35,1.976-.468,2.54-1.087a17.413,17.413,0,0,0,4.439-14.467,4.9,4.9,0,0,0-2.48-3.156c-2.66-1.279-3.013.99-3.382,2.8-.948,4.646-1.9,9.3-2.656,13.974C158.16,248.221,159.243,248.96,159.788,249.608Zm17.974-13.58c-.038-.837-.018-1.791-.138-2.726-.158-1.236-.89-1.793-1.914-1.383-.826.331-2.088.8-2.225,1.42-.815,3.683-1.372,7.424-1.991,11.15-.275,1.651-1.594,3.982,1.568,3.94,1.046-.014,2.345-1.461,3.053-2.559C178.021,242.912,177.543,239.443,177.762,236.028ZM69.935,229.744c.141-3.706-.884-5.179-2.938-5.823a6.116,6.116,0,0,0-5.527.519c-2.015,1.407-1.114,3.372-.529,5.073a39.1,39.1,0,0,0,2.389,5.237c.585,1.123,1.146,2.919,2.766,2.167a6.45,6.45,0,0,0,2.668-3.158A20.691,20.691,0,0,0,69.935,229.744Zm12.494-96.875c.5-1.516.085-2.356-1.129-2.472a21.008,21.008,0,0,0-4.243.133c-1.224.134-1.788.9-1.405,1.867a3,3,0,0,0,3.427,1.835A13.751,13.751,0,0,0,82.429,132.869Zm80.682,87.09,17.8,3.754C175.988,217.938,171.168,217.441,163.111,219.959Zm25.232,22.234a9.615,9.615,0,0,0-.351-2.852c-.295-.668-1.251-1.559-1.788-1.482a2.8,2.8,0,0,0-2.014,1.6,19.77,19.77,0,0,0-.321,5.655c.051.573,1.343,1.418,2.08,1.432.653.013,1.572-.832,1.923-1.526A9.315,9.315,0,0,0,188.343,242.193Zm-60.852-46.125a15.508,15.508,0,0,0-2.622-.776c-.322-.042-.727.56-1.094.868.382.287.814.863,1.135.807A14.947,14.947,0,0,0,127.491,196.068Zm.155-43.757a16.99,16.99,0,0,0,1.691,1.571c1.084.775,2.048.462,2.122-.84.033-.578-.785-1.41-1.419-1.774C129.018,150.68,128.153,151.138,127.646,152.311Z"/><path class="a" d="M98.97,315.853c-4.37,3.768-6.974-.789-9.955-2.4a6.913,6.913,0,0,1-3.465-7.522c.532-2.827,1.845-5.507,2.381-8.334a4.991,4.991,0,0,0-1.191-3.7c-4.381-4.863-4.469-5.4-1.9-8.508,4.55-5.5,10.652-6.534,17.178-6.135,4.016.246,4.8,4.473,7.258,6.676,1.444,1.3,4.293.745,4.77-1.023.631-2.339.665-4.894,1.584-7.093,4.069-9.729,10.47-11.949,19.988-7.177,2.589,1.3,2.7,5.392.4,7.251-2.734,2.211-6.545,1.344-9.292,3.893-3.422,3.175-4.124,6.7-.919,10.055,1.337,1.4,3,2.48,4.435,3.8,5.644,5.181,6.011,8.961,1.192,14.891-1.154,1.419-2.963,2.306-4.763,3.657-.252-3.95.08-7.387-.794-10.484-1.384-4.9-5.3-6.536-10.26-5.008a37.733,37.733,0,0,0-5.508,1.954c-1.984.972-2.261,2.88-2.124,4.942.315,4.772,3.855,7.6,6.656,11.135-5.685,3.549-9.086-.832-12.945-3.458q-.282-5.61-.569-11.231c1-1.3,1.384-2.7-.288-3.594-.438-.233-1.535.772-2.33,1.208C90.95,305.54,91.036,308.611,98.97,315.853Zm.016-25.579c-.311-.284-.641-.619-1.006-.913-2.078-1.673-6.8-.733-7.35,1.508-.073.292.447.865.822,1.11C93.193,293.117,98.533,291.936,98.986,290.274Z"/><path class="a" d="M231.831,312.25c-.356,2.378,1.379,3.229,3,4.237,2.447,1.517,5.268,2.733,7.15,4.791,3.552,3.885,7.259,8.4,5.41,14.036-2.108,6.418-5.291,12.317-13.154,13.846-3.655.712-7.659-1.288-10.974,1.516l.279.313c.3-.877,1.117-2.048.814-2.586-3.569-6.33-5.19-11.707,1.11-18.187,4.649-4.783,1.563-12.724-4.486-15.828a14.052,14.052,0,0,0-4.017-1.7c-13.345-2.041-16.6-11.892-17.938-23.137a73.012,73.012,0,0,1-.05-8.588c7.14-4.07,10.1,4.171,15.5,5.134l-.293-.34c.083,2.569-.2,5.324,3.16,6.232l-.213-.335c-.174,5.144,1.626,9.3,6.088,12.113l-.225-.29c.761,3.312,1.174,6.973,6.116,6.08l-.17-.183c-.773,2.867.57,3.627,3.147,3.156Z"/><path class="b" d="M208.205,257.759c.958-12.052-1.656-19.734-6.864-26.382,3.386-2.875,5.916-1.377,7.877.971C215.891,240.338,216.066,245.437,208.205,257.759Z"/><path class="b" d="M159.785,249.609c-.542-.649-1.625-1.388-1.536-1.936.761-4.678,1.708-9.328,2.656-13.974.369-1.811.722-4.08,3.382-2.8a4.9,4.9,0,0,1,2.48,3.156,17.413,17.413,0,0,1-4.439,14.467C161.764,249.14,160.648,249.258,159.785,249.609Z"/><path class="b" d="M177.762,236.028c-.219,3.415.259,6.884-1.647,9.842-.708,1.1-2.007,2.545-3.053,2.559-3.162.042-1.843-2.289-1.568-3.94.619-3.726,1.176-7.467,1.991-11.15.137-.616,1.4-1.089,2.225-1.42,1.024-.41,1.756.147,1.914,1.383C177.744,234.237,177.724,235.191,177.762,236.028Z"/><path class="b" d="M69.935,229.744a20.691,20.691,0,0,1-1.171,4.015,6.45,6.45,0,0,1-2.668,3.158c-1.62.752-2.181-1.044-2.766-2.167a39.1,39.1,0,0,1-2.389-5.237c-.585-1.7-1.486-3.666.529-5.073A6.116,6.116,0,0,1,67,223.921C69.051,224.565,70.076,226.038,69.935,229.744Z"/><path class="b" d="M82.429,132.869a13.751,13.751,0,0,1-3.35,1.363,3,3,0,0,1-3.427-1.835c-.383-.97.181-1.733,1.405-1.867A21.008,21.008,0,0,1,81.3,130.4C82.514,130.513,82.925,131.353,82.429,132.869Z"/><path class="b" d="M163.111,219.959c8.057-2.518,12.877-2.021,17.8,3.754Z"/><path class="b" d="M188.344,242.194a9.344,9.344,0,0,1-.472,2.831c-.351.694-1.27,1.539-1.923,1.526-.737-.014-2.029-.859-2.08-1.432a19.77,19.77,0,0,1,.321-5.655,2.8,2.8,0,0,1,2.014-1.6c.537-.077,1.493.814,1.788,1.482A9.651,9.651,0,0,1,188.344,242.194Z"/><path class="b" d="M223.217,303.769c-4.462-2.816-6.262-6.969-6.088-12.113C222.086,294.245,223.94,297.932,223.217,303.769Z"/><path class="b" d="M229.108,309.559c-4.942.893-5.355-2.768-6.116-6.08,3.48-1.983,5.011.9,6.94,2.78C231.538,307.825,229.793,308.561,229.108,309.559Z"/><path class="b" d="M190.3,227.428c2.622-1.778,5.219-.56,7.805.112.139.036.225.656.166.972-.075.4-.276,1.076-.5,1.111-2.786.435-5.469.423-7.205-2.372Z"/><path class="b" d="M127.491,196.072a15.274,15.274,0,0,1-2.581.9c-.321.056-.753-.52-1.135-.807.367-.308.772-.91,1.094-.868A15.165,15.165,0,0,1,127.491,196.072Z"/><path class="b" d="M217.342,291.991c-3.361-.908-3.077-3.663-3.16-6.232C217.977,286.929,218.572,288.1,217.342,291.991Z"/><path class="b" d="M127.646,152.311c.507-1.173,1.372-1.631,2.394-1.043.634.364,1.452,1.2,1.419,1.774-.074,1.3-1.038,1.615-2.122.84A16.99,16.99,0,0,1,127.646,152.311Z"/><path class="b" d="M117.227,200.623c-.215-1.359,1-2.975,1.556-2.375,2.293,2.484-.636,1.8-1.691,2.244Z"/><path class="b" d="M190.559,227.251c-1.061-1.264-.624-1.951-.012-1.1,1.127,1.559-2.192,1.267-.239,1.274C190.3,227.428,190.559,227.251,190.559,227.251Z"/><path class="b" d="M232.085,312.532c-2.577.471-3.92-.289-3.147-3.156,1.11-.153,1.879-1.793,3.413-.256S232.241,311.423,232.085,312.532Z"/></svg>