<svg xmlns="http://www.w3.org/2000/svg" viewBox="0 0 400 400"><path d="M380.287,159.06c0,4.893.336,9.816-.1,14.67-.421,4.74-3.17,6.426-8.285,5.8a22.839,22.839,0,0,1-4.245-1.153c-1.441-.471-3.117-.756-3.706.783a5.079,5.079,0,0,0,.354,4.094c6.793,9.778,8.495,20.941,7.312,32.205a310.579,310.579,0,0,1-6.656,37.387c-1.491,6.446-3.385,13.41-11.414,15.728-2.968.857-4.033,3.992-5.41,6.626a149.492,149.492,0,0,1-8.674,15.276,28.5,28.5,0,0,1-11.849,10.415c-8.791,4.116-14.68,3.172-20.155-4.827-2.722-3.977-4.287-8.738-6.474-13.093-1.693-3.37-4.259-4.076-7.1-1.977a61.56,61.56,0,0,0-6.861,5.5c-4.175,4.127-7.86,3.989-12.738.573-7.5-5.255-14.084-.538-19.888,3.9a68.557,68.557,0,0,0-12.5,12.345c-2.959,3.827-5.852,6.232-10.861,5.892-3.452-.233-5.093,2.523-6.554,5.107-4.782,8.46-12.394,10.435-21.356,9.517-11.087-1.136-22.225-1.894-33.255-3.435-6.269-.875-12.008-3.033-16.048-9a103.533,103.533,0,0,1-9.471-16.458c-3.431-7.81-6.407-8.291-13.065-2.982-6.706,5.348-8.912,5.681-15.71,1.815-2.541-1.445-4.773-3.422-7.232-5.025-3.063-2-5.039-1.494-7.127,1.949-1.514,2.5-2.575,5.267-4.118,7.742-6.708,10.757-16.65,11.617-25.333,2.511-5.165-5.416-8.644-11.816-11.82-18.449-1.924-4.018-4.214-7.382-8.332-9.836-9.8-5.841-15.723-14.686-16.246-26.226-.221-4.878-1.586-8.256-5.532-11.039a15.25,15.25,0,0,1-6.628-11.1c-.937-13.057-4.782-25.761-2.549-39.259a108.986,108.986,0,0,1,15.542-40.8c1.3-2.073,2.775-4.043,3.991-6.164,1.359-2.371,1.5-4.61-1.463-6-3.03-1.425-6.511-2.139-7.219-6.411-.979-5.9-1.813-11.875,1.714-17.09,6.255-9.247,12.389-18.666,19.6-27.145,4.743-5.581,12.14-8.835,19.129-10.268,7.453-1.529,15.249-4.084,23.19-1.534a14.34,14.34,0,0,0,5.81.534c7.6-.847,13.764,2.516,18.132,7.874,4.168,5.114,9.175,6.919,15.119,7.745,3.39.47,6.784.95,10.145,1.588,4.225.8,7.385,2.662,6.817,7.758-.413,3.708,1.777,5.1,5,5.893,6.272,1.552,12.612.492,18.907.819,13.145.683,26.263,1.974,39.413,2.436,15,.525,29.951,4.4,45.074.388,4.294-1.137,6.857-2.9,8.19-7.155a57.983,57.983,0,0,1,4.66-10.7C278.135,76.494,285.573,69,298.868,70.6c5.306.638,10.758-.022,16.138.113a94.221,94.221,0,0,1,13.157.881c11.242,1.883,18.825,7.807,20.018,19.864.326,3.294,1.612,4.809,4.893,6.149,15.09,6.163,21.769,18.922,24.536,33.978,1.662,9.043,2.195,18.292,3.236,27.448Zm-229.1,7.086c4.707,5.412,11.871,4.676,17.416,7.678,1.387.751,4.032.221,5.616-.625,5.1-2.721,10.42-2.466,15.772-1.738,3.981.541,7.987.7,11.525-1.082,5.851-2.95,10.314-1.76,14.015,3.4,1.987,2.769,4.49,3.306,7.678,2.086,2.243-.858,4.678-1.209,7.011-1.843,4.724-1.286,5.819-4.99,2.7-8.685-2.271-2.691-4.947-5.343-8.285-5.766-11.113-1.41-22.341-3.324-33.446-2.918-8.188.3-16.489,1.756-24.78,2.215C160.261,159.207,155.052,161.132,151.183,166.146Zm23.63-27.35c5.535.172,8.845-.4,11.719-2.489.751-.547,1.985-1.616,1.838-2-.5-1.3-1.291-3.117-2.38-3.469-11.038-3.56-22.023-7.476-33.809-7.749-.857-.02-2.434.692-2.467,1.151-.1,1.337-.06,3.293.774,3.992C158.1,134.613,167.32,137.19,174.813,138.8ZM230.2,142c7.129,1.11,12.616-3.851,17.884-9.03a4.82,4.82,0,0,0,.726-3.965,3.038,3.038,0,0,0-3.39-2.069c-9.4.936-17.116,6.4-25.683,9.579-.37.137-.874.937-.766,1.156a6.542,6.542,0,0,0,1.649,2.323C223.1,141.884,226.123,141.677,230.2,142Z"/></svg>