<svg xmlns="http://www.w3.org/2000/svg" viewBox="0 0 400 400"><path d="M76.13,118.365c-.451-5.372-4.473-4.141-7.436-3.52-2.521.528-4.851,1.43-6.482-1.063-1.865-2.851-3.6-5.921-1.776-9.55a21.544,21.544,0,0,1,1.284-2.624c3.036-4.4,9.876-5.035,11.259-10.963,1.11-4.757,2.184-9.475,5.075-13.506.506-.706,1.643-.961,3.116-1.769.647,3.775.928,7.449,1.964,10.9,1.1,3.651,2.181,7.814,7.109,8.238,5.067.436,11.409-.161,12.667-4.949,2.055-7.824,12.108-10.156,10.11-18.912,3.993-.269,4.312,2.165,5.658,3.393,5.01,4.571,7.258,4.482,11.986-.471,1-1.053,1.754-2.369,2.829-3.33,1.211-1.082,2.762-1.073,3.562.432,1.587,2.984,2.5,6.449,6.565,7.161,4.762.836,8.565-1.049,11.992-4.083l-.214-.158a56.792,56.792,0,0,1,.38,5.767c-.067,2.276.756,3.844,3.026,4.136,2.411.311,4.871.233,7.306.384,1.576.1,3.118.982,2.895,2.5C167.532,96.4,175.3,99.8,181.557,104.316c.663.7.192,1.061-.969,1.787-8.24,5.155-8.192,5.178-5.141,14.867.4,1.281.711,3.821.461,3.9-8.332,2.673-6.936,14.046-15.165,16.8-2.845.95-5.475,2.806-4.753,6.408.814,4.067,3.1,7.148,7.385,8.246a17.6,17.6,0,0,0,2.9.44c4.066.338,7.613-.977,8.245-6.215.471-3.9,1.606-7.71,4.4-10.717,1.366-1.469,3.141-2.747,5.095-2.005.563.213.084,2.738.4,4.131.61,2.7,1.964,4.443,5.092,2.951,2.191-1.045,4.314-2.277,6.584-3.107,4.737-1.731,6.854-5.093,7.207-10.01.351-4.889,1.251-9.7,3.649-14.006.62,0,1.228-.191,1.5.029,3.1,2.565,5.752,4.672,9.845.814,7.121-6.713,14.235-13.374,19.963-21.354,1.993-2.778,3.925-5.543,7.376-6.492,1.08.042,1.206.747,1.4,1.978,1.136,7.3,1.53,7.553,7.443,8.128,9.656.937,18.5-.849,26.175-7.139,1.839-1.508,3.8-2.869,5.741-4.326,2.519,3.721-.072,5.716-1.586,8.17-4.464,7.231-4.168,7.848,2,13.075,4.477,3.793,9.05,7.615,12.805,12.076,3.537,4.2,7.146,6.3,12.588,4.7.762-.224,1.794.467,2.7.736-5.794,10.45-5.414,14.3,2.555,21.031,2.979,2.515,6.41,4.489,9.569,6.8,2.239,1.639,6.827-.614,7.144,3.313.212,2.613-1.828,5.4-2.832,8.124-.337.912-.587,1.855-1.152,3.669,6.746,1.95,14.45,2.426,18.676,9.5.735,1.231,3.559,1.8,5.366,1.707,8.242-.44,11.008,5.019,12.99,11.473a10.414,10.414,0,0,1,.541,2.886c.189,18.6,4.576,36.886,3.215,55.653-2.278,31.415-10.777,60.837-28.615,86.762-7.6,11.04-15.374,22.614-27.968,29.575a61.953,61.953,0,0,1-19.1,7.111c-19.409,3.473-38.035,2.54-53.88-11.387a39.573,39.573,0,0,0-12.321-7.888c-4.194-1.543-6.755-4.7-8.188-8.849l-.3.2c4.576-.5,5.457-2.249,3.1-6.146l-.076.285a2.711,2.711,0,0,0,3.663-.419c3.173-2.851,1.608-7.576,4.666-10.793,5.968,1.346,12.1,1.828,17.115,6.783a13.967,13.967,0,0,0,10.821,3.718c3.376-.365,5.279,1.181,7.671,3.026,6.327,4.879,8.786,4.864,15.222-.058,2.438-1.865,4.387-3.426,7.77-2.593,5.258,1.3,8.254-1.838,10.046-6.3,1.08-2.689,1.1-6.106,3.816-7.7,9.048-5.32,7.88-13.827,7.086-22.121a22.668,22.668,0,0,0-2.485-8.395c-3.214-5.966-3.126-12.211-2.48-18.6.286-2.825,1.845-5.658-.125-8.456-6.867,8.114-7.641,9-5.457,15.914,1.907,6.036,2.052,12.363,4.792,18.356,3.34,7.3-.19,15.768-6.8,20.814-2.989,2.284-6.871,2.837-9.77,1.3-10.5-5.553-21.56-5.746-32.921-4.916a14.141,14.141,0,0,1-11.863-4.737c-2.312-2.527-4.464-5.139-7.776-6.571-3.205-1.387-5.437-.557-6.541,3.041-.428,1.4-.444,2.916-.847,4.323-.37,1.294-.581,3.2-2.627,2.536a7.963,7.963,0,0,1-3.485-2.323,8.389,8.389,0,0,1-1.8-3.9,157.68,157.68,0,0,1-2.087-15.992c-.292-5.234,1.738-9.782,6.879-11.887a143.171,143.171,0,0,1,16.564-5.683,15.073,15.073,0,0,1,10.041,1.242c3.1,1.384,6.163,2.838,9.243,4.26-.26,2.453-.139,4.816,2.183,6.329.7.455,1.933,1,2.381.7a2.86,2.86,0,0,0,1.015-2.432c-.67-2.936-2.036-5.276-5.733-4.43,1.389-5.865-2.036-9.118-6.52-11.615-1.679-.935-3.7-1.235-5.515-1.946-9.405-3.681-17.612-8.563-19.8-19.6-.12-.607-1.416-.981-2.892-1.933-.525,17.4-12.484,29.061-20.611,42.479-2.3,3.8-4.564,7.054-5.124,11.492a73.312,73.312,0,0,1-2.094,10.027,7.9,7.9,0,0,1-5.866,5.879c-11.726,3.241-26.3,3.713-37.477,1.189a20.041,20.041,0,0,1-7.757-3.879,13.015,13.015,0,0,0-9.507-3.013l-2.085,8.5c-7.386-1.414-11.278-5.981-12.188-12.861-.992-7.5-.017-14.865,6.175-20.083,3.68-3.1,7.845-5.583,11.6-8.722,4.876-4.075,10.949-2.5,16.679-.3,3.963,1.521,6.611,3.676,6.129,9.139,5.532-4.751,8.111-10,10.768-15.166.886-1.725,1.385-3.646,2.232-5.395,3.806-7.861,3.828-7.85,13.193-4.854.129,5.159,5.98,6.01,7.608,10.187,1.52,3.9.019,8.6,3.158,12.314,6.227-13.248,3.9-18.532-10.047-23.549-1.167-3.741-4.489-4.8-7.569-6.333-5.7-2.834-11.226-5.992-15.5-10.906-1.712-1.968-2.755-6.23-6.232-3.9-2.413,1.621.1,4.377,1.216,6.437,1.457,2.682.635,5.086-1.819,6.1-7.253,2.992-13.294,7.659-19.654,12.121-8.7,6.1-18.566,4.729-27.891.292-3.256-1.549-3.416-4.116-2.167-7.36,2.032-5.279,1.854-5.347-2.206-9.75-1.3,4.289-2.656,8.3-3.71,12.392-.749,2.906-1.488,5.745-4.162,7.48-4.958,3.215-6.632,8.236-7.741,13.615a50.677,50.677,0,0,1-1.352,5.706c-3.428,10.343-5.294,11.3-17.153,11.021-6.91-.161-14.007.941-18.3-7.352,5.006-4.735,10.019-9.294,18.174-7.31,3.015.733,5.784-.648,7.858-3,1.656-1.878,2.94-4,2.17-6.643-.889-3.054-3.537-2.833-5.928-2.88-2.95-.058-5.824.1-8.415,1.93a156.185,156.185,0,0,1-24.773,13.977c-5.633,2.613-10.506,6.865-15.731,10.39-2.646-3.593-1.06-6.754.591-9.694,2.95-5.256,6.966-9.893,13-11.094a46.7,46.7,0,0,0,25.092-13.533c5.633-5.658,14.233-5.443,22.518-2.938,3.325-2.3,1.587-7.007,3.7-10.259,1.069-1.644,1.095-3.783-1.065-5.01a6.747,6.747,0,0,0-6.942-.337c-2.406,1.3-2.817,3.794-3.916,5.935-.832,1.62-2.134,3.844-4.4,2.2-5.656-4.086-11-2.9-16.421.331-1.547.921-2.764,1.629-5.1,1.047-5.538-1.375-7.134-.329-8.315,3.9-.9,3.22-1.352,6.564-2.213,10.909-5.35-3.265-5.289-8.279-6.906-12.331-.733-1.835-3.375-1.943-4.815-.418-1.726,1.827-3.135,3.825-3.354,6.36-.323,3.733-.449,7.483-.667,11.37-5.364-1.953-4.409-7.412-6.208-10.788-2.469.608-2.678,1.935-3.138,3.266-.68,1.968,1.739,5.325-1.559,5.8-2.627.376-3.856-2.839-4.86-4.9-6.139-12.634-2.057-27.283,10-36.339,3.058-2.3,5.031-4.1,4.7-8.1-.488-5.851,2.266-10.425,6.684-13.988A7.415,7.415,0,0,1,41.3,210.4c2.083-.156,2.04,1.754,2.15,3.088.283,3.412.163,6.865.579,10.256a11.049,11.049,0,0,0,7.926,9.623c5.278,1.79,9.475-1.214,13.758-3.474a3.331,3.331,0,0,0,1.2-2.558c-.012-6.465,3.247-10.086,9.511-10.9,4.63-.6,6.631-3.656,7.961-7.579.784-2.312,1.5-4.657,2.459-6.9.751-1.757,1.7-3.761,3.929-3.773,2.776-.014,2.383,2.412,2.636,4.22.472,3.373.831,6.767,1.474,10.107a3.211,3.211,0,0,0,1.963,1.883,2.762,2.762,0,0,0,2.459-.529c.909-1.094,1.189-2.728,2.133-3.775,2.448-2.712,4.363-8.081,8.664-5.763,2.69,1.451.819,6.187-.1,9.58-1.005,3.709.935,6.455,3.7,6.451,7.059-.01,7.518.028,7.018,6.032-.422,5.076.9,8.475,5.445,10.85,5.38,2.809,10.215,2.153,12.164-3.3,3.145-8.794,7.893-16.686,12.021-24.935.334-.669-.295-1.82-.476-2.745.854.826,1.735.9,2.132,0,.181-.407-.356-1.132-.567-1.713q-.709.956-1.418,1.91a5.776,5.776,0,0,0-4.944,2.676c-2.7,4.627-5.364,9.2-6.588,14.613-1.147,5.073-5.181,6.831-9.991,5.361-3.453-1.056-5.122-4.232-4.019-7.975.409-1.389,1.372-2.611,1.8-4,.879-2.841.059-4.7-3.256-4.779-.489-.011-.982,0-1.467-.058-6.711-.794-6.741-.811-5.667-6.534.178-.952.684-1.854.793-2.807.483-4.269-1.4-5.94-6.241-5.311a48.227,48.227,0,0,0-6.354,1.791c-1.675-4.734-1.384-9.351-.3-13.962.556-2.37,1.64-4.614,2.24-6.977,1.147-4.519.142-7.1-2.4-7.051-3.286.062-3.458,2.669-4.494,4.807-5.645,11.649-14.226,19.521-27.606,21.209-2.869.362-6.162.537-8.408,2.056-6.646,4.5-13.957,3.68-21.258,3.918-5.47.178-9.146-1.957-12.145-6.527-3.079-4.69-.645-8.347,1.137-12.306,2.194-1.016,4.463-2.528,6.456.235,1.439,2,3.37,5.121,5.485,3.768,4.974-3.18,9.041-4.2,13.482.6.609.659,2.824.122,4.186-.255,4.795-1.326,9.347-3.364,12.5-7.3,2.118-2.638,3.939-3.914,7.315-2.243,1.874.928,3.752-.193,5.276-1.592,1.435-1.315,2.91-2.5,2.245-4.857-.515-1.826-2.114-1.778-3.383-2.345-4.87-2.178-10.7,2.251-14.171.027-6.157-3.949-11.278-.174-16.8-.327-4.054-.112-6.067,2.386-7.285,6.01-.581,1.729-1.579,3.972-4.147,2.682-1.876-.942-2.449-2.96-2.406-4.953.043-1.937.463-3.863.592-5.8.122-1.844-1.26-2.457-2.711-2.849a2.84,2.84,0,0,0-3.562,1.757c-1.9,4.993-3.578,10.069-5.34,15.114-4.825-4.522-3.17-10.949-4.824-16.4-.443-1.458-1.292-2.573-2.929-2.37-2.039.253-1.662,2.06-1.779,3.4a25.857,25.857,0,0,0,.213,2.906c.043,1.443.011,2.889.011,4.9-4.677-.631-5.842-4.29-6.975-7.714-1.412-4.264-2.108-9.056.485-12.735,3.3-4.68,5.929-10.614,11.67-12.7,6.984-2.54,11.127-7.253,14.357-13.6,2.2-4.323,5.133-8.558,11.313-6.651l-.21-.174c-.681,6.273-4.755,11.787-3.948,18.431.416,3.427,1.964,5.684,5.248,5.833,3.4.155,6.747-.224,10.186.7,4.8,1.29,4.877.986,6.837-5.211a7.045,7.045,0,0,1,.913-1.41c6.11.116,10.709,2.43,14.549,7.752,4.031,5.586,8,5.259,12.681-.815,2.374-3.08,4.811-4.671,8.44-4.721,3.418-.047,6.848.264,10.253.07,2.406-.137,5.046-1.375,7.018.442,1.629,1.5.108,4.717,3.372,6.753,3.264-5.743,3.7-13.27,10.812-15.725-2.64-4.71-5.152-2.688-6.875-2.029-15.622,5.977-31.9,4.315-48.009,4.25-6.231-.025-10.137-5.4-15.284-8-2.395-1.21-1.647-5.474.587-7.716,2.9-2.912,6.247-2.071,9.618-1.578,1.494,2.536,3.374,5.877,6.211,5.451,5.959-.9,11.531,1.15,17.3,1.056,6.414-.105,12.264-2.262,17.722-5.475a2.95,2.95,0,0,0,.7-2.513,3.309,3.309,0,0,0-1.534-2.24c-3.876-1.565-7.8-1.164-10.81,1.651-2.434,2.274-4.111,1.595-6.089-.146a3.074,3.074,0,0,0-4.015-.022c-2.144,1.532-3.757,2.463-5.7-.424-2.4-3.56-4.622-2.493-6.344.852C81.964,119.826,78.847,118.356,76.13,118.365Zm68.367,9.016c4.822-1.095,6.056-4.4,5.2-8.78-.574-2.951-2.908-3.847-5.5-3.385-2.721.485-2.229,2.466-1.375,4.362a7.033,7.033,0,0,1-.138,5.651,13.641,13.641,0,0,0-2.4,1.422,10.4,10.4,0,0,0-1.442,2.083,8.36,8.36,0,0,0,2.526.885A3.093,3.093,0,0,0,144.5,127.381ZM211.822,224.1a4.817,4.817,0,0,0,.61,1.239c.126.143.886-.011.889-.063.085-1.194-.5-1.513-1.68-.953,2.54-7.637-1.961-12.289-7.507-15.74C198.156,204.86,192,205.3,186,211.387,196.113,213.293,204.978,216.81,211.822,224.1Zm58.912-20.6,1.644,1.9c.2-.4.564-.8.579-1.2.045-1.268-.62-1.685-1.811-1.244.142-.911.743-2.162.358-2.683-6.074-8.2-11.191-9.833-19.843-6.39-2.243.893-4.3,2.647-6.583,2.972-5.793.823-8.195,4.754-9.592,9.586-1.032,3.57-1.482,7.307-2.253,11.286,5.052-.914,5.987-4.851,7.787-8.06,5.42-9.664,8.268-10.987,18.555-8.74C263.305,201.728,267.016,202.629,270.734,203.494Zm-134.89-23.937a11.859,11.859,0,0,0-1.515.73c-3.224,2.242-3.423,10.768-.312,12.789,6.023,3.913,13.211,2.77,17.952-3.1a2.387,2.387,0,0,0-.774-3.662c-3.917-1.683-7.963-3.061-11.908-4.683A24.723,24.723,0,0,1,135.844,179.557Zm66.274,11.966a53.792,53.792,0,0,0-2.127-19.058,5.728,5.728,0,0,0-1.46-2.468,3.611,3.611,0,0,0-2.463-1.039,2.556,2.556,0,0,0-1.635,1.756c-1.035,6.482-.234,12.72,3.362,18.317C198.461,190.067,200.162,190.439,202.118,191.523Zm135.718-10.15c-.534.679-1.605,1.434-1.52,2.024.818,5.728,1.636,11.472,2.9,17.111.389,1.73,2.041,3.257,3.333,4.679,1.313,1.445-.516.19,1.408-.111.717-.113,1.934-1.322,1.827-1.762q-2.565-10.473-5.534-20.843C340.094,181.919,338.674,181.73,337.836,181.373Zm-73.905-47.984c-.7.613-1.713,1.093-1.936,1.816-.25.812-.115,2.338.426,2.7q6.483,4.373,13.25,8.312c.471.274,1.85-.539,2.507-1.163a2.813,2.813,0,0,0,.576-3.8C275.541,135.233,269.546,134.707,263.931,133.389Zm-50.063,62.8c.438-5.589,4.753-10.068,3.492-15.638-.31-1.371-1.013-2.808-2.819-2.868-1.5-.05-2.859.251-3.357,1.971C209.5,185.476,210.06,191.018,213.868,196.189Zm122.381,94.673c3.214-2.6,3.506-5.611,4.3-8.33a8.727,8.727,0,0,0-.538-7.036c-.922-1.555-4.365,2.162-5.177,5.888C334.213,284.247,333.872,287.125,336.249,290.862Zm11.535-51.987c-.274-1.619-.711-3.942-1.048-6.28-.193-1.349-.843-1.837-2.007-1.135-.741.448-1.835,1.19-1.85,1.822-.1,4.274-.033,8.557.186,12.826.034.67,1.014,1.454,1.736,1.887,1.045.627,1.7.075,1.872-1.251C346.976,244.381,347.336,242.024,347.784,238.875ZM326.54,323.006c.366-.171.979-.253,1.193-.589,2.278-3.576,5.307-6.974,3.275-11.732-.073-.169-.866-.21-1.209-.056-4.239,1.892-3.868,6.291-5.148,9.762-.26.7.314,1.754.633,2.6C325.336,323.124,326.063,323.006,326.54,323.006ZM92.669,229.6c-1.623.348-3.138.382-4.352,1-1.608.823-3.676,1.79-3.392,4.01.3,2.31,2.605,2.795,4.428,3.147a6.409,6.409,0,0,0,4.171-.652c1.61-.964,3.289-2.525,2.162-4.726C95.11,231.258,93.731,230.543,92.669,229.6ZM129.591,89.73c-.674-.7-1.251-1.831-1.933-1.9-3.342-.328-6.671-.021-9.143,2.6a2.3,2.3,0,0,0,.359,3.6c3.872,2.373,9.281.806,10.882-3C129.913,90.665,129.648,90.112,129.591,89.73Zm99.527,97.339c2.842-.865,3.6-2.944,3.048-5.562a3.72,3.72,0,0,0-1.531-2.24c-1.614-.934-3.692,1.856-3.553,4.872C227.142,185.467,227.362,186.866,229.118,187.069ZM287.8,223.516c2.561-.411,3.487-1.843,3.042-4.1a2.6,2.6,0,0,0-3.049-2.334c-2.26.333-3.249,1.873-2.8,4.077C285.309,222.657,286.267,223.689,287.8,223.516Zm3.9-65.315c-.2-1.353-.471-2.934-2.155-2.836-2.192.127-3.012,1.843-3.179,3.849-.152,1.826,1.163,2.478,2.572,2.613C291.617,162.084,291.722,160.134,291.7,158.2Z"/><path d="M216.7,341.419c-1.352-1.783-3.175-2.43-5.067-1.264-3.191,1.965-5.9,2.5-9.354.041-3.272-2.322-6.63-1.049-8.752,2.38-2.837,4.584-5.493,9.28-8.24,13.919-3.5,5.9-6.8,11.937-10.549,17.675-8.929,13.66-31.049,11.1-40.5,1.774a3.128,3.128,0,0,1-.915-1.139c-3.082-10.792-7.206-21.527-1.675-32.775,4.9-9.961,15.084-12.644,24.275-6.2,1.039.728,2.259,2.532,2.019,3.493-.676,2.7-2.634,1.345-4.485.973-6.266-1.259-11.62,1.994-13.1,8-1.653,6.7-.211,12.615,5.285,17.213,3.757,3.143,8.043,3.948,12.33,1.755,6.609-3.38,12.83-7.535,15.806-14.733,1.784-4.316,4.042-7.635,8.646-9.282,1.743-.623,3.121-2.323,4.608-3.6a37.922,37.922,0,0,1,20.98-9.187c.488-.053.979-.083,1.469-.1,3.641-.093,6.508-5.166,10.707-1.664-1.52,2.849-3.058,5.688-4.553,8.549-.974,1.864.951,2.464,1.641,3.6Q217,341.156,216.7,341.419Z"/><path d="M382.792,293.352a11.105,11.105,0,0,1-3.529,10.274c-2.315,2.1-4.9,3.079-7.912,1.784-2.564-1.1-3.119-3.428-3.259-5.942a31.772,31.772,0,0,1,2.119-14.219c1.466-3.543.055-7.825,2.552-11.159.56-.749,1.4-1.737,2.147-1.774a3.144,3.144,0,0,1,2.27,1.572C380.341,279.894,383.155,286.032,382.792,293.352Z"/><path d="M172.762,267.486c.757,6.178-6.493,12.242-12.218,10.219a8.062,8.062,0,0,1-5.172-7.8c.249-2.65,1.891-4.166,4.431-4.925,2.25-.673,4.374-1.854,6.655-2.311C168.924,262.177,172.473,265.136,172.762,267.486Z"/><path d="M50.127,121.311a5.45,5.45,0,0,1,.077-1.163c1-.131.912.239-.291.986Z"/><path d="M155.612,73.745l.658-.178s-.849.037-.861.029Z"/></svg>