<svg xmlns="http://www.w3.org/2000/svg" viewBox="0 0 400 400"><defs><style>.a{fill:#1c1c1c;}.b{fill:#fafafa;}</style></defs><path class="a" d="M240.143,178.219c-.479-.1-1.082-.449-1.418-.275-7,3.607-13.831,2.7-21.325-1.932,1.707,3.108,3.174,3.911,5.239,4.365,7.3,1.6,9.217,4.065,8.664,10.289-.263,2.963-.743,5.84-2.7,8.222a9,9,0,0,0-2.406,7.612c.6,5.491-6.311,9.937-12.181,8.624a4.39,4.39,0,0,1-3.564-4.2c.091-5.5,2.53-11.192-2.009-16.221-.4-.448.788-3.516,1.615-3.7,5.837-1.32,7.087-2.873,1.777-7.259-1.707-1.411-1.221-5.376-1.974-8.107a2.551,2.551,0,0,0-1.958-1.512,3.092,3.092,0,0,0-1.968,1.8,4.054,4.054,0,0,0,.183,2.839c1.695,3.588-.006,5.629-3.129,6.768-2.283.833-4.775,1.074-7.127,1.746-2.793.8-5.481,3.734-4.346,4.526,1.884,1.312,3.595.5,5.437-.35a14.559,14.559,0,0,1,5.468-1.6c4.064-.1,7.157,4.394,5.1,7.726-2.484,4.029-3.17,7.347-1.381,12.206,1.784,4.844-3.773,10.188-9.114,10.139-2.919-.026-5.836-.357-8.754-.343a27.227,27.227,0,0,0-4.62.886c2.61.724,4.878,1.323,7.128,1.984a33.8,33.8,0,0,0,26.882-2.869c6.443-3.5,6.936-2.863,9.048,5.342a12.561,12.561,0,0,0,1.364,2.493c3.292-.706,6.594-1.475,9.921-2.113,4.082-.783,8.122-.066,11,2.781,5.4,5.334,12.06,8.2,18.849,10.981,4.945,2.026,7.654,5.917,9,10.879s-.389,9.923-3.9,11.556a11.3,11.3,0,0,1-13.282-2.961c-1.178-1.447-1.463-3.588-2.445-5.24a3.6,3.6,0,0,0-2.386-1.167c-1.433-.213-1.831.473-1.276,1.688a6.393,6.393,0,0,1,.318,5.607c-1,2.143-.626,3.7,1.859,4.328a13.839,13.839,0,0,0,2.859.572c6.358.217,7.895,4.611,8.376,10.171,3.618-1.254,2.248-4.99,4.057-6.752a3.312,3.312,0,0,1,2.518-.86,2.913,2.913,0,0,1,1.912,1.735c1.272,4.859.494,9.691-.426,14.523-1,5.278-1.838,10.588-2.794,15.876-2.815,15.56,4.876,26.047,16.453,34.91,2.621,2.006,5.422,1.9,8.206,2.558,5.48,1.294,8.025,10.788,2.21,13.906-2.9,1.552-5.2,4.917-9.118,3-2.151-1.051-3.662-.075-5.341.945-1.221.742-2.744,2.088-3.8,1.826-7.587-1.889-15.88-3.461-20.918-9.643-3.81-4.675-7.331-8.345-13.048-10.835-6.42-2.8-8.39-11.041-3.535-16.069,8.234-8.527,2.827-16.84,1.393-25.3a12.325,12.325,0,0,0-2.779-5.131c-4.952-6.231-6.517-12.988-3.928-20.652.21-.622-.8-1.655-1.241-2.5,4.178,2.474,5.51-.543,6.768-3.568.1-.235-.383-1.01-.677-1.061-2.926-.514-3.875,2.024-5.394,3.65a3.885,3.885,0,0,0-.506,1.307c-5.308.167-10.284,3.347-15.857,1.483-3.161-1.058-5.247-3.374-4.071-6.428,2.954-7.674,1.1-16.584,6.2-23.675a2.348,2.348,0,0,0-.985-.892c-.427-.126-1.251-.071-1.394.186-1.165,2.1-3.018,4.224-3.149,6.43-.514,8.627-4.464,15.826-8.372,23.176-2.047,3.85-3.266,8.134-5.012,12.155-.75,1.727-1.661,3.54-4,3.632-1.229.19-1.566-.387-1.533-1.747.351-14.319-3.827-27.9-7-41.628-.167-.726-1.354-1.216-2.065-1.814l-.2-.6.048.358c.887,3.743,1.913,7.46,2.632,11.236,1.374,7.215,1.822,13.969-3.418,20.521-3.79,4.741-3.462,11.845-7.4,16.976-3.015,3.932-2.952,4.355-8.914,1.052-1.721-.954-2.7-.6-3.638.138a36.06,36.06,0,0,0-3.951,4.182c-2.128.846-4.258,1.69-7.7,3.054,4.416,1.646,7.235,2.317,9.81-.547,1.486,1.519,2.366,3.244.507,4.949-4.71,4.322-9.669,8.231-16.192,9.6a73.445,73.445,0,0,0-8.437,2.566c-10.827,3.682-14.866,11.852-11.352,22.894.688,2.163,2.413,2.764,4.475,3.007,5.026.6,5.983,4.4,6.36,8.473.375,4.033-2.419,6.952-6.18,5.58-3.586-1.308-6.021-.4-9.441.568-7.623,2.165-15.72,4.451-23.463-.582-4.737-3.079-7.212-8.038-6.1-13.718a25.244,25.244,0,0,1,1.717-5.611,98.256,98.256,0,0,0,7.993-28.089c.537-4.07,2.925-8.364,7.418-7.626,5.706.936,7.7-1.108,9.11-6.034a58.152,58.152,0,0,1,4.763-10.725c5.845-11.164,8.895-12.658,22.261-11.332.52-.76,1.523-1.544,1.487-2.278-.621-12.87,3.672-23.77,11.7-33.85a46.223,46.223,0,0,0,8.5-16.978c2.617-9.951-.451-17.446-9.856-21.439a4.1,4.1,0,0,0-5.067,1.857c-2.693,4.057-5.26,7.988-9.376,11.081-5.775,4.342-13.212,6.094-17.8,12.464-1.931,2.683-6.363,1.833-9.8,1.237-8.327-1.444-15.587-5.69-23.3-8.768-14.507-5.789-22.281-18.566-31.452-29.858a11.211,11.211,0,0,1-.933-12.558c2.334-4.3,4.614-8.235,4.289-13.4a5.926,5.926,0,0,1,4.086-5.668,42.346,42.346,0,0,0,12.458-6.714c2.6-1.935,7.128-.456,9.124,2.3,1.7,2.348,3.042,4.957,4.736,7.311.193.269,1.634-.359,2.5-.571l-.268-.345c-2.339,3.226-1.529,4.862,3.075,6.212l-.265-.167c-.365,6.616,4.831,12.346,3.1,19.234-.122.486,1.138,1.906,1.754,1.905,8.973,0,15.963,5.564,23.944,8.305.341.117.875-.327,1.306-.5,1.95.012-.857-.727-.173,1.112l-.056-.905c-.746-2.535-3.011-3.658-4.754-5.326-5.554-5.318-5.578-9.782-.387-14.914a6.915,6.915,0,0,0,1.05-1.02c2.2-3.447,8.262-1.735,9.166-6.308.644-3.257-.375-6.805-.231-10.206.607-14.269,7.865-20.434,22.839-19.666a15.734,15.734,0,0,0,3.318-.75c-5.678-3.566-12.751-4.4-15.406-10.978-.543-1.346-1.111-2.688-1.547-4.07-.659-2.089,1.1-2.6,2.357-2.7,4.851-.356,9.172,3.895,14.369,1.664.378-4.17-3.794-4.939-5.714-7.395-5.532-7.076-6.092-13.335-1.627-20.2a12.978,12.978,0,0,1,2.875-3.224c2.829-2.159,11.15-4.332,18.034-4.915-.887,4.365-5.487,4.978-7.761,7.872-2.676,3.405-1.488,7.776,2.548,9.5,3.287,1.406,6.647,1.384,10.082,1.347,12.233-.133,24.467-.3,36.7-.266,4.859.013,9.719.75,14.576.722,3.631-.02,6.027-4.349,4.344-7.513a24.485,24.485,0,0,0-3.47-4.653c-1.258-1.405-2.741-2.607-4.154-3.925,2.172-3.325,5.377-1.973,7.839-1.773a15.815,15.815,0,0,1,13.94,20.9c-1.481,4.577-2.681,9.489-7.007,12.375,2.855,4.1,6.595,2.441,9.667,3.156,3.8.885,4.013,2.841,1.967,6.3-2.666,4.508-8.378,4.7-11.248,8.476,1.894,3.543,5.13,4.952,7.912,6.912,5.572,3.928,7.359,9.975,9.285,16.079,1.1,3.5-4.719,6.938-1.055,9,3.893,2.192,7.674,5.729,12.8,5.38l-.3-.34c-1.7,1.808-.661,3.469.434,4.955,2.547,3.457,4.925,4.13,6.721,1.319,5.117-8.012,13.874-11.177,20.914-16.6,3.386-5.717,2.1-10.983-1.541-16.024-3.291-5-.554-9.907.238-14.843l-.271.311c4.706-.237,6.268-3.768,8.26-7.284,3.114-5.5,4.618-5.754,10.7-4.48,2.278.478,4.366,4.32,6.884,1.237.121-2.384-1.415-2.983-2.571-3.806-2.7-1.926-2.584-4.057-.046-5.684,5.523-3.541,9-2.654,12.193,2.631A19.753,19.753,0,0,1,339.932,116c1.318,11.452-.129,22.259-6.106,32.325-1.978,3.331-2.535,3.558-6.642.816-1.339-.894-2.137-3.308-4.321-1.646,0,1.074-.38,2.275.058,2.926,6.709,9.972,3.78,19.64-.967,29.139a77.1,77.1,0,0,1-6.27,9.885c-3.635,5.133-7.454,10.135-11.194,15.192l.27-.316c-4.514.152-5.943,4.621-9.185,6.576a6,6,0,0,1-7.826-.97c-2.966-3.113-3.105-8.152-7.131-10.5-3.082-.165-2.667,2.364-2.913,3.94a22.08,22.08,0,0,0,.176,5.777c.327,2.9-1.23,4.657-3.612,5.531-2.488.913-5.509-.017-6.484-1.968-4.5-9-12.774-12.8-21.227-16.515a13.517,13.517,0,0,1-1.332-.578c-8.053-4.663-9.044-7.906-5.4-17.625,2.842-.592,2.9-3.365,4.073-5.251.191-.3.307-.967.136-1.134-.817-.8-1.667-.628-2.352.378C240.4,173.866,238.707,175.66,240.143,178.219Zm-67.829-6.14-3.258-2.829c-1.706-6.1-6.505-6.265-11.529-6.015-3.792.188-5.146,1.607-3.6,5.438,1.634,4.039,1.432,7.255-.961,10.8-1.516,2.246-2.361,4.945-3.979,8.471,7.38-3.111,10.388-7.517,9.914-14.623-.5-7.515-.122-7.628,7.66-5.161.916.29,1.844.547,2.766.822.446,1.686,1.089,3.141,3.271,2.8-.67,3.02-.484,6.045,2.177,7.883,3.981,2.753,8.03,2.193,13.6-1.228Q180.332,175.243,172.314,172.079Zm31.433-55.291c-.556-.76-.978-2-1.69-2.2-4.657-1.294-9.365-2.418-14.095-3.411-.426-.089-1.221,1.095-1.659,1.8a1.335,1.335,0,0,0,.305,1.28c3.7,2.143,6.777,5.631,11.466,5.65a10.476,10.476,0,0,0,4.193-.936C202.95,118.667,203.266,117.545,203.747,116.788Zm22.665,36.9c-8.611-5.661-12.928-5.541-21.663,0Zm-103.929,51.45c2.758,1.373,5.59,2.07,7.794-.629.731-.9.758-2.777.432-4.033-.589-2.267-2.324-1.318-3.317-.415C125.669,201.625,122.871,202.22,122.483,205.135Zm97.2-75.1c1.207-.845,2.124-1.213,2.6-1.889a1.339,1.339,0,0,0-.715-2.248,31.709,31.709,0,0,0-5.459-.426c-1.441,0-1.853.926-.766,1.816A37.836,37.836,0,0,0,219.687,130.03Zm6.045-10.232a7.627,7.627,0,0,0,6.2-2.562c.6-.67,1.349-1.664,1.245-2.4-.2-1.436-1.419-2.067-2.923-2.158-2.423-.147-4.721.051-6.407,2.047-.915,1.082-1.472,2.414-.432,3.664A8.483,8.483,0,0,0,225.732,119.8Zm-140,41.817,2.647-3.155a7.513,7.513,0,0,0-2.681-.7c-1.215.158-3.28,0-2.509,2.251C83.418,160.677,84.687,160.988,85.733,161.615Zm84.211-23.056c-.648-1.334-1.538-2.14-3.119-1.691-1.315.374-2.582.735-2.8,2.419-.236,1.821.994,2.439,2.34,2.575C168.671,142.1,169.462,140.414,169.944,138.559Zm71.521,8.587c1.671-1.148,3.195-2.482,3.123-4.525-.042-1.218-1.041-1.244-2.015-.552-1.153.821-2.5,1.5-2.345,3.113C240.291,145.863,241.025,146.482,241.465,147.146ZM82.507,174.505l2.1-.907c-.422-.2-.885-.615-1.259-.546a10.713,10.713,0,0,0-2.1.828Z"/><path class="a" d="M275.452,166.443c-.535-4.9-.418-9.608,1.419-14.409a213.135,213.135,0,0,1,17.083-35.575,94.923,94.923,0,0,1,24.7-26.724,32.888,32.888,0,0,1,7.718-4.014c16.753-6.519,23.787-.518,27.9,15.118a55.73,55.73,0,0,1,.8,24.8c-3.659,18.8-9.578,36.751-19.218,53.536-6.821,11.876-13.333,23.735-22.873,33.819-5.526,5.842-12.321,9.619-18.87,13.7-6.7,4.172-13.252,1.595-19.8-6.17,2.434-2.355,5.491-1.266,8.232-1.286,9.681-.072,16.529-5.153,22.313-12.181.432-.525-.047-1.8-.1-2.727l-.27.316c4.723.418,6.633-3.254,9.08-6.2,12.715-15.284,20.419-33.055,26.646-51.749,4.157-12.479,3.365-25.095,3.137-37.761a12.053,12.053,0,0,0-5.536-9.909c-1.553-1.034-3.762-2.247-5.329-1.885-5.664,1.308-12.4,1.668-16.011,6.468-5.232,6.954-16.259,10.121-14.833,21.612l.271-.311c-7.388,3.656-9.647,10.73-11.882,17.821-4.141,1.99-2.264,5.892-2.862,9.007-4.449,1.971-4.837,6.226-5.776,10.194-.778,3.289-3.165,4.275-6.246,4.172Z"/><path class="a" d="M101.736,151.709c1.049-7.611-1.613-15.538,2.058-22.978.477-.967-.188-2.835-.865-3.961-1.237-2.057-3.754-3.692-4.188-5.818-1.347-6.6-6.785-7.647-11.605-9.9-2.919-1.367-4.754.079-6.278,1.831-1.208,1.388-1.7,3.414-2.443,5.186-.769,1.835-1.631,3.981-4.047,2.609-7.8-4.43-14.829-1.769-22.57,3.624-.1-8.872-2.672-14.831-10.067-17.695-1.161-.45-2.075-1.929-.386-3.353,7.381-6.22,6.81-13.992,3.615-21.8,2.979-1.818,5.306-.543,7.624-.149,2.457.417,5.459,1.129,7.071-.608,4.84-5.218,7.949-3.966,12.256,1.027,2.633,3.052,7.487,4.188,11.334,6.179C79.367,97.27,79.73,97.953,91.661,97.524c4.732-.17,7.8,2.12,9.123,5.833a14.254,14.254,0,0,0,7.135,8.437c3.711,2.121,6.084,6.257,3.747,11.355-.768,1.678-1.461,4.381-.657,5.625,4.809,7.441-1.174,14.211-.812,21.252.238,4.642-3.745,5.108-5.919,7.382l.265.168c1.5-3.323.147-5.229-3.075-6.212Z"/><path class="a" d="M286.878,151.46a8,8,0,0,0,2.924-8.887c4.363.394,7.444-4.464,12.082-2.949l-.711,14.318c-4.386,1.468-7.624,5.592-12.689,5.5C286.234,157.117,287.1,154.179,286.878,151.46Z"/><path class="b" d="M301.644,125.22c-1.426-11.491,9.6-14.658,14.833-21.612,3.612-4.8,10.347-5.16,16.011-6.468,1.567-.362,3.776.851,5.329,1.885a12.053,12.053,0,0,1,5.536,9.909c.228,12.666,1.02,25.282-3.137,37.761-6.227,18.694-13.931,36.465-26.646,51.749-2.447,2.942-4.357,6.614-9.08,6.2,3.74-5.057,7.559-10.059,11.194-15.192a77.1,77.1,0,0,0,6.27-9.885c4.747-9.5,7.676-19.167.967-29.139-.438-.651-.058-1.852-.058-2.926,2.184-1.662,2.982.752,4.321,1.646,4.107,2.742,4.664,2.515,6.642-.816,5.977-10.066,7.424-20.873,6.106-32.325a19.753,19.753,0,0,0-2.872-8.169c-3.188-5.285-6.67-6.172-12.193-2.631-2.538,1.627-2.658,3.758.046,5.684,1.156.823,2.692,1.422,2.571,3.806-2.518,3.083-4.606-.759-6.884-1.237-6.078-1.274-7.582-1.016-10.7,4.48C307.912,121.452,306.35,124.983,301.644,125.22Z"/><path class="b" d="M275.149,166.1c3.081.1,5.468-.883,6.246-4.172.939-3.968,1.327-8.223,5.776-10.194l-.293-.277c.223,2.719-.644,5.657,1.606,7.978,5.065.1,8.3-4.028,12.689-5.5q1,.951,2.05,1.837c-7.045,5.421-15.8,8.586-20.919,16.6-1.8,2.811-4.174,2.138-6.721-1.319C274.488,169.572,273.451,167.911,275.149,166.1Z"/><path class="b" d="M169.331,168.979c-.922-.272-1.85-.529-2.766-.819-7.782-2.467-8.162-2.354-7.66,5.161.474,7.106-2.534,11.512-9.914,14.623,1.618-3.526,2.463-6.225,3.979-8.471,2.393-3.545,2.595-6.761.961-10.8-1.55-3.831-.2-5.25,3.6-5.438,5.024-.25,9.823-.084,11.529,6.015Z"/><path class="b" d="M203.748,116.79c-.482.755-.8,1.877-1.481,2.183a10.476,10.476,0,0,1-4.193.936c-4.689-.019-7.769-3.507-11.466-5.65a1.335,1.335,0,0,1-.305-1.28c.438-.708,1.233-1.892,1.659-1.8,4.73.993,9.438,2.117,14.1,3.411C202.769,114.785,203.191,116.028,203.748,116.79Z"/><path class="b" d="M226.412,153.685H204.749C213.484,148.144,217.8,148.024,226.412,153.685Z"/><path class="b" d="M290.033,142.729c2.235-7.09,4.494-14.164,11.882-17.82-.792,4.936-3.529,9.841-.238,14.843l.207-.128c-4.638-1.515-7.719,3.343-12.082,2.949Z"/><path class="b" d="M172.327,172.067l16.048,6.367c-5.566,3.421-9.615,3.981-13.6,1.228-2.661-1.838-2.847-4.863-2.184-7.876C172.588,171.792,172.327,172.067,172.327,172.067Z"/><path class="b" d="M122.483,205.135c.388-2.915,3.186-3.51,4.909-5.077.993-.9,2.728-1.852,3.317.415.326,1.256.3,3.138-.432,4.033C128.073,207.205,125.241,206.508,122.483,205.135Z"/><path class="b" d="M219.687,130.03a37.836,37.836,0,0,1-4.336-2.747c-1.087-.89-.675-1.82.766-1.816a31.709,31.709,0,0,1,5.459.426,1.339,1.339,0,0,1,.715,2.248C221.811,128.817,220.894,129.185,219.687,130.03Z"/><path class="b" d="M225.732,119.8a8.483,8.483,0,0,1-2.319-1.408c-1.04-1.25-.483-2.582.432-3.664,1.686-2,3.984-2.194,6.407-2.047,1.5.091,2.721.722,2.923,2.158.1.735-.648,1.729-1.245,2.4A7.627,7.627,0,0,1,225.732,119.8Z"/><path class="b" d="M240.143,178.219c-1.436-2.559.254-4.353,1.539-6.239.685-1.006,1.535-1.173,2.352-.378.171.167.055.829-.136,1.134-1.177,1.886-1.231,4.659-4.073,5.251Z"/><path class="b" d="M85.733,161.615c-1.046-.627-2.315-.938-2.543-1.605-.771-2.251,1.294-2.093,2.509-2.251a7.513,7.513,0,0,1,2.681.7Z"/><path class="b" d="M301.677,139.752c3.641,5.041,4.927,10.307,1.541,16.024q-1.047-.881-2.045-1.834l.711-14.318Z"/><path class="b" d="M236.977,266.372a3.885,3.885,0,0,1,.506-1.307c1.519-1.626,2.468-4.164,5.394-3.65.294.051.774.826.677,1.061-1.258,3.025-2.59,6.042-6.768,3.568Z"/><path class="b" d="M169.944,138.559c-.482,1.855-1.273,3.537-3.579,3.3-1.346-.136-2.576-.754-2.34-2.575.218-1.684,1.485-2.045,2.8-2.419C168.406,136.419,169.3,137.225,169.944,138.559Z"/><path class="b" d="M241.465,147.146c-.44-.664-1.174-1.283-1.237-1.964-.15-1.617,1.192-2.292,2.345-3.113.974-.692,1.973-.666,2.015.552C244.66,144.664,243.136,146,241.465,147.146Z"/><path class="b" d="M82.507,174.5l-1.266-.624a10.713,10.713,0,0,1,2.1-.828c.374-.069.837.349,1.259.547Z"/><path class="b" d="M167.008,293.623c-2.575,2.864-5.394,2.193-9.81.547,3.44-1.364,5.57-2.208,7.7-3.054Z"/><path class="b" d="M101.468,151.364c3.222.983,4.58,2.889,3.075,6.212C99.939,156.226,99.129,154.59,101.468,151.364Z"/><path class="b" d="M169.056,169.25q1.629,1.415,3.265,2.823c.006-.006.267-.281.274-.287-2.175.337-2.818-1.118-3.264-2.805Z"/><path class="b" d="M134.15,186.561l.056.905c-.684-1.839,2.123-1.1.173-1.112C134.393,186.343,134.15,186.561,134.15,186.561Z"/><polygon class="b" points="189.58 237.011 189.532 236.653 189.734 237.25 189.58 237.011"/></svg>