<svg xmlns="http://www.w3.org/2000/svg" viewBox="0 0 400 400"><defs><style>.a{fill:#fafafa;}</style></defs><path d="M204.929,237.964c-3.946,4.938-7.467,10.289-12.843,13.878-2.52,1.683-5.261,2.462-8.286,1.1a39.873,39.873,0,0,0-6.766-2.671c-4.671-1.138-10.446,1.717-14.081-2.041-3.183-3.291-2.29-9.246-6.321-12.718-2.074-1.787-.287-4.045,1.274-4.712,5.3-2.266,7.741-6.019,9.806-11.479,2.053-5.426,8.006-8.514,13.831-9.956,8.259-2.044,14.959-7.158,22.261-10.968,4.444-2.319,11.556-4.908,7.394-12.928,1.57-5.063,3.009-10.173,4.787-15.163.543-1.523.919-3.139-.06-4.051-4.143-3.859-5.36-9.114-7.357-14.032a2.546,2.546,0,0,0-2.382-.8,2.9,2.9,0,0,0-1.1,2.468,52.455,52.455,0,0,0,2.771,9.809c6.376,14.353-2.205,31.487-15.862,35.679-7.657,2.35-14.1,6.611-21.153,9.864-4.769,2.2-8.068,4.788-7.985,10.581.041,2.836-2.34,4.406-4.958,4.267-5.257-.28-10.425-2.655-15.756.444-1.177.684-4.2-.195-5.344-1.362-3.6-3.685-7.558.429-11.1-1.009-3.751-1.522-4.032-6.862-8.447-7.706-6.471-1.237-7-5.818-6.292-11.151a11.523,11.523,0,0,0-.349-2.891,9.882,9.882,0,0,0,2.029-1.73c.736-1.082,1.473-2.47.17-3.56-1.482-1.239-2.379.148-3.128,1.168a13.988,13.988,0,0,0-1.18,2.461c-14.417-4.895-27.621-12.406-40.869-19.66C54.893,172.124,51.5,161.224,57.2,149.532a18.988,18.988,0,0,1,3.318-4.745c5.823-6.072,10.1-6.5,16.417-.776,10.136,9.195,20.138,18.566,29.715,28.333,4.222,4.305,11.676,5.916,12.041,13.747.069,1.483,1.665,2.232,3.133,1.2,1.185-.832,2.034-2.146,3.225-2.964,4.493-3.087,10.27-3.749,13.681-.3,6.648,6.724,11.877,3.081,18.083-.025a45.54,45.54,0,0,0-10.218-17.9c-9.746-10.656-9.487-21.981.388-32.424,2.815-2.976,5.2-5.443,4.724-9.985-.587-5.63,2.952-9.155,7.6-11.445,12.552-6.182,26-8.427,39.863-8.416,1.772,0,4.437.735,5.157,2,3,5.268,5.951,3.737,9.933,1.212,1.918-1.216,5.125-.19,6.59,1.925,2.656,3.834,6.171,3.928,10.256,3.742,8.624-.394,14.854,3.372,19.04,11.118,3.507,6.49,6.819,12.642,6.968,20.493.2,10.305-2.794,18.3-12.194,23.039-3.007,1.515-4.589,3.193-4.337,6.636.488,6.654-1.977,12.838-5.546,17.9-2.678,3.8-2.815,6.41-1.556,10.484.956,3.09.11,6.737.066,10.136l.27-.324c-1.163.666-2.629,1.077-3.441,2.039-6.5,7.713-13.6,14.585-23.317,18.2-2.708,1.007-3.171,3.22-2.38,5.807Zm-34.1-100.319-.7,2.225c2.7.941,5.6,1.536,8.059,2.906,3.543,1.969,6.767,1.655,9.348-1.017,3.013-3.12,8.838-2.209,10.224-7.411-4.4-4.522-7.369,1.69-11.367,1.584C181.23,135.794,176.024,137.011,170.833,137.645Zm20.193,55.24c.461-3.9-2.994-9.189-7.579-10.892-.84-.312-3.161.868-3.345,1.686-1.344,5.973,2.011,10.728,7.58,11.166A3.193,3.193,0,0,0,191.026,192.885Zm7.227-71.121c.421-2.261-1.093-2.941-2.457-3.17-3.576-.6-6.616,1.37-9.663,2.753-.915.415-1.2,2.4-1.506,3.73a3.955,3.955,0,0,0,2.454,1.009,95.107,95.107,0,0,0,9.886-2.42C197.615,123.47,197.951,122.238,198.253,121.764Zm29.811,2.888c-.489-.735-.949-2.08-1.473-2.105-2.932-.14-5.609.7-6.82,3.687a2.476,2.476,0,0,0,1.462,3.366C224.321,130.57,227.939,127.83,228.064,124.652Zm-65.552,5.529c.906-.058,1.885-.053,2.842-.2,1.4-.211,3.019-.455,3.037-2.258.017-1.709-1.321-2.415-2.894-2.5a13.809,13.809,0,0,0-2.9.133c-1.5.236-2.943.894-3.042,2.553C159.451,129.726,161.026,129.989,162.512,130.181Zm75.984,9.558c-.7-2.02-2.062-3.263-4.249-2.85a3.073,3.073,0,0,0-2.786,2.884,3.461,3.461,0,0,0,3.452,3.756C236.963,143.512,238.071,141.747,238.5,139.739Zm-.386-11.494a10.859,10.859,0,0,0,3.109-1.883c1.1-1.257-.729-3.427-3.091-3.365a6.228,6.228,0,0,0-3.723,1.443C233.45,125.3,235.793,128.009,238.11,128.245Zm-81.9,32.018c-.328-2.224-1.948-3.2-3.865-3.562a2.393,2.393,0,0,0-2.87,2.305c-.322,2.62,1.81,3.085,3.636,3.325A2.769,2.769,0,0,0,156.205,160.263Zm92.509-22.051c.061-2.312-1.53-3.007-3.523-2.831-.709.063-1.882,1.011-1.9,1.588-.066,1.917.626,3.61,2.939,3.834C247.988,140.974,248.4,139.714,248.714,138.212Zm-1.621,15.041c-.648-1.343-1.969-2.264-3.1-1.624-.806.459-.981,2.161-1.2,3.352a3.767,3.767,0,0,0,2.223.781C246.287,155.579,247.7,155.124,247.093,153.253Z"/><path d="M233.546,212.519c.835-.416,2.323-.728,2.408-1.264,1.4-8.729,5.2-16.853,6.9-25.374,1.9-9.532,7.86-15.414,14.359-21.343,2.6-2.373,6.1-1.789,6.946,1.568,2.923,11.649,9.474,22.754,5.561,35.541-.531,1.735.392,3.866.35,5.808-.192,8.835-.635,17.628-5.848,25.321a17.256,17.256,0,0,0-1.237,2.644c-6.482,14.4-6.645,14.514,2.613,27.359,5.866,8.139,11.094,16.284,8.792,26.955-.587,2.718.282,4.648,2.291,6.434a38.144,38.144,0,0,1,6.1,6.2c4.737,6.739,4.048,9.444-3.777,13.038-2.85,1.309-4.523,3.475-6.721,5.318-6.13,5.139-13.188,8.215-21.432,6.584-2.974-.588-5.751-1.179-8.44.674a4.461,4.461,0,0,1-5.472-.186c-4.386-3.491-8.612-2.848-13.518-.99-4.062,1.54-6.645.038-8.479-3.628-1.08-2.16-1.432-4.68-2.485-6.858s-2.329-3.671-5.594-2.739c-9.778,2.79-20.2,2.852-29.736,6.863-1.305.549-2.989.192-4.3.737-3.075,1.28-5.367,5.949-8.761,4.434-7.527-3.359-16.523-1.984-23.262-7.888-2.446-2.144-4.125-4.027-3.678-7.255.459-3.31,2.841-5.867,5.7-5.9,8.472-.1,14.148-6.283,21.4-8.916,3.229-1.172,3.974-3.493,3.057-7.01-2.7-10.364-.5-20.385,3.062-30.167,1.309-3.593,4.727-4.854,8.105-2.4,4.308,3.128,8.58,4.546,13.69,2.775,3.972-1.377,5.064.974,5.806,4.206,1.528,6.655,2.683,13.448,6.773,19.234.818,1.157,1.781,2.826,1.534,4.022-1.88,9.1,6.02,16.181,3.738,25.444,4.133-.749,6.994-1.73,9.841-1.694,7.789.1,12.352-5.249,17.209-9.9a7.693,7.693,0,0,0,2.067-8.108c-1.793-5.588-2.626-11.645-5.291-16.762-6.418-12.321-4.662-24.233-.07-36.4,1.679-4.449-.22-6.641-4.816-5.838-3.723.651-7.271,2.805-11.308,1.218,1.395-4.222,6.022-4.847,8.477-7.69,3.6-4.165,9.637-7.233,7.72-14.4Zm12.233,23.131c-1.762.547-3.707.791-5.239,1.718-1.882,1.139-1.972,3.1-.475,4.721,1.578,1.71,3.384,1.155,4.932-.151,2.324-1.959.4-4.354.536-6.541,2.524-1.426,5.981.482,8.091-2.193a3.027,3.027,0,0,0,.549-2.539,3.326,3.326,0,0,0-2.243-1.476C246.737,228.277,247.754,233.406,245.779,235.65Zm14.412-38.84c3.214-.39,4.858-4.506,3.08-8.073a3.775,3.775,0,0,0-2.156-1.659,3,3,0,0,0-3.549,1.736,6.576,6.576,0,0,0,.283,6.872C258.267,196.306,259.389,196.452,260.191,196.81Zm1.186,10.669c-3.133.416-4.192,1.946-3.9,3.9a3.709,3.709,0,0,0,3.757,3.413c2.455-.024,2.932-1.944,2.648-3.777C263.61,209.257,262.983,207.33,261.377,207.479Zm-13.744,10.494c-1.86.373-2.125,1.539-1.675,3a1.446,1.446,0,0,0,2.267.966c1.285-.612,2.315-1.605,1.7-3.033C249.671,218.326,248.317,218.227,247.633,217.973Z"/><path d="M204.678,238.239l10.919,2.9a39.945,39.945,0,0,1,5.577,1.542c2.5,1.076,4.579,5.949,4.024,8.759-.436,2.209-3.983,4.445-6.994,4.206a21.856,21.856,0,0,1-5.711-1.014c-3.13-1.139-6.7-1.4-9.27-4.257.026-4.126,3.4-7.949,1.7-12.406C204.929,237.964,204.678,238.239,204.678,238.239Z"/><path class="a" d="M170.833,137.645c5.191-.634,10.4-1.851,15.568-1.713,4,.106,6.967-6.106,11.367-1.584-1.386,5.2-7.211,4.291-10.224,7.411-2.581,2.672-5.805,2.986-9.348,1.017-2.463-1.37-5.357-1.965-8.059-2.906Z"/><path class="a" d="M191.026,192.885a3.193,3.193,0,0,1-3.344,1.96c-5.569-.438-8.924-5.193-7.58-11.166.184-.818,2.5-2,3.345-1.686C188.032,183.7,191.487,188.988,191.026,192.885Z"/><path class="a" d="M198.253,121.764c-.3.474-.638,1.706-1.286,1.9a95.107,95.107,0,0,1-9.886,2.42,3.955,3.955,0,0,1-2.454-1.009c.3-1.328.591-3.315,1.506-3.73,3.047-1.383,6.087-3.354,9.663-2.753C197.16,118.823,198.674,119.5,198.253,121.764Z"/><path class="a" d="M228.063,124.653c-.124,3.177-3.742,5.917-6.83,4.947a2.476,2.476,0,0,1-1.462-3.366c1.211-2.986,3.888-3.827,6.82-3.687C227.115,122.572,227.575,123.917,228.063,124.653Z"/><path class="a" d="M162.512,130.181c-1.486-.192-3.061-.455-2.952-2.272.1-1.659,1.543-2.317,3.042-2.553a13.809,13.809,0,0,1,2.9-.133c1.573.087,2.911.793,2.894,2.5-.018,1.8-1.641,2.047-3.037,2.258C164.4,130.128,163.418,130.123,162.512,130.181Z"/><path class="a" d="M238.5,139.741c-.425,2.006-1.533,3.771-3.583,3.788a3.461,3.461,0,0,1-3.452-3.756,3.073,3.073,0,0,1,2.786-2.884C236.434,136.476,237.8,137.719,238.5,139.741Z"/><path class="a" d="M238.11,128.245c-2.317-.236-4.66-2.947-3.705-3.805A6.228,6.228,0,0,1,238.128,123c2.362-.062,4.189,2.108,3.091,3.365A10.859,10.859,0,0,1,238.11,128.245Z"/><path class="a" d="M156.2,160.26a2.762,2.762,0,0,1-3.095,2.071c-1.826-.24-3.958-.7-3.636-3.325a2.393,2.393,0,0,1,2.87-2.305C154.257,157.064,155.877,158.039,156.2,160.26Z"/><path class="a" d="M248.714,138.212c-.313,1.5-.726,2.762-2.487,2.591-2.313-.224-3-1.917-2.939-3.834.021-.577,1.194-1.525,1.9-1.588C247.184,135.205,248.775,135.9,248.714,138.212Z"/><path class="a" d="M247.093,153.253c.608,1.871-.806,2.326-2.069,2.509a3.767,3.767,0,0,1-2.223-.781c.215-1.191.39-2.893,1.2-3.352C245.124,150.989,246.445,151.91,247.093,153.253Z"/><path class="a" d="M108.5,198.759a13.988,13.988,0,0,1,1.18-2.461c.749-1.02,1.646-2.407,3.128-1.168,1.3,1.09.566,2.478-.17,3.56a9.882,9.882,0,0,1-2.029,1.73Q109.526,199.627,108.5,198.759Z"/><path class="a" d="M260.19,196.813c-.8-.361-1.923-.507-2.341-1.127a6.576,6.576,0,0,1-.283-6.872,3,3,0,0,1,3.549-1.736,3.775,3.775,0,0,1,2.156,1.659C265.049,192.3,263.4,196.42,260.19,196.813Z"/><path class="a" d="M261.377,207.479c1.606-.149,2.233,1.778,2.5,3.533.284,1.833-.193,3.753-2.648,3.777a3.709,3.709,0,0,1-3.757-3.413C257.185,209.425,258.244,207.9,261.377,207.479Z"/><path class="a" d="M245.527,235.4c-.133,2.189,1.794,4.584-.53,6.543-1.548,1.306-3.354,1.861-4.932.151-1.5-1.623-1.407-3.582.475-4.721,1.532-.927,3.477-1.171,5.239-1.718Z"/><path class="a" d="M245.779,235.65c1.975-2.244.958-7.373,6.151-6.461a3.326,3.326,0,0,1,2.243,1.476,3.027,3.027,0,0,1-.549,2.539c-2.11,2.675-5.567.767-8.094,2.192Z"/><path class="a" d="M247.633,217.973c.684.254,2.038.353,2.288.93.619,1.428-.411,2.421-1.7,3.033a1.446,1.446,0,0,1-2.267-.966C245.508,219.512,245.773,218.346,247.633,217.973Z"/></svg>