<svg xmlns="http://www.w3.org/2000/svg" viewBox="0 0 400 400"><defs><style>.a{fill:#fafafa;}</style></defs><path d="M134.918,180.851c-4.246-7.4-11.139-13.1-12.676-22.342-.733-4.406-5.706-6.8-10.085-7.57-4.549-.8-8.126-3.3-12.1-5.123-3-1.376-2.991-3.286-1.2-5.74,1.669-2.292,1.51-4.457-.9-6.275-27.9-21.048-45.239-49.407-56.561-81.892-.454-1.3-.058-2.9-.058-4.62,2.241.262,1.93,2.412,2.721,3.593A32.808,32.808,0,0,1,46.928,56C49.9,62.845,53.861,68.9,59.8,73.6c4.722,3.739,8.514,8.681,10.106,14.233,4.008,13.981,14.517,23.123,23.716,33.077,5.147,5.568,10.428,11.629,18.511,13.954,3.086.887,5.573,3.686,8.048,6.164,6.572,6.58,13.6,12.708,20.508,18.947a53.206,53.206,0,0,0,5.8,4.486c2.99,2.027,7.466,1.851,7.666-.242.3-3.117-.823-5.758-4-7.06a20,20,0,0,1-4.046-1.652c-1.9-1.34-2.268-3.829-.366-4.805,4.192-2.151,6.764-4.838,7.426-9.744.464-3.443,3.961-4.316,6.87-4.346a58.687,58.687,0,0,1,10.142,1.287c2.665.445,4.419-.255,6.122-2.6,5.246-7.227,5.412-7.247,12.709-5.065,1.6.478,4.082.267,4.532,3-1.929.133-3.819.237-5.7.4-2.241.2-3.975,1.521-3.73,3.658.541,4.716-.164,8.308-4.469,11.388-2.594,1.856-.681,6.466-3.142,9.28-.968,1.107.2,2.816,1.7,3.233,13.112,3.651,17.677,12.764,16.7,25.608a8.561,8.561,0,0,0,1.014,4.221c.347.7,1.548,1.029,2.429,1.349.18.066.725-.608.971-1.02,3.584-6.007,2.5-12.253.721-18.437-.945-3.287-2.489-6.4-3.522-9.664-1.651-5.213-.351-9.41,4.066-13,7.373-5.985,15.725-9.718,24.713-12.494a604.923,604.923,0,0,0,67.187-25.074c24.448-10.856,46.012-25.645,65.89-43.234.189-.166.7.027,1.282.068A35.326,35.326,0,0,1,347.335,90.4c-7.014,6.037-13.908,12.22-22.316,16.483-4.246,2.153-7.952,5.371-13.329,9.1,7.486.551,11.847-3.283,16.823-5.18a98.03,98.03,0,0,0,16.969-8.667c4.833-3.014,10.085-5.357,17.324-9.128-9.262,18.29-26.846,23.132-41.561,34.6,12.981,1.729,21-7.422,32.053-6.78-7.375,8.44-15.149,15.238-25.448,18.794-4.138,1.429-8.241,2.978-12.275,4.675a2.862,2.862,0,0,0-1.16,2.435c.091.682,1.237,1.777,1.869,1.745,5.836-.3,11.49-2.5,18.461-1.437-3.418,5.205-8.131,7.736-13.416,9.4-7.44,2.336-14.925,4.53-22.412,6.713-1.179.344-1.93.881-1.594,2.012a3.821,3.821,0,0,0,1.481,2.175c2.028,1.1,4.2,1.928,7.065,3.194-3.469,1.539-6.048,3.044-8.83,3.836-4.7,1.335-8.895,2.211-11.551,7.61-1.775,3.607-7.171,4.613-11.6,5.286-3.624.551-6.309,2.177-7.678,5.913a13.435,13.435,0,0,1-3.5,4.6c-2.738,2.637-8.7,1.6-9.292,5.726-.461,3.219.215,6.223-2.455,8.957-1.745,1.786-.516,3.827,1.681,4.28,9.937,2.052,19.029,6.737,29.839,6.475,9.916-.241,18.9,5.573,25.809,12.675C320.649,248.6,336.477,250.6,352.7,251.936a6.856,6.856,0,0,0,7.255-3.872c.686-1.33-1.959-4.219,1.57-3.848.787.082,1.8,2.285,1.938,3.593,1.052,9.915-3.074,14.779-12.891,15.4-4.439.282-8.812.149-12.942-1.933-.6-.3-1.687.373-2.549.6.472,1.275.567,3.031,1.479,3.745,4.371,3.423,9.724,4.366,15.044,5.178.179,3.712-2.7,3.794-4.962,4.23-8.707,1.68-16.6.592-22.538-6.954-.827-1.052-2.287-2.4-3.664-1.164-1.914,1.717-.236,3.415.726,4.949.78,1.243,1.708,2.394,2.57,3.586-7.627-1.657-7.828-1.463-10.692-4.427-9.151-9.472-20.084-17.3-26.794-29.058a16.021,16.021,0,0,0-5.01-5.215c-1.963-1.289-5.19-3.071-6.588-2.307-3.106,1.7-1.393,5.045-.533,7.772,2.661,8.437,5.973,16.432,11.483,23.62,6.5,8.477,12.459,17.14,14.25,28.454,1.327,8.383,8.335,15.145,15.262,18.868,9.072,4.876,9.6,12.634,11.355,20.487a2.488,2.488,0,0,1-2.75,2.743,19.194,19.194,0,0,1-5.764-.737c-4.109-1.57-8-3.695-12.1-5.3-7.389-2.886-12.106-7.4-13.311-15.879-1.43-10.062-8.48-17.469-14.441-25.175-2.811-3.633-7.519-4.661-11.825-5.4a68.113,68.113,0,0,1-20.8-6.865,28.256,28.256,0,0,0-22.767-1.935c-8.223,2.707-16.273,3.215-24.548,2.7-6.256-.387-11.36.3-15.331,6.1-2.255,3.294-8.006,2.442-9.961-1.236-2.264-4.258-5.268-8.184-6.217-13.175A26.965,26.965,0,0,0,163.3,261.4c-.6-1.055-2.667-2.284-3.549-1.972-2.126.751-2.272,2.846-1.191,4.719,1.715,2.968,3.391,5.709,2.815,9.545-1.267,8.443-3.842,11.311-12.164,11.683-6.857.306-13.735.137-20.6.4-3.442.13-7.038.584-8.526,4.463a7.009,7.009,0,0,0,1.926,8.026c2.749,2.642,5.637,3.059,9.367,1.637,6.535-2.492,7.163-2.551,10.261,2.632,2.821,4.721,11.519,7.942,7.415,14.377-2.974,4.664-9.9,1.1-15.086.452a19.13,19.13,0,0,0-4.39-.056c-11.071,1.189-17.282-5.271-21.862-14.035-1.095-2.1-2.169-4.825-1.752-6.972a132.322,132.322,0,0,1,5.159-19.648c2.132-5.914,7.536-7.082,13.306-7.118,1.174-.008,3.157-.981,3.315-1.793.221-1.127-.654-2.769-1.543-3.758-2.939-3.272-4.129-3.34-7.677-.679-4.372,3.279-8.976,5.288-14.7,5.339-5.1.046-6.72,2.747-5.9,7.617a8.666,8.666,0,0,0,.706,2.84c4.533,7.915.884,12.929-5.859,16.922-1.674.991-3.176,2.368-4.954,3.066-2.578,1.011-4.706-.087-6.338-2.262-1.875-2.5-2.1-5.415-2.3-8.366-.657-10.036,2.3-19.455,5.942-28.466,3.793-9.392,12.872-11.335,21.8-5.663.406.258.679.725,1.083.99,4.75,3.119,8.217,3.827,9.064,1.873,1.427-3.289-1.276-5.406-2.437-7.849-3.159-6.646-6.7-13.044-5.74-20.89.507-4.126-1.854-7.465-4.345-10.61-3.395-4.284-7.627-6.019-12.968-4.521-5.186,1.454-10.314,3.125-15.528,4.468-2.082.537-3.606,1.489-4.361,3.421a8.836,8.836,0,0,1-5.173,4.9c-1.75.736-4.276,1.857-5.529,1.154a170.467,170.467,0,0,1-14.31-9.456c-2.576-1.809-3.181-4.863-4.141-7.615a5.849,5.849,0,0,1,3.161-7.417c6.349-3.106,11.069-7.764,15.7-12.961,2.815-3.156,7.251-4.893,11.023-7.162,6.634-3.99,6.633-3.953,5.228-12.43a3.6,3.6,0,0,1,.375-2.534c1.055-1.342,2.688-1.068,3.976-.433a25.19,25.19,0,0,1,4.92,3.137c4.226,3.5,9.082,4.348,13.62,1.68,7.542-4.433,13.994,2.056,21.11,1.376,1.953-.187,3.283,2.061,3.837,3.962,1.563,5.362,5.261,4.826,9.295,3.6,1.47,7.2,9.385,5.974,13.086,10.221-3.571,3.637-3.7,5.549-.2,6.953a52.984,52.984,0,0,0,8.311,2.642c2.072.454,3.712-.942,4.838-2.557a4.206,4.206,0,0,0-.353-5.388c-1.943-2.145-3.959-4.833-6.492-5.714C147.664,184.974,141.842,181.184,134.918,180.851Zm-2.32,37.732c-.982-3.511-1.572-6.88-2.9-9.928-.914-2.1-2.749-3.852-4.385-5.555a3.113,3.113,0,0,0-2.633-.654,2.421,2.421,0,0,0-1.058,2.139,47.491,47.491,0,0,1,4.467,15.12c.392,3.739.548,9.818,5.824,10.118,4.872.277,6.438-5.129,8.4-8.934.637-1.236.832-2.94-.738-3.75-.643-.331-1.748.184-2.629.379C135.646,217.8,134.359,218.148,132.6,218.583Z"/><path d="M281.926,340.546c-9.316-4.177-16.513-11.273-22.75-19.381a10.735,10.735,0,0,1-1.969-9.758,19.989,19.989,0,0,0,.968-2.769c1.228-8.674.112-10.716-8.745-13.726-6.727-2.288-12.5-5.573-16.081-11.927-.719-1.274-1.181-2.75.413-3.725a4.525,4.525,0,0,1,2.74-.7,10.687,10.687,0,0,1,4.127,1.321c6.711,4.2,13.563,7.6,21.829,7.73,2.7.04,5.532,1.827,8,3.318,3.1,1.873,5.206,4.511,3.453,8.555a29.208,29.208,0,0,0-.773,2.832c-2.01,6.352-.53,11.555,5.019,15.455,1.2.843,2.288,1.86,3.544,2.6,4.01,2.358,4.887,5.983,3.938,10.126C284.9,333.722,285.49,337.438,281.926,340.546Z"/><path class="a" d="M132.6,218.583c1.761-.435,3.048-.779,4.348-1.065.881-.195,1.986-.71,2.629-.379,1.57.81,1.375,2.514.738,3.75-1.962,3.8-3.528,9.211-8.4,8.934-5.276-.3-5.432-6.379-5.824-10.118a47.491,47.491,0,0,0-4.467-15.12,2.421,2.421,0,0,1,1.058-2.139,3.113,3.113,0,0,1,2.633.654c1.636,1.7,3.471,3.455,4.385,5.555C131.026,211.7,131.616,215.072,132.6,218.583Z"/><path class="a" d="M134.918,180.851c6.924.333,12.746,4.123,19.057,6.318,2.533.881,4.549,3.569,6.492,5.714a4.206,4.206,0,0,1,.353,5.388c-1.126,1.615-2.766,3.011-4.838,2.557a52.984,52.984,0,0,1-8.311-2.642c-3.5-1.4-3.373-3.316.2-6.953-3.7-4.247-11.616-3.019-13.086-10.221Z"/></svg>