<svg xmlns="http://www.w3.org/2000/svg" viewBox="0 0 400 400"><path d="M69.019,87.461c-3.422-3.2-7.741.83-11.225-1.651-.344-2.876,1.615-4.348,3.783-5.291a80.722,80.722,0,0,1,24.015-6.332c11.2-1.172,22.32-3.028,33.489-4.485,5.643-.737.937-4.389,1.938-6.438a32.559,32.559,0,0,1,15.958,1.5c9.825,3.476,20.181,4.075,30.329,5.658,5.477.854,11.583,2.758,16.423-2.6.7-.772,2.815-.695,4.142-.4,23.681,5.2,47.875,3.226,71.784,5.189,7.807.641,15.626,1.428,23.447,1.521,10.14.119,19.358,3.393,27.839,8.255,6.1,3.5,12.138,6.189,19.118,6.864a55.017,55.017,0,0,1,5.691,1.379c6.558,1.361,10.348,5.425,11.124,11.967.736,6.206-.387,12.09-6.752,14.9-3.375,1.49-5.524,3.954-7.821,6.441-4.562,4.937-10.432,7.154-16.839,8.213a2.933,2.933,0,0,1-2.434-1.069,2.536,2.536,0,0,1,.464-2.449c1.515-1.2,3.42-1.915,4.947-3.108,7.433-5.8,7.3-9.473-.44-14.408-2.653-1.691-5.226-2.733-7.433.78-1.65,2.628-4.353,3.9-7.2,4.782-1.37.425-3.288,1.2-4.178.622-1.893-1.233-1.181-3.1-.231-5.036,1.379-2.81-.137-4.538-2.967-5.267-4.43-1.141-8.667-1.279-12.612,1.682a58.741,58.741,0,0,1-5.892,3.517c-4.179-.287-2.953-3.527-3.931-5.433a8.785,8.785,0,0,0-11.162-3.872,42.772,42.772,0,0,0-4.882,3.267c-5.044,3.347-5.026,3.322-9.845-1.837-.945-1.01-2.2-2.658-3.177-2.563-7.732.757-15.581-2.1-23.2.714-1.227.454-2.235,1.5-4.48,3.061,9.049,4.265,16.991,8.75,25.568,11.983a8.078,8.078,0,0,0,4.313.7c6.661-1.559,12.909-2.739,16.964,5.034.813,1.559,3.684,1.071,5.324-.211,1.526-1.192,2.689-2.838,4.147-4.132,1.817-1.614,3.66-1.106,4.9.693,1.377,2,2.284,4.31,3.591,6.361,3.5,5.5,6.2,5.827,11.871,1.508a28.508,28.508,0,0,0,2-2.139c2.184-2.059,4.553-1.943,6.3.288a92.944,92.944,0,0,1,7.431,10.827c2.167,3.77-.287,8-4.935,8.307-5.356.356-10.94.953-16.085-.147-6.291-1.345-12.728-1.172-18.842-2.462-11.481-2.423-23.273-2.663-34.649-6.03a169.592,169.592,0,0,1-21.954-8.1c-7.42-3.355-13.742-7.345-16.655-15.414-.65-1.8-2.154-3.274-3.068-5-2.223-4.2-5.425-6.117-10.349-6.956-14.582-2.485-29.3-1.353-43.875-2.6-12.17-1.042-23.386,1.51-34.557,5.306-8.341,2.835-17.823,16.415-18.151,24.884-.32,8.264,4.332,14.507,9.847,18.925C109,157.6,122.991,165.575,141.023,165.974c21.14.468,42.1.438,63.035-2.6a208.627,208.627,0,0,1,44-1.187c21,1.412,41.994,3.048,62.576,8.229,12.009,3.024,23.777,7.011,33.826,13.749,24.908,16.7,38.888,42.812,28.545,76.213-8.536,27.568-27.481,45.105-54.163,55.547-15.186,5.943-30.637,5.347-46.247,5.215a18.2,18.2,0,0,1-5.724-1.275c-16.109-5.682-32.21-11.129-45.052-23.419a362.166,362.166,0,0,0-29.127-24.636c-10.556-8.159-21.98-14.7-36.069-14.671-4.927.011-9.837-.621-14.336,1.98-4.347,2.514-9.233,1.23-13.9,1.088.1,4.522,4.261,4.488,5.37,7.177a72.159,72.159,0,0,0,3.774,6.814c2.467-2.86,4.1-5.371,6.317-7.18,3.369-2.754,8.594-2.267,10,1.7,2.935,8.308,8.967,9.372,16.313,9.293,4.353-.048,9.072,1.783,13,.631,9.2-2.7,15.414,1.461,20.522,7.7,8.614,10.528,19.6,17.518,31.575,23.371a50.059,50.059,0,0,1,7.433,4.656c15.521,11.346,17.373,26.94,8.088,43.713-8.655,15.633-22.691,21.374-38.174,24.293a72.422,72.422,0,0,1-47.131-7.083,47.892,47.892,0,0,1-16.879-13.819c-7.947-10.486-15.861-21.035-25.278-30.311-3.137-3.09-6.219-6.239-9.418-9.263-6.305-5.96-13.844-8.841-22.494-9.657a125.233,125.233,0,0,0-22.02-.5q-6.6.538-13.205.944c-1.371.084-2.953.2-3.648-1.334-.74-1.626.311-2.954,1.511-3.727,4.976-3.206,10.317-5.972,16.208-6.567,19.379-1.958,38.183-1.035,54.865,11.142,4.033,2.943,7.072,6.706,10.795,9.839,9.347,7.863,18.71,15.706,28.007,23.627,9.541,8.127,21.21,10.681,32.958,10.091,8.212-.412,15.837-4.52,19.073-13.809,2.881-8.268,1.867-14.342-5.012-19.325-5.194-3.763-11.089-5.858-17.484-7.2-12.144-2.546-24.419-2.478-36.629-2.378-14.115.115-26.512-5.362-36.367-13.765-14.029-11.963-20.839-28.151-16.851-47.4,5.4-26.086,28.977-43.35,51.32-45.112a116.9,116.9,0,0,1,47.62,6.023c13.525,4.609,25.524,11.983,36.831,20.624,8.578,6.555,18.022,11.746,27.483,16.909a38.071,38.071,0,0,0,13.809,4.644c9.99,1.2,17.1-2.653,21.656-11.632,1.736-3.42-.037-10.129-4.342-12.991-5.252-3.492-10.356-7.395-16.754-8.926-13.833-3.311-27.587-6.535-42.049-5.916-16.837.721-33.076-1.956-48.13-10.332-6.107-3.4-13.314-3.625-20.06-3.472a185.649,185.649,0,0,0-26.189,2.934c-5.22.871-10.607,1.589-15.212,4.955a15.179,15.179,0,0,1-12.649,2.5c-12.308-2.889-24.85-4.3-36.739-9.561a80.516,80.516,0,0,1-32.854-26.11c-1.431-1.922-2.8-3.889-4.193-5.826-2.45,1.508-1.438,3.613-2.061,5.179-.518,1.3-1.268,2.51-1.915,3.76-1.087-.805-2.7-1.375-3.181-2.45-6.777-15.284-9.038-30.86-2.778-46.968,1.387-3.569.365-5.729-4.02-4.762-.47.1-1.144.233-1.436,0a4.747,4.747,0,0,1-1.683-2.02,3.724,3.724,0,0,1,.176-2.841c6.684-8.954,12.588-18.628,23.75-23.135C56.6,94.685,63.418,92.225,69.019,87.461ZM304.9,91.62c-11.075-8.585-13.955-9.9-21.236-9.285-1.1.092-2.194,1.558-3,2.61-.167.218.792,1.657,1.5,2.135C288.786,91.543,296.215,91.4,304.9,91.62Z"/></svg>