<svg xmlns="http://www.w3.org/2000/svg" viewBox="0 0 400 400"><defs><style>.a{fill:#fafafa;}</style></defs><path d="M237.267,165.048c.1-4.4.075-8.8.331-13.187a47.41,47.41,0,0,1,1.224-10.172c2.7-9.492,9.484-11.129,16.255-4.193,3.546,3.632,6.007,7.708,5.79,13.012-.06,1.464-.553,3.359.152,4.336,7.606,10.541,5.947,23.141,7.975,34.9,1.535,8.9,2.336,17.712-6.559,23.619,3.592,9.257,6.37,18.108,6.761,27.542a36.874,36.874,0,0,1-7.585,24.2c-3.838,5.149-6.688,10.21-6.911,17.2-.317,9.974-5.171,17.5-16.4,18.482a6.378,6.378,0,0,0,5.613,4.678c8.58,1.128,12.932,7.2,15.05,14.292,1.961,6.562,3.744,13.037,6.875,19.19,2.035,4,.67,7.392-2.878,10.36-5.577,4.665-12.424,5.668-19.231,6.115-5.887.388-11.673.367-17.163,3.1-3.546,1.768-7.22,1.354-11.3.614-6.153-1.116-12.645-.57-18.982-.376a7.706,7.706,0,0,1-7.387-3.81c-1.689-2.831-2.057-4.792-5.552-.881-3.719,4.162-9.736,4.171-15.178,2.953a34.951,34.951,0,0,0-17.319.738c-8.784,2.378-17.383-1.107-25.894-2.968-4.546-.994-6.05-6.795-3.436-10.846,1.969-3.052,4.655-4.972,8.434-5.07a83.6,83.6,0,0,0,10.276-.4c6.79-1.023,10.827-6.282,8.14-12.562-5.242-12.248-2.221-23.817.565-35.708,2.176-9.285,6.7-17.377,12.4-24.723,9.187-11.846,9.427-11.675,5.643-26.079a8.413,8.413,0,0,0-1.485-2.235c-5.107-.405-7.605,3.892-11.24,6.169-8.415,5.271-20.4,2.5-25.6-5.852a71.825,71.825,0,0,1-4.307-7.682c-2.639-5.7-2.839-11.419,1.228-16.577a92.275,92.275,0,0,1,8.822-9.792c3.7-3.512,4.759-3.231,10.967,1.326,2.032-3.366-.554-7.919,2.565-10.848,3.039-2.855,4.342-6.346,5.08-10.285.4-2.15,2.319-3.082,4.238-3.581,2.837-.737,6.043-.862,8.041-3.222,3.947-4.66,7.611-4.322,12.754-1.354,5.7,3.287,11.966-.519,12.464-7.291.318-4.33-.734-8.712,1.313-12.929.674-1.39,2.195-3.73-.923-4.147-.813-.109-2.52,1.788-2.757,2.975-.565,2.835-.332,5.819-.726,8.7-.726,5.317-3.359,7.656-8.8,7.955-1.934.106-4.2.5-5.772-.29-5.37-2.7-8.745-.615-12.942,3.027-6.8,5.906-14.148,2.979-16.931-5.408-1.294-3.9,1.473-8.689-3.122-11.985-1.193-.857.166-3.743,1.972-4.875a10.842,10.842,0,0,1,11.167-.74c2.149,1.089,3.927,3.037,6.6,2.725a12.642,12.642,0,0,0,2.674-.934c-.31-.7-.5-1.927-.947-2.023a86.735,86.735,0,0,0-11.487-2.047,14.116,14.116,0,0,1-8.068-3c-4.416-3.516-5.195-9.376-.448-12.3,4.61-2.839,4.989-5.6,4.4-10.4-.626-5.1,5.763-8.509,5.869-12.966.2-8.215,10.148-5.513,11.32-11.76,4.922,2.1,11.56-3.226,15.424,3.629,1.079,1.914,2.976,1.884,5.073,1.815,6.654-.219,8.179.735,9.465,5.51.374,1.385.085,2.936.28,4.386a25.885,25.885,0,0,0,1.223,3.726c4.208-2.524,5.689-8.624,11.864-8.333,3.207.152,6.319-1.109,9.834.225a23.236,23.236,0,0,1,10.445,7.717,3.239,3.239,0,0,1,.051,4.02c-2.512,3.805-5.276,7.122-10.479,6.771-2.9-.195-5.927-.787-8.427,1.313a3.633,3.633,0,0,0-1.263,2.4c0,.568,1.066,1.655,1.619,1.631,2.4-.1,4.975-1.266,7.137-.7,6.878,1.793,10.506-1.331,14.644-6.524,5.053-6.34,6.374-11.158.964-18.013-4.208-5.332-3.04-9.048,1.62-14.287,5.137-5.775,10.722-10.034,19.158-7.3a14.441,14.441,0,0,0,11.214-.911c4.095-1.9,9.966,2.426,8.956,6.442-1.155,4.59.294,7.45,2.8,10.563,4.993,6.215,5.256,12.87-.011,18.818-5.766,6.51-11.185,12.165-21.629,7.881-4.589-1.882-8.136-2.838-11.993.654-4.042,3.659-7.769,7.378-7.26,13.569.482,5.853.607,11.735.882,17.6.1,2.089.844,3.732,2.977,4.456.293,3.883,3.172,5.533,6.158,7.051,1.257.638,2.6,1.215,3.689-.468C244.567,168.365,242.422,164.367,237.267,165.048Zm-76.289,61.731c-1.43-.713-2.617-.2-4,.418-5.4,2.405-6.6,1.688-10-1.354-3.086-2.76-2.018-7.485-5.58-9.9-3.275,3.711-1.853,7.192.309,10.5,1.866,2.861,3.81,6.053,7.682,6.189,4.8.168,10.138.8,11.444-5.966,1.221-.455,2.738-.616,3.576-1.455.74-.74,1.351-2.692.907-3.3-.845-1.163-2.518-.737-3.594.17C160.2,223.357,159.67,224.969,160.978,226.779Zm50.091-35.58a7.691,7.691,0,0,0,2.614,6.54c.334.337.82.985,1.026.911a1.455,1.455,0,0,0,.892-2.341c-1.262-1.934-1.7-4.72-4.789-4.87-.573-8.889-2.413-11.678-8.528-12.928-5.682-1.161-12.847,5.032-10.809,10.229,2.293,5.848,1.223,11.569,1.768,17.332-1.646.144-2.56,1.074-2.4,2.686.039.383,1.5,1.05,1.608.932a3.041,3.041,0,0,0,.556-3.807c4.647-.228,5.144-3.842,5.18-7.119.03-2.779-1.343-5.554-1.483-8.362-.129-2.588,1.832-4.476,4-5.52,1.835-.883,3.757.1,5.24,1.408C207.719,187.852,209.368,189.555,211.069,191.2Zm6.621,140.177c-6.393-2.578-7.825-7.646-10.664-11.5-5.3-7.188-8.89-15.126-7.01-24.52a6.189,6.189,0,0,0-.541-2.71c-.339-1.127-1.341-1.559-2.272-.713-5.121,4.653-9.8,9.4-6.771,17.422a25.152,25.152,0,0,1,1.713,9.993c-.35,6.127-1.959,12.151,1.889,17.913,1.943,2.909-4.544,3.727-2.426,7.094C202.708,346.63,207.619,336.79,217.69,331.376ZM203.278,136.241a23.9,23.9,0,0,0-4.263-.811c-5,.021-5.91.922-5.972,5.8a3.978,3.978,0,0,0,.876,2.632,2.4,2.4,0,0,0,2.313-.239C198.593,141.345,200.786,138.89,203.278,136.241Z"/><path class="a" d="M217.69,331.376c-10.071,5.414-14.982,15.254-26.082,12.982-2.118-3.367,4.369-4.185,2.426-7.094-3.848-5.762-2.239-11.786-1.889-17.913a25.152,25.152,0,0,0-1.713-9.993c-3.024-8.022,1.65-12.769,6.771-17.422.931-.846,1.933-.414,2.272.713a6.189,6.189,0,0,1,.541,2.71c-1.88,9.394,1.711,17.332,7.01,24.52C209.865,323.73,211.3,328.8,217.69,331.376Z"/><path class="a" d="M193.238,206.068c-.54-5.759.53-11.48-1.763-17.328-2.038-5.2,5.127-11.39,10.809-10.229,6.115,1.25,7.955,4.039,8.528,12.928l.258-.242c-1.7-1.642-3.351-3.345-5.124-4.907-1.483-1.307-3.405-2.291-5.24-1.408-2.168,1.044-4.129,2.932-4,5.52.14,2.808,1.513,5.583,1.483,8.362-.036,3.277-.533,6.891-5.18,7.119Z"/><path class="a" d="M160.831,226.668c-1.306,6.766-6.645,6.133-11.444,5.965-3.872-.136-5.816-3.328-7.682-6.189-2.162-3.313-3.584-6.794-.309-10.5,3.562,2.419,2.494,7.144,5.58,9.9,3.4,3.042,4.6,3.759,10,1.354,1.386-.618,2.573-1.131,4-.418Z"/><path class="a" d="M203.278,136.241c-2.492,2.649-4.685,5.1-7.046,7.384a2.4,2.4,0,0,1-2.313.239,3.978,3.978,0,0,1-.876-2.632c.062-4.88.976-5.781,5.972-5.8A23.9,23.9,0,0,1,203.278,136.241Z"/><path class="a" d="M237.267,165.048c5.155-.681,7.3,3.317,10.042,6.364-1.089,1.683-2.432,1.106-3.689.468-2.986-1.518-5.865-3.168-6.158-7.051Z"/><path class="a" d="M210.812,191.439c3.087.15,3.527,2.936,4.789,4.87a1.455,1.455,0,0,1-.892,2.341c-.206.074-.692-.574-1.026-.911a7.689,7.689,0,0,1-2.613-6.541Z"/><path class="a" d="M160.978,226.779c-1.308-1.81-.775-3.422.742-4.7,1.076-.907,2.749-1.333,3.594-.17.444.61-.167,2.562-.907,3.3-.838.839-2.355,1-3.576,1.456Z"/><path class="a" d="M193.009,205.883a3.041,3.041,0,0,1-.556,3.807c-.112.118-1.569-.549-1.608-.932-.162-1.612.752-2.542,2.4-2.688Z"/></svg>