<svg xmlns="http://www.w3.org/2000/svg" viewBox="0 0 400 400"><defs><style>.a{fill:#fafafa;}</style></defs><path d="M225.618,265.545c4.612,3.5,6.635,6.929,3.034,12.4-7.06,10.731-10.7,23.108-14.357,35.219-1.475,4.888-4,7.389-7.543,9.952-5.873,4.252-12.963,6.721-17.9,12.391a5.578,5.578,0,0,1-3.85,1.692c-10.783-.264-21.6-.678-30.955-7.074a13.012,13.012,0,0,1-3.716-4.385c-1.03-1.844-.727-4.729,1.421-4.713,11.737.088,15.084-8.689,15.929-17.12.86-8.573,1.593-17.28,2.021-25.95.135-2.728-.957-4.651-4.073-4.751-10.2-.324-20.55-1.86-30.548-.6-7.11.9-14.716-2.112-21.665,2.522.439,7,.368,14.308,1.507,21.418.951,5.936,1.606,11.4-1.179,17.088-1.41,2.882-.145,5.468,3.426,6.779,3.77,1.383,6.436,4.311,8.45,7.831,1.752,3.061.595,6.147-2.68,6.529-12.209,1.422-24.449.8-36.675.374-4.146-.144-7.625-1.787-9.11-6.125-3.785-11.052-7.646-22.08-11.276-33.183-.7-2.153-.5-4.6-.859-8.543-2.072,8.415-2.217,14.886,1.62,21.127,1.505,2.448,2.107,5.443,3.18,8.166,1.212,3.076,3.946,6.63-.748,8.74-6.272,2.821-11.957.991-13.385-4.344-2.242-8.377-4.978-16.837-1.3-25.65a40.713,40.713,0,0,0,1.973-8.516c.442-2.47,1.148-4.31,3.632-5.8A7.663,7.663,0,0,0,62.329,269.8c-2.856-3.98-2.681-6.972-.623-10.646.955-1.706,1.981-3.372,3-5.091-3.257-2.786-9.506-4.267-5.029-10.886,1.213-1.794.822-3.557-.916-5.124-2.111-1.9-2.083-4.452-.859-6.721,1.531-2.837,2.836-4.9-1.816-6.164-2.914-.791-4.281-3.617-4.8-6.788-1.057-6.5-.575-12.76,2.716-18.519,4.847-8.482,10.422-16.586,14.756-25.314,4.419-8.9,13.908-11.95,19.965-18.9,1.646-1.889,5.342-2.345,8.2-2.761,9.579-1.394,17.566-5.69,24.6-12.2a136.081,136.081,0,0,1,11.418-9.244c6.835-5.074,14.72-7.45,23.013-9.067,8.575-1.672,17.355-3.456,22.087-12.236,1.05-1.947,2.913-2.385,4.783-2.908,1.89-.529,4.7-.5,5.5-1.741,5.116-7.944,12.483-6.016,19.733-5.154,3.389.4,6.861,1.078,10.194.711a17.564,17.564,0,0,1,9.918,1.8c4.9,2.365,10.008,4.347,15.422,4.5,10.683.3,17.39,6.649,21.487,15.2,3.168,6.61,6.763,11.181,13.845,13.761,3.832,1.4,6.315,6.885,10.11,7.9,6.108,1.637,7.867,5.106,10.395,10.353,2.308,4.792,7.258,8.465,9.332,14.094.9,2.431,4.769,4.287,2.215,7.246-2.4,2.784-5.538.075-8-.812-4.311-1.558-8.469-1.992-14.3-1.07,5.9,4.707,11.79,5.247,17.093,3.787,7.224-1.988,13.172,1,19.123,3.371,4.994,1.99,9.269,5.917,9.071,12.235-.138,4.377,1.715,7.45,4.983,10.058,1.119.893,1.823,2.291,2.783,3.4,6.715,7.774,13.451,15.191,11.061,27.113-.732,3.651,2.418,8.2,4.159,12.177.966,2.206,2.872,3.979,4.05,6.115,5.363,9.718,3.968,18.128-3.679,25.216-3.849,3.567-8.617,4.746-13.387,5.523-4.576.746-8.563-1.22-11.7-4.843a7.066,7.066,0,0,0-3.685-2.161,6.424,6.424,0,0,0-4.219.578,3.824,3.824,0,0,0-1.59,5.053,9.266,9.266,0,0,0,.6,1.33c1.54,2.529,3.457,5.223.4,7.75-2.71,2.238-6.064,3.692-9.577,2.233-4.909-2.039-10.24-3.482-13.44-8.425-1.317-2.036-3.335-3.609-4.744-5.6-8.544-12.061-21.056-14.808-34.679-14.74-10.293.052-20.585.413-30.876.691A46.644,46.644,0,0,0,225.618,265.545Zm-50.2-42.1c-1.349.3-3.133.155-3.972.976-3.272,3.2-1.38,7.1-2.047,11.562,3.493-2.433,5.628-4.292,4.636-7.587-.636-2.111.51-3.566,1.336-5.2a4.513,4.513,0,0,1,.073-1.181c.05-.155.463-.194.711-.285Q175.789,222.587,175.419,223.447Zm-4.66,26.045c-.224-.97-.256-2.454-.639-2.552-2.646-.669-3.482-3.342-5.36-4.552-1.525-.982-3.56.8-4.721,2.27-1,1.266-3.389,3.415-.093,4.258,3.322.851,6.745.916,8.5,4.478.17.344-.044,1.214.02,1.225,1.937.314.851-1.5-.943-.7s-1.043.135.353-1.243C168.91,251.654,169.833,250.523,170.759,249.492Zm145.732-18.874c5.932,1.009,11.017,1.9,16.112,2.724,1.277.206,1.894-.294,1.694-1.171-.1-.456-.215-1.1-.538-1.287C328.43,227.794,323.061,224.941,316.491,230.618ZM214.8,188.669c-4.953-1.107-8.592-.836-12.008,1.429-2.585,1.714-2.664,1.594-2.013,8.753C205.4,195.733,208.276,190.467,214.8,188.669Z"/><path d="M248.41,269.8c4.793-.773,9.143.85,13.464-1.447a13.621,13.621,0,0,1,8.568-.829c11.821,2.517,18.943,2.676,12.075,18.7-5.574,13.006-3.542,25.209,4.9,36.5a50.3,50.3,0,0,1,4.341,7.578c.78,1.548-1.365,4.274-3.1,3.914-10.423-2.161-20.989-1.781-31.53-1.952-5.877-.1-9.9-2.428-12.349-8.319-2.789-6.716-6.022-12.993-6.737-20.567-.677-7.167-3.636-14.088-5.067-21.223-1.947-9.712,1.5-13.3,11.616-12.751C246.044,269.5,247.486,269.707,248.41,269.8Z"/><path class="a" d="M170.759,249.492c-.926,1.031-1.849,2.162-2.883,3.182-1.4,1.378-2.147,2.041-.353,1.243s2.88,1.016.943.7c-.064-.011.15-.881-.02-1.225-1.755-3.562-5.178-3.627-8.5-4.478-3.3-.843-.908-2.992.093-4.258,1.161-1.466,3.2-3.252,4.721-2.27,1.878,1.21,2.714,3.883,5.36,4.552C170.5,247.038,170.535,248.522,170.759,249.492Z"/><path class="a" d="M316.491,230.618c6.57-5.677,11.939-2.824,17.268.266.323.187.434.831.538,1.287.2.877-.417,1.377-1.694,1.171C327.508,232.517,322.423,231.627,316.491,230.618Z"/><path class="a" d="M214.8,188.669c-6.527,1.8-9.4,7.064-14.022,10.18-.65-7.157-.571-7.037,2.014-8.751C206.211,187.833,209.85,187.562,214.8,188.669Z"/><path class="a" d="M175.4,223.212c-.852,1.62-2,3.075-1.362,5.186.992,3.3-1.143,5.154-4.636,7.587.667-4.463-1.225-8.358,2.047-11.562.839-.821,2.623-.677,3.972-.976Z"/><path class="a" d="M175.42,223.447l.736-1.72c-.248.091-.661.13-.711.285a4.066,4.066,0,0,0-.06,1.19A1.95,1.95,0,0,1,175.42,223.447Z"/></svg>