<svg xmlns="http://www.w3.org/2000/svg" viewBox="0 0 400 400"><defs><style>.a{fill:#1c1c1c;}.b{fill:#fafafa;}</style></defs><path class="a" d="M144.7,148.429c-2.893,1.824-5.254.015-8.009-.694-3.425-.881-2.2,5.079-5.6,5.213a11.649,11.649,0,0,1-4.169-.59,4.39,4.39,0,0,1-1.892-1.939c-.654-1.082-.243-1.865.85-2.3,2.211-.88,4.638-2.915,6.551-2.5,4.462.96,6.946-2.768,10.691-3.448,3.411-.62,2.733-4.577,2.912-7.264.221-3.322-2.827-3.8-4.973-3.875-6.489-.217-12.5,1.5-17.388,6.071-1.043.975-2.418,2.171-2.588,3.41-.982,7.157-3.895,14.08-3.078,21.438.717,6.464,4.89,8.909,11.485,6.688,8.593-2.894,14.795-8.752,19.276-16.522,1.917-1.37,3.852-2.714,5.746-4.115,1.645-1.216,2.5-2.825,1.184-4.66a2.962,2.962,0,0,0-3.692-.916C148.888,143.622,143.859,142.438,144.7,148.429Zm56.767,150.145c1.269-6.1,1.953-10.53.322-14.716a39.224,39.224,0,0,1-2.287-17.267c1.191-15.488-2.1-31.169,2.108-46.516a2.063,2.063,0,0,0-2.693-2.32,17.3,17.3,0,0,0-9.157,6.862,5.491,5.491,0,0,0-.79,5.541c4.942,10.521,3.831,21.946,4.976,33.028C195.132,274.69,196.425,286.151,201.464,298.574ZM168.255,167.066c1.112,3.987,2.533,10.095,4.561,15.993,1.379,4.009,6.072,4.961,9.61,2.6,3.87-2.58,5.69-6.306,6.975-10.651,2.475-8.372,2.636-8.332-5.983-11.588-2.678-1.012-5.36-2.015-8.063-2.956C170.445,158.754,168.088,160.24,168.255,167.066Zm13.85,77.987h-.059c0-3.407.081-6.818-.017-10.222-.215-7.409-1.262-8.4-8.422-8.3-2.022.026-4.055.332-4.487,2.663-.51,2.757-1.652,7.215,1.6,7.554,5.074.528,4.86,3.56,5.452,6.77.97,5.268-1.231,10.739.952,15.9a2.97,2.97,0,0,0,3.369,2.074,2.565,2.565,0,0,0,1.54-1.861C182.165,254.768,182.105,249.91,182.105,245.053Zm12.6-116.444c.1-1.257.305-2.713.317-4.17a7.416,7.416,0,0,0-.451-2.857,5.9,5.9,0,0,0-1.7-2.217c-1.568-1.265-2.791.022-3.718.973-6.315,6.475-4.368,14.46-3.82,22.146.094,1.328.362,2.9,2.18,3.282,2.394.5,3.532-1.2,4.606-2.752C195.121,138.689,193.521,133.5,194.708,128.609ZM227.98,292.036c.2-5.826-1.886-10.369-5.065-10.981-.432-.083-1.1-.146-1.328.094-2.11,2.238-1.235,7.476,1.924,12.1a1.69,1.69,0,0,0,2.529.677A13.247,13.247,0,0,0,227.98,292.036Z"/><path class="a" d="M149.476,185.566c2.4,2.131,5.709,3.2,5.492,7.676-.33,6.794-.622,13.682,2.371,20.235.683,1.5-.095,3.84-.616,5.675-3.608,12.705-6,25.657-8.7,38.572-5.1,24.391-13.885,47.784-22.31,71.22a5.854,5.854,0,0,1-1.485,2.418,3.9,3.9,0,0,1-2.564.989,3.077,3.077,0,0,1-2.28-1.434,25.419,25.419,0,0,1-1.275-5.692,99.5,99.5,0,0,1,6.7-50.152c6.056-14.916,10.241-30.58,15.9-45.672,4.671-12.464,7.289-25.311,9.2-38.371a30.545,30.545,0,0,0-.213-5.675Z"/><path class="a" d="M261.44,182.852c.547,2.2,2.3,2.939,4.217,3.446,3.416.905,4.425,3.26,4.39,6.579-.155,14.646-1.563,29.2-2.588,43.8a168.36,168.36,0,0,1-4.887,31.665c-4.186,15.734-5.164,31.78-5.334,47.939-.036,3.417-.192,6.831-.3,10.246-.058,1.859-1.514,2.513-2.889,2.648-1.976.194-4.056-.324-4.983-2.284a6.288,6.288,0,0,1-.521-4.172c1.677-5.231,1.786-10.638,1.6-15.957-.49-14.28,1.828-28.151,4.608-42.082,3.428-17.177,6.4-34.457,6.8-52.07.147-6.346.859-12.54-1.678-18.753-1.423-3.486-1.9-7.687,1.7-10.8Z"/><path class="a" d="M243.845,135.6c5.358,3.764,11.188,5.1,17.6,3.421,3.017-9.115,4.966-17.808,2.745-23.8-1.866-5.029-1.7-8.095,2.557-11.252,1.712-1.27,1.283-3.619.362-5.375a19.551,19.551,0,0,1-1.5-14.182c.863-3.547,4.577-6.072,7.636-5.274,3.214.84,4.776,3.176,5.08,6.346a22.4,22.4,0,0,1-2.657,12.732c-1.966,3.687-1.316,6.24,1.657,8.789,1.729,1.483,1.443,3.509.514,5.31-1.088,2.111-2.69,4-3.51,6.187-.424,1.133.1,2.837.666,4.072.811,1.786,2.678,1.282,3.525.357,2.876-3.136,6.526-.854,9.676-1.73l-.288-.271c-2.143,2.753-2.419,7.476-8.235,5.88-5.759-1.579-6.142-.983-6.592,3.207-.259,2.4-.114,4.863-.5,7.24-.576,3.507,1.925,8.023-2.62,10.277-3.85,1.909-6.364-3.833-8.865-3.028-5.857,1.886-8.422-5.933-14.455-3.643-2.614.993-1.608-3.615-2.521-5.556Z"/><path class="a" d="M221.694,383.488c-18.1-.344-36.275-.883-54.3.33-9.766.657-22.65,1.822-30.187,1.322-3.944-.262-13.867-2.308-15.661-2.165-2.162.173-4.182-.808-4.249-3.009-.119-3.889-.23-7.961.754-11.666,2.761-10.4,5.692-20.794,9.27-30.937,5.683-16.109,12.712-31.777,17.738-48.073,4.6-14.93,7.327-30.441,10.831-45.708.545-2.374.374-5.008,1.317-7.183,8.315-19.194,1.348-38.639,1.1-57.96-.022-1.666-1.741-2.414-3.172-2.226-4.225.551-5.784,3.282-5.655,9.353l.221-.215c-4.039-.976-5.549,2.026-5.67,4.77-.335,7.553-3.107,14.354-5.986,21.034-3.657,8.482-7.918,16.724-12.328,24.846-1.041,1.916-3.606,3.146-5.677,4.329-3.586,2.047-6.191,1.137-8.763-2.34-3.367-4.552-4.226-9.838-4.592-15.219-.928-13.656-.64-27.383-2.777-40.972-.851-5.411.951-10.675,2.082-15.929,1.437-6.677,2.935-13.341,4.4-20.01.872-1.454,1.984-3.053-.145-4.188-.372-.2-1.681,1.357-2.558,2.1-8.35-1.07-8.448-1.1-6.6-7.953.37-1.372.933-2.017-.5-3.239-2.166-1.842-6.815-9.93-6.376-11.025a5.324,5.324,0,0,1,2.852-2.73c1.372-.487,3.66.907,3.2,1.783-2.514,4.8,1.794,7.693,3.02,11.236,1.42,4.1,6,5.751,10.254,8.491,3.289-8.844,6.39-17.385,9.644-25.868,2.924-7.624,5.575-9.083,13.158-7.624,2.838.547,3.963,2.449,4.12,5.142.2,3.47-.744,5.64-4.889,4.728a2.555,2.555,0,0,0-3.134,2.178,4.149,4.149,0,0,0,2.479,4.751c2.245.892,4.615,1.471,6.936,2.172,2.719.822,3.172,3.017,3.937,5.432.883,2.788,4.144,3.25,5.06.762,1.489-4.043,3.29-5.172,7.46-3.986,3.58,1.017,3.678-1.678,3.2-4.286l-.244.244c3.569,2.4,4.9-1.774,7.4-2.522,1.908-.57,4.248,1.114,3.847,2.972-.51,2.364-1.4,4.646-1.943,7a7.964,7.964,0,0,0,2.658,7.946,7.09,7.09,0,0,0,3.786,1.588c1.98.233,2.165-1.624,2.355-2.952.831-5.8,1.29-11.669,2.366-17.422a31.724,31.724,0,0,1,3.364-9.6c5.263-9.351,11.049-18.407,16.276-27.776a24.762,24.762,0,0,1,9.2-9.184c2.425-1.474,4.731-.6,6.638,1.162,1.888,1.741,3.126,3.855,1.651,6.448-1.45,2.549-3.177,4.938-4.617,7.491-3.859,6.84-6.9,13.773-7.288,21.988-.317,6.721-2.631,13.338-3.923,20.027a49.9,49.9,0,0,0-.736,7.3c-.1,2.367-.542,5.085,2.7,5.9a7.444,7.444,0,0,0,6.763-1.749,14.1,14.1,0,0,0,5.5-12.891l-.161.1c7.165,1.282,8.818,2.42,9.046,6.716.129,2.435.457,5.128-.372,7.3-2.752,7.194-.575,13.34,3.126,19.383,1.534,2.5,2.9,5.111,4.349,7.667,3.354,5.913,7.469,9.866,15.258,8.892,4.561-.57,5.342,1.08,5.811,6.357.346,3.893.223,7.907,1.161,11.653,2.831,11.3.128,22.45-1.2,33.477a119.723,119.723,0,0,1-2.483,14.31c-.492,1.986-1.39,3.806-3.494,4.218a5.037,5.037,0,0,1-5.3-1.821c-4.965-7.731-11.118-14.829-12.575-24.439-.954-6.285-2.429-12.493-3.712-18.726-.713-3.461-2.181-6.477-5.36-8.38a30.16,30.16,0,0,0-3.141-4.875c-4.867-5.125-8.179-4.6-10.414,2.1-1.95,5.849-7.809,12.261,1.229,17.7,1.086.654.967,3.646,1.048,5.569.457,10.775.876,21.553,1.153,32.334.114,4.454.109,8.883,2.87,12.667a3.129,3.129,0,0,0,2.37,1.237c.669-.09,1.261-1.182,1.762-1.917a2.215,2.215,0,0,0,.327-1.416c-2.033-15.589-1.436-31.284-2.084-46.929-.158-3.812-2.089-7.568-1.353-11.545.3-1.638,1.633-2.182,3.242-2,4.233,16.453,8.048,32.882,10.133,49.889,2.359,19.248,7.693,38.132,11.748,57.171,1.109,5.208,2.355,10.245,3.636,15.713,2.933,12.517,28.3,42.11,28.3,42.11,13.347,11.866,17.846,9.952,27.439,13.233a3.318,3.318,0,0,1,1.931,1.908c.38,1.514-.585,2.652-1.842,3.526a13.975,13.975,0,0,1-8.287,2.349c-9.243-.02-18.489.128-27.73-.088C253.184,384.926,232.2,383.688,221.694,383.488Z"/><path class="a" d="M146.7,94.23c-2.967-3.232-7.57,1.683-10.432-2.1-2.965-3.918-6.271.582-9.376-.351-.643-.193-13.642,2.725-14.29,2.709-3.31-.079-3.816,1.9-3.976,4.626-.076,1.3-.805,3.289-1.76,3.677-4.622,1.871-7.895,4.382-7.226,10.015a3.222,3.222,0,0,1-2.374.969,15.063,15.063,0,0,1-3.233-2.466c4.122-5.035.781-15.062,10.648-16.168,2.931-.329,4.419-1.316,4.248-4.36a1.837,1.837,0,0,1,.567-1.319c1.06-.894,2.789-2.628,3.253-2.352,6.508,3.886,10.823-7.553,16.97-2.527,3.381,2.763,6.152,3.827,10.474,2.245,2.448-.9,4.52,1.494,4.376,4.354a3.184,3.184,0,0,0,1.832,3.351Z"/><path class="a" d="M261.584,183.051c.608-.684,1.855-1.8,1.727-1.987-1.607-2.394-3.621-4.526-5.123-6.974-3.259-5.313-2.366-13.191,1.794-17.738,2.584-2.825,5.888-3.285,9.429-2.652,3.823.685,5.931,3.217,6.725,6.852,1.424,6.518.9,12.514-4.092,17.707-2.359,2.452-4.654,3.069-7.773,2.205-1.781-.494-2.38.992-2.835,2.382Z"/><path class="a" d="M288.2,121.209c-1.978-5.527,4.841-9.208,3.1-14.843-.374-1.207,1.736-2.63,3.018-1.832,3.1,1.93,5.941,2.817,9.436.888.655-.361,2.766.864,3.468,1.871,1.2,1.725.594,3.715-.669,5.343-1.028,1.325-2.491,1.3-3.862.73-.872-.365-1.515-1.309-2.394-1.623-4.1-1.466-6.053-.886-6.74,3.823-.582,3.989-3.247,4.163-5.645,5.368C287.91,120.938,288.2,121.209,288.2,121.209Z"/><path class="a" d="M291.514,71.565c-.352.892-.723,1.7-.987,2.53-1.726,5.447-1.4,6.544,2.695,7.531,2.314.558,4.764.542,7.1,1.044a2.318,2.318,0,0,1,1.115,1.989c-.786,2.565-8.8,3.634-9.6,1.13-1.242-3.932-2.794-6.667-7.068-7.745-1.018-.257-.754-2.954.684-3.471C287.6,73.8,288.639,70.827,291.514,71.565Z"/><path class="a" d="M161.5,123.739c-1.392-.161-2.779-.4-4.175-.468-2.907-.141-4.963-1.819-3.942-4.446,1.618-4.163,2.219-7.707-.367-11.77-1.095-1.72.567-3.535,2.867-3.638,2.157-.1,4.6,1.591,4.013,3.022-2.557,6.231,1.426,11.691,1.359,17.543Z"/><path class="a" d="M244.011,68.658c2-.141,3.208.024,4.112,1.5a7.966,7.966,0,0,0,2.887,2.845c1.871.986,5.176.345,4.249,4.1-.684,2.77-4.106,2.867-8.095.37-1.579-.989-3.358-1.683-4.85-2.779-1.111-.815-2.184-2.084-.971-3.577A21.676,21.676,0,0,1,244.011,68.658Z"/><path class="a" d="M300.476,93.043a16.644,16.644,0,0,1,4.04.493c.67.246,1.093,1.391,1.421,2.213.1.252-.406,1.021-.765,1.134a28.446,28.446,0,0,1-4.047.939c-3.842.609-7.768-.674-6.936-2.168C295.582,93.155,297.98,93.054,300.476,93.043Z"/><path class="a" d="M261.663,63.257c.824.184,2.346.32,2.363.563A5.383,5.383,0,0,0,267.685,69c2.03.867.582,2.468-.487,3.277-1.176.891-3.113,1.007-3.74-.238a48.954,48.954,0,0,1-2.689-7.914C260.714,63.942,261.349,63.552,261.663,63.257Z"/><path class="a" d="M245.076,90.142c-2.512.374-3.807-.908-4.2-3.035a2.988,2.988,0,0,1,1.92-3.453c2.157-.787,3.858.186,4.687,2.221C248.44,88.236,246.906,89.39,245.076,90.142Z"/><path class="a" d="M284.691,137.735c1,.416,2.19.535,2.544,1.144a2.689,2.689,0,0,1-.944,3.642,7.565,7.565,0,0,1-3.824,1.231c-1.366.022-2.868-.619-2.679-2.467a3.3,3.3,0,0,1,1.078-2.309A18.028,18.028,0,0,1,284.691,137.735Z"/><path class="a" d="M244.119,135.315c-2.762-.138-5.889.534-7.5-2.586-.57-1.1-1.05-2.925-.528-3.79,1.52-2.517,3.384-.656,4.373.575,1.433,1.785,2.277,4.042,3.377,6.094C243.845,135.6,244.119,135.315,244.119,135.315Z"/><path class="a" d="M302.256,122.886c-.056,1.869-.537,3.748-2.819,3.83-1.658.06-1.905-1.563-1.9-2.912a2.943,2.943,0,0,1,2.049-3.148C301.4,120.134,302.027,121.271,302.256,122.886Z"/><path class="a" d="M231.466,113.219c3,.924,3.033,3.208,2.781,5.59-.153,1.443-.762,2.726-2.411,2.672a2.482,2.482,0,0,1-2.42-2.764C229.437,116.676,228.317,114.076,231.466,113.219Z"/><path class="a" d="M241.853,108.259c1.731.975,4.145,1.19,3.765,3.823-.343,2.368-2.163,2.824-4.25,2.66A3.012,3.012,0,0,1,238.545,112C238.041,109.326,240.2,108.98,241.853,108.259Z"/><path class="a" d="M232.689,101c-1.066,1.686-.7,4.325-3.456,3.837-2.228-.4-2.725-2.145-2.435-4.141a3.186,3.186,0,0,1,3.98-2.794C231.6,98.053,232.1,99.983,232.689,101Z"/><path class="a" d="M249.436,122.863c-1.59-.065-2.516-.935-2.3-2.475a2.007,2.007,0,0,1,2.815-1.755,2.92,2.92,0,0,1,1.693,1.664C252.115,122.016,250.809,122.546,249.436,122.863Z"/><path class="a" d="M233.289,86.018c.365-.1-.3-1.394-.6-2.858-.365-1.8.952-2.584,2.375-3.069,1.91-.651,2.63.661,2.856,2.144C238.18,83.913,237.1,84.87,233.289,86.018Z"/><path class="a" d="M146.4,94.534c.931,0,1.862.009,2.793,0,2.013-.01,3.741.4,3.195,2.979-.168.79-.882,1.932-1.523,2.065-1.965.409-3.649-.126-3.881-2.578-.088-.926-.189-1.85-.285-2.775Z"/><path class="a" d="M217.256,129.717c-1.324-1.449-1.139,1.217-1.163-.745-.014-1.063.555-1.272,1.482-.294,1.346,1.422-.554-.821-.477,1.141Z"/><path class="a" d="M175.352,171.975c.561-.92,1.046-2.712,2-3.013,1.1-.346,2.832.318,3.9,1.083,3.772,2.688,4.141,5.451,1.09,8.2a6.486,6.486,0,0,1-3.779,1.3c-1.776.1-2.227-1.563-2.564-2.921A44.927,44.927,0,0,1,175.352,171.975Z"/><path class="b" d="M148.77,152.112c-4.487,7.772-10.689,13.63-19.282,16.524-6.595,2.221-10.768-.224-11.485-6.688-.817-7.358,2.1-14.281,3.078-21.438.17-1.239,1.545-2.435,2.588-3.41,4.884-4.566,10.9-6.288,17.388-6.071,2.146.072,5.194.553,4.973,3.875-.179,2.687.5,6.644-2.912,7.264-3.745.68-6.229,4.408-10.691,3.448-1.913-.412-4.34,1.623-6.551,2.5-1.093.435-1.5,1.218-.85,2.3a4.39,4.39,0,0,0,1.892,1.939,11.649,11.649,0,0,0,4.169.59c3.4-.134,2.176-6.094,5.6-5.213,2.755.709,5.116,2.518,8.009.694Z"/><path class="b" d="M201.464,298.574c-5.039-12.423-6.332-23.884-7.521-35.388-1.145-11.082-.034-22.507-4.976-33.028a5.491,5.491,0,0,1,.79-5.541,17.3,17.3,0,0,1,9.157-6.862,2.063,2.063,0,0,1,2.693,2.32c-4.207,15.347-.917,31.028-2.108,46.516a39.224,39.224,0,0,0,2.287,17.267C203.417,288.044,202.733,292.476,201.464,298.574Z"/><path class="b" d="M218.36,199.36c-1.609-.186-2.939.358-3.242,2-.736,3.977,1.195,7.733,1.353,11.545.648,15.645.051,31.34,2.084,46.929a2.215,2.215,0,0,1-.327,1.416c-.5.735-1.093,1.827-1.762,1.917a3.129,3.129,0,0,1-2.37-1.237c-2.761-3.784-2.756-8.213-2.87-12.667-.277-10.781-.7-21.559-1.153-32.334-.081-1.923.038-4.915-1.048-5.569-9.038-5.444-3.179-11.856-1.229-17.7,2.235-6.7,5.547-7.227,10.414-2.1a30.16,30.16,0,0,1,3.141,4.875Z"/><path class="b" d="M168.255,167.066c-.167-6.826,2.19-8.312,7.1-6.6,2.7.941,5.385,1.944,8.063,2.956,8.619,3.256,8.458,3.216,5.983,11.588-1.285,4.345-3.105,8.071-6.975,10.651-3.538,2.359-8.231,1.407-9.61-2.6C170.788,177.161,169.367,171.053,168.255,167.066Zm7.1,4.909a44.927,44.927,0,0,0,.651,4.649c.337,1.358.788,3.019,2.564,2.921a6.486,6.486,0,0,0,3.779-1.3c3.051-2.746,2.682-5.509-1.09-8.2-1.072-.765-2.807-1.429-3.9-1.083C176.4,169.263,175.913,171.055,175.352,171.975Z"/><path class="b" d="M182.105,245.053c0,4.857.06,9.715-.071,14.568a2.565,2.565,0,0,1-1.54,1.861,2.97,2.97,0,0,1-3.369-2.074c-2.183-5.156.018-10.627-.952-15.9-.592-3.21-.378-6.242-5.452-6.77-3.253-.339-2.111-4.8-1.6-7.554.432-2.331,2.465-2.637,4.487-2.663,7.16-.094,8.207.9,8.422,8.3.1,3.4.017,6.815.017,10.222Z"/><path class="b" d="M194.708,128.609c-1.187,4.887.413,10.08-2.588,14.405-1.074,1.549-2.212,3.255-4.606,2.752-1.818-.382-2.086-1.954-2.18-3.282-.548-7.686-2.5-15.671,3.82-22.146.927-.951,2.15-2.238,3.718-.973a5.9,5.9,0,0,1,1.7,2.217,7.416,7.416,0,0,1,.451,2.857C195.013,125.9,194.812,127.352,194.708,128.609Z"/><path class="b" d="M227.981,292.037a13.348,13.348,0,0,1-1.941,1.889,1.69,1.69,0,0,1-2.529-.677c-3.159-4.624-4.034-9.862-1.924-12.1.227-.24.9-.177,1.328-.094C226.094,281.667,228.176,286.21,227.981,292.037Z"/><path class="b" d="M144.7,148.429c-.838-5.991,4.191-4.807,7.305-6.006a2.962,2.962,0,0,1,3.692.916c1.317,1.835.461,3.444-1.184,4.66-1.894,1.4-3.829,2.745-5.743,4.114Q146.735,150.27,144.7,148.429Z"/><path class="b" d="M107.684,143.775c.877-.746,2.186-2.3,2.558-2.1,2.129,1.135,1.017,2.734.145,4.188Q109.041,144.818,107.684,143.775Z"/></svg>