<svg xmlns="http://www.w3.org/2000/svg" viewBox="0 0 400 400"><path d="M161.258,123.983c.109.074.211.123.316.184-.022-.142-.046-.285-.072-.428Z"/><path d="M149.7,185.351c-.077-.019-.147-.026-.222-.042,0,.087,0,.168,0,.257Z"/><path d="M217.1,129.821l.168.031c0-.045,0-.09-.007-.135Z"/><path d="M149.476,185.566c2.4,2.131,5.709,3.2,5.492,7.676-.33,6.794-.622,13.682,2.371,20.235.683,1.5-.095,3.84-.616,5.675-3.608,12.705-6,25.657-8.7,38.572-5.1,24.391-13.885,47.784-22.31,71.22a5.854,5.854,0,0,1-1.485,2.418,3.9,3.9,0,0,1-2.564.989,3.077,3.077,0,0,1-2.28-1.434,25.419,25.419,0,0,1-1.275-5.692,99.5,99.5,0,0,1,6.7-50.152c6.056-14.916,10.241-30.58,15.9-45.672,4.671-12.464,7.289-25.311,9.2-38.371a30.545,30.545,0,0,0-.213-5.675Z"/><path d="M261.44,182.852c.547,2.2,2.3,2.939,4.217,3.446,3.416.905,4.425,3.26,4.39,6.579-.155,14.646-1.563,29.2-2.588,43.8a168.36,168.36,0,0,1-4.887,31.665c-4.186,15.734-5.164,31.78-5.334,47.939-.036,3.417-.192,6.831-.3,10.246-.058,1.859-1.514,2.513-2.889,2.648-1.976.194-4.056-.324-4.983-2.284a6.288,6.288,0,0,1-.521-4.172c1.677-5.231,1.786-10.638,1.6-15.957-.49-14.28,1.828-28.151,4.608-42.082,3.428-17.177,6.4-34.457,6.8-52.07.147-6.346.859-12.54-1.678-18.753-1.423-3.486-1.9-7.687,1.7-10.8Z"/><path d="M243.845,135.6c5.358,3.764,11.188,5.1,17.6,3.421,3.017-9.115,4.966-17.808,2.745-23.8-1.866-5.029-1.7-8.095,2.557-11.252,1.712-1.27,1.283-3.619.362-5.375a19.551,19.551,0,0,1-1.5-14.182c.863-3.547,4.577-6.072,7.636-5.274,3.214.84,4.776,3.176,5.08,6.346a22.4,22.4,0,0,1-2.657,12.732c-1.966,3.687-1.316,6.24,1.657,8.789,1.729,1.483,1.443,3.509.514,5.31-1.088,2.111-2.69,4-3.51,6.187-.424,1.133.1,2.837.666,4.072.811,1.786,2.678,1.282,3.525.357,2.876-3.136,6.526-.854,9.676-1.73l-.288-.271c-2.143,2.753-2.419,7.476-8.235,5.88-5.759-1.579-6.142-.983-6.592,3.207-.259,2.4-.114,4.863-.5,7.24-.576,3.507,1.925,8.023-2.62,10.277-3.85,1.909-6.364-3.833-8.865-3.028-5.857,1.886-8.422-5.933-14.455-3.643-2.614.993-1.608-3.615-2.521-5.556Z"/><path d="M146.7,94.23c-2.967-3.232-7.57,1.683-10.432-2.1-2.965-3.918-6.271.582-9.376-.351-.643-.193-13.642,2.725-14.29,2.709-3.31-.079-3.816,1.9-3.976,4.626-.076,1.3-.805,3.289-1.76,3.677-4.622,1.871-7.895,4.382-7.226,10.015a3.222,3.222,0,0,1-2.374.969,15.063,15.063,0,0,1-3.233-2.466c4.122-5.035.781-15.062,10.648-16.168,2.931-.329,4.419-1.316,4.248-4.36a1.837,1.837,0,0,1,.567-1.319c1.06-.894,2.789-2.628,3.253-2.352,6.508,3.886,10.823-7.553,16.97-2.527,3.381,2.763,6.152,3.827,10.474,2.245,2.448-.9,4.52,1.494,4.376,4.354a3.184,3.184,0,0,0,1.832,3.351Z"/><path d="M261.584,183.051c.608-.684,1.855-1.8,1.727-1.987-1.607-2.394-3.621-4.526-5.123-6.974-3.259-5.313-2.366-13.191,1.794-17.738,2.584-2.825,5.888-3.285,9.429-2.652,3.823.685,5.931,3.217,6.725,6.852,1.424,6.518.9,12.514-4.092,17.707-2.359,2.452-4.654,3.069-7.773,2.205-1.781-.494-2.38.992-2.835,2.382Z"/><path d="M288.2,121.209c-1.978-5.527,4.841-9.208,3.1-14.843-.374-1.207,1.736-2.63,3.018-1.832,3.1,1.93,5.941,2.817,9.436.888.655-.361,2.766.864,3.468,1.871,1.2,1.725.594,3.715-.669,5.343-1.028,1.325-2.491,1.3-3.862.73-.872-.365-1.515-1.309-2.394-1.623-4.1-1.466-6.053-.886-6.74,3.823-.582,3.989-3.247,4.163-5.645,5.368C287.91,120.938,288.2,121.209,288.2,121.209Z"/><path d="M291.514,71.565c-.352.892-.723,1.7-.987,2.53-1.726,5.447-1.4,6.544,2.695,7.531,2.314.558,4.764.542,7.1,1.044a2.318,2.318,0,0,1,1.115,1.989c-.786,2.565-8.8,3.634-9.6,1.13-1.242-3.932-2.794-6.667-7.068-7.745-1.018-.257-.754-2.954.684-3.471C287.6,73.8,288.639,70.827,291.514,71.565Z"/><path d="M161.5,123.739c-1.392-.161-2.779-.4-4.175-.468-2.907-.141-4.963-1.819-3.942-4.446,1.618-4.163,2.219-7.707-.367-11.77-1.095-1.72.567-3.535,2.867-3.638,2.157-.1,4.6,1.591,4.013,3.022-2.557,6.231,1.426,11.691,1.359,17.543Z"/><path d="M244.011,68.658c2-.141,3.208.024,4.112,1.5a7.966,7.966,0,0,0,2.887,2.845c1.871.986,5.176.345,4.249,4.1-.684,2.77-4.106,2.867-8.095.37-1.579-.989-3.358-1.683-4.85-2.779-1.111-.815-2.184-2.084-.971-3.577A21.676,21.676,0,0,1,244.011,68.658Z"/><path d="M300.476,93.043a16.644,16.644,0,0,1,4.04.493c.67.246,1.093,1.391,1.421,2.213.1.252-.406,1.021-.765,1.134a28.446,28.446,0,0,1-4.047.939c-3.842.609-7.768-.674-6.936-2.168C295.582,93.155,297.98,93.054,300.476,93.043Z"/><path d="M261.663,63.257c.824.184,2.346.32,2.363.563A5.383,5.383,0,0,0,267.685,69c2.03.867.582,2.468-.487,3.277-1.176.891-3.113,1.007-3.74-.238a48.954,48.954,0,0,1-2.689-7.914C260.714,63.942,261.349,63.552,261.663,63.257Z"/><path d="M245.076,90.142c-2.512.374-3.807-.908-4.2-3.035a2.988,2.988,0,0,1,1.92-3.453c2.157-.787,3.858.186,4.687,2.221C248.44,88.236,246.906,89.39,245.076,90.142Z"/><path d="M284.691,137.735c1,.416,2.19.535,2.544,1.144a2.689,2.689,0,0,1-.944,3.642,7.565,7.565,0,0,1-3.824,1.231c-1.366.022-2.868-.619-2.679-2.467a3.3,3.3,0,0,1,1.078-2.309A18.028,18.028,0,0,1,284.691,137.735Z"/><path d="M244.119,135.315c-2.762-.138-5.889.534-7.5-2.586-.57-1.1-1.05-2.925-.528-3.79,1.52-2.517,3.384-.656,4.373.575,1.433,1.785,2.277,4.042,3.377,6.094C243.845,135.6,244.119,135.315,244.119,135.315Z"/><path d="M302.256,122.886c-.056,1.869-.537,3.748-2.819,3.83-1.658.06-1.905-1.563-1.9-2.912a2.943,2.943,0,0,1,2.049-3.148C301.4,120.134,302.027,121.271,302.256,122.886Z"/><path d="M231.466,113.219c3,.924,3.033,3.208,2.781,5.59-.153,1.443-.762,2.726-2.411,2.672a2.482,2.482,0,0,1-2.42-2.764C229.437,116.676,228.317,114.076,231.466,113.219Z"/><path d="M241.853,108.259c1.731.975,4.145,1.19,3.765,3.823-.343,2.368-2.163,2.824-4.25,2.66A3.012,3.012,0,0,1,238.545,112C238.041,109.326,240.2,108.98,241.853,108.259Z"/><path d="M232.689,101c-1.066,1.686-.7,4.325-3.456,3.837-2.228-.4-2.725-2.145-2.435-4.141a3.186,3.186,0,0,1,3.98-2.794C231.6,98.053,232.1,99.983,232.689,101Z"/><path d="M249.436,122.863c-1.59-.065-2.516-.935-2.3-2.475a2.007,2.007,0,0,1,2.815-1.755,2.92,2.92,0,0,1,1.693,1.664C252.115,122.016,250.809,122.546,249.436,122.863Z"/><path d="M233.289,86.018c.365-.1-.3-1.394-.6-2.858-.365-1.8.952-2.584,2.375-3.069,1.91-.651,2.63.661,2.856,2.144C238.18,83.913,237.1,84.87,233.289,86.018Z"/><path d="M146.4,94.534c.931,0,1.862.009,2.793,0,2.013-.01,3.741.4,3.195,2.979-.168.79-.882,1.932-1.523,2.065-1.965.409-3.649-.126-3.881-2.578-.088-.926-.189-1.85-.285-2.775Z"/><path d="M217.256,129.717c-1.324-1.449-1.139,1.217-1.163-.745-.014-1.063.555-1.272,1.482-.294,1.346,1.422-.554-.821-.477,1.141Z"/><path d="M181.256,170.045c-1.072-.765-2.807-1.429-3.9-1.083-.954.3-1.438,2.093-2,3.013a44.927,44.927,0,0,0,.651,4.649c.337,1.358.788,3.019,2.564,2.921a6.486,6.486,0,0,0,3.779-1.3C185.4,175.5,185.028,172.733,181.256,170.045Z"/><path d="M301.547,379.384a3.315,3.315,0,0,0-1.931-1.908c-9.593-3.281-14.092-1.367-27.439-13.233,0,0-25.367-29.593-28.3-42.11-1.281-5.468-2.527-10.5-3.636-15.713-4.055-19.039-9.389-37.923-11.748-57.171-2.085-17.007-5.9-33.436-10.133-49.889-1.609-.186-2.939.358-3.242,2-.736,3.977,1.195,7.733,1.353,11.545.648,15.645.051,31.34,2.084,46.929a2.221,2.221,0,0,1-.327,1.416c-.5.735-1.093,1.827-1.762,1.917a3.129,3.129,0,0,1-2.37-1.237c-2.761-3.784-2.756-8.213-2.87-12.667-.277-10.781-.7-21.559-1.153-32.334-.081-1.923.038-4.915-1.048-5.569-9.038-5.444-3.179-11.856-1.229-17.7,2.235-6.7,5.547-7.227,10.414-2.1a30.16,30.16,0,0,1,3.141,4.875c3.18,1.9,4.647,4.919,5.36,8.38,1.283,6.233,2.758,12.441,3.712,18.726,1.457,9.61,7.61,16.708,12.575,24.439a5.037,5.037,0,0,0,5.3,1.821c2.1-.412,3-2.232,3.494-4.218a119.741,119.741,0,0,0,2.483-14.309c1.329-11.028,4.032-22.175,1.2-33.478-.938-3.746-.815-7.76-1.161-11.653-.469-5.277-1.25-6.927-5.811-6.357-7.789.974-11.9-2.979-15.258-8.892-1.449-2.556-2.815-5.163-4.349-7.667-3.7-6.043-5.878-12.189-3.126-19.383.829-2.168.5-4.861.372-7.3-.226-4.261-1.862-5.415-8.878-6.685a14.079,14.079,0,0,1-5.511,12.756,7.444,7.444,0,0,1-6.763,1.749c-3.24-.817-2.8-3.535-2.7-5.9a49.9,49.9,0,0,1,.736-7.3c1.292-6.689,3.606-13.306,3.923-20.027.389-8.215,3.429-15.148,7.288-21.988,1.44-2.553,3.168-4.942,4.617-7.491,1.475-2.593.237-4.707-1.651-6.448-1.907-1.759-4.213-2.636-6.638-1.162a24.762,24.762,0,0,0-9.2,9.184c-5.227,9.369-11.014,18.425-16.276,27.776a31.724,31.724,0,0,0-3.364,9.6c-1.076,5.753-1.535,11.619-2.366,17.422-.19,1.328-.375,3.185-2.355,2.952a7.086,7.086,0,0,1-3.786-1.588,7.964,7.964,0,0,1-2.658-7.946c.547-2.358,1.433-4.639,1.943-7,.4-1.858-1.939-3.542-3.847-2.972-2.423.725-3.756,4.653-7.086,2.706.384,2.463.113,4.819-3.271,3.858-4.17-1.186-5.971-.057-7.46,3.986-.916,2.489-4.177,2.026-5.06-.762-.765-2.415-1.218-4.61-3.937-5.432-2.321-.7-4.691-1.28-6.936-2.172a4.149,4.149,0,0,1-2.479-4.751,2.555,2.555,0,0,1,3.134-2.178c4.145.912,5.091-1.258,4.889-4.728-.157-2.693-1.282-4.595-4.12-5.142-7.583-1.459-10.234,0-13.158,7.624-3.254,8.483-6.355,17.024-9.644,25.868-4.257-2.74-8.834-4.391-10.254-8.491-1.226-3.543-5.534-6.441-3.02-11.236.46-.876-1.828-2.27-3.2-1.783a5.327,5.327,0,0,0-2.852,2.73c-.439,1.095,4.21,9.183,6.376,11.025,1.436,1.222.873,1.867.5,3.239-1.849,6.856-1.751,6.883,6.6,7.953.877-.746,2.186-2.3,2.558-2.1,2.129,1.135,1.017,2.734.145,4.188-1.466,6.669-2.964,13.333-4.4,20.01-1.131,5.254-2.933,10.518-2.082,15.929,2.137,13.589,1.849,27.316,2.777,40.972.366,5.381,1.225,10.667,4.592,15.219,2.572,3.477,5.177,4.387,8.763,2.34,2.071-1.183,4.636-2.413,5.677-4.329,4.411-8.122,8.671-16.364,12.328-24.846,2.879-6.68,5.651-13.481,5.986-21.034.119-2.691,1.58-5.622,5.448-4.812-.078-5.887,1.493-8.553,5.656-9.1,1.431-.188,3.15.56,3.172,2.226.252,19.321,7.219,38.766-1.1,57.96-.942,2.175-.772,4.809-1.317,7.183-3.5,15.267-6.228,30.778-10.831,45.708-5.026,16.3-12.055,31.964-17.738,48.073-3.578,10.143-6.509,20.535-9.27,30.937-.984,3.7-.873,7.777-.754,11.666.067,2.2,2.087,3.182,4.249,3.009,1.794-.143,11.717,1.9,15.661,2.165,7.537.5,20.421-.665,30.187-1.322,18.025-1.213,36.2-.674,54.3-.33,10.505.2,31.49,1.438,41.994,1.683,9.241.216,18.487.068,27.73.088a13.975,13.975,0,0,0,8.287-2.349C300.962,382.036,301.927,380.9,301.547,379.384ZM154.51,148c-1.893,1.4-3.827,2.744-5.741,4.112h0c-4.487,7.772-10.689,13.63-19.282,16.524-6.595,2.221-10.768-.224-11.485-6.688-.817-7.358,2.1-14.281,3.078-21.438.17-1.239,1.545-2.435,2.588-3.41,4.884-4.566,10.9-6.288,17.388-6.071,2.146.072,5.194.553,4.973,3.875-.179,2.687.5,6.644-2.912,7.264-3.745.68-6.229,4.408-10.691,3.448-1.913-.412-4.34,1.624-6.552,2.5-1.092.435-1.5,1.218-.849,2.3a4.39,4.39,0,0,0,1.892,1.939,11.649,11.649,0,0,0,4.169.59c3.4-.134,2.176-6.094,5.6-5.213,2.755.709,5.116,2.518,8.009.694-.838-5.991,4.191-4.807,7.305-6.006a2.962,2.962,0,0,1,3.692.916C157.01,145.174,156.155,146.783,154.51,148Zm34.644-27.661c.927-.951,2.149-2.238,3.718-.973a5.9,5.9,0,0,1,1.7,2.217,7.4,7.4,0,0,1,.45,2.857c-.011,1.457-.212,2.913-.316,4.17-1.187,4.887.413,10.08-2.588,14.405-1.074,1.549-2.212,3.255-4.606,2.752-1.818-.382-2.086-1.954-2.18-3.282C184.786,134.8,182.839,126.813,189.154,120.338Zm-7.12,139.283a2.565,2.565,0,0,1-1.54,1.861,2.97,2.97,0,0,1-3.369-2.074c-2.183-5.156.018-10.627-.952-15.9-.591-3.21-.378-6.242-5.453-6.77-3.252-.339-2.11-4.8-1.6-7.554.432-2.331,2.465-2.637,4.487-2.663,7.16-.094,8.207.9,8.422,8.3.1,3.4.017,6.815.017,10.222h.058C182.1,249.91,182.165,254.768,182.034,259.621Zm.392-73.96c-3.538,2.359-8.231,1.407-9.61-2.6-2.028-5.9-3.449-12.006-4.561-15.993-.167-6.826,2.19-8.312,7.1-6.6,2.7.941,5.385,1.944,8.062,2.956,8.62,3.256,8.459,3.216,5.984,11.588C188.116,179.355,186.3,183.081,182.426,185.661Zm19.038,112.913c-5.039-12.423-6.332-23.884-7.521-35.388-1.145-11.082-.034-22.507-4.976-33.028a5.49,5.49,0,0,1,.79-5.541,17.3,17.3,0,0,1,9.157-6.862,2.063,2.063,0,0,1,2.693,2.32c-4.207,15.347-.917,31.028-2.108,46.516a39.23,39.23,0,0,0,2.287,17.268C203.417,288.044,202.733,292.476,201.464,298.574Zm26.517-6.537a13.392,13.392,0,0,1-1.94,1.889,1.691,1.691,0,0,1-2.53-.677c-3.159-4.624-4.034-9.862-1.924-12.1.227-.24.9-.177,1.328-.094C226.094,281.667,228.176,286.21,227.981,292.037Z"/></svg>