<svg xmlns="http://www.w3.org/2000/svg" viewBox="0 0 400 400"><path d="M304.048,243.215c-1.82,2.97-1.184,5.967-.971,8.82.239,3.195,1.928,5.521,5.385,5.991,2.546.346,5.464,1.095,5.4,3.9-.18,7.486,4.719,5.04,8.543,4.812,1.769,2.712.974,5.768,1.431,8.622.58,3.628,1.921,4.567,6.112,3.208,2.475-.8,4.935-1.966,6.592.35,2.884,4.032,4.525,1.168,6.828-.49,2.566-1.846,4.948-1.054,5.589,1.438,2.171,8.453-3.732,17.569-12.129,18.315a42.3,42.3,0,0,1-17.393-2.143c-3.523-1.187-6.675-3.284-7.051-6.768-.686-6.355-5.271-9.083-9.579-12.2-2.769-2-5.829-3.6-8.715-5.449-5.873-3.762-11.041-7.73-10.426-16.039.37-5-4.117-8.148-5.628-13.06-3.265,2.977-2.388,5.41-1.882,7.526a41.141,41.141,0,0,1,.622,16.081c-1.1,6.823-3.093,13.673-12.439,13.2a5.7,5.7,0,0,0-2.693,1.081c-.364.206-.511.8-1.142,1.861,5.612,1.05,11.5-.237,16.355,3.519,4.329,3.35,8.388,6.68,10.173,12.089.919,2.782,1.83,5.584,3.015,8.258,2.659,6,4.966,7.447,11.281,7.175,3.9-.168,7.805-.854,11.694-.756,6.985.176,8.982,2.324,11.178,9.3,2.116,6.715-.13,12.57-2.95,18.288a7.344,7.344,0,0,1-4.615,3.287c-2.533.528-2.5-2.193-3.187-3.821-.919-2.187-1.2-4.8-3.873-5.776-3.686,1.557-1.757,5.137-2.82,7.625-.98,2.3-2.2,4.434-4.453,5.642-1.736.93-3.879,1.631-4.978-.7-1.245-2.638-1.892-5.553-2.965-8.282-.687-1.747-1.111-4.435-3.459-4.166-4.406.5-1.574,3.534-1.2,5.35a10.712,10.712,0,0,1-1.231,7.069c-.888,1.828-2.474,3.631-4.563,2.42-9.507-5.509-19.979-3.56-30.1-4.2-4.288-.272-8.908,1.664-12.623-1.948-4.248-4.128-8.163-8.553-9.524-14.535-.974-4.284-1.83-8.617-2.375-12.973-1.383-11.051-5.251-20.57-14.265-27.878-5.617-4.555-5.305-8.221.569-12.756,2.486-1.919,1.951-2.213-.165-3.452-2.289-1.339-3.094-3.731-3.245-6.251-.809-13.491-8.354-24.806-12.069-37.362-1.567-5.3-4.447-10.193-4.008-16.825-4.617,5.195-4.708,9.689-1.72,14.3,6.191,9.553,7.129,21.152,12.176,31.163.834,1.654.839,3.81.91,5.746.138,3.778-1.291,6.2-5.3,7.586a56.773,56.773,0,0,1-20.255,2.8c-2.938-.07-5.867-.432-8.8-.614-3.187-.2-6.228.874-7.484,3.671-2.739,6.1-8.5,9.391-12.364,14.366-5.526,7.109-13.415,9.854-21.6,11.287-9.564,1.673-18.637.5-24.326-9.126-.637-1.078-2.327-1.534-4.316-2.767-.215,5.473.071,10.068,2.063,14.567,2.438,5.5,4.021,6.582,10.1,5.965,1.943-.2,3.858-1,5.781-.989,3.041.027,5.937,1.114,7.6,3.78,4.73,7.611,8.034,15.693,6.285,24.917a5.355,5.355,0,0,1-2.707,3.023c-1.55.813-2.587-.445-3.358-1.764a33.254,33.254,0,0,0-2.34-3.738c-2.059-2.641-4.122-2.409-5.205.555-1,2.738-1.666,5.62-2.895,8.245A8.532,8.532,0,0,1,113,348.361c-2.237-1.694-1.606-4.312-2.187-6.571-.322-1.252-1.212-2.853-2.273-3.316-2.006-.876-2.022,1.127-2.311,2.414a30.494,30.494,0,0,1-.906,4.305c-2.345,6.077-4.8,6.276-9.245.693-1.768-2.22-3.231-2.292-6.062-1.287-10.152,3.605-12.649,2.467-18.2-6.1-3.549-5.482-5.9-11.242-5.621-17.917.165-3.918-.415-7.924.192-11.755,2.018-12.744.994-25.414-.261-38.1-.284-2.873-1.081-5.567-.208-8.645,2.462-8.676,5.424-11.177,14.393-11.742,4.853-.306,9.775,1.623,14.524-.429a3.437,3.437,0,0,0,1.868-2.075,2.354,2.354,0,0,0-2.429-2.819c-4.363,0-8.773.784-13.079.368-8.928-.865-15.009,3.415-19.962,10.032-1.445,1.929-2.181,4.387-3.615,6.327a7.279,7.279,0,0,1-9.1,2.7c-.457-.172-.872-.462-1.332-.623C28,257.078,23.425,252.337,17.514,232.939c-3.339-10.958-5.3-21.858-.123-32.942a15.35,15.35,0,0,0,1.076-10.087c-.335-1.388-.76-2.864.624-4,6.9-5.639,4.586-12.023,1.173-18.11,2.868-3.477,6.794-1.838,9.886-3.156,3.41-1.452,4.531-3.8,2.54-6.772-2.991-4.465-6.659-8.565-7.261-14.2a5.186,5.186,0,0,1,.9-2.619c.561-1.052,1.421-1.035,2.43-.206a33.287,33.287,0,0,0,4.611,3.57c5.207,2.914,10.49.289,10.309-5.5-.214-6.826-1.36-13.62-1.956-20.44a2.508,2.508,0,0,1,1.478-1.93,3.179,3.179,0,0,1,2.525.744,17.549,17.549,0,0,1,2.682,3.465c1.576,2.475,2.909,5.119,4.638,7.477.791,1.078,2.282,1.643,3.6,2.537,8.312-8.636,9.9-21.8,20.338-28.566.6-.392,1.74.035,3.719.138-2.149,9.128-4.282,18.082-6.329,27.056a3.34,3.34,0,0,0,.348,2.57c1.1,1.253,2.475.877,3.81.035,7.927-5,16.083-9.286,25.758-8.2,1.505,2.609-.314,3.761-1.561,5.1-4.332,4.664-8.763,9.24-12.969,14.015-1.572,1.785-3.3,3.889-3.745,6.091-.54,2.688,2.6,3.7,4.187,5.418,2.525,2.745,2.007,5.456-.79,7.454-4.093,2.926-5.638,6.675-4.4,11.448.913,3.512-.517,5.58-3.543,6.951-.892.405-1.854.679-2.7,1.158-5.394,3.051-9.591,6.729-8.347,13.909.448,2.584-1.865,3.437-3.766,2.738a58.489,58.489,0,0,1-9.17-4.56c-3.029-1.77-5.885-1.908-7.237,1.537-1.493,3.806-3.966,3.09-7.01,3.116-3.857.034-6.743,2.909-6.4,6.452.747,7.649-.171,15.494,2.422,22.939,1.058,3.037,3.051,4.849,6.437,5.06,5.74.359,10.764-.745,13.928-6.145,1.978-3.375,5.231-6.6,5.655-10.159.8-6.708,4.663-10.384,9.584-13.877,2.435-1.728,4.4-4.151,3.6-7.484-1.432-5.951,1.276-9.453,6.583-11.264,4.493-1.533,6.158-4.52,5.44-9.02-.7-4.37,2.261-5.527,5.414-7.381,7.113-4.185,7.3-5.811,3.516-12.779-.466-.858-1.151-1.6-1.612-2.459-1.454-2.719-.818-4.887,1.869-5.574a58,58,0,0,1,8.6-1.517c3.407-.337,6.867-.158,10.267-.542,2.383-.269,4.981-.676,6.391-3.021,1.448-2.409-.19-4.669-.636-6.99a16.044,16.044,0,0,1-.029-2.931c2.624-1.853,5.464-1.012,8.324-.608a23.846,23.846,0,0,0,5.822.242c9.7-1.044,13-6.322,9.57-16.123-1.141-3.261-.127-4.585,2.481-5.341,3.849-1.115,8.249-1.5,11.548.345,8.012,4.488,13.942-1.173,20.571-3.283,1.95-.621,2.616-3.021,2.222-4.985-.569-2.83-1.957-5.51-2.388-8.346-.34-2.237,1.505-3.684,3.623-3.629,5.1.133,9.326,2.634,13.341,5.545,6.17,4.474,12.146,1.129,18.054-.7,1.065-.331,1.982-2.176,2.349-3.493a63.17,63.17,0,0,0,1.185-7.344c8.533,1.172,13.209,6.846,17.069,13.153a20.8,20.8,0,0,0,11.065,9.125,13.957,13.957,0,0,0,7.195.3c2.666-.56,3.4-3.237,3.984-5.66.668-2.76,2.478-2.845,4.135-1.28a23.557,23.557,0,0,1,6.788,12.7c2.119,9.858,7.422,12.251,16.919,8.256.889-.374,1.618-1.133,2.51-1.5,2.238-.911,4.722.8,5.354,3.258.777,3.017-.106,5.765-.68,8.652a86.771,86.771,0,0,0-1.49,11.593c-.162,2.666,2.088,4.01,3.773,5.82,3.411,3.663,8.012-2.8,10.634,1.518,1.844,3.033,2.833,6.164,7.518,4.8,2.085-.609,3.525,1.326,4.237,3.247.987,2.662,1.4,5.252,3.571,7.723,4.308,4.9,3.457,9.65-1.143,13.881-4.242,3.9-10.362,4.53-14.562,1.35-1.933-1.463-3.6-3.275-5.547-4.719-.34-.253-1.522.443-2.174.9a1.459,1.459,0,0,0,.029,1.391c2.519,2.923,5.038,5.854,7.707,8.639,1.592,1.661,3.508.619,5.44.421,12.766-1.3,20.157-9.762,25.208-20.1,3.216-6.581,6.521-13.134,9.8-19.693a57.573,57.573,0,0,0,4.6-13.9c2.242-10.509,4.741-20.965,7.266-31.411.321-1.327,1.368-2.783,3.133-2.222.61.194,1.192,1.364,1.291,2.15a84.271,84.271,0,0,1-1.065,26.294,230.551,230.551,0,0,1-14.873,49.012c-.412.952-.325,1.9.83,2.279.763.25,2.221.1,2.587-.417A98.69,98.69,0,0,0,366.7,147.544c2.745-10.382,4.688-20.973,7.167-31.429.629-2.651.936-5.814,5.007-6.941a126.382,126.382,0,0,1-16.025,77.492c-1.687,2.98-3.553,5.864-5.441,8.723-.819,1.24-1.648,2.526-.761,3.858,1.042,1.566,2.637.671,3.939.245,3.325-1.088,4.81.457,4.258,3.474-.787,4.3.779,5.153,4.649,4.319,2.684-.579,4.806.073,4.469,3.645-.26,2.759-1.92,5.682,1.005,8.159,1.9,1.61,1.087,3.749-.041,5.224-2.912,3.809-6.133,7.381-9.156,10.958.413,2.359,2.456,3.025,3.785,4.377,6.148,6.252,7.079,12.317,2.788,19.142-2.59,4.12-5.54,8.021-8.445,11.934-2.887,3.89-3.847,3.65-6.864-1.306-1.045-1.716-2.458-3.361-4.643-2.053-2.928,1.752-5.574,3.97-8.461,5.8a5.787,5.787,0,0,1-6.173.177c.819-1.6,1.776-3.165,2.436-4.845.7-1.774,1.11-3.659,1.834-6.133-4.686-1.944-7.285,2.676-10.849,2.617-1.232.04-1.919-.5-1.993-1.61-.161-2.427-.014-4.922-.566-7.253-.283-1.192-1.881-3.048-2.75-2.976C316.726,253.89,310.641,247.98,304.048,243.215Zm-42.771-85.984c-2.246,9.972-4.4,18.926-6.233,27.948-.856,4.228.468,6.183,4.891,7.546,2.615.806,5.359,2.359,8.285.66-8.314-4.623-9.8-7.57-7.878-14.624,1.476-5.411,4.75-9.5,8.6-13.386,2.494-2.523,1.728-4.2-2.543-6.176C265.089,158.6,263.706,158.157,261.277,157.231ZM208.94,213.619c2.855-.3,2.679-2.072,2.951-3.382,1.067-5.13,1.095-11.009,5.668-14.287,3.375-2.418,6.66,3.583,10.684,1.776,1.458-.655,4.424.69,3.963-2.463-.152-1.04-1.742-2.343-2.918-2.683-7.417-2.14-14.1-.718-17.007,4.053C209.119,201.827,207.6,207.539,208.94,213.619Zm-54.582,3.55c3.278-10.415-1.422-16.8-6.233-23.076-.4-.523-1.857-.613-2.647-.36a3.718,3.718,0,0,0-2.034,1.852,7.264,7.264,0,0,0,.818,7C147.161,207.041,150.3,211.34,154.358,217.169Zm101.5-65.844c-4.5-9.637-10.453-17.707-24.8-14.782Zm81.472,77.164c.925-.373,3.456.933,4.014-1.508.269-1.178-.609-2.751-1.271-3.983-1.889-3.51-4.6-6.211-8.614-7.09a6.626,6.626,0,0,0-4.027.4c-2.031.987-.4,2.487.041,3.636C329.147,224.279,329.692,229.9,337.334,228.489Zm-77.108-21.11c-2.016,6.483.425,11.809,2.344,17.144.586,1.629,1.629,3.954,4.053,2.665.913-.486,1.562-2.378,1.517-3.6C267.9,217.181,265.9,211.559,260.226,207.379ZM218.9,138.251c-7.455-6.461-14.29-6.4-21.447-3.213a2.968,2.968,0,0,0-1.139,2.421c.046.79.939,2.215,1.4,2.193C204.332,139.333,210.939,138.816,218.9,138.251Zm-98.191,96.132c-4.837-3.525-10.368-6.059-13.706-11.325-1.648,2.021-1.182,3.116-.605,4.565,1.695,4.255,3.151,8.25,9.2,6.7C116.891,233.989,118.387,237.1,120.707,234.383Zm96.28-54.3c-.811-.408-1.607-1.134-2.433-1.171-4.365-.193-7.158,2.352-9.16,5.849-.526.92-2.672,2.146-.322,3.323a3.185,3.185,0,0,0,2.583-.276c2.867-1.7,5.6-3.626,8.447-5.355C217.105,181.845,217.5,181.216,216.987,180.083ZM75.246,275.829c.054.961-.17,2.072.243,2.84.382.709,1.436,1.072,2.241,1.5a2.229,2.229,0,0,0,.749-1.142c-.04-1.919-.253-3.833-.339-5.752-.061-1.345-.632-1.873-1.782-1.381a1.7,1.7,0,0,0-.884,1.054A23.17,23.17,0,0,0,75.246,275.829ZM175.571,142.334c.38.676.616,1.768,1.163,1.956,2.162.741,3.415-.594,3.957-2.467a2.262,2.262,0,0,0-1.082-1.946C177.518,139.254,176.239,140.382,175.571,142.334ZM91.288,318.521c1.126-.332,3.06.1,2.51-2.05-.126-.489-1.618-.847-2.493-.875-1.355-.044-3.363.1-3.347,1.611C87.973,318.759,89.951,318.457,91.288,318.521ZM137.046,178.8a11.922,11.922,0,0,0-2.157-.73,1.28,1.28,0,0,0-1.06.629c-.346,1.025.217,1.79,1.32,1.57C135.847,180.134,136.412,179.322,137.046,178.8ZM228.7,265.031a2.526,2.526,0,0,0,2.633-2.584c.055-.62-.664-1.31-1.031-1.968a31.659,31.659,0,0,0-2.779,2.951C227.41,263.581,228.29,264.487,228.7,265.031Zm66.789-60.2c.4-.15,1.13-.273,1.144-.453a2.247,2.247,0,0,0-.454-1.324,3.526,3.526,0,0,0-.961-.7Q295.352,203.59,295.49,204.828Z"/><path d="M186.355,276.7a44.667,44.667,0,0,1,5.089.732,2.768,2.768,0,0,1,1.854,3.509c-1.406,5.647-5,9.494-10.731,10.733-3.807.822-7.8.765-11.627,1.517a4.216,4.216,0,0,0-2.686,2.9,4.48,4.48,0,0,0,1.965,3.463,13.544,13.544,0,0,0,5.4,1.683c2.412.275,5-.413,7.3.151,10.584,2.592,12.034,4.065,8.577,13.753C189.05,322,187.954,329.423,182,334.571c-2.154,1.863-4.17,2.7-5.8-.359-1.057-1.977-2.245-3.316-4.36-1.684s-4.713,2.99-6.355.611c-6.97-10.1-18.252-14.454-27.558-21.42a12.329,12.329,0,0,1-1.914-2.2c-1.112-1.36-.368-4.808,1.308-4.889,13.14-.638,17.981-12.709,26.572-19.454C173.515,277.625,172.982,276.947,186.355,276.7Z"/><path d="M219.319,338.621c-2.767-1.046-5.647-.5-8.556-.027a25.422,25.422,0,0,1-5.825.488c-8-.581-12.6-5.561-11.521-13.584a142.673,142.673,0,0,1,4.955-22.8c1.389-4.521,1.638-8.273-.433-12.585-1.208-2.516-1.365-5.663-1.479-8.546-.132-3.32,2.141-5.437,5-6.492,1-.369,3.38.4,3.673,1.193.818,2.2.889,4.69,1.226,7.069.5,3.551,1.8,6.778,5.2,8.325,9.711,4.424,12.257,13.425,14.125,22.512,1.268,6.167,1.359,12.532,3.238,18.684,1.39,4.55-1.624,7.178-6.651,6.56A21.556,21.556,0,0,1,219.319,338.621Z"/></svg>