<svg id="Layer_1" data-name="Layer 1" xmlns="http://www.w3.org/2000/svg" viewBox="0 0 100 116"><path d="M25.12,14.67C32.54,10.39,40,6.17,47.35,1.79a5.14,5.14,0,0,1,5.92,0Q74.41,14.41,95.81,26.56c4,2.27,4,2.31,4,6.93q.07,24.89.16,49.78c0,.53,0,1.07,0,1.6.21,2.14-.75,3.44-2.63,4.46-7.68,4.18-15.3,8.46-22.93,12.74-5.75,3.22-11.48,6.51-17.24,9.74-1.79,1-3.68,1.81-5.46,2.82a3.37,3.37,0,0,1-3.75-.11c-4.75-2.84-9.53-5.62-14.28-8.44q-8.74-5.19-17.46-10.42c-4.81-2.91-9.56-5.92-14.39-8.78C.15,85.88,0,84.46,0,82.78Q.12,72.21.16,61.64c0-9.81.08-19.62,0-29.44a4.69,4.69,0,0,1,2.69-4.68C10.35,23.34,17.73,19,25.15,14.71Zm19.79,3.44a1.55,1.55,0,0,0-.39-.33A18.12,18.12,0,0,1,52.39,13,18.94,18.94,0,0,0,56.48,11c1.11-.65,1.06-1.23,0-2-1.35-.93-2.08-1-3.52.49a20.63,20.63,0,0,1-10.1,5.71c-.8.18-1.49,1.05-2.63.32,3.2-4.53,8.14-6.07,13-7.77C51.5,6,51.18,5.94,49.73,7.24A19.63,19.63,0,0,1,41.86,12a36.87,36.87,0,0,0-8.71,3.34c-6.45,3.78-12.93,7.51-19.39,11.27C11.38,28,9,29.43,6.64,30.85A3.21,3.21,0,0,0,5,33.93c.06,2.4,0,4.81-.08,7.21,0,1,0,2,0,2.94s0,1.79,0,2.67-.43,2.06,1,2.4c-.34.85-1.28,1.45-1,2.58a5.63,5.63,0,0,0,.38,1.81l0,1.12c-.56.85-.32,1.82-.4,2.74-.1.61.29,1.08.46,1.6-1,1.48-.43,3.12-.46,4.69q-.13,8-.17,16c0,1.22-.26,2.65.73,3.57,1.68,1.55,3.43,3.1,5.92,3.23l.6.9c1.3,1.23,2.69,2.12,4.83,1.09-.89.93-.78,1.58.1,2.09l1.38.83,23.44,14c1.07.64,2.13,1.31,3.2,1.94.54.32,1.15.69,1.68.07s.05-1-.2-1.44a11.77,11.77,0,0,0-8.76-6.24c-1.34-.25-1.68-.71-1.48-1.89.22-1.35.89-1.85,2.27-1.42A13.62,13.62,0,0,1,43,99.13c1.78,1.47,3.45,3.06,5.23,4.56a1.78,1.78,0,0,0-.18-1.15c-2.46-4-4.68-8.22-7.57-12-.54-.71-1-1.47-1.48-2.22a1.72,1.72,0,0,1,.33-2.21,2.08,2.08,0,0,1,2-.34,1.45,1.45,0,0,1,1.06,1.11c1.23,3.56,3.26,6.74,4.89,10.11A9,9,0,0,0,49,99.85c.41-1.49-.14-2.68-.24-3.87a14.75,14.75,0,0,1,.32-6.1c.45-1.29,1.07-1.45,2.26-.85s.9,1.52.58,2.5a14.18,14.18,0,0,0,.61,10.19c.79,1.92,1.42,2.16,3.25,1.22a13.58,13.58,0,0,1,3.67-1.58l.22.46c-1.58,1.76-3.63,3.08-5,5.06a1.67,1.67,0,0,0,1.87-.19c6.66-4,13.85-7.13,20.52-11.14,3.5-2.11,7.31-3.66,10.7-6,.5-.35,1.2-.61,1.12-1.33s-.91-1-1.59-1.15a1.74,1.74,0,0,0-1.28.21l-.72-.94a3.13,3.13,0,0,1,0-.53c.32-3.24.7-3.38,3.51-1.82a13.15,13.15,0,0,0,4.41,2A7.11,7.11,0,0,0,91.83,83c-1.23-1.74-2.42-3.51-3.61-5.28a2,2,0,0,1,.33-2.81,2.08,2.08,0,0,1,2.93.79c.77,1.6,1.43,3.26,2.13,4.9a4.06,4.06,0,0,0,1.45,2.21,6.85,6.85,0,0,0,.43-3.3,28.71,28.71,0,0,1,0-3.94c.28-1.71,0-1.84-1.84-2.24,2.33-2.11,2.47-2.82.9-4.59a3.72,3.72,0,0,0-.19-.34c1.52-1.81,1.61-3,.37-4.7-.07-.13-.15-.25-.22-.37,1.35-.95,1.09-2.35,1-3.7l-.15-1.16c.36-4-.06-7.94,0-11.92A1.24,1.24,0,0,0,95,45.33c-.35-.21-1.25.16-.39-.82,1.22-1.4,1.11-1.54-.27-2.92a2.48,2.48,0,0,0-.28-.36c1.35-1.3,2-3.08,1.2-3.77-1-.9-2.08-.09-3.06.4a1.59,1.59,0,0,0-.15-.29,7.88,7.88,0,0,0,3-2.49c.94-1.58.45-2.8-1.23-3.07L93.7,31c-1-1.27-2.21-2.18-4-1.52a1.58,1.58,0,0,0-.14-.36,3.32,3.32,0,0,0-3.09-2.14,2.34,2.34,0,0,0-1.15-1.15c-1.75-1.51-3.32-.41-4.91.35a2.11,2.11,0,0,0-.16-.34C82,24.4,82,23.73,80.17,22.87a2.46,2.46,0,0,0-2.31-.1c-.87.45-1.74.9-2.59,1.38l-5.39,3.11a42.14,42.14,0,0,1,6.22-4.12c.53-.31,1.19-.65,1.09-1.38a1.63,1.63,0,0,0-1.53-1.29,5.46,5.46,0,0,0-1.57.2l-.2-.52c-.68-2.12-1.59-2.47-4-1.54-.08-.13-.16-.25-.23-.38.51-.51.63-1,0-1.5a3.36,3.36,0,0,0-2.35-.83l-.64-.42c-1-1.34-2.18-2.34-4-2.13a.42.42,0,0,0-.24-.21c-2.27-2.75-3.75-3-6.55-1.24a16.24,16.24,0,0,0-2.91,2.31,8.79,8.79,0,0,1-4,2.45C47.55,17,46.24,17.62,44.91,18.11Z"/><path d="M67.28,15.9a14.61,14.61,0,0,1-4.68,3c-2.36,1.19-5.05,1.81-6.9,3.91-5.22,1.06-8.78,5.36-13.69,7-.14.05-.33-.05-.53-.08.44-.89,1.35-1.13,2.1-1.56,3.55-2,7-4.19,10.4-6.46a29.93,29.93,0,0,1,5.58-2.52,43.6,43.6,0,0,0,7.08-3.76Z"/><path d="M62.64,13.35c-3.13,2.38-6.8,3.94-9.73,6.6a3.69,3.69,0,0,1-1.67.82,23.74,23.74,0,0,0-7,3.26,1.89,1.89,0,0,1-1.81.4c6.25-4.81,13.35-7.63,20-11.29A.42.42,0,0,1,62.64,13.35Z"/><path d="M69.89,18.61c-3.17,2.16-6.68,3.75-10,5.72-4.87,3-10.3,4.9-14.87,8.38a7.29,7.29,0,0,1-2.8,1.14,2.78,2.78,0,0,1,1.41-1.34C50,28.92,56.19,25,62.88,22c2.35-1,4.38-2.75,6.78-3.74C69.73,18.36,69.81,18.48,69.89,18.61Z"/><path d="M95.5,59.6c-2.52.31-4.31,2-6.26,3.37a16,16,0,0,1-4.17,2.33,9.12,9.12,0,0,0-3,1.73,18.32,18.32,0,0,1-4.76,2.72c.65-1.35.62-1.4,4-3.25a30.68,30.68,0,0,0,4.5-3.31c1.41-1.16,3.3-1.31,4.85-2.2s3.13-1.7,4.7-2.55Z"/><path d="M86,87.32c-1.08,1.66-3,2.29-4.56,3C79,91.48,76.76,92.85,74.39,94c-.75.37-1.47,1-2.43.68a1.09,1.09,0,0,1,.88-1,19.35,19.35,0,0,0,5.51-3.16A12.32,12.32,0,0,1,83.26,88a3,3,0,0,0,2-1.62Z"/><path d="M92.17,37.86l-11,6.34c1-2,6.3-5.05,10.81-6.63A1.59,1.59,0,0,1,92.17,37.86Z"/><path d="M74.09,20.67c-2.83,2.42-6.19,3.92-9.53,5.48,1.08-1.66,2.89-2.32,4.45-3.29s3.25-1.81,4.88-2.71Z"/><path d="M89.71,29.43c-2.26,2.52-5.44,3.52-8.35,5,.89-1.46,2.41-2.09,3.78-2.9s3-1.65,4.43-2.46A1.58,1.58,0,0,1,89.71,29.43Z"/><path d="M94.68,63.67C90.41,66.89,85.5,69,80.77,71.42c4.39-3,9.08-5.48,13.68-8.12C94.53,63.42,94.61,63.54,94.68,63.67Z"/><path d="M80.42,26.13a25.58,25.58,0,0,1-8.67,5.07,45.89,45.89,0,0,1,8.51-5.41A2.11,2.11,0,0,1,80.42,26.13Z"/><path d="M59.49,101.36a10.79,10.79,0,0,1,3.9-2.74,21.47,21.47,0,0,1,5.2-1.93l-8.88,5.13Z"/><path d="M79.82,76.78c4.7-3,9.59-5.73,14.49-8.41a3.72,3.72,0,0,1,.19.34c-4.77,2.91-9.59,5.72-14.52,8.34A.74.74,0,0,1,79.82,76.78Z"/><path d="M94.31,41.59A36.58,36.58,0,0,1,87,45.53c-.08-.2-.16-.41-.25-.61,2.39-1.29,4.47-3.17,7.25-3.69A2.48,2.48,0,0,1,94.31,41.59Z"/><path d="M86.48,26.93l-6.7,3.87c.53-1.69,1.74-1.93,2.61-2.53,1.06-.74,2.45-1.08,2.94-2.49A2.34,2.34,0,0,1,86.48,26.93Z"/><path d="M11.32,86.54l6.1-3.5.24.51c-1.56,1.82-3.93,2.44-5.74,3.89Z"/><path d="M93.76,32c-1.37,1.07-2.56,2.42-4.86,3.16,1.51-2.1,3.5-2.78,4.8-4.22Z"/><path d="M4.84,57.4c1.23.51,2.24-.12,3.24-.68a26,26,0,0,1,4-2A39.1,39.1,0,0,1,5.3,59C5.13,58.48,4.74,58,4.84,57.4Z"/><path d="M5.22,53.54c1.46-.21,2.72-1,4.14-1.44a12.83,12.83,0,0,1-4.12,2.56Z"/><path d="M44.91,18.11c-1.34.95-2.66,1.95-4.49,2l4.1-2.36A1.55,1.55,0,0,1,44.91,18.11Z"/><path d="M86.78,44.92c.09.2.17.41.25.61-1.52,1.48-3.75,2.22-5,4.69l3.08-.72.63.66a11.28,11.28,0,0,0-3.37,2.56,9.43,9.43,0,0,1-5,3,22.26,22.26,0,0,0-5.57,1.86c1-1.16,2.5-1.84,3.2-3.59-2.14-.3-3.79,1.11-5.78,1.19,1.2-.86,2.45-1.65,3.57-2.6,1.41-1.19,1.51-1.78.53-3.18A27.32,27.32,0,0,0,67.31,43a6.25,6.25,0,0,0-3.72-1.34,1.16,1.16,0,0,1-1.3-1.08c-.09-1-.32-2,.42-2.81.4-.43,1-.15,1.5.08a20.75,20.75,0,0,1,6,3.91C70.7,42.24,71,43,72,43a36.17,36.17,0,0,0-6.33-9.23c-.53-.59-1.14-1.13-1.63-1.76-.95-1.19-.79-3.18.26-3.76s2.47,0,3.24,1.4c1.93,3.52,3.84,7,5.8,10.55A3.58,3.58,0,0,0,74.85,42a5.82,5.82,0,0,0-.43-2.53c-.47-2.11-.78-4.23.11-6.3.33-.75.49-1.85,1.82-1.38,1.48.52,2,1.24,1.4,2.51-1.84,4-.7,7.67,1.07,11.28,1,2,1.48,2.16,3.58,1.34C83.89,46.3,85.33,45.58,86.78,44.92Z"/><path d="M19.49,72.63c.83-.68,1.64-1.37,2.5-2a1.49,1.49,0,0,0,.36-2.31c-2.13-3.09-4.54-5.79-8.72-5.8-.63,0-1.42.07-1.4-.8,0-1-.32-2.22.59-3,.43-.38,1,0,1.51.23a18.57,18.57,0,0,1,5,3.11c.58.54,1.18,1.06,1.77,1.6.83-.64.31-1.2,0-1.67C19.4,59,17.85,56,15.89,53.23c-.73-1-2-2-1.11-3.56A1.44,1.44,0,0,1,16.35,49c1.81.12,1.94,1.59,2.32,2.84,1.08,3.52,3,6.65,4.6,9.94a2.06,2.06,0,0,0,1.47,1.35c-.1-2.16-.77-4.18-.7-6.28a15.88,15.88,0,0,1,.31-3.45c.19-.73.14-1.76,1.34-1.61A2.43,2.43,0,0,1,27.59,54a2.35,2.35,0,0,1-.09.53c-1.09,3.31-.26,6.54.43,9.76.52,2.45,1.15,2.74,3.58,1.92,1.1-.37,2.16-.83,3.24-1.26.09.16.16.32.24.48l-4.81,4.36c2.08.17,3.51-.65,5-.68a3.39,3.39,0,0,0,.33.42,4,4,0,0,0-.65.47C32,73.21,28.12,74.77,24,75.83c-1.09.28-1.95,1-3.1,1.22a26.9,26.9,0,0,0,5.73-5.23l-6.75,1.6Z"/><path d="M45.5,37.63,42.23,41c1.27.52,2.12-.12,3-.28l.43.45a15.6,15.6,0,0,1-9.6,5.55,2.14,2.14,0,0,0-.2-.32l2.56-2.55c.34-.33.89-.48.9-1.09-.65-.12-1.08.29-1.56.57a30.49,30.49,0,0,0-9,3.13c1.93-1.2,3.48-2.88,5.46-4,1.79-1,1.86-1.78.45-3.4a21.14,21.14,0,0,0-9.26-6.54c-.71-.23-1.81-.11-1.75-1.25a3,3,0,0,1,1.2-2.56c.83-.49,1.51.19,2.17.62a45.28,45.28,0,0,1,5.42,4.35c.31.27.66.51,1.48,1.15a23.46,23.46,0,0,0-3.8-6.44C29,27,27.82,25.66,26.77,24.22c-.89-1.2-.68-2.31.39-2.94a1.93,1.93,0,0,1,2.95,1A111.19,111.19,0,0,0,36,33.72a1,1,0,0,0,1,.68,19.39,19.39,0,0,1-1-7.6,14.61,14.61,0,0,1,.3-2.38,1.36,1.36,0,0,1,1.81-1.08c1.41.27,1.84.88,1.12,2.19-1.53,2.77-1.09,5.5-.09,8.25A11.33,11.33,0,0,0,40,35.7c1.39,2.3,2,2.46,4.54,1.35Z"/><path d="M79.82,76.78a.74.74,0,0,0,.16.27,17,17,0,0,1-7.48,4.76,6.67,6.67,0,0,1-2.83.54l-.15-.53C70,81.27,70.87,81,71,79.74c-4,.11-7.12,2.48-10.63,3.63L59.55,83c2.47-1.78,5.33-2.87,7.91-4.46,2-1.24,2-1.37.63-3.2a28.08,28.08,0,0,0-4.69-4.36,5.79,5.79,0,0,0-3.52-1.05c-.7,0-1.24-.46-1.17-1.2.1-1-.21-2.25.78-3,.54-.4,1.2.08,1.71.42A27.63,27.63,0,0,1,67,70.8c.38.42.57,1.16,1.61,1a18.33,18.33,0,0,0-3-5.51c-1.61-2.14-2.76-4.58-4.5-6.64-.92-1.09-.28-2.44,1.14-2.72a2.58,2.58,0,0,1,3,1.89A60.23,60.23,0,0,0,68.56,67a15.94,15.94,0,0,0,2.38,3.67c.08-3-1.27-5.59-.39-8.21,3,.67,3.2.94,2.78,3.61a10.88,10.88,0,0,0,.54,6.53c.89,1.89,1.13,1.93,3.1,1.11.66-.27,1.29-.6,1.94-.91.08.17.17.33.26.5-.66,1.43-2.49,1.94-3,3.68C77.49,77.1,78.67,77.42,79.82,76.78Z"/><path d="M74.61,60.12c3.9-3.63,8-6.82,13.37-6.86a21.59,21.59,0,0,0-3.51,2.61A9.37,9.37,0,0,1,80,58.09,13.2,13.2,0,0,0,74.61,60.12Z"/><path d="M40.46,75.35a21.47,21.47,0,0,0-4,2.57,19.06,19.06,0,0,1-4.59,2.64c-3.75,1.79-7.38,3.85-11.11,5.71,1.9-1.69,4.27-2.63,6.42-3.93a15.29,15.29,0,0,0,4.62-3.52,3.88,3.88,0,0,1,2.68-1.62c2.22-.18,4-1.36,5.89-2.31A1.16,1.16,0,0,0,40.46,75.35Z"/><path d="M73.12,84.84A10.19,10.19,0,0,1,79.7,80.3c1.83-.4,3.25-1.75,5-2.41a18.93,18.93,0,0,0-5.37,4.46c-1.65,1.73-4,2.27-6.16,2.91A1.25,1.25,0,0,0,73.12,84.84Z"/><path d="M79.33,62.85c3.17-4.51,8.52-5.42,12.9-8-1.82,1.79-4.43,2.5-6.12,4.48S81.33,61.12,79.33,62.85Z"/><path d="M27.2,77.45c1.74-2,3.74-3.65,6.52-4a7.6,7.6,0,0,0,1.7-.67l.2.56c-.22.16-.5.27-.63.48a9.62,9.62,0,0,1-6.28,4.1,12.31,12.31,0,0,0-1.5.55Z"/><path d="M72.75,89.8,54.88,99.5c-.1,0-.3-.06-.57-.12.23-.9,1-1.22,1.69-1.51,4.92-2.16,9.48-5,14.18-7.53a7.37,7.37,0,0,1,2.51-.88A.5.5,0,0,1,72.75,89.8Z"/><path d="M72.75,89.8a.5.5,0,0,0-.06-.34c1.46-1.58,3.33-2.64,5-4a7.07,7.07,0,0,1,3-1.13.74.74,0,0,1,.91.33.81.81,0,0,1-.29,1,5.75,5.75,0,0,1-2.86,1.86A20,20,0,0,0,72.75,89.8Z"/><path d="M43.94,77.8c-3.28,2.78-13,7.73-16.07,8.14C33.22,82.44,38.6,80.17,43.94,77.8Z"/><path d="M37,50.61c1.89-1.35,3.44-3.06,5.2-4.52a4.29,4.29,0,0,1,3.4-1.15c.12,0,.34.25.32.34-.29,1.4-1.54,1.87-2.59,2.43C41.26,48.8,38.83,49.07,37,50.61Z"/><path d="M69.52,81.82l.15.53c-4.45,3-9.33,5.23-14.4,8.09C56.72,88.53,65.52,83.36,69.52,81.82Z"/><path d="M73.12,84.84a1.25,1.25,0,0,1,.08.42c-3.7,2.66-8,4.11-12,6.38-.37-.76.21-.88.54-1,2.92-1.5,5.85-3,8.62-4.77A6.08,6.08,0,0,1,73.12,84.84Z"/><path d="M40.46,75.35a1.16,1.16,0,0,1-.12-.46l11.48-6.26c.13.76-.23.91-.5,1.06-3.11,1.76-6.21,3.51-9.34,5.23A7.41,7.41,0,0,1,40.46,75.35Z"/><path d="M12.8,32l10-5.8A27.91,27.91,0,0,1,12.8,32Z"/><path d="M65.46,75.52,56,81A20.53,20.53,0,0,1,65.46,75.52Z"/><path d="M35.62,73.32l-.2-.56,10.25-5.28L46,68C42.33,69.47,39.32,72,35.62,73.32Z"/><path d="M79.9,39.76a32.32,32.32,0,0,1,5.7-3.33C84.73,38.26,82.63,39.48,79.9,39.76Z"/><path d="M38.4,17.55a25,25,0,0,1-6.12,3.21c1.39-2.06,3.67-2.79,5.63-4Z"/><path d="M47.52,49a6.25,6.25,0,0,1-4.19,2.45l-.39-.39a5,5,0,0,1,4.46-2.58A2.31,2.31,0,0,0,47.52,49Z"/><path d="M56.44,71c-1.73,2-4.53,2.11-6.46,3.79C51.11,73.24,53.59,71.75,56.44,71Z"/><path d="M55.76,31.21a11.63,11.63,0,0,1,5.83-3.61A22.56,22.56,0,0,1,55.76,31.21Z"/><path d="M45.18,54.48a11.57,11.57,0,0,1,5.47-2.78A11.3,11.3,0,0,1,45.18,54.48Z"/><path d="M45.68,41.2l-.43-.45A9.55,9.55,0,0,1,50.43,38C49.27,39.66,47.28,40.15,45.68,41.2Z"/><path d="M59.55,83l.78.42-7.46,3.7c.7-1.38,2.07-1.58,3.16-2.23S58.38,83.58,59.55,83Z"/><path d="M45.5,37.63l-.92-.58c1-.89,2.36-1.15,3.52-1.74a17.69,17.69,0,0,1,3.18-1.47C49.67,35.61,47.53,36.53,45.5,37.63Z"/><path d="M12.08,37.17a18.71,18.71,0,0,1,7.7-4.45Z"/><path d="M53.81,95.67a7.79,7.79,0,0,1,4.07-2.76C57,94.57,55.31,95,53.81,95.67Z"/><path d="M35.54,69.49a3.39,3.39,0,0,1-.33-.42A19,19,0,0,1,40,66.54,7,7,0,0,1,35.54,69.49Z"/><path d="M25.6,34.63a9.28,9.28,0,0,1-3.75,2.11C23,35.21,23,35.21,25.6,34.63Z"/><path d="M32.71,88.63c.76-1.47,2-2.08,4.14-2.43A8.1,8.1,0,0,1,32.71,88.63Z"/><path d="M47.52,49a2.31,2.31,0,0,1-.12-.52l5.82-2.82A12.41,12.41,0,0,1,47.52,49Z"/><path d="M85.78,50.16l-.63-.66a10.72,10.72,0,0,1,4.17-1.94C88.31,49.23,86.89,49.49,85.78,50.16Z"/><path d="M28,37.17l-6.44,3.72A17.27,17.27,0,0,1,28,37.17Z"/><path d="M27.2,77.45v1A6.07,6.07,0,0,1,23.77,80C24.53,78.6,25.94,78.12,27.2,77.45Z"/><path d="M32,39.85l-5.54,3.2C27.79,41.28,29.78,40.5,32,39.85Z"/><path d="M42.94,51.07l.39.39a4.33,4.33,0,0,1-3.08,1.8C40.86,51.82,42.1,51.68,42.94,51.07Z"/><path d="M58.76,33.79a2.87,2.87,0,0,1,2-1.68C60.45,33.16,60.45,33.16,58.76,33.79Z"/><path d="M19.09,69.75A2.46,2.46,0,0,1,17,71.18C17.39,70.15,17.39,70.15,19.09,69.75Z"/><path d="M10,33.47a2,2,0,0,1-2,1.32C8.21,33.75,8.75,33.38,10,33.47Z"/><path d="M19.49,72.63l.43.79c-.76.36-1.35,1.12-2.51,1C17.75,73.33,18.67,73,19.49,72.63Z"/><path d="M15.1,80.42a2,2,0,0,1,2.19-1.09C16.84,80.5,15.9,80.3,15.1,80.42Z"/><path d="M35.88,46.43a2.14,2.14,0,0,1,.2.32L31.8,49.22A9.49,9.49,0,0,1,35.88,46.43Z"/><path d="M50.84,55.53c-.37.86-1,1.49-1.45,1s.37-.74.75-1C50.25,55.47,50.47,55.53,50.84,55.53Z"/><path d="M42.69,83a5.24,5.24,0,0,1,2.68-1.68C44.76,82.72,43.56,82.62,42.69,83Z"/><path d="M35.81,91.73c.31-.13.7-.33.84.13s-.25.59-.54.74-.68.41-.83-.09S35.52,91.92,35.81,91.73Z"/><path d="M11.18,64.47c.12.3-.08.47-.29.56s-.52.19-.68.1-.17-.43.06-.58A.77.77,0,0,1,11.18,64.47Z"/><path d="M7.85,62.23a4,4,0,0,1,2.54-1.51A3.49,3.49,0,0,1,7.85,62.23Z"/><path d="M38.4,17.55l-.49-.77c.41-.16.9-.81,1.25-.27S38.74,17.24,38.4,17.55Z"/><path d="M17.66,83.55,17.42,83a3.51,3.51,0,0,1,2.15-1C19.11,82.84,18.28,83.06,17.66,83.55Z"/><path d="M56.17,75.73a1,1,0,0,1-1.36.82A1,1,0,0,1,56.17,75.73Z"/><path d="M37.78,43.36c.48-.28.91-.69,1.56-.57,0,.61-.56.76-.9,1.09Z"/><path d="M35,65.39c-.08-.16-.15-.32-.24-.48.49-.3.9-.83,1.61-.57C36.17,65.06,35.51,65.14,35,65.39Z"/><path d="M16.59,65.86c0,.07,0,.17-.1.2a.37.37,0,0,1-.22,0C16.28,65.81,16.39,65.75,16.59,65.86Z"/><path d="M79.17,73.32c-.09-.17-.18-.33-.26-.5.21,0,.35.06.35.26S79.2,73.24,79.17,73.32Z"/></svg>