<svg id="Layer_1" data-name="Layer 1" xmlns="http://www.w3.org/2000/svg" viewBox="0 0 100 116"><path d="M0,33.52a6.26,6.26,0,0,1,3.7-6.3C16.33,20.34,28.73,13,41.12,5.73c1.83-1.08,3.77-2,5.55-3.1,2-1.29,3.75-1,5.66.14,4.33,2.57,8.72,5,13.08,7.53Q80.71,19,96,27.76c4.07,2.34,4.1,2.38,4,7.08-.35,14.65-.42,29.3-.55,43.94,0,2.12-.26,4.23-.33,6.35a3.1,3.1,0,0,1-1.7,2.77c-2.22,1.28-4.39,2.63-6.63,3.88C78,98.9,65.12,105.94,52.37,113.15a6.14,6.14,0,0,1-7-.09c-14-8.27-28-16.38-42.14-24.45A5.09,5.09,0,0,1,.25,83.55M82.6,26c1.82,2.14,4.33,3.29,6.69,4.66.6.35,1.51.44,1.63,1.57a10.06,10.06,0,0,1-3-.52c-1.47-.3-2.93-.67-4.41-.9-2-.3-2-.26-1.92-2.17.1-2.55-.29-4.74-3.22-5.57a10,10,0,0,1-2.07-1.17c-1.06-.62-2.09-.9-3.17,0s-1.54.14-1.83-.83A5.42,5.42,0,0,0,69,17.67c-2.21-1.28-4.39-2.65-6.68-3.78-1.46-.72-3.22-1.71-4.73-.51s-1.05,3.21-.76,5c.16,1,1,1.84.86,3.15-2.23-.75-4.3-1.33-6.08-3.1a6.12,6.12,0,0,0,3.28-3.18c.59-1.26.26-2.07-1.09-2.36a7.86,7.86,0,0,0-4.69.39c-2,.81-2,.8-2.83-1.09-.14-.33-.24-.67-.36-1-.79-2-1-2.16-2.82-1.11-5.89,3.39-11.78,6.79-17.61,10.28-3.94,2.35-3.9,2.46-1.55,6.54a20.06,20.06,0,0,1,2.12,3.86c-1,.33-1.26-.35-1.66-.75-1.32-1.3-2.6-2.64-3.91-4-1.69-1.7-2-1.75-4.09-.53-.58.34-1.38.48-1.49,1.34.3.56.84.58,1.35.72.9.24,2.23-.47,2.65.59s-.92,1.55-1.49,2.28c-1.76,2.26-1.18,4.09,1.61,5,.69.23,1.63,0,2,1a8.89,8.89,0,0,1-2.56,1.83c-1.63,1-1.65.94-2.35-.82-1-2.51-2.85-3.21-5.3-2.07-.71.33-1.1,1.19-2.16,1.16-.44-1.37-.82-2.79-1.36-4.16-.37-.95-1.2-1-1.78-.15-.43.63-.71,1.58-.19,2,1.78,1.29,1,2.72.54,4.22-.72,2.45.35,3.68,2.93,3.38a8.5,8.5,0,0,0,2-.56c2.55-1,2.79-.83,2.71,1.94,0,.17,0,.35,0,.53-.16,1.82-.56,2.08-2.11,1.19A9.77,9.77,0,0,0,8.3,43.51c-.9-.15-2-.89-2.66.2-.58.92.29,1.66.79,2.33.69.91,1.49,1.75,2.26,2.59.41.45,1,.78,1,1.5-.4.83-1.37.7-2,1.16-1.2.9-2.59,1.68-2.63,3.42,0,2.27,0,4.54,0,6.92.9-.3.69-.82.78-1.22.35-1.51.58-1.63,1.91-1a10.3,10.3,0,0,1,.9.55c1.52,1,1.57,1.11.27,2.27A11.22,11.22,0,0,0,5.17,70.2c-.22,4-.06,8,0,11.92A2.5,2.5,0,0,0,5.9,84.3,16.74,16.74,0,0,0,11,87.15a6.57,6.57,0,0,0-2.58-3c-.45-.37-1.29-.56-1.12-1.31s1.09-.8,1.74-1c1.22-.35,1.87.47,2.2,1.41a10.4,10.4,0,0,0,1.94,3.43,3.53,3.53,0,0,0,5.95-.56c.37-.63.21-1.84,1.27-1.74.83.08,1.06,1.11,1.32,1.82.35.94,1.24,1.73,1,3.1a21.18,21.18,0,0,0-4.77-.06c-.51.07-1.1.15-1.19.82-.07.51.34.8.71,1,1.82,1.08,3.64,2.16,5.48,3.21a2.26,2.26,0,0,0,2.28.1c.93-.48,1.55-.13,1.78.84.52,2.18,2.15,3,4.35,3.75-.9-2.22.92-2,1.84-2.61s2-1.3,2-2.6-1-1.75-1.92-2.33a7.26,7.26,0,0,0-6.81-.57,15.69,15.69,0,0,1,.38-6.31c.86,0,1.16.71,1.55,1.25A12.26,12.26,0,0,0,31.9,89a9,9,0,0,0,7.88.91A1.65,1.65,0,0,0,41,87.44a3,3,0,0,0-1.73-1.9,11.52,11.52,0,0,0-5.63-1.21c-.83.08-1.73.47-2.65-.26.37-1.45.75-2.92,1.21-4.68l2,1.82a10.13,10.13,0,0,0,3.31,2.14A2.14,2.14,0,0,0,40,83.11a2,2,0,0,0,.39-2.21c-.28-.93-.63-1.84-.87-2.78s-.79-1.78-.52-2.75c.24-.09.42-.24.55-.2,1.34.44,2.69.86,4,1.38s1.39.87.4,2.09a6.26,6.26,0,0,0-.32,7.77,1.37,1.37,0,0,0,1.79.63,6,6,0,0,0,3.23-7.42c-.37-.85-1-1.65-.66-2.89l4.86,1.38a1.39,1.39,0,0,1,1.07.82c-.29.91-1.15,1.46-1.79,2.15a6.87,6.87,0,0,0-1.68,3.54c-.29,1.63.15,2.25,1.73,2.72A5.89,5.89,0,0,0,56,86.88c1.53-.54,1.92-.28,2.25,1.21.27,1.2.51,2.41.76,3.62.1.51.35,1.12-.15,1.49s-1-.12-1.37-.44-.51-.48-.79-.7a15.87,15.87,0,0,0-7.74-3.19c-1.43-.2-1.95.31-1.93,1.73a5.9,5.9,0,0,0,6.05,5.45c.83,0,1.78-1,2.46-.07s-.16,1.67-.29,2.53c0,.35-.1.7-.18,1-.23,1-.79,1.13-1.53.53-1.09-.89-2.09-1.91-3.21-2.76-1.76-1.33-2.74-1-3.71,1-.75,1.5-.43,3.08-.43,4.83l-5.65-1.8a26.34,26.34,0,0,0,4.29-4,3.24,3.24,0,0,0,.27-4.14,3.46,3.46,0,0,0-3.75-1.87c-3.78.58-7.12,6.37-5.71,9.88a2.72,2.72,0,0,0,1.28,1.29q3.2,1.89,6.4,3.74c.52.3,1.2.8,1.68.21,1-1.25,1.79-.4,2.72.07,2.85,1.44,5.73,1.49,8-.86,1.35-1.38,2.41-2.78,4.6-2.57.51,0,1.13-.48,1.62-.84.87-.64.75-1.26-.22-1.8s-2-.09-2.72-1a2.13,2.13,0,0,1,.28-.69c1-1,2.12-2.07,3.16-3.09,1.18.67,1.12,1.91,1.75,2.73,1,1.28,1.71,1.48,3.18.84a3.73,3.73,0,0,0,2.24-2.76c.25-1,1-1.52,2-1.09,1.41.59,2.57.08,3.75-.6,1.6-.93,3.19-1.9,4.83-2.75s3.15-1.86,2.69-4.19c1.38.23,2.43.94,3.6.49a34.4,34.4,0,0,0,7.19-3.94c1.19-.81,1.16-1.66,0-2.8A17.44,17.44,0,0,1,92,79a8.33,8.33,0,0,0-4.33-3.33c-.94-.34-1.75-.33-2.24.68a1.7,1.7,0,0,0,1.12,2.33c.64.25,1.41.21,2,.48,1,.43.7,1.3.46,2s-.83.78-1.46.39c-.15-.09-.29-.2-.45-.28-1.73-.79-1.77-.8-2,1.1-.07.68-.14,1.31-.9,1.39a14.69,14.69,0,0,1-5.86-.32c.3-1,1-1.27,1.53-1.7a6.75,6.75,0,0,0,2.53-3.93c.34-1.61-.19-2.33-1.84-2.5a11.75,11.75,0,0,0-3.69.22c-3,.64-3,.65-3.35-2.35-.1-.9-1-2,0-2.68.8-.51,1.52.62,2.3,1,1.78.77,3.51,1.71,5.53,1.64.77,0,1.56-.24,1.23-1.22-.62-1.88-1.51-3.61-3.72-4.09a6.84,6.84,0,0,0-3.15-.09,1.21,1.21,0,0,1-1.66-1.18c-.07-.64-.61-1.32.14-2.06,1.19.41,2.17,1.47,3.57,1.47,1.1,0,1.45-.51.92-1.49s-1.46-1.75-1.57-2.91c.17-.14.25-.25.31-.24l3.91.59c2,.3,2,.31,1.74,2.32a10.81,10.81,0,0,0,1.11,5.64c.26.63.58,1.44,1.43,1.35s.92-1,1-1.65c.08-1,0-1.94.09-2.91,0-.61,0-1.23.11-1.84s.49-.9.92-.66c1.64.92,3.64,1.1,5.24,2.36-1.16.89-2.21,1.56-3.1,2.4-1.09,1-2.39,2.21-1.91,3.82s2.33,2,3.92,2.19c2.05.27,2.67-.26,3-2.32a39.65,39.65,0,0,0,.26-6.35c0-2.83,0-2.83-2.92-3.46,1-1.7.89-3.57.91-5.41,0-2,0-4.06.08-6.09,0-.56-.28-1.26.53-1.68.75.79.38,2.07,1.47,3.07,0-6.34,0-12.39,0-18.45a2.36,2.36,0,0,0-1.16-2,79.83,79.83,0,0,0-10.26-6A4.47,4.47,0,0,0,82.57,26Zm-28-14.36c.45-.1,1.23.19,1.52-.53.38-.94-.52-1.16-1.08-1.5-1.36-.82-2.76-1.57-4.11-2.39a2.84,2.84,0,0,0-3,0C46.56,8,46.5,8.7,47.72,9.58,49.73,11,52.1,11.33,54.59,11.66ZM11.75,33a2.51,2.51,0,0,0,2.61-1.51,3.15,3.15,0,0,0-.71-3.2,1,1,0,0,0-1.17-.38,16.31,16.31,0,0,0-4.11,2.36A1,1,0,0,0,8.54,32,7.47,7.47,0,0,0,11.75,33Z"/><path d="M52.83,25.49c.27-.92.62-2,1.6-.59a10.64,10.64,0,0,0,6.07,4.42c2.75.76,3.63.07,3.55-2.71a16.11,16.11,0,0,0-1.37-5.36c-.71-1.87-.47-2.15,1.53-2.06,2.34.1,2.5.28,2,2.73-.36,1.91-.81,3.81-.2,5.75.16.51.27,1.13.89,1.2s1.06-.58,1.19-1.18c.17-.86.19-1.75.34-2.62.18-1,.85-1.39,1.71-.81,1.21.81,2.33,1.77,3.46,2.64-.75,1.48-2.68.81-3.36,2.44,1.65.74,3.1.17,4.57-.33,1.7-.58,1.71-.56,2,1.16a2.34,2.34,0,0,1,.08.52c0,1.21,1,2.77,0,3.53s-1.88-.88-2.88-1.33a12,12,0,0,0-3.7-1.36c-1.6-.18-2.15.52-1.58,2a9.26,9.26,0,0,0,4,4.81c.37.21.85.41.77,1s-.54.65-1,.78c-1.34.44-2.68.9-4,1.31-.86.25-1.16-.18-1-1,.14-.6.37-1.18.53-1.78a5,5,0,0,0-.15-3.12c-1-2.62-2.55-3-4.57-1.14a9.48,9.48,0,0,0-2.7,4.78c-.2.83-.46,1.65.87,2.06,1,.3.29,1.23,0,1.78a7.77,7.77,0,0,0,0,6.18c.23.65.49,1.44,1.35,1.45s1-.88,1.31-1.46c.71-1.22.69-2.69,1.34-4.22,1.4,1.27,2,2.84,3.07,4.09.45.56.05,1.05-.56,1.13-2.38.31-3.61,2.08-4.88,3.77-1.64,2.18-1.39,3.14,1,4.25a23,23,0,0,0,4,1.36c1.4.36,1.59.94.67,2s-1.16,2.17-2,3.07c-.92-.16-.78-1-1-1.46a7,7,0,0,0-3.48-3.47,2.73,2.73,0,0,0-3,.25c-1,.81-.83,1.88-.5,2.93a12.75,12.75,0,0,0,2.62,4.26c.65.77.71,1.4-.28,1.89s-2,1.79-3.64,1.64a18.9,18.9,0,0,0-.41-5.28c-.24-.77-.41-1.64-1.43-1.62s-1.19.87-1.49,1.63c-.37.93.3,1.93-.31,3-1.76-1.28-2.62-3.25-4.15-4.53.39-.92,1.12-.64,1.66-.68a6.35,6.35,0,0,0,4.78-3c1-1.32.86-1.92-.63-2.72C53.27,56.26,50.78,55.37,48,56a2.37,2.37,0,0,1-2.26-.29l.3-1.54A3,3,0,0,0,46.42,52c.73-2.05.72-2.05,2.23-.8.34.28.69.54,1,.81a2.44,2.44,0,0,0,1.61,1l1,.59c.69.37,1.36.78,2.08,1.08s1.75.8,2.39-.1-.06-1.64-.51-2.39a6.58,6.58,0,0,0-1.71-2L54,49.34a12,12,0,0,0-2.34-2.64c-.45-.49-1.06-.9-.85-1.71a5.37,5.37,0,0,0,3.71-.54c1.84-.1,1.88-.1,1.74,1.39a10.22,10.22,0,0,0,2.54,7.29.84.84,0,0,0,1.14.34.93.93,0,0,0,.31-1,36.47,36.47,0,0,0-1.41-6.44c-.25-.74-.86-1.57-.48-2.27.88-1.59-.13-2-1.27-2.4-.49-.19-1-.44-1.44-.67a2.15,2.15,0,0,1,.45-1.65,6,6,0,0,0,3.64-2.86c.55-.94.26-1.55-.82-1.67A6.16,6.16,0,0,0,55,35c-2.89,1.09-3.17.88-3.06-2.26a4,4,0,0,1,.43-2,11.48,11.48,0,0,0,6.33,2.16c.9,0,2.31.49,2.52-.63s-1.33-1-2.12-1.41c-1.93-.92-4.16-.34-6.13-1.13A12.88,12.88,0,0,0,52.83,25.49Z"/><path d="M38.38,48.35a1,1,0,0,1-.79,1.34l-2.72.67c-1.09.28-2,.87-1.82,2.08s1.41,1.37,2.45,1.45a2.75,2.75,0,0,0,1-.26l2.13-.11a29.08,29.08,0,0,1-2.27,4.85c-.69-.08-.88-.52-1.15-.86-2.16-2.77-5.13-3.59-8.47-3.37-2.16.14-2.83,1.19-2.11,3.19a7.27,7.27,0,0,0,1.77,2.92c.7.67,1.38,1.37,2,2.09,1.06,1.16,1,1.47-.56,1.78-1.74.35-3.16,1.6-5,1.68-.66-.61-.09-1.15.09-1.67a8.38,8.38,0,0,0,.38-3.4,4.54,4.54,0,0,0-3.22-4.39,4.7,4.7,0,0,0-5.54,1.83,1.06,1.06,0,0,1-1,.6c-.56-1.61-.39-3.36-.73-5.16,1.57-.47,2.94,1.18,4.5.11-.3-1.38-1.59-1.67-2.6-2.27-.71-.42-2-.43-1.85-1.55S14.13,48,15,47.3c.58-.44.89.28,1.15.72A14.47,14.47,0,0,0,19,51.82c1.39,1.21,2.3,1.34,3.84.52,1.91-1,2.2-2.45.74-4.05A12.18,12.18,0,0,0,20,45.61a11.31,11.31,0,0,1-3.68-2.42c1.84-.65,3.58-1,5-2.06.82.77.39,1.82.94,2.53.44.55.79,1.26,1.65,1.06s.82-.86.85-1.48c0-.8,0-1.59,0-2.39.07-1.65.23-1.76,1.93-1.41,1.1.23,2.18.5,3.23.74,0,.87-.63.92-1,1.24-3.2,2.83-3.17,5.27-1.58,8.79.81,1.81,2.11,2,3.6.69a11.91,11.91,0,0,0,2.49-3.72c.84-1.6,1.15-1.65,2.56-.51A8,8,0,0,0,38.38,48.35Z"/><path d="M50.18,27.13c-.32,1.34-2,1.13-2.55,2.16a4.65,4.65,0,0,0-1.7,1.38c-1.2-.13-1-1.34-1.55-2a2.46,2.46,0,0,0-.49-1.59l-.58-1c-.88-1.14-2.06-1.92-3.41-1.21-1.16.61-.84,1.79-.27,2.79.27,1.67,1.44,2.78,2.51,3.94.89,1,1.83,1.9,2.74,2.85-2.45.31-4.67,1.54-7,1.93-.65-.57-.2-1-.05-1.5.86-2.54.16-4.87-1-7.13-.43-.87-1-.84-1.57,0-.93,1.35-.81,3-1.33,4.91l-4.83-4.83c.57-.81,1.27-.52,1.83-.69a9.89,9.89,0,0,0,1.75-.54c.77-.42,1.67-1,1.29-2s-1.33-.63-2.11-.63c-1.42,0-2.57,1-3.92,1.22-.61-1-.15-1.84,0-2.68.49-2.81.51-2.81,2.9-1.46a5.45,5.45,0,0,0,3.29.77c1-.11,1.31-.73.84-1.68s-1.55-1.48-1.58-2.76c1.3-.48,2.6-1,3.92-1.43.86-.28,1.15.16,1,1s-1.05,1.95.2,2.56,2-.41,2.77-1.08a11.92,11.92,0,0,0,2.36-3.17c.8-1.33,1.15-1.4,2.17-.35.73.76,1.83,1.08,2.38,2.2-.63.74-1.58.71-2.38.92a14.17,14.17,0,0,0-5.4,3.23.92.92,0,0,0-.39.92c.14.52.6.62,1.06.59a12.65,12.65,0,0,0,5.82-2.35c.52-.33,1-.78,1.48-1.1a1,1,0,0,1,1.54.43c.37.79.69,1.62,1.07,2.41.71,1.47-.35,1.38-1.25,1.45l-1.57-.24c-1.06-.35-2-.08-2.3,1s.7,1.46,1.43,1.91A5.86,5.86,0,0,0,50.18,27.13Z"/><path d="M77.35,38l3.7-1c.88-.25,1.38,0,1.28,1a5.06,5.06,0,0,0,.3,2.34,1.27,1.27,0,0,0,.92.86,1.19,1.19,0,0,0,1.28-.74,7,7,0,0,0,.79-3.83,4.78,4.78,0,0,1,.13-2.94L90.91,38c-1.55,1.21-2.94,2.26-4.28,3.37-1.63,1.35-1.56,2.56.19,3.79a10.66,10.66,0,0,0,4,1.43c1.68.39,1.75.55.9,2.08-.46.84-1,1.62-1.62,2.58-1.31-.59-1.67-1.84-2.34-2.8s-1.23-2.25-2.61-1.54-.67,2-.31,3.07c1.19,3.5,1.21,3.5-2.4,3.27a2.16,2.16,0,0,1-1.3-.23c-.38-.89.41-1.42.72-2.09a7.78,7.78,0,0,0,.78-3c0-.8,0-1.63-.81-2.08a2.2,2.2,0,0,0-2.24.33,7.91,7.91,0,0,0-2,1.75c-.74.85-1.24.73-1.74-.3s-.86-1.92-1.29-2.89c-.19-.4-.39-.84-.08-1.23s.8-.3,1.22-.16a11.5,11.5,0,0,0,4.14.76c.69,0,1.5.09,1.9-.64.51-.9-.26-1.48-.75-2.05a22.13,22.13,0,0,0-1.75-1.6Z"/><path d="M12.21,65.32c2.07.8,3.61,1.38,5.14,2,.94.38.89,1,.28,1.64s-1.06,1-1.5,1.5-.83,1.07-.33,1.66a1.37,1.37,0,0,0,1.93,0c.65-.42,1.23-.94,2-1.55a24.2,24.2,0,0,1,1,5.57c-1.43-.71-2.56-1.36-3.76-1.83-2.19-.87-3.48.15-3.16,2.48.12.87.45,1.71.6,2.58.11.62-.29,1.2-.87.92-1.5-.71-3.26-.56-4.71-1.42.28-1.11,1.23-1.38,1.86-2a4.77,4.77,0,0,0,1.45-1.85c.27-.77,0-1.22-.84-1.21a5.76,5.76,0,0,0-2.52.75c-.68.34-1.24.2-1.44-.58A10.23,10.23,0,0,1,7,70c1.45.63,2.36,1.68,3.68,2,2.14.46,3.07-.31,2.78-2.46A11.2,11.2,0,0,0,13,67.7C12.85,67.11,12.63,66.54,12.21,65.32Z"/><path d="M65.34,84.11c1,.8,2,1.56,3,2.28a1.74,1.74,0,0,0,2,.35c.75-.42.64-1.18.6-1.88-.14-2.57.07-2.72,2.34-1.68a3.09,3.09,0,0,1,1.47,1c0,1-1,1.16-1.47,1.74-1.06,1.32-.92,2.16.57,2.91.68.34,1.6.25,2,1.13-.19.86-1,1.21-1.55,1.71-1.17,1-1.21,1-2.06-.44-.3-.52-.41-1.3-1.18-1.23s-1.07.84-1.2,1.54a11.39,11.39,0,0,0-.05,1.31c-.07,1.08-.69,1.16-1.44.69-1.09-.69-2.12-1.48-3.34-2.34,1.19-.62,2.18-1.12,3.15-1.66a.8.8,0,0,0,.41-.89c-.09-.42-.45-.49-.8-.56C67,88,66.14,88.81,65.5,88s-.32-1.71-.47-2.56A1.32,1.32,0,0,1,65.34,84.11Z"/><path d="M65.24,75.13a5,5,0,0,1,1.15.45c1,1,3,1.84,2.84,3.19s-2.3,1.21-3.59,1.56a24,24,0,0,0-7,3.53c-.49.32-.82,1-1.58.9-.41-.74.12-1.34.37-1.94a8.93,8.93,0,0,0,.68-4.63c-.2-1.6.64-2.22,2.15-1.76.49.15.75.44.61,1a6.59,6.59,0,0,1-.34.71c-.26.63-.85,1.33-.3,2,.67.77,1.46.12,2.16-.15C64.39,79.11,65.34,77.56,65.24,75.13Z"/><path d="M33.71,63.24A5.25,5.25,0,0,1,32.35,67C30.53,69.67,29,72.38,30,75.8a.94.94,0,0,1-.45,1.06A26,26,0,0,1,24,73.34c.14-.92.79-.66,1.23-.68A1.58,1.58,0,0,0,27,71.13a2.29,2.29,0,0,1,.49-1.2C29.53,67.68,31.63,65.47,33.71,63.24Z"/><path d="M40.28,45.65l-.63.58c-1.44-1.89-.74-4.23-1.29-6.31-.18-.68.48-.84,1.06-.59a24.3,24.3,0,0,0,4,1.19,8.84,8.84,0,0,0,3.11.3l4.31.32c-1.54.92-3.29.77-4.85,1.38A7.68,7.68,0,0,0,40.28,45.65Z"/><path d="M86.39,59.69c-1.86-.46-3.74-.86-5.59-1.37a25.84,25.84,0,0,0-7-1.1c-1.61,0-1.88-.5-1.32-1.93,0-.09.08-.16.11-.24,1.43-3.31,1.78-3.38,4.28-.89a12.16,12.16,0,0,0,4.66,2.89c.75.26,1.49.53,2.21.86,1,.43,1.87.92,2.8,1.39Z"/><path d="M48.62,72.18a63.37,63.37,0,0,0-11.8.77,1,1,0,0,1-1.31-1c0-.26,0-.52-.07-.79-.19-2.36.27-2.86,2.44-2a45.94,45.94,0,0,0,8.47,2A3.71,3.71,0,0,1,48.62,72.18Z"/><path d="M40.85,53c.07-.49-.1-1,.53-1.61.86,1.14.68,2.54,1.09,3.73.12,3.21,1.76,6,2.62,8.89a.73.73,0,0,1-.84.36c-1.26-.31-2.91-.26-3.67-1.06s.47-2.26.55-3.48A19.84,19.84,0,0,0,40.85,53Z"/></svg>