<svg xmlns="http://www.w3.org/2000/svg" viewBox="0 0 400 400"><path d="M257.793,288.959c-2.615-5.758-5.383-11.454-7.782-17.3-1.324-3.225-3.74-4.275-6.788-4.7a7.555,7.555,0,0,0-1.461-.145c-18.1,1.015-36.2,1.963-54.279,3.168-2.423.161-4.849,1.629-2.651,4.873,3.084,4.551,1.417,9.534,1.115,14.28a69.529,69.529,0,0,1-2.4,14.417,45.84,45.84,0,0,0-.109,25.993c3.14,10.178-3.84,16.444-6.844,24.263-.379.988-2.342,1.84-3.623,1.921-3.9.248-7.821.178-11.729.054-3.037-.1-4.821-3.314-3.793-6.4,1.117-3.358,2.938-6.293,5.984-8.06,7.509-4.356,8.755-11.425,8.1-19-.539-6.222-1.969-12.367-3.046-18.8-3.768,2.507-2.5,5.782-2.475,8.667.04,4.4.533,8.8.442,13.184a12.8,12.8,0,0,1-2.734,8.184c-4.024,4.89-7.6,9.9-9.273,16.357-1.218,4.7-5.789,6.083-10.648,5.858-3.731-.173-5.707-2.594-3.941-5.656,2.848-4.937,4.4-11.092,11.614-12.11,3.151-.445,4.642-3.195,5.653-6.152,2.249-6.575,3.557-12.929,1.545-20.076a69.167,69.167,0,0,1-2.537-23.2c.569-9.267-1.106-19.06-6.723-26.629-6.316-8.509-7.317-18.066-8.174-27.686-.866-9.73-.167-19.59-.576-29.375-.186-4.456,1.067-7.247,5.106-9.454a167.42,167.42,0,0,0,14.7-9.655,2.727,2.727,0,0,0,.883-2.437c-.654-1.577-2.248-1.722-3.574-.975a59.246,59.246,0,0,0-8.72,5.422c-13.1,10.779-27.524,11.238-42.765,5.858-2.3-.811-4.4-2.186-6.7-2.956a6.542,6.542,0,0,0-7.854,2.371c-3.053,4.335-5.765,8.91-8.743,13.575-3.6-.761-2.479-3.741-2.34-5.63.593-8.051,5.955-15.788,1.478-24.167,2.105-5.4,3.157-11.693,9.282-14.214,9.569-3.939,11.111-11.594,9.3-20.244-.875-4.187.029-7.688.939-11.456.5-2.06,1.5-3.706,3.743-3.832,7.768-.438,7.328-6.614,8.136-11.741a4.935,4.935,0,0,0-1.692-3.687c-1.975-1.712-3.635-.486-4.539,1.458-1.579,3.393-3.643,2.871-5.254.444-7.645-11.517.507-26.71,14.733-27.561a3.6,3.6,0,0,1,2.466,1.164c.249.266-.3,1.512-.739,2.122-.566.779-1.521,1.275-2.092,2.051-2.321,3.158-1.533,5.938,1.841,6.276,1.921.193,3.934-.395,5.823-.1,1.26.195,3.166,1.116,3.418,2.071,1.064,4.042,2.959,7.032,6.974,8.763,2,.861,1.881,3.135,1.859,5.152-.014,1.341-.509,3.475,1.461,3.611,2.753.191,2.054-2.395,2.418-4.019,1.275-5.7,2.24-11.485,3.86-17.082,2.713-9.375,10.211-11.978,18.223-6.641,4.658,3.1,8.959,7.264,9.195,12.688.307,7.069,3.687,13.08,4.765,19.78.77,4.789.344,5.813-4.739,6.866-2.8.581-6-.12-7.745,3,1.942,2.22,4.461,1.069,6.8,1.247,9.01.689,14.655,6.57,11.664,14.44-3.961,10.423-3.745,21.018-5.018,31.635-.854,7.119-4.893,13.594-5.982,20.9-.344,2.307-4.9,2.721-6.188,6.785,8.245.184,16.171-.609,22.93,4.329,1.262.922,3.822.64,5.595.184,5.335-1.372,10.717-1.056,16.1-.924,11.271.279,22.3-.05,33.434-3.124,9.412-2.6,19.778-2.093,29.206.157,20.255,4.835,35.09,16.554,41.188,37.463a41.293,41.293,0,0,0,3.767,9.471c4.175,7.06,5,14.728,4.931,22.633-.017,1.948.368,4.4-.619,5.757-4.953,6.817-5.482,14.181-4.937,22.34.516,7.711-1.3,15.584,2.731,22.9a3.315,3.315,0,0,1-.35,2.768,2.453,2.453,0,0,1-2.2.874c-2.89-1.307-4.145-4.186-5.1-6.832-2.148-5.96-3.312-12.288-9.5-15.919-2.327-1.364-1.74-4.342-2.228-6.705-1.132-5.477.692-11.942-5.606-15.767-1.688-1.026-.956-3.5-.686-5.47,1.259-9.185,2.464-18.379,3.475-27.593.127-1.159-.693-3.109-1.62-3.552-1.908-.913-2.29,1.058-2.5,2.387-.66,4.284.407,8.631-1.8,12.921-4.327,8.427-2.866,17.21.287,25.617a33.508,33.508,0,0,1,1.743,17.076c-1.031,7.63-.936,15.564,1.814,23.227,1.853,5.164,2.348,10.533-2.97,14.671a7.667,7.667,0,0,0-2.616,4.913c-.234,2.986.195,6.723-2.867,7.709a20.086,20.086,0,0,1-15.615-.936,3.034,3.034,0,0,1-1.493-2.346c.934-4.7,1.329-9.85,5.971-12.688,8.658-5.292,9.335-13,6.983-21.725-1.529-5.675-2.992-11.374-4.779-16.969-.779-2.437-2.575-4.122-5.575-3.079l.281.318a3.832,3.832,0,0,0-1.541-4.877c-4.221-2.823-8.064-6.415-13.382-7.224Zm-139.229-147.8c-2.545,7.522,4.415,11.65,7.508,17.319.878,1.609,3.815,1,4.653-.851,2.209-4.873,4.486-9.854,3.657-15.329-.988-6.521,2.113-9.978,7.767-11.99a3.38,3.38,0,0,0,1.314-.58c.277-.291.285-.844.4-1.284.27-1.023-.287-1.478-1.46-1.912-2.333-.863-4.594-1.429-6.969-.2-4.487,2.331-6.875,1.5-7.821-4.021-.567-3.31-4.4-3.94-6.659-1.587-2.667,2.779-5.592,5.647-3.4,10.068A13.305,13.305,0,0,1,118.564,141.154ZM104.029,174.5c10.4,3.459,12.092,3.65,19.817,2.287,4.307-.76,8.624-1.465,12.921-2.276,2.192-.414,5.818-.018,5.064-3.411-.939-4.226-4.261-2.361-6.936-1.4-1.817.652-3.685,1.552-5.552,1.61-11.171.343-15.75,4.509-18.522-13.168-.218-1.391-.95-2.7-1.9-5.3C101.715,159.468,102.927,167,104.029,174.5Zm59.222,102.41-.617.143c.406,2.892.861,5.778,1.2,8.679.152,1.319.71,2.008,1.8,1.525.75-.332,1.737-1.082,1.845-1.767.881-5.6-1.276-10.574-3.526-15.491a1.737,1.737,0,0,0-1.26-.558c-.471.567-1.172,1.352-1.06,1.916A56.89,56.89,0,0,0,163.251,276.906Zm6.831-108.79c-1.414-.084-2.758.271-3.168,1.683a1.906,1.906,0,0,0,2.019,2.612,2.3,2.3,0,0,0,2.545-2.452C171.438,169.314,170.565,168.72,170.082,168.116Zm-17.138-25.353a7.283,7.283,0,0,0-1.445,2.008c-.552,1.985,1.115,2.15,2.346,2.192.471.016,1.331-1.009,1.4-1.628C155.415,143.814,154.341,143.068,152.944,142.763Zm1.214,14.7c-.33-1.105-1.031-1.442-2.062-.926a6.2,6.2,0,0,0-1,.778c.465.492.946,1.393,1.389,1.375C153.062,158.664,153.6,157.906,154.158,157.461Z"/><path d="M272.125,300.486a8.925,8.925,0,0,1,.1,2.918c-3.651,11.548-7.461,23.022-6.97,35.428a5.779,5.779,0,0,1-4.3,5.449c-3.975,1.129-5.127,4.02-5.865,7.551-.569,2.719-2.558,4.026-5.283,4.113-2.443.078-4.89.071-7.335.043-8.853-.1-10.078-2.4-6-10.717,1.326-2.707,2.548-5.47,5.759-6.134,6.382-1.318,7.734-6.825,10.125-11.558,2.716-5.377,4.208-11.051,3.2-17-.948-5.585-4.639-9.567-9.183-12.721-5.014-3.482-7.974-8.45-10.481-13.837a15.42,15.42,0,0,1-1.4-8.544,5.632,5.632,0,0,1,2.063-3.555,4.81,4.81,0,0,1,5.536-.118,16.333,16.333,0,0,1,3.774,4.272c2.438,3.652,4.618,7.477,7.07,11.121,1.093,1.624,2.639,2.836,4.858,1.76l-.309-.257c-1.853,2.4-.717,4.35,1.153,5.891,4,3.3,8.791,5,13.77,6.21Z"/></svg>