<svg id="Layer_1" data-name="Layer 1" xmlns="http://www.w3.org/2000/svg" viewBox="0 0 100 116"><g id="_Radial_Repeat_" data-name="&lt;Radial Repeat&gt;"><g id="_Radial_Repeat_2" data-name="&lt;Radial Repeat&gt;"><path d="M33.43,39.07c0,.17,0,.84-.26,1-1.8,1.21-3.48,2.73-5.79,2.83a1.46,1.46,0,0,1-1.52-1c-.18-.68.44-.92.9-1.19,1.65-1,3.29-2,5-2.93C33,37.14,33.42,37.43,33.43,39.07Z"/><path d="M48.63,28.49c.89,0,1,.67,1,1.35-.13,1.88-4,4-5.61,3.16a.86.86,0,0,1-.53-1.11C43.72,31.06,47.68,28.46,48.63,28.49Z"/><path d="M14.77,50.94c-.88.16-1.89-.07-1.55-1.62s1.52-1.77,2.61-2.17c.92-.34,1.33.19,1.21,1.18S15,50.91,14.77,50.94Z"/><path d="M59.34,22.84A2.54,2.54,0,0,1,61.8,21a1.75,1.75,0,0,1,1.93,1.57c.09.8-1.59,1.64-2.88,1.5C59.93,24,59.3,23.48,59.34,22.84Z"/><path d="M14.9,51.42h0Z"/><path d="M64.73,24.31a13.39,13.39,0,0,0-2.2,1,2.73,2.73,0,0,1-3.11-.06c-1.81-1.11-3.69-2.11-5.59-3.05s-2.21-.87-2.35,1.26c-.07,1.11-.12,2.23-.17,3.34-.27,5.73,0,4.38-4.5,7.26a3.18,3.18,0,0,1-3.6.18C41,33,38.72,32,36.44,31c-1.26-.56-1.73-.27-1.79,1.05a23.25,23.25,0,0,0,.12,2.5c.44,7.41.71,5.93-5.6,9.34a3,3,0,0,1-3.39-.16A47,47,0,0,0,21.25,41c-2.18-1.08-2.57-.84-2.73,1.52-.14,1.94-.08,3.89-.24,5.83s-3,4.14-3.27,4.39c-.61.63,3.9,2.13,3.9,2.13C22.71,53,28,49.76,31.7,47.66s7.25-4.07,10.88-6.1l11.35-6.37c3.38-1.9,7.79-4.52,11.18-6.4C65.11,28.79,65.61,24,64.73,24.31Z"/><path d="M15.46,50.87a.08.08,0,0,0,0,0Z"/></g></g></svg>