<svg xmlns="http://www.w3.org/2000/svg" viewBox="0 0 400 400"><path d="M260.894,162.689c-7.676,8.1-16.983,11-28.014,9.3a45.465,45.465,0,0,0-24.529,2.56c-2.894,1.177-6.464.694-9.607,1.538,15.735,0,31.471-.026,47.206.013,5.74.015,7.911,1.8,6.037,6.967-3.837,10.578-1.9,21.189-1.969,31.829a19.043,19.043,0,0,0,4.011,12.225c3.248,4.286,5.858,9.053,9.106,13.337,5.784,7.629,8.007,16.74,10.826,25.547a23.266,23.266,0,0,1-.538,15.882c-3.657,9.015-6.224,18.665-14.354,25.216-1.856,1.5-3.135,3.73-4.6,5.684a3.633,3.633,0,0,0,.488,5.256c5.9,3.989,10.994,9.478,19.534,8.156,4.953-.767,7.971,2.555,9.395,7.455,1.172,4.035.179,8.072-3.7,10.236-5.2,2.9-9.878,8.843-17.166,4.268-.77-.483-2.973.365-3.9,1.242-4.385,4.155-9.514,3.478-13.428.6-3.824-2.813-7.03-4.273-11.9-3.745-6.548.709-10.643-4.006-14.439-8.654-3.593-4.4-5.473-10.5-12.385-11.617-1.711-.277-2.579-2.729-2.727-4.825-.243-3.444-.39-6.85,1.227-10.074,1.536-3.065,3.442-6.035,4.411-9.278,2.464-8.249,6.206-15.261,14.137-19.66a4.851,4.851,0,0,0,1.083-7.7c-5.374-6-9.048-12.509-9.821-20.735-.308-3.279-3.669-4.068-6.73-4.592-6.928-1.184-8.1-.319-7.367,6.173.719,6.326,1.431,12.658,2.382,18.952,1.763,11.672,3.071,23.258-.385,34.927-1.091,3.683-1.048,7.736-1.258,11.635-.247,4.61.1,8.783,6.171,9.8,4.98.832,6.986,5.235,8.39,9.373,2.389,7.036-3.474,15.066-10.379,13.971-1.921-.3-4.081-.146-5.71-1-2.532-1.331-4.613-1.321-6.572.625a11.935,11.935,0,0,1-12.324,2.909c-5.7-2.009-10.386-2.279-15.886.568-2.82,1.46-6.768.355-9.755-1.779a58.747,58.747,0,0,1-13.3-13.551,9.333,9.333,0,0,1-.955-9.777,26.933,26.933,0,0,1,1.812-4.015c9.879-14.2,9.592-30.491,8.992-46.572-.421-11.311-1.749-22.477,3.416-33.138.623-1.286,1.317-2.971.994-4.216-3.311-12.778,2.409-26.32-3.323-38.845-1.708-3.732-1.419-7.67-1.422-11.561-.01-12.668.034-12.668,11.731-18.692-12.192,1.03-17.481,4.488-20.689,16.337-2.588,9.558-5.678,18.516-11.192,26.821-3.72,5.6-2.41,13.466-7.544,18.783-1.5,1.552-.3,3.674.432,5.508,1.273,3.184,2.493,6.393,3.626,9.629,2.068,5.911,1.026,8.71-4.354,12.059-4.866,3.03-9.828.9-11.07-4.795a18.863,18.863,0,0,1-.167-2.932c-.448-8.017-4.886-13.071-12.572-13.846C94.09,241.846,89.986,240,88.7,233.663c-9.647-4.407-5.724-16.075-11.895-22.426-.609-.627.033-2.8.522-4.086.689-1.815,1.347-4.062,2.767-5.109,8.8-6.483,7.181-13.679,2.286-21.623-2.027-3.29-3.118-7.157-4.641-10.758-1.07-2.529-3.162-3.49-5.729-3.915-4.882-.807-8.005,1.664-7.185,6.368,2.09,11.993,3.325,24.157,6.9,35.868a12.615,12.615,0,0,1,.034,3.205c-3.223,1.672-4.982-1.153-7-2.667a13.686,13.686,0,0,1-2.654-3.485c-7.171-10.668-11.777-22.533-15.9-34.593-1.631-4.771-2-9.775,1.244-14.074,6.307-8.346,9.83-18.144,12.65-27.82,2.211-7.591,7.289-10.467,13.2-12.124,6.293-1.764,12.632.264,17.6,4.927a52.514,52.514,0,0,1,6.862,7.64c3.628,5.086,5.441,10.6,1.117,16.235-4.012,5.233-3.84,10.733-1.991,16.665,2.3,7.363,4.272,14.824,6.546,22.8.97-10.817,9.253-17.165,14.1-25.5,1.21-2.082,3.559-3.523,4.682-5.632,6.568-12.334,15.025-22.6,27.707-29.358,3.533-1.883,5.49-6.718,8.175-10.194,2.063-2.671,3.695-5.91,6.289-7.885,5.648-4.3,10.7-8.92,18.906-9.793,7.759-.825,16.82-1.169,22.657-8.826,1.149-1.508,4.539-1.385,6.925-1.863,8.716-1.745,17.529-1.312,26.343-1.217,7.05.076,12.166,3.141,15.775,9a73.311,73.311,0,0,1,3.627,6.379c1.773,3.656,4.2,6.559,8.085,8.074,6.649,2.594,9.569,7.92,10.651,14.593a15.4,15.4,0,0,0,.919,4.29c6.262,12.744-.269,21.487-9.164,29.444-2.537,2.27-5.36,4.221-8.053,6.318Zm-26.572-52.231a10.683,10.683,0,0,0,8.425-.749c1.257-.623,2.6-1.257,2.638-3.074.044-2.218-1.221-3.55-2.914-4.569a3.706,3.706,0,0,0-5.118.79c-2.183,2.458-2.19,7.348-5.772,7.739-5.1.555-4.012-5.547-6.6-7.978-1.8-1.7-3.485-.8-5.079.279-1.805,1.223-2.452,2.911-1.232,4.878a6.919,6.919,0,0,0,7.546,3.147C228.948,110.406,231.462,108.312,234.322,110.458ZM168.94,265.948c-.17-2.686-.237-5.6-.623-8.476a2.589,2.589,0,0,0-1.961-1.609,2.884,2.884,0,0,0-2.039,1.62c-2.416,6.19-1.776,12.294.885,18.256.151.337.9.757,1.128.645.767-.373,1.962-.9,2.035-1.494C168.723,272.007,168.77,269.086,168.94,265.948Zm73.938-138.927q.258-1.059.515-2.117c-6.763,0-13.527-.078-20.287.065a11.15,11.15,0,0,0-4.007,1.42c-.3.137-.407.831-.49,1.289a2.615,2.615,0,0,0,.114.988C226.776,128.147,234.827,127.584,242.878,127.021Zm-35.856,74.587c5.3,1.147,9.392.953,13.441-.726,1.162-.482,1.642-1.083,1.147-2.188-.167-.374-.515-.912-.822-.942C216.08,197.305,211.45,197.215,207.022,201.608Zm-18.648,95.029c-.419-.839-.728-2.32-1.276-2.415a22.53,22.53,0,0,0-12.56,1.677c-.969.4-.813,1.38.161,2.275C179.106,302.226,186.1,301.443,188.374,296.637Zm-3.643,27.412c-4.333-4.869-7.552-4.159-10.725-2.8-.713.305-1.089,1.4-1.619,2.125.757.392,1.514,1.117,2.272,1.118C177.53,324.5,180.4,324.265,184.731,324.049Zm72.936-38.222a3.243,3.243,0,0,0-1.95-1.8c-3.109-.757-4.274,1.626-5.268,3.826a2.8,2.8,0,0,0,.545,2.532c1.192,1.131,2.595.676,3.847-.238C256.343,289.051,258.562,288.345,257.667,285.827Zm-22.79,33.71c-.474-.66-1.013-1.9-1.394-1.852a7.378,7.378,0,0,0-3.574,1.286c-.928.729-.518,1.677.6,1.96C232.244,321.373,233.931,321.607,234.877,319.537Zm9.184-82.4a11.1,11.1,0,0,0-1.358-2.095c-.8-.786-1.5-.351-1.23.912.144.681.983,1.246,1.593,1.764C243.162,237.8,243.709,237.352,244.061,237.139Z"/><path d="M261.05,162.528c7.123.117,11.345,2.085,10.132,4.853-2.917,6.659,2.915,13.383-1.083,19.849a5.694,5.694,0,0,0,1.036,6.879c4.521,3.976,7.291,8.94,9.962,14.194,1.664,3.273,5.983,2.727,7.676-.526,4.96-9.533,10.512-18.787,13.168-29.372,2.151-8.579,1.326-10.9-7.243-17.442,7.9-7.389,11.282-15.841,4.635-25.846,4.108-3.515,10.278-.655,13.6-5.042,2.642-3.488,5.01-7.185,7.967-11.465,4.68,1.5,6.758,7.108,11.641,7.865,4.248.658,8.527,1.114,13.34,1.73-1.923,9.686-5.576,19.73,5.393,26.207-.806,3.739-3.945,4.048-6.3,5.42a40.579,40.579,0,0,0-4.577,3.637c-4.33,3.458-.858,10.207-4.845,13.064-3.36,2.409-8.866-.739-12.518,2.489a19.156,19.156,0,0,0-4.2,5.842c-3.691,7.461-7.405,14.928-10.6,22.6a27.841,27.841,0,0,1-5.714,9.041c1.946,2.449,4.241,4.759,5.8,7.489,1.154,2.022,2.132,4.692,1.844,6.9-1.5,11.53-7.446,20.945-15.821,28.583-6.736,6.142-16.807,3.5-20.792-4.818a26.5,26.5,0,0,1-1.715-5.6A40.973,40.973,0,0,0,262,229.641c-4.9-5.259-7.061-11.437-7.328-18.666-.272-7.354-.937-14.685.243-21.991.464-2.872,1.675-5.629,2.064-8.5.5-3.684,6.923-3.721,5.291-7.819a21.745,21.745,0,0,1-1.371-9.972Z"/></svg>