<svg id="Layer_1" data-name="Layer 1" xmlns="http://www.w3.org/2000/svg" viewBox="0 0 100 116"><g id="_Radial_Repeat_" data-name="&lt;Radial Repeat&gt;"><path d="M12.54,49.31a2.17,2.17,0,0,0,.25,0c.73,0,1.38.1,1.63.91A1.58,1.58,0,0,1,14,51.89a1.37,1.37,0,0,1-1.86.18l-.42-.28A3.12,3.12,0,0,1,12.54,49.31Z"/><path d="M13.94,45.85c-.18,1.77-.2,1.79-1.88,2a1.18,1.18,0,0,1-.13-1.78A1.37,1.37,0,0,1,13.94,45.85Z"/><path d="M30.21,37.47c.78-.08,1.39-.17,2-.19a1.29,1.29,0,0,1,1.34,1.33,6,6,0,0,1,0,1,1.9,1.9,0,0,1-1.55,1.87,1.87,1.87,0,0,1-2.14-.6,2.09,2.09,0,0,1-.25-2.45C29.72,38.17,29.94,37.89,30.21,37.47Z"/><path d="M44.83,32.78a2.1,2.1,0,0,1-1.08-1.65,1.4,1.4,0,0,1,.49-1.4,4.16,4.16,0,0,1,.66-.43,2,2,0,0,1,2.62.13,1.71,1.71,0,0,1,.5,2.11c-.17.49-.24,1-.75,1.29A1.92,1.92,0,0,1,44.83,32.78Z"/><path d="M51.2,30.45c-.64-.39-1.26-.72-1.84-1.11a1.59,1.59,0,0,1,0-2.65,5.31,5.31,0,0,1,.66-.43c1.28-.65,2.14-.48,2.75.5A2.14,2.14,0,0,1,52.2,30,9.31,9.31,0,0,1,51.2,30.45Z"/><path d="M39.81,35.84a3.33,3.33,0,0,1-.75-1.78,1.55,1.55,0,0,1,.48-1.67A2.42,2.42,0,0,1,42,31.88a2.63,2.63,0,0,1,1.15,2.23A2.18,2.18,0,0,1,40.74,36,7.89,7.89,0,0,1,39.81,35.84Z"/><path d="M35.43,38.32a2.1,2.1,0,0,1-1.15-1.84,1.94,1.94,0,0,1,1.09-1.93,2,2,0,0,1,2.23.12A1.58,1.58,0,0,1,38,35a2.87,2.87,0,0,1-.73,3.53A1.76,1.76,0,0,1,35.43,38.32Z"/><path d="M19.62,43.69c.4-.28.61-.45.84-.58,1.51-.82,2.83-.18,3.05,1.46a2.43,2.43,0,0,1-1.1,2.22,2.46,2.46,0,0,1-2.61-.73,1.43,1.43,0,0,1-.28-.72C19.51,44.82,19.58,44.3,19.62,43.69Z"/><path d="M53.89,26.3A7.75,7.75,0,0,1,54,24.87a2.19,2.19,0,0,1,2.59-1.67,1.5,1.5,0,0,1,1.19,1.23c0,.17,0,.35,0,.52.06.69.32,1.47-.4,1.94a2.21,2.21,0,0,1-2.7,0C54.46,26.76,54.26,26.59,53.89,26.3Z"/><path d="M26.91,44.91l-1.38-.78a2.16,2.16,0,0,1-1-2,2.1,2.1,0,0,1,2.38-1.91,2,2,0,0,1,1.55,2.12,3.91,3.91,0,0,1-1.57,2.59Z"/><path d="M59,21.43c.3-.54.62-1,1.36-1a1.88,1.88,0,0,1,2,2.58,4,4,0,0,1-.84,1.3,1.19,1.19,0,0,1-1.21.29,3.39,3.39,0,0,1-.94-.45,1.51,1.51,0,0,1-.61-2.23A4.12,4.12,0,0,1,59,21.43Z"/><path d="M60.67,17.25a1.39,1.39,0,0,1,.26.35,4.12,4.12,0,0,1,.23.78.91.91,0,0,1-.26,1,1.31,1.31,0,0,1-1.52.07.89.89,0,0,1-.42-.66,2.74,2.74,0,0,1,0-.64,1.16,1.16,0,0,1,1.51-1A1.13,1.13,0,0,1,60.67,17.25Z"/><path d="M15.75,46.14a3.72,3.72,0,0,1,.73-.35,1.75,1.75,0,0,1,2.21,2.39,4,4,0,0,1-.49.91,1.45,1.45,0,0,1-1.82.61,1.55,1.55,0,0,1-1.12-1.81C15.39,47.3,15.59,46.72,15.75,46.14Z"/><path d="M38,32.57a1.45,1.45,0,0,1-2.07.41,1.41,1.41,0,0,1-.57-2,2.09,2.09,0,0,1,2.39-.49A1.46,1.46,0,0,1,38,32.57Z"/><path d="M33.35,35.11a1.42,1.42,0,0,1-2.19.59,1.38,1.38,0,0,1-.7-1.76,2,2,0,0,1,2.24-.86A1.69,1.69,0,0,1,33.35,35.11Z"/><path d="M25.61,37a1.78,1.78,0,0,1,1-.89,1.44,1.44,0,0,1,1.88.84,1.27,1.27,0,0,1-.75,1.69,3.82,3.82,0,0,1-1,.23.77.77,0,0,1-.83-.47,1.64,1.64,0,0,1-.18-.48C25.68,37.61,25.64,37.27,25.61,37Z"/><path d="M23.22,38.57a2,2,0,0,1,.53,2.16,1.37,1.37,0,0,1-1.58.64c-.78-.31-1.44-1.6-1.08-2.14A2.06,2.06,0,0,1,23.22,38.57Z"/><path d="M42.68,30a1.29,1.29,0,0,1-1.85.35,1.56,1.56,0,0,1,1.63-2.58,1.42,1.42,0,0,1,.47,1.82C42.89,29.62,42.84,29.69,42.68,30Z"/><path d="M46.14,27.4c-1.06-.62-1.23-1.42-.6-2a1.83,1.83,0,0,1,2.52.27,1.21,1.21,0,0,1,.1,1.23,1.27,1.27,0,0,1-1.26.72A6.11,6.11,0,0,1,46.14,27.4Z"/><path d="M18.59,44.15a1.3,1.3,0,0,1-1.13.46,1.14,1.14,0,0,1-1-.73,1.67,1.67,0,0,1,1.24-2.21.79.79,0,0,1,.5.08A1.94,1.94,0,0,1,18.59,44.15Z"/><path d="M57.26,21.2c-.5.89-1,1.1-1.66.68a1.38,1.38,0,0,1-.68-1.79,1.32,1.32,0,0,1,2-.45C57.56,20,57.66,20.48,57.26,21.2Z"/><path d="M52.72,22.08a1.32,1.32,0,0,1,.34,1.84,1.29,1.29,0,0,1-2.16-1.4A1.33,1.33,0,0,1,52.72,22.08Z"/><path d="M10.74,49.82c-.05.13-.05.46-.15.6s-.42.34-.63.56a.93.93,0,0,1-1.1.34c-.57-.27-1.36-1-1-1.51A5.28,5.28,0,0,1,9,48.65a1.22,1.22,0,0,1,1.74.93C10.73,49.65,10.73,49.71,10.74,49.82Z"/></g></svg>