<svg xmlns="http://www.w3.org/2000/svg" viewBox="0 0 400 400"><path d="M249.274,279.946a9.376,9.376,0,0,0,3.444,6.265c2.188,1.794,5.552,2.446,5.88,6.01.362,3.938.829,8.319-1.329,11.511-5.308,7.849-7.84,16.808-11.3,25.388-2.739,6.783-6.949,10.1-14.673,9.038-4.788-.659-9.764.124-14.656.122-3.59,0-7-.745-8.146-4.774-1.243-4.378.575-9.656,3.829-11.906.8-.552,1.725-1.384,2.56-1.347,8.907.4,10.525-6.182,13.42-12.577,3.4-7.518,2.682-11.4-3.9-16.427-2.329-1.778-4.317-4.161-6.873-5.454-6.135-3.1-7.579-8.7-8.294-14.6-.705-5.83,2.374-9.871,8.274-11.817,2.32-.765,4.588-1.745,6.956-2.293,3.91-.9,6.671.359,8.565,3.933,2.047,3.864,3.721,7.929,5.861,11.737a2.2,2.2,0,0,0,3.608.335,2.766,2.766,0,0,0,.413-2.542,33.665,33.665,0,0,1-6.324-15.6c-4.782-2.318-9.267-1.291-13.622-1.5-5.387-.258-10.81-.079-16.166-.61-6.549-.649-10.7-4.558-11.92-10.987-.813-4.3-1.492-8.6-.579-13.116.632-3.124,2.4-6.5.134-9.77a13.086,13.086,0,0,0-4.18,10.45c.17,4.891-.272,9.876.537,14.654,1.021,6.031-1.924,10.276-6.52,11.769-13.954,4.533-26.9,12.395-41.471,14.439a44.225,44.225,0,0,1-31.734-8.063c-2.941-2.076-6.293-2.342-9.084-4.334a10.931,10.931,0,0,0,.494-2.4c-.06-3.686,5.322-7.088,2.011-10.293-2.8-2.709-6.251,1.337-9.208,2.544-5.562,2.271-10.65,1.092-15.63-1-3.116-1.307-5.7-3.848-8.768-5.319a10.667,10.667,0,0,1-6.125-7.715c-.445-1.9-.784-3.846-1.406-5.691-1.029-3.055-5.758-4.971-3.538-8.907,2.576-4.565,5.72-8.852,10.244-11.855,1.522-1.01,2.816-.285,4.107.341,3.676,1.782,6.023,5.05,8.3,8.185,2.023,2.791,4.193,3.661,7.435,2.795q7.066-1.89,14.222-3.438c2.192-.476,5.228,1.779,6.551-1.048,1.281-2.736.211-5.591-1.526-8.255-2.258-3.463-5.554-5.4-8.93-7.414-2.761-1.645-5.507-2.139-8.215-.206a9.912,9.912,0,0,1-6.836,1.957c-2.876-.217-5.758.354-7.645-2.936-2.108-3.677-.568-6.767,1.237-9.58.892-1.39,3.215-1.833,4.842-2.787,1.606-.942,3.844-1.956,2.655-4.2a6.032,6.032,0,0,0-6.115-3.265,5.426,5.426,0,0,0-2.575,1.171c-4.669,3.648-9.3,1.665-13.753-.248-4.6-1.974-5.58-6.369-6.6-10.778-1.049-4.547.923-8.476,4.2-10.164,11.032-5.691,16.173-16.763,23.718-25.436,6.133-7.05,13.038-10.467,21.44-10.683a34.269,34.269,0,0,0,13.825-3.419c3.188-1.447,7.121-4.765,9.314,1.538a2.674,2.674,0,0,0,2.443.841c5.235-3.265,10.263-.725,15.345.328,6.585-4.416,11.038,1.137,15.1,4.2,5.234,3.951,10.2,7.1,17.488,5.546-.566,3.749-.964,6.472-1.391,9.191-.34,2.161.219,4.034,2.442,4.6,7.549,1.912,9.4,10.582,16.146,13.5.829.359,1.4,2.725,1.13,3.949-.832,3.776,1.259,5.548,4.187,6.488,4.933,1.583,8.209,5.06,11.518,8.754,9.99,11.154,22.611,18.438,36.262,24.156,7.217,3.024,14.52,5.886,21.533,9.334,3.431,1.686,7.067,3.99,9.208,7.009a19.588,19.588,0,0,0,10.381,7.645c9.929,3.181,18.688,8.34,27.046,14.478a24.994,24.994,0,0,0,22.31,3.846c12.487-3.589,13.843-12.137,10.408-21.69A29.513,29.513,0,0,0,340.924,207.5c-7.558-5.476-15.483-10.411-24.645-12.607-8.552-2.05-16.671-5.723-25.561-6.559a18.113,18.113,0,0,1-6.8-2.535c-7.813-4.385-13.1-11.308-12.7-20.059.369-8.085,5.85-14.767,13.445-17.861,7.994-3.256,16.257-7.073,25.447-4.512.94.262,2.052.817,2.849.545,10.689-3.642,19.908-.708,28.321,6.091,6.962.668,9.444,6.394,12.45,11.334.914,1.5,1.582,4.175.854,5.451-1.691,2.961-4.183.913-6.2-.185-3.018-1.647-5.735-3.772-9.041-.162-1.563,1.706-3.644.153-5.185-.914-8.255-5.717-18.687-4.383-27.549-8.634-4.056-1.946-9.641-.992-14.519-.86-5.17.14-7.334,4.469-9.476,8.235-1.381,2.429,1.183,7.378,4.692,10.015a32.647,32.647,0,0,0,16.272,6.295c14.569,1.606,26.835,8.29,38.663,16.432,13.713,9.44,20.936,29.709,17.121,43.764-1.834,6.759-5.523,11.154-12.087,13.522-8.166,2.947-16.3,3.5-24.341.018-7.187-3.113-14.3-6.429-21.269-10a29.2,29.2,0,0,0-14.133-3.311c-3.477.059-5.272,1.661-5.628,5.33-.284,2.923-.253,5.875-.425,8.81-.346,5.907,1.4,10.691,7.244,13.1a11.731,11.731,0,0,1,7.582,12.985c-1.521,11.861,3.882,21.918,7.052,32.593,1.246,4.2,2.936,8.4,3.287,12.688.637,7.766-2.726,10.983-10.554,12.531-8.348,1.65-16.524-.305-24.775-.523-2.926-.077-4.676-3.731-3.491-6.633.546-1.336,1.045-2.909,2.067-3.8,11.748-10.238,5.889-22.243,3.437-33.859a6.609,6.609,0,0,0-2.459-3.576c-6.605-4.813-12.959-10.234-21.76-10.538a2.458,2.458,0,0,0-1.85-3.138c-.732-.2-2.045-.128-2.364.33-1.194,1.712.247,2.354,1.578,2.664A11.407,11.407,0,0,0,249.274,279.946ZM146.153,235.893l-23.568,5.882c-3.736-4.559-7.927-7.666-14.3-3.781,5.426-.868,8.647,5.688,14.441,3.594,9.564,8.921,20.175,6.865,24.093-4.7.091-.269-.523-.777-.807-1.17,3.175,1.29,3.378-.479,2.968-2.881.477-.112,1.216-.067,1.393-.361,4.983-8.286,4.509-17.566,4.612-26.691.023-2.04-2.187-1.717-3.349-1.19-1.692.769-3.461,1.738-3.008,4.315.82,4.667-4.911,3.6-6.266,7.024-1.253,3.166-4.1-.2-6.255-.448-2.409-.28-4.883-1.127-5.275,2.633-.279,2.684-2.009,3.318-3.716,1.505-2.316-2.459-3.979-5.52-6.166-8.117-1.49-1.77-3.218-1.937-4.148.7a12.522,12.522,0,0,0-.56,2.879c-.28,2.793-5.422,1.195-4.356,4.156a7.855,7.855,0,0,0,5.52,4.159,58.035,58.035,0,0,1,15.476,3.416c2.135.856,4.537-.092,6.887-1.315,8.386-4.362,8.647-4.075,9.232,6,.028.489.084.977.128,1.466C147.135,232.923,146.444,234.2,146.153,235.893Zm99.77-18.805c-3.2-2.753-6.3-5.465-9.456-8.1-1.126-.939-2.532-1.5-3.452.157a3.332,3.332,0,0,0,.067,2.6C235.622,217.327,239.894,219.075,245.923,217.088Zm-42.27-20.725c-4.468,6.184-5.918,11.89-3.355,13.341.264.15.927-.206,1.3-.475,4.226-3.082,3-7.441,2.649-11.58A4.312,4.312,0,0,0,203.653,196.363ZM84.527,146.733a4.135,4.135,0,0,0-4.508,2.683,2.527,2.527,0,0,0,1.058,2.247c2.2.57,3.545-1,4.486-2.649C85.807,148.588,84.907,147.51,84.527,146.733ZM198.339,213.39c-.256-.164-.606-.521-.748-.452-.338.164-.868.63-.81.8.379,1.106.973,1.289,1.49.536C198.415,214.062,198.323,213.689,198.339,213.39Z"/></svg>