<svg xmlns="http://www.w3.org/2000/svg" viewBox="0 0 543.348 543.348"><defs><style>.a{fill:#1f1e15;}.b{fill:#fcfcfb;}</style></defs><path class="a" d="M104.874,155.157c-.627,3.9,1.707,4.636,2.665,6.221,3.761,6.217,2.646,10.125-3.737,12.177-4.348,1.4-8.926,2.079-17.249,3.943,10.619,3.117,17.49,5.471,24.984,5.931a121.429,121.429,0,0,1,13.878,1.66c10.854,1.936,12.472,6.719,5.716,16.27-1.018,1.439-1.942,2.945-2.8,4.249,4.722,6.207,12.446,5.323,17.93,9.192,6.621,4.673,6.952,11.7.347,16.189-4.6,3.124-9.7,4.282-15.119,4.428-10.653.288-21.314.405-31.957.9-4.025.187-5.258,2.45-4.222,6.7,2.218,9.11.9,11.418-6.486,12.154a129.473,129.473,0,0,1-13.951.222c-7.976-.071-15.984-.775-23.92-.275-15.875,1-14.988-.983-14.979-15.438q.06-93.954.034-187.909a79.633,79.633,0,0,1,.5-11.958c.441-2.887,3.058-4.208,5.907-4.273,6-.136,12-.115,17.994-.115q196.958-.008,393.915,0c15.33,0,30.66.065,45.99,0,4.717-.02,7.631,1.644,7.626,6.788-.022,21.321.047,42.644-.108,63.964-.038,5.157-2.023,6.829-7.714,6.252-11.081-1.123-22.368-.1-32.339-7.882-6.925-5.4-16.5-5.437-25.118-4.243-10.093,1.4-18.532.645-23.778-9.539-1.756-3.408-5.57-3.329-8.827-3.338-9.984-.025-19.969.175-29.954.317-4.146.06-6.155,2.965-4.185,6.271,1.347,2.26,3.451,4.089,4.675,6.4a7.479,7.479,0,0,1-4.666,10.978,88.4,88.4,0,0,1-13.773,1.762c-1.623.138-2.866.495-2.858,2.116.009,1.876-.017,4.054.877,5.566,2.22,3.755,6.32,4.491,10.256,5.326,5.82,1.235,11.946,1.235,17.224,4.658a7.879,7.879,0,0,1,3.727,6.624,5.753,5.753,0,0,1-4.054,6.082c-3.778,1.262-7.568,2.551-11.44,3.457-3.9.913-5.422,3.092-5.216,7.017q3.763,71.665,7.49,143.332c.027.5.881.952,2.4,2.489,9.531-.241,19.911-.764,29.838-5.084-.4-5.953-6.477-5.89-9.251-9.245-5.836-7.059-4.989-13.794,2.852-18.046,8.275-4.486,16.923-7.547,26.575-7.636a106.506,106.506,0,0,0,29.575-4.229c1.016-.3,2.485-1.81,2.387-2.586-.232-1.811-.8-4.158-2.1-5.149-4.384-3.34-9.782-3.938-15.124-4.415-8.3-.742-15.627-3.391-20.384-10.758-2.423-3.753-6.049-4.853-10.151-5.38a53.711,53.711,0,0,1-9.779-1.823c-7.526-2.455-9.87-8.015-5.715-15.3,2.241-3.927,2.756-6.284.2-10.492-5.941-9.789-3.457-15.969,6.485-20.17,9.023-3.814,18.41-2.489,27.633-2.033,6.686.331,13.257,1.866,19.363-3.475-2.89-2.544-6.081-4.556-8.194-7.376-4.6-6.146-1.307-14.256,6.173-14.831,9.928-.764,19.93-1.056,29.885-.847,8.474.177,16.927,1.349,25.389,2.082,3.425,8.265,1.7,16.937,1.71,25.4q.213,151.927.09,303.854c0,5.33.1,10.665-.069,15.991-.264,8.12-.983,8.769-9.434,9.025-4,.121-8,.037-12,.037q-213.954,0-427.907,0c-5.332,0-10.667.057-15.995-.115-3.791-.122-6.176-2.073-6.382-6.078-.137-2.659-.226-5.324-.227-7.985q-.016-98.952.007-197.905c0-2.662-.284-5.462.451-7.935.459-1.543,2.547-3.631,3.969-3.682a146.148,146.148,0,0,1,19.888.4c9.625.969,10.387,2.385,10.041,14.375-.129,4.477,3.035,8.346,6.855,7.171,11.118-3.419,22.518-1.851,33.761-2.63,13.83-.957,26.985.112,32.266,16.463,1.248,3.863,5.014,4.1,8.316,3.9,5.32-.313,6.22-4.822,6.2-8.627-.144-21.939-.176-43.9-1.188-65.808-1.38-29.9-2.343-59.7,1.827-89.492a98.093,98.093,0,0,1,6.425-22.915c1.136-2.848,1.14-5.376-1.387-6.885-2.442-1.458-5.232-.349-7.524,1.079-2,1.248-1.475,3.113-.859,5.084,3.24,10.365,1.859,13.435-7.775,14.741C133.45,152.37,119.536,153.579,104.874,155.157Zm73.764-19.812c-4.085,2.982-5.517,6.727-3.317,11.518-1.125,1.5-2.774,2.846-3.3,4.536-6.587,21.291-5.012,43.361-5.8,65.179-.289,7.945.909,15.934,1.134,23.911s.052,15.937.1,23.906-.093,15.948.307,23.9c.4,7.835-.277,15.582,1.336,23.577,1.441,7.142-1.245,15.073-1.791,22.68-.236,3.287.377,6.631.521,9.952.916,21.186,1.879,42.371,2.666,63.563a160.62,160.62,0,0,1-.254,17.948c-.325,4.336-3.323,8.566-7.39,7.853-5.4-.947-8.38.878-11.537,4.437-1.663,1.874-4.055.745-5.072-.77-1.813-2.7-2.243-6.771-4.567-8.573-2.773-2.149-7.147-3.84-10.427-3.3-3.6.595-3.38,4.982-2.683,8.348.534,2.581,1.607,5.172,1.5,7.72-.066,1.628-1.518,3.609-2.923,4.677-2.106,1.6-3.671-.223-4.572-1.971-2.355-4.573-2.542-10.171-6.467-14.033-5.157,3.194-10.962,5.458-8.688,13.618,1.748,6.274-.215,11.839-6.177,15.44-3.22,1.945-2.89,5.775-4.465,8.6-2.36,4.228-4.97,2.819-7.941.573-1.648-1.246-2.282-5.146-6.472-2.4,0,3.609.442,7.6-.1,11.45-.868,6.151,3.69,6.221,7.347,6.96s6.8-.185,5.812-5.014c-.812-3.951,2-4.147,4.468-4.913,8.885-2.754,18.074-4.937,25.656-10.656,8.2-6.186,16.67-9.788,27.481-8.6,8.363.917,8.4-.167,10.626-10.853.359-1.728,1.388-4.032,2.774-4.713,8.063-3.965,8.641-11.094,8.533-18.643-.274-19.3-.5-38.6-.857-57.891-.12-6.618-.225-13.265-.921-19.837-.839-7.911-1.373-16.047-3.735-23.553-2.709-8.607,1.287-16.319,1.456-24.494.357-17.3-1.447-34.721.078-51.767,1.431-16,1.108-31.777.413-47.614-.733-16.716,2.308-32.954,4.4-49.3,5.355-2.31,3.343-6.941,3.434-10.913,2.268-.469,3.124-1.945,2.723-4.109a1.869,1.869,0,0,0-1.251-1.258c-.424-.029-1.143.655-1.309,1.163A29.343,29.343,0,0,0,178.638,135.345ZM136.662,477.06c-10.593-1.648-12.087-1.252-21.43,5.71,5.183,1.2,10.041,2.8,15.682,1.741,4.992-.933,3.519-5.307,5.742-7.5-.439-2.08.017-3.97,2.06-4.774,4.647-1.832,10.536-.023,14.324-4.711-2.407-4.73-6.749-3.016-10.352-3.389-2.957-.306-5.106,1.609-6.537,3.76C134.173,470.868,134.52,474.112,136.662,477.06ZM258.1,451.518a30.1,30.1,0,0,0-5.677-.183,20.461,20.461,0,0,0-7,2.016c-1.314.743,2.857,5.558,6.109,5.953,2.412.292,4.945-.409,7.425-.667,4.539,2.453,3.124,6.181-.11,7.015-7.021,1.809-14.423,2.143-23.078,3.263,9.37,6.35,9.459,6.862,13.647,6.055,8.028-1.547,15.85.525,23.766.708,3.147.074,6.473-.066,9.156,2.649,7.119,7.2,16.535,6.525,25.464,6.451,11.92-.1,23.835-.956,35.748-1.569a16.146,16.146,0,0,0,5.637-1.108c.577-.256.883-2.57.415-3.485-2.007-3.92-6.584-4.023-9.861-6.115-2.073-1.324-5.639-1.727-3.988-5.324.664-1.447,2.8-2.712,4.481-3.1,4.178-.964,8.484-1.376,13.742-2.16-9.811-4.407-18.652-5.319-27.526-.839a22.287,22.287,0,0,1-15.419,2.2,51.945,51.945,0,0,0-23.659.156c-4.342,1.007-5.667-1.655-5.687-5.589a4.361,4.361,0,0,0-1.576-3.3c-4.342-2.446-10.439-2.389-11.52-9.3-.167-1.067-3.828-.6-4.982,1.117C262.13,448.564,261.06,450.98,258.1,451.518Zm111.816-37.225c3.148-26.732,1.338-53.1-5.229-82.748-3.137,22.357-3.455,58.581-1.206,82.607.018,6.635-.308,13.292.127,19.9.848,12.85,7.253,20.278,19.889,23.468,5.777,1.458,11.674,2.438,17.478,3.8,4.541,1.067,8.888,2.544,12.308,6.082a4.982,4.982,0,0,1,1.21,5.349c-.805,2.62-3.422,2.359-4.773,1.381-8.224-5.953-17.246-6.786-29.025-6.032,9,4.646,16.778,6.372,21.853,13.015,1.374,1.8,4.5,2.9,6.943,3.139,19.733,1.928,39.5,3.078,59.272.468,1.926-.255,4.085-1.332,3.1-3.792-.651-1.627-2.988-4.232-3.534-4-7.027,3.027-11.464-2.472-17.107-4.206-4.882-1.5-6.745-2.26-5.242-7.423,1.452-4.988,2.277-10.157,3.476-15.706-5.8,2.484-7.566,7.718-10.752,11.7-3.223,4.03-6,3.229-8.065-2.286-.684-1.825-.562-4.656-1.8-5.425-2.873-1.783-4.133,1.545-5.883,3.072-.489.427-.71,1.179-1.22,1.561-2.959,2.222-6.37,2.507-9.179.376-2.645-2.006-4.516-5.176-3.054-8.706,1.762-4.257,4.069-8.288,6.14-12.418,4.11-1.389,7.783-4.247,4.486-8.173-1.976-2.353-5.791,1.175-8.128,3.462a5.652,5.652,0,0,0-.822,1.8c-6.132.149-5.166-3.93-4.138-7.487,1.165-4.035,5.229-7.3,3.115-12.154,1.117-.344,2.52-.4,3.259-1.125.588-.578.365-1.981.5-3.018a8.475,8.475,0,0,0-1.4,1.316c-.708,1.051-1.294,2.185-1.93,3.284-5.719,3.707-9.391,9.07-12.1,15.157-1.617,3.635-2.716,7.535-4.631,10.994-1.733,3.129-2.033,9.3-6.956,7.764-4.008-1.25-2.983-6.86-2.829-10.734.226-5.708.891-11.4,1.367-17.078-1.863-.316-2.1.873-2.954,2.069-2.1,2.934-2.95,8.135-8.19,6.878-4.007-.961-3.518-5.193-4.163-8.228C369.593,419.662,369.953,416.935,369.916,414.293ZM262.909,243.866l-.468-.485c-1.4,2.132-.112,3.083,1.5,4.4,4.559,3.729,10.154,3.02,15.14,2.984,7.211-.053,11.224,3.549,14.138,9.113,6.869,13.112,6.184,25.674-4.154,36.745-9.363,10.027-9.4,21.907-9.216,34.855,11.61-5.156,22.115-3.117,32.449-1,4.779.98,9.558,3.042,12.706,7.571-9.141,9.515-18.81,11.7-29.528,6.765-6.317-2.908-12.282,2.8-18.392-.077a9.934,9.934,0,0,0-1.675,2.977c-1.3,4.659.87,7.855,5.6,7.475,9.462-.759,18.577-.733,26.328,5.948,2.35,2.026,2.438,4.841-.174,6.217-3.482,1.833-6.725,4.251-11.035,3.985-4.644-.287-9.305-.436-13.957-.41-5.974.033-7.827,2.158-7.866,8.683a24.237,24.237,0,0,0,.361,3.945c.548,3.445,4.583,5.943,7.283,4.239,3.893-2.456,7.323-5.7,11.341-7.887s8.141-4.291,13.147-3.968a33.424,33.424,0,0,1,29.973,25.1c3.4,13.931-3.179,31.607-14.45,38.309-1.545.919-3.671.861-5.414,1.231-2.207-3.344-1.275-6.6-.614-9.835s1.848-6.436,2-9.689c.434-9.135-5.658-13.639-14.125-10.321-4.912,1.924-9.444,4.805-14.267,6.991-.512.232-1.832-1.316-2.779-2.04-1.752-1.241-2.56-2.823-.848-4.535,3.686-3.683,7.515-7.224,11.305-10.8,1.61-1.52,2.085-3.317.5-4.914-1.994-2.011-4.634-2.946-6.876-.594a49.112,49.112,0,0,0-11.453,18.609c3.253,1.4,6.2-1.569,7.611,2,.735.939,2.305,2.279,2.076,2.754-2.3,4.776-5.041,9.341-7.376,14.1-2.8,5.717-1.408,9.459,4.178,10.571,20.241,4.029,40.838,4.367,61.35,5.442,4.283.225,7.352-3.15,6.688-7.944-1.558-11.247-.759-22.475-.3-33.665.81-19.875-2.056-39.676-.261-59.6a192.655,192.655,0,0,0-.2-35.652c-.9-9.276-1.274-18.516-1.7-27.8-1.564-33.809,2.335-67.832-3.947-101.455,2.083-20.74-6.44-39.05-13.577-57.568-6.761-17.539-18.653-30.4-36.865-36.7-22.92-7.938-45.29-9.348-67.016,4.137-13.292,8.249-23.465,19.213-31.665,32.341-11.261,18.029-15.7,37.975-16.315,58.837-.411,13.852.447,27.736.339,41.6-.363,46.439-1.831,92.876.655,139.31.816,15.237.412,30.536.975,45.791.454,12.325,1.051,24.6-3.68,38.032,23.808-1.484,45.888-1.921,68.6-5.085-4.028-12.706-11.254-22.2-17.887-32.009-1.187-1.757-2.681-2.686-4.924-1.944-2.4.791-2.494,2.885-2.688,4.768-.272,2.638-.217,5.31-.3,7.968-.065,1.994-.016,4-.226,5.98-.337,3.183-4.468,4.609-7.7,3.184-13.114-5.778-22.142-28.853-10.633-49.185,3.3-5.821,7.342-11.344,14.1-13.5,7.114-2.275,12.86,1.04,18.093,5.514l-4.344,5.879c-1.936-.463-3.877-1.305-5.807-1.282-1.858.022-4.286.386-5.427,1.586-1.954,2.054.538,2.975,1.956,4.148,10.912,9.031,17.908,21.133,25.559,32.725,2.129,3.224,3.095,7.577,8.431,8.526,1.282-8.506-3.484-15.015-6.966-21.842-2.093-4.1-4.682-7.952-6.81-12.039-1.116-2.144,1.83-5.467,4.227-4.757a28.844,28.844,0,0,1,5.311,2.6c3.006,1.63,5.024.747,5.408-2.553,1.328-11.429-.324-13.144-12.532-13.748-1.9-.093-3.791-.385-5.627-.579-1.836-13.92-1.833-13.911,10.483-17.07,1.242-.319,2.778-.5,3.583-1.32,2.05-2.1,1.511-4.827,1.02-7.406-.587-3.086-1.5-3.906-5.216-1.267-7.694,5.466-15.741,3.032-22.851.618-4.523-1.536-8.386-2.58-13.045-2.09a21.16,21.16,0,0,1-7.82-1.168A4.386,4.386,0,0,1,204,339.787a3.112,3.112,0,0,1,3.116-3.931c3.94-.138,8.128,1.228,11.789.3,3.433-.871,6.2-4.112,9.471-5.934,4.271-2.379,8.583-2.432,13.274-.347,2.623,1.165,5.569,3.5,8.777,1.713,3.146-6.164-3.415-9.748-3.384-14.92.037-6.217-3.611-5.145-7.958-4.651-12.63,1.436-20.854-4.656-20.817-14.748.036-9.782,8.631-22.13,18.11-26.014,6.88-2.819,8.636-5.449,6.88-11.125-.975-3.15-2.637-6.081-3.811-9.178-2.008-5.3-4.866-5.991-10.64-4.608-7.533,1.805-8.965-.069-11.232-7.329-.988-3.165-2.129-6.287-2.986-9.485-1.014-3.789,1.355-6.7,5.264-6.11,5.842.879,11.882,1.515,17.327,3.594,3.636,1.388,15.4-5.616,9.572,7.722C252.81,236.591,255.369,244.633,262.909,243.866Zm2.73,83.968a9.557,9.557,0,0,0,5.5-7.916c.994-13.459,4.55-25.765,13.124-36.605,3.9-4.934,3.923-11.363,1.491-17.134-2.471-5.866-7.395-9.266-13.756-10.021-3.6-.428-5.646,4.814-5.415,13.305a14.626,14.626,0,0,0,.178,1.983c3.2,19.351-2.091,16.2-16.507,18.983-1.869.36-3.916-.2-5.842-.332a14.213,14.213,0,0,1-.48-3.824,39.239,39.239,0,0,1,1.536-5.245c-1.9-.334-4.038-1.392-5.632-.847a30.9,30.9,0,0,0-8.639,4.653c-4.907,3.761-5.526,8.6-2.32,14.018,2.471,4.173,7.068,5.735,12.06,3.508,4.221-1.884,8.071-4.587,12.258-6.56,4.782-2.252,9.179-.924,12.55,2.875a7.863,7.863,0,0,1,1.57,5.336c-.235,2.989-2.831,2.295-4.471,1.6-4.739-2.019-7.6-.046-9.489,4.068-1.657,3.617.106,6.541,2.8,8.641C259.754,321.112,260.7,326.52,265.639,327.834ZM149.915,482.828c16.349.661,28.179,1.307,40.015,1.477,2.38.035,4.916-1.511,7.115-2.787a4.055,4.055,0,0,0,1.29-3.425c-.145-.976-1.5-2.532-2.322-2.535C181.783,475.5,167.233,473.4,149.915,482.828Zm227.559.626c1.873,0,2.638.214,3.17-.046.993-.486,2.637-1.307,2.594-1.883a4.02,4.02,0,0,0-1.88-3.017c-6.132-2.345-12.316-4.587-18.6-6.5-2.575-.784-5.446-.22-6.19,2.976-.861,3.7,2.344,4.217,4.761,4.823C367.063,481.247,372.857,482.426,377.474,483.454ZM259.059,272.067c-.249-2.785-.252-4.764-.635-6.667-.647-3.216-1.854-7.924-5.082-7.29-5.109,1-3.141,6.238-1.648,8.961,2.086,3.8.813,7.655,1.816,11.314.7,2.56-.788-.5,1.725.385.507.179,1.6.076,1.694-.167C257.8,276.224,258.518,273.788,259.059,272.067ZM205.811,465.08c3.357,2.711,6.649,2.034,9.792,1.71,3.046-.313,6.423,1.019,9.577-1.792C218.564,465.039,212.413,461.714,205.811,465.08Zm150.3-322.154a37.712,37.712,0,0,0-1.195-5.744c-.395-1.09-1.58-1.893-2.41-2.825-.679.944-1.859,1.852-1.93,2.841a15.335,15.335,0,0,0,.676,5.8c.335,1.015,1.75,1.673,2.679,2.493ZM223.48,485.852c2.352-.438,4.131-2.04,3.842-3.849-.332-2.078-2.752-2.145-4.57-1.523-1.93.661-3.116,2.232-2.165,4.217C220.944,485.445,222.647,485.549,223.48,485.852ZM320.9,392.89c-1.092-3.476-3.742-4.868-7.108-4.971-1.169-.036-2.361.658-3.543,1.018.232.509.332,1.3.719,1.481,2.8,1.323,5.642,2.565,8.527,3.69C319.766,394.212,320.42,393.326,320.9,392.89ZM210.2,400.74c.435,1.924,1.111,4.377,3.415,3.371,1.06-.464,1.268-3.488,1.315-5.365.019-.761-1.5-2.284-2.18-2.209C210.419,396.8,210.2,398.8,210.2,400.74ZM364.731,285.507c.729-3.482,1.37-5.335,1.417-7.2.03-1.167-.833-2.358-1.3-3.538-.49,1.142-1.388,2.287-1.379,3.426C363.487,280.089,364.08,281.982,364.731,285.507Z"/><path class="b" d="M236.784,373.678c-5.233-4.474-10.979-7.789-18.093-5.514-6.755,2.16-10.8,7.683-14.1,13.5-11.509,20.332-2.481,43.407,10.633,49.185,3.232,1.425,7.363,0,7.7-3.184.21-1.979.161-3.986.226-5.98.087-2.658.032-5.33.3-7.968.194-1.883.293-3.977,2.688-4.768,2.243-.742,3.737.187,4.924,1.944,6.633,9.813,13.859,19.3,17.887,32.009-22.712,3.164-44.792,3.6-68.6,5.085,4.731-13.428,4.134-25.707,3.68-38.032-.563-15.255-.159-30.554-.975-45.791-2.486-46.434-1.018-92.871-.655-139.31.108-13.867-.75-27.751-.339-41.6.618-20.862,5.054-40.808,16.315-58.837,8.2-13.128,18.373-24.092,31.665-32.341,21.726-13.485,44.1-12.075,67.016-4.137,18.212,6.307,30.1,19.165,36.865,36.7,7.137,18.518,15.66,36.828,13.577,57.568,6.282,33.623,2.383,67.646,3.947,101.455.43,9.28.808,18.52,1.7,27.8a192.655,192.655,0,0,1,.2,35.652c-1.8,19.922,1.071,39.723.261,59.6-.456,11.19-1.255,22.418.3,33.665.664,4.794-2.405,8.169-6.688,7.944-20.512-1.075-41.109-1.413-61.35-5.442-5.586-1.112-6.982-4.854-4.178-10.571,2.335-4.762,5.074-9.327,7.376-14.1.229-.475-1.341-1.815-2.076-2.754l-.238.243c.945.722,2.265,2.27,2.777,2.038,4.823-2.186,9.355-5.067,14.267-6.991,8.467-3.318,14.559,1.186,14.125,10.321-.154,3.253-1.34,6.454-2,9.689s-1.593,6.491.614,9.835c1.743-.37,3.869-.312,5.414-1.231,11.271-6.7,17.846-24.378,14.45-38.309a33.424,33.424,0,0,0-29.973-25.1c-5.006-.323-9.139,1.782-13.147,3.968s-7.448,5.431-11.341,7.887c-2.7,1.7-6.735-.794-7.283-4.239a24.237,24.237,0,0,1-.361-3.945c.039-6.525,1.892-8.65,7.866-8.683,4.652-.026,9.313.123,13.957.41,4.31.266,7.553-2.152,11.035-3.985,2.612-1.376,2.524-4.191.174-6.217-7.751-6.681-16.866-6.707-26.328-5.948-4.731.38-6.9-2.816-5.6-7.475a9.934,9.934,0,0,1,1.675-2.977c6.11,2.878,12.075-2.831,18.392.077,10.718,4.935,20.387,2.75,29.528-6.765-3.148-4.529-7.927-6.591-12.706-7.571-10.334-2.118-20.839-4.157-32.449,1-.183-12.948-.147-24.828,9.216-34.855,10.338-11.071,11.023-23.633,4.154-36.745-2.914-5.564-6.927-9.166-14.138-9.113-4.986.036-10.581.745-15.14-2.984-1.612-1.32-2.9-2.271-1.5-4.4,12.137-.891,24.238-2.382,36.448-.591,5.208.763,10.536.677,15.8,1.066,5.637.415,10.338-1.895,14.432-5.325a6.7,6.7,0,0,0,2.023-5.146c-.2-1.645-2.218-4.528-3.1-4.407-8.143,1.116-14.576-4.713-22.47-4.927-13.092-.352-26.149-1.859-39.24-2.49a9.329,9.329,0,0,0-8.5,4.322c.855,6.221,8.333,10.6,5.074,17.983-7.54.767-10.1-7.275-16.156-9.131,5.824-13.338-5.936-6.334-9.572-7.722-5.445-2.079-11.485-2.715-17.327-3.594-3.909-.588-6.278,2.321-5.264,6.11.857,3.2,2,6.32,2.986,9.485,2.267,7.26,3.7,9.134,11.232,7.329,5.774-1.383,8.632-.694,10.64,4.608,1.174,3.1,2.836,6.028,3.811,9.178,1.756,5.676,0,8.306-6.88,11.125-9.479,3.884-18.074,16.232-18.11,26.014-.037,10.092,8.187,16.184,20.817,14.748,4.347-.494,7.995-1.566,7.958,4.651-.031,5.172,6.53,8.756,3.384,14.92-3.208,1.791-6.154-.548-8.777-1.713-4.691-2.085-9-2.032-13.274.347-3.27,1.822-6.038,5.063-9.471,5.934-3.661.929-7.849-.437-11.789-.3A3.112,3.112,0,0,0,204,339.787a4.386,4.386,0,0,0,2.316,2.853,21.16,21.16,0,0,0,7.82,1.168c4.659-.49,8.522.554,13.045,2.09,7.11,2.414,15.157,4.848,22.851-.618,3.713-2.639,4.629-1.819,5.216,1.267.491,2.579,1.03,5.31-1.02,7.406-.805.824-2.341,1-3.583,1.32-12.316,3.159-12.319,3.15-10.483,17.07,1.836.194,3.727.486,5.627.579,12.208.6,13.86,2.319,12.532,13.748-.384,3.3-2.4,4.183-5.408,2.553a28.844,28.844,0,0,0-5.311-2.6c-2.4-.71-5.343,2.613-4.227,4.757,2.128,4.087,4.717,7.935,6.81,12.039,3.482,6.827,8.248,13.336,6.966,21.842-5.336-.949-6.3-5.3-8.431-8.526-7.651-11.592-14.647-23.694-25.559-32.725-1.418-1.173-3.91-2.094-1.956-4.148,1.141-1.2,3.569-1.564,5.427-1.586,1.93-.023,3.871.819,5.806,1.281a21.528,21.528,0,0,0,2.26,2.974c1.916,1.8,4.324,2.865,6.287.538.986-1.169,1.227-3.413,1-5.058C241.6,375.277,239.581,373.853,236.784,373.678ZM300.664,162.3c10.341.935,16.4-5.568,13.631-13.014-2.436-6.545-9.884-8.534-16.18-3.96-1.952,1.417-2.767,5.5-5.863,4-6.318-3.057-13.167,1.695-19.34-1.986-2.889-1.724-5.812-1.384-9.313-.21-9.63,3.23-13.211,2.159-24.024-5.4-3.154-2.2-6.272-2.3-9.2-.529-4.088,2.476-7.292,5.941-6.455,11.279.846,5.39,5.264,10.267,10.255,10.86,3.189.38,6.9.525,9.695-.733a29.367,29.367,0,0,1,23.065-1.063,15.118,15.118,0,0,0,7.744.3C283.886,159.978,293,158.385,300.664,162.3Zm-10.812,42.967c12.246,0,20.086.228,27.9-.077,5.63-.218,9.466-4.96,9.84-12.532.3-6.107-5.051-4.1-8.461-5.239-15.921-5.343-32.288-3.341-48.509-3.324-9.466.01-11.552,2.6-11.3,11.8.184,6.663,1.547,8.481,7.559,9.2C276.026,206.191,285.168,206.052,289.852,205.271Zm-61.568,3.423c3.756-.224,5.719-.367,7.684-.455,16.986-.763,16.831-.7,10.523-17.414-1.461-3.871-3.552-5.141-7.2-4.368-3.918.832-7.775,1.115-11.635-.143-3.093-1.007-6.111-2.356-9.274-3.008-4.334-.893-7.653,1.731-8.311,6.075a32.94,32.94,0,0,0-.423,3.894c-.543,18.032,1.511,15.806,14.559,15.209A26.068,26.068,0,0,1,228.284,208.694Zm-22.628,24.5c-2.484.256-5.139,1.1-5.324,4.1a4.95,4.95,0,0,0,4.346,5.406,4.7,4.7,0,0,0,5.5-4.117C210.622,235.6,208.549,234.044,205.656,233.19Z"/><path class="b" d="M175.834,146.758c-2.135,16.382-5.176,32.62-4.443,49.336.7,15.837,1.018,31.61-.413,47.614-1.525,17.046.279,34.468-.078,51.767-.169,8.175-4.165,15.887-1.456,24.494,2.362,7.506,2.9,15.642,3.735,23.553.7,6.572.8,13.219.921,19.837.352,19.3.583,38.594.857,57.891.108,7.549-.47,14.678-8.533,18.643-1.386.681-2.415,2.985-2.774,4.713-2.225,10.686-2.263,11.77-10.626,10.853-10.811-1.185-19.282,2.417-27.481,8.6-7.582,5.719-16.771,7.9-25.656,10.656-2.473.766-5.28.962-4.468,4.913.992,4.829-2.167,5.753-5.812,5.014s-8.215-.809-7.347-6.96c.544-3.851.1-7.841.1-11.45,4.19-2.748,4.824,1.152,6.472,2.4,2.971,2.246,5.581,3.655,7.941-.573,1.575-2.823,1.245-6.653,4.465-8.6,5.962-3.6,7.925-9.166,6.177-15.44-2.274-8.16,3.531-10.424,8.688-13.618,3.925,3.862,4.112,9.46,6.467,14.033.9,1.748,2.466,3.572,4.572,1.971,1.405-1.068,2.857-3.049,2.923-4.677.1-2.548-.969-5.139-1.5-7.72-.7-3.366-.918-7.753,2.683-8.348,3.28-.541,7.654,1.15,10.427,3.3,2.324,1.8,2.754,5.873,4.567,8.573,1.017,1.515,3.409,2.644,5.072.77,3.157-3.559,6.136-5.384,11.537-4.437,4.067.713,7.065-3.517,7.39-7.853a160.62,160.62,0,0,0,.254-17.948c-.787-21.192-1.75-42.377-2.666-63.563-.144-3.321-.757-6.665-.521-9.952.546-7.607,3.232-15.538,1.791-22.68-1.613-8-.941-15.742-1.336-23.577-.4-7.952-.258-15.932-.307-23.9s.123-15.943-.1-23.906-1.423-15.966-1.134-23.911c.792-21.818-.783-43.888,5.8-65.179.523-1.69,2.172-3.032,3.3-4.536Z"/><path class="b" d="M410.126,414.891c2.142,4.885-1.922,8.147-3.087,12.182-1.028,3.557-1.994,7.636,4.131,7.49q2.229,1.457,4.471,2.909c-2.071,4.13-4.378,8.161-6.14,12.418-1.462,3.53.409,6.7,3.054,8.706,2.809,2.131,6.22,1.846,9.179-.376.51-.382.731-1.134,1.22-1.561,1.75-1.527,3.01-4.855,5.883-3.072,1.241.769,1.119,3.6,1.8,5.425,2.068,5.515,4.842,6.316,8.065,2.286,3.186-3.982,4.956-9.216,10.752-11.7-1.2,5.549-2.024,10.718-3.476,15.706-1.5,5.163.36,5.922,5.242,7.423,5.643,1.734,10.08,7.233,17.107,4.206.546-.236,2.883,2.369,3.534,4,.984,2.46-1.175,3.537-3.1,3.792-19.771,2.61-39.539,1.46-59.272-.468-2.439-.239-5.569-1.341-6.943-3.139-5.075-6.643-12.856-8.369-21.853-13.015,11.779-.754,20.8.079,29.025,6.032,1.351.978,3.968,1.239,4.773-1.381a4.982,4.982,0,0,0-1.21-5.349c-3.42-3.538-7.767-5.015-12.308-6.082-5.8-1.362-11.7-2.342-17.478-3.8-12.636-3.19-19.041-10.618-19.889-23.468-.435-6.607-.109-13.264-.131-19.878,2.143.053,4.291.086,6.439.12.037,2.642-.323,5.369.215,7.9.645,3.035.156,7.267,4.163,8.228,5.24,1.257,6.093-3.944,8.19-6.878.855-1.2,1.091-2.385,2.954-2.069-.476,5.679-1.141,11.37-1.367,17.078-.154,3.874-1.179,9.484,2.829,10.734,4.923,1.536,5.223-4.635,6.956-7.764,1.915-3.459,3.014-7.359,4.631-10.994,2.709-6.087,6.381-11.45,12.1-15.157Z"/><path class="b" d="M258.1,451.518c2.96-.538,4.03-2.954,5.511-5.154,1.154-1.716,4.815-2.184,4.982-1.117,1.081,6.909,7.178,6.852,11.52,9.3a4.361,4.361,0,0,1,1.576,3.3c.02,3.934,1.345,6.6,5.687,5.589a51.945,51.945,0,0,1,23.659-.156,22.287,22.287,0,0,0,15.419-2.2c8.874-4.48,17.715-3.568,27.526.839-5.258.784-9.564,1.2-13.742,2.16-1.685.389-3.817,1.654-4.481,3.1-1.651,3.6,1.915,4,3.988,5.324,3.277,2.092,7.854,2.2,9.861,6.115.468.915.162,3.229-.415,3.485a16.146,16.146,0,0,1-5.637,1.108c-11.913.613-23.828,1.469-35.748,1.569-8.929.074-18.345.752-25.464-6.451-2.683-2.715-6.009-2.575-9.156-2.649-7.916-.183-15.738-2.255-23.766-.708-4.188.807-4.277.295-13.647-6.055,8.655-1.12,16.057-1.454,23.078-3.263,3.234-.834,4.649-4.562.149-7.006C258.726,456.276,258.413,453.9,258.1,451.518Z"/><path class="b" d="M265.639,327.834c-4.943-1.314-5.885-6.722-9.477-9.518-2.7-2.1-4.461-5.024-2.8-8.641,1.885-4.114,4.75-6.087,9.489-4.068,1.64.7,4.236,1.393,4.471-1.6a7.863,7.863,0,0,0-1.57-5.336c-3.371-3.8-7.768-5.127-12.55-2.875-4.187,1.973-8.037,4.676-12.258,6.56-4.992,2.227-9.589.665-12.06-3.508-3.206-5.419-2.587-10.257,2.32-14.018a30.9,30.9,0,0,1,8.639-4.653c1.594-.545,3.737.513,5.632.847a39.239,39.239,0,0,0-1.536,5.245,14.213,14.213,0,0,0,.48,3.824c1.926.131,3.973.692,5.842.332,14.416-2.778,19.7.368,16.507-18.983a14.626,14.626,0,0,1-.178-1.983c-.231-8.491,1.819-13.733,5.415-13.305,6.361.755,11.285,4.155,13.756,10.021,2.432,5.771,2.411,12.2-1.491,17.134-8.574,10.84-12.13,23.146-13.124,36.605A9.557,9.557,0,0,1,265.639,327.834Z"/><path class="b" d="M369.916,414.293c-2.148-.034-4.3-.067-6.439-.12-2.245-24.047-1.927-60.271,1.21-82.628C371.254,361.19,373.064,387.561,369.916,414.293Z"/><path class="b" d="M149.915,482.828c17.318-9.425,31.868-7.325,46.1-7.27.825,0,2.177,1.559,2.322,2.535a4.055,4.055,0,0,1-1.29,3.425c-2.2,1.276-4.735,2.822-7.115,2.787C178.094,484.135,166.264,483.489,149.915,482.828Z"/><path class="b" d="M377.474,483.454c-4.617-1.028-10.411-2.207-16.14-3.646-2.417-.606-5.622-1.125-4.761-4.823.744-3.2,3.615-3.76,6.19-2.976,6.279,1.912,12.463,4.154,18.6,6.5a4.02,4.02,0,0,1,1.88,3.017c.043.576-1.6,1.4-2.594,1.883C380.112,483.668,379.347,483.454,377.474,483.454Z"/><path class="b" d="M136.655,477.019c-2.222,2.185-.749,6.559-5.741,7.492-5.641,1.055-10.5-.544-15.682-1.741,9.343-6.962,10.837-7.358,21.43-5.71Z"/><path class="b" d="M287,415.452c-1.414-3.564-4.358-.595-7.611-2a49.112,49.112,0,0,1,11.453-18.609c2.242-2.352,4.882-1.417,6.876.594,1.584,1.6,1.109,3.394-.5,4.914-3.79,3.578-7.619,7.119-11.305,10.8-1.712,1.712-.9,3.294.849,4.536Z"/><path class="b" d="M136.662,477.06c-2.142-2.948-2.489-6.192-.511-9.162,1.431-2.151,3.58-4.066,6.537-3.76,3.6.373,7.945-1.341,10.352,3.389-3.788,4.688-9.677,2.879-14.324,4.711-2.043.8-2.5,2.694-2.061,4.777Z"/><path class="b" d="M259.059,272.067c-.541,1.721-1.257,4.157-2.13,6.536-.089.243-1.187.346-1.694.167-2.513-.888-1.023,2.175-1.725-.385-1-3.659.27-7.512-1.816-11.314-1.493-2.723-3.461-7.96,1.648-8.961,3.228-.634,4.435,4.074,5.082,7.29C258.807,267.3,258.81,269.282,259.059,272.067Z"/><path class="b" d="M258.1,451.518c.313,2.379.626,4.758.9,7.128-2.519.249-5.052.95-7.464.658-3.252-.395-7.423-5.21-6.109-5.953a20.461,20.461,0,0,1,7-2.016A30.1,30.1,0,0,1,258.1,451.518Z"/><path class="b" d="M205.811,465.08c6.6-3.366,12.753-.041,19.369-.082-3.154,2.811-6.531,1.479-9.577,1.792C212.46,467.114,209.168,467.791,205.811,465.08Z"/><path class="b" d="M415.641,437.472q-2.238-1.453-4.471-2.909a5.8,5.8,0,0,1,.829-1.8c2.337-2.287,6.152-5.815,8.128-3.462C423.424,433.225,419.751,436.083,415.641,437.472Z"/><path class="b" d="M356.111,142.926l-2.18,2.566c-.929-.82-2.344-1.478-2.679-2.493a15.335,15.335,0,0,1-.676-5.8c.071-.989,1.251-1.9,1.93-2.841.83.932,2.015,1.735,2.41,2.825A37.712,37.712,0,0,1,356.111,142.926Z"/><path class="b" d="M223.48,485.852c-.833-.3-2.536-.407-2.893-1.155-.951-1.985.235-3.556,2.165-4.217,1.818-.622,4.238-.555,4.57,1.523C227.611,483.812,225.832,485.414,223.48,485.852Z"/><path class="b" d="M320.9,392.89c-.484.436-1.138,1.322-1.4,1.218-2.885-1.125-5.727-2.367-8.527-3.69-.387-.182-.487-.972-.719-1.481,1.182-.36,2.374-1.054,3.543-1.018C317.162,388.022,319.812,389.414,320.9,392.89Z"/><path class="b" d="M210.2,400.744c0-1.941.218-3.949,2.547-4.207.681-.075,2.2,1.448,2.18,2.209-.047,1.877-.255,4.9-1.315,5.365C211.309,405.117,210.633,402.664,210.2,400.744Z"/><path class="b" d="M364.731,285.507c-.651-3.525-1.244-5.418-1.258-7.316-.009-1.139.889-2.284,1.379-3.426.463,1.18,1.326,2.371,1.3,3.538C366.1,280.172,365.46,282.025,364.731,285.507Z"/><path class="b" d="M410.587,415.376c.636-1.1,1.222-2.233,1.93-3.284a8.475,8.475,0,0,1,1.4-1.316c-.137,1.037.086,2.44-.5,3.018-.739.728-2.142.781-3.273,1.111Z"/><path class="b" d="M175.322,146.863c-2.2-4.791-.769-8.536,3.316-11.518l.59.536c-.095,3.968,1.917,8.6-3.416,10.893C175.834,146.758,175.322,146.863,175.322,146.863Z"/><path class="b" d="M178.638,135.345a29.343,29.343,0,0,1,.749-3.672c.166-.508.885-1.192,1.309-1.163a1.869,1.869,0,0,1,1.251,1.258c.4,2.164-.455,3.64-2.721,4.111Z"/><path class="a" d="M300.664,162.3c-7.661-3.919-16.778-2.326-25.981-.452a15.118,15.118,0,0,1-7.744-.3,29.367,29.367,0,0,0-23.065,1.063c-2.8,1.258-6.506,1.113-9.695.733-4.991-.593-9.409-5.47-10.255-10.86-.837-5.338,2.367-8.8,6.455-11.279,2.924-1.772,6.042-1.675,9.2.529,10.813,7.558,14.394,8.629,24.024,5.4,3.5-1.174,6.424-1.514,9.313.21,6.173,3.681,13.022-1.071,19.34,1.986,3.1,1.5,3.911-2.583,5.863-4,6.3-4.574,13.744-2.585,16.18,3.96C317.066,156.736,311.005,163.239,300.664,162.3Z"/><path class="a" d="M289.852,205.271c-4.684.781-13.826.92-22.964-.171-6.012-.716-7.375-2.534-7.559-9.2-.255-9.2,1.831-11.794,11.3-11.8,16.221-.017,32.588-2.019,48.509,3.324,3.41,1.143,8.763-.868,8.461,5.239-.374,7.572-4.21,12.314-9.84,12.532C309.938,205.5,302.1,205.271,289.852,205.271Z"/><path class="a" d="M262.909,243.866c3.259-7.379-4.219-11.762-5.074-17.983a9.329,9.329,0,0,1,8.5-4.322c13.091.631,26.148,2.138,39.24,2.49,7.894.214,14.327,6.043,22.47,4.927.883-.121,2.9,2.762,3.1,4.407a6.7,6.7,0,0,1-2.023,5.146c-4.094,3.43-8.795,5.74-14.432,5.325-5.268-.389-10.6-.3-15.8-1.066-12.21-1.791-24.311-.3-36.448.591Z"/><path class="a" d="M228.284,208.694a26.068,26.068,0,0,0-4.072-.21c-13.048.6-15.1,2.823-14.559-15.209a32.94,32.94,0,0,1,.423-3.894c.658-4.344,3.977-6.968,8.311-6.075,3.163.652,6.181,2,9.274,3.008,3.86,1.258,7.717.975,11.635.143,3.643-.773,5.734.5,7.2,4.368,6.308,16.713,6.463,16.651-10.523,17.414C234,208.327,232.04,208.47,228.284,208.694Z"/><path class="b" d="M205.656,233.19c2.893.854,4.966,2.413,4.523,5.393a4.7,4.7,0,0,1-5.5,4.117,4.95,4.95,0,0,1-4.346-5.406C200.517,234.294,203.172,233.446,205.656,233.19Z"/><path class="a" d="M236.784,373.678c2.8.175,4.82,1.6,5.2,4.332.229,1.645-.012,3.889-1,5.058-1.963,2.327-4.371,1.261-6.287-.538a21.528,21.528,0,0,1-2.26-2.974Q234.613,376.619,236.784,373.678Z"/></svg>