<svg xmlns="http://www.w3.org/2000/svg" viewBox="0 0 543.348 543.348"><defs><style>.a{fill:#077ec6;}.b{fill:#fcfcfb;}</style></defs><path class="a" d="M93.441,510.181c3.064-11.514,11.006-18.309,10.044-29.85-8.946,5.485-17.676,9.828-23.4,17.827-10.355,14.465-24.965,12.908-39.641,11.374-2.88-.3-4.425-2.985-4.619-5.748-.325-4.646-.277-9.322-.278-13.986q-.017-215.927-.005-431.855c0-20.84-1.131-19.708,19.416-19.692q161.987.123,323.973.272c36,.017,71.991-.206,107.987-.254,5.315-.007,10.645.178,15.941.6a5.44,5.44,0,0,1,5.084,5.17,90.625,90.625,0,0,1,.408,9.974q.029,219.926.008,439.852c0,3.329.052,6.675-.259,9.981-.363,3.855-2.926,5.8-6.624,6.036-3.984.255-7.988.288-11.983.288q-190.986.018-381.973.008Zm337.483-222.1c17.015-1.469,35.511-3.508,53.313-9.418,8.15-2.705,11.488-7.86,8.378-15.274-2.512-5.988-1.812-11.221-1.768-17.162.1-13.041-3.473-25.062-16.03-32.183a44.352,44.352,0,0,1-5.186-2.988,4.481,4.481,0,0,1-.776-6.9c4.656-5.65,9.185-11.2,11.98-18.2,8.24-20.636,4.725-40.387-3.3-60.078-3.741-9.172-9.161-16.313-19.472-18.063-5.09-.863-8.143-3.522-10.641-7.925-2.63-4.636-5.662-8.942-6.608-14.372-2.616-15.034-12.758-24.461-24.925-31.93-7.392-4.538-15.8-6.926-24.305-8.806-8.737-1.931-17.224-2.133-25.07,2.9-7.339,4.706-14.933,5.02-22.9,1.919-9.171-3.569-18.309-2.415-27.41.361a166.362,166.362,0,0,0-31.177,13.224c-4.723,2.576-9.068,5.572-12.411,9.855-9.435,12.087-20.021,23.735-12.363,41.109,1.235,2.8-3,6.447-6.192,5.936a10.2,10.2,0,0,1-3.819-1c-9.738-6.232-16.32-1.367-21.875,6.314-3.156,4.364-5.884,9.484-11.972,9.45-11.369-.063-17.971,7.1-24.777,14.636-7.355,8.148-9.185,17.408-7.275,27.817a8.643,8.643,0,0,1,.018,1.983c-.213,4.024-5.229,6.79-8.893,4.712a30.265,30.265,0,0,1-6.36-4.67c-7.633-7.563-16.345-8.019-25.828-4.374-21.523,8.273-35.522,23.116-38.65,46.372-.981,7.294-3.088,12.425-9.67,16.02-4.76,2.6-7.444,7.5-10.007,12.206-6.2,11.383-4.864,18.179,5.06,25.982,12.6,9.9,26.459,15.093,42.728,11.745,5.84-1.2,10.6-.455,11.376,7.006.482,4.645,4.17,7.076,8.05,7.836,17.588,3.443,35.161,8.05,52.935,9.2,24.514,1.586,49.205.488,73.819.422,3.967-.011,8.919.751,11.713-1.237,8.57-6.1,19.2-5.05,28.021-9.376,5.957-2.922,11.712-2.608,17.446-.946,20.624,5.977,40.915,2.217,61.191-1.683,3.843-.739,9.064-1.682,10.847-4.381C413.71,285.682,421.038,285.794,430.924,288.076Zm-255.09,62.076c-10.715,9.583-21.535,19.052-32.1,28.8a29.68,29.68,0,0,0-9.445,19.042,9.369,9.369,0,0,0,3.985,8.557,7.221,7.221,0,0,0,9.134-.555,68.907,68.907,0,0,0,9.528-9.818C167.414,383.21,172.061,367.407,175.834,350.152Zm189.724,76.736c-8.311,8.344-16.832,16.5-24.828,25.131a36.679,36.679,0,0,0-7.083,11.672c-1.071,2.813-.6,6.445-.061,9.58.7,4.108,6.1,6.054,9.194,3.559,2.031-1.638,4.264-3.267,5.679-5.386C357.211,458.335,364.62,444.582,365.558,426.888ZM85.491,410.324C69.823,420.75,58.269,430.734,49.229,443.5c-1.1,1.55-1.382,3.668-2.095,5.5a7.433,7.433,0,0,0,2.137,8.919c2.781,2.231,6.229,1.657,9.148-.4C73.782,446.681,80.474,430.941,85.491,410.324Zm179.148-57.293c-10.427,6.429-18.417,13.091-24.121,21.445-4.277,6.265-8.66,13.27-8.87,21.514-.066,2.583.351,5.3,3.059,6.7a6.862,6.862,0,0,0,7.4-.716,18.827,18.827,0,0,0,4.167-4.125A93.642,93.642,0,0,0,264.639,353.031ZM96.353,320.609c-13.232,7.6-22.071,14.257-29.5,22.661a23.627,23.627,0,0,0-4.723,8.526c-1.529,5.009.97,8.942,4.933,11.883,4.048,3,7.5.753,10.663-1.737A30.309,30.309,0,0,0,87.554,347.4C90.071,339.972,92.456,332.5,96.353,320.609Zm332.07,10.908c-9.972,7.084-18.72,13.849-25.113,23.093-2.559,3.7-4.063,8.207-5.593,12.508a6.543,6.543,0,0,0,2.216,7.134c2.93,2.56,6.107,1.62,9.1-.041a15.366,15.366,0,0,0,3.148-2.383C419.845,364.454,426.756,347.771,428.423,331.517ZM275.285,421.786a131.308,131.308,0,0,0-28.963,30.151,19.122,19.122,0,0,0-2.581,7.307,7.088,7.088,0,0,0,2.651,7,6.1,6.1,0,0,0,7.405-.111,31.358,31.358,0,0,0,7.106-6.725C268.75,448.663,274.276,436.937,275.285,421.786ZM179.6,447.7a104.43,104.43,0,0,0-20.723,19.767c-4.139,5.075-7.476,10.945-6.064,18.209a5.564,5.564,0,0,0,7.454,4.188,17,17,0,0,0,8.61-7.838C174.1,472.1,179.025,462.06,179.6,447.7Zm171.66-83.434c-13.253,10.007-22.148,19.187-28.516,30.662a13.288,13.288,0,0,0-1.093,7.486c.178,1.622,1.766,3.31,3.121,4.526,1.739,1.561,3.795.524,5.409-.491a15.427,15.427,0,0,0,4.378-3.847C342.114,391.983,347.287,380.339,351.261,364.263Z"/><path class="b" d="M430.924,288.076c-9.886-2.282-17.214-2.394-22.788,6.042-1.783,2.7-7,3.642-10.847,4.381-20.276,3.9-40.567,7.66-61.191,1.683-5.734-1.662-11.489-1.976-17.446.946-8.821,4.326-19.451,3.28-28.021,9.376-2.794,1.988-7.746,1.226-11.713,1.237-24.614.066-49.305,1.164-73.819-.422-17.774-1.151-35.347-5.758-52.935-9.2-3.88-.76-7.568-3.191-8.05-7.836-.775-7.461-5.536-8.208-11.376-7.006-16.269,3.348-30.133-1.842-42.728-11.745-9.924-7.8-11.256-14.6-5.06-25.982,2.563-4.708,5.247-9.606,10.007-12.206,6.582-3.595,8.689-8.726,9.67-16.02,3.128-23.256,17.127-38.1,38.65-46.372,9.483-3.645,18.2-3.189,25.828,4.374a30.265,30.265,0,0,0,6.36,4.67c3.664,2.078,8.68-.688,8.893-4.712a8.643,8.643,0,0,0-.018-1.983c-1.91-10.409-.08-19.669,7.275-27.817,6.806-7.539,13.408-14.7,24.777-14.636,6.088.034,8.816-5.086,11.972-9.45,5.555-7.681,12.137-12.546,21.875-6.314a10.2,10.2,0,0,0,3.819,1c3.187.511,7.427-3.134,6.192-5.936-7.658-17.374,2.928-29.022,12.363-41.109,3.343-4.283,7.688-7.279,12.411-9.855A166.362,166.362,0,0,1,316.2,49.954c9.1-2.776,18.239-3.93,27.41-.361,7.966,3.1,15.56,2.787,22.9-1.919,7.846-5.032,16.333-4.83,25.07-2.9,8.506,1.88,16.913,4.268,24.305,8.806,12.167,7.469,22.309,16.9,24.925,31.93.946,5.43,3.978,9.736,6.608,14.372,2.5,4.4,5.551,7.062,10.641,7.925,10.311,1.75,15.731,8.891,19.472,18.063,8.029,19.691,11.544,39.442,3.3,60.078-2.795,7-7.324,12.552-11.98,18.2a4.481,4.481,0,0,0,.776,6.9,44.352,44.352,0,0,0,5.186,2.988c12.557,7.121,16.125,19.142,16.03,32.183-.044,5.941-.744,11.174,1.768,17.162,3.11,7.414-.228,12.569-8.378,15.274C466.435,284.568,447.939,286.607,430.924,288.076Z"/><path class="b" d="M175.834,350.152c-3.773,17.255-8.42,33.058-18.9,46.022a68.907,68.907,0,0,1-9.528,9.818,7.221,7.221,0,0,1-9.134.555,9.369,9.369,0,0,1-3.985-8.557,29.68,29.68,0,0,1,9.445-19.042C154.3,369.2,165.119,359.735,175.834,350.152Z"/><path class="b" d="M365.558,426.888c-.938,17.694-8.347,31.447-17.1,44.556-1.415,2.119-3.648,3.748-5.679,5.386-3.091,2.5-8.489.549-9.194-3.559-.538-3.135-1.01-6.767.061-9.58a36.679,36.679,0,0,1,7.083-11.672C348.726,443.383,357.247,435.232,365.558,426.888Z"/><path class="b" d="M85.491,410.324c-5.017,20.617-11.709,36.357-27.072,47.191-2.919,2.058-6.367,2.632-9.148.4A7.433,7.433,0,0,1,47.134,449c.713-1.834,1-3.952,2.095-5.5C58.269,430.734,69.823,420.75,85.491,410.324Z"/><path class="b" d="M264.639,353.031a93.642,93.642,0,0,1-18.37,44.815,18.827,18.827,0,0,1-4.167,4.125,6.862,6.862,0,0,1-7.4.716c-2.708-1.4-3.125-4.114-3.059-6.7.21-8.244,4.593-15.249,8.87-21.514C246.222,366.122,254.212,359.46,264.639,353.031Z"/><path class="b" d="M96.353,320.609c-3.9,11.893-6.282,19.363-8.8,26.789a30.309,30.309,0,0,1-9.833,14.544c-3.167,2.49-6.615,4.74-10.663,1.737-3.963-2.941-6.462-6.874-4.933-11.883a23.627,23.627,0,0,1,4.723-8.526C74.282,334.866,83.121,328.207,96.353,320.609Z"/><path class="b" d="M428.423,331.517c-1.667,16.254-8.578,32.937-16.238,40.311a15.366,15.366,0,0,1-3.148,2.383c-3,1.661-6.174,2.6-9.1.041a6.543,6.543,0,0,1-2.216-7.134c1.53-4.3,3.034-8.809,5.593-12.508C409.7,345.366,418.451,338.6,428.423,331.517Z"/><path class="b" d="M275.285,421.786c-1.009,15.151-6.535,26.877-14.382,37.624a31.358,31.358,0,0,1-7.106,6.725,6.1,6.1,0,0,1-7.405.111,7.088,7.088,0,0,1-2.651-7,19.122,19.122,0,0,1,2.581-7.307A131.308,131.308,0,0,1,275.285,421.786Z"/><path class="b" d="M179.6,447.7c-.576,14.363-5.5,24.4-10.723,34.326a17,17,0,0,1-8.61,7.838,5.564,5.564,0,0,1-7.454-4.188c-1.412-7.264,1.925-13.134,6.064-18.209A104.43,104.43,0,0,1,179.6,447.7Z"/><path class="b" d="M351.261,364.263c-3.974,16.076-9.147,27.72-16.7,38.336a15.427,15.427,0,0,1-4.378,3.847c-1.614,1.015-3.67,2.052-5.409.491-1.355-1.216-2.943-2.9-3.121-4.526a13.288,13.288,0,0,1,1.093-7.486C329.113,383.45,338.008,374.27,351.261,364.263Z"/></svg>