<svg xmlns="http://www.w3.org/2000/svg" viewBox="0 0 543.348 543.348"><defs><style>.a{fill:#077ec6;}.b{fill:#fcfcfb;}</style></defs><path class="a" d="M240.331,508.138c-6.622.268-13.243.761-19.864.768q-83.955.1-167.909.034c-3.329,0-6.659-.093-9.987-.2-5.006-.153-6.845-3.18-6.913-7.751-.049-3.33-.114-6.66-.114-9.99q-.009-193.843,0-387.687V89.06c6.792.627,6.293,6.736,9.56,9.34,3.109,2.478,5.769,5.516,8.86,8.018,3.942,3.192,7.729,1.843,9.084-2.782,1.808-6.173,1.125-11.575-3.089-16.808A63.552,63.552,0,0,1,45.962,54.22a51.055,51.055,0,0,1-.4-9.931c.266-3.546,2.128-6.677,6.009-6.749,14.643-.271,29.292-.257,43.938-.217,2.881.008,4.9,1.852,6.074,4.422,8.383,18.333,12.435,36.771.069,55.033A30.755,30.755,0,0,0,95.9,113.462c-.151,4.756,3.479,7.58,7.627,5.758,12.347-5.422,20.667-14.509,23.9-27.636a69.375,69.375,0,0,0,.426-33.646c-1.115-4.511-2.174-9.055-2.875-13.642-.572-3.746,1.1-6.539,5.115-6.92,3.968-.376,7.983-.338,11.977-.339q120.934-.025,241.869.012c19.152.014,19.788.353,13.822,19.221-5.233,16.552-3.836,31.267,6.991,45.034,6.214,7.9,14.659,11.184,24.135,12.427a6.015,6.015,0,0,0,6.514-3.5,9.269,9.269,0,0,0-.194-5.784c-1.732-5.369-6.679-8.075-10.348-11.871-12.2-12.612-13.76-24.022-6.114-40.015,5.043-10.55,12.245-16.681,24.9-15.709,11.263.866,22.641.125,33.959.436,5.719.157,7.979,3.661,6.671,9.534a85.235,85.235,0,0,1-11.847,27.336c-2.24,3.509-3.664,7.109-1.54,11.214,1.2,2.326,1.847,5.961,3.687,6.718,3.374,1.391,6.115-1.544,8.021-4.262,8.052-11.481,15.5-23.264,17.94-37.461.645-3.76.217-8.137,4.9-10.14,4.14.363,2.792,3.814,2.809,5.937.162,19.982.119,39.967.12,59.95q0,188.849,0,377.7c0,5.329.12,10.665-.095,15.986-.3,7.441-1.715,8.709-9.814,9.071-3.991.179-7.994.077-11.992.077q-84.954,0-169.908-.031c-7.652-.008-15.3-.437-23.083-.675.475-3.006,1.5-3.376,3.053-3.693,6.49-1.322,12.92-2.933,19.391-4.35,3.246-.71,6.561-1.109,9.8-1.855,30.23-6.967,50.721-25.444,62.163-53.855a131.569,131.569,0,0,0,8.055-28.731c3.4-21.986-1.851-41.625-15.66-59.826-11.27-14.854-24.242-24.217-43.114-24.619a5.926,5.926,0,0,1-3.576-1.413c-.831-.756-1.143-2.153-1.491-3.325a1.488,1.488,0,0,1,.825-1.2,52.678,52.678,0,0,1,5.965-.416c10.66-.056,21.327.156,31.98-.139,10.247-.283,12.506-2.829,12.558-13.484a78.062,78.062,0,0,0-.929-11.9c-.745-4.976-2.877-8.569-8.855-8.79-6.633-.245-13.232-1.6-19.861-1.737-27.277-.55-54.558-1-81.84-1.147-39.229-.207-78.461-.11-117.691-.16-2,0-4-.3-5.987-.248-9.248.252-11.882,2.68-11.043,12.206,2.219,25.2-3.636,26.87,26.662,26.248,10.613-.218,21.223-.681,31.837-.8,3.029-.036,7.952-1.414,8.512,2.064.628,3.9-4.135,4.083-7.418,4.621-7.856,1.289-15.664,2.874-23.531,4.083-20.046,3.082-31.167,15.793-38.074,33.859-5.535,14.478-8.956,29.1-8.26,44.707,1.043,23.416,11.385,41.919,28.775,57.03,16.5,14.336,36.182,22.254,56.8,28.146,8.831,2.525,17.947,4.058,26.933,6.041Zm72.006-301.983a40.56,40.56,0,0,1,2.513-15.866c3.145-9.008,8.687-16.434,14.589-23.638a45.456,45.456,0,0,1,50.054-14.2c6.358,2.218,12.447,4.739,19.308,3.151,1.805-.418,4.376-.266,4.429-2.879a9.263,9.263,0,0,0-1.482-5.42c-13.592-18.067-37.011-23.208-56.852-11.617-8.528,4.981-16.205,11.62-23.659,18.2-19.974,17.624-26.5,40.382-25.215,66.383.66,13.325,15.737,27.549,30.044,26.242,3.886-.355,5.811-3.093,4.715-6.6-1.905-6.106-6.907-9.658-10.794-14.129C315.017,220.053,311.673,213.761,312.337,206.155ZM70.827,118.224c-.517,28.682,15.375,47.362,38.219,60.853,11.011,6.5,23.97,7.775,36.743,5.688,10.31-1.685,18.5-6.921,23.1-16.745,1.861-3.977-1.09-7.941-5.425-8.2-5.6-.331-10.212,2.488-15.259,3.945-7.784,2.247-15.606,3.13-23.363-.236-15.219-6.606-26.9-17.138-33.452-32.4-5.477-12.763-6.432-25.774,3.149-37.5,3.9-4.78,6.49-9.92,6.4-16.243-.038-2.7-2.776-5.176-5.155-4.279a28.408,28.408,0,0,0-5.418,2.417C74.705,85.612,70.359,100.976,70.827,118.224Zm373.9-7.22c.273,18.771-8.372,33.332-22.809,44.112-13.511,10.088-28.613,13.787-44.863,5.529a40.373,40.373,0,0,0-9.371-3.028c-1.032-.234-2.606.55-3.494,1.353a4.149,4.149,0,0,0-1.1,5.284c5.164,10.566,13.986,15.6,25.335,16.621,15.457,1.387,28.742-4.721,40.905-13.17,24.4-16.949,34.85-41.148,33.8-70.261-.557-15.489-9.747-25.767-23.745-31.6-2.882-1.2-6.487-1.122-9.716-.931-4.661.275-7.17,6.634-4.8,10.881a10.063,10.063,0,0,0,5.975,4.835c8.921,2.926,11.4,10.525,13.037,18.458C444.691,102.953,444.481,107.026,444.728,111ZM232.3,205.549c-.493-14.444-4.722-27.685-14.538-38.384-15.912-17.344-36.13-27.087-59.233-30.518A36.352,36.352,0,0,0,131.9,142.9c-5.255,3.654-8.1,8.618-6.276,11.238,2.612,3.761,6.857,3.966,10.642,3.582a61.012,61.012,0,0,0,15.568-3.336c10.947-4.2,21.374-2.139,30.807,3.105a60.732,60.732,0,0,1,29.213,36.574c3.5,11.694.935,22.435-9.125,30.534-3.089,2.488-6.377,4.846-8.964,7.8-1.677,1.913-2.532,5.015-.574,7.349a7.178,7.178,0,0,0,4.947,2.51C218.2,241.435,232.644,225.8,232.3,205.549ZM150.18,266.1a49.082,49.082,0,0,0,.889,8.028,7.541,7.541,0,0,0,3.345,4.507c9.521,4.884,19.513.155,20.044-10,1.077-20.594,6.025-39.273,22.126-53.631,4.229-3.771,5.188-9.212,4.685-14.693-.418-4.552-.039-9.82-4.806-12.436-4.852-2.662-9,.507-12.608,3.235a83.976,83.976,0,0,0-23.285,26.9C152.6,232.531,151.919,248.444,150.18,266.1ZM369.76,262.5h-.016c0-3.322.094-6.648-.015-9.967-.857-26.257-14.753-44.73-35.545-58.924-5.418-3.7-10.393-1.428-12.193,4.726-2.732,9.336.039,16.9,6.868,23.4,11.237,10.685,16.349,23.914,16.274,39.313-.012,2.646.626,5.3.607,7.941-.082,11.289,3.559,11.847,13.208,13.337,7.958,1.228,10.41-1.174,10.788-9.857C369.881,269.147,369.76,265.819,369.76,262.5ZM234.909,172.39c1.436,8.042,2.165,13.915,3.607,19.607,1.05,4.143,3.978,6.932,8.71,6.087a74.435,74.435,0,0,1,27.419.266c5.357,1.029,8.713-1.552,10.234-6.793,1.1-3.777,2.7-7.413,3.684-11.213,1.009-3.9-1.155-6.149-4.772-7.1C268.219,169.128,252.633,171.792,234.909,172.39Zm-65.46-46.484c1.826-9.141-1.17-15.58-4.973-21.828-4.926-8.092-11.948-14.128-19.641-19.328-2.334-1.578-5.17-.358-6.268,2.659-1.834,5.038-4.043,11.036-.416,15.191,5.672,6.5,7.179,15.7,14.413,20.89.966.693,2.542.577,3.846.752C160.328,124.765,164.252,125.247,169.449,125.906ZM370.2,120.335c8.366.109,8.392.125,12.669-6.53,2.121-3.3,4.242-6.609,6.154-10.031,2.32-4.151.686-15.5-3.524-17.731-5.425-2.871-7.922,3.083-10.836,5.985-6.094,6.069-9.688,13.9-13.032,21.731-1.47,3.442.573,6.18,4.658,6.557C367.586,120.435,368.9,120.335,370.2,120.335Zm24.677,70.191c-7.714-.153-9.372.565-13.345,6.348-2.628,3.825-5.094,7.764-7.567,11.693a12.723,12.723,0,0,0-1.66,9.538c.653,3.417,1.827,7.013,5.29,7.651,1.982.364,4.859-1.635,6.672-3.292,7.428-6.787,13.57-14.54,16.624-24.368C402.3,193.573,400.009,190.628,394.88,190.526ZM126.032,197.15c3.141,8.345,8.115,14.478,13.983,19.968,2.976,2.784,5.8,2.349,8.038-1.306a50.526,50.526,0,0,0,3.841-6.962c2.851-6.9-1.112-13.508-8.82-14.155C137.909,194.261,132.5,193.27,126.032,197.15Z"/><path class="a" d="M262.4,455.7a90.375,90.375,0,0,1-9.389-1.068c-6.045-1.279-8.833-5.062-8.883-11.315-.086-10.766,3.445-20.886,6.053-31.09,1.844-7.21.51-12.2-4.318-17.94-9.905-11.766-7.678-25.921,4.263-34.109,8.839-6.062,20.193-4.873,29.256,3.062,7.942,6.955,10.4,17.665,6.041,26.83-1.13,2.377-2.13,5.106-3.989,6.794-7.13,6.474-6.339,14.416-3.763,22.059,2.816,8.354,3.415,16.835,3.746,25.42.291,7.553-1.348,9.355-8.647,10.329C269.485,455.1,266.177,455.328,262.4,455.7Z"/><path class="b" d="M312.337,206.155c-.664,7.606,2.68,13.9,7.65,19.617,3.887,4.471,8.889,8.023,10.794,14.129,1.1,3.511-.829,6.249-4.715,6.6-14.307,1.307-29.384-12.917-30.044-26.242-1.289-26,5.241-48.759,25.215-66.383,7.454-6.576,15.131-13.215,23.659-18.2,19.841-11.591,43.26-6.45,56.852,11.617a9.263,9.263,0,0,1,1.482,5.42c-.053,2.613-2.624,2.461-4.429,2.879-6.861,1.588-12.95-.933-19.308-3.151a45.456,45.456,0,0,0-50.054,14.2c-5.9,7.2-11.444,14.63-14.589,23.638A40.56,40.56,0,0,0,312.337,206.155Z"/><path class="b" d="M70.827,118.224c-.468-17.248,3.878-32.612,19.536-42.7a28.408,28.408,0,0,1,5.418-2.417c2.379-.9,5.117,1.575,5.155,4.279.088,6.323-2.5,11.463-6.4,16.243-9.581,11.73-8.626,24.741-3.149,37.5,6.548,15.261,18.233,25.793,33.452,32.4,7.757,3.366,15.579,2.483,23.363.236,5.047-1.457,9.655-4.276,15.259-3.945,4.335.256,7.286,4.22,5.425,8.2-4.6,9.824-12.785,15.06-23.095,16.745-12.773,2.087-25.732.814-36.743-5.688C86.2,165.586,70.31,146.906,70.827,118.224Z"/><path class="b" d="M444.728,111c-.247-3.978-.037-8.051-.836-11.915-1.641-7.933-4.116-15.532-13.037-18.458A10.063,10.063,0,0,1,424.88,75.8c-2.375-4.247.134-10.606,4.8-10.881,3.229-.191,6.834-.27,9.716.931,14,5.831,23.188,16.109,23.745,31.6,1.047,29.113-9.4,53.312-33.8,70.261-12.163,8.449-25.448,14.557-40.905,13.17-11.349-1.018-20.171-6.055-25.335-16.621a4.149,4.149,0,0,1,1.1-5.284c.888-.8,2.462-1.587,3.494-1.353a40.373,40.373,0,0,1,9.371,3.028c16.25,8.258,31.352,4.559,44.863-5.529C436.356,144.336,445,129.775,444.728,111Z"/><path class="b" d="M232.3,205.551c.344,20.245-14.1,35.884-34.165,36.7a7.178,7.178,0,0,1-4.947-2.51c-1.958-2.334-1.1-5.436.574-7.349,2.587-2.951,5.875-5.309,8.964-7.8,10.06-8.1,12.62-18.84,9.125-30.534a60.732,60.732,0,0,0-29.213-36.574c-9.433-5.244-19.86-7.3-30.807-3.105a61.012,61.012,0,0,1-15.568,3.336c-3.785.384-8.03.179-10.642-3.582-1.821-2.62,1.021-7.584,6.276-11.238a36.352,36.352,0,0,1,26.635-6.253c23.1,3.431,43.321,13.174,59.233,30.518C227.581,177.864,231.81,191.105,232.3,205.551Z"/><path class="b" d="M150.18,266.1c1.739-17.659,2.417-33.572,10.39-48.1a83.976,83.976,0,0,1,23.285-26.9c3.606-2.728,7.756-5.9,12.608-3.235,4.767,2.616,4.388,7.884,4.806,12.436.5,5.481-.456,10.922-4.685,14.693-16.1,14.358-21.049,33.037-22.126,53.631-.531,10.159-10.523,14.888-20.044,10a7.541,7.541,0,0,1-3.345-4.507A49.082,49.082,0,0,1,150.18,266.1Z"/><path class="b" d="M369.76,262.5c0,3.323.121,6.651-.024,9.967-.378,8.683-2.83,11.085-10.788,9.857-9.649-1.49-13.29-2.048-13.208-13.337.019-2.645-.619-5.3-.607-7.941.075-15.4-5.037-28.628-16.274-39.313-6.829-6.494-9.6-14.062-6.868-23.4,1.8-6.154,6.775-8.425,12.193-4.726,20.792,14.194,34.688,32.667,35.545,58.924.109,3.319.015,6.645.015,9.967Z"/><path class="b" d="M234.909,172.39c17.724-.6,33.31-3.262,48.882.85,3.617.955,5.781,3.207,4.772,7.1-.984,3.8-2.588,7.436-3.684,11.213-1.521,5.241-4.877,7.822-10.234,6.793a74.435,74.435,0,0,0-27.419-.266c-4.732.845-7.66-1.944-8.71-6.087C237.074,186.305,236.345,180.432,234.909,172.39Z"/><path class="b" d="M169.449,125.906c-5.2-.659-9.121-1.141-13.039-1.664-1.3-.175-2.88-.059-3.846-.752-7.234-5.194-8.741-14.391-14.413-20.89-3.627-4.155-1.418-10.153.416-15.191,1.1-3.017,3.934-4.237,6.268-2.659,7.693,5.2,14.715,11.236,19.641,19.328C168.279,110.326,171.275,116.765,169.449,125.906Z"/><path class="b" d="M370.2,120.335c-1.3,0-2.617.1-3.911-.019-4.085-.377-6.128-3.115-4.658-6.557,3.344-7.835,6.938-15.662,13.032-21.731,2.914-2.9,5.411-8.856,10.836-5.985,4.21,2.228,5.844,13.58,3.524,17.731-1.912,3.422-4.033,6.731-6.154,10.031C378.6,120.46,378.569,120.444,370.2,120.335Z"/><path class="b" d="M394.88,190.526c5.129.1,7.42,3.047,6.014,7.57-3.054,9.828-9.2,17.581-16.624,24.368-1.813,1.657-4.69,3.656-6.672,3.292-3.463-.638-4.637-4.234-5.29-7.651a12.723,12.723,0,0,1,1.66-9.538c2.473-3.929,4.939-7.868,7.567-11.693C385.508,191.091,387.166,190.373,394.88,190.526Z"/><path class="b" d="M126.032,197.15c6.468-3.88,11.877-2.889,17.042-2.455,7.708.647,11.671,7.252,8.82,14.155a50.526,50.526,0,0,1-3.841,6.962c-2.241,3.655-5.062,4.09-8.038,1.306C134.147,211.628,129.173,205.5,126.032,197.15Z"/></svg>