<svg xmlns="http://www.w3.org/2000/svg" viewBox="0 0 543.348 543.348"><defs><style>.a{fill:#2d9e54;}.b{fill:#fcfcfb;}</style></defs><path class="a" d="M413.644,213.476a75.782,75.782,0,0,1,7.195-3.337c9.022-3.13,11.133-1.737,12.636,8.057a11.189,11.189,0,0,1,.006,2c-.128,4.533,5.175,8.254,2.15,13.158-3.828,6.207-7.686,12.05-14.769,15.654-15.619,7.947-16.589,9.463-28.361,29.16,8.647-9.84,17.662-14.859,26.984-19.271a23.407,23.407,0,0,1,9.614-1.755,7.169,7.169,0,0,1,4.887,2.773c2.671,3.547,0,18.734-3.26,21.935A28.2,28.2,0,0,1,418.7,288.61c-4.454,1.356-8.688,3.268-11.651,8.3,3.3,3.327,7-.25,10.274.328,3.211.566,6.617-.1,9.916.12,3.53.233,5.6,3.47,4.823,7.07-3.73,17.24-10.448,23.053-25.086,23.371-21.964.477-39.541,9.628-56.364,22.412-12.736,9.679-25.319,19.472-37.377,29.989-7.139,6.226-12.7,13.683-17.935,21.352-4.5,6.589-2.318,12.217,5.261,16.015a27.515,27.515,0,0,0,5.546,2.223,5.141,5.141,0,0,0,6.4-3.256c2.552-6.087,2.791-13.173,7.542-18.3,4.073-4.392,8.031-9.035,12.736-12.666,8.411-6.49,17.2-12.525,26.143-18.271,2.982-1.916,5.69-5.8,11.5-3.385C354.216,381.5,334.01,395.2,323.544,418.768c5.773,4,12.117,4.89,18.492,5.546,3.615.372,6.206-1.06,7.89-4.571,5.819-12.132,14.049-22.553,23.506-32.033a17.535,17.535,0,0,1,4.795-3.508,3.558,3.558,0,0,1,3.341.637,3.788,3.788,0,0,1,.252,3.522c-5.342,8.418-11.026,16.621-16.264,25.1a43.385,43.385,0,0,0-4.667,10.837c-.858,3.011,1.79,4.664,4.07,6.109,2.509,1.59,5.3,1.846,7.16-.47,4.155-5.165,7.752-10.778,11.882-15.965,1.954-2.454,4.284-4.892,9.288-5.074-1.541,8.982-5.653,16.3-9.666,23.73-2.909,5.388-1.811,8.366,3.32,11.5,4.279,2.611,8.094,1.821,9.574-2.708a74.081,74.081,0,0,1,9.531-19.692c1.465-2.1,3.019-4.183,7-3.565.123,9.422-4.26,17.693-7.291,26.283-4.07,11.532-3.806,12.073,9.7,18.68,11.177-17.321,12.095-38.688,21.144-57.231,5.407,2.206,3.992,6.051,3.715,8.63-1.778,16.55-4.048,32.961-12.167,48.015-4.523,8.385-3.249,10.651,5.882,14.953,6.56,3.09,10.1,1.52,10.99-5.846,3.125-25.767,8.542-51.264,9.255-77.32a49.391,49.391,0,0,1,.814-5.754c4.4.57,5.232,3.366,5.482,7.049,1.625,23.948,2.9,47.86-3.171,71.466a33.559,33.559,0,0,0-.906,5.923c-.24,3.3-.583,6.851,3.684,7.986a9.33,9.33,0,0,0,9.244-2.273,27.384,27.384,0,0,0,8.683-19.507c.487-19.322.309-38.7-2.81-57.71-2.462-15-3.1-30.448-9.284-44.856-3.49-8.132-6.622-15.865-14.954-20.322-9.4-5.028-12.94-12.786-10.137-23.343.668-2.513.235-5.3.512-7.937.725-6.9,4.225-8.866,10.9-5.765,4.751,2.207,9.233,4.99,13.779,7.485,3.252-2.578,1.272-4.946-.246-6.91-2.843-3.679-5.365-8.323-9.2-10.392-12.567-6.789-10.845-18.049-10.33-29.05a5.989,5.989,0,0,1,8.722-4.983c5.628,2.775,11.031,6.006,17.992,9.849-1.128-9.012-5.528-12.917-11.842-15.959-6.485-3.124-13.314-6.036-16.364-13.688-1.487-3.728-4.235-6.914-.095-10.584,1.619-1.435,1.66-3.4,1.032-5.456-.985-3.216-2.132-7.056.329-9.505,3.088-3.071,7.645-2.141,11.415-.923,6.3,2.034,12.426,4.621,18.582,7.083,2.543,1.018,4.961,1.671,7.938-.722-13.951-17.456-35.9-21.36-54.113-32.083.5-1.64,1.058-3.431,1.605-5.225,1.884-6.171,1.578-11.323-4.152-15.991-3.782-3.082-2.181-6.982,2.347-8.857,7.683-3.181,15.539-3.334,23.554-1.729,7.181,1.437,14.354,2.924,21.572,4.146.757.128,2.39-1.288,2.544-2.174a3.88,3.88,0,0,0-1.369-3.315c-11.286-6.238-23.669-8.429-36.338-9.325-7.25-.512-14.33-.454-21.568-2.944-7.8-2.684-15.153-4.311-18.066-13.408-1.036-3.237-4.693-4.461-8.194-4.738-2.624-.208-5.329-.062-7.858-.662-3.79-.9-5.459-6.365-3.3-9.791,4.074-6.451,10.144-10.423,16.937-13.352,9.837-4.241,20-7.37,30.812-7.829,3.994-.169,8-.144,11.979-.5,1.045-.092,2.633-1.1,2.863-1.972.59-2.259-1.07-3.774-3.041-4.134-25.53-4.66-49.144-1.483-68.5,17.633-3.917,3.868-8.593,6.063-13.3,8.559-4.548,2.412-9.3,3.013-13.391.736-7.431-4.135-14.57-4.822-22.9-2.979-7.326,1.62-11.007-3.489-9.7-10.839a32.853,32.853,0,0,1,5.6-12.689c12.19-18.039,28.95-30.99,47.214-42.282a20.845,20.845,0,0,1,11.415-2.891c40.659.018,81.318-.055,121.976.076,7.967.026,9.4,1.627,9.727,9.2.228,5.322.1,10.66.1,15.99q.006,210.887,0,421.772c0,6-.032,11.993-.163,17.986-.1,4.822-2.849,7.17-7.52,7.3s-9.33.128-14,.128q-214.957.007-429.915-.014c-23.968-.006-22.841,2.4-22.838-22.51q.028-213.9.02-427.8c0-24.589-1.978-22.11,22.959-22.125q133.972-.084,267.946-.022h17.337c2.184,5.414-1.549,6.968-3.985,8.467-15.776,9.714-26.73,23.743-36.331,39.175-4.555,7.323-9.9,14.147-14.684,21.337-2.541,3.824-5.907,5.383-10.19,4.315-6.26-1.561-11.22-.308-16.625,3.7-5.871,4.355-13.573.554-15.2-6.528a53.007,53.007,0,0,1-.871-19.852c1.339-8.935,2.476-17.9,3.925-28.5-2.83,2.449-4.9,3.4-5.572,4.956-5.827,13.542-10.64,27.659-9.518,42.444,1.01,13.293-6.213,20.318-16.456,24.007-8.051,2.9-14.146,6.555-18.246,13.939-.9,1.63-2.9,2.707-4.5,3.884-4.88,3.573-10.247,2.87-14.14-1.653a31.8,31.8,0,0,1-6.859-14.244c-1.557-7.149-2.705-14.387-4.224-21.545-.165-.779-1.829-1.961-2.429-1.773a5.161,5.161,0,0,0-2.942,2.455c-2.826,6.383-1.95,13.057-.87,19.613s3.772,13.065,3.693,19.568c-.106,8.773,3.041,18.623-6.357,25.675-2.833,2.126-3.4,7.083-5.439,10.488-6.165,10.314-15.122,10.207-21.7-.188-3.976-6.28-6.04-13.268-7.359-20.533a98.44,98.44,0,0,0-2.706-11.491c-.269-.872-2.085-1.717-3.2-1.729a3.254,3.254,0,0,0-2.422,2.086,60.439,60.439,0,0,0-.388,11.913c1.207,11.265,3.163,22.412,7.018,33.136,1.352,3.76,2.9,7.468,3.952,11.312.69,2.528,1.639,5.658.761,7.827-4.412,10.894-9.234,21.634-14.275,32.255-1.222,2.576-7.043,2.755-8.9.42a66.7,66.7,0,0,1-7.753-11.5c-3.839-7.732-7.04-15.779-10.669-23.62a4.361,4.361,0,0,0-2.894-2.2c-3.011-.348-2.624,2.326-2.418,3.875,1.853,13.88,4.125,27.779,11.085,40.136,7.285,12.937,10.908,25.619,2.167,39.323-.972,1.525-.784,3.855-.929,5.827-.227,3.076,3.638,6.581,6.647,5.612,6.935-2.233,14.952-3.357,20.344-7.665,11.5-9.185,23.939-10.339,37.516-8.724,15.532,1.848,30.565-.52,45.118-6.01,2.333-.88,5.26-1.376,6.342-4.956-5.789-2.7-11.477-.149-16.935.811-15.458,2.719-30.526-.239-45.639-2.443-3.133-.456-6.239-2.254-8.973-4.027a8.419,8.419,0,0,1-2.561-12.189c1.48-2.17,3.638-3.869,5.225-5.979,14.859-19.769,15.179-19.953,37.343-13.282,13.572,4.086,27.434,5.158,41.493,4.418,1.966-.1,3.894-.8,5.861-1.071,1.711-.236,2.614-1.082,2.159-2.707-.3-1.082-.964-2.759-1.72-2.913-9.1-1.849-18.271-3.39-27.393-5.158-10.5-2.034-20.641-5.041-29.768-10.9-4.481-2.874-6.207-6.709-4.994-11.882,2.715-11.581,8.381-20.412,20.613-24.1a16.458,16.458,0,0,1,13.368,1.162q8.817,4.673,17.77,9.088c12.607,6.188,25.679,10.958,39.783,12.27,1.044.1,2.921-.751,3.118-1.5a3.809,3.809,0,0,0-1.261-3.413c-6.421-3.454-12.915-6.792-19.52-9.879a173.44,173.44,0,0,1-32.361-19.536c-4.629-3.557-4.63-8.374.426-11.462a240.588,240.588,0,0,1,27.881-14.89c4.152-1.836,9.25-.381,12.583,3.731,2.515,3.1,4.937,6.279,7.413,9.414a158.469,158.469,0,0,0,29.881,29.288c4.239,3.144,9.067,5.508,13.692,8.11a5.277,5.277,0,0,0,6.355-.308c-1.769-5.66-6.815-8.8-10.846-12.718-8.574-8.339-18.4-15.441-25.158-25.573-4.1-6.155-7.455-12.508-7.551-20.222-.086-6.966,1.765-9.721,8.544-11.059,3.234-.638,6.676-.534,9.759-1.561,3.7-1.231,7.4-4.6,11.069-1.417,4.4,3.817,10.291,6.472,11.771,13.057,1.163,5.177,2.521,10.312,3.872,15.445a58.4,58.4,0,0,0,11.974,22.711c1.259,1.507,2.621,3.723,4.679,2.614,2.983-1.609,1.449-4.191.654-6.706-2.6-8.238-5.2-16.5-7.21-24.9a49.4,49.4,0,0,1-1.173-13.788c.443-8.83,3.653-11.346,12.8-10.3,3.28.373,6.319.976,9.763.38,10.33-1.788,10.32-1.3,12.7,8.376,1.32,5.357.7,10.553.712,15.851a32.992,32.992,0,0,0,1.311,9.741A5.982,5.982,0,0,0,355.6,166c1.489.1,4.059-1.534,4.528-2.946,1.882-5.665,2.925-11.6,4.683-17.316,1.368-4.447,5.23-5.856,9.512-3.732,3.446,1.709,5.66,5.656,10.333,5.2,4.43-.427,5.136,2.362,5.371,6.2.838,13.644-5.225,25.784-7.977,38.635-1.244,5.808-3.438,11.524-3.828,17.374-.477,7.158.485,14.412.828,21.677,1.149-.19,2.36-.227,2.385-.418q1.671-12.843,3.129-25.712a32.628,32.628,0,0,0,.079-3.995c-.122-13.907,8.933-23.139,16.963-32.788,2.356-2.83,8.529-1.786,10.607,1.529,2.8,4.459,5.185,9.171,7.815,13.737,1.463,2.538,1.067,4.976.232,7.625-2.194,6.958-4.046,14.045-9.437,19.435-3.4,2.063-6.518,4.4-7.941,8.344-1.71,2.69-3.605,5.286-5.059,8.108-.852,1.653-1.119,3.868.974,4.933.538.274,2.061-.97,2.891-1.767a13.409,13.409,0,0,0,4.456-8.253A18.754,18.754,0,0,0,413.644,213.476ZM48.512,448.175c.17,3.01.151,8.335.863,13.561.582,4.273,6.961,7.692,10.872,6.074a40.205,40.205,0,0,0,6.818-3.987c11.233-7.53,22.167-8.032,32.761,1.215a20.181,20.181,0,0,0,3.037,2.531c7.6,4.331,14.689-.126,14.657-9.212a9.329,9.329,0,0,0-.7-3.892c-3.013-6.292.672-10.1,5.039-13.467a51.16,51.16,0,0,1,9.985-6.494c15.565-6.961,24.552-19.344,31.009-34.639,5.655-13.4,10.568-27.269,19.548-39.071,5.627-7.4,11.045-14.951,16.522-22.46,9.21-12.626,8.156-17.484-5.429-24.488-2.937-1.514-5.978-3.4-9.141-3.81-27.241-3.538-54.3-4.424-80.284,6.966-6.056,2.655-12.152,5.283-18.409,7.391-4.2,1.414-7.861-.812-9.3-5.159-1.253-3.774-1.724-7.822-3.116-11.534a156.511,156.511,0,0,0-7.173-16.293c-.734-1.435-2.939-2.593-4.659-2.943-3.111-.633-4.883,1.938-6.072,4.195-1.2,2.284-1.668,4.983-2.3,7.539-3.981,16.116-6.157,32.516-8.744,48.9a186.377,186.377,0,0,0,2.893,75.072A59.107,59.107,0,0,1,48.512,448.175Z"/><path class="a" d="M457.133,354.049c-.6,1.021-1.3,3.044-1.859,3.008-2.906-.189-4.9-1.951-4.982-4.973-.024-.925,1.208-2.61,2.008-2.7C455.48,349.016,457.053,350.852,457.133,354.049Z"/><path class="b" d="M48.512,448.175a59.107,59.107,0,0,0-1.324-24.01A186.377,186.377,0,0,1,44.3,349.093c2.587-16.379,4.763-32.779,8.744-48.9.631-2.556,1.095-5.255,2.3-7.539,1.189-2.257,2.961-4.828,6.072-4.195,1.72.35,3.925,1.508,4.659,2.943A156.511,156.511,0,0,1,73.242,307.7c1.392,3.712,1.863,7.76,3.116,11.534,1.444,4.347,5.107,6.573,9.3,5.159,6.257-2.108,12.353-4.736,18.409-7.391,25.984-11.39,53.043-10.5,80.284-6.966,3.163.41,6.2,2.3,9.141,3.81,13.585,7,14.639,11.862,5.429,24.488-5.477,7.509-10.895,15.064-16.522,22.46-8.98,11.8-13.893,25.675-19.548,39.071-6.457,15.3-15.444,27.678-31.009,34.639A51.16,51.16,0,0,0,121.862,441c-4.367,3.365-8.052,7.175-5.039,13.467a9.329,9.329,0,0,1,.7,3.892c.032,9.086-7.059,13.543-14.657,9.212a20.181,20.181,0,0,1-3.037-2.531c-10.594-9.247-21.528-8.745-32.761-1.215a40.205,40.205,0,0,1-6.818,3.987c-3.911,1.618-10.29-1.8-10.872-6.074C48.663,456.51,48.682,451.185,48.512,448.175Zm68.69-70.818c-.17-15.83-14.952-31.521-29.992-31.836-19.283-.4-34.594,14.335-34.564,33.272.023,14.672,17.414,30.847,33.2,30.881C102.634,409.711,117.386,394.506,117.2,377.357Zm21.724-56.45c-4.825.421-10.943-.484-16.332,2.72a3.975,3.975,0,0,0-1.783,3.1,3.841,3.841,0,0,0,2.518,2.615c3.905.538,7.871.654,11.817.883,12.608.732,25.036,2.015,35.34,10.532a10.238,10.238,0,0,0,3.554,1.721c3.547,1.063,6.409-.131,8.665-2.969,2.1-2.642,1.048-5.564-3.032-7.76C167.284,325.083,154.184,320.95,138.926,320.907Zm-3.687,16.369c-2.615.933-7.34-1.149-8.242,2.573-1.422,5.869,4.421,4.954,7.74,6.157a67.757,67.757,0,0,1,18.9,10.473c2.573,2.021,5.034,4.308,7.9,5.778,1.4.715,3.855.322,5.407-.437,2.737-1.339,2.838-4.239,2.4-6.868a6.118,6.118,0,0,0-1.979-3.328C158.2,343.744,147.927,338.241,135.239,337.276Z"/><path class="b" d="M406.14,221.87a13.415,13.415,0,0,1-4.457,8.253c-.83.8-2.353,2.041-2.891,1.767-2.093-1.065-1.826-3.28-.974-4.933,1.454-2.822,3.349-5.418,5.06-8.1Q404.51,220.366,406.14,221.87Z"/><path class="b" d="M413.644,213.476a18.754,18.754,0,0,1-7.5,8.394q-1.629-1.507-3.261-3.018c1.422-3.951,4.543-6.284,7.94-8.347Q412.224,211.99,413.644,213.476Z"/><path class="a" d="M117.2,377.357c.184,17.149-14.568,32.354-31.354,32.317-15.788-.034-33.179-16.209-33.2-30.881-.03-18.937,15.281-33.676,34.564-33.272C102.25,345.836,117.032,361.527,117.2,377.357Zm-15.293-13.026c.134,6.346,1.537,12.885-7.239,15.618-3.167.986-3.7,4.977-.628,7.99,4.034,3.955,8.277,3.214,10.534-1.584,3.751-7.967,2.682-15.116-2.963-21.721-4.1-3.306-8.415-6.289-13.691-7.288C75,354.9,66.1,360.363,62.336,373.143c-.926,3.142-1.429,6.481.236,9.768,1.068-.1,2.307.113,3.2-.346,3.415-1.747,8.394-.521,10.373-4.778,1.556-3.348-1.021-6.219-2.063-9.278-1.433-4.206,1.573-5.936,4.827-6.971C86.966,358.974,94.3,362.978,101.909,364.331ZM79.641,396.1c-.58-.379-1.67-.073-1.241,1.1a3.825,3.825,0,0,0,2.531,2.139c1.453.211,3.016-.334,4.533-.558Z"/><path class="a" d="M138.926,320.907c15.258.043,28.358,4.176,40.747,10.843,4.08,2.2,5.134,5.118,3.032,7.76-2.256,2.838-5.118,4.032-8.665,2.969a10.238,10.238,0,0,1-3.554-1.721c-10.3-8.517-22.732-9.8-35.34-10.532-3.946-.229-7.912-.345-11.817-.883a3.841,3.841,0,0,1-2.518-2.615,3.975,3.975,0,0,1,1.783-3.1C127.983,320.423,134.1,321.328,138.926,320.907Z"/><path class="a" d="M135.239,337.276c12.688.965,22.96,6.468,32.136,14.348a6.118,6.118,0,0,1,1.979,3.328c.434,2.629.333,5.529-2.4,6.868-1.552.759-4.01,1.152-5.407.437-2.868-1.47-5.329-3.757-7.9-5.778a67.757,67.757,0,0,0-18.9-10.473c-3.319-1.2-9.162-.288-7.74-6.157C127.9,336.127,132.624,338.209,135.239,337.276Z"/><path class="b" d="M101.932,364.3c-7.629-1.326-14.966-5.33-23.018-2.766-3.254,1.035-6.26,2.765-4.827,6.971,1.042,3.059,3.619,5.93,2.063,9.278-1.979,4.257-6.958,3.031-10.373,4.778-.9.459-2.137.25-3.2.346-1.665-3.287-1.162-6.626-.236-9.768C66.1,360.363,75,354.9,87.922,357.346c5.276,1,9.593,3.982,13.691,7.288Z"/><path class="b" d="M101.613,364.634c5.645,6.6,6.714,13.754,2.963,21.721-2.257,4.8-6.5,5.539-10.534,1.584-3.074-3.013-2.539-7,.628-7.99,8.776-2.733,7.373-9.272,7.251-15.631C101.932,364.3,101.613,364.634,101.613,364.634Z"/><path class="b" d="M79.641,396.1l5.823,2.683c-1.517.224-3.08.769-4.533.558A3.825,3.825,0,0,1,78.4,397.2C77.971,396.024,79.061,395.718,79.641,396.1Z"/></svg>