<svg xmlns="http://www.w3.org/2000/svg" viewBox="0 0 543.348 543.348"><defs><style>.a{fill:#1f1e15;}.b{fill:#fcfcfb;}</style></defs><path class="a" d="M337.384,451.7c4.425-1.152,5.456,2.785,7.292,5.14,3.27,4.2,6.063,8.758,9.234,13.035,2.812,3.793,6.66,4.182,10.612,2.161q18.645-9.539,37.154-19.344t36.848-19.9c1.551-.855,3.591-2.551,3.683-3.969.194-2.973-2.367-4.325-5.045-5.2q-5.7-1.866-11.3-4c-9.414-3.572-16.043-9.452-16.183-20.357-.064-4.973-2.752-6.7-7.334-7.511-11.2-1.976-21.6-6.39-32.089-10.723-8.592-3.549-15.347-7.837-17.028-17.622-.774-4.5-3.794-6.456-8.061-7.641-14.092-3.911-28.214-7.678-41.093-15.1-7.825-4.508-12.392-11.2-11.022-19.554,1.917-11.688,5.177-23.214,16.077-30.842,4.4-3.079,8-6.255,13.862-6.72a23.237,23.237,0,0,1,16.679,5.217c10.05,7.75,19.4,16.326,26.1,27.27,3.736,6.1,7.518,10.6,15.841,7.838,7.042-2.332,12.939.745,17.9,5.943,8.271,8.665,16.838,17.055,24.909,25.9,4.086,4.479,8.261,6.977,13.789,3.345,5.44-3.574,10.292-1.925,14.763,1.245,6.438,4.568,12.517,9.639,18.9,14.614,1.721-2.148,3.741-3.537,4.065-5.246,4.7-24.824,9.389-49.656,13.566-74.571,1.243-7.414-.772-9.677-8.179-10.7-13.927-1.92-27.241-5.829-40.456-10.511-16.3-5.774-21.4-18.438-14.382-35.208a48.556,48.556,0,0,1,12.791-17.683c9.093-8.033,19.645-8.2,28.45.165,7.662,7.283,14.953,14.955,22.919,22.968,5.112-3.345,5.27-8.319,5.69-12.353,1.586-15.22,3.094-30.491,3.524-45.775.326-11.623-2.967-22.62-13.085-29.835-13.528-9.649-27.346-18.893-41.145-28.154-2.959-1.986-6.03.48-5.894,4.657.239,7.317.55,14.636,1.053,21.938.467,6.793-2.49,11.27-8.332,14.526a42.356,42.356,0,0,1-34.7,3.521c-14.508-4.536-19.982-13.235-17.909-28.765,1.771-13.263,4.643-26.132,11.61-37.908,3.9-6.6,3.082-8.974-3.131-13.249-4.8-3.3-9.978-6.056-16.717-10.088.148,10.015,2.594,17.479,4.047,25.11,2.765,14.523-1.156,21.044-14.744,26.147a42.356,42.356,0,0,1-19.662,2.414c-18.74-2.009-26.893-12.8-24.283-31.31.95-6.733,3.629-12.779,6.277-18.882,3.177-7.321,6.476-14.589,9.654-21.91a5.477,5.477,0,0,0-1.895-7.056c-4.871-3.333-9.913-6.49-15.9-7.573-4.275,3.078-1.985,7.107-1.847,10.7a82.951,82.951,0,0,0,.895,9.949c2.914,18.162-5.316,24.952-22.322,29.156-10.159,2.512-19.807.216-28.571-5.667-8.579-5.76-12.724-13.415-10.568-23.856.941-4.555,2.125-9.061,3.067-13.617.557-2.689-2.122-5.32-4.585-4.6a48.038,48.038,0,0,0-5.658,1.97q-34.7,15.116-69.38,30.291c-6.428,2.807-8.114,5.76-6.256,12.4,2.864,10.235,6.616,20.253,8.957,30.6,4.459,19.7-5.774,32.6-25.8,33.622a42.279,42.279,0,0,1-26.428-7.382c-13.014-8.722-13.631-13.069-10.059-24.811,1.895-6.229,3.138-12.656,4.624-18.786-3.788-3.638-6.579-.792-9.347.283-12.4,4.809-24.812,9.586-37.078,14.715-5.287,2.211-6.21,6.155-4.04,11.355a30.173,30.173,0,0,0,11.5,13.478c10.479,7.078,20.709,14.6,31.619,20.95,31.081,18.083,61.375,37.232,90.33,58.663,14.325,10.6,29.094,21.072,45.784,28.171,6.176,2.628,5.993,2.956,4.152,12.245-.377,1.905-.243,3.909-.539,5.836-.076.491-.9.868-2.305,2.133-5.58-4.789-11.207-10.106-17.322-14.786-33.827-25.891-68.139-51.094-104.9-72.767q-21.481-12.663-42.757-25.672c-8.046-4.939-15.981-9.369-26.076-8.142-2.9.353-6.1-1.783-10.172-3.107-.252,17.056-.565,33.535-.684,50.014a4.45,4.45,0,0,0,6.978,3.819c5.528-3.7,11.18-7.332,16.182-11.68,10.078-8.761,22.275-2.855,27.307,5.611,6.911,11.627,9.8,24.688,10.019,38.184.085,5.226-3.3,8.693-8.173,10.149q-11.457,3.423-23.1,6.2c-3.871.927-8.043.715-11.832,1.847-13.418,4.009-14.739,2.151-14.594,18.734.215,24.609.3,49.22.429,72.881,4.58,3.717,7.2,1.13,9.934-.473,4.019-2.353,7.953-4.857,12.017-7.129,10.273-5.742,16.564-4.656,24,4.881,7.974,10.223,12.538,21.659,12.161,35.054-.3,10.487-3.846,18.03-14.277,21.409-2.993.97-5.945,2.068-10.289,3.588,10.23,11.22,21.407,19.365,32.343,27.765,2.633,2.024,5.444,3.829,8.252,5.611,8.389,5.322,16.816,10.583,25.229,15.867,9.547-3.864,14.986-12.878,23.188-18.473,7.144-4.872,13.759-10.522,20.936-15.339,6.9-4.628,14.225-4,19.9,2.2,8.664,9.466,15.291,20.537,16.451,33.443,1.029,11.451-1.609,19.387-13.914,23.4-4.405,1.437-8.855,2.736-13.28,4.111-1.871.582-4.216,1.154-3.786,3.6a8.8,8.8,0,0,0,2.85,4.77c3.036,2.57,6.52,4.605,9.642,7.083,1.907,1.514,4.682,2.482,4.646,5.732-1.476,3.281-4.529,1.969-6.838,1.973q-81.995.145-163.99.063a71.477,71.477,0,0,1-7.963-.381c-2.986-.338-4.652-2.225-4.946-5.2-.2-1.984-.3-3.986-.3-5.98-.017-28.658-.084-57.316.034-85.973.04-9.927.249-10,11.477-11.278,7.9-.9,15.829-1.575,23.743-2.363,2.654-.263,5.334-.4,7.949-.879,19.366-3.58,24.088-12.615,16.164-30.873a42.9,42.9,0,0,0-2.775-5.269c-4.349-7.113-7-7.75-14.623-4.454-11.833,5.112-20.556,14.569-30.913,21.734-2.164,1.5-3.964,3.519-6.124,5.023-2.087,1.454-3.959.161-4.609-1.676-.637-1.8-.327-3.95-.328-5.947q-.02-54.983-.011-109.965c0-1.332-.036-2.667.024-4,.329-7.338.785-8.125,7.522-9.155,8.556-1.307,17.164-2.279,25.758-3.335,8.625-1.06,16.962-2.949,24.817-6.926,4.171-2.112,5.58-5.111,5.433-9.542-.275-8.248-2.553-15.688-7.77-22.191-4.962-6.187-10.522-7.484-17.475-3.12-9.652,6.059-17.675,14.113-25.714,22.112a61.652,61.652,0,0,1-7.452,6.507c-1.982,1.42-4.05,0-4.753-1.726s-.378-3.936-.379-5.932q-.02-88.972-.007-177.943c0-2,.079-4,.05-6-.068-4.721,2.094-7.477,6.911-7.829,1.991-.145,4-.125,6-.125q107.992,0,215.987.052a77.06,77.06,0,0,1,8.534,1.008c-3.105,9.319-5.846,18.146-9,26.822-2.425,6.67-.127,11.814,4.683,16.039,7.639,6.712,16.675,8.038,26.226,5.313,7.911-2.258,11.837-8.02,11.106-16.5-.452-5.255-1.968-10.411-2.868-15.636-.887-5.157-4.546-9.729-3.271-15.32,4.353-2.56,9.118-1.749,13.721-1.752q89.994-.072,179.989-.018a95.11,95.11,0,0,1,9.965.357,5.487,5.487,0,0,1,5.24,5.023c.384,3.967.333,7.984.333,11.979q.021,218.93.027,437.859c0,18.087.718,17.5-17.345,17.49q-88.995-.073-177.989-.02h-9.852c-1.18-4.937,2.806-5.683,4.813-7.75,3.4-3.5,3.53-5.729.106-7.43-5.957-2.958-11.991-5.759-17.973-8.668-7.575-3.684-10.463-10.164-9.647-18.076,1.412-13.7,5.316-26.043,19.054-32.9,6.394-3.192,12.677-4.334,19.137-1.356,9.03,4.161,17.582,9.04,19.216,20.311-1.134,1.43-2.2,3.916-4.369,2.2-4.628-3.655-8.836-7.834-13.379-11.6-3.376-2.8-7.356-3.286-11.059-.882C298.788,448.2,292.476,456.943,293,469.6c.182,4.347,1.73,7.781,5.643,9.726,16.719,8.306,34.223,13.992,52.97,15.258a3.737,3.737,0,0,0,3.589-5.488,81.565,81.565,0,0,0-5.65-10.413c-4.773-7.146-9.963-14.013-14.7-21.182C333.125,454.877,334.241,452.636,337.384,451.7Zm32.07-109.861a30.5,30.5,0,0,0-1.979-5.449c-5.519-10.581-11.715-20.71-20.021-29.425-7.361-7.722-15.785-17.564-26.283-14.627-10.56,2.956-11.931,16.429-15.288,26.266-2.138,6.266.574,11.2,6.88,14.8,16.459,9.41,34.785,11.983,53.2,14.007C367.659,347.6,369.826,346.534,369.454,341.841Zm42.7-181.581c4.79-.41,9.409-.521,13.5-3.306,4.129-2.809,7.184-6.451,6.62-11.441-1.882-16.636-6.33-32.51-15.82-46.6-2.484-3.688-6.926-3.483-9.8.4-8.006,10.806-13.235,22.96-16.532,35.89-2.983,11.7-.209,16.788,10.743,22.361A24.52,24.52,0,0,0,412.156,160.26ZM169.834,127.866c-.133-1.108-.032-5.886-1.361-10.227-3.878-12.672-10.42-24.176-17.169-35.49-1.627-2.726-4.645-1.935-6.422.566-8.126,11.431-12.588,24.6-17.275,37.6-3.31,9.178-1.031,14.67,6.828,20.418,8.8,6.437,18.082,7.389,27.946,3.022C167.7,141.4,170.639,137.417,169.834,127.866Zm1.941,351.725c11.122,1.527,22.054-1.363,32.963-3.865,12.474-2.862,15.075-7.113,14.022-19.514-.715-8.417-4.756-14.947-10.286-20.842-2.429-2.589-5.2-3.738-8.771-2.024-18.937,9.1-33.5,23.044-44.972,40.416a3.911,3.911,0,0,0,2.941,5.781C162.272,479.716,166.883,479.591,171.775,479.591ZM477.63,425.07c.661,0,1.322,0,1.983,0,9.737-.034,12.394-3.9,7.911-12.044-7.423-13.482-17.166-25.3-27.309-36.775-2.153-2.435-5.1-4.249-7.887-6.018-3.1-1.968-6.123-1.673-9.1.807a6.677,6.677,0,0,0-2.467,7.047c.6,2.543,2.16,4.843,3.012,7.347,1.556,4.575.083,8.178-4.121,9.189-3.844.925-7.914.878-11.8,1.682-4.007.831-5.792,6.116-3.244,9.54,1.533,2.06,3.276,4.384,5.477,5.46C445.106,418.648,460.58,424.629,477.63,425.07Zm19.615-149.7C487.706,253.351,484.433,249.686,470,234.3c-10.982-11.7-17.232-9.665-27.36,2.122-4.308,5.014-5.994,11.565-5.7,18.533.219,5.269,2.417,9.178,7.026,10.959C460.6,272.341,477.424,278.139,497.245,275.372ZM425.286,387.764c3.06-.28,6.217.7,7.413-2.248a6.834,6.834,0,0,0-.607-5.621c-10.838-15.11-21.889-30.082-36.07-42.337-3.152-2.724-6.882-4.022-10.942-1.583-3.272,1.966-4.2,5.076-3.479,8.537,1.406,6.711.79,11.746-7.536,13.083-3.407.547-5.67,3.519-5.338,7.335a8.271,8.271,0,0,0,5.758,7.369C391.278,378.531,407.949,385.169,425.286,387.764ZM365.505,105.859c-2.514-13.008-5.735-28.437-14.631-41.986-2.681-4.082-6.615-3.789-9.078.885a217.937,217.937,0,0,0-14.218,34.677c-2.628,8.106.624,12.421,5.71,17.158,3.578,3.332,8.043,4.686,12.468,5.684C355.8,124.543,365.478,117.552,365.505,105.859ZM55.2,149.524a12.912,12.912,0,0,0,1.644-.455c4.9-2.059,6.477-5.667,4.63-10.826-1.043-2.914-3.281-1.5-4.4-.529a10.506,10.506,0,0,0-3.683,8.6C53.449,147.412,54.568,148.456,55.2,149.524Z"/><path class="a" d="M278.2,274.116c-.944-5.5-7.057-4.447-8.51-9.292,2.465-.715,4.885-1.792,7.4-2.085,18.118-2.108,34.7-9.214,50.953-16.649,30.126-13.78,60.1-27.96,89.544-43.133,16.479-8.491,31.784-19.268,47.547-29.128,2.228-1.394,3.969-3.544,6.08-5.155,4.113-3.14,2.16-12.1,8.886-11.507,5.348.475,3.966,9.56,9.73,11.667,1.764.645,3.518,2.239,3.076,4.584-.719,3.813-3.894,2.456-6.209,2.559-3.359.15-6.559.5-9.5,2.4-44.83,28.9-94.579,48.252-141.616,72.871-13.5,7.066-26.9,14.387-40.723,20.757-15.644,7.207-21.821,20.481-24.369,36-1.926,11.726-2.467,23.675-3.8,35.506q-5.115,45.552-6.786,91.356c-.717,19.924-1.882,39.833-2.856,59.749a77.429,77.429,0,0,1-.644,9.895c-.619,3.437-3.6,3.154-6.233,2.935-2.182-.183-3.862-1.556-3.653-3.612,4.7-46.258,4.206-92.878,9.856-139.075,2.427-19.84,2.184-39.785.381-59.681-.469-5.168-.67-9.312,6.461-9.176,1.354.026,3.515-2.348,4.01-4C269.363,284.754,275.252,279.892,278.2,274.116Z"/><path class="a" d="M169.73,340.868c-7.111-.642-15.022-1.186-22.883-2.145-3.22-.393-5.322-4.79-3.716-7.628,3.246-5.739,6.034-12.033,10.447-16.759,11.734-12.571,23.642-25.1,36.584-36.388,13.6-11.856,22.148-13.144,34.958,6.516,3.226,4.952,5.1,10.762,8.077,15.9,3.575,6.183,3.607,12.788,2.44,19.292-1.192,6.645-3.625,12.3-12.187,13.35-9.8,1.208-19.352,4.381-29.134,5.921C186.5,340.16,178.494,340.224,169.73,340.868Zm7.234-9.893c9.688-1.45,21.531-2.188,32.863-6.167,10.861-3.814,12.659-6.349,11.4-16.94a38.343,38.343,0,0,0-7.414-18.041c-4.637-6.449-11.4-8.5-16.964-3.395-11.567,10.613-24.213,20.391-32.108,34.473-3.337,5.953-.954,9.79,6.217,10.063C172.271,331.017,173.592,330.975,176.964,330.975Z"/><path class="a" d="M244.735,188.461c-4.337-2.177-5.45,2.364-7.656,4.018-13.869,10.4-28.558,9.556-43.471,3.344-8.864-3.694-14.113-10.982-12.38-20.586,4.042-22.4,11.027-43.842,25.6-61.939,4.571-5.674,8.545-5.515,13.188-.33,12.911,14.417,18.987,31.621,21.111,50.614.942,8.421-.1,17.122,3.2,25.245Zm-33.406-4.126c4.844,0,6.834.137,8.8-.024,10.159-.834,14.105-5.382,12.84-15.539-1.9-15.242-7.31-29.325-15.19-42.448-2.412-4.017-6.78-3.8-9.571.37-7.836,11.7-11.68,25.038-14.945,38.468-2.035,8.373,2.894,15.843,11.161,18.253A30,30,0,0,0,211.329,184.335Z"/><path class="a" d="M244.329,188.827c1.966.211,3.335-.033,4.488-2.222,5.231-9.926,10.606-19.784,16.277-29.463a41.842,41.842,0,0,1,7.511-9.056c2.714-2.551,6.011-2.312,8.9.187a16.87,16.87,0,0,1,2.719,2.866c13.824,19.3,21.779,40.676,22.372,64.524.274,11.006-4.765,17.734-15.385,19.865a71.718,71.718,0,0,1-25.631.808c-15.621-2.542-23.6-13.606-21.362-29.567.734-5.232,2.1-10.375,2.859-15.6.115-.786-1.494-1.824-2.326-2.724C244.735,188.461,244.329,188.827,244.329,188.827Zm53.323,20c-2.093-12.685-4.75-26.309-11.043-38.854-2.308-4.6-4.51-10.875-10.486-10.6-4.721.217-6.255,6.163-8.5,10.061-5.945,10.348-10.932,21.12-13.664,32.821-1.458,6.248-.8,12.17,4.528,16.188,8.97,6.76,19.024,9.011,29.938,5.138C294.718,221.351,297.777,216.7,297.652,208.83Z"/><path class="b" d="M369.454,341.841c.372,4.693-1.8,5.76-3.49,5.574-18.416-2.024-36.742-4.6-53.2-14.007-6.306-3.606-9.018-8.536-6.88-14.8,3.357-9.837,4.728-23.31,15.288-26.266,10.5-2.937,18.922,6.905,26.283,14.627,8.306,8.715,14.5,18.844,20.021,29.425A30.5,30.5,0,0,1,369.454,341.841Z"/><path class="b" d="M337.384,451.7c-3.143.934-4.259,3.175-2.529,5.794,4.737,7.169,9.927,14.036,14.7,21.182a81.565,81.565,0,0,1,5.65,10.413,3.737,3.737,0,0,1-3.589,5.488c-18.747-1.266-36.251-6.952-52.97-15.258-3.913-1.945-5.461-5.379-5.643-9.726-.527-12.652,5.785-21.4,15.842-27.928,3.7-2.4,7.683-1.919,11.059.882,4.543,3.769,8.751,7.948,13.379,11.6,2.167,1.711,3.235-.775,4.369-2.2Z"/><path class="b" d="M412.156,160.26a24.52,24.52,0,0,1-11.288-2.693c-10.952-5.573-13.726-10.666-10.743-22.361,3.3-12.93,8.526-25.084,16.532-35.89,2.877-3.882,7.319-4.087,9.8-.4,9.49,14.086,13.938,29.96,15.82,46.6.564,4.99-2.491,8.632-6.62,11.441C421.565,159.739,416.946,159.85,412.156,160.26Z"/><path class="b" d="M169.834,127.866c.805,9.551-2.137,13.537-7.453,15.89-9.864,4.367-19.144,3.415-27.946-3.022-7.859-5.748-10.138-11.24-6.828-20.418,4.687-13,9.149-26.17,17.275-37.6,1.777-2.5,4.795-3.292,6.422-.566,6.749,11.314,13.291,22.818,17.169,35.49C169.8,121.98,169.7,126.758,169.834,127.866Z"/><path class="b" d="M171.775,479.591c-4.892,0-9.5.125-14.1-.048a3.911,3.911,0,0,1-2.941-5.781c11.474-17.372,26.035-31.32,44.972-40.416,3.567-1.714,6.342-.565,8.771,2.024,5.53,5.895,9.571,12.425,10.286,20.842,1.053,12.4-1.548,16.652-14.022,19.514C193.829,478.228,182.9,481.118,171.775,479.591Z"/><path class="b" d="M477.63,425.07c-17.05-.441-32.524-6.422-47.547-13.766-2.2-1.076-3.944-3.4-5.477-5.46-2.548-3.424-.763-8.709,3.244-9.54,3.883-.8,7.953-.757,11.8-1.682,4.2-1.011,5.677-4.614,4.121-9.189-.852-2.5-2.412-4.8-3.012-7.347a6.677,6.677,0,0,1,2.467-7.047c2.982-2.48,6-2.775,9.1-.807,2.79,1.769,5.734,3.583,7.887,6.018,10.143,11.471,19.886,23.293,27.309,36.775,4.483,8.143,1.826,12.01-7.911,12.044C478.952,425.072,478.291,425.07,477.63,425.07Z"/><path class="b" d="M497.245,275.372c-19.821,2.767-36.647-3.031-53.283-9.455-4.609-1.781-6.807-5.69-7.026-10.959-.29-6.968,1.4-13.519,5.7-18.533C452.768,224.638,459.018,222.6,470,234.3,484.433,249.686,487.706,253.351,497.245,275.372Z"/><path class="b" d="M425.286,387.764c-17.337-2.6-34.008-9.233-50.8-15.465a8.271,8.271,0,0,1-5.758-7.369c-.332-3.816,1.931-6.788,5.338-7.335,8.326-1.337,8.942-6.372,7.536-13.083-.725-3.461.207-6.571,3.479-8.537,4.06-2.439,7.79-1.141,10.942,1.583,14.181,12.255,25.232,27.227,36.07,42.337a6.834,6.834,0,0,1,.607,5.621C431.5,388.462,428.346,387.484,425.286,387.764Z"/><path class="b" d="M365.505,105.859c-.027,11.693-9.706,18.684-19.749,16.418-4.425-1-8.89-2.352-12.468-5.684-5.086-4.737-8.338-9.052-5.71-17.158A217.937,217.937,0,0,1,341.8,64.758c2.463-4.674,6.4-4.967,9.078-.885C359.77,77.422,362.991,92.851,365.505,105.859Z"/><path class="b" d="M55.2,149.524c-.633-1.068-1.752-2.112-1.807-3.209a10.506,10.506,0,0,1,3.683-8.6c1.118-.972,3.356-2.385,4.4.529,1.847,5.159.273,8.767-4.63,10.826A12.881,12.881,0,0,1,55.2,149.524Z"/><path class="b" d="M176.964,330.975c-3.372,0-4.693.042-6.011-.007-7.171-.273-9.554-4.11-6.217-10.063,7.9-14.082,20.541-23.86,32.108-34.473,5.563-5.1,12.327-3.054,16.964,3.395a38.343,38.343,0,0,1,7.414,18.041c1.264,10.591-.534,13.126-11.4,16.94C198.5,328.787,186.652,329.525,176.964,330.975Z"/><path class="b" d="M211.329,184.335a30,30,0,0,1-6.905-.92c-8.267-2.41-13.2-9.88-11.161-18.253,3.265-13.43,7.109-26.771,14.945-38.468,2.791-4.168,7.159-4.387,9.571-.37,7.88,13.123,13.292,27.206,15.19,42.448,1.265,10.157-2.681,14.705-12.84,15.539C218.163,184.472,216.173,184.335,211.329,184.335Z"/><path class="b" d="M297.652,208.83c.125,7.873-2.934,12.521-9.222,14.754-10.914,3.873-20.968,1.622-29.938-5.138-5.331-4.018-5.986-9.94-4.528-16.188,2.732-11.7,7.719-22.473,13.664-32.821,2.24-3.9,3.774-9.844,8.5-10.061,5.976-.275,8.178,6,10.486,10.6C292.9,182.521,295.559,196.145,297.652,208.83Z"/></svg>