<svg xmlns="http://www.w3.org/2000/svg" viewBox="0 0 543.348 543.348"><defs><style>.a{fill:#df271f;}.b{fill:#fcfcfb;}.c{fill:#dfcf06;}</style></defs><path class="a" d="M101.928,406.056c-4.224-.506-5,3.072-6.9,5.558-4.817,6.3-7.464,5.942-13.747-1.441,1.669-2.541,8.506.924,6.641-5.7,6.167-4.56,12.347-9.1,18.47-13.721.4-.3.673-1.559.472-1.723-.927-.762-2.2-1.987-3.064-1.794-4.642,1.032-8.035,3.653-10.948,7.678-2.674,3.695-7.046,2.509-10.85.886-.645-1.1-1.027-2.592-1.98-3.231-5.377-3.6-11.578-1.4-17.234-1.462-7.336-.081-11.052-6.541-17.439-7.527-2.634-.407.377-.613-1.407,1.343-.71.777-1.162,2.756-.677,3.453,1.019,1.462,2.586,3.162,4.192,3.494,10.715,2.224,21.5,4.114,32.26,6.111,4.094.225,5.863,3.585,8.245,6.117l-7,5.851c-2.049,2.728-4.4,1.6-6.868.672-6.126-2.3-10.639-8.042-18.448-8.35-.814,11.81-9.2,20.8-11.758,32.279-2.419,10.849.449,15.408,10.932,13.545,3.207-.57,6.26-2.011,9.55-3.108-.555-1.3-.875-2.266-1.359-3.143-2.026-3.671-11.032-1.841-8.146-8.524,1.743-4.036,7.184-.535,10.958-.643,5.6-.162,8.741,1.607,7.78,7.956-.08.533,3.031,2.218,4.677,2.244,23.673.367,47.337,1.036,71.028.083,7.528-.3,10.25-7.676,16.7-8.874l-.307-.428c.576,2.256.65,6.122,1.817,6.485,4.688,1.461,9.458,7.33,14.239,3.233,5.789-4.962,11.526.07,17.355-1.829,1.173-4.132-3.9-3.85-4.822-6.53-1.688-4.89,2.292-9.732,8.97-9.723,2.9,0,7.561.452,5.046,5.565-1.73,3.52-.871,6.138.821,9.151,1.22,2.171,1.293,5.356,4.65,5.382,3.24.024,6.608.036,6.6-4.911-.008-3.415,2.614-3.967,5.488-3.567,8.552,1.191,17.154,2.113,25.637,3.676,5.311.978,10.329,2.207,15.427-.812,1.622-.961,4.085-1.792,5.7-1.268,18.624,6.028,36.267-1.047,54.239-3.694.553-.082,1.2.506,2.063.9-.6,1.784-1.279,3.575-1.8,5.411-.591,2.095-.061,3.971,2.307,4.17,1.9.16,4.974.177,5.6-.879,1.952-3.313,3.753-6.966,3.147-11.128-.4-2.714-4.222-6.153,1.628-7.525,4.033-.945,8.144-1.383,10.8,2.5a18.219,18.219,0,0,1,2.565,7.271c.531,3.323,2.254,4.479,5.3,3.948,2.611-.455,5.219-1.113,4.313-4.821-.649-2.654-1.094-6.07,1.3-7.262,2.778-1.385,6.4-1.447,9.648-1.436,4.895.018,6.126,7.152,11.626,6.409a13.47,13.47,0,0,1-1.841,3.062c-4.012,3.849-9-.576-13.308,1.456-2.511,1.184-4.42,2.528-4.45,5.706-.024,2.659,2.006,3.017,3.648,3.9,5.781,3.113,11.594,1.848,17.431.158,12.822-3.711,25.728-6.663,39.24-4.553,4.237.662,7.387-1.658,10.961-3.635,8.753-4.842,17.523-7.554,27.6-1.443,5.211,3.16,12.359,3.2,18.684,4.365.825.152,2.417-1.183,2.818-2.169a3.645,3.645,0,0,0-.687-3.369,16.477,16.477,0,0,0-5.268-2.558c-2.683-.831-5.645-2.154-4.679-5.057.675-2.029,3.608-3.679,5.89-4.7a18.055,18.055,0,0,1,7.733-1.54c4.624.158,9.226.969,14.46,1.58,2.965-1.551,2.12-5.08,2.445-8.167.338-3.215-.6-6.679,1.9-9.582,4.466,8.131-.638,16.264.287,24.462,1.293,11.456,1.17,23.089,1.349,34.65q.277,17.97-.066,35.949c-.125,7.077-1.46,8.4-7.919,8.72-4.651.226-9.321.1-13.982.1q-213.766.006-427.534-.03c-25.108-.012-22.4,2.839-22.443-22.225q-.15-92.863-.033-185.726V282.692c9.329-3.4,16.168,4.2,24.624,1.4,3.172-1.052,1.606,6.849,4.1,9.882,2.023,2.455-.051,4.021-1.687,4.333-4.25.811-7.042,3.433-9.823,6.328-1.809,1.884-4.656,3.6-3.348,6.535,1.737,3.9,5.566,1.954,8.6,2.135a6.491,6.491,0,0,1,1.846.742c1.62,12.424,1.621,12.455,12.173,12.378,3.962-.028,7.934-.1,11.883-.4,4.7-.357,6.8-3.067,6.478-7.922-.42-6.287-2.8-8.931-7.9-8.669a63.986,63.986,0,0,0-23.058,5.094c-.452-3.065.952-5.393,3.712-6.092,4.456-1.128,9.144-1.342,13.6-2.468,3.43-.865,3.145-3.623,1.979-6.3-.737-1.691-4.6-3.412.854-4.542,10.4-2.154,13.63-6.955,11.854-15.987-.849-4.321-5.074-8.675-9.435-8.984-4.631-.328-9.874-1.424-13.842.23-8.144,3.4-14.378.354-19.164-4.886-3.407-3.732-5.641-4.3-9.811-2.333-2.23,1.051-3.359-1.015-3.444-3.092-.166-3.993-.192-7.992-.193-11.989q-.014-95.948.014-191.894a107.652,107.652,0,0,1,.567-13.948c.193-1.465,2.295-3.648,3.715-3.808a142.978,142.978,0,0,1,15.95-.616q145.959-.041,291.917-.02,69.979,0,139.959,0c4,0,8.006-.1,11.994.112,6.482.347,7.5,1.557,7.844,8.747.1,1.995.054,4,.055,5.995q.007,150.918-.11,301.834c-.009,5.547,2.335,11.912-3.767,16.572-1.057.807,0,4.832.6,7.242.784,3.16,2.5,6.121,3.047,9.3.6,3.475-.551,7.158-4.383,7.854-12.141,2.2-21.692,9.739-32.363,14.958a87.83,87.83,0,0,1-9.124,3.9c-7.262,2.581-7.281,2.506-13.556-5.6-1.806-2.332-4.151-3.837-5.951-.492-1.592,2.957-2.614,5.844-6.416,6.746-14.25,3.382-28.452,6.967-42.691,10.395a13.176,13.176,0,0,1-3.929-.018c-3.9-.283-6.394-5.686-4.317-9.024,1.942-3.122,7.912-3.222,6.329-9.8-6.047-1.361-12.439-.158-18.8.513-5.775.609-12.36,2.969-12.823-6.624-7.155-2.139-14.1-8.315-21.82-3.871-15.494,8.914-32.021,10.029-49.21,8.765a22.234,22.234,0,0,0-16.567,5.624c-5.241,4.471-10.8,3.954-15.82-.9l-.4.4c4.634-1.277,10.892,2.226,13.642-4.55.9-2.223,3.179-4.547.687-6.938-1.306-1.254-3.282-2.781-4.821-2.647-5.805.507-11.558,1.62-17.318,2.587a1.915,1.915,0,0,0-1.283,1.167c-3.449,16.9-16.5,6.62-25.129,8.738-.3.072-1.121-2.008-1.7-3.083,6.089.3,12.3,2.293,20.438-2.116-8.5-1.225-14.748-4.064-20.075,2.542-11.755,2.326-23.445,3.421-34.8-1.84-.6-.278-1.163-.639-1.773-.889-.544-.224-1.471-.66-1.646-.469-8.992,9.84-20.351-.322-29.955,3.656-.8.33-1.711,2.66-1.415,2.975a55.292,55.292,0,0,0,5.891,5.114c2.158,1.723,4.145,3.9,2.223,6.464-1.453,1.937-4.011,3.185-6.294,4.294-1.029.5-2.632.1-3.9-.212-13.491-3.288-26.906-6.925-40.476-9.836-5.789-1.242-6.214-5.881-8.206-9.719,4.625.528,9.331,1.337,12.34-3.623,3.252.251,6.616,1.151,9.734.617,6.268-1.073,7.912-4.595,3.825-9.513-3.113-3.748-4.305-6.075-.114-9.37a8.385,8.385,0,0,0,2.223-3.252c2.179-5.039-.249-9.343-5.549-10.352-5.013-.953-10.391,1.21-15.185-1.737a18.18,18.18,0,0,1,.976-1.843c5.24-7.642,4.361-11.365-3.382-11.772-10.6-.558-21.245-.288-31.871-.248-1.24,0-3.019.441-3.6,1.31a11.425,11.425,0,0,0-1.7,5.318c-.071.956,1.232,2.926,1.806,2.885,14.6-1.031,24.3,9.341,35.83,15.327,6.649,3.453,9.3,8.947,6.453,16.535-.617,1.645.133,3.8.262,5.734C109.228,401.68,104.787,401.734,101.928,406.056Zm360.307-7.6c-2.838-1.163-6.889.723-8.652-2.925-2.155-4.456-5.717-6.916-10.181-8.423-1.955-.661-3.939-.459-4.835,1.447a3.728,3.728,0,0,0,1.118,3.407c4.15,2.894,8.933,4.511,12.671,8.508,2.184,2.336,7.359,2.547,9.494-2.432,3.655-.467,7.341-.786,10.941-1.524.727-.15,1.776-2.124,1.517-2.833-.325-.889-1.772-1.694-2.864-1.921C466.013,390.63,463.146,393.256,462.235,398.459ZM134,317.825c5.822,5.939,13.313,4.4,20.4,4.473,10.473.1,14.111-2.912,15.05-12.963.757-8.095-1.655-15.487-6.24-22.176.233-.418.766-1.057.648-1.217a17.533,17.533,0,0,0-1.912-1.975c2.668-2.341,3.392-5.492,3.778-8.829.754-6.513.822-13.034,3.073-19.443,2.029-5.776.7-7.8-5.587-10.547-6.593-2.879-13.443-5.2-20.273-7.492-3.583-1.2-7.61-1.387-9.42-5.3,2.909-3.637,5.749-7.187,8.588-10.738a8.8,8.8,0,0,0,3.731,10.477,117.617,117.617,0,0,0,15.832,8.079c7.094,3.155,8.756,2.7,13.352-3.287,3.63-4.726,6.976-9.669,10.511-14.469a1.691,1.691,0,0,1,1.557-.461c1.029.561,2.574,1.249,2.745,2.118a41.922,41.922,0,0,1,1.032,9.811,25.349,25.349,0,0,1-1.927,9.529c-1.649,3.5-5.645,2.739-8.853,3.044-3.73.356-6.393,1.852-6.192,6.013.2,4.119,3.156,5.37,6.723,5.721a10.507,10.507,0,0,1,1.984.145c6.873,2.091,8.789,4.554,8.324,11.134-.185,2.625-.3,5.476-1.388,7.776-3.713,7.834.678,12.371,5.939,16.826,9.8-8.5,9.779-8.493,8.112-20.913a32.326,32.326,0,0,1-.266-5.939,7.665,7.665,0,0,1,5.541-7.43,32.768,32.768,0,0,1,7.808-1.352c6.932-.417,11.721,3.735,11.776,10.325a21.7,21.7,0,0,1-1.235,7.8c-3.533,9.192.591,14.941,8.446,19.707,4.461-5.474,10.054-9.927,6.235-18.591-1.449-3.289-.44-7.834,0-11.743.628-5.547,3.367-7.689,9.428-8.117,1.324-.094,2.657-.063,3.986-.074,10.275-.081,14.466.874,13.253,14.033a19.163,19.163,0,0,1-2.227,7.548c-3.569,6.252.415,9.795,4.193,13.674,1.81,1.859,3.71,1.325,5.117.179,4.328-3.525,7.634-7.545,4.122-13.6a9.281,9.281,0,0,1-1.13-3.78c-1.569-18.819.433-18.493,18.494-17.887a6.756,6.756,0,0,1,6.821,6.024c.731,4.523,2.134,9.837.519,13.657-3.815,9.016.983,13.662,6.887,18.524,6.278-5.139,11.834-10.416,7.724-19.6a11.534,11.534,0,0,1-.549-3.933c-.7-11.893,3.787-15.881,15.4-13.724,7.469,1.387,9.839,4.588,8.961,12.677-.281,2.593-1.424,5.081-1.873,7.669-.8,4.61,3.62,12.408,8.195,14.291.951.391,3.137.008,3.45-.645,1.915-3.981,8.128-7.486,5.076-11.962-5.038-7.389-1.346-15.43-3.692-22.782l-.188.218c5.184,1.894,10.153-.314,15.13-1.1,1.328-.209,2.937-2.7,3.253-4.363.521-2.747-.947-5.04-3.824-5.923-1.239-.381-2.61-.312-3.883-.61-8.4-1.963-8.934-3-10.137-9.446-.944-5.06,1.932-10.448-1.759-15.3-1.06-1.394-.357-2.706,2.319-3.378,6.81-1.708,11.161-9.4,19.313-8.336-3.118,3.294-6.385,6.465-9.281,9.944-1.141,1.37-2.553,4.109-1.963,5.06,3.435,5.538,6.791,11.426,11.508,15.738,2.3,2.1,7.487,1.033,11.368,1.4-4.478,3.708-9.706,6.721-8.074,14.218,1.267,5.817,1.205,11.913,2.271,17.787,2.127,11.723,5.432,13.558,17.912,10.6.637-.152,1.2-.65,1.835-.77,6.2-1.17,11.937-1.859,13.674,6.708.815,4.014,4.714,4.074,8.082,3.707,3.1-.338,4.2-2.613,4.7-5.429.357-2.006-1.475-5.238,3.087-5.654.862,1.746,1.8,3.352,2.471,5.062,2.029,5.167,5.863,6.9,11.1,5.973,5.149-.91,7.654-3.774,7.806-9.842.181-7.187.836-14.51-2.009-21-6.5-2.077-13.268,1.3-18.026-.911-6.234-2.9-1.438-10.826-3.15-16.225-.987-3.112-3.016-5.884-4.2-8.954-.25-.649.928-2.379,1.826-2.8,1-.465,2.868-.481,3.576.166a12.426,12.426,0,0,1,3.239,4.767,12.855,12.855,0,0,0,10.406,8.795,35.545,35.545,0,0,1-6.448.5c-2.48.075-5.4-.8-6.115,3.038-.623,3.366,1.665,6.075,5.859,6.1,8.643.044,17.29-.1,25.931-.329,3.029-.079,4.91-1.886,4.8-5-.091-2.61-.332-5.416-3.863-5.911-.02,0-5.632-8.961-5.646-8.985-3.253-5.534.21-12.533-2.647-17.424-4.426-7.577,3.119-11.161,3.7-16.807a50.206,50.206,0,0,0-.067-7.945c-.169-3.007-1.911-5.088-4.856-5.147-9.3-.19-18.619-.333-27.912.007-10.915.4-11.008.62-11.816,11.014-.451,5.807,1.232,12.476-7.468,14.026-.68.121-1.7,3.92-1.012,5.127,2.4,4.208,5.481,8.029,8.484,12.251-8.421,5.8-18.267,7.392-27.87,9.637,1.809-4.981,7.121-5.244,10.734-7.731,7.862-5.414,9.384-10.244,3.15-17.111-3.287-3.62-5.77-6.923-5.611-11.848,2.938,2.847,6.212,4.6,10.549,4.1,2.842-.33,5.278-1.137,5.6-4.185a57.177,57.177,0,0,0-.04-9.817c-.255-3.848-2.7-5.463-6.376-6-9.1-1.32-11.543.874-11.025,10.649.1,1.909,1.063,3.772,1.629,5.657-5.508-1.9-10.985.075-16.477.134,2.307-5.643,10.438-7.14,10.8-13.56.265-4.707.218-6.429,5.9-6.18,9.2.4,18.458-.842,27.7-1.207,6.348-.25,13.579,3.8,18.686-2.419,4.563-5.558.348-12.987,2.573-19.273a5.71,5.71,0,0,0,.1-1.979c-.239-10.089-2.293-12.445-13.249-11.524-14.956,1.258-30.337-3.465-44.913,3.115a2.5,2.5,0,0,1-1.78-.262c-14.36-6.747-30.04-1.75-44.816-4.957a3.648,3.648,0,0,0-4.171,3.077c-.327,1.606-.02,2.585,1.395,3.294,6.933,3.474,12.761,8.7,21.607,8.667,6.976-.025,13.946,3.1,16.215,11.342l.331-.411a66.925,66.925,0,0,1-7.3-2.516c-8.435-4-8.37-4.02-15,2.119-1.86,1.721-3.985,3.156-5.989,4.722.67-5.183,1.654-9.794-4.415-13.527a161.66,161.66,0,0,0-24.267-12.679c-8.493-3.42-12.022-1.9-14.057,6.28-1.353,5.436.776,12.069-5.242,15.982-1.774-7.263-.117-14.484.317-21.712.379-6.325,1.2-7.045,6.461-6.462,16.141,1.787,16.14,1.787,17.663-15.37.059-.659-.075-1.672.281-1.9a8.319,8.319,0,0,1,3.2-1.213c.414-.062,1.072.735,1.443,1.263,1.833,2.611-.168,4.9-.659,7.328-.4,2-.206,4.066,1.813,5.023,3.671,1.742,7.692,2.628,11.427.627s3.475-5.419,1.06-8.238c-2.678-3.127.449-4.709,1.41-6.668,2.289-4.661,1.425-8.971-.566-13.326,12.149,4.662,24.306,7.6,36.506.154,1.311,6.727.738,8.192-3.433,8.276-7.982.16-15.975.068-23.945.456a6.822,6.822,0,0,0-4.83,2.789c-3.692,6.295-.36,15.253,5.963,18.321,5.014,2.433,10.069,2.778,15.5,2.657,16.527-.37,33.062-.33,49.593-.524a13.834,13.834,0,0,0,5.826-.9c1.583-.786,3.391-2.458,3.759-4.05.642-2.781-1.18-5.785-3.7-6.12-5.218-.692-10.582-.363-15.884-.307-1.977.02-4.858.2-5-1.7-.719-10-10.371-8.444-15.1-12.8-2.956-2.725-4.86-5.562-9.129-5.644.48-5.039-3.657-8.8-6.643-6.948-8.372,5.2-14.9-.385-22.156-1.684-2.48-.443-5.044-1.188-7.471-.915-2,.226-3.041,2.07-1.891,4.328.843,1.655,1.616,3.345,2.42,5.02-4.768-.041-9.32-.18-11.11-6.06-.488-1.6-2.553-3.914-3.848-3.885-7.042.158-14.774-1.12-20.1,5.051-1.725,2-2.589,4.473-5.721,4.508-5.322.06-10.265,1.518-15.421,2.918-13.033,3.538-26,.094-38.9-2.653-4.206-.895-6.163-3.272-9.1-5.9-5.437-4.875-13.446-4.99-20.478-3.27-2.2.537-3.027,5.454-5.188,7.684-1.939,2-6.4,1.4-6.138-.881.795-6.9-1.23-8.666-7.525-6.333-7.926,2.938-15.807,6.4-24.365,2a2.191,2.191,0,0,0-1.868.5,7.875,7.875,0,0,0-2.446,2.9,3.775,3.775,0,0,0,.57,3.276c2.378,2.291,4.947,4.468,8.636,4.234,6.6-.419,13.316.59,19.728-1.921,3.137-1.229,2.943,1.5,2.951,3.095,0,.926-1.247,2.65-1.96,2.664-5.949.119-11.974.447-17.84-.325-5.811-.764-13.737,4.509-17-5.117-.026-.078-2.663.282-2.777.752-.716,2.963-2.456,4.711-5.409,4.753-7.327.105-10.867,3.411-10.684,10.986.057,2.38-.978,4.852-4.808,2.654-5.479-3.144-11.706-2.359-17.461-.9-1.856.471-3.511,3.726-4.153,6.017-.258.922,2.218,3.391,3.851,3.924,6.475,2.112,13,1.021,19.556-.226,1.365-.259,3.165,1.766,4.765,2.739-1.043.781-2.069,2.213-3.131,2.241-9.947.252-19.927.732-29.843.175-6.181-.348-10.271.942-12.208,7.162-.576,1.851-1.963,1.768-2.956.037a4.845,4.845,0,0,1-.584-1.765,6.522,6.522,0,0,1,3.112-6.824c2.186-1.2,4.9-1.541,7.435-1.984,3.2-.561,4.386-2.619,4.461-5.512.09-3.429-.509-6.637-3.934-8.468-3-1.6-5.271.378-6.925,2.136-4.538,4.823-8.308,10.419-13.137,14.9-2.564,2.377-6.582,3.754-10.147,4.335-4.139.675-4.611-3.56-6.315-6.3-2.818-4.523-10.187-4.361-10.511.223-.367,5.193-1.672,6.769-6.167,7.24-4.562.479-7.314,2.788-7.123,7.709.128,3.317.35,6.632.455,9.95.094,2.992-2.725,6.288,1.276,9.264,7.366,2.546,15.377,1.538,23.279,1.467,7.155-.064,13.745,4.564,21.429,1.337,7.656-3.215,14.465,3.651,22.689,3.1,13-.876,26.155-.892,39.242-1.377l-.353-.33c-.506,1.082-.916,3.034-1.535,3.1-3.82.425-7.687.493-11.54.549-4.7.067-6.678,2.321-7.089,7.052-1.2,13.849.452,15.069,14.775,10.093a10.415,10.415,0,0,1,1.911-.294l-.373-.361c-.775,7.8-6.824,11.6-12.129,15.975,0-2.49,1.476-6.139-1.846-6.827-6.988-1.447-7.186-5.854-7.274-11.648-.213-14.015-.51-14.342-14.269-14.568-9.177-.151-18.372.808-27.8,1.283-.714,7.438-3.3,13.888,1.853,19.719,1.194,1.353,2.8,2.656.187,4.322-1.419.906-6.6-.5-6.867-2.25a57.211,57.211,0,0,1-.593-7.773c-.2-15.282-.264-15.363-15.717-15.333-2,0-4-.041-5.993.044-7.915.336-9.128,1.764-8.951,9.381.095,4.043.193,7.827,3.006,11.225,3.456,4.175.9,8.922.015,13.151-.785,3.767-5.331,3.141-8.3,4.255-4.164,1.565-6.575,4.1-6.121,8.926.379,4.018,2.666,5.8,6.31,6.272,3.97.511,5.619,2.527,5.254,6.612a114.62,114.62,0,0,0-.268,11.959c.065,4.14,2.514,5.736,6.452,5.545,2.654-.13,5.329.008,7.964-.264,2.879-.3,4.9-1.762,5.117-4.956.089-1.327.52-2.723.248-3.968-1.916-8.767-2.007-16.1,10.239-15.868,2.276.044,2.718-2.577,2.725-4.533.009-2.716-.733-5.159-3.62-6.336-2.606-1.061-6.457.753-7.828-3.31a13.01,13.01,0,0,1,11.441-1.86c4.807,1.738,1.787,6.885,1.588,10.478-.259,4.676,3,7.133,5.222,10.307-3.928-.02-8.089-.674-11.463,1.729a6.911,6.911,0,0,0-2.347,5.046c.015,1.674.765,4.1,3.352,4.177,9.247.268,18.5.563,27.745.572,2.22,0,3.281-2.229,3.155-4.207-.119-1.869-.906-4.213-3.38-3.989-6.128.555-11-4.879-17.253-3.391,5.73,5.012,11.209,1.108,16.664-.629a4.8,4.8,0,0,0,2.4-3c2.211-7.687,3.643-15.527,2.18-23.516-.511-2.789-2.928-4.145-5.76-4.646a24.085,24.085,0,0,1-3.737-1.288c.928-.783,1.82-2.179,2.792-2.236,3.28-.2,7.354-1.093,9.714.443,4.016,2.615-1.7,5.153-1.494,8.109.266,3.913.3,7.847.7,11.745.361,3.53,6.623,2.16,5.881,6.053-.6,3.127-3.283,5.8-4.267,8.918-2.847,9.025-1.08,18.271-.479,27.408.1,1.511,2.016,3.323,3.546,4.236,4.212,2.514,2.35,4.608.627,7.834-3.592,6.716-1.813,8.852,6.3,8.537a17.629,17.629,0,0,0,3.83-1.015l-.186-.081c2.862,3.7,1.637,7.569.494,11.438l-1.152-.128-.141,1.151c-1.142-3.878-2.163-7.851-7.439-7.826-6.66.032-13.327-.154-19.979.089-6.014.221-7.478,2.139-7.589,8.925-.032,2,.024,4,.09,6,.373,11.267.709,11.581,12.871,12.361,3.889.25,8.066-.842,11.321,2.4-4.984,9.142-4.047,19.028-3.376,28.8.376,5.485,3.409,9.09,8.483,9.279,11.293.421,22.616.3,33.92.073,3.629-.074,5.977-2.693,6.968-6.152,1.089-3.8,2.5-7.641,2.741-11.527.277-4.53,2.236-7.14,5.9-9.536,2.424-1.583,2.526-4.5-.673-6.1-8.948-4.475-18.214-7.546-28.465-6.175-5.273.705-10.615,1.877-15.849,1.562-3.79-.228-2.754-3.263-.935-5.565.821-1.039,1.49-2.2,2.23-3.2l1.347.707Zm298.582,85.692c2.219.826,4.422,1.7,6.675,2.42.327.1.947-.487,1.34-.854.964-.9.629-1.817-1.035-2.306-1.726-.507-3.523-.771-5.289-1.141a94.865,94.865,0,0,0-.27-9.96c-.89-6.986,2.749-10.317,8.235-14.195,13.66-9.66,27.97-14.816,44.771-11.84,3.252.576,6.631.432,9.951.626,6.875.4,9.235-2.369,7.5-9.13-.806-3.143-2.442-6.1-3.02-9.27-3.043-16.676-3.025-16.341-20.608-17.528a42.478,42.478,0,0,0-7.945.661c-5.751.711-7.451,3.157-6.876,9.709.555,6.318,2.11,8.075,8.328,8.851,2.62.327,5.332-.016,7.922.422.842.143,2.23,2.262,1.988,2.684-.953,1.66-2.511,4.265-3.746,4.213-2.963-.126-5.871-2.33-8.8-2.326-13.214.014-26.621-2.465-39.574,2.419-.368.138-1.961-1.627-2.117-2.638-.168-1.088.618-3.329,1.1-3.361,7.265-.49,14.549-.729,21.83-.963,7.39-.238,8.961-1.818,9.25-9.5.128-3.381.232-7.275-3.138-8.828-7.594-3.5-15.8-1.74-23.519-.61-4.6.675-4.842,7.231-7.9,10.547-1.227-11.561-1.232-11.528-11.437-13.062-4.6-.693-9.167-1.671-13.778-2.3-10-1.36-19.549-.394-28.615,4.726-5.226,2.952-6.593,5.394-1.98,7.918,7.213,3.946,6.011,9.207,4.893,15.107-12.862-.544-20.857.992-28.186,5.682-.428.273-.023,2.139.3,3.169a2.028,2.028,0,0,0,1.55,1.125c1.275-.039,2.931,0,3.741-.745,4.1-3.768,9.337-4.436,14.234-6.314,8.145-3.123,9.784,3.371,13.688,6.907a6.077,6.077,0,0,0,3.6,1.535c13.187.295,26.451,2.412,39.486-1.5,6.4-1.92,6.415-1.87,11.779,5.316-1.3.21-2.6.529-3.907.613-15.54,1.008-15.541,1-12.933,16.992.091.562.4,1.554.268,1.615-1.14.527-2.6,1.522-3.505,1.175-2.463-.947-1.107,2.324-2.008-.184a16.3,16.3,0,0,1-1.047-3.75c-1.558-15.112-1.54-15.162-15.654-15.454-4.643-.1-9.309-.084-13.934.276-3.731.29-6.153,2.606-6.232,6.452-.087,4.248-1.812,5.113-6.025,5.158-10.577.115-13.111,1.98-13.107,7.638,0,3.632,7.9,6.672,14.5,6.711,4.255.024,3.769-8.13,7.807-4.768,4.074,3.393,7.25,2.008,10.869.8,5.221-1.742,10.5-1.409,16.386-1.013l-5.062,13.585C412.932,402.63,422.779,404.091,432.579,403.517Zm41.853-94.548c2.256-3.036,10.164-2.91,5.246-9.854-1.055-1.489-.86-3.238.512-5.287,3.455-5.164,2.463-11.443,2.718-17.264a5.761,5.761,0,0,0-6.049-6.34c-5.281-.065-10.643-.577-15.817.167-3.922.564-7.429,3.115-7.824,7.759a69.35,69.35,0,0,0,.016,9.9c.218,3.708,2.318,5.773,5.954,6.856,2.186.652,6.824-1.208,6.244,1.981-1.011,5.556-4.945.509-7.53.567-11.2.252-22.419-.089-33.627.071-8.282.118-10.063,2.144-10.544,10.855a58.947,58.947,0,0,0-.129,5.957c.307,6.66,3.009,10.057,9.53,10.406,7.252.388,14.557.011,21.828-.3a5.572,5.572,0,0,0,5.5-4.774,46.267,46.267,0,0,0,.309-5.929c.077-1.486-.3-3.281,2.317-3.483,0,2.107-.129,4.076.022,6.022.707,9.091,1.03,9.789,8.621,9.872,11.087.122,22.191-.121,33.266-.652,3.489-.167,3.421-3.357,2.572-5.983-1.07-3.313-2.952-6.164-7.011-5.189C483.955,315.918,479.44,311.878,474.432,308.969Zm22.052-143.653a18.22,18.22,0,0,0-.977-6.633c-1.748-4.32-6.983-2.984-10.2-4.981-3.195-1.981.387-7.871-4.821-9.293-2.012-.55-3.885-1.031-5.509.438-1.446,1.306-3.078,2.73-3.8,4.449-1.52,3.612-3.361,5.451-7.24,3.069-3.177-1.951-8.692,2.976-10.362-4.868-1.342-6.3-7.346-10.779-12.563-14.919-2.42-1.921-6.716.128-7.67,3.513-1.539,5.458-.439,8.8,5.02,10.165,4.538,1.134,7,2.909,7.471,7.544.526,5.182,1.725,10.339,1.771,15.515.043,4.934,1.981,8.967,4.3,12.932,1.318,2.25,3.139,4.388,6.34,3.47,9.657-2.77,19.64-1.861,29.468-2.706,5.877-.506,8.189-2.968,8.742-8.718C496.643,172.326,496.484,170.327,496.484,165.316ZM480.17,223.76c-6.035,5.612-10.668,5.925-15.275,6.492-3.918.483-5.639,3.145-5.343,6.861.235,2.964,2.375,4.324,5.2,5.033,11.21,2.818,22.351.136,33.508-.356,3.061-.135,4.977-6.154,3.522-9.824-3.066-7.74-17.691-3.938-16.356-16.567.2-1.933-4.322-2.242-6.964-2.3-1.32-.029-2.662.256-3.961.107-1.882-.217-3.733-.7-5.6-1.066,2.614-1.383,5.174-1.174,7.689-1.424,6.566-.651,13.134-1.357,19.655-2.343,2.912-.44,5.653-5.643,4.469-7.719-5.7-9.993-19.764-15.367-34.9-11.017-8.386,2.41-3.478,11.274-4.256,17.3-.251,1.951.284,4.49-.76,5.759-2.877,3.5-4.08,6.718-.682,10.358,3.22,3.45,7.278,2.206,11.171,1.72C473.16,224.541,475.035,224.345,480.17,223.76Zm-365.6,126.394c0-3.2.094-3.874-.014-4.518C111.932,330,111.786,328.773,97.8,330.4c-11.108,1.294-21.9.36-32.851.251a54.032,54.032,0,0,0-11.8,1.241c-4.745,1.021-7.969,8.945-6.429,14.869.711,2.736,6.511,6.6,9.666,5.148,5.766-2.658,11.675-1.766,17.5-2.562,3.018-.413,5.653-3.187,8.7-3.952,3.582-.9,2.849,5.2,7.178,4.906C97.6,349.776,105.5,350.154,114.568,350.154ZM410.43,304.981c-.152-19.292.093-16.767-17.433-16.083-2.635.1-5.3-.067-7.9.25-3.5.425-6.223,2-6.589,6-.36,3.934-1.167,7.887-1.006,11.8.64,15.555,1.961,15.66,15.848,15.52C411.229,322.289,410.988,322.087,410.43,304.981ZM133.518,388.605c-.04.722-.337,3.373-.307,6.02.077,6.924,4.188,9.743,10.238,6.312,5.14-2.914,9.4-7.025,16.137-6.163,4.865.624,7.108-2.506,6.866-7.321-.167-3.314-.636-6.639-.482-9.937.232-4.958-2-7.517-6.8-7.54-6.635-.033-13.275.18-19.909.421-3.972.144-6.012,2.8-6.324,6.355C132.646,380.02,133.215,383.363,133.518,388.605ZM114.68,277.227l-.664-.019c0-3.311.331-6.67-.136-9.914-.241-1.668-1.555-3.915-2.985-4.552-6.789-3.022-13.729,1.023-13.976,7.992a159.164,159.164,0,0,0,.123,15.919c.348,5.341,3.923,8.038,9.425,7.791,4.71-.211,7.246-2.737,7.677-7.321C114.454,283.837,114.511,280.526,114.68,277.227Zm82,85.655c0-.633.209-1.719-.031-1.83-5-2.3-7.344-6.976-10.507-11.026-1.523-1.952-4.625-2.09-7.235-.7-3.23,1.725-5.2,4.093-3.134,7.737,1.775,3.129,2.99,5.968-1.348,7.688-1.985.788-3.872,2.009-3.329,3.841a23.292,23.292,0,0,0,4.344,8.409c1.9,2.22,9.36-.039,9.567-3.558.39-6.649,2.336-9.511,9.155-8.371C194.858,365.193,195.831,363.658,196.679,362.882Zm285.387-96.641c7.919-.036,10.29-1.951,10.289-8.311,0-7.828-2.128-10.606-8.129-10.617-9.434-.019-12.781,2.828-12.757,10.848C471.488,264.25,474.146,266.278,482.066,266.241Zm-302.925,129c2.384-.155,4.96.965,6.834-1.8,2.239-3.306.355-10.259-3.359-11.187-3.94-.984-7.638-.738-10.472,2.742-1.729,2.121-2.844,4.727-1.535,7.056C172.36,395.164,175.983,394.939,179.141,395.238ZM68.491,380.569a53.167,53.167,0,0,0,5.573-2.731c1.732-1.111,2.731-2.861,1.235-4.75-.725-.915-2.253-1.919-3.228-1.755a15.534,15.534,0,0,0-5.309,2.271c-1.371.841-4.407,1.091-2.771,3.742C64.883,378.792,66.947,379.514,68.491,380.569Zm229.882,19.6c-7.722-1.577-13.152-2.793-18.635-3.67-.668-.107-2.146,1.524-2.3,2.5-.149.925.741,2.744,1.527,2.976C284.58,403.632,290.214,403.7,298.373,400.167Zm77.061-31.324c-.4-2.083-1.635-3.353-3.767-3.264-5.1.212-10.089,4.183-9.321,7.647.859,3.877,4.209,4.69,7.6,4.582C373.194,377.7,375.638,373.467,375.434,368.843Zm-179.16,20.595c-4.314.323-7.206,2.856-6.122,5.424a5.619,5.619,0,0,0,10.815-1.512C201.386,389.668,198.407,389.912,196.274,389.438ZM94.105,303.184c.374-2.9-1.456-4.155-4.142-4.977-2.6-.8-3.7,1.143-4.23,2.665-.9,2.576-.085,5.294,2.764,6.112C91.225,307.766,93.312,306.341,94.105,303.184Zm392.334,2.724a3.473,3.473,0,0,0,2.8,4.289,4.107,4.107,0,0,0,3.436-.982c1.373-1.623-1.118-5.223-3.72-5.22C488.112,304,487.265,305.246,486.439,305.908Z"/><path class="a" d="M264.341,424.932c-3.138.752-6.62.883-9.338,2.39-4.966,2.755-8.691,1.717-12.254-2.14-2.49-2.695-5.641-3.108-9.051-2.3-1.349.319-2.449-.441-2.068-2.1.222-.97,1.746-1.948,2.885-2.347,4.62-1.619,9.275-.616,13.531,1.073C253.629,421.718,259.2,423.431,264.341,424.932Z"/><path class="a" d="M314.012,421.868c-1.98.243-4.76-.269-5.813.847-8.653,9.177-17.413,5.739-27.934.094,10.323,1.021,17.7-4.308,26.1-5.1,3.306-.31,6.726.054,7.333,4.524Z"/><path class="a" d="M105.5,428.283c-3.145,1.051-6.4,1.713-9.329-.628a5.779,5.779,0,0,1-2.117-3.1c-.115-.656,1.223-2.2,2.013-2.277a116.967,116.967,0,0,1,13.791-.736c2.517.05,6.147.68,6.328,3.477.363,5.622-3.889,3.261-6.8,3.048A29.633,29.633,0,0,0,105.5,428.283Z"/><path class="a" d="M166.008,434.083c.838-3.065.945-6.792,4.869-7.665,4.446-.99,9.053-1.735,12.67,2.26.377.415.385,1.153.6,1.73.585,1.6.028,2.473-1.532,3.067a22.691,22.691,0,0,1-16.91.182Z"/><path class="a" d="M358.176,403.527c-7.054,3.533-13.808,1.488-20.08,2.785-.9.186-2.839-.89-3-1.657-.481-2.265,1.511-3.272,3.159-2.72C344.43,404.006,351.083,400.01,358.176,403.527Z"/><path class="a" d="M257.948,410.039a18.447,18.447,0,0,1-3.715-.67,11.2,11.2,0,0,1-2.5-1.906c1.137-.331,2.338-1.073,3.395-.905,1.993.316,3.153,1.615,2.426,3.872Z"/><path class="a" d="M313.7,422.237c1.318-.841,3.243.056,2.789.758-2.207,3.407-1.967.075-2.473-1.129Z"/><path class="b" d="M354.053,258.119c2.346,7.352-1.346,15.393,3.692,22.782,3.052,4.476-3.161,7.981-5.076,11.962-.313.653-2.5,1.036-3.45.645-4.575-1.883-9-9.681-8.195-14.291.449-2.588,1.592-5.076,1.873-7.669.878-8.089-1.492-11.29-8.961-12.677-11.616-2.157-16.1,1.831-15.4,13.724a11.534,11.534,0,0,0,.549,3.933c4.11,9.182-1.446,14.459-7.724,19.6-5.9-4.862-10.7-9.508-6.887-18.524,1.615-3.82.212-9.134-.519-13.657a6.756,6.756,0,0,0-6.821-6.024c-18.061-.606-20.063-.932-18.494,17.887a9.281,9.281,0,0,0,1.13,3.78c3.512,6.051.206,10.071-4.122,13.6-1.407,1.146-3.307,1.68-5.117-.179-3.778-3.879-7.762-7.422-4.193-13.674a19.163,19.163,0,0,0,2.227-7.548c1.213-13.159-2.978-14.114-13.253-14.033-1.329.011-2.662-.02-3.986.074-6.061.428-8.8,2.57-9.428,8.117-.443,3.909-1.452,8.454,0,11.743,3.819,8.664-1.774,13.117-6.235,18.591-7.855-4.766-11.979-10.515-8.446-19.707a21.7,21.7,0,0,0,1.235-7.8c-.055-6.59-4.844-10.742-11.776-10.325a32.768,32.768,0,0,0-7.808,1.352,7.665,7.665,0,0,0-5.541,7.43,32.326,32.326,0,0,0,.266,5.939c1.667,12.42,1.69,12.417-8.112,20.913-5.261-4.455-9.652-8.992-5.939-16.826,1.09-2.3,1.2-5.151,1.388-7.776.465-6.58-1.451-9.043-8.324-11.134a10.507,10.507,0,0,0-1.984-.145c-3.567-.351-6.524-1.6-6.723-5.721-.2-4.161,2.462-5.657,6.192-6.013,3.208-.305,7.2.454,8.853-3.044a25.349,25.349,0,0,0,1.927-9.529,41.922,41.922,0,0,0-1.032-9.811c-.171-.869-1.716-1.557-2.745-2.118a1.691,1.691,0,0,0-1.557.461c-3.535,4.8-6.881,9.743-10.511,14.469-4.6,5.985-6.258,6.442-13.352,3.287a117.617,117.617,0,0,1-15.832-8.079,8.8,8.8,0,0,1-3.731-10.477l-.308.469c5.3-4.367,11.352-8.167,12.123-15.974,5.345-3.513,10.8.371,16.184-.227-.428,3.026,1.042,4.232,3.919,4.089-.127,1.79.407,3.161,2.424,3.27.3.016.989-.965.909-1.368-.4-2.014-1.725-2.434-3.528-1.714.671-3.4-1.234-4.148-4.061-3.943-.821-6.587-5.89-7.734-11.12-8.7-2.572-.475-3.343,1.375-3.776,3.177a39.949,39.949,0,0,0-.574,5.784,10.415,10.415,0,0,0-1.911.294c-14.323,4.976-15.977,3.756-14.775-10.093.411-4.731,2.388-6.985,7.089-7.052,3.853-.056,7.72-.124,11.54-.549.619-.069,1.029-2.021,1.534-3.1,7.958-3.745,15.653-7.82,20.1-15.979,3.908.336,7.713-3.4,11.493-.917,4.712,3.09,7.71,1.734,11.988-1.515,8.949-6.793,18.554-12.734,29.773-15.561,8.622-2.174,12.173-.624,14.433,8.229,1.388,5.438,1.95,11.086,3.09,17.871,0-8.032.053-14.66-.013-21.288-.079-7.946,2.259-10.861,10.2-11.073,10.926-.292,21.866-.073,35.99-.073-11.519-5.159-8.665-13.958-10.187-21.739-2.825,3.444-1.3,6.146-1.623,8.653-1.064,8.335-3.7,11.127-11.744,9.165-10.814-2.638-20.394-.387-30.082,3.742a41.15,41.15,0,0,1-7.65,2.143c-4.421.935-7.238-1.324-9.364-5.267-2.511-4.657,1.223-10.2-2.467-16.534-6.284,5.644-12.425,3.645-18.558,2.35-.711,6.666-3.858,12.386-6.976,18.129-.272.5-.036,1.277-.036,1.768,4.663,0,9.26-.146,13.835.113a4.053,4.053,0,0,1,2.8,2.412c.307.937-.305,3-1.056,3.331-8.29,3.64-15.2,10.645-25.654,9.182-3.264-.456-7.507,2.228-8.02,7.062-2.555.538-5.113,1.06-7.663,1.619-5.783,1.266-7.446.35-8.081-4.785-.772-6.243-1.387-12.506-2.07-18.76l-2.1.222v37.831c-13.087.485-26.239.5-39.242,1.377-8.224.554-15.033-6.312-22.689-3.1-7.684,3.227-14.274-1.4-21.429-1.337-7.9.071-15.913,1.079-23.279-1.467-4-2.976-1.182-6.272-1.276-9.264-.105-3.318-.327-6.633-.455-9.95-.191-4.921,2.561-7.23,7.123-7.709,4.495-.471,5.8-2.047,6.167-7.24.324-4.584,7.693-4.746,10.511-.223,1.7,2.735,2.176,6.97,6.315,6.3,3.565-.581,7.583-1.958,10.147-4.335,4.829-4.477,8.6-10.073,13.137-14.9,1.654-1.758,3.926-3.739,6.925-2.136,3.425,1.831,4.024,5.039,3.934,8.468-.075,2.893-1.257,4.951-4.461,5.512-2.531.443-5.249.782-7.435,1.984a6.522,6.522,0,0,0-3.112,6.824,4.845,4.845,0,0,0,.584,1.765c.993,1.731,2.38,1.814,2.956-.037,1.937-6.22,6.027-7.51,12.208-7.162,9.916.557,19.9.077,29.843-.175,1.062-.028,2.088-1.46,3.13-2.241-1.6-.973-3.4-3-4.764-2.739-6.557,1.247-13.081,2.338-19.556.226-1.633-.533-4.109-3-3.851-3.924.642-2.291,2.3-5.546,4.153-6.017,5.755-1.46,11.982-2.245,17.461.9,3.83,2.2,4.865-.274,4.808-2.654-.183-7.575,3.357-10.881,10.684-10.986,2.953-.042,4.693-1.79,5.409-4.753.114-.47,2.751-.83,2.777-.752,3.259,9.626,11.185,4.353,17,5.117,5.866.772,11.891.444,17.84.325.713-.014,1.965-1.738,1.96-2.664-.008-1.6.186-4.324-2.951-3.095-6.412,2.511-13.132,1.5-19.728,1.921-3.689.234-6.258-1.943-8.636-4.234a3.775,3.775,0,0,1-.57-3.276,7.875,7.875,0,0,1,2.446-2.9,2.191,2.191,0,0,1,1.868-.5c8.558,4.4,16.439.94,24.365-2,6.295-2.333,8.32-.571,7.525,6.333-.263,2.283,4.2,2.881,6.138.881,2.161-2.23,2.992-7.147,5.188-7.684,7.032-1.72,15.041-1.605,20.478,3.27,2.934,2.632,4.891,5.009,9.1,5.9,12.905,2.747,25.87,6.191,38.9,2.653,5.156-1.4,10.1-2.858,15.421-2.918,3.132-.035,4-2.511,5.721-4.508,5.329-6.171,13.061-4.893,20.1-5.051,1.3-.029,3.36,2.282,3.848,3.885,1.79,5.88,6.342,6.019,11.11,6.06l-.4-.413c2,4.364,2.863,8.674.574,13.335-.961,1.959-4.088,3.541-1.41,6.668,2.415,2.819,2.681,6.234-1.06,8.238s-7.756,1.115-11.427-.627c-2.019-.957-2.217-3.024-1.813-5.023.491-2.429,2.492-4.717.659-7.328-.371-.528-1.029-1.325-1.443-1.263a8.319,8.319,0,0,0-3.2,1.213c-.356.231-.222,1.244-.281,1.9-1.523,17.157-1.522,17.157-17.663,15.37-5.26-.583-6.082.137-6.461,6.462-.434,7.228-2.091,14.449-.317,21.712l.341-.562c-.847.934-2.367,1.825-2.432,2.811-.477,7.225-3.695,10.892-11.349,9.875a7.782,7.782,0,0,0-7.147,2.389c.4,4.535.587,9.157,1.332,13.685.286,1.74,1.462,3.975,2.9,4.77,5.388,2.97,11.429,3.043,17.267,1.945,3.785-.711,3.4-5.005,4.948-7.686,3.916-6.769,9.8-6.276,14.074,1.187,1.72,3.006,3.377,5.964,6.757,6.512,6.03.979,12.17,1.273,19.515,1.973-9.118-10.85-9.118-10.85-5.778-21.385l-.4.487c4.415-1.36,5.987-4.133,4.255-8.55l-.348.444c3.888.983,4.072-1.808,4.466-4.383l-.424.433c2-1.567,4.129-3,5.989-4.723,6.631-6.139,6.566-6.114,15-2.119a66.652,66.652,0,0,0,7.3,2.515c.426,3.6,2.982,5.719,5.81,7.177,1.508.777,3.734.54,5.514.172.5-.1.927-2.37.737-3.537-.415-2.552-1.12-5.012-4.8-4.24a74.718,74.718,0,0,1-7.591.84c-2.269-8.245-9.239-11.367-16.215-11.342-8.846.031-14.674-5.193-21.607-8.667-1.415-.709-1.722-1.688-1.395-3.294a3.648,3.648,0,0,1,4.171-3.077c14.776,3.207,30.456-1.79,44.816,4.957a2.5,2.5,0,0,0,1.78.262c14.576-6.58,29.957-1.857,44.913-3.115,10.956-.921,13.01,1.435,13.249,11.524a5.71,5.71,0,0,1-.1,1.979c-2.225,6.286,1.99,13.715-2.573,19.273-5.107,6.219-12.338,2.169-18.686,2.419-9.241.365-18.5,1.611-27.7,1.207-5.679-.249-5.632,1.473-5.9,6.18-.362,6.42-8.493,7.917-10.8,13.561l.453-.411c-2.566.408-5.326.628-4.333,4.478l.523-.408c-8.153-1.061-12.5,6.627-19.314,8.335-2.676.672-3.379,1.984-2.319,3.378,3.691,4.853.815,10.241,1.759,15.3,1.2,6.45,1.74,7.483,10.137,9.446,1.273.3,2.644.229,3.883.61,2.877.883,4.345,3.176,3.824,5.923-.316,1.663-1.925,4.154-3.253,4.363-4.977.783-9.946,2.991-15.129,1.094a8.2,8.2,0,0,1-1.526-1.176,3.838,3.838,0,0,1-.537-1.5c-1.05-4.3-4.257-6.991-4.587-4.141-.553,4.762,4.6,2.568,6.174,4.792A7.263,7.263,0,0,1,354.053,258.119Zm-76.4-35.621c-.182-1.193-.346-2.389-.549-3.579-.287-1.68-.344-3.8-2.851-3.228a3.355,3.355,0,0,0-1.922,2.446c-.175,1.9-.593,3.368-2.562,4-5.234-.255-10.467-.63-15.705-.738-9.455-.194-11.209,1.732-10.953,11.6.28,10.8,4.147,14,14.715,12.764,4.535-.528,6.566-3.5,9.01-6.708,4.1-5.394.886-11.616,2.639-17.184,2.932-2.606,5.739-.8,8.568.243.125,4.6-.326,9.316.5,13.79,1.475,7.955,6.825,10.821,16.59,9.756,5.809-.634,7.646-3.274,7.947-11.422.439-11.885-.826-13.112-13.573-12.658C285.545,221.717,281.6,222.188,277.648,222.5Zm-47.511-.1c-6.5-.378-13-.893-19.515-1.071a4.937,4.937,0,0,0-5.346,4.51,99.31,99.31,0,0,0-1.015,13.619,6.43,6.43,0,0,0,4.267,6.012c12.891,4.394,20.271-.438,21.064-13.7.194-3.252.1-6.521.139-9.786a29.157,29.157,0,0,0,5.4-1.726,4.282,4.282,0,0,0,1.895-2.952c.072-.687-1.361-2.216-1.955-2.137a4.564,4.564,0,0,0-3.006,1.924A29.543,29.543,0,0,0,230.137,222.4Zm87.685,23.241c2.619.207,5.234.532,7.857.6,16.409.438,18.235-1.687,16.511-18.113-.519-4.948-3.328-7.231-7.738-6.925-7.781.54-15.5,1.969-20.934-5.956-.464-.676-4.162-.23-5.239.83-2.558,2.517-.584,5.109,1.772,6.088,5.549,2.3,8.285,5.742,7.652,12.008-.391,3.867.222,7.836.39,11.771-1.486.957-2.946,1.956-4.463,2.862-3.331,1.99-4.446,5.032-1.776,4.9a4.124,4.124,0,0,0,3.913-3.169C316.347,248.866,317.129,247.267,317.822,245.637Zm-48.212-57.6c-11.62-4.357-21.458-1.783-31.232,2.522-4.112,1.812-7.734,4.591-12.633,4.947-9.717.707-16.462,6.54-22.678,15.187,5.263-.34,9.634-.757,14.014-.873,6.743-.18,11.016-2.884,13.153-9.772,1.161-3.743,8.907-3.907,11.541-.721a8.935,8.935,0,0,1,1.4,3.667c1.289,5.666,5.161,7.062,10.4,6.727,12.651-.807,15.451-2.5,16.021-15.073C269.688,192.659,269.61,190.661,269.61,188.039Zm-70.75,64.046a16.894,16.894,0,0,0-2.846-1.241c-.3-.077-1.231.889-1.165,1.018a20.167,20.167,0,0,0,1.642,2.442C197.281,253.568,198.071,252.832,198.86,252.085ZM433.5,172.346l1.771-1.008a12.443,12.443,0,0,0-2.07-2.937c-1.042-.828-2.052-.034-1.7,1.565C431.7,170.882,432.831,171.594,433.5,172.346Zm-320.061-.458L112,168.967a10.925,10.925,0,0,0-1.064,1.345c-.788,1.382-.384,2.382,1.179,2.627C112.493,173,112.992,172.261,113.438,171.888ZM321.81,113.146l1.816-.727c-.522-.376-1-.989-1.573-1.084-1.821-.3-2.629.306-1.983,1.31C320.316,113.027,321.211,112.991,321.81,113.146Z"/><path class="b" d="M142.1,221.618c-2.839,3.551-5.679,7.1-8.588,10.738,1.81,3.913,5.837,4.1,9.42,5.3,6.83,2.291,13.68,4.613,20.273,7.492,6.287,2.745,7.616,4.771,5.587,10.547-2.251,6.409-2.319,12.93-3.073,19.443-.386,3.337-1.11,6.488-3.739,8.8-10.151,3.216-20.206-3.476-30.408-.433q.555,4.732,1.111,9.467a17.926,17.926,0,0,1-3.838,1.013c-8.116.315-9.895-1.821-6.3-8.537,1.723-3.226,3.585-5.32-.627-7.834-1.53-.913-3.446-2.725-3.546-4.236-.6-9.137-2.368-18.383.479-27.408.984-3.119,3.671-5.791,4.267-8.918.742-3.893-5.52-2.523-5.881-6.053-.4-3.9-.433-7.832-.7-11.745-.2-2.956,5.51-5.494,1.494-8.109-2.36-1.536-6.434-.639-9.714-.443-.972.057-1.864,1.453-2.792,2.236a24.085,24.085,0,0,0,3.737,1.288c2.832.5,5.249,1.857,5.76,4.646,1.463,7.989.031,15.829-2.18,23.516a4.8,4.8,0,0,1-2.4,3c-5.455,1.737-10.934,5.641-16.664.629l.191.064c-2.223-3.175-5.481-5.632-5.222-10.308.2-3.593,3.219-8.74-1.588-10.478a13.01,13.01,0,0,0-11.441,1.86c1.371,4.063,5.222,2.249,7.828,3.31,2.887,1.177,3.629,3.62,3.62,6.336-.007,1.956-.449,4.577-2.725,4.533C72.2,241.1,72.29,248.433,74.206,257.2c.272,1.245-.159,2.641-.248,3.968-.213,3.194-2.238,4.659-5.117,4.956-2.635.272-5.31.134-7.964.264-3.938.191-6.387-1.4-6.452-5.545a114.62,114.62,0,0,1,.268-11.959c.365-4.085-1.284-6.1-5.254-6.612-3.644-.468-5.931-2.254-6.31-6.272-.454-4.828,1.957-7.361,6.121-8.926,2.968-1.114,7.514-.488,8.3-4.255.881-4.229,3.441-8.976-.015-13.151-2.813-3.4-2.911-7.182-3.006-11.225-.177-7.617,1.036-9.045,8.951-9.381,2-.085,4-.041,5.993-.044,15.453-.03,15.513.051,15.717,15.333a57.211,57.211,0,0,0,.593,7.773c.266,1.745,5.448,3.156,6.867,2.25,2.612-1.666,1.007-2.969-.187-4.322-5.148-5.831-2.567-12.281-1.853-19.719,9.425-.475,18.62-1.434,27.8-1.283,13.759.226,14.056.553,14.269,14.568.088,5.794.286,10.2,7.274,11.648,3.322.688,1.849,4.337,1.847,6.824Z"/><path class="b" d="M432.562,403.538c-9.783.553-19.63-.908-29.241,1.5l5.062-13.585c-5.888-.4-11.165-.729-16.386,1.013-3.619,1.207-6.8,2.592-10.869-.8-4.038-3.362-3.552,4.792-7.807,4.768-6.6-.039-14.5-3.079-14.5-6.711,0-5.658,2.53-7.523,13.107-7.638,4.213-.045,5.938-.91,6.025-5.158.079-3.846,2.5-6.162,6.232-6.452,4.625-.36,9.291-.372,13.934-.276,14.114.292,14.1.342,15.654,15.454a16.3,16.3,0,0,0,1.047,3.75c.9,2.508-.455-.763,2.008.184.9.347,2.365-.648,3.505-1.175.131-.061-.177-1.053-.268-1.615C417.457,370.8,417.458,370.812,433,369.8c1.31-.084,2.605-.4,3.907-.614-5.364-7.185-5.379-7.235-11.779-5.315-13.035,3.911-26.3,1.794-39.486,1.5a6.077,6.077,0,0,1-3.6-1.535c-3.9-3.536-5.543-10.03-13.688-6.907-4.9,1.878-10.135,2.546-14.234,6.314-.81.745-2.466.706-3.741.745a2.028,2.028,0,0,1-1.55-1.125c-.322-1.03-.727-2.9-.3-3.169,7.329-4.69,15.324-6.226,28.186-5.682,1.118-5.9,2.32-11.161-4.893-15.107-4.613-2.524-3.246-4.966,1.98-7.918,9.066-5.12,18.614-6.086,28.615-4.726,4.611.627,9.174,1.605,13.778,2.3,10.2,1.534,10.21,1.5,11.437,13.062,3.061-3.316,3.3-9.872,7.9-10.547,7.719-1.13,15.925-2.892,23.519.61,3.37,1.553,3.266,5.447,3.138,8.828-.289,7.677-1.86,9.257-9.25,9.5-7.281.234-14.565.473-21.83.963-.485.032-1.271,2.273-1.1,3.361.156,1.011,1.749,2.776,2.117,2.638,12.953-4.884,26.36-2.4,39.574-2.419,2.929,0,5.837,2.2,8.8,2.326,1.235.052,2.793-2.553,3.746-4.213.242-.422-1.146-2.541-1.988-2.684-2.59-.438-5.3-.1-7.922-.422-6.218-.776-7.773-2.533-8.328-8.851-.575-6.552,1.125-9,6.876-9.709a42.478,42.478,0,0,1,7.945-.661c17.583,1.187,17.565.852,20.608,17.528.578,3.167,2.214,6.127,3.02,9.27,1.733,6.761-.627,9.531-7.5,9.13-3.32-.194-6.7-.05-9.951-.626-16.8-2.976-31.111,2.18-44.771,11.84-5.486,3.878-9.125,7.209-8.235,14.195a94.865,94.865,0,0,1,.27,9.96Q433.4,402.572,432.562,403.538Z"/><path class="b" d="M385.49,242.377c9.611-2.251,19.457-3.842,27.878-9.643-3-4.222-6.084-8.043-8.484-12.251-.688-1.207.332-5.006,1.012-5.127,8.7-1.55,7.017-8.219,7.468-14.026.808-10.394.9-10.614,11.816-11.014,9.293-.34,18.611-.2,27.912-.007,2.945.059,4.687,2.14,4.856,5.147a50.206,50.206,0,0,1,.067,7.945c-.583,5.646-8.128,9.23-3.7,16.807,2.857,4.891-.606,11.89,2.647,17.424.014.024,5.626,8.982,5.646,8.985,3.531.5,3.772,3.3,3.863,5.911.109,3.114-1.772,4.921-4.8,5-8.641.225-17.288.373-25.931.329-4.194-.021-6.482-2.73-5.859-6.1.71-3.834,3.635-2.963,6.115-3.038a35.545,35.545,0,0,0,6.448-.5,12.855,12.855,0,0,1-10.406-8.795,12.426,12.426,0,0,0-3.239-4.767c-.708-.647-2.579-.631-3.576-.166-.9.418-2.076,2.148-1.826,2.8,1.184,3.07,3.213,5.842,4.2,8.954,1.712,5.4-3.084,13.325,3.15,16.225,4.758,2.214,11.525-1.166,18.026.911,2.845,6.492,2.19,13.815,2.009,21-.152,6.068-2.657,8.932-7.806,9.842-5.24.926-9.074-.806-11.1-5.973-.671-1.71-1.609-3.316-2.471-5.062-4.562.416-2.73,3.648-3.087,5.654-.5,2.816-1.6,5.091-4.7,5.429-3.368.367-7.267.307-8.082-3.707-1.737-8.567-7.474-7.878-13.674-6.708-.637.12-1.2.618-1.835.77-12.48,2.962-15.785,1.127-17.912-10.6-1.066-5.874-1-11.97-2.271-17.787-1.632-7.5,3.6-10.51,8.078-14.221C385.918,242.019,385.49,242.377,385.49,242.377Zm55.6-29.35q-.129-1.159-.256-2.319c-3.928,0-7.856-.023-11.783.01-1.767.015-2.561,1.09-1.689,2.68.553,1.01,1.964,2.412,2.761,2.278C433.82,215.053,437.44,213.955,441.088,213.027Z"/><path class="b" d="M131.916,318.646c-.738,1.1-1.407,2.265-2.228,3.3-1.819,2.3-2.855,5.337.935,5.565,5.234.315,10.576-.857,15.849-1.562,10.251-1.371,19.517,1.7,28.465,6.175,3.2,1.6,3.1,4.521.673,6.1-3.668,2.4-5.627,5.006-5.9,9.536-.238,3.886-1.652,7.724-2.741,11.527-.991,3.459-3.339,6.078-6.968,6.152-11.3.229-22.627.348-33.92-.073-5.074-.189-8.107-3.794-8.483-9.279-.671-9.77-1.608-19.656,3.377-28.8-3.256-3.238-7.433-2.146-11.322-2.4-12.162-.78-12.5-1.094-12.871-12.361-.066-2-.122-4-.09-6,.111-6.786,1.575-8.7,7.589-8.925,6.652-.243,13.319-.057,19.979-.089,5.276-.025,6.3,3.948,7.442,7.781A25.807,25.807,0,0,0,131.916,318.646Z"/><path class="b" d="M474.432,308.969c5.008,2.909,9.523,6.949,16.129,5.361,4.059-.975,5.941,1.876,7.011,5.189.849,2.626.917,5.816-2.572,5.983-11.075.531-22.179.774-33.266.652-7.591-.083-7.914-.781-8.621-9.872-.151-1.946-.022-3.915-.022-6.022-2.621.2-2.24,2-2.317,3.483a46.267,46.267,0,0,1-.309,5.929,5.572,5.572,0,0,1-5.5,4.774c-7.271.311-14.576.688-21.828.3-6.521-.349-9.223-3.746-9.53-10.406a58.947,58.947,0,0,1,.129-5.957c.481-8.711,2.262-10.737,10.544-10.855,11.208-.16,22.423.181,33.627-.071,2.585-.058,6.519,4.989,7.53-.567.58-3.189-4.058-1.329-6.244-1.981-3.636-1.083-5.736-3.148-5.954-6.856a69.35,69.35,0,0,1-.016-9.9c.395-4.644,3.9-7.195,7.824-7.759,5.174-.744,10.536-.232,15.817-.167a5.761,5.761,0,0,1,6.049,6.34c-.255,5.821.737,12.1-2.718,17.264-1.372,2.049-1.567,3.8-.512,5.287C484.6,306.059,476.688,305.933,474.432,308.969Zm-11.552-1.355,1.2.833.171-1.341Z"/><path class="b" d="M496.484,165.316c0,5.011.159,7.01-.03,8.977-.553,5.75-2.865,8.212-8.742,8.718-9.828.845-19.811-.064-29.468,2.706-3.2.918-5.022-1.22-6.34-3.47-2.323-3.965-4.261-8-4.3-12.932-.046-5.176-1.245-10.333-1.771-15.515-.471-4.635-2.933-6.41-7.471-7.544-5.459-1.364-6.559-4.707-5.02-10.165.954-3.385,5.25-5.434,7.67-3.513,5.217,4.14,11.221,8.616,12.563,14.919,1.67,7.844,7.185,2.917,10.362,4.868,3.879,2.382,5.72.543,7.24-3.069.723-1.719,2.355-3.143,3.8-4.449,1.624-1.469,3.5-.988,5.509-.438,5.208,1.422,1.626,7.312,4.821,9.293,3.22,2,8.455.661,10.2,4.981A18.22,18.22,0,0,1,496.484,165.316Z"/><path class="b" d="M377.716,114.277c4.267.085,6.171,2.922,9.127,5.647,4.729,4.359,14.381,2.807,15.1,12.8.137,1.9,3.018,1.719,5,1.7,5.3-.056,10.666-.385,15.884.307,2.522.335,4.344,3.339,3.7,6.12-.368,1.592-2.176,3.264-3.759,4.05a13.834,13.834,0,0,1-5.826.9c-16.531.194-33.066.154-49.593.524-5.431.121-10.486-.224-15.5-2.657-6.323-3.068-9.655-12.026-5.963-18.321a6.822,6.822,0,0,1,4.83-2.789c7.97-.388,15.963-.3,23.945-.456,4.171-.084,4.744-1.549,3.432-8.274Z"/><path class="b" d="M480.17,223.76c-5.135.585-7.01.781-8.881,1.014-3.893.486-7.951,1.73-11.171-1.72-3.4-3.64-2.195-6.86.682-10.358,1.044-1.269.509-3.808.76-5.759.778-6.024-4.13-14.888,4.256-17.3,15.132-4.35,29.193,1.024,34.9,11.017,1.184,2.076-1.557,7.279-4.469,7.719-6.521.986-13.089,1.692-19.655,2.343-2.515.25-5.075.041-7.689,1.424,1.865.368,3.716.849,5.6,1.066,1.3.149,2.641-.136,3.961-.107,2.642.056,7.169.365,6.964,2.3-1.335,12.629,13.29,8.827,16.356,16.567,1.455,3.67-.461,9.689-3.522,9.824-11.157.492-22.3,3.174-33.508.356-2.821-.709-4.961-2.069-5.2-5.033-.3-3.716,1.425-6.378,5.343-6.861C469.5,229.685,474.135,229.372,480.17,223.76Z"/><path class="b" d="M297.737,174.328c6.018-3.913,3.889-10.546,5.242-15.982,2.035-8.176,5.564-9.7,14.057-6.28A161.66,161.66,0,0,1,341.3,164.745c6.069,3.733,5.085,8.344,4.415,13.527l.424-.432c-2.744.183-3.856,2.028-4.466,4.383l.348-.444c-3.179,1.974-5.271,4.489-4.255,8.55l.4-.487c-1.175.394-2.953.432-3.429,1.239-3.688,6.25-8.364,6.754-15.059,4.623-3.793-1.206-6.918-3.89-10.589-4.462-10.719-1.67-11.787-8.866-11.013-17.476Z"/><path class="b" d="M114.568,350.154c-9.071,0-16.966-.378-24.8.149-4.329.291-3.6-5.806-7.178-4.906-3.045.765-5.68,3.539-8.7,3.952-5.828.8-11.737-.1-17.5,2.562-3.155,1.456-8.955-2.412-9.666-5.148-1.54-5.924,1.684-13.848,6.429-14.869a54.032,54.032,0,0,1,11.8-1.241C75.9,330.762,86.7,331.7,97.8,330.4c13.983-1.629,14.129-.4,16.751,15.234C114.662,346.28,114.568,346.958,114.568,350.154Z"/><path class="b" d="M113.68,401.679c-.121-1.921-.871-4.079-.254-5.724,2.844-7.588.2-13.082-6.453-16.535-11.527-5.986-21.234-16.358-35.83-15.327-.574.041-1.877-1.929-1.806-2.885a11.425,11.425,0,0,1,1.7-5.318c.577-.869,2.356-1.306,3.6-1.31,10.626-.04,21.271-.31,31.871.248,7.743.407,8.622,4.13,3.382,11.772a18.18,18.18,0,0,0-.976,1.843c4.794,2.947,10.172.784,15.185,1.737,5.3,1.009,7.728,5.313,5.549,10.352a8.385,8.385,0,0,1-2.223,3.252c-4.191,3.3-3,5.622.114,9.37,4.087,4.918,2.443,8.44-3.825,9.513-3.118.534-6.482-.366-9.734-.617Z"/><path class="b" d="M410.43,304.981c.558,17.106.8,17.308-17.084,17.488-13.887.14-15.208.035-15.848-15.52-.161-3.912.646-7.865,1.006-11.8.366-4.006,3.09-5.577,6.589-6,2.606-.317,5.269-.147,7.9-.25C410.523,288.214,410.278,285.689,410.43,304.981Z"/><path class="b" d="M393.771,205.678c-.159,4.928,2.324,8.231,5.611,11.851,6.234,6.867,4.712,11.7-3.15,17.111-3.613,2.487-8.925,2.75-10.738,7.734,0,0,.424-.355.419-.352-3.885-.364-9.075.7-11.372-1.4-4.717-4.312-8.073-10.2-11.508-15.738-.59-.951.822-3.69,1.963-5.06,2.9-3.479,6.163-6.65,9.282-9.944l-.524.409c2.31-.656,6.013.035,4.334-4.478l-.453.411c5.491-.06,10.968-2.033,16.476-.135Z"/><path class="b" d="M132.988,304.329c1.143-3.869,2.368-7.742-.493-11.437,4.712-2.353,9.109-4.9,14.961-4.367,5.166.475,10.5-.841,15.754-1.366,4.585,6.689,7,14.081,6.24,22.176-.939,10.051-4.577,13.067-15.05,12.963-7.09-.071-14.581,1.466-20.386-4.465C134.784,313.252,137.5,308.512,132.988,304.329Z"/><path class="b" d="M133.518,388.605c-.3-5.242-.872-8.585-.585-11.853.312-3.556,2.352-6.211,6.324-6.355,6.634-.241,13.274-.454,19.909-.421,4.807.023,7.036,2.582,6.8,7.54-.154,3.3.315,6.623.482,9.937.242,4.815-2,7.945-6.866,7.321-6.733-.862-11,3.249-16.137,6.163-6.05,3.431-10.161.612-10.238-6.312C133.181,391.978,133.478,389.327,133.518,388.605Z"/><path class="b" d="M114.68,277.227c-.169,3.3-.226,6.61-.536,9.9-.431,4.584-2.967,7.11-7.677,7.321-5.5.247-9.077-2.45-9.425-7.791a159.164,159.164,0,0,1-.123-15.919c.247-6.969,7.187-11.014,13.976-7.992,1.43.637,2.744,2.884,2.985,4.552.467,3.244.136,6.6.136,9.914Z"/><path class="b" d="M196.677,362.885c-.846.773-1.819,2.308-2.516,2.191-6.819-1.14-8.765,1.722-9.155,8.371-.207,3.519-7.666,5.778-9.567,3.558A23.292,23.292,0,0,1,171.1,368.6c-.543-1.832,1.344-3.053,3.329-3.841,4.338-1.72,3.123-4.559,1.348-7.688-2.066-3.644-.1-6.012,3.134-7.737,2.61-1.394,5.712-1.256,7.235.7,3.163,4.05,5.5,8.729,10.507,11.026C196.888,361.163,196.679,362.249,196.677,362.885Z"/><path class="b" d="M341.973,114.081c-.8-1.675-1.577-3.365-2.42-5.02-1.15-2.258-.112-4.1,1.891-4.328,2.427-.273,4.991.472,7.471.915,7.261,1.3,13.784,6.881,22.156,1.684,2.986-1.853,7.123,1.909,6.644,6.947l.375-.446c-12.2,7.442-24.356,4.506-36.509-.16Z"/><path class="b" d="M61.49,314.529a63.986,63.986,0,0,1,23.058-5.094c5.106-.262,7.482,2.382,7.9,8.669.325,4.855-1.778,7.565-6.478,7.922-3.949.3-7.921.371-11.883.4-10.552.077-10.553.046-12.173-12.378Z"/><path class="c" d="M163.21,287.159c-5.258.525-10.588,1.841-15.754,1.366-5.852-.538-10.249,2.014-14.961,4.367l.189.081q-.549-4.733-1.107-9.466c10.2-3.043,20.257,3.649,30.408.433a25.776,25.776,0,0,1,1.873,2C163.976,286.1,163.443,286.741,163.21,287.159Z"/><path class="c" d="M79.713,397.979c-10.761-2-21.545-3.888-32.26-6.112-1.606-.332-3.173-2.032-4.192-3.494-.485-.7-.033-2.676.677-3.453,1.784-1.956-1.227-1.75,1.407-1.343,6.387.986,10.1,7.446,17.439,7.527,5.656.063,11.857-2.139,17.234,1.462.953.639,1.335,2.132,1.98,3.231A2.547,2.547,0,0,0,79.713,397.979Z"/><path class="b" d="M394.111,206.09c-.566-1.885-1.528-3.748-1.629-5.657-.518-9.775,1.923-11.969,11.025-10.649,3.68.533,6.121,2.148,6.376,6a57.177,57.177,0,0,1,.04,9.817c-.325,3.048-2.761,3.855-5.6,4.185-4.337.5-7.611-1.254-10.549-4.1Z"/><path class="b" d="M93.782,246.015c6.25-1.488,11.125,3.946,17.253,3.391,2.474-.224,3.261,2.12,3.38,3.989.126,1.978-.935,4.209-3.155,4.207-9.249-.009-18.5-.3-27.745-.572-2.587-.075-3.337-2.5-3.352-4.177a6.911,6.911,0,0,1,2.347-5.046c3.374-2.4,7.535-1.749,11.463-1.728Z"/><path class="b" d="M482.066,266.241c-7.92.037-10.578-1.991-10.6-8.08-.024-8.02,3.323-10.867,12.757-10.848,6,.011,8.128,2.789,8.129,10.617C492.356,264.29,489.985,266.205,482.066,266.241Z"/><path class="b" d="M461.856,398.05c-2.141,4.97-7.316,4.759-9.5,2.423-3.738-4-8.521-5.614-12.671-8.508a3.728,3.728,0,0,1-1.118-3.407c.9-1.906,2.88-2.108,4.835-1.447,4.464,1.507,8.026,3.967,10.181,8.423,1.763,3.648,5.814,1.762,8.652,2.925Z"/><path class="b" d="M179.138,395.232c-3.155-.293-6.778-.068-8.529-3.185-1.309-2.329-.194-4.935,1.535-7.056,2.834-3.48,6.532-3.726,10.472-2.742,3.714.928,5.6,7.881,3.359,11.187C184.1,396.2,181.525,395.083,179.138,395.232Z"/><path class="b" d="M82,395.8c3.8,1.623,8.176,2.809,10.85-.886,2.913-4.025,6.306-6.646,10.948-7.678.868-.193,2.137,1.032,3.064,1.794.2.164-.074,1.422-.472,1.723-6.123,4.618-12.3,9.161-18.47,13.679,0-.041.04-.334.04-.334-2.382-2.532-4.151-5.892-8.245-6.117A2.547,2.547,0,0,1,82,395.8Z"/><path class="b" d="M68.491,380.569c-1.544-1.055-3.608-1.777-4.5-3.223-1.636-2.651,1.4-2.9,2.771-3.742a15.534,15.534,0,0,1,5.309-2.271c.975-.164,2.5.84,3.228,1.755,1.5,1.889.5,3.639-1.235,4.75A53.167,53.167,0,0,1,68.491,380.569Z"/><path class="c" d="M132.988,304.329c4.511,4.183,1.8,8.923,1.026,13.5-.017-.008-.749,1.624-.749,1.624s-1.347-.707-1.348-.759a26,26,0,0,1-.219-13.391c0,.045.138-1.106.138-1.106Z"/><path class="b" d="M462.235,398.459c.911-5.2,3.778-7.829,9.209-6.7,1.092.227,2.539,1.032,2.864,1.921.259.709-.79,2.683-1.517,2.833-3.6.738-7.286,1.057-10.938,1.528C461.856,398.05,462.235,398.459,462.235,398.459Z"/><path class="b" d="M298.373,400.167c-8.159,3.535-13.793,3.465-19.41,1.807-.786-.232-1.676-2.051-1.527-2.976.156-.977,1.634-2.608,2.3-2.5C285.221,397.374,290.651,398.59,298.373,400.167Z"/><path class="b" d="M375.436,368.84c.2,4.627-2.242,8.864-5.494,8.968-3.387.108-6.737-.7-7.6-4.582-.768-3.464,4.218-7.435,9.321-7.647C373.8,365.49,375.037,366.76,375.436,368.84Z"/><path class="b" d="M196.274,389.438c2.133.474,5.112.23,4.693,3.912a5.619,5.619,0,0,1-10.815,1.512C189.068,392.294,191.96,389.761,196.274,389.438Z"/><path class="b" d="M221.988,406.135c5.327-6.606,11.573-3.767,20.075-2.542-8.14,4.409-14.349,2.416-20.438,2.116Z"/><path class="b" d="M94.105,303.184c-.793,3.157-2.88,4.582-5.608,3.8-2.849-.818-3.659-3.536-2.764-6.112.529-1.522,1.626-3.461,4.23-2.665C92.649,299.029,94.479,300.28,94.105,303.184Z"/><path class="b" d="M486.439,305.908c.826-.662,1.673-1.912,2.52-1.913,2.6,0,5.093,3.6,3.72,5.22a4.107,4.107,0,0,1-3.436.982A3.473,3.473,0,0,1,486.439,305.908Z"/><path class="b" d="M113.981,402.05c-3.009,4.96-7.715,4.151-12.34,3.623l.289.385c2.857-4.324,7.3-4.378,11.758-4.369Z"/><path class="c" d="M87.958,404.1s-.04.293-.04.334c1.865,6.668-4.972,3.2-6.641,5.744-.019-.007-.265-.208-.289-.217C83.3,408,85.626,406.045,87.958,404.1Z"/><path class="b" d="M434.27,401.636c1.766.37,3.563.634,5.289,1.141,1.664.489,2,1.405,1.035,2.306-.393.367-1.013.958-1.34.854-2.253-.718-4.456-1.594-6.684-2.409C433.121,402.894,433.69,402.26,434.27,401.636Z"/><path class="a" d="M178.045,170.18c.512-4.835,4.755-7.519,8.019-7.063,10.451,1.463,17.364-5.542,25.654-9.182.751-.329,1.363-2.394,1.056-3.331a4.053,4.053,0,0,0-2.8-2.412c-4.575-.259-9.172-.113-13.835-.113,0-.491-.236-1.267.036-1.768,3.118-5.743,6.265-11.463,6.976-18.129,6.133,1.3,12.274,3.294,18.558-2.35,3.69,6.332-.044,11.877,2.467,16.534,2.126,3.943,4.943,6.2,9.364,5.267a41.15,41.15,0,0,0,7.65-2.143c9.688-4.129,19.268-6.38,30.082-3.742,8.046,1.962,10.68-.83,11.744-9.165.32-2.507-1.2-5.209,1.623-8.653,1.522,7.781-1.332,16.58,10.187,21.739-14.124,0-25.064-.219-35.99.073-7.943.212-10.281,3.127-10.2,11.073.066,6.628.013,13.256.013,21.288-1.14-6.785-1.7-12.433-3.09-17.871-2.26-8.853-5.811-10.4-14.433-8.229-11.219,2.827-20.824,8.768-29.773,15.561-4.278,3.249-7.276,4.605-11.988,1.515-3.78-2.478-7.585,1.253-11.492.917Zm41.389-33.006c-.824-4.046-4.487-5.93-9-4.942-3.254.712-6.012,4.5-4.867,6.941,1.6,3.4,4.6,4.025,7.968,3.434C216.779,142.039,219.754,141.1,219.434,137.174Z"/><path class="a" d="M298.078,173.766c-.774,8.61.294,15.806,11.013,17.476,3.671.572,6.8,3.256,10.589,4.462,6.695,2.131,11.371,1.627,15.059-4.623.476-.807,2.254-.845,3.429-1.239-3.34,10.535-3.34,10.535,5.778,21.385-7.345-.7-13.485-.994-19.515-1.973-3.38-.548-5.037-3.506-6.757-6.512-4.271-7.463-10.158-7.956-14.074-1.187-1.551,2.681-1.163,6.975-4.948,7.686-5.838,1.1-11.879,1.025-17.267-1.945-1.441-.795-2.617-3.03-2.9-4.77-.745-4.528-.929-9.15-1.332-13.685a7.782,7.782,0,0,1,7.147-2.389c7.654,1.017,10.872-2.65,11.349-9.875C295.711,175.591,297.231,174.7,298.078,173.766Z"/><path class="a" d="M269.61,188.039c0,2.622.078,4.62-.013,6.611-.57,12.573-3.37,14.266-16.021,15.073-5.243.335-9.115-1.061-10.4-6.727a8.935,8.935,0,0,0-1.4-3.667c-2.634-3.186-10.38-3.022-11.541.721-2.137,6.888-6.41,9.592-13.153,9.772-4.38.116-8.751.533-14.014.873,6.216-8.647,12.961-14.48,22.678-15.187,4.9-.356,8.521-3.135,12.633-4.947C248.152,186.256,257.99,183.682,269.61,188.039Z"/><path class="a" d="M318.087,245.931c-.162-3.924-.775-7.893-.384-11.76.633-6.266-2.1-9.7-7.652-12.008-2.356-.979-4.33-3.571-1.772-6.088,1.077-1.06,4.775-1.506,5.239-.83,5.434,7.925,13.153,6.5,20.934,5.956,4.41-.306,7.219,1.977,7.738,6.925,1.724,16.426-.1,18.551-16.511,18.113-2.623-.07-5.238-.4-7.857-.6Z"/><path class="a" d="M269.45,221.857c-1.733,5.579,1.483,11.8-2.619,17.195-2.444,3.213-4.475,6.18-9.01,6.708-10.568,1.231-14.435-1.965-14.715-12.764-.256-9.866,1.5-11.792,10.953-11.6,5.238.108,10.471.483,15.705.738Z"/><path class="a" d="M229.733,221.988c-.04,3.261.053,6.53-.141,9.782-.793,13.258-8.173,18.09-21.064,13.7a6.43,6.43,0,0,1-4.267-6.012,99.31,99.31,0,0,1,1.015-13.619,4.937,4.937,0,0,1,5.346-4.51c6.51.178,13.011.693,19.515,1.071Z"/><path class="a" d="M277.643,222.508c3.953-.32,7.9-.791,11.862-.931,12.747-.454,14.012.773,13.573,12.658-.3,8.148-2.138,10.788-7.947,11.422-9.765,1.065-15.115-1.8-16.59-9.756-.829-4.474-.378-9.186-.5-13.794C278.044,222.1,277.643,222.508,277.643,222.508Z"/><path class="a" d="M158.128,186.306V148.475l2.1-.222c.683,6.254,1.3,12.517,2.07,18.76.635,5.135,2.3,6.051,8.081,4.785,2.55-.559,5.108-1.081,7.663-1.619l-.169-.183c-4.448,8.159-12.143,12.234-20.1,15.979Z"/><path class="a" d="M154.3,206.479a39.949,39.949,0,0,1,.574-5.784c.433-1.8,1.2-3.652,3.776-3.177,5.23.968,10.3,2.115,11.12,8.7l.339-.335c-5.39.6-10.841-3.285-16.186.228C153.924,206.118,154.3,206.479,154.3,206.479Z"/><path class="a" d="M373.674,174.358a74.718,74.718,0,0,0,7.591-.84c3.682-.772,4.387,1.688,4.8,4.24.19,1.167-.242,3.434-.737,3.537-1.78.368-4.006.605-5.514-.172-2.828-1.458-5.384-3.572-5.81-7.177Z"/><path class="a" d="M317.822,245.637c-.693,1.63-1.475,3.229-2.055,4.9a4.124,4.124,0,0,1-3.913,3.169c-2.67.131-1.555-2.911,1.776-4.9,1.517-.906,2.977-1.905,4.46-2.868C318.087,245.931,317.822,245.637,317.822,245.637Z"/><path class="a" d="M354.053,258.119a7.263,7.263,0,0,0-.663-1.81c-1.578-2.224-6.727-.03-6.174-4.792.33-2.85,3.537-.156,4.587,4.141a3.838,3.838,0,0,0,.537,1.5,8.2,8.2,0,0,0,1.526,1.176Z"/><path class="a" d="M230.137,222.4a29.543,29.543,0,0,1,1.93-5.3,4.564,4.564,0,0,1,3.006-1.924c.594-.079,2.027,1.45,1.955,2.137a4.282,4.282,0,0,1-1.895,2.952,29.326,29.326,0,0,1-5.4,1.728Z"/><path class="a" d="M269.764,222.136c1.969-.631,2.387-2.1,2.562-4a3.355,3.355,0,0,1,1.922-2.446c2.507-.568,2.564,1.548,2.851,3.228.2,1.19.367,2.386.546,3.584,0,.005.4-.4.4-.4-2.832-1.037-5.639-2.845-8.581-.245C269.45,221.857,269.764,222.136,269.764,222.136Z"/><path class="a" d="M198.861,252.09q-1.185,1.113-2.37,2.214a20.167,20.167,0,0,1-1.642-2.442c-.066-.129.863-1.095,1.165-1.018A16.567,16.567,0,0,1,198.861,252.09Z"/><path class="a" d="M433.5,172.346c-.668-.752-1.8-1.464-2-2.38-.348-1.6.662-2.393,1.7-1.565a12.443,12.443,0,0,1,2.07,2.937Z"/><path class="a" d="M113.436,171.889c-.444.372-.943,1.109-1.317,1.05-1.563-.245-1.967-1.245-1.179-2.627A10.925,10.925,0,0,1,112,168.967Q112.721,170.426,113.436,171.889Z"/><path class="a" d="M337.769,190.329c-1.016-4.061,1.076-6.576,4.255-8.55C343.756,186.2,342.184,188.969,337.769,190.329Z"/><path class="a" d="M321.81,113.146c-.6-.155-1.494-.119-1.74-.5-.646-1,.162-1.614,1.983-1.31.569.1,1.051.708,1.573,1.084Z"/><path class="a" d="M173.824,210.166c1.807-.723,3.136-.3,3.532,1.711.08.4-.612,1.384-.909,1.368-2.017-.109-2.551-1.48-2.425-3.268Z"/><path class="a" d="M378.088,205.814c1.679,4.513-2.024,3.822-4.334,4.478C372.762,206.442,375.522,206.222,378.088,205.814Z"/><path class="a" d="M169.767,206.22c2.827-.205,4.732.541,4.061,3.943l.194-.186c-2.876.141-4.346-1.065-3.918-4.091Z"/><path class="a" d="M341.676,182.223c.61-2.355,1.722-4.2,4.466-4.383C345.748,180.415,345.564,183.206,341.676,182.223Z"/><path class="a" d="M441.088,213.027c-3.648.928-7.268,2.026-10.967,2.649-.8.134-2.208-1.268-2.761-2.278-.872-1.59-.078-2.665,1.689-2.68,3.927-.033,7.855-.01,11.783-.01Q440.959,211.868,441.088,213.027Z"/><polygon class="a" points="462.88 307.614 464.251 307.106 464.08 308.447 462.88 307.614"/><path class="b" d="M219.434,137.174c.32,3.923-2.655,4.865-5.9,5.433-3.37.591-6.372-.031-7.968-3.434-1.145-2.439,1.613-6.229,4.867-6.941C214.947,131.244,218.61,133.128,219.434,137.174Z"/></svg>