<svg xmlns="http://www.w3.org/2000/svg" viewBox="0 0 543.348 543.348"><defs><style>.a{fill:#df271f;}.b{fill:#fcfcfb;}</style></defs><path class="a" d="M272.7,36.429q108.977,0,217.954-.027c18.569-.017,17.72.31,17.718,17.343q-.025,218.9-.015,437.791c0,3.331.05,6.67-.163,9.991-.242,3.747-2.211,6.222-6.126,6.484-3.982.267-7.983.344-11.975.344q-217.953.024-435.907,0c-4,0-7.993-.114-11.987-.251s-6.081-2.657-6.4-6.262c-.409-4.633-.289-9.318-.289-13.981q-.018-215.895,0-431.792c0-21.122-1.448-19.624,19.237-19.632Q163.728,36.395,272.7,36.429Zm99.7,405.333c7.236-.3,8.517,10.193,16.577,8.9,6.539-1.052,13.533-.162,19.767-2.012,9.068-2.691,18.367-2.943,27.474-4.689,10.418-2,20.857-4.235,30.1-10.036,4.564-2.866,8.958-5.823,11.575-10.685a5.205,5.205,0,0,0,.552-3.685,3.652,3.652,0,0,0-2.688-2.131c-7.29.516-14.648.834-21.811,2.155-6.18,1.14-11.747-.193-17.648-1.452-14.706-3.138-13.53-14.215-9.3-22.832,1.139-2.318,3.267-4.152,4.956-6.2,12.847-15.554,28.49-27.858,45.621-38.228,7.509-4.545,14.577-9.3,19.646-16.566,3.959-5.677,6.514-11.6,2.364-19.382-5.18,3.077-9.985,6.417-15.195,8.913-7.98,3.823-15.712,2.546-22.238-3.339-5.825-5.253-5.115-11.927-2.411-18.412a126.91,126.91,0,0,1,7.035-14.216c5.294-9.235,11.254-18.105,16.232-27.5a120.08,120.08,0,0,0,13.868-57.618,31.718,31.718,0,0,0-1.016-7.835,4.1,4.1,0,0,0-2.845-2.266c-1.078-.19-2.969.338-3.429,1.156-2.921,5.2-5.532,10.571-8.27,15.874a10.517,10.517,0,0,1-9.844,5.716,9.918,9.918,0,0,1-9.105-6.649,40.486,40.486,0,0,1-2.591-11.567c-.463-5.963-.069-11.986-.328-17.971-1.216-28.139-6.3-55.565-17.267-81.55C437.04,85.46,430.37,73.829,420,64.94c-2.175-1.864-4.828-2.972-7.269-1.651s-3.157,4.174-2.262,6.937c1.231,3.8,3.116,7.422,3.986,11.287,2.612,11.6,7.547,22.792,6.308,35.093-1.3,12.946-12.09,20.663-24,12.229-9.747-6.9-19.365-13.989-28.928-21.142-9.58-7.166-18.273-15.67-29.471-20.389-5.334-2.248-10.908-4.588-17.02-2.77-2.082,7.763,5.958,9.081,8.87,13.665,1.358,2.137,3.988,3.464,6.037,5.163,17.5,14.51,33.475,30.351,45.314,50.042a187.094,187.094,0,0,0,14.812,21.3c11.784,14.561,15.818,31.981,19.02,49.677,1.435,7.931.279,15.952-2.319,23.645-4.421,13.09-11.9,16.908-24.635,11-15.764-7.315-29.826-17.235-40.662-31.215-4.054-5.229-6.6-11.725-12.391-15.484a2.815,2.815,0,0,0-4.448,1.907,18.7,18.7,0,0,0-.128,7.742c2.605,10.506,7.8,19.76,14.6,28.128a498.957,498.957,0,0,0,35.074,38.142c19.279,19.248,29.809,42.427,23.188,70.571-4.312,18.33-16.283,31.614-29.717,43.923-5.55,5.085-10.992,7.59-17.487,2.07-3.3-2.808-6.868-4.06-11.032-2.651-5.364,1.814-9.125-6-14.842-2.244-5.239,3.438-10.132.527-15.195-.988-1.519-.455-3.688.836-5.425,1.622a40.44,40.44,0,0,1-11.016,3.244,184.79,184.79,0,0,1-63.242-1.007c-8.8-1.689-17.923-3.589-26.812-3.687-6.151-.068-12.48-.554-18.7.062-2.158,8.586-9.226,6.1-14.789,6.212-7.156.141-12.114-4.757-17.394-8.79-21.113-16.12-32.089-54.649-18.133-81.647,8.335-16.126,18.147-31.078,32.245-42.7a162.59,162.59,0,0,0,19.911-19.557,66.919,66.919,0,0,0,14.805-30.1,10.346,10.346,0,0,0,.252-3.946c-.219-1.172-.822-2.74-1.723-3.181a3.631,3.631,0,0,0-3.409.761,110.832,110.832,0,0,0-8.113,11.352c-8.193,13.586-20.914,22.309-33.857,30.307-16.542,10.221-28.339,3.975-30.648-15.375a74.931,74.931,0,0,1,1.359-25.828c10.423-45.013,29.98-85.158,63.742-117.476,6.195-5.929,11.586-12.86,19.39-17.034,2.7-1.441,3.741-4.68,2.488-6.818-1.324-2.26-4.752-2.176-7.331-1.224-15.063,5.561-29.4,12.376-41.325,23.528-7.778,7.275-15.879,14.2-23.709,21.426a38.887,38.887,0,0,1-13.61,8.078c-8.321,2.968-14.321.775-17.685-7.246a47.344,47.344,0,0,1-2.107-31.291c1.548-5.777,3.361-11.482,4.95-17.248.563-2.046-.074-4.331-2.054-4.761a6.477,6.477,0,0,0-5.239,1.533,69.412,69.412,0,0,0-8.59,10.96,154.655,154.655,0,0,0-19.192,45.787,132.655,132.655,0,0,0-1.391,53.49c1.379,7.938,1.811,15.922-1.049,23.567-3.063,8.191-11.1,10.292-17.508,4.81-2.518-2.153-4.629-4.78-6.933-7.183-2-2.082-4.485-3.176-7.1-1.751-2.581,1.408-2.857,4.391-2.691,6.95a60.7,60.7,0,0,0,1.726,11.812c2.774,10.3,6.1,20.433,12.126,29.4,5.94,8.835,11.98,17.6,18.035,26.362,4.192,6.061,8.139,12.207,8.972,19.781,1.406,12.8-7.2,20.884-19.419,17.516-5.663-1.561-10.785-5-16.311-7.195a6.557,6.557,0,0,0-5.45.458,6.366,6.366,0,0,0-2.064,5.1c1.385,9.421,4.965,17.977,12.1,24.53,7.837,7.193,16.1,13.925,23.935,21.116,11.714,10.747,24.462,20.491,32.759,34.552,8.5,14.4,2.17,27.029-13.2,29.868-3.213.594-6.618.277-9.929.194-4.144-.1-9.041.071-10.494,4.051-2.058,5.635,3.735,7.779,7.256,10.328a43.878,43.878,0,0,0,28.337,8.109c20.926-1.159,40.278,6.1,60.038,8.578,2.141,5.646-.477,9.964-1.077,14.493-1.073,8.1,1.738,11.825,9.231,11.47,20.615-.98,41.267-1.66,61.813-3.487a346.778,346.778,0,0,1,51.794-1.186q36.827,2.229,73.643,4.64c9.037.606,14.3-4.988,11.828-13.268a54.106,54.106,0,0,0-3.892-9.186c-1.85-3.591-3.763-7.079-2.756-11.328Z"/><path class="b" d="M372.775,441.47c-1.007,4.249.906,7.737,2.756,11.328a54.106,54.106,0,0,1,3.892,9.186c2.468,8.28-2.791,13.874-11.828,13.268q-36.812-2.467-73.643-4.64a346.778,346.778,0,0,0-51.794,1.186c-20.546,1.827-41.2,2.507-61.813,3.487-7.493.355-10.3-3.367-9.231-11.47.6-4.529,3.218-8.847,1.077-14.493-19.76-2.474-39.112-9.737-60.038-8.578a43.878,43.878,0,0,1-28.337-8.109c-3.521-2.549-9.314-4.693-7.256-10.328,1.453-3.98,6.35-4.156,10.494-4.051,3.311.083,6.716.4,9.929-.194,15.367-2.839,21.695-15.467,13.2-29.868-8.3-14.061-21.045-23.805-32.759-34.552-7.838-7.191-16.1-13.923-23.935-21.116-7.14-6.553-10.72-15.109-12.1-24.53a6.366,6.366,0,0,1,2.064-5.1,6.557,6.557,0,0,1,5.45-.458c5.526,2.191,10.648,5.634,16.311,7.195,12.218,3.368,20.825-4.718,19.419-17.516-.833-7.574-4.78-13.72-8.972-19.781-6.055-8.757-12.1-17.527-18.035-26.362-6.026-8.964-9.352-19.1-12.126-29.4a60.7,60.7,0,0,1-1.726-11.812c-.166-2.559.11-5.542,2.691-6.95,2.611-1.425,5.1-.331,7.1,1.751,2.3,2.4,4.415,5.03,6.933,7.183,6.408,5.482,14.445,3.381,17.508-4.81,2.86-7.645,2.428-15.629,1.049-23.567a132.655,132.655,0,0,1,1.391-53.49A154.655,154.655,0,0,1,99.626,79.094a69.412,69.412,0,0,1,8.59-10.96,6.477,6.477,0,0,1,5.239-1.533c1.98.43,2.617,2.715,2.054,4.761-1.589,5.766-3.4,11.471-4.95,17.248a47.344,47.344,0,0,0,2.107,31.291c3.364,8.021,9.364,10.214,17.685,7.246a38.887,38.887,0,0,0,13.61-8.078c7.83-7.222,15.931-14.151,23.709-21.426C179.592,86.491,193.932,79.676,209,74.115c2.579-.952,6.007-1.036,7.331,1.224,1.253,2.138.208,5.377-2.488,6.818-7.8,4.174-13.195,11.105-19.39,17.034-33.762,32.318-53.319,72.463-63.742,117.476a74.931,74.931,0,0,0-1.359,25.828c2.309,19.35,14.106,25.6,30.648,15.375,12.943-8,25.664-16.721,33.857-30.307a110.832,110.832,0,0,1,8.113-11.352,3.631,3.631,0,0,1,3.409-.761c.9.441,1.5,2.009,1.723,3.181a10.346,10.346,0,0,1-.252,3.946,66.919,66.919,0,0,1-14.805,30.1,162.59,162.59,0,0,1-19.911,19.557c-14.1,11.619-23.91,26.571-32.245,42.7-13.956,27-2.98,65.527,18.133,81.647,5.28,4.033,10.238,8.931,17.394,8.79,5.563-.11,12.631,2.374,14.789-6.212,6.224-.616,12.553-.13,18.7-.062,8.889.1,18.008,2,26.812,3.687a184.79,184.79,0,0,0,63.242,1.007,40.44,40.44,0,0,0,11.016-3.244c1.737-.786,3.906-2.077,5.425-1.622,5.063,1.515,9.956,4.426,15.195.988,5.717-3.752,9.478,4.058,14.842,2.244,4.164-1.409,7.729-.157,11.032,2.651,6.5,5.52,11.937,3.015,17.487-2.07,13.434-12.309,25.405-25.593,29.717-43.923,6.621-28.144-3.909-51.323-23.188-70.571A498.957,498.957,0,0,1,345.41,250.1c-6.8-8.368-11.994-17.622-14.6-28.128a18.7,18.7,0,0,1,.128-7.742,2.815,2.815,0,0,1,4.448-1.907c5.789,3.759,8.337,10.255,12.391,15.484,10.836,13.98,24.9,23.9,40.662,31.215,12.73,5.906,20.214,2.088,24.635-11,2.6-7.693,3.754-15.714,2.319-23.645-3.2-17.7-7.236-35.116-19.02-49.677a187.094,187.094,0,0,1-14.812-21.3c-11.839-19.691-27.814-35.532-45.314-50.042-2.049-1.7-4.679-3.026-6.037-5.163-2.912-4.584-10.952-5.9-8.87-13.665,6.112-1.818,11.686.522,17.02,2.77,11.2,4.719,19.891,13.223,29.471,20.389,9.563,7.153,19.181,14.241,28.928,21.142,11.912,8.434,22.7.717,24-12.229,1.239-12.3-3.7-23.5-6.308-35.093-.87-3.865-2.755-7.49-3.986-11.287-.9-2.763-.189-5.61,2.262-6.937s5.094-.213,7.269,1.651c10.371,8.889,17.041,20.52,22.188,32.715,10.966,25.985,16.051,53.411,17.267,81.55.259,5.985-.135,12.008.328,17.971a40.486,40.486,0,0,0,2.591,11.567,9.918,9.918,0,0,0,9.105,6.649,10.517,10.517,0,0,0,9.844-5.716c2.738-5.3,5.349-10.675,8.27-15.874.46-.818,2.351-1.346,3.429-1.156a4.1,4.1,0,0,1,2.845,2.266,31.718,31.718,0,0,1,1.016,7.835,120.08,120.08,0,0,1-13.868,57.618c-4.978,9.395-10.938,18.265-16.232,27.5a126.91,126.91,0,0,0-7.035,14.216c-2.7,6.485-3.414,13.159,2.411,18.412,6.526,5.885,14.258,7.162,22.238,3.339,5.21-2.5,10.015-5.836,15.195-8.913,4.15,7.782,1.595,13.705-2.364,19.382-5.069,7.268-12.137,12.021-19.646,16.566-17.131,10.37-32.774,22.674-45.621,38.228-1.689,2.045-3.817,3.879-4.956,6.2-4.234,8.617-5.41,19.694,9.3,22.832,5.9,1.259,11.468,2.592,17.648,1.452,7.163-1.321,14.521-1.639,21.811-2.155a3.652,3.652,0,0,1,2.688,2.131,5.205,5.205,0,0,1-.552,3.685c-2.617,4.862-7.011,7.819-11.575,10.685-9.239,5.8-19.678,8.039-30.1,10.036-9.107,1.746-18.406,2-27.474,4.689-6.234,1.85-13.228.96-19.767,2.012-8.06,1.3-9.341-9.194-16.574-8.9a3.792,3.792,0,0,0,.109-1.61c-.122-.306-.821-.381-1.263-.559Z"/><path class="a" d="M372.775,441.47l-1.52-1.879c.442.178,1.141.253,1.263.559a3.792,3.792,0,0,1-.109,1.61Z"/></svg>