<svg xmlns="http://www.w3.org/2000/svg" viewBox="0 0 543.348 543.348"><defs><style>.a{fill:#dfcf06;}.b{fill:#fcfcfb;}</style></defs><path class="a" d="M272.309,507.557q-105.915,0-211.831-.014c-5.99,0-11.986-.071-17.971-.316-3.72-.152-6.235-2.121-6.48-6.024-.292-4.644-.408-9.307-.409-13.961q-.03-215.771-.011-431.541c0-3.995-.067-8,.139-11.983.343-6.635,2-8.452,8.1-8.742,4.654-.22,9.324-.118,13.987-.118q213.83-.006,427.658.019c24.922.008,22.854-2.445,22.86,22.135q.048,213.772,0,427.545c-.007,24.475,2.3,22.991-22.215,23Q379.224,507.574,272.309,507.557ZM93.105,191.221l-1.766,1.561c.552-.614,1.1-1.229,1.628-1.864l1.167-2.751ZM76.824,382.511l-.3-.358c-.264,8,4.614,13.692,8.986,19.529,14.094,18.821,31.374,33.794,50.955,47.112,26.808,18.234,55.058,32.212,86.53,39.608,16.875,3.966,33.924,6.776,51.415,6.125,40.588-1.511,72.38-43.349,57.361-83.468-6.352-16.964-14.1-32.335-27.957-45.142-20.068-18.541-38.821-38.394-63.864-50.552-5.384-2.613-10.43-5.991-15.947-8.246-23.944-9.792-47.556-19.615-73.961-22.743-29.692-3.519-52.053,7.286-71.05,27.945C63.659,328.994,55.274,358.718,76.824,382.511Zm23.955-207.955c6.821-7.249,13-15.26,20.579-21.61,27.542-23.087,55.893-44.7,89.749-58.649,18.909-7.791,37.765-12.123,57.908-12.327,5.116-.052,10.317,1.414,17.1-1.375-14.559-5.839-28.542-6.128-42.12-5.311-14.035.844-27.912,4.295-45.09,7.141,10.908-8.3,21.141-9.56,30.027-13.82s20.059.179,29.136-7.2c-5.605-5.179-13.673.442-18.623-6.081,15.491-2.835,29.484-.99,43.035,5.763,12.8,6.375,20.54,16.407,23.868,30.139,3.874,15.988-.327,30.358-9.28,43.462-9.454,13.841-21.345,25.5-34.762,35.5-27.315,20.351-56.808,37.028-87.852,50.957a56.226,56.226,0,0,1-15.127,4.618c-17.19,2.348-34.48,2.985-51.737.541a62.835,62.835,0,0,1-13.524-3.069c-12.837-4.889-20.95-13.448-21.536-28.124-.171-4.309,1.8-9.38-2.975-13.739-.627,6.373-.937,12.216-1.817,17.973-2.933,19.195,5.842,33.376,19.22,45.633,1.956,1.791,4.358,3.105,6.26,4.943,9.056,8.751,19.841,12.5,32.4,13.215,19.47,1.117,38-.643,56.8-7.214C205.646,247.8,228.541,239.7,250,227.3c32.787-18.951,55.9-46.545,74.081-78.862,7.458-13.252,9.594-27.539,5.1-42.42-5.092-16.861-13.067-31.956-26.649-43.651-10.922-9.406-23.3-15.656-37.927-15.35-22.721.474-44.882,4.131-66.222,12.546C169.626,70.9,144.168,87.739,119.9,106.406A184.741,184.741,0,0,0,87.6,138.9c-4.877,6.207-10.051,12.555-10.877,20.965-.176,1.793.225,5.024,2.04,4.2,6.1-2.784,14.459,3.3,18.97-4.915l4.443,4.821q-.546,5.459-1.1,10.908c-1.458.147-3.711-.359-1.983,2.409Q99.933,175.921,100.779,174.556ZM402.253,406.4c25.282,2.48,43.411-9.089,57.275-29.1,4.6-6.64,7.563-13.976,10.08-21.618,8.407-25.523,10.749-51.855,12.581-78.512,1.946-28.289-1.805-55.6-8.861-82.691-5.156-19.795-16.1-36.375-30.192-50.927-24.734-25.54-64.265-24.989-89.711-1.281a105.029,105.029,0,0,0-28.687,44.864c-12.169,37.586-17.518,75.933-13.151,115.82a149.981,149.981,0,0,0,20.877,61.665C348,390.541,369.853,407.748,402.253,406.4Z"/><path class="b" d="M97.72,159.126c-4.5,8.239-12.858,2.153-18.96,4.937-1.815.828-2.216-2.4-2.04-4.2.826-8.41,6-14.758,10.877-20.965a184.741,184.741,0,0,1,32.307-32.5c24.264-18.667,49.722-35.5,78.483-46.846,21.34-8.415,43.5-12.072,66.222-12.546,14.632-.306,27,5.944,37.927,15.35,13.582,11.7,21.557,26.79,26.649,43.651,4.494,14.881,2.358,29.168-5.1,42.42C305.9,180.752,282.791,208.346,250,227.3c-21.463,12.406-44.358,20.506-67.588,28.627-18.794,6.571-37.326,8.331-56.8,7.214-12.558-.72-23.343-4.464-32.4-13.215-1.9-1.838-4.3-3.152-6.26-4.943-13.378-12.257-22.153-26.438-19.22-45.633.88-5.757,1.19-11.6,1.817-17.973,4.774,4.359,2.8,9.43,2.975,13.739.586,14.676,8.7,23.235,21.536,28.124a62.835,62.835,0,0,0,13.524,3.069c17.257,2.444,34.547,1.807,51.737-.541a56.226,56.226,0,0,0,15.127-4.618c31.044-13.929,60.537-30.606,87.852-50.957,13.417-10,25.308-21.658,34.762-35.5,8.953-13.1,13.154-27.474,9.28-43.462C303.023,77.5,295.278,67.465,282.483,61.09c-13.551-6.753-27.544-8.6-43.035-5.763,4.95,6.523,13.018.9,18.623,6.081-9.077,7.376-20.242,2.934-29.136,7.2s-19.119,5.525-30.027,13.82c17.178-2.846,31.055-6.3,45.09-7.141,13.578-.817,27.561-.528,42.12,5.311-6.786,2.789-11.987,1.323-17.1,1.375-20.143.2-39,4.536-57.908,12.327-33.856,13.949-62.207,35.562-89.749,58.649-7.575,6.35-13.758,14.361-20.579,21.61l.3.33q.546-5.458,1.09-10.919c4.521-3.924,7.241-9,9.314-14.5,4.043-4.3,7.907-8.708,9.643-14.533,3.2-2.066,6.418-4.124,3.324-8.616,3.847.954,4.137-1.344,3.83-4.186,3.8,1.356,6.352-.634,8.643-3.262a6.028,6.028,0,0,1,.168-.595l-.057.879c-3.439-.529-6.552-.223-8.417,3.282q-1.92,2.136-3.851,4.26c-3.532.192-5.11,2.816-6.721,5.4a27.529,27.529,0,0,0-10.984,12.912C102.014,148.433,100.11,153.939,97.72,159.126Z"/><path class="b" d="M402.254,406.4c-32.4,1.351-54.259-15.856-69.79-41.776a149.981,149.981,0,0,1-20.877-61.665c-4.367-39.887.982-78.234,13.151-115.82a105.029,105.029,0,0,1,28.687-44.864c25.446-23.708,64.977-24.259,89.711,1.281,14.094,14.552,25.036,31.132,30.192,50.927,7.056,27.09,10.807,54.4,8.861,82.691-1.832,26.657-4.174,52.989-12.581,78.512-2.517,7.642-5.478,14.978-10.08,21.618C445.664,397.308,427.535,408.877,402.254,406.4Zm30.607-235.943c2.277,3.843,5.2,7.448,6.713,11.571,4.659,12.7,8.842,25.572,13.056,38.428.823,2.509,1.441,4.9,4.228,5.875a6.464,6.464,0,0,0-.041,1.768c.288,1.123.737,2.2,1.119,3.3.54-.629,1.524-1.25,1.534-1.887.03-1.807-.49-3.458-2.966-2.833,2.441-6.6.88-13.126-.649-19.536-1.843-7.726-4.3-15.3-6.223-23.011-.614-2.466-1.3-6.959-.359-7.447,8.845-4.584,3.711-9.449.5-13.939-3.466-4.843-7.365-9.4-11.3-13.876-11.836-13.464-35.975-15.85-49.865-1.469-6.511,6.742-12.409,13.794-16.19,22.456-6.363,14.582-12.887,29.093-19.111,43.733-2.6,6.128-3.465,12.7-4.231,19.344-3.455,29.974-.091,59.611,5.106,88.979a163.868,163.868,0,0,0,17.3,50.608c7.1,12.929,17.28,21.53,32.4,23.536,20.023,2.655,46.085-13.011,52.137-31.827.4-1.236-1.641-3.256-2.546-4.912l-2.94-2.733c4.06-16.519,9.818-32.726,10.256-54.646-3.8,7.127-5.838,10.231-7.182,13.613-5.127,12.9-10.015,25.891-15.021,38.837-2.153,5.571-4.2,11.274-9.774,14.478-.789.453-2.238-.032-3.293-.364a1.778,1.778,0,0,1-.725-1.6c.971-2.421,1.775-5.013,3.257-7.107,11.081-15.654,15.149-33.474,17.089-52.17,3.3-31.853,1.518-63.31-3.723-94.92-2.371-14.305-6.482-28.21-8.248-42.583Z"/><path class="b" d="M76.824,382.511c-21.55-23.793-13.165-53.517,2.167-70.19,19-20.659,41.358-31.464,71.05-27.945,26.405,3.128,50.017,12.951,73.961,22.743,5.517,2.255,10.563,5.633,15.947,8.246,25.043,12.158,43.8,32.011,63.864,50.552,13.86,12.807,21.605,28.178,27.957,45.142,15.019,40.119-16.773,81.957-57.361,83.468-17.491.651-34.54-2.159-51.415-6.125-31.472-7.4-59.722-21.374-86.53-39.608C116.883,435.476,99.6,420.5,85.509,401.682c-4.372-5.837-9.25-11.524-8.985-19.527,2.152,2.481,4.7,4.717,6.375,7.485,4.092,6.777,9.732,7.808,16.932,6.125,1.707-.4,3.674-.012,5.736-1.617-3.8-16.75-20.787-29.706-15.444-51.121,1.895,3.35,3.441,5.386,4.284,7.68,9.062,24.65,27.55,42.163,46.752,58.263,20.307,17.027,42.819,31.276,67.866,41.014,17.395,6.763,34.773,12.923,53.858,12.4,6.875-.189,13.781.751,22.489,1.288-14.874,6.469-28.271,7.025-42.306,4.892a237.584,237.584,0,0,1-42.3-10.924c-5.017-1.742-9.8-4.1-15.28-4-1.175-3.376-4.381-4.431-7.1-5.9-.785-.424-2.228.373-3.37.61.28,1,.3,2.195.885,2.953,2.1,2.713,5.059,3.683,8.423,3.551,2.857,5.071,8.146,6.824,13,8.516,11.9,4.148,24.034,7.653,36.1,11.325,3.136.955,7.776,1.509,6.988,5.388-1.254,6.174,2.115,6.819,6.244,6.936,8.648.245,17.372.842,25.947.039,27.523-2.58,43.431-26.91,34.5-53.226-6.031-17.772-15.045-33.846-28.726-47.385-11.52-11.4-25.6-18.96-38.2-28.653-28.7-22.072-62.306-32.485-96.586-41.116-8.9-2.241-18.5-1.881-27.8-2.376-9.623-.513-18.345,2.676-26.595,7.37-17.319,9.855-23.963,26.875-17.767,45.809C73.09,372.536,75.02,377.5,76.824,382.511Zm53.7,42.19,4.671,3.336c.877.773,1.7,2.1,2.643,2.193,1.577.162,3.235-.462,4.86-.755-.9-1.311-1.746-2.673-2.747-3.905-.329-.4-1.074-.47-1.636-.682l-5.054-2.981a4.8,4.8,0,0,0-4.266-3.72c-.863-3.278-3.716-4.5-6.262-6.032-1.609-1.313-3.143-4.314-5.422-1.733-2.386,2.7.874,3.636,2.483,4.923,1.127,3.063,3.8,4.283,6.529,5.411C127.72,422.079,129.116,423.4,130.524,424.7ZM107.3,401.715c.525-.509.955-.925,1.385-1.34a11.91,11.91,0,0,0-2.561-1.177c-.312-.069-.822.773-1.241,1.2Z"/><path class="b" d="M92.993,190.939q-.827.921-1.654,1.843l1.766-1.561Z"/><path class="b" d="M93.105,191.221l1.029-3.054c-.389.917-.778,1.834-1.154,2.762C92.993,190.939,93.105,191.221,93.105,191.221Z"/><path class="b" d="M100.779,174.556q-.846,1.365-1.691,2.73c-1.728-2.768.525-2.262,1.988-2.405Z"/><path class="a" d="M121.128,134.935c-1.736,5.824-5.6,10.237-9.643,14.532q-2.212-2.232-4.424-4.463a27.439,27.439,0,0,1,10.991-12.9C119.081,133.058,120.1,134,121.128,134.935Z"/><path class="a" d="M111.485,149.467c-2.073,5.5-4.793,10.576-9.314,14.5q-2.219-2.408-4.446-4.83c2.385-5.2,4.289-10.7,9.338-14.131Q109.271,147.235,111.485,149.467Z"/><path class="a" d="M124.451,126.317c3.1,4.493-.125,6.551-3.323,8.617-1.024-.937-2.047-1.876-3.076-2.827,1.606-2.595,3.184-5.219,6.716-5.411Z"/><path class="a" d="M128.613,122.43c1.871-3.5,4.984-3.805,8.423-3.276l-.092-.277c-2.31,2.621-4.857,4.611-8.656,3.261Z"/><path class="a" d="M137.036,119.154l.057-.879a6.028,6.028,0,0,0-.168.595A2.047,2.047,0,0,1,137.036,119.154Z"/><path class="a" d="M124.768,126.7q1.929-2.127,3.851-4.26l-.331-.3c.3,2.836.011,5.134-3.836,4.18Z"/><path class="a" d="M456.858,226.326c-2.787-.975-3.405-3.364-4.228-5.873-4.214-12.856-8.4-25.731-13.056-38.428-1.513-4.123-4.436-7.728-6.72-11.564q-2.14-1.971-4.266-3.954l-.85-.961,1.162.661c.383,2.44,1.312,4.281,4.265,3.919,1.766,14.373,5.877,28.278,8.248,42.583,5.241,31.61,7.027,63.067,3.723,94.92-1.94,18.7-6.008,36.516-17.089,52.17-1.482,2.094-2.286,4.686-3.257,7.107a1.778,1.778,0,0,0,.725,1.6c1.055.332,2.5.817,3.293.364,5.571-3.2,7.621-8.907,9.774-14.478,5.006-12.946,9.894-25.939,15.021-38.837,1.344-3.382,3.386-6.486,7.182-13.613-.438,21.92-6.2,38.127-10.243,54.652-1.171,1.492-2.639,3.437-.913,4.868,1.988,1.647,3.023-.526,3.84-2.141.905,1.656,2.943,3.676,2.546,4.912-6.052,18.816-32.114,34.482-52.137,31.827-15.12-2.006-25.3-10.607-32.4-23.536a163.868,163.868,0,0,1-17.3-50.608c-5.2-29.368-8.561-59-5.106-88.979.766-6.641,1.626-13.216,4.231-19.344,6.224-14.64,12.748-29.151,19.111-43.733,3.781-8.662,9.679-15.714,16.19-22.456,13.89-14.381,38.029-12,49.865,1.469,3.939,4.479,7.838,9.033,11.3,13.876,3.215,4.49,8.349,9.355-.5,13.939-.942.488-.255,4.981.359,7.447,1.92,7.709,4.38,15.285,6.223,23.011,1.529,6.41,3.09,12.94.649,19.536Z"/><path class="a" d="M456.5,226.678c2.476-.625,3,1.026,2.966,2.833-.01.637-.994,1.258-1.534,1.887-.382-1.1-.831-2.179-1.119-3.3a6.472,6.472,0,0,1,.041-1.769Z"/><path class="a" d="M76.824,382.511c-1.8-5.008-3.734-9.975-5.389-15.031-6.2-18.934.448-35.954,17.767-45.809,8.25-4.694,16.972-7.883,26.6-7.37,9.3.5,18.892.135,27.8,2.376,34.28,8.631,67.883,19.044,96.586,41.116,12.606,9.693,26.683,17.254,38.2,28.653,13.681,13.539,22.7,29.613,28.726,47.385,8.931,26.316-6.977,50.646-34.5,53.226-8.575.8-17.3.206-25.947-.039-4.129-.117-7.5-.762-6.244-6.936.788-3.879-3.852-4.433-6.988-5.388-12.067-3.672-24.2-7.177-36.1-11.325-4.855-1.692-10.144-3.445-13-8.516l1.172-1.223c5.47-.089,10.254,2.266,15.271,4.008a237.584,237.584,0,0,0,42.3,10.924c14.035,2.133,27.432,1.577,42.306-4.892-8.708-.537-15.614-1.477-22.489-1.288-19.085.525-36.463-5.635-53.858-12.4-25.047-9.738-47.559-23.987-67.866-41.014-19.2-16.1-37.69-33.613-46.752-58.263-.843-2.294-2.389-4.33-4.284-7.68-5.343,21.415,11.646,34.371,15.444,51.121-2.062,1.6-4.029,1.218-5.736,1.617-7.2,1.683-12.84.652-16.932-6.125-1.671-2.768-4.223-5-6.375-7.485ZM251.484,480.5c.568.131,1.254.532,1.683.344,1.237-.54.827-1.091-1.092-1.2C251.9,479.629,251.682,480.2,251.484,480.5Z"/><path class="a" d="M184.326,454.853c-3.364.132-6.321-.838-8.423-3.551-.587-.758-.6-1.957-.885-2.953,1.142-.237,2.585-1.034,3.37-.61,2.72,1.469,5.926,2.524,7.1,5.9Z"/><path class="a" d="M138.323,424.879c.554.221,1.3.287,1.628.691,1,1.232,1.843,2.594,2.747,3.905-1.625.293-3.283.917-4.86.755-.946-.1-1.766-1.42-2.643-2.193Q136.76,426.459,138.323,424.879Z"/><path class="a" d="M126.308,420.793c-2.716-1.165-5.387-2.385-6.514-5.448l2.948-3.213c2.537,1.551,5.39,2.777,6.253,6.055A21.554,21.554,0,0,0,126.308,420.793Z"/><path class="a" d="M107.3,401.715l-2.418-1.319c.42-.425.93-1.267,1.242-1.2a11.91,11.91,0,0,1,2.561,1.177C108.255,400.79,107.825,401.206,107.3,401.715Z"/><path class="a" d="M119.794,415.345c-1.609-1.287-4.869-2.221-2.483-4.923,2.279-2.581,3.813.42,5.427,1.722C121.76,413.2,120.777,414.274,119.794,415.345Z"/><path class="a" d="M129,418.187a4.8,4.8,0,0,1,4.266,3.72,31.518,31.518,0,0,0-2.748,2.819c-1.4-1.323-2.793-2.647-4.2-3.951A22.094,22.094,0,0,1,129,418.187Z"/><path class="a" d="M135.2,428.037q-2.335-1.668-4.677-3.323a32.269,32.269,0,0,1,2.743-2.807q2.528,1.491,5.058,2.977Z"/><polygon class="b" points="428.902 166.204 427.738 165.546 428.586 166.511 428.902 166.204"/><path class="b" d="M433.165,170.126c-2.953.362-3.882-1.479-4.265-3.919l-.314.3q2.133,1.974,4.268,3.95Z"/><path class="b" d="M453.469,359.317c-.817,1.615-1.852,3.788-3.84,2.141-1.726-1.431-.258-3.376.913-4.868C451.509,357.5,452.489,358.406,453.469,359.317Z"/><path class="b" d="M251.484,480.5c.2-.3.411-.87.591-.859,1.919.112,2.329.663,1.092,1.2C252.738,481.031,252.052,480.63,251.484,480.5Z"/></svg>