<svg xmlns="http://www.w3.org/2000/svg" viewBox="0 0 543.348 543.348"><defs><style>.a{fill:#2d9e54;}.b{fill:#fcfcfb;}</style></defs><path class="a" d="M322.877,441.882c9.781,3.55,9.773,3.548,11.59-2.895.527-1.868,1.753-3.8,1.541-5.562-.443-3.693-3.437-7.826,3.269-8.927,5.3-.871,9.17.749,11.351,5.739a19.619,19.619,0,0,1,.885,3.878c.6,2.9,1.991,4.7,5.343,4.264,3.612-.474,4.164-2.649,3.19-5.572-1.355-4.066.522-6.374,4.145-7.381,5.655-1.573,16.263,2.3,19.174,7.011.324.523-.925,2.93-1.665,3.045-3.884.6-7.88.5-11.752,1.151-2.574.433-5.021,1.783-4.782,5.105.232,3.225,2.872,4.188,5.337,5.079,3.9,1.408,7.805.916,11.715-.219,14.087-4.089,28.222-7.7,43.142-5.387,3.411.528,6.229-1.225,9.112-3.174,8.677-5.869,17.467-7.38,27.7-2.409,6.14,2.984,13.711,3.04,20.657,4.317a1.922,1.922,0,0,0,1.563-1.009,2.449,2.449,0,0,0-.486-1.874,9.159,9.159,0,0,0-2.579-2.878c-3.242-1.76-8.939-1.785-7.1-7.394,1.314-4.017,6.173-4.473,9.977-5.46,1.265-.328,2.653-.141,3.962-.34,4.414-.669,9.986,3.827,12.957-.665,2.288-3.46,1.6-8.87,2.322-13.4.08-.5.686-.926,1.034-1.368,2.9-.149,3.052,2.1,3.059,3.937q.16,39.678.147,79.355c0,4.66-.118,9.322-.27,13.981-.128,3.894-2.256,6.144-6.11,6.332-4.656.226-9.327.18-13.992.18q-215.946.012-431.894,0c-21.849,0-20.741,1.705-20.689-20.406.171-72.626.5-145.251.5-217.877,0-71.957-.3-143.913-.515-215.87-.058-19.38-.2-18.326,18.813-18.324q217.947.018,435.894.016c18.765,0,18.291-1.656,18.286,18.61q-.033,148.925-.094,297.848c-.006,5.824,1.256,11.816-2.627,17.365-3.209,4.585,1.331,8.738,2.163,13.131,1.459,7.713-.168,11.234-8.193,12.687-6.931,1.255-12.072,5.352-17.981,8.25-6.551,3.212-13,6.678-19.732,9.465-6.939,2.875-6.988,2.517-13.469-5.646-2.371-2.986-5.254-4.677-6.269.974-.584,3.247-2.878,4.482-5.286,5.1-14.167,3.619-28.386,7.039-42.624,10.367a16.1,16.1,0,0,1-5.9-.154c-3.76-.571-5.822-6.6-3.172-9.432,1.329-1.421,3.281-2.244,4.711-3.593a44.605,44.605,0,0,0,3.7-4.457c-2.919-2.992-6.269-2-9.206-1.566-11.214,1.651-22.371,3.783-33.5-.455-1.2-.457-2.839-.87-3.9-.422-15.054,6.335-30.261,1.2-45.218.031-11.057-.867-20.793,3.548-31.29,4.23a15.926,15.926,0,0,1-.135-1.969c.558-11.415.106-12.187-9.612-10.379-4.076.758-8.958-.5-13.188,4.042,7.1,5.808,14.1,9.787,23.333,7.9-.952,4.422-4.837,5.087-7.615,3.847-15.941-7.11-32.852-2.08-49.127-4.448a7.21,7.21,0,0,0-3.894.313c-2.606,1.232-5.035,2.841-7.535,4.3-.494-4.328-4.011-5.052-7.1-4.88-6.173.345-12.048-8.466-18.673-.423-.906,1.1-5-.427-7.619-.734-5.863-.688-11.737-1.994-17.491-.279-.169,4.561,3.217,5.786,5.561,7.945,1.945,1.791,3.337,4.124,1.6,6.952-1.507,2.451-3.99,4.21-6.561,3.721-11.073-2.109-22.064-4.65-33.07-7.1a103.22,103.22,0,0,1-11.553-2.978c-2.347-.816-5.148-1.54-5.671-4.846-.792-5-3.491-5.166-6.47-1.912-7.515,8.21-7.545,8.6-15.556,5.226-7.9-3.326-15.518-7.342-24.1-11.46-4.575,11.437-9.4,22.7-13.574,34.2-2.833,7.8,1.906,12.785,10.439,11.24,3.169-.574,6.121-2.347,10.053-3.928-3.907-2.7-7.152-4.757-10.125-7.148-.691-.556-.59-2.261-.585-3.436a1.86,1.86,0,0,1,1.154-1.336c5.984-1.345,11.8.107,17.582,1.376.953.21,2.429,2.094,2.233,2.815-1.169,4.3.538,6.439,4.664,6.446,25.742.042,51.575,2.749,77.158-2.056,4.762-.894,9.725-1.546,13.684.572,7.474,4,15.711,1.584,23.23,4.053,1.9.624,3.83.828,5.051-1.391,1.554-2.824.974-4.994-1.889-6.523-2.632-1.405-4.221-3.927-2.948-6.426,1.793-3.515,4.476-6.463,9.288-6.319,4.159.126,6.6,1.959,5.819,6.842-.686,4.294.677,7.875,2.1,11.406,1.169,2.908,4.334,2.424,6.828,1.478,3.23-1.226.485-3.129.26-4.707-.693-4.863.406-6.373,4.315-5.574,10.384,2.122,20.742,4.377,31.143,6.413,3.811.746,7.63,2.342,11.577-.071,5.622-3.437,11.342-3.129,17,.18,4.6,2.689,9.046-.3,13.573-.476,4.829-.184,9.915-4.531,14.472,1.363,1.874,2.424,3.018-.794,4.18-1.9,2.088-1.989,4.587-2.5,7.309-2.5Zm-173.1-236.815c.935-2.4,2.43-4.74,2.676-7.207.393-3.96-.379-7.838-5.312-8.807-5.412-1.063-9.706,1.051-10.8,5.5a56.48,56.48,0,0,0-1,7.7c-.511,4.99,1.352,6.781,6.393,6.74,3.615-.03,5.972-2.114,8.37-4.3.254,1.827,1.344,4.158.6,5.388-2.352,3.91-5.562,7.291-8.1,11.1-2.267,3.4-1.36,8.741,1.97,10.559,5.757,3.143,11.746,5.874,17.708,8.628,2.522,1.165,5.821,1.291,7.429-.672a132.524,132.524,0,0,0,11.135-16.142c.62-1.04-.755-3.743-1.84-5.212-1.518-2.054-3.628-3.671-5.485-5.475,4.512-1.715,7.519,1.411,10.269,3.815,4.6,4.026,9.34-4.2,11.949-.492,3.974,5.647-7.746,4.519-6.175,11.312a29.266,29.266,0,0,1-2.51,19.058c-.2.426,1.605,1.815,2.478,2.757l.225-.2c-5.016-5.656-10.311-3.193-15.453-.351-1.877,1.037-1.424,6,.565,6.926,1.749.812,3.748,1.07,5.565,1.761,8.575,3.264,10.485,6.185,9.011,14.7-.558,3.224-2.316,6.236-2.911,9.458-.659,3.569,4.3,10.71,7.046,10.846,2.871.142,8.952-5.722,9.259-9.276.165-1.911-.38-3.878-.563-5.824-.308-3.291-.722-6.581-.84-9.881-.164-4.583,2.122-7.517,6.6-8.538a44.564,44.564,0,0,1,7.829-1.284c5.99-.267,10.112,3.5,10.456,9.509.151,2.635.613,5.687-.449,7.881-4.355,9-.151,15,6.728,20.846,5.82-5.515,11.262-10.443,6.287-20.022-1.937-3.732-.6-9.138,1.465-13.5,1.533-3.239,3.921-5.382,7.635-5.309,5.816.114,12.084-1.933,17.009,2.941a5.451,5.451,0,0,1,1.3,3.669c-.122,4.61.865,9.948-1.1,13.671-4.831,9.137.416,12.916,6.692,16.929,4.851-4.335,8.9-8.563,5.6-15.564-.813-1.725-.837-3.879-.982-5.854-1.034-14.036,1.345-16.534,15.115-16.016.664.025,1.331.024,1.992.077,6,.487,8.424,2.46,8.693,8.577.289,6.569-.692,13.2-.251,19.751.261,3.868,2.891,8.217,6.589,8.783,4.205.642,6.251-4.263,8.494-7.348.988-1.357.669-3.835.56-5.782-.223-3.972-1.019-7.929-1.018-11.893,0-8.932,3.758-12.239,12.215-11.218,11.823,1.426,14.525,5.269,12.125,17.469-.246,1.249-1.19,2.348-1.7,3.562-1.529,3.648.106,6.493,2.717,8.74,2.286,1.968,3.012,5.679,6.6,6.174,5.141-5.456,10.147-10.4,5.018-18.868-2.334-3.853-1.983-9.094.676-13.381,2.419-3.9,6.733-3.645,10.556-4.49a10.564,10.564,0,0,0,3.355-1.851c1.519-1.036,1.521-6.438-.08-7.166a41.664,41.664,0,0,0-5.594-1.805c-9.158-2.678-9.556-3.093-9.929-11.663-.115-2.649.227-5.328-.015-7.958-.55-6,2-9.9,7.128-12.939,6.842-4.053,13.28-8.781,20-13.052,5.925-3.766,6.962-9.258,6.031-15.593,13.148,2.369,26.283-.36,39.429-.1,14.352.282,15.093-.569,15.731-15.608.195-4.593,1.191-9.147-.482-13.722-1.2-3.276-2.6-6.233-6.569-6.248-13.859-.05-27.72-.043-41.577.152a6.182,6.182,0,0,0-6.416,6.228c-.193,9.895.147,19.8.277,29.7-9.256-2.587-15.024-10.583-23.165-14.928-5.454-2.911-8.195-2.806-11.972,2.038-5.283,6.776-10.147,13.877-15.291,20.763-3.523,4.716-2.551,8.436,2.027,11.743,2,1.442,4.476,2.93,1.624,7.346a23.518,23.518,0,0,0-12.58-2.848c-6.114.142-9.408-2.858-12.245-8.158-3.5-6.545-9.544-6.332-12.21.683-2.025,5.333-4.6,7.39-9.924,7.42-13.06.074-13.994-.563-17.492-13.255-.669-2.427-1.518-4.806-2.353-7.422-1.6,1.165-3.149,1.707-3.559,2.713a63.3,63.3,0,0,0-2.115,7.622c-2.331,8.741-3.01,9.345-11.826,10.039-6.774.534-12.766,1.142-14.805-8.44-1.142-5.367-9.89-5.487-12.183.01-2.843,6.816-7.246,8.737-13.768,8.869-3.829.078-7.647.772-12.031,1.25-.3-6.592,7.628-7.845,7.742-13.46,11.338-.418,21.345-5.5,31.712-9.236a6.873,6.873,0,0,0,3.712-4.072c2.951-10.948.732-22.428-6.116-29.9-6.492-7.085-15.991.454-23.939,2.954a20.017,20.017,0,0,0-5.071,3.06c-14.028,9.819-16.624,6.282-5.367,23.646,2.767,4.268,7.982,7.575,5.391,13.912-7.645-7.378-12.776-16.606-18.76-25.223-3.231-4.653-7.448-5.376-12-2.337q-8.982,6-17.465,12.729c-7.709,6.115-7.273,9.307,1.313,15.982a136.424,136.424,0,0,1,10.343,9.115c1.586,1.513,1.177,3.492.156,5.294C166.847,207.756,159.519,202.859,149.781,205.067ZM341.9,125.058c.019-4.7.248-10.489-5.7-10.938-6.887-.52-5.7-9.292-11.074-9.6-5.811-.334-11.717.993-17.581,1.595-2.506,8.818-10.106,6.664-16.336,7.775-4.313.769-6.892,3.544-6.469,8.325.232,2.619.482,5.237.667,7.859.77,10.96.7,11.583,10.351,13.635,21.021,4.469,22.794,9.981,24.81-16.419,12.4,2.235,12.4,2.235,21.623-2.625.7,15.472,4.132,19.584,17.484,20.75,1.972.173,3.989-.233,5.979-.164,16.461.577,32.9-1.762,49.369-.422a11.774,11.774,0,0,0,5.837-.781c1.584-.764,3.558-2.538,3.684-4.013.137-1.591-1.3-4.3-2.7-4.839a34.4,34.4,0,0,0-9.607-1.647c-4.049-.312-8.128,2.47-11.456,2.151-4.575-.439-1.574-6.849-3.85-9.813-1.123-1.462-3.212-3.33-4.683-3.185-7.766.761-9.27-6.712-13.939-9.925-3.306-3.152-6.946-7.755-11.642-5.209-6.35,3.442-11.141.861-16.629-1.27-2.938-1.141-6.319-1.182-9.517-1.58-.519-.064-1.559.54-1.614.938-.162,1.177-.414,2.75.189,3.557a18.758,18.758,0,0,0,13.1,7.658c9.314,1.228,18.038-.6,26.45-4.482-2,8.925-2,8.963-8.646,9.044C360.5,121.549,350.745,119.727,341.9,125.058Zm59.97,96.012c5.474,4.049,8.411,11.544,16.45,12.109-1.19-.5-2.632-1.7-3.53-1.374-7.382,2.64-14.573,5.831-21.994,8.346-18.159,6.156-18,7.335-15.213,23.711,1.091,6.419.6,12.841,3.753,19.231,3.071,6.225-6.558,10.383-5.537,17.3.377,2.55-.791,5.335-.384,7.873,1.981,12.328,2.443,14.554,14.494,13.264,3.942-.422,7.967-.011,11.929-.315,4.578-.352,7.349-3.1,7.516-7.647.194-5.291-.317-10.6-.272-15.9.024-2.888,1.315-5.069,4.759-4.475,6.588,1.137,10.34-1.145,10-8.242-.087-1.8.37-2.8,2.136-2.513a4.932,4.932,0,0,1,2.979,1.5c.743.982.806,2.454,1.276,3.671,2.041,5.283,6.138,6.605,11.225,5.449,4.533-1.03,6.294-4.433,6.567-8.751.167-2.646.229-5.3.212-7.956-.094-15-2.134-16.436-18.077-12.236-1.562.411-2.4,1.084-3.919-1.706,1.792-10-.112-20.66-8.394-29.415,5.437.727,8.423-.829,9.369-7.041.819-5.381-3.025-9.943-1.944-14.95,4.975-2.209,9.372-2.222,13.81-.079-11.034,8.341-11.484,9.351-9.7,21.749.094.656.248,1.3.366,1.956,1.6,8.8,6.035,12.232,15.2,11.753,4.525-.236,9.267-4.325,9.084-8.794-.269-6.561-.661-13.257-2.269-19.573-1.052-4.134-1.309-6.958,1.3-10.664,1.673-2.377,1.5-6.28,1.564-9.511.132-6.159-1.656-8.026-8.323-8.145-7.936-.142-15.908-.1-23.815.507-9.111.7-11.088,2.085-10.633,10.618.406,7.62-1.26,12.441-8.644,15.116-.9.325-.721,3.606-1.046,5.511-3.352-3.148-7.009-6.033-9.993-9.5-6.848-7.947-6.548-7.769-15.076-2.889-6.435,3.681-11.983,8-16.279,14.694,1.913,2.878,3.889,5.5,5.5,8.333,6.655,11.724,9.827,10.343,20.988,5.344,3.007-1.347,5.753-3.266,8.738-4.669C401.144,230.366,401.616,225.805,401.873,221.07ZM201.628,113.37a13.052,13.052,0,0,1,.487-1.926c.708-1.7,2.328-3.53,2.038-5.005-.42-2.136-2.9-2.458-4.92-1.971-3.209.773-6.749,1.165-9.452,2.841-5.911,3.666-11.2,1.456-16.882-.219-1.322-.39-4.109,1.2-4.9,2.62-1.729,3.087,1.467,4.637,3.343,6.01a10.087,10.087,0,0,0,5.587,1.444c8.595.077,17.243.213,25.1-4.2-.008,1.32-.074,2.643-.015,3.96.545,12.142,2.7,14.3,14.016,10.906,4.917-1.475,5.547-.223,5.735,3.663.158,3.276-.192,6.631.4,9.817.933,5.027,5.371,7.141,10.4,5.93,6.411-1.545,11.577-6.67,18.613-6.315,6.75.342,7.2-4.294,7.154-9.206-.023-2.6-2.4-5.835,1.864-7.368,3.405,3.727-.792,8.073,1.618,11.562,1.067,1.545,2.058,3.583,3.593,4.291,7.729,3.56,16.272-.666,15.454-8.716-.459-4.526,2.9-8.652-.651-14.649-11.582,3.3-23.2-1.8-35.328-3.335-3.375-.426-6.062-.954-8.031-4.386-4.174-7.272-11.953-3.587-18.036-5-3.905-.908-4.989,2.924-6.583,5.935C210.023,114.211,205.6,113.606,201.628,113.37Zm-56.317,36.035c-11.264,0-21.875.554-32.391-.206-6.394-.463-10.133.956-11.552,7.373-.451,2.041-1.567,2.134-2.582.433a5.55,5.55,0,0,1-.892-1.667c-.611-3.426-.555-6.847,3.084-8.534,2.337-1.083,5.2-1.037,7.528-2.131,2.972-1.4,3.5-7.034,1.355-10.611-1.559-2.6-5.819-2.714-8.637.1-3.285,3.283-8.2,6.455-9.014,10.377-1.746,8.435-9.012,5.673-13.412,8.38-2.808,1.727-4.172-.344-5.931-2.8-5.762-8.034-7.652-8.447-12.177-.807-2.406,4.061-5.851,4.8-9,6.874-1.526,1-3.452,2.7-3.613,4.245a123.227,123.227,0,0,0-.6,17.894c.05,1.188,2.822,3.2,4.377,3.24,14.436.351,28.73,4.35,43.284,1.744,1.867-.335,4.158-.828,5.7-.089,15.278,7.344,31.183,2.052,46.774,2.466,5.4.144,8.8-3.237,8.9-8.467.172-8.6-.277-17.218-.367-25.83a18.2,18.2,0,0,1,.818-3.841h14.394c-9.962,1.05-10.774,1.355-10.3,7.728.411,5.548-.862,11.6,1.3,15.245,4.308,2.045,5.948.655,7.575-.376,6.652-4.217,12.612-9.822,21.728-7.908,2.06.432,5-1.664,7.053-3.231,3.583-2.735,11.511-3.238,10.45-7.658-1.525-6.356-8.86-1.7-13.478-2.914a16.048,16.048,0,0,1-3.194-1.722c3.62-5.589,7.894-10.9,5.766-18.28-1-3.46-2.605-6.44-6.365-6.559-11.775-.373-23.637-1.244-35.322-.247-10.841.925-11.079,2.2-11.247,12.23C145.248,138.366,145.311,142.872,145.311,149.405ZM115.145,272.584c11.331,11.191,24.17,8.851,35.516,12.283,6.006,1.817,10.582-1.511,11.827-7.509,1.614-7.78,2.7-15.685,3.675-23.577.527-4.24-.964-7.311-5.508-9.239a154.118,154.118,0,0,0-24.365-8.262c-4.732-1.133-5.2-4.328-1.55-8.737,3.092-3.735,6.979-9.7,2.615-11.892-7.1-3.564-6.951-8.546-7.344-14.428-.849-12.7-.915-13.033-13.437-13.139-7.893-.067-15.806.931-23.688,1.687-2.988.287-4.473,2.639-4.75,5.435-.455,4.587-1.339,9.375,2.112,13.293,1.315,1.493,2.775,2.711,1.485,4.834-4.839,7.96-2.636,16.9-2.928,25.317-.182,5.241-1.656,6.881-6.226,7.709-2.87.52-4.244,2.992-4.165,5.875.09,3.316,2.515,4.261,5.3,4.357,7.959.276,15.926.367,23.883.712,2.011.087,4.942-.473,5.132,3.171-19.063,2.449-19.356,2.8-18.55,21.711a33.08,33.08,0,0,0,.269,3.963c.743,4.5,3.421,6.9,7.993,7.3,4.379.38,7.986-.583,9.244-5.36C112.682,284.319,113.4,280.477,115.145,272.584Zm-3.007,66.736c-1.53-2.846-2.545-7.612-4.684-8.184-6.973-1.868-14.395-2.75-21.516.05-3.846,1.513-4.9,5.741-3.733,12.248.707,3.943,3.023,5.666,6.751,5.748,7.309.161,14.624.115,21.93.35a3.246,3.246,0,0,1,3.056,4.073c-.292,1.639-.969,3.759-3.877,2.74-11.649-4.082-23.716-2.407-35.654-2.23-1.89.028-4.223.54-5.515,1.734-1.218,1.125-1.678,3.424-1.784,5.247a3.627,3.627,0,0,0,2.322,2.657c5.826.983,12.272-.4,17.291,3.626,8.676,6.957,20.539,9.645,26.567,20.252,1.429,2.515,4.673,2.158,6.966.165,2.471-2.148,5.028-4.15,6.005-7.673,1.423-5.127-.833-9.624-5.841-10.485-4.181-.719-8.983,1.607-12.569-2.395,2.119-3.641,4.7-8.523,8.927-6.035,11.367,6.692,23.363,3.5,35.089,3.589,11.013.088,13.941-1.75,14.12-12.084.145-8.385,4.152-13.156,10.662-17.931-13.114-9.015-26.114-11.487-40.346-7.687a59.324,59.324,0,0,1-5.887,1.083C118.912,330.029,118.911,330.023,112.138,339.32Zm325.016-42.226c-3.979,0-7.99.325-11.93-.065-9.135-.9-11.843,1.666-12.14,10.99-.451,14.158,1.172,16.048,15.424,15.981a125.128,125.128,0,0,0,15.884-.762c2.542-.338,4.863-1.737,7.476-.239,7.408,4.247,15.625,1.769,23.439,2.661,2.6.3,5.43-.16,6.3-3.366.89-3.286,1.368-7.133-2.221-8.741-5.284-2.367-10.9-3.811-2.1-9.1-2.1-9.836,5.011-18.467,3.709-28.18-.5-3.711-2.8-6.145-6.5-6.3a74.71,74.71,0,0,0-13.888.508c-5.956.871-8.7,4.758-8.882,11.273-.234,8.446.889,10.138,8.895,12.622,1.763.547,5.008.036,4.611,2.255-.608,3.4-1.987,7.735-4.519,9.339-1.7,1.08.6-3.858-1.5-5.352-1.523-1.085-3.5-3.57-4.364-3.214C448.746,299.929,443.032,296.545,437.154,297.094Zm63.376,68.745c4.637-6.96-1.183-12.731-1.853-19.044-1.444-13.6-.269-14.918-17.073-15.455a72.469,72.469,0,0,0-11.887.8c-3.075.412-4.014,2.962-4.329,5.7-.889,7.723,1.073,9.943,9.526,10.774,1.949.192,4.081-.159,5.82.524,1.994.784,2.9,2.792.854,4.5-2.12,1.771-2.78,5.469-7.647,3.171-12.441-5.874-25.612-3.184-38.507-1.215-4.487.685-5.314,3.469-2.227,8.369,1.591,2.526,3.164,4.264-.834,5.18-2.538.581-5.281.193-7.908.47-7.426.782-8.737,2.541-7.77,10.33a15.166,15.166,0,0,0,1.094,3.809c1.546,3.772.469,6.36-3.4,7.629-3.672,1.2-8.726,1.4-8.5,6.587.348,7.784,7.178,2.858,10.787,4.445,2.777,1.22,6.5.669,9.741.333,2.863-.3,5.853,3.951,8.479.064-1.114-3.3-2.233-6.309-3.15-9.382-2.266-7.589.829-12.089,7.519-16.177,21.684-13.251,21.524-13.541,46.32-12.464C490.718,365.011,495.832,365.5,500.53,365.839ZM366.759,334.806c5.007,4.763,10.248,7.922,9.217,15.241-.433,3.071.861,6.492,1.812,9.619a6.452,6.452,0,0,0,5.761,4.691c11.83,1.026,23.694,1.446,35.5-.03,4.409-.551,6.688-3.776,6.88-8.268.112-2.636.206-5.274.216-7.911.062-17.361-.15-16.448-17.441-20.3C393.931,324.557,380.453,324.223,366.759,334.806ZM471.778,226.455c-2.036,3.295-5.424,2.863-8.575,3.149-4.2.381-5.315,3.423-5.362,6.888-.043,3.15,2.339,4,5.058,4.806,11.221,3.333,22.3.137,33.415-.529,1.8-.108,3.293-1.793,3.686-4.054.467-2.7.714-5.383-1.49-7.3-1.452-1.264-3.383-2.56-5.2-2.721-6.835-.6-8.538-4.9-8.967-10.779-.131-1.8-1.557-3.509-2.23-4.921,3.565-4.147,8.967-1.721,13.051-4.057,2.747-1.571,3.714-4.287,2.479-6.695-5.261-10.251-22.109-15.892-34.58-10.422-7.654,3.357-4.361,11.343-3.981,17.723a27.675,27.675,0,0,1-.621,5.622c-1.434,9.556-1.251,9.54,9.921,11.532C469.583,224.908,470.651,225.85,471.778,226.455Zm21.686-58.311c2.651-7.7-1.1-12.634-9.77-14.765-.922-.227-1.472-1.9-2.227-2.88-6.142-7.965-6.549-8.255-11.359-1.59-2.212,3.066-4.16,5.92-7.472,3.549-3.173-2.272-7.859,2.694-10.015-3.2-2.564-7.012-7.968-12.176-13.89-16.574-2.586-1.92-5.154-.618-6.744,1.748-2.964,4.412-1.78,9.595,3.371,10.684,7.2,1.521,10.262,5.214,10.3,12.21.023,3.987.472,7.978.369,11.958-.108,4.2,1.4,7.739,3.47,11.236,1.439,2.426,3.124,4.425,6.106,4.212,10.581-.755,21.172-1.47,31.711-2.636a6.743,6.743,0,0,0,6.127-6.748C493.558,173.367,493.464,171.376,493.464,168.144ZM272.06,145.27c-7.64,0-12.294-.3-16.9.073-5.9.473-9.431,4.788-8.829,10.861.583,5.876,1.788,11.689,2.636,17.541,1.556,10.745,1.532,10.738,11.838,11.74,3.92.381,7.838,1.209,11.752,1.174,19.677-.174,20.165-.75,21.433-21.231.2-3.3.432-6.607.91-9.874.729-4.982-2.227-7.125-6.21-8.623C282.307,144.528,275.631,145.4,272.06,145.27ZM53.751,191.322c.138,5.865-.646,11.8,2.521,18.416,3.91,8.173,1.038,12.729-7.031,16.706-1.188.585-2.474.972-3.668,1.548-3.672,1.771-3.724,4.976-3.388,8.423.313,3.223,2.415,4.121,5.16,4.888,16.569,4.625,17.276,4.649,34.618-.545,2.778-.832,4.788-2.235,4.169-5.445-.533-2.758-2.1-4.928-5.081-5.35-4.952-.7-10.137-.315-14.607-3.387,2.749-2.755,6.222-1.949,9.451-2.275,10.637-1.075,11.053-1.459,7.516-11.4a23.588,23.588,0,0,1-1.445-9.656c1.057-16.275-2.234-14.4-15.985-14.323C62.088,188.941,57.964,188.028,53.751,191.322ZM165.7,386.123c-.535-2.15-1.289-4.611-1.747-7.126-1.671-9.189-2.163-9.772-10.874-9.715a109.38,109.38,0,0,0-15.807.814c-4.129.634-7.43,3.374-7.091,8.057.429,5.9,1.393,11.71.509,17.708-.483,3.28,3.232,5.9,6.6,5.244,1.9-.371,4.067-.571,5.565-1.626,9.732-6.853,20.365-7.421,31.432-4.746,6.31,1.525,12.97.08,19.206,3.088,2.783,1.342,4.379-2.093,4.882-4.675.4-2.036-.78-4.347-2.919-3.884-5.735,1.243-9.41.488-12.288-5.644-1.642-3.5-6.805-3.148-10.665-1.1C170.4,383.632,169.648,386.894,165.7,386.123ZM303.571,152.409c-1.826,7.538-3.748,15.159-5.476,22.822a28.576,28.576,0,0,0-.312,5.93c-.026,2.709.346,5.791,2.922,6.856,7.844,3.241,15.459,8.278,24.079,7.985,7.721-.263,8.243-9.4,12.863-13.817,2.315-2.216,3.73-5.4,5.436-8.216,1.578-2.607,1.109-5.247-1.224-6.94C330.635,158.884,319.42,150.556,303.571,152.409ZM90.062,284.761c.428-11.5-1.837-14.127-13.589-14.663-5.087-.232-10.868-2.093-14.693,3.426-1.057,1.526-2.342,1.74-2.96-.061-1.991-5.8-9.264-4.49-12.157-9.59-1.7-3-5.943-1.878-7.594,1.132-3.937,7.185-2.117,13.2,5.1,15.977,3.656,1.4,7.493,4.349,11.363,2.606,5.643-2.542,7-.054,7,4.689,0,3.337,4.241,6,2.067,9.125-1.186,1.7-4.624,1.662-6.7,2.963a22.359,22.359,0,0,0-5.913,5.277c-1.05,1.389-1.859,3.846-1.337,5.314.664,1.868,3.364,2.246,5.034,1.215,4.528-2.794,8.661-6.042,14.536-5.7,5.761.337,8.722-2.236,7.12-8.507-.741-2.9,1.781-3.195,3.571-3.269C87.537,294.418,90.566,291.124,90.062,284.761Zm60.045,3.767c-3.29,0-6.589-.146-9.868.039-3.624.2-6.205,1.763-6.226,5.917-.01,1.974-.112,3.948-.17,5.922-.621,21.132-.62,21.132,19.7,21.124,10.24,0,11.522-.99,12.888-10.382a36.6,36.6,0,0,0,.51-7.807C165.964,289.657,164.061,288.024,150.107,288.528Zm-36.713,8.644c-.008-.114-.017-.229-.025-.343-4.546.209-9.136.1-13.624.728a6.511,6.511,0,0,0-5.958,6.685,117.327,117.327,0,0,0,.757,13.718c.418,3.734,3.04,5.71,6.656,5.885,6.545.316,13.117.655,19.649.356a11.1,11.1,0,0,0,6.833-3.221c3.08-3.223,3.128-16.6.274-20.728a7.8,7.8,0,0,0-4.78-2.946C119.977,296.839,116.661,297.172,113.394,297.172Zm278.748,72.569c-.008-.2-.015-.411-.022-.616-3.252.3-6.589.247-9.72,1.027-1.614.4-3.874,2.113-4.1,3.513-.92,5.714-2.113,11.9,1.483,16.959,3.525,4.964,8.327,1.026,12.6.5,4.539-.554,9.151-.688,13.615-1.584a6.42,6.42,0,0,0,4.019-3.638c3.222-9.448-.685-15.577-10.034-16.14C397.382,369.608,394.758,369.741,392.142,369.741Zm-9.835-204.816c.475-12.971-1.559-15.289-14.11-15.778-8.644-.337-17.293-.724-25.939-.715-3.424,0-8.756-2.881-9.6,2.882-.507,3.472,4.413,4.039,7.15,5.582,2.314,1.305,4.618,3.828,6.9,3.792,11.317-.176,20.012,5.78,29.121,11.115,2.552,1.5,5.1.128,6.027-2.928A20.978,20.978,0,0,0,382.307,164.925ZM62.764,331.756l-.075-.954c-3.859.518-7.76.825-11.563,1.612-3.995.827-6.754,7.455-5.687,12.966.633,3.27,5.576,7.028,9.009,5.648,5.683-2.285,11.414-2.186,17.264-2.524,4.707-.272,6.728-3.85,6.568-10.182-.127-5.022-3.044-6.743-7.665-6.582C68,331.831,65.381,331.756,62.764,331.756Zm380.578,17.29,0,.067a80.027,80.027,0,0,0,9.789-.115c1.72-.212,4-1.176,4.818-2.531,4.911-8.077.656-16.392-8.377-16.668-3.919-.121-7.849.084-11.772.179-4.57.11-7.323,2.394-7.872,6.971-.231,1.935-.053,3.917-.1,5.876-.086,3.889,1.7,6.092,5.677,6.207C438.116,349.107,440.73,349.046,443.342,349.046ZM195.3,362.179c-2.633-4.183-8.669-5.138-10.06-11.015-.825-3.482-4.944-4.134-8.157-1.911-2.56,1.771-5.885,3.847-3.06,7.749,3.027,4.179,2.531,6.575-2.532,8.667-2.886,1.193-1.555,4.534-.809,6.989.84,2.763,2.634,4.62,5.7,4.213,2.594-.344,5.718-.452,7.533-1.958,2.25-1.868-.559-4.427-.921-6.729-.359-2.285,1.118-3.5,3.247-3.8C189.232,363.95,192.7,365.705,195.3,362.179ZM84.144,307.949c-6.234,1.619-12.667,3.078-18.959,5-4.04,1.234-3.8,4.918-3.454,8.223.326,3.122,2.435,4.224,5.427,4.4,21.992,1.319,22.685.712,23.516-21.722a7.525,7.525,0,0,0-.5-3.821,4.161,4.161,0,0,0-2.988-1.961c-1.094.022-2.362,1.04-3.21,1.946C81.665,302.485,83.992,304.984,84.144,307.949ZM61.613,265.461c2.811-.169,6.355.646,8.855-2.135,3.01-3.35,2.353-7.5,1.269-11.231-1.093-3.772-7.129-5.323-14.049-4.273-4.593.7-4.2,4.4-4.355,7.511C52.91,263.674,54.387,265.448,61.613,265.461Zm418.308-.048c2.863-.351,6.74.884,8.618-2.563,2.281-4.187,1.777-8.727.119-13.155a2.506,2.506,0,0,0-3-1.913c-3.893.38-7.875.264-11.669,1.066-1.455.308-3.1,2.372-3.626,3.974C467.805,260.608,471.388,265.3,479.921,265.413Zm-36.049-8.339c6.657-.313,11.892-.383,17.083-.9a3.887,3.887,0,0,0,3.632-3.748c.138-3.061-1.546-5.131-4.359-5.476-9.793-1.2-19.361.537-28.826,2.893-1.486.371-1.99,1.657-1.354,3.155.457,1.077,1.081,2.813,1.824,2.92C436.309,256.559,440.8,256.812,443.872,257.074Zm-37.25-56.536c0-1.312.107-2.635-.019-3.934-.61-6.305-3.743-8.472-10.887-7.607-4.633.561-6.731,4.574-5.259,10.465a20.221,20.221,0,0,0,2.241,5.38c2.366,3.966,6.2,4.637,10.251,3.6C407.075,207.393,406.66,203.758,406.622,200.538ZM83.8,403.836c.461-.261.939-.5,1.38-.787,6.392-4.206,12.791-8.4,19.13-12.684.324-.219.326-1.314.1-1.838-.24-.551-1.021-1.349-1.413-1.271-1.867.369-4.177.466-5.433,1.627-6.489,6-13.064,10-21.708,3.833-.593-.423-2.332.758-3.538,1.193.579.906.976,2.362,1.768,2.623,3.494,1.155,7.75.107,9.531,5.277C84.293,403.759,81.138,403.821,83.8,403.836ZM128.093,145c4.138-.316,7.383.114,10.37-1.883,2.018-1.351,2.865-5.117.992-6.565-5.373-4.152-14.5-4.37-19.912-.263-.9.68-1.822,2.5-1.511,3.345.612,1.659,1.794,3.713,3.266,4.31C123.636,144.894,126.405,144.782,128.093,145ZM374.9,390.186c-.006-6.022-3.909-9.438-10.242-8.964-4.229.316-7.452,3.951-6.924,7.807.525,3.833,6.241,6.886,12.588,6.545C373.585,395.4,374.316,392.791,374.9,390.186ZM487.043,312.8c-.465,3.583-2.272,6.646-.337,9.858,1.684,2.795,4.441,2.455,6.909,2.085a2.955,2.955,0,0,0,2.472-4.153c-1.675-4.781-3.411-9.552-5.427-14.195-.347-.8-2.27-1.408-3.326-1.239a3.189,3.189,0,0,0-1.857,2.553A24.652,24.652,0,0,0,487.043,312.8ZM366.754,377.124c5.474-.066,6.226-3.779,6.529-7.831.146-1.941-.01-3.872-2.468-4.146-5.083-.567-11.612,3.725-11.274,7.962C359.878,377.318,364.217,376.177,366.754,377.124Zm2.675-22.651c-9.889-2.669-15.393,2.846-21.832,5.013-.413.139-.7,2.593-.193,3.064.718.671,2.859,1.079,3.289.6C355.213,358.152,361.531,357.015,369.429,354.473ZM112.168,403.141c3.212-.264,4.458-.434,5.707-.458,4.182-.08,7.622-1.3,8.276-6.011a4.317,4.317,0,0,0-1.417-3.361c-3.192-2.5-9.843-2.212-12.539.5a8.861,8.861,0,0,0-1.618,3.456c-.6,1.812-1.046,3.68-1.556,5.524Zm-38.916-29.2c-.743-.842-1.476-2.411-2.272-2.444a10.964,10.964,0,0,0-8.348,3.733c-.4.416.143,2.486.851,3.1,2.173,1.89,4.564,1.387,6.787-.188C71.747,377.1,73.541,376.269,73.252,373.942ZM217.756,137.2c0-.622.252-1.434-.042-1.9a7.29,7.29,0,0,0-6.575-3.366c-3.358-.019-6.736.564-8.08,3.919-.489,1.222.717,4.03,1.979,4.872,3.513,2.343,7.444,1.816,10.955-.357C216.881,139.813,217.173,138.3,217.756,137.2Zm-90.367,147.6c-4.771-.705-7.459.471-8.242,3.013-.865,2.8.949,4.957,4.121,5.428,2.889.43,5.611-.4,6.353-3.185C130.368,287.241,128.748,285.012,127.389,284.79ZM339.07,137.323c-.263-4.427-3.611-4.946-6.9-5.23-2.769-.239-5.134.793-6.179,3.6-1.077,2.9,1.665,5.887,5.778,6.143C335.135,142.051,338.328,141.637,339.07,137.323Zm-117.8,265.124.457,1.823c2.484.243,4.967.5,7.452.728,2.419.227,4.836.419,6.627-1.728-2.068-2.013-4.61-1.524-7.1-1.335C226.222,402.122,223.743,402.277,221.266,402.447Zm72.675-2.429c-4.759-1.4-7.134-2.232-9.571-2.8-5.359-1.24-10.959.546-9.43,2.623,2.345,3.186,5.872,2.539,9.067,2.3C286.549,401.95,289.04,401.1,293.941,400.018Zm41.835-1.388c2.989,3.431,6.906,3.225,10.788,2.509,1.085-.2,1.967-1.5,2.941-2.3-.932-.849-1.733-2.157-2.819-2.465C342.762,395.263,338.939,395.417,335.776,398.63Z"/><path class="a" d="M263.652,423.134c-6.908,1.637-12.861,8.363-19.674,4.565-4.648-2.59-8.514-5.612-14.134-4.64-2.192.379-2.542-.463-1.016-2.091.438-.467.723-1.078,1.167-1.538,3.149-3.27,7.036-2.842,10.927-2.039C248.479,418.95,255.4,422.891,263.652,423.134Z"/><path class="a" d="M280.782,422.03c7.9.535,14.694-3.553,22.174-5.07,3.388-.687,6.616-.182,9.087,2.371.649.669.432,2.175.612,3.3C302.059,422.334,291.569,435.75,280.782,422.03Z"/><path class="a" d="M102.556,420.025c4.283.523,7.754.189,10.228,2.765.762.793.927,2.251,1.121,3.445a1.674,1.674,0,0,1-1.032,1.277c-6.242.276-12.547,2.81-18.686-.176-.945-.46-1.4-2.049-1.94-3.184-.637-1.341.022-2.243,1.758-2.564C97.193,421,100.383,420.422,102.556,420.025Z"/><path class="a" d="M173.429,435a26.753,26.753,0,0,1-5.389-1.121c-.98-.4-2.245-1.908-2.143-2.769.211-1.774.9-4.6,2.022-4.941a24.975,24.975,0,0,1,9.39-.847c2.527.227,4.9,1.745,5.166,4.78.3,3.476-2.741,3.769-4.96,4.594C176.365,435.123,174.976,434.908,173.429,435Z"/><path class="a" d="M193.382,444.271c-1.808,2.5-3.719,5.081-7.388,4.787-2.97-.238-4.623-2.339-4.335-4.979.323-2.95,2.924-3.81,5.691-3.748A6.114,6.114,0,0,1,193.382,444.271Z"/><path class="a" d="M319.318,436.642c1.513-2.279,3.941-4.531,6.123-2.364,3.291,3.271.1,5.635-2.564,7.6Z"/><path class="b" d="M173.96,213.264c1.027-1.8,1.436-3.779-.15-5.292a136.424,136.424,0,0,0-10.343-9.115c-8.586-6.675-9.022-9.867-1.313-15.982q8.462-6.711,17.465-12.729c4.551-3.039,8.768-2.316,12,2.337,5.984,8.617,11.115,17.845,18.76,25.223l-.31-.347c-.126,5.6-8.053,6.852-7.754,13.444,4.384-.478,8.2-1.172,12.031-1.25,6.522-.132,10.925-2.053,13.768-8.869,2.293-5.5,11.041-5.377,12.183-.01,2.039,9.582,8.031,8.974,14.805,8.44,8.816-.694,9.5-1.3,11.826-10.039a63.3,63.3,0,0,1,2.115-7.622c.41-1.006,1.962-1.548,3.559-2.713.835,2.616,1.684,5,2.353,7.422,3.5,12.692,4.432,13.329,17.492,13.255,5.323-.03,7.9-2.087,9.924-7.42,2.666-7.015,8.709-7.228,12.21-.683,2.837,5.3,6.131,8.3,12.245,8.158a23.518,23.518,0,0,1,12.58,2.848c2.852-4.416.371-5.9-1.624-7.346-4.578-3.307-5.55-7.027-2.027-11.743,5.144-6.886,10.008-13.987,15.291-20.763,3.777-4.844,6.518-4.949,11.972-2.038,8.141,4.345,13.909,12.341,23.165,14.928l-.39-.4c.928,6.333-.109,11.825-6.034,15.591-6.72,4.271-13.158,9-20,13.052-5.13,3.038-7.678,6.942-7.128,12.939.242,2.63-.1,5.309.015,7.958.373,8.57.771,8.985,9.929,11.663a41.664,41.664,0,0,1,5.594,1.805c1.6.728,1.6,6.13.08,7.166a10.564,10.564,0,0,1-3.355,1.851c-3.823.845-8.137.591-10.556,4.49-2.659,4.287-3.01,9.528-.676,13.381,5.129,8.47.123,13.412-5.018,18.868-3.585-.5-4.311-4.206-6.6-6.174-2.611-2.247-4.246-5.092-2.717-8.74.509-1.214,1.453-2.313,1.7-3.562,2.4-12.2-.3-16.043-12.125-17.469-8.457-1.021-12.215,2.286-12.215,11.218,0,3.964.8,7.921,1.018,11.893.109,1.947.428,4.425-.56,5.782-2.243,3.085-4.289,7.99-8.494,7.348-3.7-.566-6.328-4.915-6.589-8.783-.441-6.548.54-13.182.251-19.751-.269-6.117-2.693-8.09-8.693-8.577-.661-.053-1.328-.052-1.992-.077-13.77-.518-16.149,1.98-15.115,16.016.145,1.975.169,4.129.982,5.854,3.3,7-.753,11.229-5.6,15.564-6.276-4.013-11.523-7.792-6.692-16.929,1.968-3.723.981-9.061,1.1-13.671a5.451,5.451,0,0,0-1.3-3.669c-4.925-4.874-11.193-2.827-17.009-2.941-3.714-.073-6.1,2.07-7.635,5.309-2.064,4.365-3.4,9.771-1.465,13.5,4.975,9.579-.467,14.507-6.287,20.022-6.879-5.845-11.083-11.847-6.728-20.846,1.062-2.194.6-5.246.449-7.881-.344-6.007-4.466-9.776-10.456-9.509a44.564,44.564,0,0,0-7.829,1.284c-4.479,1.021-6.765,3.955-6.6,8.538.118,3.3.532,6.59.84,9.881.183,1.946.728,3.913.563,5.824-.307,3.554-6.388,9.418-9.259,9.276-2.743-.136-7.705-7.277-7.046-10.846.595-3.222,2.353-6.234,2.911-9.458,1.474-8.512-.436-11.433-9.011-14.7-1.817-.691-3.816-.949-5.565-1.761-1.989-.924-2.442-5.889-.565-6.926,5.142-2.842,10.437-5.305,15.457.347.888.716,1.816,1.388,2.644,2.167,3.177,2.986,5.424,3.475,4.644.827-.727-2.472-2.509-1.788-4.21-1.867a14.748,14.748,0,0,1-3.307-.925c-.873-.942-2.683-2.331-2.478-2.757a29.266,29.266,0,0,0,2.51-19.058c-1.571-6.793,10.149-5.665,6.175-11.312-2.609-3.706-7.345,4.518-11.949.492-2.75-2.4-5.757-5.53-10.269-3.815Zm139.531,31.243c7.172-.28,14.163,3.112,21.441.988,3.467-1.011,5.978-2.947,6.338-6.662a50.282,50.282,0,0,0-.142-7.938c-.549-8.782-2.215-10.749-10.688-10.521-7.26.2-14.576,1.718-19.281-6.118-.2-.337-3.883.585-4.912,1.8a3.486,3.486,0,0,0,.8,5.165c9.833,5.76,9.129,14.4,6.736,23.591a45.836,45.836,0,0,0-4.232,4,11.755,11.755,0,0,0-1.363,3.274c1.1.33,2.376,1.161,3.256.855a3.918,3.918,0,0,0,2.088-2.679A32.048,32.048,0,0,0,313.491,244.507ZM301.9,232.041c.084-10.027-1.365-11.538-11.194-11.486-2.634.014-5.268.308-7.9.3-5.293-.008-6.7,3.776-6.956,7.807a25.379,25.379,0,0,0,1.437,9.545c2.424,7.087,15.973,10.036,21.695,4.882C302.319,240.088,301.858,235.972,301.9,232.041Zm-100,.552c.162,4.214-1.31,8.432,2.444,11.358,3.489,2.72,15.151,3.116,18.873.473,3.534-2.51,4.075-6.494,4.179-10.518.3-11.805-1.254-13.038-11.49-13.261-1.963-.043-3.93-.4-5.882-.314-4.337.191-7.548,1.876-7.871,6.785C202.024,229.077,201.969,231.042,201.9,232.593Zm39.421-2.871c-.059,13.708,2.705,16.561,13.469,15.635,9.27-.8,15.858-12.913,10.755-20.916-3.8-5.959-10.81-3.28-16.474-3.963-2.738-.331-5.609.649-6.738,3.171C241.3,225.962,241.45,228.8,241.32,229.722Zm-7.268,19.356-3.288,1.353c.525,1.1.774,2.754,1.63,3.174,1.951.956,3.874.291,4.024-2.153C236.463,250.713,234.889,249.874,234.052,249.078ZM348.407,214.4a19.54,19.54,0,0,0-2.317,2.929c-.718,1.416-.11,2.574,1.466,2.67a10.9,10.9,0,0,0,3.156-.761Z"/><path class="b" d="M145.311,149.405c0-6.533-.063-11.039.012-15.543.168-10.034.406-11.3,11.247-12.23,11.685-1,23.547-.126,35.322.247,3.76.119,5.367,3.1,6.365,6.559,2.128,7.382-2.146,12.691-5.766,18.28a16.048,16.048,0,0,0,3.194,1.722c4.618,1.217,11.953-3.442,13.478,2.914,1.061,4.42-6.867,4.923-10.45,7.658-2.051,1.567-4.993,3.663-7.053,3.231-9.116-1.914-15.076,3.691-21.728,7.908-1.627,1.031-3.267,2.421-7.575.376-2.164-3.641-.891-9.7-1.3-15.245-.472-6.373.34-6.678,10.3-7.728H156.963a18.2,18.2,0,0,0-.818,3.841c.09,8.612.539,17.227.367,25.83-.1,5.23-3.506,8.611-8.9,8.467-15.591-.414-31.5,4.878-46.774-2.466-1.537-.739-3.828-.246-5.7.089-14.554,2.606-28.848-1.393-43.284-1.744-1.555-.037-4.327-2.052-4.377-3.24a123.227,123.227,0,0,1,.6-17.894c.161-1.547,2.087-3.24,3.613-4.245,3.151-2.077,6.6-2.813,9-6.874,4.525-7.64,6.415-7.227,12.177.807,1.759,2.453,3.123,4.524,5.931,2.8,4.4-2.707,11.666.055,13.412-8.38.813-3.922,5.729-7.094,9.014-10.377,2.818-2.817,7.078-2.7,8.637-.1,2.146,3.577,1.617,9.213-1.355,10.611-2.329,1.094-5.191,1.048-7.528,2.131-3.639,1.687-3.695,5.108-3.084,8.534a5.55,5.55,0,0,0,.892,1.667c1.015,1.7,2.131,1.608,2.582-.433,1.419-6.417,5.158-7.836,11.552-7.373C123.436,149.959,134.047,149.405,145.311,149.405Zm-32.583,19.721c-.441-1.76-1.326-2.026-2.522-.682-.772.868-1.406,1.859-2.1,2.794,1.125.285,2.4,1.016,3.326.705C112.1,171.718,112.317,170.117,112.728,169.126Z"/><path class="b" d="M115.145,272.584c-1.743,7.893-2.463,11.735-3.456,15.5-1.258,4.777-4.865,5.74-9.244,5.36-4.572-.4-7.25-2.8-7.993-7.3a33.08,33.08,0,0,1-.269-3.963c-.806-18.912-.513-19.262,18.55-21.711-.19-3.644-3.121-3.084-5.132-3.171-7.957-.345-15.924-.436-23.883-.712-2.789-.1-5.214-1.041-5.3-4.357-.079-2.883,1.3-5.355,4.165-5.875,4.57-.828,6.044-2.468,6.226-7.709.292-8.42-1.911-17.357,2.928-25.317,1.29-2.123-.17-3.341-1.485-4.834-3.451-3.918-2.567-8.706-2.112-13.293.277-2.8,1.762-5.148,4.75-5.435,7.882-.756,15.8-1.754,23.688-1.687,12.522.106,12.588.435,13.437,13.139.393,5.882.239,10.864,7.344,14.428,4.364,2.19.477,8.157-2.615,11.892-3.65,4.409-3.182,7.6,1.55,8.737a154.118,154.118,0,0,1,24.365,8.262c4.544,1.928,6.035,5,5.508,9.239-.979,7.892-2.061,15.8-3.675,23.577-1.245,6-5.821,9.326-11.827,7.509C139.315,281.435,126.476,283.775,115.145,272.584Zm6.3-36.152c-.884-2.369-2.338-3.446-4.3-3.326-5.286.323-4.936,4.969-5.779,8.338-.372,1.489.6,3.523,1.485,5,.278.462,2.966.339,3.348-.269C118.209,242.958,119.838,239.505,121.445,236.432Z"/><path class="b" d="M417.849,232.993c8.282,8.756,10.186,19.411,8.394,29.416,1.519,2.79,2.357,2.117,3.919,1.706,15.943-4.2,17.983-2.762,18.077,12.236.017,2.652-.045,5.31-.212,7.956-.273,4.318-2.034,7.721-6.567,8.751-5.087,1.156-9.184-.166-11.225-5.449-.47-1.217-.533-2.689-1.276-3.671a4.932,4.932,0,0,0-2.979-1.5c-1.766-.288-2.223.718-2.136,2.513.34,7.1-3.412,9.379-10,8.242-3.444-.594-4.735,1.587-4.759,4.475-.045,5.3.466,10.612.272,15.9-.167,4.544-2.938,7.295-7.516,7.647-3.962.3-7.987-.107-11.929.315-12.051,1.29-12.513-.936-14.494-13.264-.407-2.538.761-5.323.384-7.873-1.021-6.918,8.608-11.076,5.537-17.3-3.152-6.39-2.662-12.812-3.753-19.231-2.785-16.376-2.946-17.555,15.213-23.711,7.421-2.515,14.612-5.706,21.994-8.346.9-.322,2.34.879,3.53,1.374Z"/><path class="b" d="M112.144,339.317c6.767-9.294,6.768-9.288,18.274-11.139a59.324,59.324,0,0,0,5.887-1.083c14.232-3.8,27.232-1.328,40.346,7.687-6.51,4.775-10.517,9.546-10.662,17.931-.179,10.334-3.107,12.172-14.12,12.084-11.726-.093-23.722,3.1-35.089-3.589-4.226-2.488-6.808,2.394-8.927,6.035,3.586,4,8.388,1.676,12.569,2.395,5.008.861,7.264,5.358,5.841,10.485-.977,3.523-3.534,5.525-6.005,7.673-2.293,1.993-5.537,2.35-6.966-.165-6.028-10.607-17.891-13.295-26.567-20.252-5.019-4.024-11.465-2.643-17.291-3.626a3.627,3.627,0,0,1-2.322-2.657c.106-1.823.566-4.122,1.784-5.247,1.292-1.194,3.625-1.706,5.515-1.734,11.938-.177,24-1.852,35.654,2.23,2.908,1.019,3.585-1.1,3.877-2.74a3.246,3.246,0,0,0-3.056-4.073c-7.306-.235-14.621-.189-21.93-.35-3.728-.082-6.044-1.805-6.751-5.748-1.166-6.507-.113-10.735,3.733-12.248,7.121-2.8,14.543-1.918,21.516-.05C109.593,331.708,110.608,336.474,112.144,339.317Zm12.125,12.745c1.042-.5,2.518-.732,3.071-1.573,1.069-1.624,1.017-3.35-1.171-4.425-1.452-.713-2.43-.512-2.839,1.071C122.879,348.881,122.519,350.691,124.269,352.062Z"/><path class="b" d="M437.154,297.094c5.878-.549,11.592,2.835,17.693.312.86-.356,2.841,2.129,4.364,3.214,2.1,1.494-.205,6.432,1.5,5.352,2.532-1.6,3.911-5.94,4.519-9.339.4-2.219-2.848-1.708-4.611-2.255-8.006-2.484-9.129-4.176-8.895-12.622.181-6.515,2.926-10.4,8.882-11.273a74.71,74.71,0,0,1,13.888-.508c3.7.157,6,2.591,6.5,6.3,1.3,9.713-5.8,18.344-3.709,28.18-8.8,5.285-3.183,6.729,2.1,9.1,3.589,1.608,3.111,5.455,2.221,8.741-.868,3.206-3.7,3.663-6.3,3.366-7.814-.892-16.031,1.586-23.439-2.661-2.613-1.5-4.934-.1-7.476.239a125.128,125.128,0,0,1-15.884.762c-14.252.067-15.875-1.823-15.424-15.981.3-9.324,3-11.895,12.14-10.99C429.164,297.419,433.175,297.094,437.154,297.094Z"/><path class="b" d="M201.626,113.371c3.976.235,8.4.84,10.6-3.319,1.594-3.011,2.678-6.843,6.583-5.935,6.083,1.413,13.862-2.272,18.036,5,1.969,3.432,4.656,3.96,8.031,4.386,12.125,1.531,23.746,6.635,35.328,3.335,3.555,6,.192,10.123.651,14.649.818,8.05-7.725,12.276-15.454,8.716-1.535-.708-2.526-2.746-3.593-4.291-2.41-3.489,1.787-7.835-1.618-11.562-4.259,1.533-1.887,4.764-1.864,7.368.044,4.912-.4,9.548-7.154,9.206-7.036-.355-12.2,4.77-18.613,6.315-5.025,1.211-9.463-.9-10.4-5.93-.592-3.186-.242-6.541-.4-9.817-.188-3.886-.818-5.138-5.735-3.663-11.313,3.392-13.471,1.236-14.016-10.906-.059-1.317.007-2.64.015-3.96Z"/><path class="b" d="M500.53,365.839c-4.7-.337-9.812-.828-14.938-1.05-24.8-1.077-24.636-.787-46.32,12.464-6.69,4.088-9.785,8.588-7.519,16.177.917,3.073,2.036,6.085,3.15,9.382-2.626,3.887-5.616-.36-8.479-.064-3.242.336-6.964.887-9.741-.333-3.609-1.587-10.439,3.339-10.787-4.445-.231-5.184,4.823-5.383,8.5-6.587,3.867-1.269,4.944-3.857,3.4-7.629a15.166,15.166,0,0,1-1.094-3.809c-.967-7.789.344-9.548,7.77-10.33,2.627-.277,5.37.111,7.908-.47,4-.916,2.425-2.654.834-5.18-3.087-4.9-2.26-7.684,2.227-8.369,12.895-1.969,26.066-4.659,38.507,1.215,4.867,2.3,5.527-1.4,7.647-3.171,2.042-1.706,1.14-3.714-.854-4.5-1.739-.683-3.871-.332-5.82-.524-8.453-.831-10.415-3.051-9.526-10.774.315-2.74,1.254-5.29,4.329-5.7a72.469,72.469,0,0,1,11.887-.8c16.8.537,15.629,1.856,17.073,15.455C499.347,353.108,505.167,358.879,500.53,365.839Z"/><path class="b" d="M386.182,185.358c-.13-9.9-.47-19.806-.277-29.7a6.182,6.182,0,0,1,6.416-6.228c13.857-.195,27.718-.2,41.577-.152,3.964.015,5.372,2.972,6.569,6.248,1.673,4.575.677,9.129.482,13.722-.638,15.039-1.379,15.89-15.731,15.608-13.146-.258-26.281,2.471-39.428.1Z"/><path class="b" d="M366.759,334.806c13.694-10.583,27.172-10.249,41.945-6.958,17.291,3.852,17.5,2.939,17.441,20.3-.01,2.637-.1,5.275-.216,7.911-.192,4.492-2.471,7.717-6.88,8.268-11.806,1.476-23.67,1.056-35.5.03a6.452,6.452,0,0,1-5.761-4.691c-.951-3.127-2.245-6.548-1.812-9.619C377.007,342.728,371.766,339.569,366.759,334.806Z"/><path class="b" d="M471.779,226.455c-1.128-.605-2.2-1.547-3.395-1.76-11.172-1.992-11.355-1.976-9.921-11.532a27.675,27.675,0,0,0,.621-5.622c-.38-6.38-3.673-14.366,3.981-17.723,12.471-5.47,29.319.171,34.58,10.422,1.235,2.408.268,5.124-2.479,6.695-4.084,2.336-9.486-.09-13.051,4.057.673,1.412,2.1,3.119,2.23,4.921.429,5.876,2.132,10.177,8.967,10.779,1.815.161,3.746,1.457,5.2,2.721,2.2,1.919,1.957,4.6,1.49,7.3-.393,2.261-1.89,3.946-3.686,4.054-11.116.666-22.194,3.862-33.415.529-2.719-.807-5.1-1.656-5.058-4.806.047-3.465,1.161-6.507,5.362-6.888C466.354,229.318,469.742,229.75,471.779,226.455Z"/><path class="b" d="M418.323,233.179c-8.039-.565-10.976-8.06-16.45-12.109l.3.383c.321-1.911.145-5.192,1.042-5.517,7.384-2.675,9.05-7.5,8.644-15.116-.455-8.533,1.522-9.921,10.633-10.618,7.907-.6,15.879-.649,23.815-.507,6.667.119,8.455,1.986,8.323,8.145-.069,3.231.109,7.134-1.564,9.511-2.608,3.706-2.351,6.53-1.3,10.664,1.608,6.316,2,13.012,2.269,19.573.183,4.469-4.559,8.558-9.084,8.794-9.164.479-13.6-2.952-15.2-11.753-.118-.653-.272-1.3-.366-1.956-1.786-12.4-1.336-13.408,9.7-21.749-4.438-2.143-8.835-2.13-13.81.079-1.081,5.007,2.763,9.569,1.944,14.95-.946,6.212-3.932,7.768-9.369,7.041Z"/><path class="b" d="M493.464,168.144c0,3.232.094,5.223-.021,7.2a6.743,6.743,0,0,1-6.127,6.748c-10.539,1.166-21.13,1.881-31.711,2.636-2.982.213-4.667-1.786-6.106-4.212-2.074-3.5-3.578-7.031-3.47-11.236.1-3.98-.346-7.971-.369-11.958-.04-7-3.106-10.689-10.3-12.21-5.151-1.089-6.335-6.272-3.371-10.684,1.59-2.366,4.158-3.668,6.744-1.748,5.922,4.4,11.326,9.562,13.89,16.574,2.156,5.9,6.842.93,10.015,3.2,3.312,2.371,5.26-.483,7.472-3.549,4.81-6.665,5.217-6.375,11.359,1.59.755.978,1.305,2.653,2.227,2.88C492.362,155.51,496.115,160.445,493.464,168.144Z"/><path class="b" d="M272.06,145.27c3.571.133,10.247-.742,16.635,1.661,3.983,1.5,6.939,3.641,6.21,8.623-.478,3.267-.7,6.576-.91,9.874-1.268,20.481-1.756,21.057-21.433,21.231-3.914.035-7.832-.793-11.752-1.174-10.306-1-10.282-1-11.838-11.74-.848-5.852-2.053-11.665-2.636-17.541-.6-6.073,2.925-10.388,8.829-10.861C259.766,144.975,264.42,145.27,272.06,145.27Z"/><path class="b" d="M378.336,112.749c4.645,3.241,6.149,10.714,13.915,9.953,1.471-.145,3.56,1.723,4.683,3.185,2.276,2.964-.725,9.374,3.85,9.813,3.328.319,7.407-2.463,11.456-2.151a34.4,34.4,0,0,1,9.607,1.647c1.4.537,2.839,3.248,2.7,4.839-.126,1.475-2.1,3.249-3.684,4.013a11.774,11.774,0,0,1-5.837.781c-16.473-1.34-32.908,1-49.369.422-1.99-.069-4.007.337-5.979.164-13.352-1.166-16.781-5.278-17.484-20.75l-.287.383c8.836-5.321,18.587-3.5,28.1-3.615,6.642-.081,6.641-.119,8.646-9.044Z"/><path class="b" d="M53.751,191.322c4.213-3.294,8.337-2.381,12.23-2.4,13.751-.074,17.042-1.952,15.985,14.323a23.588,23.588,0,0,0,1.445,9.656c3.537,9.943,3.121,10.327-7.516,11.4-3.229.326-6.7-.48-9.451,2.275,4.47,3.072,9.655,2.689,14.607,3.387,2.985.422,4.548,2.592,5.081,5.35.619,3.21-1.391,4.613-4.169,5.445-17.342,5.194-18.049,5.17-34.618.545-2.745-.767-4.847-1.665-5.16-4.888-.336-3.447-.284-6.652,3.388-8.423,1.194-.576,2.48-.963,3.668-1.548,8.069-3.977,10.941-8.533,7.031-16.706C53.105,203.119,53.889,197.187,53.751,191.322Zm14.328,6.021c-.079-.591.024-1.322-.29-1.735s-1.218-.816-1.552-.638c-1.177.626-.983,1.675.506,2.628C67.02,197.775,67.625,197.441,68.079,197.343Z"/><path class="b" d="M210.378,197.706c2.591-6.337-2.624-9.644-5.391-13.912-11.257-17.364-8.661-13.827,5.367-23.646a20.017,20.017,0,0,1,5.071-3.06c7.948-2.5,17.447-10.039,23.939-2.954,6.848,7.473,9.067,18.953,6.116,29.9a6.873,6.873,0,0,1-3.712,4.072c-10.367,3.739-20.374,8.818-31.706,9.244C210.068,197.359,210.378,197.706,210.378,197.706Z"/><path class="b" d="M342.2,124.665c-9.222,4.86-9.222,4.86-21.623,2.625-2.016,26.4-3.789,20.888-24.81,16.419-9.651-2.052-9.581-2.675-10.351-13.635-.185-2.622-.435-5.24-.667-7.859-.423-4.781,2.156-7.556,6.469-8.325,6.23-1.111,13.83,1.043,16.336-7.775,5.864-.6,11.77-1.929,17.581-1.595,5.371.308,4.187,9.08,11.074,9.6,5.946.449,5.717,6.235,5.7,10.933Zm-23.082-11.148,2.637-1.8a13.94,13.94,0,0,0-2.594-1.634c-.417-.155-1.108.424-1.675.67C318.023,111.669,318.564,112.59,319.114,113.517Z"/><path class="b" d="M165.7,386.123c3.948.771,4.7-2.491,6.8-3.6,3.86-2.049,9.023-2.4,10.665,1.1,2.878,6.132,6.553,6.887,12.288,5.644,2.139-.463,3.315,1.848,2.919,3.884-.5,2.582-2.1,6.017-4.882,4.675-6.236-3.008-12.9-1.563-19.206-3.088-11.067-2.675-21.7-2.107-31.432,4.746-1.5,1.055-3.664,1.255-5.565,1.626-3.367.657-7.082-1.964-6.6-5.244.884-6-.08-11.8-.509-17.708-.339-4.683,2.962-7.423,7.091-8.057a109.38,109.38,0,0,1,15.807-.814c8.711-.057,9.2.526,10.874,9.715C164.411,381.512,165.165,383.973,165.7,386.123Z"/><path class="b" d="M303.571,152.409c15.849-1.853,27.064,6.475,38.288,14.62,2.333,1.693,2.8,4.333,1.224,6.94-1.706,2.816-3.121,6-5.436,8.216-4.62,4.42-5.142,13.554-12.863,13.817-8.62.293-16.235-4.744-24.079-7.985-2.576-1.065-2.948-4.147-2.922-6.856a28.576,28.576,0,0,1,.312-5.93C299.823,167.568,301.745,159.947,303.571,152.409Z"/><path class="b" d="M90.062,284.761c.5,6.363-2.525,9.657-9.154,9.935-1.79.074-4.312.372-3.571,3.269,1.6,6.271-1.359,8.844-7.12,8.507-5.875-.343-10.008,2.905-14.536,5.7-1.67,1.031-4.37.653-5.034-1.215-.522-1.468.287-3.925,1.337-5.314a22.359,22.359,0,0,1,5.913-5.277c2.074-1.3,5.512-1.262,6.7-2.963,2.174-3.12-2.069-5.788-2.067-9.125,0-4.743-1.353-7.231-7-4.689-3.87,1.743-7.707-1.2-11.363-2.606-7.217-2.773-9.037-8.792-5.1-15.977,1.651-3.01,5.891-4.136,7.594-1.132,2.893,5.1,10.166,3.792,12.157,9.59.618,1.8,1.9,1.587,2.96.061,3.825-5.519,9.606-3.658,14.693-3.426C88.225,270.634,90.49,273.257,90.062,284.761Z"/><path class="b" d="M150.107,288.528c13.954-.5,15.857,1.129,16.833,14.813a36.6,36.6,0,0,1-.51,7.807c-1.366,9.392-2.648,10.378-12.888,10.382-20.319.008-20.32.008-19.7-21.124.058-1.974.16-3.948.17-5.922.021-4.154,2.6-5.712,6.226-5.917C143.518,288.382,146.817,288.528,150.107,288.528Z"/><path class="b" d="M113.394,297.172c3.267,0,6.583-.333,9.782.134a7.8,7.8,0,0,1,4.78,2.946c2.854,4.127,2.806,17.5-.274,20.728a11.1,11.1,0,0,1-6.833,3.221c-6.532.3-13.1-.04-19.649-.356-3.616-.175-6.238-2.151-6.656-5.885a117.327,117.327,0,0,1-.757-13.718,6.511,6.511,0,0,1,5.958-6.685c4.488-.624,9.078-.519,13.624-.728C113.377,296.943,113.386,297.058,113.394,297.172Z"/><path class="b" d="M173.531,212.867c1.857,1.8,3.967,3.421,5.485,5.475,1.085,1.469,2.46,4.172,1.84,5.212A132.524,132.524,0,0,1,169.721,239.7c-1.608,1.963-4.907,1.837-7.429.672-5.962-2.754-11.951-5.485-17.708-8.628-3.33-1.818-4.237-7.156-1.97-10.559,2.539-3.812,5.749-7.193,8.1-11.1.739-1.23-.351-3.561-.6-5.388l-.328.372c9.737-2.2,17.065,2.694,24.181,8.2Z"/><path class="b" d="M401.873,221.07c-.257,4.735-.729,9.3-5.831,11.692-2.985,1.4-5.731,3.322-8.738,4.669-11.161,5-14.333,6.38-20.988-5.344-1.607-2.832-3.583-5.455-5.5-8.333,4.3-6.693,9.844-11.013,16.279-14.694,8.528-4.88,8.228-5.058,15.076,2.889,2.984,3.465,6.641,6.35,10,9.5Z"/><path class="b" d="M392.142,369.741c2.616,0,5.24-.133,7.846.024,9.349.563,13.256,6.692,10.034,16.14A6.42,6.42,0,0,1,406,389.543c-4.464.9-9.076,1.03-13.615,1.584-4.277.523-9.079,4.461-12.6-.5-3.6-5.062-2.4-11.245-1.483-16.959.225-1.4,2.485-3.111,4.1-3.513,3.131-.78,6.468-.732,9.72-1.027C392.127,369.33,392.134,369.536,392.142,369.741Z"/><path class="b" d="M382.31,164.925a21.23,21.23,0,0,1-.456,3.95c-.929,3.056-3.475,4.423-6.027,2.928-9.109-5.335-17.8-11.291-29.121-11.115-2.278.036-4.582-2.487-6.9-3.792-2.737-1.543-7.657-2.11-7.15-5.582.842-5.763,6.174-2.879,9.6-2.882,8.646-.009,17.3.378,25.939.715C380.748,149.636,382.782,151.954,382.31,164.925Z"/><path class="b" d="M62.764,331.756c2.617,0,5.237.075,7.851-.016,4.621-.161,7.538,1.56,7.665,6.582.16,6.332-1.861,9.91-6.568,10.182-5.85.338-11.581.239-17.264,2.524-3.433,1.38-8.376-2.378-9.009-5.648-1.067-5.511,1.692-12.139,5.687-12.966,3.8-.787,7.7-1.094,11.563-1.612Z"/><path class="b" d="M443.342,349.046c-2.612,0-5.226.061-7.836-.014-3.981-.115-5.763-2.318-5.677-6.207.044-1.959-.134-3.941.1-5.876.549-4.577,3.3-6.861,7.872-6.971,3.923-.1,7.853-.3,11.772-.179,9.033.276,13.288,8.591,8.377,16.668-.823,1.355-3.1,2.319-4.818,2.531a80.027,80.027,0,0,1-9.789.115Z"/><path class="b" d="M195.3,362.179c-2.6,3.526-6.064,1.771-9.062,2.2-2.129.307-3.606,1.518-3.247,3.8.362,2.3,3.171,4.861.921,6.729-1.815,1.506-4.939,1.614-7.533,1.958-3.063.407-4.857-1.45-5.7-4.213-.746-2.455-2.077-5.8.809-6.989,5.063-2.092,5.559-4.488,2.532-8.667-2.825-3.9.5-5.978,3.06-7.749,3.213-2.223,7.332-1.571,8.157,1.911C186.627,357.041,192.663,358,195.3,362.179Z"/><path class="b" d="M84.144,307.949c-.152-2.965-2.479-5.464-.17-7.932.848-.906,2.116-1.924,3.21-1.946a4.161,4.161,0,0,1,2.988,1.961,7.525,7.525,0,0,1,.5,3.821c-.831,22.434-1.524,23.041-23.516,21.722-2.992-.18-5.1-1.282-5.427-4.4-.345-3.305-.586-6.989,3.454-8.223C71.477,311.027,77.91,309.568,84.144,307.949Z"/><path class="b" d="M202.027,112.963c-7.858,4.414-16.506,4.278-25.1,4.2a10.087,10.087,0,0,1-5.587-1.444c-1.876-1.373-5.072-2.923-3.343-6.01.794-1.418,3.581-3.01,4.9-2.62,5.68,1.675,10.971,3.885,16.882.219,2.7-1.676,6.243-2.068,9.452-2.841,2.02-.487,4.5-.165,4.92,1.971.29,1.475-1.33,3.307-2.038,5.005a13.18,13.18,0,0,0-.488,1.926Z"/><path class="b" d="M378.651,112.389c-8.412,3.882-17.136,5.71-26.45,4.482a18.758,18.758,0,0,1-13.1-7.658c-.6-.807-.351-2.38-.189-3.557.055-.4,1.095-1,1.614-.938,3.2.4,6.579.439,9.517,1.58,5.488,2.131,10.279,4.712,16.629,1.27,4.7-2.546,8.336,2.057,11.654,5.2Z"/><path class="b" d="M61.613,265.461c-7.226-.013-8.7-1.787-8.28-10.128.158-3.11-.238-6.813,4.355-7.511,6.92-1.05,12.956.5,14.049,4.273,1.084,3.736,1.741,7.881-1.269,11.231C67.968,266.107,64.424,265.292,61.613,265.461Z"/><path class="b" d="M479.921,265.413c-8.533-.118-12.116-4.805-9.562-12.591.526-1.6,2.171-3.666,3.626-3.974,3.794-.8,7.776-.686,11.669-1.066a2.506,2.506,0,0,1,3,1.913c1.658,4.428,2.162,8.968-.119,13.155C486.661,266.3,482.784,265.062,479.921,265.413Z"/><path class="b" d="M443.872,257.074c-3.07-.262-7.563-.515-12-1.155-.743-.107-1.367-1.843-1.824-2.92-.636-1.5-.132-2.784,1.354-3.155,9.465-2.356,19.033-4.092,28.826-2.893,2.813.345,4.5,2.415,4.359,5.476a3.887,3.887,0,0,1-3.632,3.748C455.764,256.691,450.529,256.761,443.872,257.074Z"/><path class="b" d="M406.622,200.538c.038,3.22.453,6.855-3.673,7.907-4.052,1.034-7.885.363-10.251-3.6a20.221,20.221,0,0,1-2.241-5.38c-1.472-5.891.626-9.9,5.259-10.465,7.144-.865,10.277,1.3,10.887,7.607C406.729,197.9,406.622,199.226,406.622,200.538Z"/><path class="b" d="M83.8,403.836c-2.666-.015.489-.077-.183-2.027-1.781-5.17-6.037-4.122-9.531-5.277-.792-.261-1.189-1.717-1.768-2.623,1.206-.435,2.945-1.616,3.538-1.193,8.644,6.171,15.219,2.17,21.708-3.833,1.256-1.161,3.566-1.258,5.433-1.627.392-.078,1.173.72,1.413,1.271.226.524.224,1.619-.1,1.838-6.339,4.284-12.738,8.478-19.13,12.684C84.743,403.34,84.265,403.575,83.8,403.836Z"/><path class="b" d="M270.205,408.8c-9.232,1.891-16.236-2.088-23.333-7.9,4.23-4.543,9.112-3.284,13.188-4.042,9.718-1.808,10.17-1.036,9.612,10.379a15.926,15.926,0,0,0,.135,1.969Z"/><path class="b" d="M128.093,145c-1.688-.22-4.457-.108-6.795-1.056-1.472-.6-2.654-2.651-3.266-4.31-.311-.843.615-2.665,1.511-3.345,5.417-4.107,14.539-3.889,19.912.263,1.873,1.448,1.026,5.214-.992,6.565C135.476,145.116,132.231,144.686,128.093,145Z"/><path class="b" d="M150.11,204.69c-2.4,2.189-4.755,4.273-8.37,4.3-5.041.041-6.9-1.75-6.393-6.74a56.48,56.48,0,0,1,1-7.7c1.093-4.45,5.387-6.564,10.8-5.5,4.933.969,5.7,4.847,5.312,8.807-.246,2.467-1.741,4.809-2.675,7.2Z"/><path class="b" d="M374.894,390.185c-.578,2.606-1.309,5.213-4.577,5.389-6.347.341-12.063-2.712-12.588-6.545-.528-3.856,2.695-7.491,6.924-7.807C370.986,380.748,374.889,384.164,374.894,390.185Z"/><path class="b" d="M487.043,312.8a24.652,24.652,0,0,1-1.566-5.091,3.189,3.189,0,0,1,1.857-2.553c1.056-.169,2.979.441,3.326,1.239,2.016,4.643,3.752,9.414,5.427,14.195a2.955,2.955,0,0,1-2.472,4.153c-2.468.37-5.225.71-6.909-2.085C484.771,319.441,486.578,316.378,487.043,312.8Z"/><path class="b" d="M366.754,377.124c-2.537-.947-6.876.194-7.213-4.015-.338-4.237,6.191-8.529,11.274-7.962,2.458.274,2.614,2.2,2.468,4.146C372.98,373.345,372.228,377.058,366.754,377.124Z"/><path class="b" d="M369.429,354.473c-7.9,2.542-14.216,3.679-18.736,8.68-.43.476-2.571.068-3.289-.6-.5-.471-.22-2.925.193-3.064C354.036,357.319,359.54,351.8,369.429,354.473Z"/><path class="b" d="M112.168,403.141l-3.147-.353c.51-1.844.952-3.712,1.556-5.524a8.861,8.861,0,0,1,1.618-3.456c2.7-2.709,9.347-3,12.539-.5a4.317,4.317,0,0,1,1.417,3.361c-.654,4.711-4.094,5.931-8.276,6.011C116.626,402.707,115.38,402.877,112.168,403.141Z"/><path class="b" d="M73.252,373.942c.289,2.327-1.5,3.157-2.982,4.2-2.223,1.575-4.614,2.078-6.787.188-.708-.616-1.253-2.686-.851-3.1A10.964,10.964,0,0,1,70.98,371.5C71.776,371.531,72.509,373.1,73.252,373.942Z"/><path class="b" d="M217.756,137.2c-.583,1.1-.875,2.618-1.763,3.167-3.511,2.173-7.442,2.7-10.955.357-1.262-.842-2.468-3.65-1.979-4.872,1.344-3.355,4.722-3.938,8.08-3.919a7.29,7.29,0,0,1,6.575,3.366C218.008,135.761,217.756,136.573,217.756,137.2Z"/><path class="b" d="M127.389,284.79c1.359.222,2.979,2.451,2.232,5.256-.742,2.785-3.464,3.615-6.353,3.185-3.172-.471-4.986-2.624-4.121-5.428C119.93,285.261,122.618,284.085,127.389,284.79Z"/><path class="b" d="M339.07,137.323c-.742,4.314-3.935,4.728-7.3,4.517-4.113-.256-6.855-3.246-5.778-6.143,1.045-2.811,3.41-3.843,6.179-3.6C335.459,132.377,338.807,132.9,339.07,137.323Z"/><path class="b" d="M221.266,402.447c2.477-.17,4.956-.325,7.432-.512,2.494-.189,5.036-.678,7.1,1.335-1.791,2.147-4.208,1.955-6.627,1.728-2.485-.232-4.968-.485-7.452-.728Z"/><path class="b" d="M293.941,400.018c-4.9,1.085-7.392,1.932-9.934,2.124-3.195.242-6.722.889-9.067-2.3-1.529-2.077,4.071-3.863,9.43-2.623C286.807,397.786,289.182,398.615,293.941,400.018Z"/><path class="b" d="M335.776,398.63c3.163-3.213,6.986-3.367,10.91-2.254,1.086.308,1.887,1.616,2.819,2.465-.974.8-1.856,2.1-2.941,2.3C342.682,401.855,338.765,402.061,335.776,398.63Z"/><path class="a" d="M313.768,244.79c2.41-9.177,3.114-17.813-6.719-23.573a3.486,3.486,0,0,1-.8-5.165c1.029-1.211,4.71-2.133,4.912-1.8,4.7,7.836,12.021,6.314,19.281,6.118,8.473-.228,10.139,1.739,10.688,10.521a50.282,50.282,0,0,1,.142,7.938c-.36,3.715-2.871,5.651-6.338,6.662-7.278,2.124-14.269-1.268-21.441-.988Z"/><path class="a" d="M301.9,232.04c-.045,3.932.416,8.048-2.918,11.052-5.722,5.154-19.271,2.2-21.695-4.882a25.379,25.379,0,0,1-1.437-9.545c.254-4.031,1.663-7.815,6.956-7.807,2.633,0,5.267-.289,7.9-.3C300.539,220.5,301.988,222.014,301.9,232.04Z"/><path class="a" d="M201.9,232.593c.07-1.551.125-3.516.253-5.477.323-4.909,3.534-6.594,7.871-6.785,1.952-.086,3.919.271,5.882.314,10.236.223,11.794,1.456,11.49,13.261-.1,4.024-.645,8.008-4.179,10.518-3.722,2.643-15.384,2.247-18.873-.473C200.589,241.025,202.061,236.807,201.9,232.593Z"/><path class="a" d="M241.32,229.722c.13-.918-.022-3.76,1.012-6.073,1.129-2.522,4-3.5,6.738-3.171,5.664.683,12.674-2,16.474,3.963,5.1,8-1.485,20.119-10.755,20.916C244.025,246.283,241.261,243.43,241.32,229.722Z"/><path class="a" d="M234.054,249.079c.835.795,2.409,1.634,2.364,2.373-.15,2.444-2.073,3.109-4.024,2.153-.856-.42-1.105-2.078-1.63-3.174Q232.408,249.754,234.054,249.079Z"/><path class="a" d="M189.542,249.317a14.748,14.748,0,0,0,3.307.925c1.7.079,3.483-.6,4.21,1.867.78,2.648-1.467,2.159-4.644-.827-.828-.779-1.756-1.451-2.644-2.167Z"/><path class="a" d="M313.491,244.507a32.048,32.048,0,0,1,.043,5.75,3.918,3.918,0,0,1-2.088,2.679c-.88.306-2.155-.525-3.256-.855a11.755,11.755,0,0,1,1.363-3.274,48.3,48.3,0,0,1,4.223-4.008Z"/><path class="a" d="M348.407,214.4l2.305,4.838a10.9,10.9,0,0,1-3.156.761c-1.576-.1-2.184-1.254-1.466-2.67A19.54,19.54,0,0,1,348.407,214.4Z"/><path class="a" d="M112.731,169.127c-.414.99-.627,2.591-1.3,2.816-.926.311-2.2-.42-3.326-.705.7-.935,1.33-1.926,2.1-2.794C111.4,167.1,112.287,167.366,112.731,169.127Z"/><path class="a" d="M121.445,236.432c-1.607,3.073-3.236,6.526-5.25,9.739-.382.608-3.07.731-3.348.269-.885-1.473-1.857-3.507-1.485-5,.843-3.369.493-8.015,5.779-8.338C119.107,232.986,120.561,234.063,121.445,236.432Z"/><path class="a" d="M124.269,352.062c-1.75-1.371-1.39-3.181-.939-4.927.409-1.583,1.387-1.784,2.839-1.071,2.188,1.075,2.24,2.8,1.171,4.425C126.787,351.33,125.311,351.563,124.269,352.062Z"/><path class="a" d="M68.079,197.343c-.454.1-1.059.432-1.336.255-1.489-.953-1.683-2-.506-2.628.334-.178,1.246.236,1.552.638S68,196.752,68.079,197.343Z"/><path class="a" d="M319.11,113.513q-.819-1.385-1.628-2.764c.567-.246,1.258-.825,1.675-.67a13.94,13.94,0,0,1,2.594,1.634Q320.433,112.614,319.11,113.513Z"/></svg>