<svg xmlns="http://www.w3.org/2000/svg" viewBox="0 0 543.348 543.348"><defs><style>.a{fill:#df271f;}.b{fill:#fcfcfb;}</style></defs><path class="a" d="M273.835,35.244q105.92,0,211.837.01c5.325,0,10.655.037,15.973.277,3.769.17,6.218,2.3,6.465,6.124.3,4.643.248,9.314.249,13.972q.015,216.775.016,433.552c0,20.44,1.1,19.69-19.418,19.686q-216.832-.04-433.666-.009c-19.995,0-19.819,1.249-19.812-19.389q.075-217.776.035-435.55c0-3.994-.1-8.01.268-11.976.336-3.586,2.259-6.247,6.243-6.4,5.322-.206,10.651-.285,15.976-.286Q165.919,35.23,273.835,35.244ZM84.445,265c-1.721,38.269,10.936,71.884,32.353,101.384,24.675,33.987,57.878,58.5,97.057,74.34a109.076,109.076,0,0,1,44.258,33.033c2.519,3.094,4.606,6.583,7.365,9.432,3.566,3.684,10.863,3.038,14.321-.952a23.266,23.266,0,0,0,3.454-4.884c9.34-19.209,25.886-29.522,44.8-37.469,15.912-6.686,31.646-13.758,45.69-24.265C409.327,389,435.5,355.7,450.485,313.492c9.367-26.378,12.629-52.751,7.027-80.352-4.365-21.5-7.657-43.225-11.4-64.853-4.279-24.685-4.185-49.045,5.417-72.705a69,69,0,0,0,2.616-7.549c1.7-6.155-11.409-21.283-17.857-20.307a16.885,16.885,0,0,0-7.02,3.436,91.353,91.353,0,0,1-24.71,12.748c-17.98,6.294-36.584,6.266-55.247,6.625-24.723.477-47.425-5.025-67.525-20.131-7.508-5.643-8.068-5.42-15.654.41-22.79,17.511-49.116,23.125-76.943,21.77-22.695-1.105-44.885-5.592-65.056-17.134-4.016-2.3-8.605-3.594-12.64-5.866-4.37-2.46-7.577-.687-10.674,2.044a72.437,72.437,0,0,0-5.591,5.709c-5.172,5.693-5.861,6.931-1.342,13.863,6.143,9.419,7.688,19.648,8,30.417.742,25.392-1.216,50.363-7.711,75.148C88.281,219.252,83.805,242.185,84.445,265Z"/><path class="b" d="M84.445,265c-.64-22.819,3.836-45.752,9.728-68.239,6.5-24.785,8.453-49.756,7.711-75.148-.315-10.769-1.86-21-8-30.417-4.519-6.932-3.83-8.17,1.342-13.863a72.437,72.437,0,0,1,5.591-5.709c3.1-2.731,6.3-4.5,10.674-2.044,4.035,2.272,8.624,3.567,12.64,5.866,20.171,11.542,42.361,16.029,65.056,17.134,27.827,1.355,54.153-4.259,76.943-21.77,7.586-5.83,8.146-6.053,15.654-.41,20.1,15.106,42.8,20.608,67.525,20.131,18.663-.359,37.267-.331,55.247-6.625a91.353,91.353,0,0,0,24.71-12.748,16.885,16.885,0,0,1,7.02-3.436c6.448-.976,19.557,14.152,17.857,20.307a69,69,0,0,1-2.616,7.549c-9.6,23.66-9.7,48.02-5.417,72.705,3.748,21.628,7.04,43.35,11.4,64.853,5.6,27.6,2.34,53.974-7.027,80.352C435.5,355.7,409.327,389,373.743,415.623c-14.044,10.507-29.778,17.579-45.69,24.265-18.914,7.947-35.46,18.26-44.8,37.469a23.266,23.266,0,0,1-3.454,4.884c-3.458,3.99-10.755,4.636-14.321.952-2.759-2.849-4.846-6.338-7.365-9.432a109.076,109.076,0,0,0-44.258-33.033c-39.179-15.842-72.382-40.353-97.057-74.34C95.381,336.888,82.724,303.273,84.445,265ZM270.192,463.03c17.315-24.962,39.514-38.944,63.427-51.318,19.438-10.059,37.118-23.059,53.766-37.607,28.338-24.765,42.65-56.985,52.064-92.16a37.757,37.757,0,0,0,.862-9.912c-.122-17.262.321-34.439-2.831-51.683-3-16.392-6.931-32.488-11.109-48.556-3.868-14.879-6.457-29.9-5.916-45.3.273-7.776,1.142-15.53,1.741-23.293-8.785-3.284-14.277,5.345-22,6.088-4.62.444-9.194,1.421-13.769,2.266-38.078,7.033-73.88,1.755-106.716-19.651-4.309-2.809-8.486-3.338-12.793.22-5.125,4.233-10.456,8.083-16.8,10.546-27.217,10.573-55.2,13.362-84.108,9.7-15.344-1.942-29.383-7.7-43.136-13.393-2.5,2.693-3,5.264-2.2,7.885,6.043,19.713,4.128,39.556.459,59.253-4.5,24.147-10.049,48.1-14.568,72.241-8.128,43.429-.24,83.452,27.849,118.242,14.663,18.16,31.369,34.342,52.491,45.307,10.02,5.2,19.858,10.8,29.5,16.682C235.578,430.288,256.32,440.031,270.192,463.03Z"/><path class="a" d="M270.192,463.03c-13.872-23-34.614-32.742-53.785-44.436-9.64-5.88-19.478-11.48-29.5-16.682-21.122-10.965-37.828-27.147-52.491-45.307-28.089-34.79-35.977-74.813-27.849-118.242,4.519-24.144,10.069-48.094,14.568-72.241,3.669-19.7,5.584-39.54-.459-59.253-.8-2.621-.3-5.192,2.2-7.885,13.753,5.7,27.792,11.451,43.136,13.393,28.909,3.657,56.891.868,84.108-9.7,6.342-2.463,11.673-6.313,16.8-10.546,4.307-3.558,8.484-3.029,12.793-.22,32.836,21.406,68.638,26.684,106.716,19.651,4.575-.845,9.149-1.822,13.769-2.266,7.72-.743,13.212-9.372,22-6.088-.6,7.763-1.468,15.517-1.741,23.293-.541,15.4,2.048,30.419,5.916,45.3,4.178,16.068,8.113,32.164,11.109,48.556,3.152,17.244,2.709,34.421,2.831,51.683a37.757,37.757,0,0,1-.862,9.912c-9.414,35.175-23.726,67.395-52.064,92.16-16.648,14.548-34.328,27.548-53.766,37.607C309.706,424.086,287.507,438.068,270.192,463.03ZM146.874,130.255c-3.631,7.293-2.055,14.732-2.479,21.958a12.565,12.565,0,0,0,5.839,11.921c16.761,11.03,30.574,25.6,46.092,38.128,14.473,11.683,29.037,23.254,42.067,36.671,8.8,9.059,18.507,17.249,28,25.613,7.743,6.823,9.633,7.026,16.87.9,10.659-9.026,20.9-18.542,31.439-27.712q39.185-34.1,78.525-68.016c5.329-4.578,8.8-9.144,8.178-16.918-2.246-28.059,1.834-25.214-25.659-21.069-30.956,4.667-61.1,3.519-89.849-9.972-7.25-3.4-13.393-3.888-20.594.313-25.259,14.735-53.229,15.674-81.3,14.036C171.557,135.381,159.249,132.279,146.874,130.255ZM271.438,429.2A234.171,234.171,0,0,1,342,379.858c31.189-14.325,51.989-38.83,66.744-68.757,8.582-17.4,13.85-36.016,11.647-55.912a3.712,3.712,0,0,0-5.793-2.745c-4.276,3.151-8.529,6.363-12.537,9.842-14.07,12.212-27.748,24.891-42.1,36.763-26.169,21.653-51.776,43.9-75.837,67.891-8.352,8.329-12.068,8.969-19.737.913-6.372-6.693-14.425-11.749-21.306-18q-42.841-38.917-85.428-78.115a14.886,14.886,0,0,0-3.185-2.393c-8.52-4.313-13.259-15.353-24.94-14.03-3.854,9.641-1.739,19.61-1.449,29.441.239,8.086,3.109,15.6,6.2,23,14.73,35.271,39.226,61.383,73.787,77.667,21.828,10.286,42.712,21.669,58.517,40.544C267.408,426.947,268.778,427.461,271.438,429.2Zm1.287-98.875c-3.146-2.486-5.793-4.356-8.189-6.5-28.168-25.265-55.551-51.414-84.88-75.369q-16.209-13.238-32.64-26.2c-3.535-2.774-7.245-6.511-12.326-2.937-3.5,2.464-1.863,8.144,4.287,13.252,10.2,8.476,21.3,15.982,30.86,25.112,19.235,18.373,38.939,36.1,59.93,52.477,8.854,6.908,17.445,14.36,24.489,23.369a68.833,68.833,0,0,0,9.988,9.69c5.859,4.963,10.063,4.782,15.71-.206,18.415-16.265,36.569-32.84,55.317-48.712,24.354-20.62,46.1-44.168,71.693-63.384a22.993,22.993,0,0,0,5.343-5.821,8.082,8.082,0,0,0-.355-9.378c-2.689-3.775-5.673-1.608-8.4.258a54.766,54.766,0,0,0-4.756,3.634c-24.181,20.792-48.48,41.451-72.468,62.464C308.441,297.743,290.961,313.881,272.725,330.329Z"/><path class="b" d="M146.874,130.255c12.375,2.024,24.683,5.126,37.13,5.852,28.068,1.638,56.038.7,81.3-14.036,7.2-4.2,13.344-3.715,20.594-.313,28.75,13.491,58.893,14.639,89.849,9.972,27.493-4.145,23.413-6.99,25.659,21.069.622,7.774-2.849,12.34-8.178,16.918q-39.4,33.846-78.525,68.016c-10.538,9.17-20.78,18.686-31.439,27.712-7.237,6.127-9.127,5.924-16.87-.9-9.491-8.364-19.2-16.554-28-25.613-13.03-13.417-27.594-24.988-42.067-36.671-15.518-12.526-29.331-27.1-46.092-38.128a12.565,12.565,0,0,1-5.839-11.921C144.819,144.987,143.243,137.548,146.874,130.255Z"/><path class="b" d="M271.438,429.2c-2.66-1.743-4.03-2.257-4.847-3.233-15.805-18.875-36.689-30.258-58.517-40.544-34.561-16.284-59.057-42.4-73.787-77.667-3.093-7.409-5.963-14.918-6.2-23-.29-9.831-2.405-19.8,1.449-29.441,11.681-1.323,16.42,9.717,24.94,14.03a14.886,14.886,0,0,1,3.185,2.393q42.707,39.066,85.428,78.115c6.881,6.251,14.934,11.307,21.306,18,7.669,8.056,11.385,7.416,19.737-.913,24.061-24,49.668-46.238,75.837-67.891,14.348-11.872,28.026-24.551,42.1-36.763,4.008-3.479,8.261-6.691,12.537-9.842a3.712,3.712,0,0,1,5.793,2.745c2.2,19.9-3.065,38.507-11.647,55.912-14.755,29.927-35.555,54.432-66.744,68.757A234.171,234.171,0,0,0,271.438,429.2Z"/><path class="b" d="M272.725,330.329c18.236-16.448,35.716-32.586,53.6-48.257,23.988-21.013,48.287-41.672,72.468-62.464a54.766,54.766,0,0,1,4.756-3.634c2.726-1.866,5.71-4.033,8.4-.258a8.082,8.082,0,0,1,.355,9.378,22.993,22.993,0,0,1-5.343,5.821c-25.589,19.216-47.339,42.764-71.693,63.384-18.748,15.872-36.9,32.447-55.317,48.712-5.647,4.988-9.851,5.169-15.71.206a68.833,68.833,0,0,1-9.988-9.69c-7.044-9.009-15.635-16.461-24.489-23.369-20.991-16.375-40.695-34.1-59.93-52.477-9.559-9.13-20.655-16.636-30.86-25.112-6.15-5.108-7.789-10.788-4.287-13.252,5.081-3.574,8.791.163,12.326,2.937q16.461,12.92,32.64,26.2c29.329,23.955,56.712,50.1,84.88,75.369C266.932,325.973,269.579,327.843,272.725,330.329Z"/></svg>