<svg xmlns="http://www.w3.org/2000/svg" viewBox="0 0 543.348 543.348"><defs><style>.a{fill:#1f1e15;}.b{fill:#fcfcfb;}</style></defs><path class="a" d="M65.614,454.673c1.735,8.352,1.84,17.191,8.332,23.991,4.523,4.738,8.494,5.281,13.853,1.427,5.384-3.871,8.9-10.127,15.467-12.362a7.394,7.394,0,0,1,5.439.79c2.07,1.22,1.489,3.75.167,5.058-3.746,3.707-8.015,6.893-11.7,10.651-1.134,1.153-2.047,4.2-1.36,5.152,2.145,2.973,4.34,1.163,6.261-.933a16.532,16.532,0,0,1,4.242-3.734c.749-.385,2.766.364,3.342,1.2,2.905,4.2-1.761,11.033,4.913,14.1,4.025,1.847,7.924,3.97,12.441,6.253-20.13,2.229-73.609,2.118-89.334-.105-2.454-4.271-1.614-8.992-1.617-13.541q-.076-122.892-.017-245.784c0-3.977.18-7.966.57-11.921a3.555,3.555,0,0,1,2.122-2.539c.916-.209,2.886.579,3.061,1.27,4.383,17.234,16.429,26.4,32.341,32.3,5.432,2.014,10.059,6.31,14.9,9.772,14.274,10.2,34.2,10.506,48.264-.423,11.716-9.1,25.651-13.945,38.109-21.542,1.868-1.139,4.125-.98,5.331.6a10.182,10.182,0,0,1,1.669,5.516c.081,1.918-.011,4.475-1.155,5.711-8.079,8.733-10.447,19.889-13.079,30.784-1.338,5.533-4.047,7.506-9.355,8.309-7.171,1.084-13.978,3.86-21.453,4.015-4.521.092-9.194,1.577-13.463,3.278-8.215,3.272-10.923,9.526-7.736,17.664,3.36,8.579,8.4,16.3,8.6,26.249.127,6.237,11.74,10.594,17.946,6.868,8.509-5.107,18.218-9.945,23.969-17.514,8.794-11.573,20.457-12.133,31.954-11.448,9.03.54,16.617-1.852,24.968-3.648,8.5-1.83,16.46-3.029,23.718-8.45,4.049-3.023,9.675-3.936,14.59-5.8,8.158,6.221,10.667.745,12.98-6,.573-1.67,2.637-2.876,4.139-4.15a2.059,2.059,0,0,1,1.889-.159c1,.582,2.423,1.343,2.615,2.253,1.285,6.1-3.85,12.508.818,18.609,5.014-2.42,5.155-7.351,6.353-11.708,1.763-6.408,3.362-12.868,5.369-19.2a5.643,5.643,0,0,1,6.073-4.1c2.859.371,4.451,2.791,4.806,5.59,1.592,12.555,3.221,25.423-.613,37.557-4.257,13.475-.027,23.093,9.446,32.147,5.722,5.468,10.749,11.75,16.044,17.608,10.286,11.384,22.52,20.526,39.637,19.621,8.4-.444,16.821-.081,27.678-2.189-9.311-.658-16.175-.843-22.953-1.7-7.625-.968-13.64-3.879-15.91-12.523-3.735-14.222-16.243-20.335-27.383-27.467-2.758-1.764-6.131-2.537-9.038-4.106-7.5-4.049-12.39-10.327-13.05-18.845-.7-9-1.107-17.573,1.9-27.031,4.57-14.356,5.611-30.088-3.294-44.21-2.26-3.584-2.287-7.554-2.308-11.559-.025-4.662.724-9.509-.292-13.948-2.337-10.2-4.207-20.12-16.548-25.011-9.073-3.595-16.942-10.379-27.258-11.229-4.443-.366-7.4-2.328-8.862-6.644a3.084,3.084,0,0,0-4.825-1.489c-14.514,12.92-29.908,4.223-45,2.03-3.928-.571-7.741-1.893-11.657-2.593-13.453-2.4-25.211-6.963-33.118-19.469-4.2-6.648-11.094-11.539-18.266-15.208-7.371-3.77-13.267-8.151-15.387-16.952-2.643-10.969-6.754-21.607-1.8-32.974,2.317-5.317,4.163-10.84,6.33-16.554-8.4,5.728-10.581,12.844-11.229,22.862-1.1,17.1,4,32.765,6.605,49.015a18.55,18.55,0,0,0,5.119,10.629c10.466,10.25,20.51,21.19,36.522,22.483a20.8,20.8,0,0,1,5.839,1.221c13.806,5.384,27.817,8.953,42.887,6.948,4.4-.585,7.518,2.96,7.81,7.226.3,4.356-2.108,8.314-6.209,8.835-5.239.664-10.573.582-15.853.818-7.072-3.329-14.172-3.707-21.295-.126-6.875-3.368-14.271-2.218-21.51-2.539-6.606-.292-13.215-.529-18.908-4.778a105.246,105.246,0,0,0-44.975-19.853c-5.635-1-10.072-3.514-12.672-8.5-8.517-16.356-19.995-31.852-14.1-54.36-2.674,3.319-4.012,4.24-4.255,5.392-3.829,18.174-1.686,35.634,8.031,51.538,4.095,6.7,10.25,12.113,14.938,18.5,12.258,16.7,29.055,21.547,48.733,19.515,2.618-.27,5.682-1.1,7.841-.129,12.635,5.707,24.654.956,36.835-1.521l20.309-.266c2.875,2.758,2.952,5.944.563,8.788a26.8,26.8,0,0,1-11.556,7.59c-13.07,4.85-26.174,9.617-39.159,14.687a21.16,21.16,0,0,1-11.761.786,138.989,138.989,0,0,1-17.5-3.981c-9.181-2.893-17.938-2.71-27.4-.374-21.147,5.221-44.286-10.358-49.795-31.89-1.854-7.248,1.173-16.166-7.2-21.573-1.394-.9-1.007-4.957-1.01-7.556Q36,119.71,36.043,45.769c0-1.332.05-2.665.105-4,.159-3.851,2.077-6.136,6-6.37,3.321-.2,6.655-.275,9.983-.275q94.952-.021,189.9.064c3.569.006,7.64-1.353,11.128,2.472-7,3.609-13.767,7.095-20.531,10.6-7.387,3.823-13.385,8.621-14.026,17.882-.177,2.557-1.428,5.116-2.523,7.519-2.113,4.635-5.063,8.224-10.749,5.047-4.8-2.684-7.727-.06-9.717,3.508-7.914,14.193-13.528,28.713-8.289,45.569,2.748,8.838,3.887,18.182,5.661,27.316,1.646,8.476,5.472,13.987,14.767,16.544a114.188,114.188,0,0,0,29.349,4.194,194,194,0,0,0,57.022-7.731,27.969,27.969,0,0,1,7.905-.809,6,6,0,0,1,3.153,1.581c-.594,1.731-1.142,4.239-2.467,4.84-12.555,5.693-25.26,11.056-37.835,16.477-.115,3.437,2.044,4.608,4.775,5.288,9.834,2.448,18.282,7.7,26.789,12.954,6.613,4.086,9.038,3.635,13.913-1.429,1.837-1.908,3.417-4.063,5.106-6.114,3.445-4.185,3.462-8.219-.026-12.538-2.027-2.509-4.489-5.123-3.963-8.78a4.453,4.453,0,0,1,5.64-3.6c3.39,1.184,4.975,4.222,6.416,7.247,2.852,5.983,5.805,11.924,8.426,18.007,2.465,5.72,7.708,6.832,12.775,8.386a92.684,92.684,0,0,1,3.967,9.105c.269.818-.9,2.536-1.848,3.2-.9.632-2.841,1.024-3.541.491-3.157-2.4-5.967-5.244-9.029-7.775-5.6-4.63-9.675-4.6-16.058-.065-5.328,3.782-6.664,7.375-4.878,13.583q4.115,14.3,8.362,28.556a3.524,3.524,0,0,0,6.192.905c6.145-9.426,15.423-16.427,20.577-26.638.347-.689,2.472-.94,3.579-.655,1.079.278,2.619,1.425,2.726,2.335.377,3.224,1.154,6.849.107,9.709-3.18,8.679-7.081,17.1-10.833,25.56-1.329,3-3.923,5.682-4.417,8.755-2.1,13.048-3.588,26.194-5.373,39.293-.477,3.5,1.025,6.238,2.4,9.332,8.64,19.37,24.418,31.218,42.561,40.272,11.069,5.523,23.46,1.654,30.816-9.383,3.1-4.656,6.478-5.809,11.527-5.6,13.456.557,22.382-6.418,28.866-17.631,7.7-13.322,13.994-27.1,16.091-42.528.536-3.948,1.358-7.882,5.355-10.131,15.113-8.5,21.049-23.4,26.214-38.561,13.7-40.229.447-75.083-21.69-109.367-1.857,5.477-.55,9.249.636,13.083,5.915,19.118,3.88,38.067-2.1,56.659a103.052,103.052,0,0,1-9.882,21.679c-6.106,10.077-6.884,19.719-.714,29.815l-5,6.7c-11.02-11.009-11.027-11.023-23.345-5.422-1.809.823-3.526,1.852-5.281,2.794-4.924,2.641-9.192.567-12.831-2.428a20.825,20.825,0,0,1-7.58-15.682c-.346-9.933-.029-19.888-.118-29.832-.019-2.137,2.376-5.1-1.5-6.253-.73.3-1.433.377-1.77.769a16.806,16.806,0,0,0-2.305,3.242c-14.222,27.927-17.272,56.89-6.759,86.594,4.412,12.467,4.19,26.1,10.394,38.012a2.334,2.334,0,0,1-.035,1.917,16.033,16.033,0,0,1-3.158,4.491c-.579.481-3.015-.046-3.433-.782C396.374,328.492,387.267,327,378,325.27c-9.1-1.7-18.106-3.947-27.064-6.3-4.486-1.179-5.972-4.7-4.592-9.221,1.731-5.673,4.011-11.234,5.148-17.021,3.949-20.1,9.941-39.4,20.457-57.142a74.884,74.884,0,0,0,5.988-12.51c1.526-4.2-3.461-10.784-7.493-9.149-9.887,4.01-15.8-3.194-23.186-6.363,2.437-13.6-2.7-23.3-14.978-29.461a14.848,14.848,0,0,1-4.59-3.678,3.148,3.148,0,0,1,.907-4.925c1.651-1.018,3.825-1.162,5.543-2.1,3.082-1.688,9.447-.93,7.7-6.512-.912-2.924-5.89-1.213-9.071-.51-3.9.862-5.689-.672-7.139-4.509-4.008-10.6-6.047-11.924-15.6-7.5-15.978,7.405-32.989,10.15-50.057,12.8-10.506,1.635-21.122,2.611-31.712,3.642-5.66.551-8.59-2.764-7.373-8.533a135.77,135.77,0,0,0,3.153-35.59c-.508-9.574-1.1-18.5-7.808-26.014a3.888,3.888,0,0,1-.2-5.34c2.273-2.621,4.721-1.248,7.1-.165A5.384,5.384,0,0,1,224.7,90.4c9.154,9.588,20.515,11.526,33.039,9.668,6.719-1,11.12,1.523,14.325,7.907,4.732,9.426,12.943,14.211,23.371,16.889,13.734,3.529,27.3,5.261,41.4,3.665,5.24-.593,10.6-.1,15.69-.1,1.008-4.5-1.814-4.717-4.229-5.351-3.219-.846-6.394-1.913-9.653-2.546-14.268-2.774-25.668-10.1-35.036-21.1-7.209-8.462-7.9-16.072-1.482-25.14,1.142-1.613,2.228-3.7,3.857-4.46,7.674-3.557,8.306-9.433,6.624-16.695-.3-1.308,1.432-3.883,2.871-4.629,2.687-1.392,5.14,0,6.442,2.694a79.083,79.083,0,0,1,2.946,7.4c4.887,13.4,4.918,13.671,17.259,11.811,33.387-5.032,64.848.661,94.713,16.156,2.668,1.385,5.551,3.755,9.567.858-10.618-13.193-23.132-23.42-38.888-29.75-18.9-7.594-38.1-14.283-57.65-21.559,4.233-.336,8.465-.957,12.7-.964q65.973-.108,131.946-.03c2.658,0,5.326.122,7.972.375,2.93.28,5.02,1.785,5.158,4.919q.353,7.977.361,15.969.043,55.962.015,111.924c0,103.233.155,206.467-.083,309.7-.083,36.093,3.659,29.566-29.285,29.678-97.293.331-194.587.118-291.88.118H165.031c.87-5.055,1.582-8.952,2.206-12.864,1.228-7.7.065-16.1,6.8-22.187.635-.574.564-2.732.009-3.679-2.866-4.89-15.881-9.023-21.008-5.822-9.08,5.666-18.616,6.559-28.762,5.079-7.466-1.09-11.422-4.454-10.106-11.773,1.5-8.316-1.235-13.99-6.377-19.765-5.258-5.906-10.128-12.188-13.088-19-6.75-.28-10.009,5.1-15.214,6.028-2.286.409-5.371-2.093-5.131-4.659a8.332,8.332,0,0,1,1.343-3.656c1.819-2.756,1.206-5.184-1.293-6.731-2.911-1.8-6.451-2.324-9.347-.245-1.283.922-2,3.386-2.019,5.159-.035,3.77,4.461,6.877,1.808,11.151C60.556,435.994,60.728,442.739,65.614,454.673ZM254.944,333.9c-4.823,6.266-9.374,12.767-14.525,18.751-10.461,12.151-10.721,26.8-9.494,41.253,1.133,13.36,11.462,21.7,25.617,23.164,3.65.376,5.688-2.037,5.934-6.02.3-4.916-1.476-8.959-3.831-13.078-4.927-8.617-9.5-17.437-14.326-26.113-2.216-3.984-1.855-7.735,1.005-11.01,6.114-7,12.381-13.854,15.435-22.9,3.958-2.787,5.514-6.659,5.147-11.4C259.664,325.142,257.358,329.6,254.944,333.9Zm-20.37,113.574c13.962-7.5,28.149-11.5,43.151-2.761,1.93,4.418,6.19,4.01,9.744,4.1,2.136.055,2.6-2.646,1.159-4.079-1.708-1.695-4.077-2.723-6.159-4.041-16.415-11.688-34.168-18.824-54.846-16.79-18.414,1.812-34.417,7.625-44.056,24.829-4.755,6.712-4.748,6.7,1.451,10.048,1.05.568,2.009,1.3,3.011,1.96a16.955,16.955,0,0,1-.409,3.858c-.856,2.507-1.958,5.147-.245,7.452,2.661,3.58,6.182,1.334,8.794.1,10.983-5.206,19.224-13.7,25.5-23.873,3.174-5.147,6.088-9.947,12.374-11.446,3.564,3.456-.125,7.515,1.056,11.136-6.843,7.123-13.742,14.195-20.513,21.386-6,6.374-13.167,11.138-20.719,15.39-4.167,2.346-8.39,3.806-13.305,1.771-1.091-.452-2.4-4.453-3.92-.794a6.445,6.445,0,0,0,1.023,5.491c1.6,1.932,3.985,4.126,6.268,4.422,10.167,1.319,20.68.167,28.533-6.221C225.466,478.832,237.358,466.772,234.574,447.474Zm111.1-14.86c22.05,7.329,31.245,7.367,41.84-.229-12.634-2.216-25.413,1.36-37.2-3.767a35.057,35.057,0,0,1-3.791-1.19c-11.692-5.14-22.355-10.854-26.045-24.955-1.867-7.133-8.283-11.734-15.118-15.052-5.364-2.6-10.9-5.1-15.705-8.547-6.831-4.9-10.551-10.9-7.555-20.4,2.126-6.747,4.529-13.97,3.3-21.436-.29-1.766-.091-4.231-3.045-4.1-2.315.105-3.152,1.777-3.727,3.706-1.7,5.706-3.7,11.337-5.09,17.117-5.176,21.588,5.716,47.649,25.111,57.6C313.933,419.209,329.969,425.586,345.672,432.614ZM96.449,346.438c-2.118,1.147-4.732,2-6.606,3.674C81.917,357.2,74.079,364.407,66.5,371.869a26.574,26.574,0,0,0-5.343,8.31c-3.484,8.035-.9,14.281,7.36,17.187,7.561,2.66,14.836,5.652,21.568,10.116,5.278,3.5,13.547,1.62,17.173-3.394a28.561,28.561,0,0,0,2.829-5.233c5.711-12.934,2.581-27.691,8.257-40.707.454-1.04-1.4-4.15-2.832-4.761C109.491,350.821,103.217,348.841,96.449,346.438Zm272.39-149.927c-.491-1.043-.706-2.572-1.525-3.035-2.306-1.3-5.682,1.288-6.293,4.936a3.615,3.615,0,0,0,1.412,3.037C364.784,202.7,368.112,200,368.839,196.511Z"/><path class="a" d="M262.545,299.409c-.74,1.021-1.561,2.9-2.992,3.944a3.873,3.873,0,0,1-5.28-1.071c-1.557-2.063-2.37-4.675-3.594-7-5.216-9.914-10.569-19.446-19.214-27.275-7.749-7.019-14.929-15.135-19.635-24.8-.607-1.246.408-3.976,1.551-5.2,1.332-1.426,3.594-1.137,5.279.275a13.285,13.285,0,0,1,2.869,2.724c8.548,13.519,19.424,25.109,30,36.992C256.74,283.85,262.32,289.944,262.545,299.409Z"/><path class="a" d="M247.915,208.583c1.67.365,3.1.368,4.188.986a21.79,21.79,0,0,1,4.742,3.6c9.691,9.894,19.612,19.59,28.8,29.934,3.881,4.368,6.463,10.007,9.041,15.356,1,2.081,2.774,5.623.339,7.286-3.64,2.487-5.511-1.786-7.826-3.635a16.37,16.37,0,0,1-3.9-4.473c-7.75-13.411-18.573-24.082-30.091-34.167-2.986-2.615-6.419-5.13-6.79-9.462C246.267,212.25,247.383,210.379,247.915,208.583Z"/><path class="a" d="M199.722,253.32a10.709,10.709,0,0,1,7.871,5.17,265.769,265.769,0,0,0,28.8,37.31,30.038,30.038,0,0,1,3.238,4.945c3.791,6.1,4.121,13.448.577,13.8-5.713.562-7.716-3.974-9.649-8.243-6.592-14.56-19.036-24.844-27.71-37.888-2.187-3.288-4.823-6.281-6.936-9.611-.5-.794-.1-2.646.539-3.552C197.109,254.321,198.564,253.959,199.722,253.32Z"/><path class="a" d="M231.689,225.7c1.682.548,3.862.649,5.145,1.772A156.047,156.047,0,0,1,268.316,265.6c3.373,5.694,6.8,11.367,9.843,17.238a3.54,3.54,0,0,1-2.1,4.816c-1.575.409-4.781-.244-5.167-1.238-8.4-21.644-26.918-35.6-40.268-53.443a5.352,5.352,0,0,1-.978-3.56C229.8,228.241,230.826,227.182,231.689,225.7Z"/><path class="a" d="M225.16,319.627c-.65,1.12-1.042,2.61-2,3.275-1.8,1.245-4.333.877-5.2-.855-7.807-15.608-19.232-28.422-31.041-40.971a7.933,7.933,0,0,1-2.194-3.257,4.239,4.239,0,0,1,.882-3.455c.761-.733,2.831-1.29,3.455-.8,11.621,9.053,22.52,19,28.924,32.465C220.2,310.689,226.173,313.379,225.16,319.627Z"/><path class="a" d="M120.593,475.85a80.356,80.356,0,0,0,26.9,4.842,3.87,3.87,0,0,1,4.086,3.374c.44,2.7-1.737,3.265-3.528,3.387-6.268.426-12.555.575-19.606.861,5.784,7.849,13.963,5.778,20.547,8.092,1.684.592,2.376,1.325,1.589,2.828-.576,1.1-1.4,3.017-2.043,2.987-8.45-.392-16.94-.634-24.475-5.442C115.377,491.235,116.39,484.151,120.593,475.85Z"/><path class="a" d="M68.517,431.254c1.433,1.239,3.985,2.365,4.124,3.735C73.8,446.366,77.465,456.854,82.7,466.92a3.714,3.714,0,0,1-.671,3.506c-1.749,1.364-3.519.466-4.756-1.2-3.157-4.258-6.2-8.586-7.2-13.944C67.857,447.391,65.666,439.486,68.517,431.254Z"/><path class="b" d="M99.69,459.438c-.4.526-.765,1.456-1.213,1.5-1.085.1-3,.106-3.2-.4A112.519,112.519,0,0,0,79.84,432.935a3.276,3.276,0,0,1,1.328-4.953c1.025-.45,3.017-.429,3.661.246,7.871,8.257,14.211,17.378,15.138,29.246A8.947,8.947,0,0,1,99.69,459.438Z"/><path class="a" d="M137.193,345.876c4.931-4.236,9.819-8.592,14.888-12.727,2.621-2.137,4.189-9.2,8.573-4.433,2.86,3.11-2.456,6.718-5.06,9.314a75.191,75.191,0,0,1-10.811,8.744C142.571,348.281,139.8,348.558,137.193,345.876Z"/><path class="a" d="M169.219,308.858c.659.077,1.533-.1,1.937.26a19.3,19.3,0,0,1,6.885,15.628,3.9,3.9,0,0,1-5.913,2.456c-4.951-4.256-5.5-10.192-5.463-16.173C166.67,310.3,168.325,309.579,169.219,308.858Z"/><path class="b" d="M179.408,292.974c1.684.13,3.658-.216,4.01.386,3.4,5.826,10.871,9.2,10.532,17.236-.02.489-.865,1.37-1.3,1.355-8.876-.32-8.727-10.3-14.607-13.984C177.614,297.7,178.928,294.647,179.408,292.974Z"/><path class="b" d="M68.517,431.254c-2.851,8.232-.66,16.137,1.556,24.026-1.482-.2-2.96-.386-4.448-.589-4.9-11.952-5.069-18.7-.774-29.835Q66.677,428.068,68.517,431.254Z"/><path class="a" d="M147.945,311.659c2.126.686,3.66.778,4.491,1.589a3.222,3.222,0,0,1,.1,3.158c-2.817,3.462-7.192,3.069-10.95,3.366-3.107.246-7.724,5.65-9.344-.815-.948-3.78,4.37-4.168,7-5.467C142.058,312.1,145.554,312.109,147.945,311.659Z"/><path class="b" d="M180.632,224.182c7.123-3.581,14.223-3.2,21.295.126a7.238,7.238,0,0,1-1.019,2.879q-10.176.115-20.337.257C180.547,226.357,180.572,225.269,180.632,224.182Z"/><path class="b" d="M304.2,37.511a8.537,8.537,0,0,1,1.438-1.285c3.668-2.035,9.106-1.69,10.594.676a1.5,1.5,0,0,1-.007,1.339c-1.584,2.374-6.955,2.652-10.614.558A8.577,8.577,0,0,1,304.2,37.511Z"/><path class="b" d="M464.35,253.62c-6.17-10.1-5.392-19.738.714-29.815a103.052,103.052,0,0,0,9.882-21.679c5.981-18.592,8.016-37.541,2.1-56.659-1.186-3.834-2.493-7.606-.636-13.083,22.137,34.284,35.393,69.138,21.69,109.367-5.165,15.162-11.1,30.056-26.214,38.561-4,2.249-4.819,6.183-5.355,10.131-2.1,15.428-8.387,29.206-16.091,42.528-6.484,11.213-15.41,18.188-28.866,17.631-5.049-.209-8.423.944-11.527,5.6-7.356,11.037-19.747,14.906-30.816,9.383-18.143-9.054-33.921-20.9-42.561-40.272-1.38-3.094-2.882-5.83-2.4-9.332,1.785-13.1,3.278-26.245,5.373-39.293.494-3.073,3.088-5.758,4.417-8.755,3.752-8.462,7.653-16.881,10.833-25.56,1.047-2.86.27-6.485-.107-9.709-.107-.91-1.647-2.057-2.726-2.335-1.107-.285-3.232-.034-3.579.655C343.323,241.2,334.045,248.2,327.9,257.622a3.524,3.524,0,0,1-6.192-.905q-4.245-14.259-8.362-28.556c-1.786-6.208-.45-9.8,4.878-13.583,6.383-4.532,10.453-4.565,16.058.065,3.062,2.531,5.872,5.377,9.029,7.775.7.533,2.639.141,3.541-.491.952-.668,2.117-2.386,1.848-3.2a92.684,92.684,0,0,0-3.967-9.105q1.263-1.028,2.528-2.052c7.387,3.169,13.3,10.373,23.186,6.363,4.032-1.635,9.019,4.949,7.493,9.149a74.884,74.884,0,0,1-5.988,12.51c-10.516,17.745-16.508,37.039-20.457,57.142-1.137,5.787-3.417,11.348-5.148,17.021-1.38,4.525.106,8.042,4.592,9.221,8.958,2.351,17.966,4.6,27.064,6.3,9.264,1.729,18.371,3.222,23.631,12.474.418.736,2.854,1.263,3.433.782a16.033,16.033,0,0,0,3.158-4.491,2.334,2.334,0,0,0,.035-1.917c-6.2-11.912-5.982-25.545-10.394-38.012-10.513-29.7-7.463-58.667,6.759-86.594a16.806,16.806,0,0,1,2.305-3.242c.337-.392,1.04-.469,1.77-.769,3.875,1.157,1.48,4.116,1.5,6.253.089,9.944-.228,19.9.118,29.832a20.825,20.825,0,0,0,7.58,15.682c3.639,2.995,7.907,5.069,12.831,2.428,1.755-.942,3.472-1.971,5.281-2.794,12.318-5.6,12.325-5.587,23.34,5.417.888,3.121,1.655,6.291,2.715,9.36.95,2.752,2.958,4.4,5.924,3.146a3.945,3.945,0,0,0,1.969-5.023C468.3,263,466.246,258.338,464.35,253.62Z"/><path class="b" d="M180.632,224.182c-.06,1.087-.085,2.175-.061,3.262-12.167,2.474-24.186,7.225-36.821,1.518-2.159-.974-5.223-.141-7.841.129-19.678,2.032-36.475-2.819-48.733-19.515-4.688-6.386-10.843-11.795-14.938-18.5-9.717-15.9-11.86-33.364-8.031-51.538.243-1.152,1.581-2.073,4.255-5.392-5.89,22.508,5.588,38,14.1,54.36,2.6,4.991,7.037,7.506,12.672,8.5a105.246,105.246,0,0,1,44.975,19.853c5.693,4.249,12.3,4.486,18.908,4.778C166.361,221.964,173.757,220.814,180.632,224.182Z"/><path class="b" d="M96.449,346.438c6.768,2.4,13.042,4.383,19.067,6.949,1.435.611,3.286,3.721,2.832,4.761-5.676,13.016-2.546,27.773-8.257,40.707a28.561,28.561,0,0,1-2.829,5.233c-3.626,5.014-11.895,6.892-17.173,3.394-6.732-4.464-14.007-7.456-21.568-10.116-8.263-2.906-10.844-9.152-7.36-17.187a26.574,26.574,0,0,1,5.343-8.31c7.575-7.462,15.413-14.666,23.339-21.757C91.717,348.436,94.331,347.585,96.449,346.438Zm-5.682,50.48c10.247-13.525,12.242-25.888,14.516-38.093a7.144,7.144,0,0,0-1.723-5.452c-1.974-2.029-4.814-1.671-7.283-.4-9.031,4.667-15.864,11.729-21.336,20.142-.489.751.216,2.461.678,3.6.6,1.483,1.63,1.309,3.019.089,4.8-4.215,9.688-8.327,15.257-13.089C98.424,375.12,90.326,383.841,90.767,396.918Z"/><path class="b" d="M345.671,432.614c-15.7-7.028-31.738-13.4-47.022-21.248-19.395-9.952-30.287-36.013-25.111-57.6,1.386-5.78,3.39-11.411,5.09-17.117.575-1.929,1.412-3.6,3.727-3.706,2.954-.134,2.755,2.331,3.045,4.1,1.226,7.466-1.177,14.689-3.3,21.436-3,9.5.724,15.5,7.555,20.4,4.81,3.447,10.341,5.943,15.705,8.547,6.835,3.318,13.251,7.919,15.118,15.052,3.69,14.1,14.353,19.815,26.045,24.955a34.816,34.816,0,0,0,3.787,1.188C350.1,431.494,347.062,431.1,345.671,432.614Z"/><path class="b" d="M277.725,444.713c-15-8.736-29.189-4.736-43.151,2.761l.517.48c-1.176-3.611,2.513-7.67-1.051-11.126-6.286,1.5-9.2,6.3-12.374,11.446-6.273,10.174-14.514,18.667-25.5,23.873-2.612,1.238-6.133,3.484-8.794-.1-1.713-2.305-.611-4.945.245-7.452a16.955,16.955,0,0,0,.409-3.858l-.622-.433c7.411-5.983,14.9-11.868,22.167-18.024,1.54-1.306,5-2.952,2.072-5.7-1.039-.975-3.906-1.014-5.4-.322-7.642,3.539-15.33,7.164-19.887,14.878-.064-1.816-1.037-2.564-2.8-2.385,9.648-17.222,25.651-23.035,44.065-24.847,20.678-2.034,38.431,5.1,54.841,16.786C282.258,443.646,279.445,443.537,277.725,444.713Z"/><path class="b" d="M260.759,337.948c-3.054,9.045-9.321,15.9-15.435,22.9-2.86,3.275-3.221,7.026-1.005,11.01,4.828,8.676,9.4,17.5,14.326,26.113,2.355,4.119,4.134,8.162,3.831,13.078-.246,3.983-2.284,6.4-5.934,6.02-14.155-1.461-24.484-9.8-25.617-23.164-1.227-14.456-.967-29.1,9.494-41.253,5.151-5.984,9.7-12.485,14.52-18.744C257.964,333.689,259.4,335.759,260.759,337.948Z"/><path class="b" d="M234.574,447.474c2.784,19.3-9.108,31.358-22.111,41.935-7.853,6.388-18.366,7.54-28.533,6.221-2.283-.3-4.669-2.49-6.268-4.422a6.445,6.445,0,0,1-1.023-5.491c1.523-3.659,2.829.342,3.92.794,4.915,2.035,9.138.575,13.305-1.771,7.552-4.252,14.717-9.016,20.719-15.39,6.771-7.191,13.67-14.263,20.511-21.391C235.091,447.954,234.574,447.474,234.574,447.474Z"/><path class="b" d="M345.672,432.614c1.39-1.51,4.424-1.12,4.635-4,11.792,5.129,24.571,1.553,37.2,3.769C376.917,439.981,367.722,439.943,345.672,432.614Z"/><path class="b" d="M464.35,253.62c1.9,4.718,3.954,9.381,5.607,14.182a3.945,3.945,0,0,1-1.969,5.023c-2.966,1.252-4.974-.394-5.924-3.146-1.06-3.069-1.827-6.239-2.715-9.36Q461.854,256.974,464.35,253.62Z"/><path class="b" d="M368.836,196.512c-.724,3.483-4.052,6.185-6.4,4.937a3.615,3.615,0,0,1-1.412-3.037c.611-3.648,3.987-6.238,6.293-4.936C368.133,193.939,368.348,195.468,368.836,196.512Z"/><path class="b" d="M277.725,444.713c1.72-1.176,4.533-1.067,4.739-4.023,2.087,1.322,4.456,2.35,6.164,4.045,1.444,1.433.977,4.134-1.159,4.079C283.915,448.723,279.655,449.131,277.725,444.713Z"/><path class="b" d="M260.759,337.948c-1.356-2.189-2.8-4.259-5.82-4.041,2.419-4.306,4.725-8.765,10.967-7.357C266.273,331.289,264.717,335.161,260.759,337.948Z"/><path class="b" d="M188.029,460.741c-1-.658-1.961-1.392-3.011-1.96-6.2-3.349-6.206-3.336-1.455-10.039,1.758-.17,2.731.578,2.8,2.39.551,3.033-1.643,6.382,1.046,9.176Z"/><path class="a" d="M90.767,396.918c-.441-13.077,7.657-21.8,3.128-33.2-5.569,4.762-10.458,8.874-15.257,13.089-1.389,1.22-2.417,1.394-3.019-.089-.462-1.138-1.167-2.848-.678-3.6,5.472-8.413,12.3-15.475,21.336-20.142,2.469-1.275,5.309-1.633,7.283.4a7.144,7.144,0,0,1,1.723,5.452C103.009,371.03,101.014,383.393,90.767,396.918Z"/><path class="a" d="M187.407,460.308c-2.689-2.794-.5-6.143-1.046-9.176,4.554-7.71,12.242-11.335,19.884-14.874,1.5-.692,4.362-.653,5.4.322,2.931,2.752-.532,4.4-2.072,5.7C202.311,448.44,194.818,454.325,187.407,460.308Z"/></svg>