<svg xmlns="http://www.w3.org/2000/svg" viewBox="0 0 543.348 543.348"><defs><style>.a{fill:#dfcf06;}.b{fill:#fcfcfb;}</style></defs><path class="a" d="M507.882,272.565q0,104.9,0,209.806c0,5.328.105,10.665-.147,15.982-.361,7.656-1.56,8.727-9.868,9.089-4.656.2-9.325.11-13.989.11q-211.86.006-423.721-.015c-26.847-.007-24.248,2.427-24.258-25.071q-.072-211.8,0-423.609C35.9,32.062,33.542,34.9,58.986,34.884q212.859-.091,425.72-.027c4.663,0,9.334-.112,13.989.1,7.395.332,8.762,1.792,9.088,9.824.216,5.32.1,10.655.1,15.983Q507.886,166.663,507.882,272.565ZM143.268,238.08c-.182,1.5-1.115,3.587,1.975,2.5l-2.294-2.238c-.715-1.992-1.8-3.584-4.14-3.81.255-1.93-.177-4.473.9-5.672,2.953-3.3,4.2.982,5.818,2.156,3.192,2.314,5.93,5.254,8.877,7.893l.712.165-1.036-.027c1.793-5.076-.993-9.663-1.55-14.488l2.956-2.7a77.259,77.259,0,0,1,5.8,5.254c5.9,6.5,5.8,6.516,9.766-2.015,1.507-3.248,2.925-.3,4.4.227,1.17.418,2.411.636,3.617.947.055,1.2.042,2.416.193,3.608.075.586.471,1.629.689,1.621,1.627-.064,2.25-1.109,1.367-2.539a13.255,13.255,0,0,0-2.578-2.426c-.331-10.9-5.559-20.282-9.444-30.059-1.986-5-4.164-9.824-1.025-15.06,4.225-1.216,5.091,4.016,7.849,4.287,7.952.784,8.383,4.5,5.186,10.5-1.24,2.324-2.322,4.957,1.387,6.182,2.418.8,3.624-1.228,4.757-2.737,5.463-7.278,7.968-15.423,5.17-24.292-2.788-8.837-6.147-17.609-12.112-24.864-11.75-14.292-25.84-22.687-45.244-16.73-2.077.637-5,1.7-6.293-1.651,1.539-7.041,12.082-5.235,12.882-13.661-13.6-9.424-27.224-8.264-40.772-.131a86.968,86.968,0,0,0-22.333,19.555c-7.787,9.482-9.632,18.712-6.839,31.409,7.045-7.5,11.574-16.792,20.828-21.093l3.411,3.76c-1.476,5.433-6.026,8.612-9.393,12.626-15.7,18.717-15.7,39.978-9.949,62.023,1.323,5.075,4.421,9.4,8.3,13.326,11,11.131,24.113,15.173,39.681,13.316-3.624-3.867-13.035-3.095-9.061-12.2.466-1.07.4-3.51-.024-3.664-8.918-3.244-6.162-14.433-13.042-18.953l.239.213c-.677-1.864-1.217-3.791-2.051-5.582-6.3-13.534-.362-24.228,8.046-34.25a3.708,3.708,0,0,1,5.039-.961,2.49,2.49,0,0,1,.99,3.492c-.264.587-.122,1.428-.5,1.885-10.747,13.19-4.688,24.737,3.809,35.72,4.017,5.191,8.86,9.76,13.494,14.448,1.93,1.951,4.4,2.746,7.088,1.154C138.536,237.942,140.419,238.626,143.268,238.08Zm166.286-76.674c-1.776.747-5.251,1.066-3.576,3.59,1.2,1.811,4.224.673,5.086-2.194,1.789-.121,3.288-.737,3.69-2.66.065-.312-.742-1.1-1.223-1.179C311.588,158.66,310.343,159.714,309.554,161.406Zm49.07,93.1a5.653,5.653,0,0,1-.765,1.384c-1.237,1.234-1.063,1.987-.246,1.311.631-.521.5-1.958.729-2.979,2.322-.464,3.835-1.716,4.087-4.2,3.667.672,6.007-1.665,8.249-3.873,8.628-8.5,17.159-17.089,25.742-25.62q1.37,1.247,2.823,2.393c.658,2.352-1.6,7.793,4.561,4.325,3.656-2.058,5.3-7.233,9.931-7.613,3.73,4.928-4.122,8.607.051,12.9a48.006,48.006,0,0,0,4.434-4.181c16.856-20.457,15.4-25.995-1.6-46.235-6.661-7.93-14.232-13.884-25.537-12.4-2.385.313-5.084.913-7.018-1.671-1.4-1.868,1.643-5.037,5.81-6.733,5.979-2.433,11.531-1.919,17.268.847,20.856,10.056,33.676,25.406,33.071,49.646-.069,2.745-.372,5.188,2.5,6.654l.524.435c1.483,7.578-5.548,9.666-9.023,14.066-2.189,2.772-1.143,4.4,2.107,5.26a3.08,3.08,0,0,1,2.01,4.566c-.8,1.595-2.637,3.655-4.1,3.726-3.188.154-6.416-1.107-9.655-1.286-5.5-.3-9.31,2.512-13.739,9.528a29.885,29.885,0,0,0-21.948,6.908c-14.569,11.619-30.874,20.707-48.052,28.033a87.877,87.877,0,0,1-13.272,3.915c-2.208.55-5.325-3.008-4.573-5.169,1.086-3.117,2.384-6.173,3.776-9.169,8.112-17.47,16.181-34.963,24.484-52.343,2.506-5.245,3.111-10.007-.651-14.855a39.168,39.168,0,0,1-3.046-5.142c-8.623-15.565-9.88-31.4-1.707-47.571,2.7-5.334,5.492-10.62,8.085-16,.842-1.748,1.805-3.8,1.624-5.6-.372-3.7-3.444-5.62-6.623-6.436-1.516-.389-4.415.551-5.126,1.787a130.74,130.74,0,0,0-7.878,16.069c-4.488,11.093-11.463,19.318-23.5,22.46-1.885.493-3.512,2.261-5.377,2.5-6.44.807-8.636,5.453-10.371,10.642-4.206,12.582-8.758,25.066-12.434,37.8-2.669,9.243-7.735,16.459-14.847,23.192-7.908-7.743-10.359-17.509-13.643-26.775q-6.648-18.762-12.73-37.723c-1.58-4.959-4.891-7.816-9.373-9.538-4.312-1.658-8.841-2.752-13.159-4.394-2.071-.788-2.358-2.825-1.837-4.889,2.348-.539,5.2-4.454,5.78-7.922.1-.63.037-1.67.371-1.824,7.677-3.545,3.213-10.459,4.1-15.71,1.1-6.463.613-13.184.97-19.784.576-10.625,6.4-17.478,16.372-20.075,15.715-4.094,31.657-3.484,47.251.662,10.765,2.863,16.629,10.445,17,21.85.129,3.952-.943,8.519.68,11.718,2.863,5.644,2.369,9.76-1.765,14.223-2.222,2.4-1.7,4.487,2,5.211,1.835.36,4.529.867,5.15,2.133,3.1,6.322,6.055,2.68,8.937.148a16.419,16.419,0,0,0,3.751-4.609c7.369-14.232,8.042-29.5,4.726-44.615-2.024-9.23-8.027-16.441-17.592-20.3-10.5-4.238-21.05-8.066-32.167-10.316-1.9-.385-4.03-2.108-3.276-4.1.47-1.24,3.095-2.252,4.792-2.314a54.147,54.147,0,0,1,9.869.866c1.938.289,3.781,1.3,5.716,1.5a4.372,4.372,0,0,0,3.463-1.234c.6-.824.474-2.54.083-3.663-1.6-4.609-4.819-7.737-9.183-9.973-19.347-9.917-38.483-7.86-57.432.984-2.279,1.063-4.113,3.3-5.811,5.279a4.387,4.387,0,0,0-.555,3.6,3.525,3.525,0,0,0,2.525,2.137c4.613-.236,9.211-.793,13.806-1.3,4.56-.507,9.07-.9,13.972,3.782-9.47,2.781-18.088,5.105-27.156,6.3-18.614,2.452-29.708,13.259-34.2,31.448a52.486,52.486,0,0,0,1.032,29.376c1.594,4.993,5.824,9.07,5.151,14.818-1.286.224-2.64.827-3.848.611-8.827-1.576-9.2-1.506-6.76,6.053,4.873,15.1,5.678,30.465-.685,44.821-7.745,17.474-5.353,33.266,2.907,49.472,4.5,8.828,7.949,18.206,11.587,27.448a6.617,6.617,0,0,1-1.3,7.39c-2.667,2.57-5.774,2.907-9.127,1.305-13.753-6.573-28.129-12.009-40.639-20.9-10.026-7.129-19.812-13.53-32.424-5.672-1.522.949-3.9.6-5.885.72-15.159.923-17.333.028-16.887,19.457.091,3.964.628,7.925,1.088,11.873,4.842,41.517,24.47,75.367,54.681,103.336,7.119,6.59,14.519,13.741,25.823,15.982,5.045-10.646,6.337-23.279,15.763-31.554l3.08,3.067c-1.554,4.3-3.139,8.6-4.656,12.914-4.051,11.535-3.386,23.192-.548,34.805,1.081,4.422,2.577,8.866,7.7,10.466l2.06,2.79,1-2.3-3.375-.094c.221-2.593.268-5.218.74-7.765.211-1.139,1.273-2.12,1.949-3.172,1.045.764,2.37,1.329,3.083,2.33,2.132,2.992,1.722,6.3.463,9.492-1.435,3.64.044,6.447,2.4,8.963,9.353,9.97,21.83,11.93,34.513,13.182a3.945,3.945,0,0,0,3.2-1.763c4.068-9.458,12.544-5.6,19.114-5.855,6.953-.265,3.4,5.133,2.971,8.551-4.614-1.229-10.729-2.178-13.373.786-6.042,6.774-12.738,4.236-19.552,3.954-4.451-.184-9.021-2.373-13.735.784.03,5.749,3.968,9.3,7.787,12.92a30.845,30.845,0,0,0,17.635,8.408,85.728,85.728,0,0,0,31.518-1.53c7.589-1.906,12.85-6.4,16.365-13.216,1.2-2.322-.722-5.8-3.375-5.689-6.593.28-13.179.725-19.767,1.123-7.693.464-3.414-4.852-3.83-7.9,5.283-.066,10.572-.32,15.848-.153,7.655.242,14.2-2.627,20.374-6.689,5.249-3.452,9.581-7.018,5-14.3-.843-1.34,1.191-4.774,2.365-6.994.752-1.42,1.468-4.252,4.125-2.441a4.425,4.425,0,0,1,1.325,3.315c-.025,1.6.355,2.974,1.942,2.863.939-.065,1.99-1.4,2.633-2.4,4.687-7.271,2.049-15.456,2.794-23.227,1.7-17.766-4.33-32.408-17.707-44.116l3.156-3.634c13.7,3.733,16.872,15.935,21.333,26.907,2.455,6.037,1.972,13.166,6.553,18.412a7.081,7.081,0,0,0,2.095-.032,24.672,24.672,0,0,0,5.456-2.182c48.554-31.437,74.338-76.525,79.532-133.68,1.1-12.078-.066-12.909-13.13-18.064-3.009-1.187-6.536-1.609-7.754-5.378,1.071-1.55,1.786-3.57,4.361-2.976,7.485,1.728,14.86.08,21.481-2.736,8.32-3.539,17.632-7.053,18.436-18.492l-.32.329c13.177-20.33,13.211-43.466.022-61.844-3.048-4.247-6.285-8.358-9.429-12.536l3.922-3.959a21.777,21.777,0,0,0,3.585,1.73c2.013.567,5.033-.15,4.249-2.075a58.424,58.424,0,0,0-7.892-13.774c-12.768-16.374-36.415-24.342-55.347-18.834a7.157,7.157,0,0,0-4.274,3.794c-.731,2.111,1.471,2.894,3.379,3.356,4.52,1.094,9.035,2.217,13.516,3.459,2.975.825,7.631.788,6.488,5.323-.661,2.623-4.347,1.591-6.914.813-7.113-2.157-14.428-2.3-21.772-1.834-9.128.58-17.2,4.182-22.472,11.432-11.167,15.356-18.643,31.754-8.681,51.242,4.961-5.894,14.534-6.979,14.676-16.63.022-1.444,1.9-1.86,3.3-1.06,1.1.628,2.574,1.221,3.042,2.221,1.893,4.046-.255,7.658-1.572,11.4-4.41,12.531-9.072,25-12.769,37.742-1.115,3.843,3.061,2.7,5.449,2.342l5.1,4.092q-3.735,6.63-7.457,13.275ZM287.2,142.943l-.3-.233c.154,12.179.308,24.359.491,38.772,8.372-10.742,7.493-21.937,10.637-31.777a77.78,77.78,0,0,0,3.316-21.58c.253-10.609-6.749-18.636-17.53-21.306a65.381,65.381,0,0,0-25.756-.72c-12.613,1.921-16.222,5.931-16.088,18.27.13,11.983,1.987,23.654,7.228,35.306,4.111-8.679.249-17.649,3.339-26.734,2.54,9.259.636,18.2,4.12,26.3,3.262,7.582,2.4,16.74,9.042,24.881,1.875-14.071-.428-26.781,3.222-40.8,4.564,12.437,1.6,24.24,4.843,35.93,4.454-2.811,4.6-6.856,5.721-10.541C282.093,160.131,280.423,150.263,287.2,142.943Zm-95.942-6.488c-.657-2.126-.305-5.119-4.026-4.89a3.584,3.584,0,0,0-3.622,3.307c-.418,3.183,1.922,4.277,4.4,4.854S190.687,138.181,191.258,136.455Zm2.094,9.519,1.43-1.413a12.36,12.36,0,0,0-2.663-1.252c-.326-.073-.866.8-1.308,1.247Z"/><path class="b" d="M275.018,466.694c.428-3.42,3.98-8.818-2.973-8.553-6.57.25-15.046-3.6-19.114,5.855a3.945,3.945,0,0,1-3.2,1.763c-12.683-1.252-25.16-3.212-34.513-13.182-2.36-2.516-3.839-5.323-2.4-8.963,1.259-3.2,1.669-6.5-.463-9.492-.713-1-2.038-1.566-3.083-2.33-.676,1.052-1.738,2.033-1.949,3.172-.472,2.547-.519,5.172-.74,7.765l.311-.4c-5.124-1.6-6.62-6.045-7.7-10.467-2.838-11.613-3.5-23.27.548-34.805,1.517-4.317,3.1-8.61,4.651-12.918q1.744-2.3,3.5-4.6l4.161-3.847c16.4-5.946,16.4-5.946,29.078.143,3.9-5.523,5.3-11.735,6.5-18.375,2.8-15.583,6.329-31.084,13.236-45.517,2-4.17,3.876-4.33,8.977-1,1.383.9,2.379,3.488,4.286,1.059a4.5,4.5,0,0,0,.414-3.691c-1.363-3.787-3.371-7.585-7.573-8.421-4.8-.954-6.941,3.142-8.726,6.578-1.8,3.461-2.692,7.379-4.311,10.949-5.167,11.4-10.586,22.68-15.7,34.1-2.319,5.171-5.8,8.7-11.343,10.161-7.116,1.876-13.876,4.423-18.522,10.62-1.272,1.36-2.55,2.716-3.82,4.077q-1.6,2.352-3.223,4.7c-9.426,8.275-10.718,20.908-15.763,31.554-11.3-2.241-18.7-9.392-25.823-15.982-30.211-27.969-49.839-61.819-54.681-103.336-.46-3.948-1-7.909-1.088-11.873-.446-19.429,1.728-18.534,16.887-19.457,1.987-.121,4.363.229,5.885-.72,12.612-7.858,22.4-1.457,32.424,5.672,12.51,8.894,26.886,14.33,40.639,20.9,3.353,1.6,6.46,1.265,9.127-1.305a6.617,6.617,0,0,0,1.3-7.39c-3.638-9.242-7.088-18.62-11.587-27.448-8.26-16.206-10.652-32-2.907-49.472,6.363-14.356,5.558-29.723.685-44.821-2.439-7.559-2.067-7.629,6.76-6.053,1.208.216,2.562-.387,3.848-.611l-.287-.378c-3.125,5.016.78,6.581,4.133,8.417l-.292-.283c2.095,2.817,3.347,7.347,8.408,4.134l-.329-.175c-.522,2.062-.235,4.1,1.836,4.887,4.318,1.642,8.847,2.736,13.159,4.394,4.482,1.722,7.793,4.579,9.373,9.538q6.045,18.965,12.73,37.723c3.284,9.266,5.735,19.032,13.643,26.775,7.112-6.733,12.178-13.949,14.847-23.192,3.676-12.737,8.228-25.221,12.434-37.8,1.735-5.189,3.931-9.835,10.371-10.642,1.865-.234,3.492-2,5.377-2.5,12.041-3.142,19.016-11.367,23.5-22.46a130.74,130.74,0,0,1,7.878-16.069c.711-1.236,3.61-2.176,5.126-1.787,3.179.816,6.251,2.738,6.623,6.436.181,1.8-.782,3.854-1.624,5.6-2.593,5.383-5.388,10.669-8.085,16-8.173,16.168-6.916,32.006,1.707,47.571a39.168,39.168,0,0,0,3.046,5.142c3.762,4.848,3.157,9.61.651,14.855-8.3,17.38-16.372,34.873-24.484,52.343-1.392,3-2.69,6.052-3.776,9.169-.752,2.161,2.365,5.719,4.573,5.169a87.877,87.877,0,0,0,13.272-3.915c17.178-7.326,33.483-16.414,48.052-28.033a29.886,29.886,0,0,1,21.949-6.908l-.2-.209c1.217,3.765,4.744,4.187,7.753,5.374,13.064,5.155,14.227,5.986,13.13,18.064-5.194,57.155-30.978,102.243-79.532,133.68a24.672,24.672,0,0,1-5.456,2.182,7.081,7.081,0,0,1-2.095.032c-4.581-5.246-4.1-12.375-6.553-18.412-4.461-10.972-7.636-23.174-21.338-26.9-1.071-.747-2.036-1.874-3.222-2.2-14.028-3.87-22.335-12.848-25.7-27.049A26.549,26.549,0,0,0,276.4,322.83c-1,7.778,2.691,13.422,4.377,19.549,4.332,15.744,11.132,30.978,10.383,47.83l-1.284,1.022c-5.439-.983-.412-9.42-7.748-9.864v29.677c-4.987-3.28-2.622-7.9-4.081-11.395-.762-1.822-1.356-3.895-3.859-3.1a3.666,3.666,0,0,0-1.955,2.687c-.41,5.956-.327,11.953-.922,17.885-.244,2.427.878,6.233-4.71,6.806-.467-9.718-.928-19.3-1.51-31.376-4.979,7.015-4.244,13.176-5.315,18.672-1.091,5.6,1.081,11.877-3.625,16.822-3.28-5.542-3.252-11.37-2.742-17.45.609-7.264.82-14.587.707-21.877-.059-3.8-.261-8.113-5.975-9.527q-3.407,17.376-6.81,34.747l-2.522-.343V380.126c-8.644,16.247-8.481,33.261-5.245,50.175,2.015,10.531,9.223,17.565,20.073,19.72a61.878,61.878,0,0,0,25.745.161c15.918-3.575,23.787-12.88,24.255-29.243a178.107,178.107,0,0,0-3.465-39.568c-1.748-8.887.381-10.286,11.242-9.431.661.052,1.317.171,1.976.259,13.382,11.7,19.416,26.344,17.712,44.11-.745,7.771,1.893,15.956-2.794,23.227-.643,1-1.694,2.335-2.633,2.4-1.587.111-1.967-1.261-1.942-2.863a4.425,4.425,0,0,0-1.325-3.315c-2.657-1.811-3.373,1.021-4.125,2.441-1.174,2.22-3.208,5.654-2.365,6.994,4.576,7.277.244,10.843-5,14.3-6.177,4.062-12.719,6.931-20.374,6.689-5.276-.167-10.565.087-15.848.153Zm23.354-9.63c.07-1.523.386-2.483.075-2.774-.792-.741-1.934-1.74-2.809-1.63a24.962,24.962,0,0,0-5.615,1.729c-4.2,1.6-6.476,4.92-4.55,6.507,2.337,1.927,4.922,1.692,7.281.328A53.823,53.823,0,0,0,298.372,457.064Zm-63.951-6.448c-.626.343-1.525.54-1.647.961-.293,1.015-.7,2.732-.22,3.113a88.47,88.47,0,0,0,9.463,6.606,3.308,3.308,0,0,0,3.129-.76c.662-.837,1.09-2.85.568-3.469C242.768,453.568,239.293,450.723,234.421,450.616Zm-12.732-16.127c-1.278-.426-2.279.144-2.553,1.785-.483,2.887.367,5.282,3.51,5.88.91.173,2.912-.849,2.957-1.435C225.826,437.846,224.01,435.94,221.689,434.489Zm90.18,3.753c-.578-.825-1.223-2.448-1.786-2.42-1.851.091-3.359,1.208-2.9,3.363.212,1,1.217,2.659,1.758,2.618C310.816,441.662,311.851,440.266,311.869,438.242Z"/><path class="b" d="M138.81,234.531c-2.684,1.592-5.158.8-7.088-1.154-4.634-4.688-9.477-9.257-13.494-14.448-8.5-10.983-14.556-22.53-3.809-35.72.373-.457.231-1.3.5-1.885a2.49,2.49,0,0,0-.99-3.492,3.708,3.708,0,0,0-5.039.961c-8.408,10.022-14.341,20.716-8.046,34.25.834,1.791,1.374,3.718,2.05,5.582-3.036-.469-6.584-1.815-7.192,3.041-.385,3.069,3.233,7.679,5.049,6.727,2.394-1.256,2.874-3.888,2.846-6.4a14.863,14.863,0,0,0-.941-3.581c6.88,4.52,4.124,15.709,13.042,18.953.422.154.49,2.594.024,3.664-3.974,9.109,5.437,8.337,9.061,12.2C109.21,255.09,96.1,251.048,85.1,239.917c-3.879-3.924-6.977-8.251-8.3-13.326-5.749-22.045-5.753-43.306,9.949-62.023,3.367-4.014,7.917-7.193,9.391-12.628q2.108-1.949,4.219-3.893l15.233-8.785c-9.293-1.93-13.817,1.891-18.382,5.578q-2.235,1.675-4.48,3.342c-9.253,4.3-13.782,13.59-20.827,21.093-2.793-12.7-.948-21.927,6.839-31.409a86.968,86.968,0,0,1,22.333-19.555c13.548-8.133,27.175-9.293,40.772.131-.8,8.426-11.343,6.62-12.882,13.661,1.293,3.35,4.216,2.288,6.293,1.651,19.4-5.957,33.494,2.438,45.244,16.73,5.965,7.255,9.324,16.027,12.112,24.864,2.8,8.869.293,17.014-5.17,24.292-1.133,1.509-2.339,3.537-4.757,2.737-3.709-1.225-2.627-3.858-1.387-6.182,3.2-6,2.766-9.711-5.186-10.5-2.758-.271-3.624-5.5-7.849-4.287-3.139,5.236-.961,10.062,1.025,15.06,3.885,9.777,9.113,19.159,9.444,30.059l.333-.268c-1.21-.307-2.451-.525-3.621-.943-1.474-.527-2.892-3.475-4.4-.227-3.962,8.531-3.862,8.51-9.766,2.015a76.852,76.852,0,0,0-5.8-5.253q-1.566-2.544-3.13-5.088a18.64,18.64,0,0,0-1.176-3.425c-.842-1.48-2-3.219-3.876-1.409a3.359,3.359,0,0,0-.4,3.186,22.034,22.034,0,0,0,3.564,3.771q1.033,2.834,2.065,5.667c.557,4.825,3.343,9.412,1.55,14.488l.3-.095c-2.926-2.682-5.664-5.622-8.856-7.936-1.621-1.174-2.865-5.46-5.818-2.156-1.072,1.2-.64,3.742-.9,5.672Zm6.566-76.925c-11.308.262-21.133,6.653-29.979,15.045-1.29,1.224-1.023,2.629.623,3.278a4.65,4.65,0,0,0,3.319.227c11.915-5.963,23.642-13.263,36.989-3.294,1.392,1.04,2.725.556,3.238-1.109.355-1.156.761-2.6.376-3.631C157.682,162.084,153.761,157.944,145.376,157.606ZM96.461,240.238c.255.59.482,1.193.77,1.766a7.223,7.223,0,0,0,7.9,4.2c.7-.091,1.761-2.037,1.64-3-.51-4.04-3.514-5.031-7.012-4.692C98.614,238.62,97.557,239.635,96.461,240.238ZM91,231.529c-.572-1.69-.779-3.726-1.858-5.055-.93-1.145-3.2-2.4-4.264-1.993-2.232.854-1.447,3.187-.476,4.724a14.523,14.523,0,0,0,3.8,3.863C88.543,233.315,89.9,232.161,91,231.529Zm2.188-21.757c.754-1.882,1.993-3.6,1.969-5.31-.023-1.646-1.349-3.273-2.1-4.909-.859.707-2.277,1.294-2.462,2.147a14.135,14.135,0,0,0-.032,5.6C90.727,208.164,92.085,208.79,93.186,209.772Z"/><path class="b" d="M362.727,250.327q3.735-6.631,7.459-13.263c5.915-6.578,11.33-13.392,12.185-27.425-7.743,9.866-13.167,16.05-17.275,23.335-2.388.359-6.564,1.5-5.449-2.342,3.7-12.744,8.359-25.211,12.769-37.742,1.317-3.741,3.465-7.353,1.572-11.4-.468-1-1.943-1.593-3.042-2.221-1.4-.8-3.276-.384-3.3,1.06-.142,9.651-9.715,10.736-14.676,16.63-9.962-19.488-2.486-35.886,8.681-51.242,5.273-7.25,13.344-10.852,22.472-11.432,7.344-.466,14.659-.323,21.772,1.834,2.567.778,6.253,1.81,6.914-.813,1.143-4.535-3.513-4.5-6.488-5.323-4.481-1.242-9-2.365-13.516-3.459-1.908-.462-4.11-1.245-3.379-3.356a7.157,7.157,0,0,1,4.274-3.794c18.932-5.508,42.579,2.46,55.347,18.834a58.424,58.424,0,0,1,7.892,13.774c.784,1.925-2.236,2.642-4.249,2.075a22.257,22.257,0,0,1-3.587-1.725c-2.162-3.4-4.867-6.149-8.854-7.36a14.039,14.039,0,0,0-2.793-2.165c-1.66-.721-3.966-1.234-4.651.771-.352,1.03,1.4,2.833,2.311,4.214.31.47.955.718,1.447,1.068l8.614,7.431c3.15,4.173,6.387,8.284,9.435,12.531,13.189,18.378,13.155,41.514-.022,61.845a6.56,6.56,0,0,0,.492-1.79c-.056-3.184,3.734-7.875-1.592-9.02-3.3-.709-3.776,4.055-4.6,6.941a8.626,8.626,0,0,0-.159,1.858c-1.244,1.55-2.313,3.772-.613,4.933,2.286,1.562,2.523-1.116,3.107-2.6a6.244,6.244,0,0,0,3.681-.656c-.8,11.44-10.115,14.954-18.435,18.493-6.621,2.816-14,4.464-21.481,2.736-2.575-.594-3.29,1.426-4.36,2.978l.2.211c4.428-7.016,8.236-9.831,13.738-9.528,3.239.179,6.467,1.44,9.655,1.286,1.467-.071,3.306-2.131,4.1-3.726a3.08,3.08,0,0,0-2.01-4.566c-3.25-.858-4.3-2.488-2.107-5.26,3.475-4.4,10.506-6.488,9.01-14.077,4.409-1.8,4.836-5.531,4.268-9.479a3.474,3.474,0,0,0-2.56-2.132c-1-.067-2.962,1.027-2.965,1.622-.017,3.187.448,6.377.746,9.565-2.87-1.466-2.567-3.909-2.5-6.654.605-24.24-12.215-39.59-33.071-49.646-5.737-2.766-11.289-3.28-17.268-.847-4.167,1.7-7.208,4.865-5.81,6.733,1.934,2.584,4.633,1.984,7.018,1.671,11.3-1.481,18.876,4.473,25.537,12.4,17,20.24,18.456,25.778,1.6,46.235a48.006,48.006,0,0,1-4.434,4.181c-4.173-4.295,3.679-7.974-.051-12.9-4.63.38-6.275,5.555-9.931,7.613-6.163,3.468-3.9-1.973-4.561-4.326,5.5-4.264,9.484-9.18,7.239-16.775,2.211,1.2,2.968.509,2.435-1.86l-2.194,2.21L396.405,220.5c-8.568,8.557-17.1,17.151-25.727,25.646-2.242,2.208-4.582,4.545-8.243,3.881C362.441,250.038,362.727,250.327,362.727,250.327Zm23.237-42.041-1.084-1.316-1.189,1.222,1.654,1.338Q385.656,208.908,385.964,208.286Z"/><path class="b" d="M207.018,150.737c.673-5.748-3.557-9.825-5.151-14.818a52.486,52.486,0,0,1-1.032-29.376c4.49-18.189,15.584-29,34.2-31.448,9.068-1.195,17.686-3.519,27.156-6.3-4.9-4.683-9.412-4.289-13.972-3.782-4.595.512-9.193,1.069-13.806,1.3a3.525,3.525,0,0,1-2.525-2.137,4.387,4.387,0,0,1,.555-3.6c1.7-1.984,3.532-4.216,5.811-5.279,18.949-8.844,38.085-10.9,57.432-.984,4.364,2.236,7.581,5.364,9.183,9.973.391,1.123.518,2.839-.083,3.663a4.372,4.372,0,0,1-3.463,1.234c-1.935-.2-3.778-1.207-5.716-1.5a54.147,54.147,0,0,0-9.869-.866c-1.7.062-4.322,1.074-4.792,2.314-.754,1.991,1.374,3.714,3.276,4.1,11.117,2.25,21.667,6.078,32.167,10.316,9.565,3.86,15.568,11.071,17.592,20.3,3.316,15.117,2.643,30.383-4.726,44.615a16.419,16.419,0,0,1-3.751,4.609c-2.882,2.532-5.836,6.174-8.937-.148-.621-1.266-3.315-1.773-5.15-2.133-3.7-.724-4.222-2.812-2-5.211,4.134-4.463,4.628-8.579,1.765-14.223-1.623-3.2-.551-7.766-.68-11.718-.373-11.4-6.237-18.987-17-21.85-15.594-4.146-31.536-4.756-47.251-.662-9.968,2.6-15.8,9.45-16.372,20.075-.357,6.6.126,13.321-.97,19.784-.891,5.251,3.573,12.165-4.1,15.71-.334.154-.266,1.194-.371,1.824-.579,3.468-3.432,7.383-5.779,7.923l.329.177c-2.117-5.263-3.8-6.091-8.408-4.135l.293.283c2.212-4.333,1.479-5.825-4.134-8.417Zm116.508-10.524c1.478.528,2.595-.03,2.624-1.687a37.684,37.684,0,0,0-.642-5.408c-.993.195-2.483.049-2.892.645C321.053,136.041,321.145,138.356,323.526,140.213Zm-107.212,1.209a19.228,19.228,0,0,0-.784,3.587c-.013.38,1.052,1.215,1.46,1.122,1.626-.371,2.3-1.549,1.585-2.85C218.149,142.509,217.13,142.064,216.314,141.422Z"/><path class="b" d="M287.2,142.943c-6.777,7.32-5.107,17.188-7.71,25.768-1.117,3.685-1.267,7.73-5.721,10.541-3.24-11.69-.279-23.493-4.843-35.93-3.65,14.017-1.347,26.727-3.222,40.8-6.638-8.141-5.78-17.3-9.042-24.881-3.484-8.1-1.58-17.039-4.12-26.3-3.09,9.085.772,18.055-3.339,26.734-5.241-11.652-7.1-23.323-7.228-35.306-.134-12.339,3.475-16.349,16.088-18.27a65.381,65.381,0,0,1,25.756.72c10.781,2.67,17.783,10.7,17.53,21.306a77.78,77.78,0,0,1-3.316,21.58c-3.144,9.84-2.265,21.035-10.637,31.777-.183-14.413-.337-26.593-.5-38.778,4.043-3.659,3.712-7.789.3-14.447Z"/><path class="b" d="M274.689,466.33c.416,3.05-3.863,8.366,3.83,7.9,6.588-.4,13.174-.843,19.767-1.123,2.653-.114,4.572,3.367,3.375,5.689-3.515,6.82-8.776,11.31-16.365,13.216a85.728,85.728,0,0,1-31.518,1.53,30.845,30.845,0,0,1-17.635-8.408c-3.819-3.62-7.757-7.171-7.787-12.92,4.714-3.157,9.284-.968,13.735-.784,6.814.282,13.51,2.82,19.552-3.954,2.644-2.964,8.759-2.015,13.374-.785Z"/><path class="b" d="M191.258,136.455c-.571,1.726-.775,3.846-3.247,3.271s-4.819-1.671-4.4-4.854a3.584,3.584,0,0,1,3.622-3.307C190.953,131.336,190.6,134.329,191.258,136.455Z"/><path class="b" d="M178.732,226.532a13.277,13.277,0,0,1,2.577,2.426c.883,1.43.26,2.475-1.367,2.539-.218.008-.614-1.035-.689-1.621-.151-1.192-.138-2.4-.191-3.61Z"/><path class="b" d="M358.328,254.209c-.211,1.03-.084,2.467-.715,2.988-.817.676-.991-.077.246-1.311a5.653,5.653,0,0,0,.765-1.384Z"/><path class="b" d="M311.066,162.8c-.864,2.866-3.887,4-5.088,2.193-1.675-2.524,1.8-2.843,3.576-3.59Q310.322,162.093,311.066,162.8Z"/><path class="b" d="M193.352,145.974l-2.541-1.418c.442-.443.982-1.32,1.308-1.247a12.36,12.36,0,0,1,2.663,1.252Z"/><path class="b" d="M309.554,161.406c.789-1.692,2.034-2.746,3.977-2.443.481.075,1.288.867,1.223,1.179-.4,1.923-1.9,2.539-3.689,2.66Q310.323,162.093,309.554,161.406Z"/><path class="b" d="M138.809,234.531c2.341.226,3.425,1.818,4.14,3.81l.335-.275c-2.865.56-4.748-.124-4.474-3.535Z"/><path class="b" d="M142.949,238.341l2.294,2.238c-3.09,1.088-2.157-1-1.967-2.506Z"/><path class="b" d="M154.075,239.046l1.036.027s-.712-.165-.722-.144A2.231,2.231,0,0,1,154.075,239.046Z"/><path class="b" d="M358.624,254.5q2.058-2.081,4.109-4.168c-.006-.007-.292-.3-.3-.3-.258,2.472-1.771,3.724-4.1,4.183C358.328,254.209,358.624,254.5,358.624,254.5Z"/><path class="b" d="M206.58,442.729l3.375.094-1,2.3q-1.031-1.4-2.061-2.789Z"/><path class="a" d="M291.158,390.209c.749-16.852-6.051-32.086-10.383-47.83-1.686-6.127-5.372-11.771-4.377-19.549a26.549,26.549,0,0,1,11.219,16.487c3.37,14.2,11.677,23.179,25.7,27.049,1.186.327,2.151,1.454,3.223,2.2q-1.572,1.8-3.155,3.629c-.661-.085-1.317-.2-1.978-.256-10.861-.855-12.99.544-11.242,9.431a178.107,178.107,0,0,1,3.465,39.568c-.468,16.363-8.337,25.668-24.255,29.243a61.878,61.878,0,0,1-25.745-.161c-10.85-2.155-18.058-9.189-20.073-19.72-3.236-16.914-3.4-33.928,5.245-50.175v33.467l2.522.343q3.4-17.371,6.81-34.747c5.714,1.414,5.916,5.729,5.975,9.527.113,7.29-.1,14.613-.707,21.877-.51,6.08-.538,11.908,2.742,17.45,4.706-4.945,2.534-11.223,3.625-16.822,1.071-5.5.336-11.657,5.315-18.672.582,12.08,1.043,21.658,1.51,31.376,5.588-.573,4.466-4.379,4.71-6.806.595-5.932.512-11.929.922-17.885a3.666,3.666,0,0,1,1.955-2.687c2.5-.793,3.1,1.28,3.859,3.1,1.459,3.491-.906,8.115,4.081,11.395V381.367c7.336.444,2.309,8.881,7.762,9.854.366,3.162.492,6.38,1.132,9.493.629,3.058-.859,6.676,3.312,10.367C293.662,403.176,296.959,396.205,291.158,390.209Z"/><path class="a" d="M208.349,372.3c4.654-6.194,11.414-8.741,18.53-10.617,5.544-1.462,9.024-4.99,11.343-10.161,5.119-11.418,10.538-22.7,15.7-34.1,1.619-3.57,2.512-7.488,4.311-10.949,1.785-3.436,3.928-7.532,8.726-6.578,4.2.836,6.21,4.634,7.573,8.421a4.5,4.5,0,0,1-.414,3.691c-1.907,2.429-2.9-.154-4.286-1.059-5.1-3.334-6.981-3.174-8.977,1-6.907,14.433-10.432,29.934-13.236,45.517-1.195,6.64-2.6,12.852-6.5,18.375-12.682-6.089-12.682-6.089-29.08-.145Q210.2,373.994,208.349,372.3Z"/><path class="a" d="M298.372,457.064a53.823,53.823,0,0,1-5.618,4.16c-2.359,1.364-4.944,1.6-7.281-.328-1.926-1.587.352-4.906,4.55-6.507a24.962,24.962,0,0,1,5.615-1.729c.875-.11,2.017.889,2.809,1.63C298.758,454.581,298.442,455.541,298.372,457.064Z"/><path class="a" d="M234.421,450.616c4.872.107,8.347,2.952,11.293,6.451.522.619.094,2.632-.568,3.469a3.308,3.308,0,0,1-3.129.76,88.47,88.47,0,0,1-9.463-6.606c-.479-.381-.073-2.1.22-3.113C232.9,451.156,233.8,450.959,234.421,450.616Z"/><path class="a" d="M221.7,434.485c2.315,1.455,4.131,3.361,3.908,6.234-.045.586-2.047,1.608-2.957,1.435-3.143-.6-3.993-2.993-3.51-5.88C219.41,434.633,220.411,434.063,221.7,434.485Z"/><path class="a" d="M311.869,438.242c-.018,2.024-1.053,3.42-2.932,3.561-.541.041-1.546-1.617-1.758-2.618-.455-2.155,1.053-3.272,2.9-3.363C310.646,435.794,311.291,437.417,311.869,438.242Z"/><path class="a" d="M210.572,158.493c4.606-1.956,6.291-1.128,8.408,4.135C213.919,165.84,212.667,161.31,210.572,158.493Z"/><path class="a" d="M206.731,150.359c5.613,2.592,6.346,4.084,4.134,8.417C207.511,156.94,203.606,155.375,206.731,150.359Z"/><path class="a" d="M204.528,376.375q1.918-2.036,3.829-4.073,1.838,1.69,3.692,3.391-2.079,1.925-4.162,3.847Z"/><path class="a" d="M201.314,381.076q1.617-2.346,3.223-4.7,1.665,1.575,3.35,3.161-1.75,2.3-3.5,4.6Z"/><path class="a" d="M145.376,157.606c8.385.338,12.306,4.478,14.566,10.516.385,1.029-.021,2.475-.376,3.631-.513,1.665-1.846,2.149-3.238,1.109-13.347-9.969-25.074-2.669-36.989,3.294a4.65,4.65,0,0,1-3.319-.227c-1.646-.649-1.913-2.054-.623-3.278C124.243,164.259,134.068,157.868,145.376,157.606Z"/><path class="a" d="M96.461,240.237c1.1-.6,2.153-1.617,3.3-1.728,3.5-.339,6.5.652,7.012,4.692.121.962-.941,2.908-1.64,3a7.223,7.223,0,0,1-7.9-4.2C96.943,241.431,96.716,240.828,96.461,240.237Z"/><path class="a" d="M102.651,218.412a14.863,14.863,0,0,1,.941,3.581c.028,2.512-.452,5.144-2.846,6.4-1.816.952-5.434-3.658-5.049-6.727.608-4.856,4.156-3.51,7.192-3.041Z"/><path class="a" d="M97.2,144.835c4.57-3.682,9.094-7.5,18.387-5.573-6.513,3.756-10.873,6.271-15.236,8.782Z"/><path class="a" d="M91,231.529c-1.1.632-2.455,1.786-2.8,1.539a14.523,14.523,0,0,1-3.8-3.863c-.971-1.537-1.756-3.87.476-4.724,1.062-.406,3.334.848,4.264,1.993C90.219,227.8,90.426,229.839,91,231.529Z"/><path class="a" d="M93.186,209.772c-1.1-.982-2.459-1.608-2.628-2.468a14.135,14.135,0,0,1,.032-5.6c.185-.853,1.6-1.44,2.462-2.147.754,1.636,2.08,3.263,2.1,4.909C95.179,206.167,93.94,207.89,93.186,209.772Z"/><path class="a" d="M150.46,218.892a22.077,22.077,0,0,1-3.564-3.772,3.359,3.359,0,0,1,.4-3.186c1.881-1.81,3.034-.071,3.876,1.409a17.448,17.448,0,0,1,1.162,3.438C151.714,217.505,151.093,218.2,150.46,218.892Z"/><path class="a" d="M92.727,148.182q2.242-1.669,4.48-3.342l3.146,3.2q-2.106,1.95-4.216,3.9Q94.434,150.062,92.727,148.182Z"/><path class="a" d="M152.525,224.558q-1.032-2.833-2.065-5.667c.633-.687,1.254-1.386,1.876-2.11,1.057,1.683,2.1,3.379,3.144,5.075Z"/><path class="a" d="M365.1,232.974c4.108-7.285,9.532-13.469,17.275-23.335-.855,14.033-6.27,20.847-12.185,27.425Q367.653,235.021,365.1,232.974Z"/><path class="a" d="M406.478,206.139c2.249,7.6-1.737,12.518-7.235,16.782-.969-.764-1.91-1.561-2.831-2.405q5.148-7.023,10.311-14.02Z"/><path class="a" d="M440.254,144.969c3.984,1.215,6.689,3.964,8.851,7.364q-1.957,1.971-3.923,3.957-4.311-3.713-8.617-7.429Z"/><path class="a" d="M442.712,218.46c-.3-3.188-.763-6.378-.746-9.565,0-.595,1.968-1.689,2.965-1.622a3.474,3.474,0,0,1,2.56,2.132c.568,3.948.141,7.677-4.268,9.479Z"/><path class="a" d="M448.717,228.651a10.007,10.007,0,0,1,.178-1.852c.821-2.886,1.3-7.65,4.6-6.941,5.326,1.145,1.536,5.836,1.592,9.02a6.56,6.56,0,0,1-.492,1.79l.319-.33a6.251,6.251,0,0,1-3.681.655A21.257,21.257,0,0,0,448.717,228.651Z"/><path class="a" d="M436.565,148.861c-.492-.35-1.137-.6-1.447-1.068-.911-1.381-2.663-3.184-2.311-4.214.685-2,2.991-1.492,4.651-.771a14.039,14.039,0,0,1,2.793,2.165Z"/><path class="a" d="M406.723,206.5l2.194-2.21c.533,2.369-.224,3.061-2.435,1.86C406.478,206.139,406.723,206.5,406.723,206.5Z"/><path class="a" d="M385.964,208.286q-.309.621-.619,1.244l-1.654-1.338,1.189-1.222Z"/><path class="a" d="M451.23,230.993c-.584,1.481-.821,4.159-3.107,2.6-1.7-1.161-.631-3.383.613-4.933A22.056,22.056,0,0,1,451.23,230.993Z"/><path class="a" d="M323.525,140.213c-2.38-1.857-2.472-4.172-.909-6.45.409-.6,1.9-.45,2.892-.645a37.684,37.684,0,0,1,.642,5.408C326.121,140.183,325,140.741,323.525,140.213Z"/><path class="a" d="M216.314,141.422c.816.642,1.835,1.087,2.261,1.859.718,1.3.041,2.479-1.585,2.85-.408.093-1.473-.742-1.46-1.122A19.228,19.228,0,0,1,216.314,141.422Z"/><path class="a" d="M287.2,142.943V128.257c3.412,6.658,3.743,10.788-.3,14.447C286.9,142.71,287.2,142.943,287.2,142.943Z"/><path class="b" d="M291.158,390.209c5.8,6,2.5,12.967,3.174,20.872-4.171-3.691-2.683-7.309-3.312-10.367-.64-3.113-.766-6.331-1.132-9.493C289.874,391.231,291.158,390.209,291.158,390.209Z"/></svg>