<svg xmlns="http://www.w3.org/2000/svg" viewBox="0 0 543.348 543.348"><defs><style>.a{fill:#df271f;}.b{fill:#fcfcfb;}</style></defs><path class="a" d="M506.269,76.665c-6.683,1.976-12.257.294-18.037-1.741A159.191,159.191,0,0,1,452.57,57.206c-4.479-2.987-9-6.3-14.341-6.7-13.907-1.024-27.857-1.139-41.556-4.433-6.357-1.529-11.707,2.095-16.5,5.7-9.36,7.042-20.077,10.064-31.372,12.014-9.333,1.612-17.8.288-22.858-8.15-6.51-10.858-16.844-12.288-26.033-8.276-17.9,7.819-35.244,6.869-54.1,4.943-20.788-2.122-40.628,5.327-57.494,18.774-3.935,3.136-5.231,7.041-6.282,11.848-2.6,11.874-4.525,13.682-15.989,12.392-14.108-1.587-24.73,3.482-33.222,14.093-4.979,6.222-9.742,12.629-14.342,19.136-3.766,5.327-4.76,11-.244,16.529,3.017,3.694,1.648,6.932.153,10.929-2.842,7.6.774,13.386,8.509,13.623,18.641.572,37.3.662,55.952.787,28.621.19,57.243.177,85.863.4,8.942.07,17.822.606,18.89,12.73.2,2.275,2.412,3.051,4.407,2.776a5.392,5.392,0,0,0,3.2-2.132,18.876,18.876,0,0,0,2.631-5.257c1.19-3.785-3.675-8.346-.205-11.163,5.207-4.227,10.371.783,14.467,3.089,15.826,8.914,30.634,6.268,45.391-2.085,4.073-2.306,7.852-4.767,8.914-9.994,1.3-6.415,6.878-7.992,12.108-8.417a127.422,127.422,0,0,1,21.934.17c19.326,1.791,32.939-8.127,45.162-21.178,1.688-1.8.23-5.6-2.432-6.266-5.108-1.274-10.587-1.61-15.331-3.67-9.007-3.912-10.148-13.018-2.412-18.952,11.609-8.906,25.167-13.191,39.421-9.907,14.2,3.27,27.607,3.571,40.262-3.327,3.852,5.178,2.585,9.943,2.588,14.4q.111,193.922.057,387.842c0,3.332.081,6.669-.089,9.994-.343,6.7-1.924,8.482-8.079,8.78-4.656.225-9.33.114-14,.114q-213.97.006-427.938,0c-23.881,0-21.9,1.675-21.907-21.182q-.032-214.912,0-429.824c0-4.663.079-9.326.187-13.987.09-3.851,2.134-6.273,5.927-6.574,4.639-.368,9.314-.356,13.974-.357q215.969-.024,431.937,0c22.188,0,19.9-1.455,19.934,20.85C507.719,63.833,508.769,70.56,506.269,76.665ZM211.379,467.327c4.706-1.333,8.618-2.1,12.205-3.623a6.981,6.981,0,0,0,3.318-4.455c.426-1.905-1.175-3.381-3.025-4.449-3.955-2.283-10.564.873-12.321-4.1-1.382-3.911.72-8.946.773-13.488.194-16.6.424-33.215.143-49.815-.149-8.843,3.059-18.767-6.669-25.364-1.144-.775-1.076-3.672-1.168-5.6-.315-6.636-.5-13.28-.648-19.922-.373-16.469,2.977-33.014-1.49-49.425-1.283-4.716,1.326-7.669,6.164-8.016,7.292-.522,14.659-.26,21.906-1.091,10.06-1.153,15.371-6.934,16.471-16.838.146-1.316.046-2.659.07-3.99.209-11.338-1.041-15.985-14.273-16.055-22.625-.12-45.252-.281-67.874-.68-19.29-.341-20.03,2.186-17.537,21.014a50.249,50.249,0,0,0,2.745,9.513c1.415,4.115,4.217,6.645,8.756,6.865,7.311.355,14.63.584,21.93,1.092,8.429.586,10.45,2.537,10.82,10.955,1.579,35.89.886,71.784-.052,107.674-.051,1.925-.906,3.828-1.386,5.741-4.427-1.157-7.933-.854-7.768,5.032.112,3.987.331,7.971.451,11.958.141,4.655.954,9.438.173,13.941-1.328,7.672,3.095,12.347,7.688,17.124-4.969,3.63-10.88,1.063-15.657,3.4a6.555,6.555,0,0,0-3.311,4.475,6.178,6.178,0,0,0,2.655,4.894c2.24,1.178,5.148,1,7.659,1.775,1.906.584,5.361-.982,5.39,2.808-2.573,3.154-5.968,3.435-9.159,4.157-3.42.773-6.209,2.154-6.983,6.038-1.169,5.866-2.24,11.747.77,17.35a4.844,4.844,0,0,0,3.289,1.813,259.5,259.5,0,0,0,47.736,2.374c3.444-.163,6.947-1.265,7.757-5,1.42-6.554,1.693-13.328-1.6-19.435-2.56-4.74-7.876-4.114-12.321-5.166C215.265,470.394,213.792,468.868,211.379,467.327ZM197.688,182.015v-.13q-10.957,0-21.917,0c-16.6-.006-33.2-.136-49.8.045-5.861.064-8.2,3.212-7.642,9.077,1.8,19.012,16.063,33.562,35.16,34.086,28.549.784,57.129.387,85.69.828,13.68.211,22.337-6.915,28.672-17.966.912-1.592,2.073-4.436,1.371-5.331-4.475-5.708-1.45-7.986,3.69-10.115,2.785-1.154,3.166-4.123,2.607-6.749-.661-3.108-3.388-3.72-6.1-3.724Q233.551,181.982,197.688,182.015Zm17.635,237.45c1.054,7.551-2.336,14.876,1.066,21.973.731,1.526,1.522,2.351,3.074,1.613,1.021-.486,2.558-1.343,2.626-2.14.506-5.909.936-11.843.955-17.771.089-29.144.522-58.2,5.718-87.075,2.45-13.613,2.631-27.641,3.665-41.495.14-1.888-.815-4.053-3.306-3.76-.852.1-1.913,1.622-2.206,2.68a53.6,53.6,0,0,0-2.048,9.683C221.611,342.056,218.466,380.949,215.323,419.465Zm-36.367,26.5c0-20.158,1.692-36.873-.545-53.045-1.736-12.554-3.112-25.027-2.953-37.557.221-17.414-3.939-34.242-5.618-51.386-.413-4.206-.841-9.372-5.678-12.568-1.917,6.094-.3,11.876.53,17.635.659,4.592,1.683,9.131,2.371,13.72,4.222,28.186,2.879,56.949,8.928,84.982,1.084,5.027-.4,10.564-.289,15.857C175.832,430.064,173.573,436.784,178.956,445.96Zm6.775-63.142c2.429-30.786-1.79-59.7-2.74-88.736a5.255,5.255,0,0,0-.234-1.959c-.855-1.859-2.221-3.4-4.407-2.916-1.023.228-2.517,1.535-2.56,2.412-.19,3.937-.66,8.081.3,11.81,2.828,11.028,2.808,22.309,3.107,33.465C179.6,352,179.945,366.973,185.731,382.818Zm30-89.234c-2.946-.525-3.147.237-3.131,2.117.133,15.738.076,31.478.076,49.751,3.653-10.786-.53-19.747,1.827-27.625C217.043,309.335,215.669,301.535,215.731,293.584Z"/><path class="b" d="M211.379,467.327c2.413,1.541,3.886,3.067,5.622,3.477,4.445,1.052,9.761.426,12.321,5.166,3.3,6.107,3.025,12.881,1.6,19.435-.81,3.739-4.313,4.841-7.757,5a259.5,259.5,0,0,1-47.736-2.374,4.844,4.844,0,0,1-3.289-1.813c-3.01-5.6-1.939-11.484-.77-17.35.774-3.884,3.563-5.265,6.983-6.038,3.191-.722,6.586-1,9.159-4.157-.029-3.79-3.484-2.224-5.39-2.808-2.511-.771-5.419-.6-7.659-1.775a6.178,6.178,0,0,1-2.655-4.894,6.555,6.555,0,0,1,3.311-4.475c4.777-2.336,10.688.231,15.657-3.4-4.593-4.777-9.016-9.452-7.688-17.124.781-4.5-.032-9.286-.173-13.941-.12-3.987-.339-7.971-.451-11.958-.165-5.886,3.341-6.189,7.768-5.032.48-1.913,1.335-3.816,1.386-5.741.938-35.89,1.631-71.784.052-107.674-.37-8.418-2.391-10.369-10.82-10.955-7.3-.508-14.619-.737-21.93-1.092-4.539-.22-7.341-2.75-8.756-6.865a50.249,50.249,0,0,1-2.745-9.513c-2.493-18.828-1.753-21.355,17.537-21.014,22.622.4,45.249.56,67.874.68,13.232.07,14.482,4.717,14.273,16.055-.024,1.331.076,2.674-.07,3.99-1.1,9.9-6.411,15.685-16.471,16.838-7.247.831-14.614.569-21.906,1.091-4.838.347-7.447,3.3-6.164,8.016,4.467,16.411,1.117,32.956,1.49,49.425.15,6.642.333,13.286.648,19.922.092,1.932.024,4.829,1.168,5.6,9.728,6.6,6.52,16.521,6.669,25.364.281,16.6.051,33.21-.143,49.815-.053,4.542-2.155,9.577-.773,13.488,1.757,4.968,8.366,1.812,12.321,4.1,1.85,1.068,3.451,2.544,3.025,4.449a6.981,6.981,0,0,1-3.318,4.455C220,465.231,216.085,465.994,211.379,467.327Z"/><path class="b" d="M197.688,182.015q35.864,0,71.727.021c2.716,0,5.443.616,6.1,3.724.559,2.626.178,5.595-2.607,6.749-5.14,2.129-8.165,4.407-3.69,10.115.7.9-.459,3.739-1.371,5.331-6.335,11.051-14.992,18.177-28.672,17.966-28.561-.441-57.141-.044-85.69-.828-19.1-.524-33.358-15.074-35.16-34.086-.556-5.865,1.781-9.013,7.642-9.077,16.6-.181,33.2-.051,49.8-.045q10.959,0,21.917,0Z"/><path class="b" d="M215.323,419.465c3.143-38.516,6.288-77.409,9.544-116.292a53.6,53.6,0,0,1,2.048-9.683c.293-1.058,1.354-2.58,2.206-2.68,2.491-.293,3.446,1.872,3.306,3.76-1.034,13.854-1.215,27.882-3.665,41.5-5.2,28.874-5.629,57.931-5.718,87.075-.019,5.928-.449,11.862-.955,17.771-.068.8-1.6,1.654-2.626,2.14-1.552.738-2.343-.087-3.074-1.613C212.987,434.341,216.377,427.016,215.323,419.465Z"/><path class="b" d="M178.956,445.96c-5.383-9.176-3.124-15.9-3.254-22.362-.106-5.293,1.373-10.83.289-15.857-6.049-28.033-4.706-56.8-8.928-84.982-.688-4.589-1.712-9.128-2.371-13.72-.826-5.759-2.447-11.541-.53-17.635,4.837,3.2,5.265,8.362,5.678,12.568,1.679,17.144,5.839,33.972,5.618,51.386-.159,12.53,1.217,25,2.953,37.557C180.648,409.087,178.956,425.8,178.956,445.96Z"/><path class="b" d="M185.731,382.818c-5.786-15.845-6.134-30.821-6.538-45.924-.3-11.156-.279-22.437-3.107-33.465-.956-3.729-.486-7.873-.3-11.81.043-.877,1.537-2.184,2.56-2.412,2.186-.488,3.552,1.057,4.407,2.916a5.255,5.255,0,0,1,.234,1.959C183.941,323.115,188.16,352.032,185.731,382.818Z"/><path class="b" d="M215.731,293.584c-.062,7.951,1.312,15.751-1.228,24.243-2.357,7.878,1.826,16.839-1.827,27.625,0-18.273.057-34.013-.076-49.751C212.584,293.821,212.785,293.059,215.731,293.584Z"/></svg>