<svg xmlns="http://www.w3.org/2000/svg" viewBox="0 0 543.348 543.348"><defs><style>.a{fill:#2d9e54;}</style></defs><path class="a" d="M300.9,144.765c3.317-4.4,4.031-8.2,1.609-14.134-5.056-12.382-.96-18.959,11.459-22.1,5.15-1.3,10.362-2.36,15.5-3.691a14.857,14.857,0,0,0,3.414-1.945c-6.949-27.771-29.7-34.981-52.409-37.83-28.557-3.582-45.227,6.6-59.11,34.605,8.711,3.027,17.621,5.415,25.9,9.18,10.229,4.65,17.6,11.739,15.831,24.68-.68,4.97,2.722,4.934,6.345,3.487,2.426-.968,4.552.735,4.1,2.5-2.893,11.215-2.838,23.233-14.563,31.276-5.482,3.76-10.685,2.881-15.81,5.195-.3-4.327,3.5-3.9,5.32-4.814,9.592-4.843,13.82-14.391,20.139-22.064a6.822,6.822,0,0,0,1.17-5.439,14,14,0,0,0-4.061-6.539c-2.319-1.911-5.2-.3-7.135,1.3s-3.183,4.006-4.722,6.046c-2.747-1.89.283-3.4.133-4.927-.692-7.066,1.321-16.275-5.486-20.026-7.285-4.015-14.414-9.636-23.25-10.327-10.173-.795-21.039,7.014-24.177,17.375-1.141,3.768-1.152,7.87-1.757,11.808-2.213,14.391-1.652,15.2,11.259,20.911,3.621,1.6,11.036.134,9.112,7.256-1.158,4.287-6.715,2.917-10.513,2.957-2.642.029-5.287-.72-7.938-.777-5.134-.111-8.574,3.36-8.959,8.469-.26,3.45.265,6.614,2.4,9.4,4.867,6.357,3.249,11.99-1,18.164-7.139,10.378-8.738,11.114-18.223,3.243-4.674-3.878-9.833-6.708-15.036-9.657-4.958-2.811-7.24-7.171-7.151-13.188.108-7.3-.888-14.616-1.039-21.932-.177-8.581,2.1-11.589,10.6-14.585,3.128-1.1,6.445-1.665,9.6-2.708a14.489,14.489,0,0,0,7.721-5.992c2.926-4.448,3.167-9.541.384-12.965-2.824-3.471-6.611-3.57-12.4-.276-.568.323-.96.954-1.527,1.281-12.417,7.159-22.4,1.571-22.565-12.546-.062-5.417,1.3-10.418,2.987-15.552a96.992,96.992,0,0,0,4.237-19.419c.683-6.115-4.938-11.124-11.39-11.269a10.221,10.221,0,0,0-10.246,10.082c-.024,4.574,1.326,9.139,1.812,13.734.857,8.1-2.12,14.193-7.931,16.721-6.788,2.953-17.273.059-21.294-6.439-2.429-3.926-3.672-8.567-5.9-12.642-2.357-4.319-6.137-7.023-11.274-7.049a10.434,10.434,0,0,0-9.749,5.709c-2.334,4.116-1.558,7.826,1.413,10.916,3.675,3.821,8.008,7.008,11.693,10.821,5.883,6.087,7.382,13.593,3.987,20-3.38,6.377-8.619,9.811-16.2,9.434-5.263-.262-10.549-1.648-15.847.245-3.677,1.314-6.3,5.521-5.382,9.425,1.529,6.472,5.174,11.12,12.171,11.191,10.068.1,17.587,4.863,24.783,11.238,6.328,5.606,10.268,11.828,10.4,20.59.089,5.925,1.634,11.813,2.213,17.748.541,5.551,2.606,10.791,6.243,14.452,14.292,14.387,25.9,32.392,48.9,35.216,10,1.228,15.618,7.234,17.568,18.455,4.952,28.492,14.321,55.313,36.275,75.989,3.827,3.605,6.791,8.195,9.79,12.579,1.493,2.183,2,4.926-.018,7.414-3.6-.112-5.641-2.709-7.912-4.974-5.647-5.632-10.959-11.669-17.051-16.773C184.091,341.332,174,327.2,171.523,308.25c-1.076-8.221-5.649-14.251-12.1-19.851-19.723-17.122-42.54-24.062-68.194-23.412-6.643.169-13.36.537-19.931-.194-11.953-1.331-18.777,5.64-24.078,14.446-5.765,9.577-8.643,20.789-1.344,30.1,8.738,11.15,14.535,23.783,21.994,35.516,6.833,10.749,17.357,18.43,27.739,25.572a206.846,206.846,0,0,0,43.908,23.411,177.612,177.612,0,0,1,51.214,30.587c4.071,3.426,7.838,7.212,11.806,10.764,3.347,3,8.94,2.487,11.363,7.112-14.006,3.449-20.891,3.54-28.384-4.883-12.484-14.034-28.331-16.112-45.244-16.519-5.328-.129-10.673.112-15.985-.226-2.083-.132-5.965.847-5.043-3.534.625-2.974,3.387-3.966,6.112-4.028,6.617-.15,13.239-.048,19.753-.048.717-5.4-3.068-6.331-5.508-8.069a75.845,75.845,0,0,0-10.252-6.177q-31.234-15.492-62.593-30.736c-6.291-3.047-11.323-1.86-13.8,2.625-2.933,5.314-1.181,12.587,4.3,15.61,4.044,2.232,8.648,3.428,12.793,5.5,6.848,3.428,9.39,10.018,7.594,18.62-1.488,7.124-6.4,10.66-14.35,11.112-7.985.454-15.619-3.753-23.778-1.531-.864.235-3.363-2.232-3.62-3.7A69.543,69.543,0,0,1,35.18,404.4q-.045-175.885-.012-351.769c0-3.326.044-6.662.3-9.975.3-3.835,2.542-5.944,6.409-6.035q8.99-.212,17.985-.219,126.949-.021,253.9-.01H483.7c4,0,8-.066,12,.024,12.481.282,12.612.419,12.952,11.974.059,2,.019,4,.019,6q0,172.885-.007,345.772v7.532c-5.156,4.794-6.75-3.036-10.559-2.091a112.483,112.483,0,0,1-11.467,2.665,88.738,88.738,0,0,1-13.9.932c-5.79-.113-10.163-2.912-12.363-8.474-2.166-5.477-.407-11.746,5.1-15.892,4.219-3.174,9.142-5.395,13.491-8.416,3.355-2.33,5.762-5.6,5.888-9.958.1-3.486-.818-6.674-4.162-8.4-3.406-1.76-6.71-1.069-8.742,2.1-8.363,13.042-19.512,23.568-30.568,34.16-4.789,4.589-10.014,8.727-15.1,13a24.892,24.892,0,0,1-4.912,3.4c-5.043,2.464-1.465,11.518-8.749,11.778-5.266.188-10.568-.851-15.865-1.082-1.152-.05-2.353,1.009-3.513,1.549a5.38,5.38,0,0,0,5.023,5.131c8.5,1.124,13.616,9.576,22.848,9.693,8.383.105,14.37,8.83,23.538,7.889,1.208-.124,1.725,2.011.735,3.3a11.164,11.164,0,0,1-2.823,1.959c-4.085-6.88-10.236-2.861-15.6-2.949-6.195-.1-8.966-8.131-15.314-7.056-6.451,1.092-11.641-2.062-17.32-3.65q-8.643-2.416-17.25-4.965a9.645,9.645,0,0,1-3.606-1.63c-6.626-5.826-14.246-6.6-22.486-4.8-1.977.432-4.031.039-4.292-2.327-.3-2.756,2.307-2.948,4.085-3.325a139.115,139.115,0,0,1,15.71-2.817c47.962-4.5,81.093-30.689,104.1-71.365A146.927,146.927,0,0,0,481.8,320.5c3.606-10.758,7.406-21.3,13.155-31.148,5.69-9.747,4.839-18.533-3.5-27.078-11.071-11.346-14.116-12.614-29.674-7.056a141.386,141.386,0,0,1-25.1,6.3c-16.736,2.717-31.794,9.4-44.332,21.267-7,6.63-12.554,14.242-13.489,23.838-2.133,21.89-13.293,38.567-28.695,53.154-3.864,3.661-7.294,7.78-11.155,11.444-1.867,1.772-4.533,3.716-7.022,2.192-3.394-2.078-.761-4.861.616-6.745,3.13-4.282,6.691-8.251,10.118-12.312,18.075-21.414,29.139-45.875,32.17-73.838.287-2.645.476-5.31.94-7.926.907-5.111,4.042-8.259,9.047-9.475a40.794,40.794,0,0,1,5.908-.959c25.18-2.3,38.2-19.424,48.427-39.824,2.371-4.731.775-6.77-6.088-9.225-1.948-.7-3.83-2.055-2.9-4.19.668-1.531,3.195-3.772,4.056-3.452,5.51,2.051,8.321-.092,11.159-4.782,5.775-9.545,7.541-20.2,7.486-30.714-.091-17.561,11.252-25.917,24.026-33.635,3.37-2.036,7.579-2.786,10.734-5.056,4.657-3.35,6.368-8.307,5.01-14.128-.756-3.246-4.423-6.082-7.316-5.035-3.1,1.123-5.932,2.991-9.026,4.148-5.309,1.985-10.438,1.985-14.718-2.507-4.158-4.363-4.862-9.339-2.356-14.71,2.527-5.416,5.034-10.862,7.94-16.077,3.49-6.264-3.217-16.1-9.109-17.35-5.116-1.082-12,3.631-12.969,9.758-.937,5.912-1.376,11.824-3.685,17.492-1.957,4.8-4.832,7.866-10.191,8.046-5.825.2-9.841-2.391-11.808-8.658-1.58-5.035-2.287-10.351-3.276-15.562-1.087-5.728-4.034-9.925-9.88-11.24-5.183-1.166-8.96,1.626-11.964,5.492-3.715,4.781-4.064,9.415-.479,14.757,3.7,5.518,7.954,10.668,11.988,15.962a19.617,19.617,0,0,1,3.548,16.98c-2.308,10.369-9.63,14.159-19.342,9.748-3.016-1.371-5.7-3.477-8.705-4.87-7.134-3.3-13.4.96-13.245,8.868.141,7.037,2.754,14.591,12.143,15.574a35.154,35.154,0,0,1,5.921.917c10.085,2.855,14.575,8.085,15.176,18.374.229,3.925-.86,7.911-.9,11.875a37.334,37.334,0,0,0,1.029,9.722c1.057,4.051,9.328,5.071,5.724,10.811-2.682,4.271-8.631,2.2-13.009,3.513-7.221,2.159-13.11,6.408-19.086,10.63-2.213,1.564-4.483,2.918-7.321,2.08-7.088-2.092-14.578-14.677-13.167-22.215.6-3.217,1.884-6.35,2.149-9.579.7-8.519-.472-9.637-10.826-11.991-1.818-.413-4.027-.26-4.477-2.889-.415-2.422.943-3.71,2.958-4.193a24.854,24.854,0,0,0,12.143-6.509c5.058-5.031,4.015-11.553-3.109-13.344-10.454-2.629-16.47-10.811-24.043-17.075-.53-.439-.176-2.415.275-3.456.628-1.445,2.011-1.623,3.438-.79,7.266,4.247,14.528,8.5,21.939,12.84,3.064-7.118-.8-11.058-4.463-14.9a19.884,19.884,0,0,0-14.264-6.249,47.58,47.58,0,0,0-21.27,4.759c-5.929,2.712-9.458,9.42-7.669,17.54,1.565,7.1-5.17,3.891-6.661,6.75Z"/><path class="a" d="M508.667,425.209c0,18.547.426,35.019-.154,51.455-.367,10.419,2.712,21.174-2.306,31.262-9.718,3.347-19.754,1.53-29.617,1.54q-204.979.209-409.957.094c-3.333,0-6.666.02-10,0-23.774-.169-21.326,2.219-21.464-21.392-.088-15.254-.016-30.51-.016-47.216,9.835,2.109,18.2,3.658,26.495.694a17.9,17.9,0,0,1,5.936-.6c5.612.01,10.718,1.461,13.377,6.9,2.773,5.675.985,13.68-4.03,18.191-2.951,2.655-6.568,4.561-9.592,7.147-4.517,3.862-2.84,10.179,2.906,12.709,5.433,2.392,10.929,2.18,15.112-1.468,16.944-14.775,37.455-16.265,58.284-15.981,11.6.158,22.356-2.724,33.169-6.095,7.614-2.374,15.245-4.7,22.916-6.883,10.427-2.969,20.9-3.08,31.65-1.324,8.458,1.381,13.246-1.727,16.124-8.377,2.445-5.647,1.593-10.467-2.94-14.419a66.729,66.729,0,0,0-16.91-10.46c-23.072-10.306-45.938-21.072-70.709-26.966-16.553-3.938-30.4-13.121-43.483-23.545a12.82,12.82,0,0,1-3.627-4.665c-.792-1.792-.591-4.051,1.447-5.113,1.01-.527,3.11-.711,3.666-.1,7.8,8.6,17.136,15.161,28.3,17.913,18.14,4.471,35.308,11.743,53.1,17.12,22.518,6.807,43.686,16.065,62.69,30.041a90.471,90.471,0,0,0,8.3,5.545c5.643,3.254,11.6,3.632,17.025-.106,16.165-11.147,34.5-17.006,53.027-22.555a290.808,290.808,0,0,0,53.288-22.423c23-12.271,44.567-26.72,59.044-49.369,1.357-2.124,3.494-4.5,1.3-7.133-1.938-2.325-4.763-1.629-7.368-1.194a15.5,15.5,0,0,1-3.936.515,14.6,14.6,0,0,1-3.553-1.3c9.148-8.384,16.679-11.811,25.51-11.609,4.266.1,7.757,4.362,6.122,8.18a133.067,133.067,0,0,1-8.094,15.956c-16.049,26.794-40.7,43.587-68.3,55.991-21.817,9.808-44.6,17.469-66.955,26.085-6.858,2.643-13.587,5.5-18.975,10.754-3.7,3.608-2.768,9.518,2.244,11.287a62.021,62.021,0,0,0,13.531,3.084,144.8,144.8,0,0,0,15.973.528c25.644.071,49.945,6.344,73.8,15.241,13.058,4.869,26.513,8.667,39.735,13.108a171.291,171.291,0,0,1,16.726,6.414,21.317,21.317,0,0,0,13.6,1.68,9.353,9.353,0,0,0,7.752-8.056c.832-4.629-1.317-7.722-5.386-9.476-3.035-1.308-6.337-2-9.358-3.34a22.292,22.292,0,0,1-10.082-9.343c-3.512-5.862-2.306-11.666,3.692-15.469,5.076-3.218,10.561-6.283,16.652-6.064C492.568,432.891,499.883,430.388,508.667,425.209Z"/><path class="a" d="M295.726,385.993c-2.378-4.009-.484-7.8,1.208-11.179,10.124-20.24,16.608-41.96,25.416-62.751,10.011-23.633,11.393-49.145,1.443-73.885-3.316-8.246-1.629-18.5-9.82-24.872-.383-.3.145-2.684.894-3.261a4.027,4.027,0,0,1,3.476-.019c1.117.526,2.595,1.729,2.69,2.751.966,10.435,10.025,16.051,14.56,24.389a156.753,156.753,0,0,1,12.061,29.351,29.15,29.15,0,0,1-2.048,23.109c-3.655,7.087-6.847,14.42-10.64,21.43-12,22.178-24.409,44.145-33.223,67.879C300.607,381.994,299.885,385.454,295.726,385.993Z"/><path class="a" d="M208.55,271.709c2.358-11.287,6.42-24.548,13.173-36.773,4.488-8.125,9.838-15.785,15.034-23.5.984-1.459,3.528-3.42,4.538-3.032,3.78,1.453,1.414,3.762.155,5.888-10.66,17.995-17.23,37.1-18.238,58.306a84.984,84.984,0,0,0,2.847,25.506c4.327,16.612,8.81,33.277,17.75,48.411,5.025,8.508,8.4,18.038,12,27.309,1.123,2.892.749,6.452.651,9.694-.048,1.589-1.479,2.167-2.925,1.739-.612-.181-1.393-.243-1.777-.657a9.769,9.769,0,0,1-2.24-3.122c-7.648-21.95-17.226-43.056-27.27-64C215.675,303.775,209.006,289.944,208.55,271.709Z"/><path class="a" d="M165.549,443.384c-11.769,3.1-23.705,6.406-35.74,9.3-2.828.68-6.983,2-8.292-2.214-1.238-3.979,2.021-5.755,5.322-6.7,12.686-3.621,25.552-4.84,38.64-2.58a13.267,13.267,0,0,1,1.39.394Z"/><path class="a" d="M300.726,144.59c-1.308,1.124-4.106,1.132-3.141,3.971.612,1.8.956,4.093,2.248,5.184,3.607,3.044,8.373,6.613,2.555,10.346-4.714,3.025-5.243-3.852-7.71-6.351-5.433-5.5-.805-13.609-5.351-19.238-.109-.135.791-1.447.968-1.392,1.152.354,2.824.655,3.225,1.5,1.054,2.212,1.032,5.065,2.408,6.958,1.3,1.783,3.436.461,4.974-.8Z"/><path class="a" d="M232.612,119.2c-.717,1.7-.956,4.152-2.252,5.005-6.026,3.967-12.338,7.5-18.561,11.166-2.464,1.452-5.283,1.853-6.733-.813-.639-1.175.417-4.095,1.623-5.314,6.153-6.219,14.118-9.313,22.3-11.789C229.84,117.2,231.147,118.455,232.612,119.2Z"/><path class="a" d="M282.4,211.609a13.82,13.82,0,0,1-3.027-.51c-3.541-1.227-8.256-.357-10.112-4.711-1.236-2.9,7.247-5.851,13.356-4.476a54.046,54.046,0,0,1,5.57,1.894c1.984.681,3.3,1.988,3.052,4.155-.263,2.286-2.209,3.126-4.113,3.592C285.9,211.852,284.544,211.609,282.4,211.609Z"/><path class="a" d="M145.956,193.371c-.6.993-.963,2.38-1.841,2.9A46.818,46.818,0,0,1,137,199.578c-4.177,1.585-7.782.528-8.078-2.194-.451-4.155,2.7-5.629,5.558-7.088a9.674,9.674,0,0,1,9.362-.033C144.822,190.8,145.266,192.306,145.956,193.371Z"/><path class="a" d="M278.956,187.469c3.067.7,6.926,1.424,10.657,2.565.858.262,1.4,1.909,1.864,3.014.587,1.409-.12,2.368-1.76,2.842a36.467,36.467,0,0,1-17.567.254,4.142,4.142,0,0,1-3.413-4.191c-.05-2.649,1.782-3.3,3.508-3.788C274.111,187.635,276.155,187.726,278.956,187.469Z"/><path class="a" d="M432.5,422.539c-1.465-.41-3.841-1.018-6.17-1.773-.445-.144-1.05-.928-.982-1.31.195-1.107.376-2.58,1.135-3.158,2.686-2.045,5.867-2.1,9-1.211,1.68.476,3.64.865,3.632,3.355-.008,2.56-2.132,2.683-3.747,3.384A24.115,24.115,0,0,1,432.5,422.539Z"/><path class="a" d="M104.2,414.513c1.319.273,2.749.254,3.8.877a4.523,4.523,0,0,1,2.144,2.822c.085.809-1.046,2.106-1.952,2.571a7.324,7.324,0,0,1-3.8.613c-2.348-.2-5.857.564-5.878-3.006C98.5,415.252,101.731,414.961,104.2,414.513Z"/><path class="a" d="M177.794,228.837c-1.877-1.177-2.006-2.986-1.533-4.811s1.364-3.486,3.744-3.008c1.941.39,3.382,1.454,2.8,3.639C182.152,227.129,180.713,228.973,177.794,228.837Z"/><path class="a" d="M108.236,449.038c2.29-.229,3.6.918,3.61,3.075,0,2.117-1.352,3.835-3.436,3.807-1.658-.022-4.7-1.137-4.7-1.8A4.883,4.883,0,0,1,108.236,449.038Z"/><path class="a" d="M225.413,437.867c-.776.619-1.524,1.692-2.336,1.743-1.411.087-1.914-1.036-1.278-2.387.221-.469.969-1.191,1.111-1.115A20.888,20.888,0,0,1,225.413,437.867Z"/><path class="a" d="M107.908,354.2c-.519,1.981-1.819,3.029-3.893,2.491-1.8-.468-3.642-1.294-2.905-3.721.5-1.639.864-3.884,3.565-2.775C106.428,350.918,107.972,351.91,107.908,354.2Z"/><path class="a" d="M283.183,220.806c-.56,2.161-2.187,3.041-4.067,2.5-.778-.226-1.638-2-1.555-2.992a2.614,2.614,0,0,1,3.838-2.376C282.248,218.278,282.612,219.827,283.183,220.806Z"/></svg>