<svg xmlns="http://www.w3.org/2000/svg" viewBox="0 0 543.348 543.348"><defs><style>.a{fill:#df271f;}.b{fill:#fcfcfb;}</style></defs><path class="a" d="M137.715,455.407c4.43,2.121,6.763,3.341,9.177,4.37,3.626,1.546,8.859,2.764,6.8,7.763-1.315,3.2-5.855.978-9.075.376-11.789-2.2-16.082.462-18.652,11.421-.6,2.579-.754,5.266-1.1,7.9-1.984,14.976-3.715,19.208-5.824,16.582-4.148-5.165-2.189-11.227-1.714-16.99.328-3.979.911-7.938,1.431-11.9.414-3.151,1.856-6.967-2.6-8.088-3.956-1-5.72,2.673-7.6,5.285-4.013,5.565-5.686,11.952-6.1,18.733-.243,3.953-.49,7.912-.968,11.84-.2,1.666-1.483,2.346-2.78,1.739-1.107-.519-2.584-1.138-3-2.1a26.032,26.032,0,0,1-.813-17.6c3.038-10.269,2.842-20.258.552-31.214-2.461,0-5.139-.348-7.684.085-3.525.6-8.861-1.369-9.516,4.349-.486,4.253,4.448,4.068,6.894,5.931,2.194,1.669,4.445,3.585,3.817,6.449-2.312,10.529-1.661,21.173-1.865,31.8-.073,3.825-2.621,5.959-6.459,5.986-12.659.09-25.319.148-37.977.037-4.757-.042-7.257-2.876-7.4-7.564-.165-5.326-.16-10.658-.16-15.987q-.01-212.868.009-425.735c.005-24.075-2.326-22.511,22.723-22.441,64.638.182,129.277.8,193.911.42,20.657-.12,41.277.57,61.908.566,55.934-.009,111.868-.826,167.8-.915,29.494-.047,25.577-3.828,25.6,25.132q.2,211.869.058,423.737c0,25.268,1.66,22.883-22.184,22.987-2.665.012-5.338.127-8-.022-7.268-.408-15.474,2.408-21.587-1.507-6.943-4.447-3.689-13.52-4.958-20.528-.974-5.377-2.5-10.34-6.09-14.467a4.469,4.469,0,0,0-3.429-1.456c-2.132.375-2.974,1.988-2.332,4.254,2.388,8.429,2.534,17.093,2.392,25.748-.045,2.739-1.271,5.5-4.588,5.32-2.146-.118-2.63-2.351-2.651-4.359-.043-4,.174-8.021-.237-11.98A41.326,41.326,0,0,0,431.2,479.8c-1.425-3.973-4.251-7.311-8.712-6.882-5.649.543-4.545,5.355-4.469,9.216.128,6.607,2.2,13.214.143,19.8a3.538,3.538,0,0,1-2.556,2.044c-1.027.034-2.868-.889-3.011-1.649-.976-5.185-1.731-10.423-2.308-15.671-1.6-14.53-2.553-15.374-17.08-14.3-1.309.1-2.759.5-3.89.084-.879-.326-1.491-1.655-1.966-2.66a2.2,2.2,0,0,1,.32-1.814c2.421-3.451,4.661-4.511,16.025-7.693-.827-5.483-2.629-11.171-2.261-16.715.382-5.763-2.124-10.23-3.631-15.226-.273-.9.932-2.358,1.648-3.428,1.28-1.913,4.284-3.511.888-6.043a3.292,3.292,0,0,0-1.88-.5c-3.124.023-4.843,1.711-5,4.766-.329,6.627-.3,13.279-.84,19.887-.892,10.958-3.33,13.583-14.008,16.1a34.609,34.609,0,0,1-5.853,1.271c-22.188,1.238-16.76,5.948-13.974,22.929.64,3.9,2.3,7.634,2.906,11.536.6,3.855,4.772,6.639,3.155,11.061-1.586,2.933-4.5,2.373-6.947,2.376q-83.97.12-167.941.073a40.18,40.18,0,0,1-7.963-.421c-1.755-.358-4.9-1.428-3.864-3.557,4.04-8.315-4.453-18.2,3.771-26.087,2.086-2,2.343-6.118,2.987-9.353.723-3.632-.5-6.613-4.477-7.535-5.186-1.205-10.435-2.137-15.636-3.285-6.642-1.465-10.428-5.664-11.015-12.41-.346-3.972-.071-7.994-.252-11.985-.114-2.527-.016-5.13-2.727-6.825-2.2-1.375-4.858,1.223-5.416,6.426C144.576,440.674,143.531,447.866,137.715,455.407Zm312.691-86.5c-4.441,9.633-7.96,12.158-15.5,9.8-6.3-1.969-12.175-5.72-19.119-2.452-9.149,4.306-19.065,5.3-29.919,5.814,3.51,6.822,4.234,13.311,5.3,19.741A3.413,3.413,0,0,0,394,403.666c.965-.2,1.742-1.647,2.452-2.658.667-.949,6.214-2.93,8.543-4.35,2.131-1.3,3.83-4.787,5.474-.434,1.615,4.28,1.728,9.1,2.856,13.6,1.039,4.137,6.348,7.529,10.794,7.018a8.755,8.755,0,0,0,7.97-7.766c1.145-7.158,1.618-14.424,2.38-21.716,7.558.069,12.16,2.187,11.817,10.165a98.26,98.26,0,0,0,.406,13.947c.709,7.093,4.654,10.589,11.781,10.955,4.7.241,9.384.082,13.535-2.482,3.507-2.167,7.055-3.391,11.311-2.734,5.535.854,8.6-2.415,10.432-7.182.952-2.486,2.219-4.946,2.621-7.53a27.8,27.8,0,0,0-3.567-19.193c-2.966-4.949-7.4-4.407-12.111-4.659-2.286-.122-4.57-2.376-6.647-3.94-5.71-4.3-11.958-5.707-18.829-3.708-2.287.665-3.695-.43-5.167-1.744,3.868-6.325,10.365-4.249,15.952-4.891,7.862-.9,8.887-1.559,8.964-9.591.185-19.233.087-38.467.083-57.7,0-5.976.134-11.961-.161-17.924-.29-5.857-2.875-8.146-8.9-8.154a104.758,104.758,0,0,0-11.918.668c-5.775.653-7.422,2.725-7.743,9.275-.13,2.651.06,5.317-.081,7.966-.457,8.572,1.5,18.468-2.158,25.364-4.317,8.128-15.688,3.577-23.822,5.426-9.814,2.232-12.3,4.091-13,14.026-.233,3.287-.775,7.009.425,9.857,3.957,9.394-1.117,14.664-7.217,20.589-3.316,3.22-8.86,2.83-11.195,8.617,6.646,1.677,12.735,1.809,18.639-1.7,7.372-4.387,15.3-4.542,23.054-2.012C437.666,371.246,443.957,369.741,450.406,368.906ZM174.618,112.959c-.6-2.519-1.32-5.017-1.792-7.56-.987-5.32-4.147-7.721-9.49-7.436-1.941.1-3.9-.014-5.826.221-4.473.545-7,3.123-7.045,7.672-.028,3.15.342,6.3.6,10.516,7.562-4.048,14.274-4.873,20.8-.409,13.542,4.3,25.562.565,38.238-4.995,43.107-18.91,86.4-18.7,129.091,1.979,13.372,6.477,26.315,12.158,41.532,4.2,6.507-3.4,13.669,3.213,12.133,10.58a40.23,40.23,0,0,0-.684,13.349,99.265,99.265,0,0,0,11.305,35.871c11.066,20.861,17.623,42.921,18.191,66.708.152,6.4-2.812,13.883,2.76,18.983,5.484,5.021,12.833,1.443,19.294,1.763,14.59.722,29.224.7,43.84.72,6.613.008,9.582-2.684,10.578-9.376,1.074-7.215,2.265-14.49,2.369-21.755.171-12-4.338-17.649-16.946-20.481-5.116-1.15-6.413-3.6-6.756-7.931-.891-11.257-1.8-22.514-2.81-33.761-.341-3.812-2.75-5.85-6.459-6.262a55.948,55.948,0,0,0-5.981-.186c-12.042-.047-13.811,1.439-14.332,13.562-.4,9.3-.076,18.633-.4,27.94-.17,4.831-2.591,6.371-8.052,6.356-4.509-.013-8.109-1.442-8.255-6.437-.391-13.287-.821-26.6-.452-39.876.18-6.47-2.026-13.717,2.571-19.35,4.361-5.343,11.317-2.253,16.951-3.749,5.284-1.4,7.508-3.982,7.9-9.926a57.24,57.24,0,0,0,.039-5.989c-.288-7.512-1.968-9.135-9.426-9.476-5.3-.243-10.6-.482-15.872-.956-5.6-.5-4.434-8.675-10.259-10.595-4.654,9.89-3.437,19.207-3.638,28.339-.079,3.618-1.4,6.523-5.555,6.711-4.37.2-7.88-1.487-9.172-5.93a35.4,35.4,0,0,1-1.058-7.87c-.448-7.968-.729-15.945-1.135-23.916-.191-3.75-1.988-6.131-5.922-6.67-6.348-.871-10.277.525-11.667,4.721-.825,2.492-.776,5.26-1.413,7.832-1.062,4.292-4.352,4.117-7.787,3.632-4.457-.628-7.309-3.041-8.117-7.458-1.595-8.711.106-14.578,7.161-25.544-2.323-2.242-4.721-4.48-7.028-6.809-1.307-1.319-2.543-3.489-4.579-1.69-11.05,9.76-24.133,4.026-36.288,4.648-6.035.308-9.346-4.863-8.725-10.895.5-4.81,3.3-7.148,9.743-7.705,4.638-.4,9.322-.311,13.954-.766,5.987-.589,7.9-3.005,7.8-9.189-.071-4.821-2.12-7.473-7.148-7.563-13.292-.238-26.593-.152-39.887.019-5.947.076-9.4,2.709-10.894,9.189-1.81,7.868-3.781,8.75-10.564,8.613-2.655-.054-5.3-.6-7.956-.612-5.556-.02-8.842-2.769-9.378-8.15-.671-6.73-4.44-9.159-10.715-8.809-.664.037-1.329.05-1.994.069-12.634.375-25.27.708-37.9,1.156a6.332,6.332,0,0,0-6.156,4.135c-1.824,4.572.693,10.385,5.131,10.975,5.912.786,11.918.922,17.805,1.84,4.257.663,6.316,4.258,5.848,8.952-.4,4.042-3.033,5.6-6.747,5.633-7.987.073-15.974.105-23.961.04-3.379-.028-6.751-.6-8.913-3.546-3.471-4.727-5.9-3.007-9.191.523-3.049,3.267-9.2,4.925-10.3,8.443-1.949,6.23,6.311,4.9,8.937,8.137,3.631,4.473,2.721,10.212,2.886,15.4.1,3.038-1.121,7.227-3.291,8.919C181.975,113.375,177.878,112.631,174.618,112.959Zm92.241,277.6c33.881.234,57.558-5.769,82.723-23.714,45.15-32.2,67.046-76.244,62.855-131.92-2.2-29.232-12.722-56.667-32.092-78.074-38.923-43.018-87.569-61.613-145.616-46.881-31.9,8.095-59.341,25.447-78.279,51.935-22.944,32.093-33.1,68.271-27.388,109.067C138.979,341.781,204.591,393.6,266.859,390.557ZM171.19,379.03c-.2-3.141-2.993-4.154-4.882-5.887-7.295-6.694-14.9-11.377-24.869-4.75-3.213,2.136-6.178.261-9.117-1.6-3.832-2.422-7.482-5.85-12.752-3.906-3.057,1.128-5.921,3.174-9.5,2.063-4.7-1.459-4.812-5.965-6.269-9.5a41.133,41.133,0,0,0-8.9-13.148c-10.307-10.519-24.9-11.242-35.92-1.792-5.959,5.11-8.3,12.072-8.817,19.5-.78,11.281-1.431,22.615-1.2,33.907.2,9.94.58,20.117,2.858,29.721,3.776,15.922,12.811,20.315,32.051,20.2,12.507-.076,19.138-7.487,20.787-22.4,1.016-9.185.024-18.58.17-27.878.063-4.036-.96-8.552,2.231-12.193,1.56,1.085,2.463,1.381,2.534,1.812,1.4,8.529,2.694,17.073,4.016,25.614,1.253,8.1,5.038,12.852,10.174,12.036,6.909-1.1,7.235-7.154,7.878-12.289,1.059-8.455,1.485-16.989,2.22-26.012,4.2.929,7.418,1.449,10.491,2.42,1.1.348,1.95,1.71,2.753,2.736,2.134,2.725,2.828,5.9,2.951,9.322.151,4.168-1.887,8.766,2.321,12.518a53.316,53.316,0,0,0,1.006-6.06C154.32,384.907,154.3,384.906,171.19,379.03ZM85.5,260.985l0-.4c8.61,0,17.221.061,25.83-.029,3.779-.039,6.7-2.1,6.665-5.846-.115-14.056,3.237-27.639,5.023-41.432.592-4.566-1.6-4.69-5.845-4.363-13.37,1.029-14.777-.6-15.591-13.642-.329-5.282-.719-10.57-1.388-15.815-.473-3.715-3.1-5.729-6.671-6.24a42.8,42.8,0,0,0-7.909-.41c-4.441.2-7.708,2.158-7.758,7.073-.082,7.952.185,15.908.166,23.862-.015,6.2-2.06,7.986-8.235,8.686-6.983.792-15.44-3.8-20.668,2.956-4.661,6.022-1.523,14.136-1.877,21.3a86.51,86.51,0,0,0,.969,15.825c.71,5.219,4.079,8.325,9.439,8.426C66.935,261.112,76.22,260.985,85.5,260.985ZM74.275,297.228c.416,7.034.767,14.314,1.317,21.578a6.572,6.572,0,0,0,4.5,5.933c3.706,1.365,7.587,2.319,11.168,3.943,5.674,2.575,10.954,3.656,16.832.119,5.9-3.553,12.625-3.822,19.279-2.285,2.833.655,4.146,3.267,4.739,5.795.655,2.788-.916,5.068-3.025,6.859-2.757,2.341-6.175,1.9-9.427,2.175-3.278.271-6.948.277-6.627,5.057.29,4.323,1.922,7.413,7.108,7.634a25.789,25.789,0,0,1,9.557,2.091c11.863,5.5,12.657,2.454,12.557-7.787-.046-4.64.349-9.324-.152-13.912-1.222-11.194-7.962-18.072-18.755-19.618-2.62-.376-5.3-.357-7.926-.682-10.648-1.313-11.862-2.559-12.263-13.891-.281-7.947.037-15.916-.257-23.862-.2-5.532-3.164-8.8-8.315-9.248a51.457,51.457,0,0,0-11.88.208c-4.18.619-7.279,2.942-7.458,7.8C74.976,282.422,74.61,289.7,74.275,297.228ZM341.721,423.843c0,5.5-.008,7.477,0,9.455.077,18.061,3.023,21.049,20.376,19.789a115.531,115.531,0,0,0,15.557-2.616,6.041,6.041,0,0,0,4.972-5.4,159.353,159.353,0,0,0-.663-47.1c-.711-4.369-3.7-7.373-7.916-7.652a177.25,177.25,0,0,0-23.738-.151c-7.719.528-12.236,5.99-10.5,13.617C341.609,411.653,341.4,419.5,341.721,423.843ZM122.341,205.354c4.181-.823,4.651-3.731,5.521-6.062a181.887,181.887,0,0,1,18.3-35.236c4.016-6.189,8.171-12,7.8-19.893-.2-4.329,2.24-7.686,5.882-9.742,4.373-2.468,10.945-2.666,10.148-10.051-.366-3.4-5.561-.992-14.333,5.047-3.87,2.665-4.633,5.814-5.827,9.6-1.95,6.177-4.7,7.93-9.647,7.425-5.035-.514-6.336-4.08-6.888-8.263-.952-7.208-1.8-14.43-2.822-21.628-.354-2.49-.48-5.623-3.734-6.023-3.53-.435-4.32,2.493-4.34,5.159-.057,7.939-4.867,10.159-11.694,10.2-1.328.008-2.658.075-3.985.029-12.812-.451-13.218.794-13.553,13.552-.222,8.448.188,11.309,11.028,13.106,1.966.325,3.919.806,5.9.959,5.829.452,7.779,4.065,8.022,9.325.243,5.3.757,10.589.955,15.891C119.416,187.733,119.911,196.679,122.341,205.354Zm79.91,216.836h-.706c0-6.639.325-13.3-.078-19.912-.583-9.534-2.84-11.866-11.787-12.486a142.889,142.889,0,0,0-17.92-.195c-6.788.385-9.63,3.108-9.883,9.994-.437,11.929-.365,23.88-.321,35.821a34.133,34.133,0,0,0,1.276,7.831c.666,2.726,2.377,5.032,5.205,5.414,10.466,1.414,22.174,5.348,31.142-.117,8.072-4.92,2.206-16.036,3.063-24.356A19.765,19.765,0,0,0,202.251,422.19Zm129.471-34.85c-6.781,1.733-13.563,3.509-20.366,5.2-25.459,6.321-51.035,7.8-76.783,1.778-5.8-1.356-11.575-2.869-17.431-3.928-1.66-.3-4.234.148-5.244,1.277-5,5.592-.89,17.957,6.307,18.876a468.36,468.36,0,0,0,93.307,2.107c18.817-1.363,18.794-2.006,21.195-20.723C332.858,390.748,332.205,389.468,331.722,387.34Zm-61.733,58.927,0-.045q9.978,0,19.957,0c11.967.009,23.937.174,35.9-.059,3.4-.067,6.384-1.739,6.639-5.894.269-4.4-1.139-8.26-5.619-9.27a64.319,64.319,0,0,0-13.846-1.129q-41.946-.138-83.9-.03a87.565,87.565,0,0,0-9.965.383c-5.064.584-6.072,4.351-6.121,8.624-.058,5.129,1.949,7.372,7.022,7.393C236.706,446.312,253.348,446.267,269.989,446.267Zm203.169-16.931c-10.489-.275-21.373,2.384-30.7-4.578-5.447-4.067-8.212-1.594-8.915,4.508a4.381,4.381,0,0,1-3.926,3.783,73.01,73.01,0,0,1-7.924.672c-4.3.282-9.828-1.925-11.226,4.676-.81,3.827,2.562,5.394,12.186,6.155,3.971.314,7.941.644,11.906,1.019,10.845,1.026,10.827,1.042,14.047,12.557.669,2.393.01,5.473,4.868,7.28,2.96,0,7.582.3,12.151-.07,6.843-.552,8.578-2.687,10.015-9.99C477.35,446.665,476.223,438.366,473.158,429.336Zm-346.472.137c-3.617.247-7.052-.087-10.106.838-3.584,1.086-3.857,5.058-4.253,8.1-.156,1.2,1.982,3.46,3.5,3.953a55.394,55.394,0,0,0,11.515,2.346c3.888.394,6.007-2.1,6.563-5.727C135.1,431.153,132.782,428.123,126.686,429.473ZM384.693,127.16c-.428-.2-.941-.648-1.264-.538-.506.172-1.316.947-1.247,1.079.743,1.436,1.678,1.646,2.475.617C384.847,128.072,384.685,127.553,384.693,127.16Z"/><path class="a" d="M151.623,481.075a42.033,42.033,0,0,1,5.3,19.748A3.754,3.754,0,0,1,153.634,505c-2.045.227-3.913-.309-4.3-2.712C148.294,495.893,147.746,489.524,151.623,481.075Z"/><path class="a" d="M388.118,486.963c3.955,4.272,4.728,9.468,4.8,14.748a3.234,3.234,0,0,1-3.746,3.474c-1.727-.321-4.2-1.271-4.73-2.588C382.1,496.753,382.614,491.246,388.118,486.963Z"/><path class="b" d="M266.859,390.557c-62.268,3.044-127.88-48.776-137.8-119.587-5.714-40.8,4.444-76.974,27.388-109.067,18.938-26.488,46.381-43.84,78.279-51.935,58.047-14.732,106.693,3.863,145.616,46.881,19.37,21.407,29.891,48.842,32.092,78.074,4.191,55.676-17.7,99.724-62.855,131.92C324.417,384.788,300.74,390.791,266.859,390.557Z"/><path class="b" d="M174.618,112.959c3.26-.328,7.357.416,9.544-1.288,2.17-1.692,3.387-5.881,3.291-8.919-.165-5.185.745-10.924-2.886-15.4-2.626-3.235-10.886-1.907-8.937-8.137,1.1-3.518,7.25-5.176,10.3-8.443,3.294-3.53,5.72-5.25,9.191-.523,2.162,2.944,5.534,3.518,8.913,3.546,7.987.065,15.974.033,23.961-.04,3.714-.035,6.343-1.591,6.747-5.633.468-4.694-1.591-8.289-5.848-8.952-5.887-.918-11.893-1.054-17.805-1.84-4.438-.59-6.955-6.4-5.131-10.975a6.332,6.332,0,0,1,6.156-4.135c12.631-.448,25.267-.781,37.9-1.156.665-.019,1.33-.032,1.994-.069,6.275-.35,10.044,2.079,10.715,8.809.536,5.381,3.822,8.13,9.378,8.15,2.653.01,5.3.558,7.956.612,6.783.137,8.754-.745,10.564-8.613,1.491-6.48,4.947-9.113,10.894-9.189,13.294-.171,26.6-.257,39.887-.019,5.028.09,7.077,2.742,7.148,7.563.092,6.184-1.817,8.6-7.8,9.189-4.632.455-9.316.365-13.954.766-6.439.557-9.248,2.9-9.743,7.705-.621,6.032,2.69,11.2,8.725,10.895,12.155-.622,25.238,5.112,36.288-4.648,2.036-1.8,3.272.371,4.579,1.69,2.307,2.329,4.7,4.567,7.028,6.809-7.055,10.966-8.756,16.833-7.161,25.544.808,4.417,3.66,6.83,8.117,7.458,3.435.485,6.725.66,7.787-3.632.637-2.572.588-5.34,1.413-7.832,1.39-4.2,5.319-5.592,11.667-4.721,3.934.539,5.731,2.92,5.922,6.67.406,7.971.687,15.948,1.135,23.916a35.4,35.4,0,0,0,1.058,7.87c1.292,4.443,4.8,6.129,9.172,5.93,4.152-.188,5.476-3.093,5.555-6.711.2-9.132-1.016-18.449,3.638-28.339,5.825,1.92,4.66,10.093,10.259,10.6,5.277.474,10.577.713,15.872.956,7.458.341,9.138,1.964,9.426,9.476a57.24,57.24,0,0,1-.039,5.989c-.395,5.944-2.619,8.522-7.9,9.926-5.634,1.5-12.59-1.594-16.951,3.749-4.6,5.633-2.391,12.88-2.571,19.35-.369,13.279.061,26.589.452,39.876.146,5,3.746,6.424,8.255,6.437,5.461.015,7.882-1.525,8.052-6.356.327-9.307,0-18.638.4-27.94.521-12.123,2.29-13.609,14.332-13.562a55.948,55.948,0,0,1,5.981.186c3.709.412,6.118,2.45,6.459,6.262,1.007,11.247,1.919,22.5,2.81,33.761.343,4.329,1.64,6.781,6.756,7.931,12.608,2.832,17.117,8.484,16.946,20.481-.1,7.265-1.3,14.54-2.369,21.755-1,6.692-3.965,9.384-10.578,9.376-14.616-.018-29.25,0-43.84-.72-6.461-.32-13.81,3.258-19.294-1.763-5.572-5.1-2.608-12.588-2.76-18.983-.568-23.787-7.125-45.847-18.191-66.708a99.265,99.265,0,0,1-11.305-35.871,40.23,40.23,0,0,1,.684-13.349c1.536-7.367-5.626-13.984-12.133-10.58-15.217,7.961-28.16,2.28-41.532-4.2C296.5,92.267,253.209,92.058,210.1,110.968c-12.676,5.56-24.7,9.294-38.238,4.995Z"/><path class="b" d="M171.19,379.03c-16.892,5.876-16.87,5.877-17.79,24.431a53.316,53.316,0,0,1-1.006,6.06c-4.208-3.752-2.17-8.35-2.321-12.518-.123-3.426-.817-6.6-2.951-9.322-.8-1.026-1.652-2.388-2.753-2.736-3.073-.971-6.288-1.491-10.491-2.42-.735,9.023-1.161,17.557-2.22,26.012-.643,5.135-.969,11.19-7.878,12.289-5.136.816-8.921-3.935-10.174-12.036-1.322-8.541-2.62-17.085-4.016-25.614-.071-.431-.974-.727-2.534-1.812-3.191,3.641-2.168,8.157-2.231,12.193-.146,9.3.846,18.693-.17,27.878-1.649,14.918-8.28,22.329-20.787,22.4-19.24.118-28.275-4.275-32.051-20.2-2.278-9.6-2.655-19.781-2.858-29.721-.229-11.292.422-22.626,1.2-33.907.514-7.425,2.858-14.387,8.817-19.5,11.021-9.45,25.613-8.727,35.92,1.792a41.133,41.133,0,0,1,8.9,13.148c1.457,3.531,1.564,8.037,6.269,9.5,3.582,1.111,6.446-.935,9.5-2.063,5.27-1.944,8.92,1.484,12.752,3.906,2.939,1.857,5.9,3.732,9.117,1.6,9.967-6.627,17.574-1.944,24.869,4.75C168.2,374.876,170.987,375.889,171.19,379.03Z"/><path class="b" d="M85.5,260.985c-9.283,0-18.568.127-27.848-.048-5.36-.1-8.729-3.207-9.439-8.426a86.51,86.51,0,0,1-.969-15.825c.354-7.166-2.784-15.28,1.877-21.3,5.228-6.754,13.685-2.164,20.668-2.956,6.175-.7,8.22-2.49,8.235-8.686.019-7.954-.248-15.91-.166-23.862.05-4.915,3.317-6.877,7.758-7.073a42.8,42.8,0,0,1,7.909.41c3.573.511,6.2,2.525,6.671,6.24.669,5.245,1.059,10.533,1.388,15.815.814,13.038,2.221,14.671,15.591,13.642,4.248-.327,6.437-.2,5.845,4.363-1.786,13.793-5.138,27.376-5.023,41.432.03,3.742-2.886,5.807-6.665,5.846-8.609.09-17.22.029-25.83.029Z"/><path class="b" d="M450.422,368.885c-6.465.856-12.756,2.361-19.444.179-7.755-2.53-15.682-2.375-23.054,2.012-5.9,3.512-11.993,3.38-18.639,1.7,2.335-5.787,7.879-5.4,11.195-8.617,6.1-5.925,11.174-11.195,7.217-20.589-1.2-2.848-.658-6.57-.425-9.857.7-9.935,3.187-11.794,13-14.026,8.134-1.849,19.5,2.7,23.822-5.426,3.661-6.9,1.7-16.792,2.158-25.364.141-2.649-.049-5.315.081-7.966.321-6.55,1.968-8.622,7.743-9.275A104.758,104.758,0,0,1,466,270.991c6.022.008,8.607,2.3,8.9,8.154.3,5.963.159,11.948.161,17.924,0,19.234.1,38.468-.083,57.7-.077,8.032-1.1,8.688-8.964,9.591-5.587.642-12.084-1.434-15.952,4.891ZM430.078,343.1c4.4-.559,8.354-.813,12.177-1.658a4.076,4.076,0,0,0,3.347-4.163c-.008-2.879-1.063-5.84-3.5-6.448-7.688-1.916-15.619-2.476-23.348-.212-1.374.4-2.588,2.889-3.016,4.625-.679,2.753.552,5.652,3.177,6.4C422.614,342.7,426.62,342.7,430.078,343.1Z"/><path class="b" d="M450.054,369.252c1.472,1.314,2.88,2.409,5.167,1.744,6.871-2,13.119-.592,18.829,3.708,2.077,1.564,4.361,3.818,6.647,3.94,4.711.252,9.145-.29,12.111,4.659a27.8,27.8,0,0,1,3.567,19.193c-.4,2.584-1.669,5.044-2.621,7.53-1.828,4.767-4.9,8.036-10.432,7.182-4.256-.657-7.8.567-11.311,2.734-4.151,2.564-8.834,2.723-13.535,2.482-7.127-.366-11.072-3.862-11.781-10.955a98.26,98.26,0,0,1-.406-13.947c.343-7.978-4.259-10.1-11.817-10.165-.762,7.292-1.235,14.558-2.38,21.716a8.755,8.755,0,0,1-7.97,7.766c-4.446.511-9.755-2.881-10.794-7.018-1.128-4.5-1.241-9.317-2.856-13.6-1.644-4.353-3.343-.865-5.474.434-2.329,1.42-7.876,3.4-8.543,4.35-.71,1.011-1.487,2.46-2.452,2.658a3.413,3.413,0,0,1-2.831-1.854c-1.068-6.43-1.792-12.919-5.3-19.741,10.854-.51,20.77-1.508,29.919-5.814,6.944-3.268,12.815.483,19.119,2.452,7.538,2.355,11.057-.17,15.506-9.814C450.422,368.885,450.054,369.252,450.054,369.252Z"/><path class="b" d="M74.275,297.228c.335-7.525.7-14.806.968-22.089.179-4.862,3.278-7.185,7.458-7.8a51.457,51.457,0,0,1,11.88-.208c5.151.45,8.11,3.716,8.315,9.248.294,7.946-.024,15.915.257,23.862.4,11.332,1.615,12.578,12.263,13.891,2.63.325,5.306.306,7.926.682,10.793,1.546,17.533,8.424,18.755,19.618.5,4.588.106,9.272.152,13.912.1,10.241-.694,13.292-12.557,7.787a25.789,25.789,0,0,0-9.557-2.091c-5.186-.221-6.818-3.311-7.108-7.634-.321-4.78,3.349-4.786,6.627-5.057,3.252-.27,6.67.166,9.427-2.175,2.109-1.791,3.68-4.071,3.025-6.859-.593-2.528-1.906-5.14-4.739-5.795-6.654-1.537-13.376-1.268-19.279,2.285-5.878,3.537-11.158,2.456-16.832-.119-3.581-1.624-7.462-2.578-11.168-3.943a6.572,6.572,0,0,1-4.5-5.933C75.042,311.542,74.691,304.262,74.275,297.228Z"/><path class="b" d="M341.721,423.843c-.326-4.348-.112-12.19-1.907-20.062-1.74-7.627,2.777-13.089,10.5-13.617a177.25,177.25,0,0,1,23.738.151c4.216.279,7.2,3.283,7.916,7.652a159.353,159.353,0,0,1,.663,47.1,6.041,6.041,0,0,1-4.972,5.4,115.531,115.531,0,0,1-15.557,2.616c-17.353,1.26-20.3-1.728-20.376-19.789C341.713,431.32,341.721,429.341,341.721,423.843Z"/><path class="b" d="M122.341,205.354c-2.43-8.675-2.925-17.621-3.261-26.611-.2-5.3-.712-10.59-.955-15.891-.243-5.26-2.193-8.873-8.022-9.325-1.979-.153-3.932-.634-5.9-.959-10.84-1.8-11.25-4.658-11.028-13.106.335-12.758.741-14,13.553-13.552,1.327.046,2.657-.021,3.985-.029,6.827-.038,11.637-2.258,11.694-10.2.02-2.666.81-5.594,4.34-5.159,3.254.4,3.38,3.533,3.734,6.023,1.021,7.2,1.87,14.42,2.822,21.628.552,4.183,1.853,7.749,6.888,8.263,4.943.5,7.7-1.248,9.647-7.425,1.194-3.783,1.957-6.932,5.827-9.6,8.772-6.039,13.967-8.443,14.333-5.047.8,7.385-5.775,7.583-10.148,10.051-3.642,2.056-6.084,5.413-5.882,9.742.367,7.892-3.788,13.7-7.8,19.893a181.887,181.887,0,0,0-18.3,35.236C126.992,201.623,126.522,204.531,122.341,205.354Z"/><path class="b" d="M202.251,422.19a19.765,19.765,0,0,1-.009,1.993c-.857,8.32,5.009,19.436-3.063,24.356-8.968,5.465-20.676,1.531-31.142.117-2.828-.382-4.539-2.688-5.205-5.414a34.133,34.133,0,0,1-1.276-7.831c-.044-11.941-.116-23.892.321-35.821.253-6.886,3.095-9.609,9.883-9.994a142.889,142.889,0,0,1,17.92.195c8.947.62,11.2,2.952,11.787,12.486.4,6.614.078,13.273.078,19.912Z"/><path class="b" d="M331.722,387.34c.483,2.128,1.136,3.408.985,4.585-2.4,18.717-2.378,19.36-21.195,20.723a468.36,468.36,0,0,1-93.307-2.107c-7.2-.919-11.309-13.284-6.307-18.876,1.01-1.129,3.584-1.577,5.244-1.277,5.856,1.059,11.63,2.572,17.431,3.928,25.748,6.02,51.324,4.543,76.783-1.778C318.159,390.849,324.941,389.073,331.722,387.34Z"/><path class="b" d="M269.989,446.267c-16.641,0-33.283.045-49.925-.027-5.073-.021-7.08-2.264-7.022-7.393.049-4.273,1.057-8.04,6.121-8.624a87.565,87.565,0,0,1,9.965-.383q41.948-.041,83.9.03A64.319,64.319,0,0,1,326.869,431c4.48,1.01,5.888,4.874,5.619,9.27-.255,4.155-3.235,5.827-6.639,5.894-11.963.233-23.933.068-35.9.059q-9.98-.007-19.957,0Z"/><path class="b" d="M473.158,429.336c3.065,9.03,4.192,17.329,2.484,26.012-1.437,7.3-3.172,9.438-10.015,9.99-4.569.368-9.191.07-12.151.07-4.858-1.807-4.2-4.887-4.868-7.28-3.22-11.515-3.2-11.531-14.047-12.557-3.965-.375-7.935-.705-11.906-1.019-9.624-.761-13-2.328-12.186-6.155,1.4-6.6,6.925-4.394,11.226-4.676a73.01,73.01,0,0,0,7.924-.672,4.381,4.381,0,0,0,3.926-3.783c.7-6.1,3.468-8.575,8.915-4.508C451.785,431.72,462.669,429.061,473.158,429.336Z"/><path class="b" d="M171.864,115.963c-6.525-4.464-13.237-3.639-20.8.409-.258-4.213-.628-7.366-.6-10.516.041-4.549,2.572-7.127,7.045-7.672,1.922-.235,3.885-.117,5.826-.221,5.343-.285,8.5,2.116,9.49,7.436.472,2.543,1.187,5.041,1.792,7.56Z"/><path class="b" d="M126.686,429.473c6.1-1.35,8.415,1.68,7.214,9.513-.556,3.63-2.675,6.121-6.563,5.727a55.394,55.394,0,0,1-11.515-2.346c-1.513-.493-3.651-2.756-3.5-3.953.4-3.045.669-7.017,4.253-8.1C119.634,429.386,123.069,429.72,126.686,429.473Z"/><path class="b" d="M384.689,127.16c0,.393.158.912-.032,1.158-.8,1.029-1.732.819-2.475-.617-.069-.132.741-.907,1.247-1.079C383.752,126.512,384.265,126.961,384.689,127.16Z"/><path class="a" d="M430.078,343.1c-3.458-.4-7.464-.4-11.167-1.454-2.625-.75-3.856-3.649-3.177-6.4.428-1.736,1.642-4.222,3.016-4.625,7.729-2.264,15.66-1.7,23.348.212,2.441.608,3.5,3.569,3.5,6.448a4.076,4.076,0,0,1-3.347,4.163C438.432,342.284,434.478,342.538,430.078,343.1Z"/></svg>