<svg xmlns="http://www.w3.org/2000/svg" viewBox="0 0 543.348 543.348"><defs><style>.a{fill:#1f1e15;}.b{fill:#fcfcfb;}</style></defs><path class="a" d="M200.371,251.768c1.012,7.882-4.7,11.294-7.157,16.541-2.521,5.391-5.614,10.515-8.343,15.546,2.915,4.986,5.953,1.548,8.425.552,22.949-9.245,46.837-14.312,71.406-16.424,4.09-.351,7.656-1.083,10.429-4.683,13.512-17.543,31.888-29.748,48.789-43.488,21.625-17.582,43.882-34.392,65.988-51.377,6.84-5.255,14.065-10.012,21.131-14.973,4.249-2.983,9.577-4.761,11.88-11.315-8.305-5.031-18.038-6.329-27.12-9.022-9.42-2.793-19.246-4.216-31.4-6.764,11.635-7.321,22.371-6.479,32.081-5.382,15.161,1.713,30.682.84,45.5,5.344,4.953,1.505,9.1-.061,13.055-2.96,2.68-1.963,5.588-3.613,8.277-5.566,2.106-1.529,4.517-3.148,4.429-6.1-.105-3.5-3.3-3.642-5.721-4.319-10.982-3.075-22.083-4.782-33.57-3.509-4.557.5-9.353,1.145-13.665-1.235-.51-.28-.635-2.649-.095-3.164,1.35-1.285,3.122-2.775,4.835-2.926,13.924-1.216,27.877-2.2,41.776.331a23.239,23.239,0,0,1,3.806,1.2c15.283,5.646,27.326,2.027,35.613-12.4.331-.577.611-1.362,1.128-1.615,1.03-.5,2.336-1.158,3.289-.893a3.606,3.606,0,0,1,2.2,2.462c.429,4.617.724,9.264.725,13.9q.051,195.839,0,391.677c0,4.627-.407,9.254-.6,13.409-3.809,3.467-7.933,2.68-11.812,2.681q-222.876.054-445.751.033c-1.333,0-2.666-.029-4,0-10.437.211-11.96-.968-11.006-13.308.132-1.694,1.5-4.488,2.7-4.724,15.965-3.145,20.337-17.683,27.424-28.766,18.289-28.6,32.847-59.3,47.464-89.9a244.461,244.461,0,0,1,31.737-50.319,160.946,160.946,0,0,0,19-28.015C172.028,275.209,187.563,264.746,200.371,251.768ZM125.163,375.3c36.236-10.673,63.946-29.658,91.613-48.669,2.639-1.813,4.72-4.655,6.524-7.375.937-1.414,1.468-4.014.768-5.322-.639-1.2-3.28-2.1-4.874-1.891-21.6,2.863-42.923,7.023-63.329,14.915-2.3.889-4.921,2.547-6.047,4.591C142.254,345.265,131.645,357.3,125.163,375.3ZM209.9,302.744c7.993-2.592,17.881-3.207,27.718-4.265a9.208,9.208,0,0,0,5.243-2.591,7.1,7.1,0,0,0,1.894-5.088,3.565,3.565,0,0,0-4.348-2.931q-17.246,3.99-34.4,8.354c-.8.2-1.664,2.046-1.656,3.121C204.37,301.659,206.111,302.551,209.9,302.744Z"/><path class="a" d="M453.543,79c-19.51,6.572-39.349,12.317-58.463,19.89a447.191,447.191,0,0,0-107.117,60.686c-2.637,2.014-4.857,4.667-7.682,6.324-26.8,15.719-47.257,38.7-68.426,60.646a601.285,601.285,0,0,0-63.894,78.9c-6.288,9.221-11.66,19.22-20.037,26.922q-2.111-3.163-4.222-6.325c1.758-3.547,2.91-7.6,5.378-10.552,11.689-13.989,15.632-30.409,16.44-48.084.272-5.955,1.594-11.857,2.343-17.794.346-2.744.138-5.521-3.093-6.41-2.133-.587-3.595,1-4.7,2.652a113.692,113.692,0,0,0-6.5,10.032c-14.672,27.86-23.034,57.949-30.81,88.223-.381,1.485-1.033,4.181,1.9,4.466a4.7,4.7,0,0,0,3.437-1.34c2.666-2.925,5.069-6.088,7.572-9.161l5.735,3.655c-.285,1.283-.25,2.763-.9,3.822-28.2,45.909-54.314,93-79.458,140.635-.8,1.514-1.235,1.948-2.961,1.788-1.607-.15-2.528-.419-2.66-2.192-.295-3.954-.86-7.907-.861-11.859q-.068-211.889-.036-423.776c0-2-.029-4,.066-5.995.339-7.148,1.323-8.334,7.749-8.616,4.657-.2,9.328-.105,13.993-.105q214.944-.006,429.886,0h20.188c2.318,10.327,2.571,19.27.044,28.827-6.686-1.97-9.843-8.738-17.33-9.189-12.559-.757-24.992-4.055-37.691-2.126-7.218,1.1-14.429,2.445-21.5,4.232-6.4,1.617-8.767,10.013-16.235,10.255-2.029-.167-3.729-.676-4.207-3.059-.352-1.756-.064-4.33-2.835-4.2-8.8.4-17.336,1.751-22.727,9.875-2.93,4.415-5.633,9-8.12,13.683-2.078,3.91-6.418,8.935-1.556,12.241,3.394,2.307,9.093-.479,12.927-3.034,2.624-1.75,4.483-4.752,6.442-7.375,4.765-6.379,9.207-13.007,14.161-19.232,1.936-2.433,4.539-1.825,6.277.936,1.076,5.628-5.563,8.661-4.556,15.22,13.213-1.119,25.694-6.206,38.675-8.435C449.935,75.7,451.739,77.35,453.543,79ZM211.167,208.115c2.278-.92,4.422-1.194,5.688-2.393,8.656-8.212,16.831-16.95,25.719-24.894,20.87-18.658,44.893-33.113,67.936-48.718,25.967-17.585,21.179-12.935,31.064-43.037.207-.631.412-1.262.626-1.89.644-1.89,1.325-3.887-.5-5.426-1.668-1.4-3.444-.8-5.423-.136-23.393,7.846-44.833,19.656-66.483,31.3-21.49,11.552-37.208,27.312-45.515,50.331-1.12,3.106-3.2,5.868-4.3,8.977-3.546,9.989-6.954,20.032-10.112,30.148C209.408,203.843,210.605,205.831,211.167,208.115Zm-27.213-17.638c-8.1,2.049-10.036,6.81-11.6,12.026-5.293,17.661-9.734,35.5-11.318,53.927a49.81,49.81,0,0,0,.276,7.826c.031.424.658.933,1.128,1.173,1.443.736,2.361.09,3.46-.966,1.98-1.9,3.59-3.9,3.506-6.742-.3-10.074,3.336-19.435,5.357-29.067C177.313,216.5,180.546,204.485,183.954,190.477Zm6.916,32.136c3.362-8.4,6.99-16.7,10.016-25.215,3.525-9.923,6.578-20.017,9.653-30.092.262-.861-.649-2.844-1.379-3.057a3.742,3.742,0,0,0-3.388,1.123C195.851,183.146,194.177,203.1,190.87,222.613ZM369.5,74.415c-1.133-1.317-1.773-2.744-2.639-2.9a4.323,4.323,0,0,0-3.582,1.048c-7.137,9.414-12.018,20-15.506,31.232-.224.724.924,2.421,1.806,2.8a4.463,4.463,0,0,0,3.671-.245c2.125-1.408,4.822-2.9,5.738-5.021C362.84,92.4,366.119,83.23,369.5,74.415Z"/><path class="b" d="M453.543,79c-1.8-1.649-3.608-3.3-5.371-4.96,9.658-4.094,19.769-4.875,32.158-5.61C471.705,77.125,462.644,78.115,453.543,79Z"/><path class="a" d="M127.924,332.364c-1.33,3.709-2.951,7.215-6.522,9.363l-5.735-3.657c.9-5.2,4.062-8.885,8.035-12.031Q125.813,329.2,127.924,332.364Z"/><path class="b" d="M125.163,375.3c6.482-18,17.091-30.034,24.655-43.751,1.126-2.044,3.749-3.7,6.047-4.591,20.406-7.892,41.731-12.052,63.329-14.915,1.594-.211,4.235.7,4.874,1.891.7,1.308.169,3.908-.768,5.322-1.8,2.72-3.885,5.562-6.524,7.375C189.109,345.641,161.4,364.626,125.163,375.3Z"/><path class="b" d="M209.9,302.744c-3.793-.193-5.534-1.085-5.55-3.4-.008-1.075.856-2.916,1.656-3.121q17.145-4.4,34.4-8.354a3.565,3.565,0,0,1,4.348,2.931,7.1,7.1,0,0,1-1.894,5.088,9.208,9.208,0,0,1-5.243,2.591C227.785,299.537,217.9,300.152,209.9,302.744Z"/><path class="b" d="M211.167,208.115c-.562-2.284-1.759-4.272-1.3-5.743,3.158-10.116,6.566-20.159,10.112-30.148,1.1-3.109,3.179-5.871,4.3-8.977,8.307-23.019,24.025-38.779,45.515-50.331,21.65-11.639,43.09-23.449,66.483-31.295,1.979-.663,3.755-1.268,5.423.136,1.825,1.539,1.144,3.536.5,5.426-.214.628-.419,1.259-.626,1.89-9.885,30.1-5.1,25.452-31.064,43.037-23.043,15.6-47.066,30.06-67.936,48.718-8.888,7.944-17.063,16.682-25.719,24.894C215.589,206.921,213.445,207.2,211.167,208.115Z"/><path class="b" d="M123.7,326.039c-3.973,3.146-7.135,6.833-8.035,12.031-2.5,3.074-4.906,6.237-7.572,9.162a4.7,4.7,0,0,1-3.437,1.34c-2.933-.285-2.281-2.981-1.9-4.466,7.776-30.274,16.138-60.363,30.81-88.223a113.692,113.692,0,0,1,6.5-10.032c1.106-1.649,2.568-3.239,4.7-2.652,3.231.889,3.439,3.666,3.093,6.41-.749,5.937-2.071,11.839-2.343,17.794-.808,17.675-4.751,34.095-16.44,48.084C126.612,318.44,125.46,322.492,123.7,326.039Z"/><path class="b" d="M183.954,190.477c-3.408,14.008-6.641,26.021-9.191,38.177-2.021,9.632-5.654,18.993-5.357,29.067.084,2.838-1.526,4.838-3.506,6.742-1.1,1.056-2.017,1.7-3.46.966-.47-.24-1.1-.749-1.128-1.173a49.81,49.81,0,0,1-.276-7.826c1.584-18.429,6.025-36.266,11.318-53.927C173.918,197.287,175.853,192.526,183.954,190.477Z"/><path class="b" d="M414.053,67.254c-1.738-2.761-4.341-3.369-6.277-.936-4.954,6.225-9.4,12.853-14.161,19.232-1.959,2.623-3.818,5.625-6.442,7.375-3.834,2.555-9.533,5.341-12.927,3.034-4.862-3.306-.522-8.331,1.556-12.241,2.487-4.68,5.19-9.268,8.12-13.683,5.391-8.124,13.926-9.479,22.727-9.875,2.771-.125,2.483,2.449,2.835,4.2.478,2.383,2.178,2.892,4.207,3.059C413.708,67.41,414.053,67.254,414.053,67.254Z"/><path class="b" d="M190.87,222.613c3.307-19.518,4.981-39.467,14.9-57.241a3.742,3.742,0,0,1,3.388-1.123c.73.213,1.641,2.2,1.379,3.057-3.075,10.075-6.128,20.169-9.653,30.092C197.86,205.914,194.232,214.216,190.87,222.613Z"/><path class="b" d="M369.5,74.415c-3.385,8.815-6.664,17.989-10.512,26.916-.916,2.124-3.613,3.613-5.738,5.021a4.463,4.463,0,0,1-3.671.245c-.882-.379-2.03-2.076-1.806-2.8,3.488-11.23,8.369-21.818,15.506-31.232a4.323,4.323,0,0,1,3.582-1.048C367.731,71.671,368.371,73.1,369.5,74.415Z"/></svg>