<svg xmlns="http://www.w3.org/2000/svg" viewBox="0 0 543.348 543.348"><defs><style>.a{fill:#2d9e54;}.b{fill:#fcfcfb;}</style></defs><path class="a" d="M271.485,509.347q-108.927,0-217.854.014c-19.307.009-18.189.471-18.188-18.769q0-217.8-.009-435.592c0-19.1-.672-18.134,18.836-18.133q217.854.012,435.708,0c19.245,0,18.085-.85,18.086,18.778q0,217.8,0,435.593c0,19.271.86,18.107-18.728,18.108Q380.412,509.35,271.485,509.347Zm70.333-355.525c-3.645,5.606-3.065,11.006-3.151,16.26q-.459,27.909-.841,55.821c-.191,12.636-.5,25.271-.567,37.908-.162,30.486-.2,60.974-.321,91.461-.02,5.347.038,10.8-4.433,14.774a5.154,5.154,0,0,1-3.513,1.418,3.547,3.547,0,0,1-2.317-2.508c-.43-5.959-.775-11.941-.753-17.913.209-56.568.544-113.135.7-169.7.018-6.626-.829-13.254-1.286-19.88-.117-1.7-1.023-2.171-2.476-2.432-1.754-.316-2.322.075-2.4,2.006-.273,6.646-.97,13.285-.984,19.928q-.189,85.919-.19,171.838c-.008,8.656-.023,17.314-.193,25.968-.08,4.1-1.351,7.878-4.551,10.691-2.056,1.807-4.583,3.292-7.105,1.528a6.885,6.885,0,0,1-2.721-4.872c.1-6.624,1.078-13.238,1.12-19.859q.594-91.878.942-183.756c.025-5.985-.238-11.977-.562-17.955-.155-2.849-1.425-4.994-5.4-4.645-.3,3.8-.9,7.731-.886,11.66.157,37.171-1.807,74.308-1.063,111.506.72,35.947-.095,71.925-.276,107.889a66.11,66.11,0,0,1-.6,9.957,11.306,11.306,0,0,1-2.468,5.358,9.657,9.657,0,0,1-4.752,2.881,3.559,3.559,0,0,1-4.33-2.953c-.893-4.531-1.892-9.132-1.939-13.715-.055-5.287,1.231-10.579,1.305-15.878.426-30.6.817-61.191.931-91.788q.216-57.915-.093-115.83c-.011-2.725,1.117-6.01-2.718-9.6-1.621,5.148-2.895,9.267-2.986,13.856-.437,21.963-1.338,43.922-1.4,65.885-.142,54.575.1,109.15.133,163.725a80.5,80.5,0,0,1-.832,13.936,13.137,13.137,0,0,1-4.03,6.587c-1.177,1.115-3.574,1.28-5.4,1.208-.75-.03-1.921-1.739-2.052-2.79a74.934,74.934,0,0,1-.556-9.935q.591-68.877,1.29-137.753c.442-39.244.765-78.485-.746-117.713-.074-1.938,1.357-5.538-4.459-5.313-1.732,10.758-1.943,21.716-1.939,32.71q.03,94.85,0,189.7c0,15.3.036,30.6-.262,45.886a66.355,66.355,0,0,1-2.043,15.726,5.2,5.2,0,0,1-6.509,3.085c-1.613-.624-3.732-2.366-3.916-3.82a122.771,122.771,0,0,1-.785-15.924c.186-40.612.5-81.224.688-121.836.107-23.285-1.186-46.657.415-69.833,1.653-23.916-.367-47.784,1.207-71.645.43-6.521,1.351-13.341-1.755-19.676-.856-1.745-1.772-3.633-4-3.079a4.159,4.159,0,0,0-2.478,2.762,58.428,58.428,0,0,0-.969,9.822c-.224,21.96-.458,43.92-.473,65.881Q240,319.724,240.06,428.61c0,5.321-.031,10.663-.5,15.956-.333,3.794-3.422,5.889-6.76,6.18-4.227.369-5.644-3.218-5.608-6.609.15-13.978.885-27.952.94-41.929.253-64.564.779-129.131.284-193.691-.189-24.58,2.312-49.172-.218-73.738-.649-6.3.267-12.835-2.776-20.08-1.2,2.936-2.47,4.67-2.56,6.464-1.033,20.605-2.5,41.215-2.68,61.833-.732,85.214-1.053,170.431-1.544,255.647-.023,3.99-.123,7.988-.4,11.967-.2,2.839-1.571,5.381-4.673,5.253-2.03-.085-2.5-2.5-2.553-4.418-.2-7.987-.056-16-.6-23.958-.456-6.618-3.589-9.743-10.162-9.877-17.975-.365-35.959-.359-53.94-.424-4.863-.018-7.347,2.9-7.408,7.464-.125,9.314.3,18.636.125,27.948-.17,9.261-2.417,17.357-13.456,19.132a5.854,5.854,0,0,0-1.856.728c-5.052,2.812-6.574,8.112-4.658,15.58,1.308,5.1,5.354,5.176,9.365,5.271,14.643.346,29.323,1.431,43.926.8,45.935-1.991,91.871.338,137.8-.671a127.21,127.21,0,0,0,13.9-.82c3.042-.4,4.947-3.218,3.633-5.793-6.146-12.039.375-21.743,5.242-31.808A38.859,38.859,0,0,1,335,451.608c22.72-36.761,48.294-71.774,67.133-110.921,4.879-10.138,11.857-19.244,17.349-29.114,15.2-27.322,27.437-56.06,40.206-84.558,9.042-20.181,14.641-41.237,19.984-62.58,4.226-16.876,2.02-33.154-1.133-49.372-4.6-23.641-17.631-33.933-41.615-35.2-15.535-.821-30.554,1.931-45.21,6.648-24.888,8.011-50.147,12.549-76.476,11.864-19.772-.515-38.2-4.216-55.015-15.022a188.214,188.214,0,0,0-20.857-11.767c-14.973-7.117-29.719-14.55-46.137-18.506-25.092-6.046-50.432-5.574-75.495-2.962C91.417,52.858,71.873,67.393,62.042,92.688c-4.952,12.74-4.815,26.42-.991,39.276,5.122,17.225,25,26.357,45.64,23.545,13.963-1.9,23.857-8.16,27.994-21.841a46.077,46.077,0,0,0,.324-25.651c-2.012-7.376-6.93-12.2-13.874-16.007-8.837-4.845-18.293-.836-25.329,5.686C90.4,102.71,88.97,112.71,92.364,120c1.535,3.3,4.514,4.83,8.016,5.054s6.664-.679,7.968-4.426c.64-1.838.614-3.921,1.338-5.711.765-1.89,2.478-3.489,4.555-2.309,1.556.884,3.378,2.686,3.605,4.288,1.137,8.021-3.471,14.918-10.684,16.752-11.054,2.81-22.621-5.343-24.656-17.378-2.616-15.471,4.216-29.226,19.211-35.744,21.193-9.212,43.391-13.425,66.26-7.551a140.489,140.489,0,0,1,36.644,15.447c15.551,9.223,28.487,21.733,42.088,33.426,8.059,6.93,16.418,13.531,24.885,19.961,8.293,6.3,18.014,8.606,28.249,8.02a128.961,128.961,0,0,0,19.75-2.72c26.98-5.821,51.462-17.86,75.249-31.324,8.233-4.66,16.546-8.672,25.906-9.928,21.309-2.859,31.6,5.766,32.05,27.422a143.409,143.409,0,0,1-2.055,25.812c-2.583,15.876-8.624,30.719-15.252,45.288-.7,1.541-2.694,3.663-3.934,3.565-3.361-.264-3.339-3.41-3.337-6.01.008-15.32.377-30.647.033-45.958-.293-13.084,1.276-26.326-1.653-39.824-3.148,2.481-3.126,5.084-3.161,7.693-.188,13.98-.482,27.959-.575,41.939q-.193,28.972-.138,57.945c.006,8.773-1.268,17.2-6.332,24.6a4.041,4.041,0,0,1-3.4,1.2c-.993-.181-2.506-1.5-2.535-2.36q-.476-13.95-.505-27.915c-.063-29.268,0-58.537-.115-87.8a42.8,42.8,0,0,0-1.369-9.712,3.8,3.8,0,0,0-2.893-2.293,4.247,4.247,0,0,0-2.825,2.533,25.933,25.933,0,0,0-1.706,7.582c-1.654,42.584-1.265,85.179.546,127.735.355,8.321-.425,15.808-3.98,23.1-.82,1.682-1.891,3.709-4.361,3.487-2.4-.215-2.975-2.152-3.087-4.052-.706-11.956-2.033-23.93-1.818-35.874.612-33.923,1.687-67.837-.286-101.745-.189-3.255,1.161-7.249-4.513-10.774-.425,27.359-.985,53.182-1.187,79.007-.245,31.276-.169,62.554-.275,93.832-.021,6.281-2.548,11.566-6.871,16.05-1.5,1.55-3.321,2.336-5.265,1.34a4.471,4.471,0,0,1-2.136-2.861,51.785,51.785,0,0,1-.367-7.952c.358-40.6.831-81.2,1.078-121.8.085-13.955-.347-27.913-.642-41.868a10.261,10.261,0,0,0-1.244-3.68c-.213-.479-.916-1.173-1.234-1.1-1.231.3-2.7.562-3.53,1.388-2.588,2.567-2.362,6.043-2.434,9.353-.832,37.886-1.816,75.771-2.412,113.661-.346,21.978-.02,43.966-.1,65.95-.018,5.246.864,10.831-3.238,15.158-1.268,1.338-3.227,3-4.723,2.872-1.563-.138-3.987-2.095-4.225-3.552a86.238,86.238,0,0,1-1.235-15.835c1.167-49.193,1.321-98.391.859-147.592C344.275,174.034,345.45,164.134,341.818,153.822ZM201.9,271.044h1.531c0-33.285.763-66.591-.183-99.849-1.342-47.2,6.848-37.2-39.4-38.265-8.387-.193-10.906,2.525-10.54,10.713,1.214,27.179.635,54.316-.116,81.509-1.341,48.55-1.449,97.136-1.919,145.708-.12,12.378-3.2,25.015,2.617,36.991,12.4,3.725,25.051,1.073,37.58,1.513a24.986,24.986,0,0,0,3.992-.157c3.754-.476,6.021-2.489,6.18-6.422.135-3.326.249-6.655.251-9.982Q201.918,331.923,201.9,271.044ZM179.6,121.868c4.467,0,9.759.074,15.048-.019,7.039-.123,9.062-1.667,11.154-8.753.933-3.162,1.459-6.447,2.109-9.688a6.857,6.857,0,0,0-4.221-8.051C189.828,89.192,176.1,82.625,160.836,80.4c-16.008-2.332-22.39-.123-14.335,17.127,3.312,7.094,2.52,16.643,9.034,21.359S171.026,119.862,179.6,121.868Z"/><path class="b" d="M341.818,153.822c3.632,10.312,2.457,20.212,2.548,29.978.462,49.2.308,98.4-.859,147.592a86.238,86.238,0,0,0,1.235,15.835c.238,1.457,2.662,3.414,4.225,3.552,1.5.133,3.455-1.534,4.723-2.872,4.1-4.327,3.22-9.912,3.238-15.158.079-21.984-.247-43.972.1-65.95.6-37.89,1.58-75.775,2.412-113.661.072-3.31-.154-6.786,2.434-9.353.833-.826,2.3-1.091,3.53-1.388.318-.076,1.021.618,1.234,1.1a10.261,10.261,0,0,1,1.244,3.68c.3,13.955.727,27.913.642,41.868-.247,40.6-.72,81.2-1.078,121.8a51.785,51.785,0,0,0,.367,7.952,4.471,4.471,0,0,0,2.136,2.861c1.944,1,3.77.21,5.265-1.34,4.323-4.484,6.85-9.769,6.871-16.05.106-31.278.03-62.556.275-93.832.2-25.825.762-51.648,1.187-79.007,5.674,3.525,4.324,7.519,4.513,10.774,1.973,33.908.9,67.822.286,101.745-.215,11.944,1.112,23.918,1.818,35.874.112,1.9.685,3.837,3.087,4.052,2.47.222,3.541-1.8,4.361-3.487,3.555-7.292,4.335-14.779,3.98-23.1-1.811-42.556-2.2-85.151-.546-127.735a25.933,25.933,0,0,1,1.706-7.582,4.247,4.247,0,0,1,2.825-2.533,3.8,3.8,0,0,1,2.893,2.293,42.8,42.8,0,0,1,1.369,9.712c.111,29.268.052,58.537.115,87.805q.03,13.961.505,27.915c.029.861,1.542,2.179,2.535,2.36a4.041,4.041,0,0,0,3.4-1.2c5.064-7.4,6.338-15.829,6.332-24.6q-.021-28.972.138-57.945c.093-13.98.387-27.959.575-41.939.035-2.609.013-5.212,3.161-7.693,2.929,13.5,1.36,26.74,1.653,39.824.344,15.311-.025,30.638-.033,45.958,0,2.6-.024,5.746,3.337,6.01,1.24.1,3.233-2.024,3.934-3.565,6.628-14.569,12.669-29.412,15.252-45.288a143.409,143.409,0,0,0,2.055-25.812c-.448-21.656-10.741-30.281-32.05-27.422-9.36,1.256-17.673,5.268-25.906,9.928-23.787,13.464-48.269,25.5-75.249,31.324a128.961,128.961,0,0,1-19.75,2.72c-10.235.586-19.956-1.723-28.249-8.02-8.467-6.43-16.826-13.031-24.885-19.961-13.6-11.693-26.537-24.2-42.088-33.426A140.489,140.489,0,0,0,167.977,72.97c-22.869-5.874-45.067-1.661-66.26,7.551-15,6.518-21.827,20.273-19.211,35.744,2.035,12.035,13.6,20.188,24.656,17.378,7.213-1.834,11.821-8.731,10.684-16.752-.227-1.6-2.049-3.4-3.605-4.288-2.077-1.18-3.79.419-4.555,2.309-.724,1.79-.7,3.873-1.338,5.711-1.3,3.747-4.466,4.649-7.968,4.426S93.9,123.29,92.364,120C88.97,112.71,90.4,102.71,95.806,97.7c7.036-6.522,16.492-10.531,25.329-5.686,6.944,3.807,11.862,8.631,13.874,16.007a46.077,46.077,0,0,1-.324,25.651c-4.137,13.681-14.031,19.939-27.994,21.841-20.642,2.812-40.518-6.32-45.64-23.545-3.824-12.856-3.961-26.536.991-39.276,9.831-25.295,29.375-39.83,55.693-42.572,25.063-2.612,50.4-3.084,75.495,2.962,16.418,3.956,31.164,11.389,46.137,18.506a188.214,188.214,0,0,1,20.857,11.767c16.814,10.806,35.243,14.507,55.015,15.022,26.329.685,51.588-3.853,76.476-11.864,14.656-4.717,29.675-7.469,45.21-6.648,23.984,1.269,37.018,11.561,41.615,35.2,3.153,16.218,5.359,32.5,1.133,49.372-5.343,21.343-10.942,42.4-19.984,62.58-12.769,28.5-25,57.236-40.206,84.558-5.492,9.87-12.47,18.976-17.349,29.114C383.3,379.834,357.721,414.847,335,451.608a38.859,38.859,0,0,0-2.087,3.408c-4.867,10.065-11.388,19.769-5.242,31.808,1.314,2.575-.591,5.39-3.633,5.793a127.21,127.21,0,0,1-13.9.82c-45.926,1.009-91.862-1.32-137.8.671-14.6.632-29.283-.453-43.926-.8-4.011-.1-8.057-.175-9.365-5.271-1.916-7.468-.394-12.768,4.658-15.58a5.854,5.854,0,0,1,1.856-.728c11.039-1.775,13.286-9.871,13.456-19.132.171-9.312-.25-18.634-.125-27.948.061-4.567,2.545-7.482,7.408-7.464,17.981.065,35.965.059,53.94.424,6.573.134,9.706,3.259,10.162,9.877.549,7.962.4,15.971.6,23.958.049,1.921.523,4.333,2.553,4.418,3.1.128,4.475-2.414,4.673-5.253.279-3.979.379-7.977.4-11.967.491-85.216.812-170.433,1.544-255.647.177-20.618,1.647-41.228,2.68-61.833.09-1.794,1.358-3.528,2.56-6.464,3.043,7.245,2.127,13.779,2.776,20.08,2.53,24.566.029,49.158.218,73.738.5,64.56-.031,129.127-.284,193.691-.055,13.977-.79,27.951-.94,41.929-.036,3.391,1.381,6.978,5.608,6.609,3.338-.291,6.427-2.386,6.76-6.18.464-5.293.494-10.635.5-15.956q.031-108.887.018-217.773c.015-21.961.249-43.921.473-65.881a58.428,58.428,0,0,1,.969-9.822A4.159,4.159,0,0,1,244,132.372c2.23-.554,3.146,1.334,4,3.079,3.106,6.335,2.185,13.155,1.755,19.676-1.574,23.861.446,47.729-1.207,71.645-1.6,23.176-.308,46.548-.415,69.833-.188,40.612-.5,81.224-.688,121.836a122.771,122.771,0,0,0,.785,15.924c.184,1.454,2.3,3.2,3.916,3.82a5.2,5.2,0,0,0,6.509-3.085,66.355,66.355,0,0,0,2.043-15.726c.3-15.291.257-30.59.262-45.886q.031-94.849,0-189.7c0-10.994.207-21.952,1.939-32.71,5.816-.225,4.385,3.375,4.459,5.313,1.511,39.228,1.188,78.469.746,117.713q-.777,68.875-1.29,137.753a74.934,74.934,0,0,0,.556,9.935c.131,1.051,1.3,2.76,2.052,2.79,1.824.072,4.221-.093,5.4-1.208a13.137,13.137,0,0,0,4.03-6.587,80.5,80.5,0,0,0,.832-13.936c-.031-54.575-.275-109.15-.133-163.725.057-21.963.958-43.922,1.4-65.885.091-4.589,1.365-8.708,2.986-13.856,3.835,3.591,2.707,6.876,2.718,9.6q.222,57.914.093,115.83c-.114,30.6-.5,61.193-.931,91.788-.074,5.3-1.36,10.591-1.305,15.878.047,4.583,1.046,9.184,1.939,13.715a3.559,3.559,0,0,0,4.33,2.953,9.657,9.657,0,0,0,4.752-2.881,11.306,11.306,0,0,0,2.468-5.358,66.11,66.11,0,0,0,.6-9.957c.181-35.964,1-71.942.276-107.889-.744-37.2,1.22-74.335,1.063-111.506-.017-3.929.583-7.86.886-11.66,3.972-.349,5.242,1.8,5.4,4.645.324,5.978.587,11.97.562,17.955q-.39,91.878-.942,183.756c-.042,6.621-1.025,13.235-1.12,19.859a6.885,6.885,0,0,0,2.721,4.872c2.522,1.764,5.049.279,7.105-1.528,3.2-2.813,4.471-6.589,4.551-10.691.17-8.654.185-17.312.193-25.968q.087-85.918.19-171.838c.014-6.643.711-13.282.984-19.928.079-1.931.647-2.322,2.4-2.006,1.453.261,2.359.732,2.476,2.432.457,6.626,1.3,13.254,1.286,19.88-.155,56.568-.49,113.135-.7,169.7-.022,5.972.323,11.954.753,17.913a3.547,3.547,0,0,0,2.317,2.508,5.154,5.154,0,0,0,3.513-1.418c4.471-3.975,4.413-9.427,4.433-14.774.119-30.487.159-60.975.321-91.461.067-12.637.376-25.272.567-37.908q.42-27.91.841-55.821C338.753,164.828,338.173,159.428,341.818,153.822Z"/><path class="b" d="M201.9,271.044q0,60.879-.01,121.758c0,3.327-.116,6.656-.251,9.982-.159,3.933-2.426,5.946-6.18,6.422a24.986,24.986,0,0,1-3.992.157c-12.529-.44-25.184,2.212-37.58-1.513-5.815-11.976-2.737-24.613-2.617-36.991.47-48.572.578-97.158,1.919-145.708.751-27.193,1.33-54.33.116-81.509-.366-8.188,2.153-10.906,10.54-10.713C210.1,134,201.91,124,203.252,171.194c.946,33.258.183,66.564.183,99.849Z"/><path class="b" d="M179.6,121.868c-8.571-2.006-17.549,1.737-24.062-2.979s-5.722-14.265-9.034-21.359c-8.055-17.25-1.673-19.459,14.335-17.127,15.262,2.222,28.992,8.789,42.851,14.954a6.857,6.857,0,0,1,4.221,8.051c-.65,3.241-1.176,6.526-2.109,9.688-2.092,7.086-4.115,8.63-11.154,8.753C189.356,121.942,184.064,121.868,179.6,121.868Z"/></svg>