<svg xmlns="http://www.w3.org/2000/svg" viewBox="0 0 543.348 543.348"><defs><style>.a{fill:#077ec6;}.b{fill:#fcfcfb;}</style></defs><path class="a" d="M272.832,510.184q-105.936,0-211.871-.005c-5.329,0-10.669.116-15.985-.167-6.417-.342-8.5-2.3-8.87-8.266-.287-4.647-.179-9.321-.179-13.982q-.011-213.813-.006-427.627c0-22.7-1.565-21.918,21.47-21.912q214.871.051,429.739.029c4.66,0,9.325.067,13.979.285,3.742.176,6.228,2.091,6.448,6.019.262,4.649.374,9.311.375,13.968q.027,215.811.026,431.622c0,21.23.953,20.044-21.256,20.041Q379.767,510.171,272.832,510.184Zm191.7-371.55c1.376-2.2-.237-3.6-1.323-4.956-13.853-17.265-29.544-32.42-48.7-43.892C345.627,48.548,274.538,41.835,200.868,75.912c-43.841,20.28-77.558,52.057-99.4,94.775-19.684,38.5-28.163,79.789-24.043,123.689,5.871,62.55,32.992,113.929,81.656,152.262,52.776,41.571,113.661,57.745,180.4,43.822,48.347-10.085,89.094-34.218,121.233-72.134,1.217-1.436,1.806-3.436,2.53-5.237a2.13,2.13,0,0,0-.206-1.912c-.909-.756-2.381-1.96-3.077-1.67-5.51,2.3-11.14,4.483-16.265,7.5-15.6,9.176-32.252,15.927-49.351,21.521-30.63,10.02-61.471,10.284-92.133.126-9.465-3.136-19.113-6.71-26.6-13.47-16.342-14.761-31.784-30.345-40.74-51.136-2.763-6.416-4.144-11.866-.4-18.758,3.626-6.68,1.3-11.18-4.994-14.8a27.4,27.4,0,0,0-13.234-3.96c-12.776-.3-25.243.92-37.219,5.829a96.353,96.353,0,0,1-15.088,4.934c-2.687.609-4.819-1.578-6.2-4.073-1.636-2.954-.076-5.314,1.847-6.968a20.456,20.456,0,0,1,6.954-3.654,107.985,107.985,0,0,1,31.422-5.085c7.982-.155,15.989-.5,23.486-3.966,5.268-2.433,7.44-5.271,4.73-10.764-3.471-7.034-1.38-11.259,4.2-15.2,1.686-1.19,2.381-2.937,1.812-5.391-7.109-1.855-14.383-1.326-21.6.111-8.229,1.639-12.119-7-17.925-8.611-6.65,4.776-11.965,8.775-17.484,12.471-2.3,1.542-4.8,4.706-8.232.72,10.524-11.224,22.452-20.982,30.937-33.958,6.648-10.167,17.716-10.383,28.316-10.639,3.343-.081,6.44,2.011,8.371,4.826.991,1.444,1.775,4.064,1.1,5.328-.7,1.315-3.217,2.113-5.028,2.306-7.209.77-9-7.255-14.424-9.333-3.422,4.17-7,8.088-10.045,12.387-2.308,3.263-4.151,7.086-1.811,11.154,2.447,4.254,6.267,4.039,10.428,2.834a40.116,40.116,0,0,1,19.739-1.125c3.818.832,8.2,3.515,6.056,8.308-2.48,5.556.647,6.928,4.406,8.612,4.468,2,8.941,1.91,13.639.627,11.461-3.13,15.364-10.689,9.958-20.921-3.092-5.851-7.276-11.114-10.776-16.761-6.644-10.721-13.852-21.149-14.192-34.58-.181-7.139-4.147-12.532-10.229-16.211-2.825-1.709-5.908-3-8.725-4.717-2.331-1.426-2.1-5.689.617-6.38,14.328-3.64,18.043-14.313,18.756-27.187.037-.664.179-1.321.229-1.985,1.106-14.749,8.259-26.508,18.409-36.676a102.3,102.3,0,0,1,42.242-25.748,126.756,126.756,0,0,1,67.176-2.607c29.077,6.763,57.963,15.194,83.546,31.743C458.249,137.858,460.863,140.587,464.533,138.634Z"/><path class="b" d="M464.533,138.634c-3.67,1.953-6.284-.776-8.882-2.457-25.583-16.549-54.469-24.98-83.546-31.743a126.756,126.756,0,0,0-67.176,2.607,102.3,102.3,0,0,0-42.242,25.748c-10.15,10.168-17.3,21.927-18.409,36.676-.05.664-.192,1.321-.229,1.985-.713,12.874-4.428,23.547-18.756,27.187-2.721.691-2.948,4.954-.617,6.38,2.817,1.722,5.9,3.008,8.725,4.717,6.082,3.679,10.048,9.072,10.229,16.211.34,13.431,7.548,23.859,14.192,34.58,3.5,5.647,7.684,10.91,10.776,16.761,5.406,10.232,1.5,17.791-9.958,20.921-4.7,1.283-9.171,1.374-13.639-.627-3.759-1.684-6.886-3.056-4.406-8.612,2.139-4.793-2.238-7.476-6.056-8.308a40.116,40.116,0,0,0-19.739,1.125c-4.161,1.2-7.981,1.42-10.428-2.834-2.34-4.068-.5-7.891,1.811-11.154,3.041-4.3,6.623-8.217,10.045-12.387,5.427,2.078,7.215,10.1,14.424,9.333,1.811-.193,4.329-.991,5.028-2.306.673-1.264-.111-3.884-1.1-5.328-1.931-2.815-5.028-4.907-8.371-4.826-10.6.256-21.668.472-28.316,10.639-8.485,12.976-20.413,22.734-30.937,33.958,3.437,3.986,5.93.822,8.232-.72,5.519-3.7,10.834-7.7,17.484-12.471,5.806,1.606,9.7,10.25,17.925,8.611,7.216-1.437,14.49-1.966,21.6-.111.569,2.454-.126,4.2-1.812,5.391-5.582,3.944-7.673,8.169-4.2,15.2,2.71,5.493.538,8.331-4.73,10.764-7.5,3.462-15.5,3.811-23.486,3.966a107.985,107.985,0,0,0-31.422,5.085,20.456,20.456,0,0,0-6.954,3.654c-1.923,1.654-3.483,4.014-1.847,6.968,1.382,2.495,3.514,4.682,6.2,4.073a96.353,96.353,0,0,0,15.088-4.934c11.976-4.909,24.443-6.128,37.219-5.829a27.4,27.4,0,0,1,13.234,3.96c6.292,3.617,8.62,8.117,4.994,14.8-3.742,6.892-2.361,12.342.4,18.758,8.956,20.791,24.4,36.375,40.74,51.136,7.484,6.76,17.132,10.334,26.6,13.47,30.662,10.158,61.5,9.894,92.133-.126C411.448,432.931,428.1,426.18,443.7,417c5.125-3.014,10.755-5.2,16.265-7.5.7-.29,2.168.914,3.077,1.67a2.13,2.13,0,0,1,.206,1.912c-.724,1.8-1.313,3.8-2.53,5.237-32.139,37.916-72.886,62.049-121.233,72.134-66.742,13.923-127.627-2.251-180.4-43.822C110.418,408.305,83.3,356.926,77.426,294.376c-4.12-43.9,4.359-85.192,24.043-123.689,21.841-42.718,55.558-74.5,99.4-94.775,73.67-34.077,144.759-27.364,213.637,13.874,19.161,11.472,34.852,26.627,48.7,43.892C464.3,135.03,465.909,136.435,464.533,138.634ZM162.252,209.008c8.727,2.457,19.236,4.291,28.424,10.051,4.2,2.637,5.188,5.75,1.366,9.523-5.9,5.824-1.8,10.836,1.34,15.856,1.42,2.271,5.835,2.36,6.631.068,2.575-7.42,8.15-14.421,6.417-22.549-1.9-8.919,1.256-16.867,2.516-25.179,1.073-7.076-.068-10.63-6-11.737-15.986-2.982-31.778-2.851-46.226,5.979-7.409,4.527-14.15,9.956-17.572,18.368a5.04,5.04,0,0,0-.117,3.817,3.511,3.511,0,0,0,4.907,1.416C149.308,212.118,154.411,208.8,162.252,209.008Zm20.537-45.043a30.31,30.31,0,0,1,17.1,7.8c3.94,3.566,8.3,6.673,12.2,10.275,3.723,3.435,7.977,4.49,12.835,4.135,7.315-.535,13.692-4.091,12.667-7.186-1.555-4.7-6.316-4.073-9.732-5.533-6.256-2.673-11.234-6.92-16.165-11.445a69.292,69.292,0,0,0-12.627-9.6c-3.325-1.864-7.709-3.474-11.29-2.948-12.066,1.773-22.9,6.713-31.317,15.915a3.922,3.922,0,0,0-.367,3.637,3.753,3.753,0,0,0,3.277,1.457,54.052,54.052,0,0,0,9.224-3.448A25.507,25.507,0,0,1,182.789,163.965Z"/><path class="a" d="M162.252,209.008c-7.841-.213-12.944,3.11-18.317,5.613a3.511,3.511,0,0,1-4.907-1.416,5.04,5.04,0,0,1,.117-3.817c3.422-8.412,10.163-13.841,17.572-18.368,14.448-8.83,30.24-8.961,46.226-5.979,5.935,1.107,7.076,4.661,6,11.737-1.26,8.312-4.417,16.26-2.516,25.179,1.733,8.128-3.842,15.129-6.417,22.549-.8,2.292-5.211,2.2-6.631-.068-3.139-5.02-7.24-10.032-1.34-15.856,3.822-3.773,2.838-6.886-1.366-9.523C181.488,213.3,170.979,211.465,162.252,209.008Z"/><path class="a" d="M182.789,163.965a25.507,25.507,0,0,0-14.19,3.053,54.052,54.052,0,0,1-9.224,3.448,3.753,3.753,0,0,1-3.277-1.457,3.922,3.922,0,0,1,.367-3.637c8.421-9.2,19.251-14.142,31.317-15.915,3.581-.526,7.965,1.084,11.29,2.948a69.292,69.292,0,0,1,12.627,9.6c4.931,4.525,9.909,8.772,16.165,11.445,3.416,1.46,8.177.836,9.732,5.533,1.025,3.095-5.352,6.651-12.667,7.186-4.858.355-9.112-.7-12.835-4.135-3.9-3.6-8.262-6.709-12.2-10.275A30.31,30.31,0,0,0,182.789,163.965Z"/></svg>