<svg xmlns="http://www.w3.org/2000/svg" viewBox="0 0 543.348 543.348"><defs><style>.a{fill:#2d9e54;}.b{fill:#fcfcfb;}</style></defs><path class="a" d="M172.613,236.369c14.04,8.992,26.626,6.408,37.973,9.978-2.158,4.8-6.425,4.416-10.085,4.1q-29.82-2.609-59.585-5.8a14.787,14.787,0,0,1-7.155-2.958c-11.718-9.158-11.656-9.238-20.006-4.141-5.65,3.448-5.786,9.125.027,12.318,7.687,4.222,16.222,5.742,24.853,6.462,29.841,2.491,59.665,5.278,89.548,7.113,15.24.935,30.591.09,45.891.034,25.918-.095,51.876.657,77.742-.557,23.234-1.09,46.372-4.284,69.535-6.713a52.6,52.6,0,0,0,9.643-2.486c3.52-1.075,5.731-3.632,5.691-7.255-.037-3.376-1.3-6.969-4.507-8.388-6.077-2.691-12.441-4.668-19.307-4.295-2.439.133-4.248,1.713-4.045,3.384.984,8.108-4.366,10.329-10.441,11.749-6.467,1.512-12.99,3.389-19.562,3.747-39.9,2.175-79.815,3.75-119.727.225a16.516,16.516,0,0,1-3.73-1.269c1.636-5.084,6.374-4.065,9.757-4.209,24.536-1.048,49.091-1.632,73.636-2.476q12.979-.446,25.938-1.425c6.852-.526,7.066-1.227,2.305-7.579a6.9,6.9,0,0,1-1.578-5.324c.52-4.41-2.236-5.794-5.93-5.972q-13.964-.672-27.936-1.159c-13.395-.443-26.5-2.37-39.044-7.305a43.317,43.317,0,0,1-17.649-12.692c-4.068-4.859-4.225-9.761.24-14.21,8.7-8.666,19.3-14.794,31.219-16.721,25.671-4.15,50.51-11.68,75.807-17.306,9.033-2.008,18.213-4.217,26.187-9.411,13.838-9.016,14.462-20.654,1.311-30.317-7.536-5.538-15.822-9.622-25.292-11.233-23.589-4.011-47.176-8.08-70.653-12.688-9.076-1.782-18.513-2.862-26.8-7.554-4.107-2.326-7.99-5.081-7.775-10.631.216-5.589,4.414-7.872,8.663-9.9,9.8-4.677,20.429-5.886,31.03-6.367,17.958-.816,35.972-1.8,53.913-1.214,21.445.7,42.583-2.093,63.736-4.182,14.4-1.422,29.137-3.63,41.954-11.7,1.685-1.061,3.446-2.321,5.329-2.693,7.207-1.424,15.3-3.044,21.445.535,5.5,3.2,2.8,11.042,2.8,16.828q.158,217.872.081,435.745c0,3.331.073,6.667-.075,9.992-.348,7.855-1.242,8.719-9.643,9.026-4.66.17-9.329.08-14,.08q-212.931,0-425.862,0c-4.665,0-9.336.1-13.993-.106-7.5-.331-8.733-1.707-8.988-9.817-.147-4.66-.062-9.327-.062-13.991q0-212.874,0-425.75c0-1.332,0-2.665,0-4,.052-20.539-1.6-19.527,19.458-19.508,17.328.016,34.656-.032,51.983.069,3.11.018,7.187-.772,8.023,3.629.736,3.873-2.781,5.687-5.353,7.59-2.668,1.975-5.738,3.4-8.436,5.344A36.951,36.951,0,0,0,95.208,58.3c-12.084,13.479-9.347,27.794,7.418,35.349a108.943,108.943,0,0,0,24.7,7.574c21.554,4,43.233,7.343,64.9,10.7,19.727,3.061,39.508,5.772,59.258,8.69a60.974,60.974,0,0,1,28.853,12.852c7.238,5.663,8,12.488,1.456,18.629-5.022,4.715-8.5,9.274-10.183,16.335-2.93,12.258-11.107,17.266-23.549,16.8a32.388,32.388,0,0,1-18.637-6.269c-2.121-1.585-3.727-4-6-5.213-10.073-5.389-39.4,5.546-43.81,16.26-1.444,3.5-.117,6.734,2.751,8.811,5.5,3.981,12.227,4.945,18.54,6.969,6.337,2.033,12.562,4.439,15.9,11.1,2.21,4.41,1.748,9.452-1.928,12.709a25.6,25.6,0,0,1-16.261,6.719C191.318,236.576,184.006,236.369,172.613,236.369ZM440.68,300.442c-3.712,0-7.655.06-11.6-.029-1.651-.038-2.382-1.14-2.039-2.812.252-1.227.26-2.887,1.052-3.559,5.984-5.083,13.279-5.343,20.657-5.314,3.008.012,7.055,2.021,8.529-2.074,1.271-3.53-2.122-5.976-4.038-8.576-1.973-2.678-3.834-5.577-6.317-7.715-6.164-5.31-12.6-8.366-21.691-6.982-17.046,2.593-34.146,5.217-51.521,5.5-21.277.34-42.538,1.628-63.813,2.278-10.629.325-21.3.63-31.906.1-43.176-2.141-86.334-4.638-129.5-6.924-7.971-.422-16.025.072-23.768-2.416-6.355-2.043-11.759-.061-16.81,3.7a65.957,65.957,0,0,0-14.145,13.815c-13.947,18.91-21.027,40.081-20.123,63.275.805,20.653,4.408,40.578,17.944,58.019a208.24,208.24,0,0,0,28.937,30.027c14.162,12.223,9.533,18.233,4.847,29.759-.734,1.808-2.191,3.326-3.34,4.96-9.168,13.035-5.223,14.352,9.171,16.172,8,1.01,14.138-2.664,18.906-8.914,7.027-9.212,16.5-12.147,27.88-12.686,24.871-1.176,49.1,2.31,73.187,7.758,9.543,2.158,17.438,6.476,20.98,16.35,1.788,4.984,5.4,7.234,10.62,7.34,3.326.068,6.643.5,9.969.626,7.217.263,12.754-1.809,15.828-9.294,3.657-8.908,12.021-11.888,20.578-13.965,14.851-3.605,29.856-6.62,44.6-10.618,16.535-4.484,30.156-.512,41.468,12.122,1.332,1.488,2.674,2.97,4.065,4.4,4.556,4.687,10.046,6.027,16.44,4.979,6.011-.984,8.311-4.263,5.117-9.432-8.989-14.547-12.461-28.912-2.965-44.884,4.716-7.932,4.274-9.02-3.471-14.255-22.442-15.168-28.913-37.1-27.5-62.518.81-14.626,6.683-27.016,18.018-36.506,3.324-2.782,7.063-3.156,11.053-.681,3.482,2.161,6.387,4.568,8.1,8.454,3.846,8.749,3.5,17.262-3.084,24.187-8.7,9.16-6.391,18.026-.844,27.188a61.5,61.5,0,0,0,7.083,9.621c8.575,9.391,16.16,8.462,21.733-2.518a66.7,66.7,0,0,0,3.016-7.359c4.739-12.986-.63-16.963-11.757-14.878a18.11,18.11,0,0,1-5.966-.062c-1.791-.274-4.243-.3-3.892-3.231.25-2.095,1.272-3.769,3.568-4.027a17.136,17.136,0,0,0,14.151-9.641,33.453,33.453,0,0,0,3.962-17.305c-.622-13.29-9.9-22.189-23.168-22.173C446.217,299.731,443.566,300.178,440.68,300.442Zm41.312,43.4c1.24,8,1.975,13.843,3.082,19.616,1.688,8.809-.264,17.223-3.174,25.292a20.8,20.8,0,0,1-32.639,9.683,55.225,55.225,0,0,1-15.736-17.784c-8.09-15.123-8.879-30.162-.237-45.482,2.468-4.375.678-8.749-2.843-9.991-3.752-1.323-6.546.483-8.647,3.119a30.307,30.307,0,0,0-6.876,18.309,192.442,192.442,0,0,0,.516,19.862c1.646,21,17.123,39.366,37.064,44.079,11.39,2.692,21.4-.374,28.535-9.479,6.7-8.55,9.074-19.09,9.645-29.83C491.174,361.981,491.093,352.691,481.992,343.845Zm-218.1-183.056c1-9.345-6.548-18.847-15.67-19.732-9.322-.9-18.419,6.542-19.635,16.069-1.106,8.668,6.69,18.054,16.251,19.564C254.087,178.151,262.814,170.868,263.892,160.789ZM67.3,341.214c0-4.6.1-9.206-.05-13.8-.06-1.808-.221-4.164-2.982-3.773a4.6,4.6,0,0,0-3.025,2.05c-7.369,14.026-8.463,28.973-5.109,44.117,1.4,6.305,4.262,12.554,10.495,16.046.956.536,2.5.2,3.718-.019.361-.065.8-1.141.763-1.723-.266-3.894.026-8-1.129-11.629C66.718,362.222,67.351,351.681,67.3,341.214Zm78.475-157.392a10.764,10.764,0,0,0-10.1,12.228c.77,6.8,7.115,12.539,13.271,12.006,4.957-.429,9.15-5.748,8.9-11.287C157.5,189.293,151.92,183.305,145.771,183.822ZM376.223,196.57a13.209,13.209,0,0,0-10.413-14.335c-5.826-1.1-12.678,4.583-13.689,11.357-.877,5.876,5.03,12.366,11.923,13.1C369.764,207.305,375.578,202.472,376.223,196.57ZM186.469,151.26c3.47-.311,6.368-3.1,6.368-6.14,0-3.731-4-6.3-8.573-5.507-3.564.618-6.145,3.821-5.246,6.783C180.114,150.005,182.912,151.278,186.469,151.26Zm216.973,27.19c-1.125-1.186-2.174-3.223-3.729-3.741-3.418-1.139-4.793,1.9-5.053,4.306-.149,1.381,1.76,4.024,3.12,4.312C400.722,183.948,402.408,181.617,403.442,178.45Z"/><path class="a" d="M189.4,101.631c-12.722.158-21.693-8.228-22.113-20.673-.338-10.012,9.595-20.138,20.3-20.7,10.93-.571,21.5,9.811,21.865,21.475C209.815,93.367,201.638,101.48,189.4,101.631Zm-2.387-31.616c-6,.3-11.481,6.071-11.145,11.722a11.6,11.6,0,0,0,11.911,10.841c6.329-.314,11.635-5.772,11.182-11.505C198.494,75.181,192.606,69.733,187.011,70.015Z"/><path class="a" d="M351.773,122.077c-.067,7.71-6.481,14.31-13.475,13.866-6.752-.428-13.628-7.664-13.756-14.475-.14-7.434,6.131-14.626,12.955-14.86C345.429,106.337,351.849,113.293,351.773,122.077Zm-11.586,5.667c1.922-.259,3.225-2.558,3.244-5.091.026-3.573-2.371-5.726-5.833-6.23-2.971-.433-6.044,3.263-5.327,6.214C333.115,126.116,335.311,127.973,340.187,127.744Z"/><path class="a" d="M238.2,247.5a27.865,27.865,0,0,1,3.741.857c.487.177,1.162,1.1,1.044,1.441-.357,1.024-.95,2.64-1.65,2.75a31.867,31.867,0,0,1-7.739.246c-1.094-.1-2.865-1.151-2.989-1.972-.378-2.492,1.952-2.646,3.652-3.023A26.1,26.1,0,0,1,238.2,247.5Z"/><path class="b" d="M440.68,300.442c2.886-.264,5.537-.711,8.19-.715,13.269-.016,22.546,8.883,23.168,22.173a33.453,33.453,0,0,1-3.962,17.305,17.136,17.136,0,0,1-14.151,9.641c-2.3.258-3.318,1.932-3.568,4.027-.351,2.935,2.1,2.957,3.892,3.231a18.11,18.11,0,0,0,5.966.062c11.127-2.085,16.5,1.892,11.757,14.878a66.7,66.7,0,0,1-3.016,7.359c-5.573,10.98-13.158,11.909-21.733,2.518a61.5,61.5,0,0,1-7.083-9.621c-5.547-9.162-7.861-18.028.844-27.188,6.58-6.925,6.93-15.438,3.084-24.187-1.709-3.886-4.614-6.293-8.1-8.454-3.99-2.475-7.729-2.1-11.053.681-11.335,9.49-17.208,21.88-18.018,36.506-1.408,25.413,5.063,47.35,27.5,62.518,7.745,5.235,8.187,6.323,3.471,14.255-9.5,15.972-6.024,30.337,2.965,44.884,3.194,5.169.894,8.448-5.117,9.432-6.394,1.048-11.884-.292-16.44-4.979-1.391-1.431-2.733-2.913-4.065-4.4-11.312-12.634-24.933-16.606-41.468-12.122-14.741,4-29.746,7.013-44.6,10.618-8.557,2.077-16.921,5.057-20.578,13.965-3.074,7.485-8.611,9.557-15.828,9.294-3.326-.121-6.643-.558-9.969-.626-5.219-.106-8.832-2.356-10.62-7.34-3.542-9.874-11.437-14.192-20.98-16.35-24.088-5.448-48.316-8.934-73.187-7.758-11.385.539-20.853,3.474-27.88,12.686-4.768,6.25-10.91,9.924-18.906,8.914-14.394-1.82-18.339-3.137-9.171-16.172,1.149-1.634,2.606-3.152,3.34-4.96,4.686-11.526,9.315-17.536-4.847-29.759A208.24,208.24,0,0,1,91.592,400.73c-13.536-17.441-17.139-37.366-17.944-58.019-.9-23.194,6.176-44.365,20.123-63.275a65.957,65.957,0,0,1,14.145-13.815c5.051-3.764,10.455-5.746,16.81-3.7,7.743,2.488,15.8,1.994,23.768,2.416,43.169,2.286,86.327,4.783,129.5,6.924,10.609.526,21.277.221,31.906-.1,21.275-.65,42.536-1.938,63.813-2.278,17.375-.278,34.475-2.9,51.521-5.5,9.094-1.384,15.527,1.672,21.691,6.982,2.483,2.138,4.344,5.037,6.317,7.715,1.916,2.6,5.309,5.046,4.038,8.576-1.474,4.1-5.521,2.086-8.529,2.074-7.378-.029-14.673.231-20.657,5.314-.792.672-.8,2.332-1.052,3.559-.343,1.672.388,2.774,2.039,2.812C433.025,300.5,436.968,300.442,440.68,300.442Zm-33.262,93.347c-2.513-1.437-4.012.408-5.81,1.027-13.168,4.536-25.62,10.745-39.282,14.311-19.542,5.1-39.329,6.39-59.244,7.911-33.392,2.551-66.4.964-99.081-6.8-20.138-4.782-40.155-9.568-56.887-22.823-1.248-.989-3.656-.514-5.524-.719.187,1.816.519,3.631.533,5.448.045,5.656-2.226,7.088-6.841,5.119-7.612-3.247-12.58-9.726-18.889-14.549-.729-.557-2.707-.691-3.1-.206a4.2,4.2,0,0,0-.684,3.485,19.31,19.31,0,0,0,2.985,5.149c10.875,14.055,24.995,23.964,41.218,30.676,33.533,13.875,68.514,20.666,104.85,21.815,18.738.592,37.25-1.4,55.8-2.505,30.941-1.847,60.225-10.155,86.555-27.389,5.207-3.409,7.223-7.189,5.483-13.2C408.814,398.17,410.026,395.2,407.418,393.789Zm-148.74.921c-7.933,5.646-13.469,5.449-18.249,4.518-18.219-3.548-36.947-4.587-54.637-10.8a19.125,19.125,0,0,0-5.77-1.289c-.916-.021-2.139,1.152-2.729,2.094-.838,1.338-.07,2.378,1.387,3.188a89.689,89.689,0,0,0,20.088,8.375c42.95,11.695,86.408,13.48,130.31,7,7.88-1.162,15.745-2.5,23.549-4.094a91.974,91.974,0,0,0,29.641-11.377c2.525-1.534,4.7-3.97,3.394-6.125-.829-1.369-4.932-1.519-7.312-1.014a54.71,54.71,0,0,0-11.213,4.055c-14.637,6.7-30.75,8.661-46.117,11.042-18.079,2.8-37.013.151-55.572-.317-1.688-.043-3.343-1.408-5.279-2.278,6.21-6.1,13.2-2.63,19.291-1.924,24.479,2.839,47.355-4,70.391-10.264.569-.155,1.05-.79,1.473-1.285.377-.441,1-1.2.851-1.472-.57-1.084-1.341-2.836-2.137-2.891a44.13,44.13,0,0,0-9.729.258c-25.045,3.869-50.2,5.8-75.526,4.105-12.581-.84-25.117-2.34-37.686-3.393a3.625,3.625,0,0,0-2.963,1.608,3.728,3.728,0,0,0,2.142,4.882C235.9,389.761,245.635,391.79,258.678,394.71Z"/><path class="b" d="M481.992,343.845c9.1,8.846,9.182,18.136,8.69,27.394-.571,10.74-2.946,21.28-9.645,29.83-7.134,9.1-17.145,12.171-28.535,9.479-19.941-4.713-35.418-23.075-37.064-44.079a192.442,192.442,0,0,1-.516-19.862A30.307,30.307,0,0,1,421.8,328.3c2.1-2.636,4.895-4.442,8.647-3.119,3.521,1.242,5.311,5.616,2.843,9.991-8.642,15.32-7.853,30.359.237,45.482a55.225,55.225,0,0,0,15.736,17.784,20.8,20.8,0,0,0,32.639-9.683c2.91-8.069,4.862-16.483,3.174-25.292C483.967,357.688,483.232,351.844,481.992,343.845Z"/><path class="b" d="M263.892,160.789c-1.078,10.079-9.805,17.362-19.054,15.9-9.561-1.51-17.357-10.9-16.251-19.564,1.216-9.527,10.313-16.972,19.635-16.069C257.344,141.942,264.891,151.444,263.892,160.789Z"/><path class="b" d="M67.3,341.214c.055,10.467-.578,21.008,2.681,31.267,1.155,3.633.863,7.735,1.129,11.629.04.582-.4,1.658-.763,1.723-1.219.221-2.762.555-3.718.019-6.233-3.492-9.1-9.741-10.495-16.046-3.354-15.144-2.26-30.091,5.109-44.117a4.6,4.6,0,0,1,3.025-2.05c2.761-.391,2.922,1.965,2.982,3.773C67.4,332.008,67.3,336.613,67.3,341.214Z"/><path class="b" d="M145.771,183.822c6.149-.517,11.732,5.471,12.07,12.947.25,5.539-3.943,10.858-8.9,11.287-6.156.533-12.5-5.206-13.271-12.006A10.764,10.764,0,0,1,145.771,183.822Z"/><path class="b" d="M376.223,196.57c-.645,5.9-6.459,10.735-12.179,10.124-6.893-.736-12.8-7.226-11.923-13.1,1.011-6.774,7.863-12.459,13.689-11.357A13.209,13.209,0,0,1,376.223,196.57Z"/><path class="b" d="M186.469,151.261c-3.557.017-6.355-1.256-7.451-4.865-.9-2.962,1.682-6.165,5.246-6.783,4.574-.793,8.574,1.776,8.573,5.507C192.837,148.156,189.939,150.949,186.469,151.261Z"/><path class="b" d="M403.442,178.45c-1.034,3.167-2.72,5.5-5.662,4.877-1.36-.288-3.269-2.931-3.12-4.312.26-2.407,1.635-5.445,5.053-4.306C401.268,175.227,402.317,177.264,403.442,178.45Z"/><path class="b" d="M187.011,70.015c5.595-.282,11.483,5.166,11.948,11.058.453,5.733-4.853,11.191-11.182,11.505a11.6,11.6,0,0,1-11.911-10.841C175.53,76.086,181.014,70.318,187.011,70.015Z"/><path class="b" d="M340.187,127.744c-4.876.229-7.072-1.628-7.916-5.107-.717-2.951,2.356-6.647,5.327-6.214,3.462.5,5.859,2.657,5.833,6.23C343.412,125.186,342.109,127.485,340.187,127.744Z"/><path class="a" d="M407.418,393.789c2.608,1.415,1.4,4.381,2.083,6.753,1.74,6.011-.276,9.791-5.483,13.2-26.33,17.234-55.614,25.542-86.555,27.389-18.553,1.107-37.065,3.1-55.8,2.505-36.336-1.149-71.317-7.94-104.85-21.815-16.223-6.712-30.343-16.621-41.218-30.676A19.31,19.31,0,0,1,112.607,386a4.2,4.2,0,0,1,.684-3.485c.4-.485,2.373-.351,3.1.206,6.309,4.823,11.277,11.3,18.889,14.549,4.615,1.969,6.886.537,6.841-5.119-.014-1.817-.346-3.632-.533-5.448,1.868.2,4.276-.27,5.524.719,16.732,13.255,36.749,18.041,56.887,22.823,32.682,7.761,65.689,9.348,99.081,6.8,19.915-1.521,39.7-2.81,59.244-7.911,13.662-3.566,26.114-9.775,39.282-14.311C403.406,394.2,404.905,392.352,407.418,393.789Zm-21.333,19.828c-3.031,0-5.137-.5-6.89.076-21.616,7.106-44.177,9.251-66.476,12.673a253.786,253.786,0,0,1-81.422-.286c-28.082-4.786-56.392-9.6-80.748-26.182-1.378-.939-2.672-.831-3.273.776-.37.99-.428,2.774.18,3.347,5.887,5.55,13.151,8.7,20.558,11.721,38.951,15.892,80.048,18.521,121.235,17.942,24.419-.344,49.058-2.292,72.892-9.286C370.317,422,378.811,420.768,386.085,413.617Z"/><path class="a" d="M258.678,394.71c-13.043-2.92-22.775-4.949-32.4-7.394a3.728,3.728,0,0,1-2.142-4.882,3.625,3.625,0,0,1,2.963-1.608c12.569,1.053,25.1,2.553,37.686,3.393,25.323,1.691,50.481-.236,75.526-4.105a44.13,44.13,0,0,1,9.729-.258c.8.055,1.567,1.807,2.137,2.891.144.274-.474,1.031-.851,1.472-.423.5-.9,1.13-1.473,1.285-23.036,6.263-45.912,13.1-70.391,10.264-6.093-.706-13.081-4.18-19.291,1.924,1.936.87,3.591,2.235,5.279,2.278,18.559.468,37.493,3.118,55.572.317,15.367-2.381,31.48-4.337,46.117-11.042a54.71,54.71,0,0,1,11.213-4.055c2.38-.5,6.483-.355,7.312,1.014,1.305,2.155-.869,4.591-3.394,6.125a91.974,91.974,0,0,1-29.641,11.377c-7.8,1.593-15.669,2.932-23.549,4.094-43.9,6.476-87.36,4.691-130.31-7a89.689,89.689,0,0,1-20.088-8.375c-1.457-.81-2.225-1.85-1.387-3.188.59-.942,1.813-2.115,2.729-2.094a19.125,19.125,0,0,1,5.77,1.289c17.69,6.213,36.418,7.252,54.637,10.8C245.209,400.159,250.745,400.356,258.678,394.71Z"/><path class="b" d="M386.085,413.617c-7.274,7.151-15.768,8.382-23.944,10.781-23.834,6.994-48.473,8.942-72.892,9.286-41.187.579-82.284-2.05-121.235-17.942-7.407-3.022-14.671-6.171-20.558-11.721-.608-.573-.55-2.357-.18-3.347.6-1.607,1.895-1.715,3.273-.776,24.356,16.582,52.666,21.4,80.748,26.182a253.786,253.786,0,0,0,81.422.286c22.3-3.422,44.86-5.567,66.476-12.673C380.948,413.117,383.054,413.617,386.085,413.617Z"/></svg>