<svg xmlns="http://www.w3.org/2000/svg" viewBox="0 0 543.348 543.348"><defs><style>.a{fill:#077ec6;}.b{fill:#fcfcfb;}</style></defs><path class="a" d="M507.743,272.537q0,106.9-.011,213.805,0,7.987-.246,15.975c-.115,3.939-2.478,6.072-6.2,6.331-4.643.323-9.316.291-13.976.291q-215.861.019-431.721,0c-21.269,0-19.866,1.228-19.868-19.024q-.018-216.8-.006-433.606c0-2.664-.066-5.331.032-7.992.381-10.293,1.063-11.192,11.775-11.235,33.977-.136,67.956-.06,101.934-.061q81.946,0,163.894.016c4.655,0,9.32.119,13.955.491.839.067,1.666,1.569,2.271,2.549a1.775,1.775,0,0,1-.469,1.634c-1.529,1.221-3.293,2.159-4.768,3.435-7.539,6.521-7.17,10.891,1.359,14.28,8.033,3.191,16.236,5.949,24.279,9.115a52.5,52.5,0,0,1,10.673,5.243c8.164,5.642,7.382,14.016-1.708,18.781-10.259,5.377-21.522,6.8-32.861,7.057-15.354.349-30.505,2.272-45.679,4.4-6.164.863-11.582,2.775-16.31,6.715-5.406,4.506-5.3,11.331.491,15.106a61.2,61.2,0,0,0,10.631,5.428c8.028,3.217,16.2,6.072,24.271,9.183a75,75,0,0,1,10.953,4.774c4.775,2.787,8.986,7.146,8.348,12.685-.635,5.52-5.725,8.893-10.98,10.45-12.281,3.637-24.566,5.149-37.217.675-6.271-2.217-8.94.037-12.1,6.94-1.054,2.306-.175,4.045,1.824,4.264,3.948.432,8.016-.061,11.491,2.486,3.193,2.341,6.012,1.435,9.024-.654,9.565-6.633,20.683-8.605,31.879-10.444,13.1-2.152,26.152-4.63,39.224-6.966a30.975,30.975,0,0,0,3.929-.717c5.226-1.652,10.858-4.076,11.722-9.655.965-6.231-5.048-9.054-9.78-11.148-7.278-3.22-15.04-5.329-22.45-8.278-3.861-1.537-6.994-4.617-6.933-8.962.058-4.182,2.98-7.255,6.482-9.5a28.4,28.4,0,0,1,13.132-4.368c17.234-1.486,34.366-4.443,51.755-3.734,26.025,1.062,51.837-1.837,77.683-4.109a28.841,28.841,0,0,0,5.874-1c8.074-2.466,10.9-10.969,5.488-17.442-7.858-9.4-18.067-15.595-29.406-19.955-4.952-1.9-10.162-3.065-14.449-6.56-5.511-4.494-5.355-11.143.754-14.744a50.426,50.426,0,0,1,22.616-7.255c10.622-.611,21.31-.175,31.968-.058,4.84.053,7.174,2.893,7.284,7.57.125,5.325.131,10.655.131,15.983Q507.749,166.632,507.743,272.537ZM241.326,238.809a62.144,62.144,0,0,0-5.4-5.084c-.834-.632-3.092-.918-3.335-.523-.918,1.5-1.919,3.42-1.717,5.037.5,3.973,3.909,4.127,7.036,4.353.893.989,1.792,1.971,2.676,2.968a15.739,15.739,0,0,1,1.271,1.536c1.6,2.351,2.657,4.87-.492,6.665-2.7,1.536-5.413.329-7.084-1.79-3.987-5.06-3.183-12.666-8.762-16.975,3.038-8.668-2.178-13.079-8.489-17.342-3.513-2.373-3.673-6.786-4.659-10.683-1.623-6.418-2.083-14.374-6.194-18.632-6.583-6.821-12.324-13.525-15.3-22.552-.213-.646-2.367-1.108-3.457-.88-1.044.218-2.564,1.349-2.692,2.247-1.026,7.223-2.208,14.471-2.46,21.742-.184,5.312,1.007,10.849-1.818,15.629-4.8,8.128-3.974,16.772-2.42,25.218,1.825,9.912,2.018,19.844,2.444,29.822.4,9.3.291,18.759,2.07,27.822a103.72,103.72,0,0,1-1.29,47.426c-2.237,8.433-3.418,17.06.55,25.422,1.185,2.5,1.926,4.978,1.041,7.653-2.989,9.04-1.983,18.485-2.935,27.73a42.153,42.153,0,0,1-8.653,22.006c-2.764,3.551-8.34,3.042-8.962-1.279-.958-6.653-3.928-9.325-10.43-8.849-6.63.486-13.281,1.093-19.915,1-7.017-.1-13.334.006-16.071,8.3-1.2,3.637-5.037,3.764-8.363,4.1-7.272.731-14.553,1.4-21.805,2.288-5.307.653-10.492,1.779-14.9,5.2-2.056,1.6-2.288,5.417.058,6.676a63.642,63.642,0,0,0,10.736,4.923c15.5,4.9,31.529,4.771,47.518,4.131a36.949,36.949,0,0,1,22.465,6.242c5.363,3.453,8.3,6.023,4.422,12.36-2.122,3.472-.261,6.893,3.211,7.994,16.071,5.1,32.693,5.712,49.386,5.087a9.176,9.176,0,0,0,5.563-1.895c7.126-6.674,15.769-5.827,24.5-5.97a275.89,275.89,0,0,0,27.865-2.255c6.01-.713,11.947-1.269,17.842.241,3.988,1.021,7.84,2.678,6.985,7.917-.951,5.833,1.97,8.86,7.11,9.915,9.119,1.874,18.262,4.2,27.5,4.8,11.284.738,22.769.336,32.244-7.585,5.53-4.622,12.012-4.923,18.866-4.529,16.665.958,33.3.842,49.673-3.158,6.274-1.532,15.028-1.579,14.933-9.853-.066-5.83-8.426-4.692-13.048-6.731a18.292,18.292,0,0,0-1.94-.465c-4.585-1.428-9.047-3.415-10.095-8.562-1.2-5.894,3.738-7.841,7.776-10.088,1.156-.643,2.541-.881,3.68-1.545,5.482-3.193,5.614-7.333.32-10.255-11.97-6.609-25.362-7.714-38.5-9.541-4.784-.665-9.961-2.379-15.382.773,4.063,6.131,10.8,5.768,15.725,8.645,6.113,3.573,10.174,8.394,11.658,15.38.932,4.382-.7,7.843-3.721,10.718a6.328,6.328,0,0,1-3.631,1.263c-2.438.209-3.981-1.563-3.456-3.562,2.605-9.922-2.051-14.688-10.919-17.867a119.591,119.591,0,0,1-19.576-9.688c-3.923-2.29-6.677-2.881-9.848,1.049-.843,1.044-3.876,1.218-5.458.618-7.008-2.66-13.243-6.4-15.4-14.357-1.742-6.418-4.5-12.765-5-19.282-2.476-32.29-3.79-64.618.863-96.976,3.9,1.159,3.149,4.427,3.2,6.713.234,9.969.448,19.967-.054,29.918-1.336,26.466,4.445,51.544,13.99,75.964,1.436,3.672,2.844,9.618,6.774,8.643,5.2-1.29,1.3-6.449.574-9.753a135.1,135.1,0,0,1-2.949-31.722c.125-6.635.668-13.445-.562-19.874-1.361-7.117,1.508-11.063,6.469-15.291,8.23-7.012,8.564-9.974,3.689-18.454-3.276-5.7-8.848-10.323-8.936-17.519-.222-18-5.558-35.526-4.773-53.626.476-10.97-3.532-20.874-8.212-30.508-1.581-3.254-5.324-3.671-7.845-.484-2.7,3.413-8.189,5.191-7.1,11.055l.2-.23c-5.516-2.1-10.614-1.654-13.948,3.633-3.986,6.322-9.793,8.179-16.762,8.72-5.908.458-11.73,1.922-17.626,2.65-6.838.845-10.39-1.819-10.31-8.5.095-7.964.647-15.86-3.716-23.028-.955-1.568-2.325-3.2-4.3-2.39-.886.362-1.454,2.166-1.663,3.4-1.136,6.708,1.242,13.044,2.173,19.546.7,4.9-1.905,6.941-8.79,7.36A25.456,25.456,0,0,1,241.326,238.809Zm136.616,135.1q-.056,2.156-.112,4.31a192.726,192.726,0,0,0,38.456-1.4c12.468-1.671,25.033,3.981,37.416-.4,12.153-4.3,24.911.923,38.111-2.517Zm75.493-29.406c-26.017.668-52.036,1.291-78.05,2.075-2.563.078-4.938,1.293-4.238,5.382A448.247,448.247,0,0,0,453.435,344.507ZM42.508,378.117c18.335,3.06,33.015,2.148,52.163-.063C75.864,376.074,61.531,375.713,42.508,378.117Z"/><path class="b" d="M320.006,228.009c-1.091-5.864,4.4-7.642,7.1-11.055,2.521-3.187,6.264-2.77,7.845.484,4.68,9.634,8.688,19.538,8.212,30.508-.785,18.1,4.551,35.624,4.773,53.626.088,7.2,5.66,11.818,8.936,17.519,4.875,8.48,4.541,11.442-3.689,18.454-4.961,4.228-7.83,8.174-6.469,15.291,1.23,6.429.687,13.239.562,19.874a135.1,135.1,0,0,0,2.949,31.722c.726,3.3,4.624,8.463-.574,9.753-3.93.975-5.338-4.971-6.774-8.643-9.545-24.42-15.326-49.5-13.99-75.964.5-9.951.288-19.949.054-29.918-.054-2.286.7-5.554-3.2-6.713-4.653,32.358-3.339,64.686-.863,96.976.5,6.517,3.256,12.864,5,19.282,2.158,7.953,8.393,11.7,15.4,14.357,1.582.6,4.615.426,5.458-.618,3.171-3.93,5.925-3.339,9.848-1.049a119.591,119.591,0,0,0,19.576,9.688c8.868,3.179,13.524,7.945,10.919,17.867-.525,2,1.018,3.771,3.456,3.562a6.328,6.328,0,0,0,3.631-1.263c3.024-2.875,4.653-6.336,3.721-10.718-1.484-6.986-5.545-11.807-11.658-15.38-4.921-2.877-11.662-2.514-15.725-8.645,5.421-3.152,10.6-1.438,15.382-.773,13.139,1.827,26.531,2.932,38.5,9.541,5.294,2.922,5.162,7.062-.32,10.255-1.139.664-2.524.9-3.68,1.545-4.038,2.247-8.977,4.194-7.776,10.088,1.048,5.147,5.51,7.134,10.095,8.562a18.292,18.292,0,0,1,1.94.465c4.622,2.039,12.982.9,13.048,6.731.1,8.274-8.659,8.321-14.933,9.853-16.369,4-33.008,4.116-49.673,3.158-6.854-.394-13.336-.093-18.866,4.529-9.475,7.921-20.96,8.323-32.244,7.585-9.233-.6-18.376-2.929-27.5-4.8-5.14-1.055-8.061-4.082-7.11-9.915.855-5.239-3-6.9-6.985-7.917-5.895-1.51-11.832-.954-17.842-.241a275.89,275.89,0,0,1-27.865,2.255c-8.73.143-17.373-.7-24.5,5.97a9.176,9.176,0,0,1-5.563,1.895c-16.693.625-33.315.013-49.386-5.087-3.472-1.1-5.333-4.522-3.211-7.994,3.874-6.337.941-8.907-4.422-12.36a36.949,36.949,0,0,0-22.465-6.242c-15.989.64-32.015.766-47.518-4.131a63.642,63.642,0,0,1-10.736-4.923c-2.346-1.259-2.114-5.08-.058-6.676,4.407-3.421,9.592-4.547,14.9-5.2,7.252-.892,14.533-1.557,21.805-2.288,3.326-.334,7.162-.461,8.363-4.1,2.737-8.29,9.054-8.4,16.071-8.3,6.634.095,13.285-.512,19.915-1,6.5-.476,9.472,2.2,10.43,8.849.622,4.321,6.2,4.83,8.962,1.279a42.153,42.153,0,0,0,8.653-22.006c.952-9.245-.054-18.69,2.935-27.73.885-2.675.144-5.158-1.041-7.653-3.968-8.362-2.787-16.989-.55-25.422a103.72,103.72,0,0,0,1.29-47.426c-1.779-9.063-1.673-18.525-2.07-27.822-.426-9.978-.619-19.91-2.444-29.822-1.554-8.446-2.384-17.09,2.42-25.218,2.825-4.78,1.634-10.317,1.818-15.629.252-7.271,1.434-14.519,2.46-21.742.128-.9,1.648-2.029,2.692-2.247,1.09-.228,3.244.234,3.457.88,2.972,9.027,8.713,15.731,15.3,22.552,4.111,4.258,4.571,12.214,6.194,18.632.986,3.9,1.146,8.31,4.659,10.683,6.311,4.263,11.527,8.674,8.489,17.342,5.579,4.309,4.775,11.915,8.762,16.975,1.671,2.119,4.387,3.326,7.084,1.79,3.149-1.795,2.095-4.314.492-6.665a15.739,15.739,0,0,0-1.271-1.536c-.884-1-1.783-1.979-2.676-2.968q1.709-1.893,3.416-3.785a25.193,25.193,0,0,0,3.944.361c6.885-.419,9.492-2.457,8.79-7.36-.931-6.5-3.309-12.838-2.173-19.546.209-1.234.777-3.038,1.663-3.4,1.97-.808,3.34.822,4.3,2.39,4.363,7.168,3.811,15.064,3.716,23.028-.08,6.683,3.472,9.347,10.31,8.5,5.9-.728,11.718-2.192,17.626-2.65,6.969-.541,12.776-2.4,16.762-8.72,3.334-5.287,8.432-5.731,13.946-3.629,2.861,2.432.955,4.179-.62,6.318a23.413,23.413,0,0,0-3.479,6.816c-.731,2.356.619,5.306-2.059,7.149-2.6,1.787-5.037-.122-7.553-.288-3-.2-4.868,1.608-6.5,3.8q-7.006,9.441-14.015,18.865c2.853,2.078,4.992,1.283,7.521-.084,5.74-3.1,10.819-7.633,18.012-7.686,10.213-.075,15.3-7.011,18.508-15.459,1.6-4.222,3.2-8.907.966-13.484-2.1-4.292-7.389-1-10.141-3.932A6.462,6.462,0,0,1,320.006,228.009ZM187.738,350.082c-.652,15.007,1.279,23.525,10.7,35.161,4.454,5.5,6.92,10.9,7.531,17.768.331,3.712.268,10.207,4.451,9.853,5.722-.485,4.379-7.042,4.508-11.47a63.324,63.324,0,0,1,3.333-17.54c2.218-6.942,4.21-13.976,5.828-21.077.548-2.408-.152-5.184-.714-7.694-.123-.55-2.257-1.189-3.162-.885a5.672,5.672,0,0,0-2.717,2.634c-1.567,2.891-2.651,6.059-4.358,8.855-1.92,3.146-6.134,2.6-7.881-.769-5.787-11.153-5.9-22.831-3.882-34.932,1.08-6.483,3.55-13,1.829-19.657-.387-1.5-2.762-2.673-4.462-3.5-.406-.2-2.4,1.449-2.612,2.468C193.272,322.876,187.972,335.964,187.738,350.082ZM316.827,464.4c11.563,5.77,20.131,6.447,28.7,7.084,11.869.883,22.181-3.6,32.008-9.535,3.241-1.958,4.529-6.425,2.763-8.569-2.39-2.9-5.7-3.313-9.024-2.693-1.862.347-4.147,1.2-5.209,2.607-6.448,8.536-16,8.805-25.228,9.765C334.283,463.742,327.667,463.825,316.827,464.4ZM298.6,378.115c-7.919,14.836-8,30.232-7.952,45.613,0,.879,1.58,2.2,2.65,2.494a3.8,3.8,0,0,0,3.235-1.082c1.619-1.972,3.532-4.1,4.11-6.461a89.173,89.173,0,0,0,1.507-35.071C301.883,381.908,300.146,380.435,298.6,378.115Zm-91.318-96.556c-.75-4.277-2.026-7.056-1.5-9.442,1.365-6.241-.221-11.826-2.632-17.327-.261-.6-2.141-.645-3.265-.626-.5.008-1.148.735-1.427,1.289a3.563,3.563,0,0,0-.224,1.953,123.762,123.762,0,0,1-.489,37.313,5.489,5.489,0,0,0,2.624,4.583c2.936,1.1,5.385-1.1,5.812-3.71A139.061,139.061,0,0,0,207.278,281.559Zm66.433-6.457c-2.3-10.084-9.766-11.293-15.211-14.513-5.968-3.529-12.218-1.871-13.749,2.574-1.428,4.146,2.51,9.732,8.555,11.592a27.068,27.068,0,0,0,7.8,1.025C265.028,275.791,268.954,275.381,273.711,275.1Zm-6.076,6.292c2.558,6.564,4.019,12.2,8.9,16.1,4.148,3.313,8.773,3.115,11.743-1.01a31.032,31.032,0,0,0,2.98-5.007c2.672-5.75.733-9.431-5.253-12.238C279.892,276.371,274.834,279.509,267.635,281.394Zm7.635-23.579c-.88.639-2.419,1.182-2.551,1.962-.408,2.418,1.346,3.608,3.475,3.666.94.025,2.7-1.05,2.727-1.689C279.027,259.5,277.338,258.372,275.27,257.815Z"/><path class="b" d="M377.942,373.913H491.813c-13.2,3.44-25.958-1.78-38.111,2.517-12.383,4.378-24.948-1.274-37.416.4a192.726,192.726,0,0,1-38.456,1.4Q377.886,376.069,377.942,373.913Z"/><path class="b" d="M453.435,344.507a448.247,448.247,0,0,1-82.288,7.457c-.7-4.089,1.675-5.3,4.238-5.382C401.4,345.8,427.418,345.175,453.435,344.507Z"/><path class="b" d="M42.508,378.117c19.023-2.4,33.356-2.043,52.163-.063C75.523,380.265,60.843,381.177,42.508,378.117Z"/><path class="b" d="M237.911,242.592c-3.127-.226-6.539-.38-7.036-4.353-.2-1.617.8-3.539,1.717-5.037.243-.4,2.5-.109,3.335.523a62.285,62.285,0,0,1,5.4,5.083Z"/><path class="a" d="M187.743,350.083c.229-14.119,5.529-27.207,8.383-40.791.214-1.019,2.206-2.666,2.612-2.468,1.7.832,4.075,2.006,4.462,3.5,1.721,6.661-.749,13.174-1.829,19.657-2.016,12.1-1.905,23.779,3.882,34.932,1.747,3.367,5.961,3.915,7.881.769,1.707-2.8,2.791-5.964,4.358-8.855a5.672,5.672,0,0,1,2.717-2.634c.905-.3,3.039.335,3.162.885.562,2.51,1.262,5.286.714,7.694-1.618,7.1-3.61,14.135-5.828,21.077a63.324,63.324,0,0,0-3.333,17.54c-.129,4.428,1.214,10.985-4.508,11.47-4.183.354-4.12-6.141-4.451-9.853-.611-6.865-3.077-12.264-7.531-17.768C189.017,373.607,187.086,365.089,187.743,350.083Z"/><path class="a" d="M320.006,228.009a6.462,6.462,0,0,0,.845,1.791c2.752,2.93,8.046-.36,10.141,3.932,2.235,4.577.637,9.262-.966,13.484-3.208,8.448-8.3,15.384-18.508,15.459-7.193.053-12.272,4.582-18.012,7.686-2.529,1.367-4.668,2.162-7.521.084q7-9.423,14.015-18.865c1.627-2.194,3.493-4,6.5-3.8,2.516.166,4.957,2.075,7.553.288,2.678-1.843,1.328-4.793,2.059-7.149a23.413,23.413,0,0,1,3.479-6.816c1.575-2.139,3.481-3.886.62-6.318C320.208,227.779,320.006,228.009,320.006,228.009Z"/><path class="a" d="M316.827,464.4c10.84-.577,17.456-.66,24.008-1.341,9.224-.96,18.78-1.229,25.228-9.765,1.062-1.4,3.347-2.26,5.209-2.607,3.325-.62,6.634-.209,9.024,2.693,1.766,2.144.478,6.611-2.763,8.569-9.827,5.936-20.139,10.418-32.008,9.535C336.958,470.849,328.39,470.172,316.827,464.4Z"/><path class="a" d="M298.6,378.115c1.55,2.32,3.287,3.793,3.55,5.493a89.173,89.173,0,0,1-1.507,35.071c-.578,2.362-2.491,4.489-4.11,6.461a3.8,3.8,0,0,1-3.235,1.082c-1.07-.295-2.647-1.615-2.65-2.494C290.6,408.347,290.677,392.951,298.6,378.115Z"/><path class="a" d="M207.278,281.559a139.061,139.061,0,0,1-1.1,14.033c-.427,2.615-2.876,4.81-5.812,3.71a5.489,5.489,0,0,1-2.624-4.583,123.762,123.762,0,0,0,.489-37.313,3.563,3.563,0,0,1,.224-1.953c.279-.554.929-1.281,1.427-1.289,1.124-.019,3,.03,3.265.626,2.411,5.5,4,11.086,2.632,17.327C205.252,274.5,206.528,277.282,207.278,281.559Z"/><path class="a" d="M273.711,275.1c-4.757.279-8.683.689-12.608.678a27.068,27.068,0,0,1-7.8-1.025c-6.045-1.86-9.983-7.446-8.555-11.592,1.531-4.445,7.781-6.1,13.749-2.574C263.945,263.809,271.413,265.018,273.711,275.1Z"/><path class="a" d="M267.635,281.394c7.2-1.885,12.257-5.023,18.368-2.156,5.986,2.807,7.925,6.488,5.253,12.238a31.032,31.032,0,0,1-2.98,5.007c-2.97,4.125-7.6,4.323-11.743,1.01C271.654,293.594,270.193,287.958,267.635,281.394Z"/><path class="a" d="M275.27,257.815c2.068.557,3.757,1.685,3.651,3.939-.03.639-1.787,1.714-2.727,1.689-2.129-.058-3.883-1.248-3.475-3.666C272.851,259,274.39,258.454,275.27,257.815Z"/></svg>