<svg xmlns="http://www.w3.org/2000/svg" viewBox="0 0 543.348 543.348"><defs><style>.a{fill:#df271f;}.b{fill:#fcfcfb;}</style></defs><path class="a" d="M507.741,271.628q0,105.923,0,211.847c0,4.663.1,9.33-.038,13.989-.315,10.491-.885,11.023-11.679,11.359-3.329.1-6.663.027-10,.027q-213.9,0-427.8-.016c-25.022-.006-22.472,2.177-22.481-22.522q-.074-213.844-.024-427.691c0-3.331-.059-6.663.016-9.992.292-12.983.4-13.082,13.654-13.371,2.664-.058,5.331-.014,8-.014q213.9,0,427.805.006c25.107,0,22.506-1.793,22.528,22.532Q507.817,164.705,507.741,271.628ZM275.861,454.194c1.021,3.469,4.052,4.349,6.953,5.4,13.479,13.13,30.64,19.4,48.392,21.753,30.322,4.013,59.623-1.731,87.179-15.341,1.07-.529,1.7-1.945,2.533-2.957,3.082-.621,6.19-1.2,7.513-4.658a5.272,5.272,0,0,0,1.949-.35c18.789-12.387,33.768-27.632,38.42-50.767.913-4.542,2.542-8.939,3.833-13.406,6.9-23.878,9.256-48.44,6.1-72.85-3.546-27.423-3.305-54.176,4.321-80.794a32.575,32.575,0,0,0,1.007-7.848c.115-3.5-1.116-6.63-4.306-8.374-4.388-2.4-8.01.342-10.371,3.215a38.713,38.713,0,0,0-6.565,12.1,287.276,287.276,0,0,0-13.921,64.05,361.979,361.979,0,0,1-13.459,70.084q-7.04,9.173-14.075,18.349-1.737,2.03-3.473,4.061l-6.5,5.5c-7.574,2.391-15.014,5.413-22.747,7.053-23.273,4.936-52.062-1.773-64.417-27.644-4.074-8.531-4.4-16.548-.046-24.734,3.733-7.013,7.938-13.776,11.64-20.805,6.5-12.34,13.192-24.607,18.988-37.278,3.571-7.806,6.251-16.22,5.108-25.124-.883-6.883-6.289-11.68-13.47-12.387-7.143-.7-13.254,3.125-14.834,10.282-1.994,9.037-3.162,18.254-4.85,27.362-.681,3.673-.464,7.977-5.088,9.679-2.7-1.685-1.975-4.48-2.045-6.777-.182-5.965.169-11.945.041-17.914-.428-19.872-1.325-39.678-10.472-57.983q-1.09-2.622-2.182-5.244c-2.954-11.813-9.412-21.608-17.414-31.476-1.334,2.566-2.347,4.21-3.072,5.972-1.577,3.837-3.482,7.5-8.226,7.5-4.491.005-7.02-3.264-9.1-6.8-1.921-3.268-.383-6.7,3.531-7.257,5.006-.716,10.066-1.052,14.927-1.534.984-3.774-.842-6.534-2.63-9.342-2.839-4.458-5.713-8.9-8.284-13.512-.4-.722.405-2.648,1.223-3.37s2.748-1.24,3.5-.762c6.7,4.284,12.986,9.067,20.563,12.07,17.728,7.025,23.051,4.273,25.143-14.312.668-5.941.188-12.047,1.228-17.9,1.769-9.957,9.176-14.891,18.9-12.934,3.856.777,7.467,2.71,11.257,3.9,2.523.792,5.307,1.989,7.714,1.557,2.319-.415,4.725-2.336,6.328-4.24,1.951-2.316.935-5.252-.924-7.227-2.251-2.392-5.217-4.1-7.563-6.416q-10.851-10.71,2.365-19.458c2.759-1.832,6.064-2.9,8.643-4.918a7.671,7.671,0,0,0,2.324-5.212c.125-2.874-2.023-4.778-4.516-5.895a9.858,9.858,0,0,0-9.548.72c-3.377,2.1-6.306,5.008-9.822,6.792-9.284,4.712-19.812-1.018-20.609-11.305-.355-4.592.825-9.283.792-13.925-.033-4.625-4.648-8.432-9.378-8.316-5.085.125-9.163,3.6-9.163,8.586,0,5.971,1.006,11.948.914,17.911-.118,7.56-6.11,12.011-13.6,10.38-3.885-.845-7.581-2.7-11.483-3.269a13.078,13.078,0,0,0-7.583,1.451c-2.976,1.6-5.125,4.568-4.659,8.176a7.146,7.146,0,0,0,6.533,6.445c3.288.415,6.641.295,9.959.506,8.465.538,13.2,5.614,15.615,13.228a29.249,29.249,0,0,1,.51,15.79c-1.514,6.434-2.941,12.888-4.5,19.729-9.629-.448-15.894-7.29-23.7-10.519-9.164-3.793-17.472-10.2-27.74-10.485-7.742-.212-14.079-3-20.343-6.983A93.557,93.557,0,0,0,222.8,116.7c-6.469-2.864-8.468-1.6-10.828,6.423-.367,1.248.081,2.765-.377,3.952a3.728,3.728,0,0,1-4.7,2.4c-2.045-.646-2.754-2.685-2.517-4.764,2.029-17.824-1.872-26.541-15.587-34.662-4.1-2.428-7.51-2.106-9.88,2.191-3.38,6.128-7.621,10.858-14.421,12.942-13.616,4.173-31.561-3.633-38.865-17.057-.417-.767.626-2.329,1-3.545,2.855.3,4.405,2.22,5.877,4.42,3.608,5.39,9.532,7.184,15.223,8.747,7.909,2.174,26.6-7.048,26.494-13.571-.137-8.268-7.847-11.522-14.015-15.423-6.839-4.325-14.467-3.905-21.27-1.736-8.514,2.715-16.86,3.3-25.565,2.956a45.225,45.225,0,0,0-11.931.93c-16.981,3.97-28.887,14.119-32.779,31.254-3.734,16.442,2.056,30.147,15.891,40.167,3.238,2.345,6.3,4.966,9.711,7.03a79.359,79.359,0,0,1,15.755,12.106c13.127,13.318,20.539,14.094,38.481,4.97-.244-2.612-.344-5.283-.765-7.9-2.385-14.822-7.4-19.4-21.855-20.852-3.351-.335-7.75,2.307-10.233-2.455,9.931-6.718,17.206-7.989,25.748-4.207,7.938,3.514,12.487,9.918,13.658,18.381.537,3.872-.166,7.911-.246,11.875-.116,5.732,2.517,8.207,8.355,8.151,11.24-.107,20.677-4.357,28.735-12.068.661-.632,2.7-.891,3.178-.41a5.476,5.476,0,0,1,1.154,3.574c.012,6.687-8.322,8.46-8.859,14.991-.5,6.1,4.463,11.244,2.805,17.476-.343,1.288-.757,2.567-.972,3.878-2.318,14.091-9.288,26.265-16.053,38.484a12.978,12.978,0,0,1-5.59,5.46c-10.984,4.738-21.982,9.562-33.313,13.345-10.015,3.343-18.558-4.226-16.993-14.871.607-4.13,1.8-7.81-1.532-11.009-3.661-3.518-8.222-4.224-12.939-2.843-4.159,1.217-7.143,4.026-6.748,8.644.336,3.927,1.863,7.742,2.338,11.67,1.13,9.339-6.206,15.461-15.032,12.365-3.686-1.293-6.911-3.858-10.433-5.674-2.94-1.515-5.9-3.216-9.051-4.042-3.488-.912-6.352.935-8.535,3.757a8.3,8.3,0,0,0-1.092,9.3,12.454,12.454,0,0,0,7.148,6.618c3.756,1.287,7.858,1.648,11.506,3.149,3.756,1.546,6.94,4.257,6.852,8.911-.087,4.6-3.306,7.213-7,8.922-3.6,1.665-7.617,2.4-11.252,4-5.962,2.624-7.682,7.464-4.974,12.9,4.666,9.37,10.68,10.343,18.662,2.957,1.955-1.807,3.573-4.015,5.664-5.629a43.572,43.572,0,0,1,8.333-5.265c4.663-2.131,9.564.892,10.176,6.075.231,1.952-.231,3.977-.106,5.952C99.8,319,102.7,322.783,108.6,322.479c5.393-.278,8.356-3.578,9.618-10.758a11.4,11.4,0,0,0,.1-1.993c-.035-12.468,6.242-21.029,15.986-28.276a69.806,69.806,0,0,1,23.1-11.243,263.7,263.7,0,0,0,26.357-9.113c6.438-2.6,10.451-7.7,12.7-14.524,3.154-9.581,4.517-19.391,5.455-29.342a4.183,4.183,0,0,1,2.374-2.741c.945-.375,2.913-.132,3.385.556,5.3,7.719,10.246,16.105,11.491,25.179,2.889,21.056,4.6,42.293,6.187,63.5,2.208,29.588-1.2,59.5,4.928,88.906.173.831-2.663,2.289-4.1,3.459a51.724,51.724,0,0,1-5.208-19.158c-.679-8.2-5.452-13.486-12.087-17.173-5.2-2.888-10.865-4.923-16.316-7.354-8.65-3.857-16.97-1.8-25.109,1.6a10.85,10.85,0,0,0-7,8.984c-1.761,14.114-1.912,27.879,8.08,39.652a118.8,118.8,0,0,1,7,9.709c2.222,3.23,6.337,6.871,3.965,10.533-3.353,5.177-6.227-1.54-9.6-1.94-5.923-.7-11.788-1.9-17.716-2.542-8.722-.937-14.755-5.646-18.846-13.028-2.243-4.049-3.637-8.587-6.043-12.52-2.546-4.163-9.456-5.023-14.384-2.07-3.784,2.268-5.44,5.771-4.008,10.149,1.235,3.772,3.2,7.344,4.105,11.177a8.023,8.023,0,0,1-9.074,9.968c-5.181-.665-10.179-2.71-15.357-3.46-5.459-.79-11.259,5.021-11.838,11.147-.469,4.961,4.405,10.442,9.827,10.577,2.584.064,5.176-.937,7.786-1.109,4.611-.3,9.3-.877,13.844-.349,5.483.637,8.244,6.991,5.835,12.248a19.526,19.526,0,0,1-2.164,3.347c-1.951,2.637-4.595,5.277-1.964,8.714,2.378,3.107,9.62,4.651,12.876,2.751a29.319,29.319,0,0,0,5.972-5.064c11.689-12.041,25.473-18.754,42.666-17.88,5.946.3,11.95-.661,17.932-.938,7.467-.346,14.311-3.034,21.085-5.752,5.064-2.033,6.075-6.818,2.716-11.479-3.87-5.369-8.609-10.221-11.787-15.953-4.04-7.286-8.595-13.017-17.055-15.582-4.848-1.47-9.728-4.246-11.43-9.968,5.43-4.973,9.086,1.084,13.336,2.4,12.057,3.728,23.845,8.25,34.66,14.938,16.6,16.9,32.829,34.181,50.874,49.6A4.179,4.179,0,0,0,275.861,454.194ZM404.444,253.473a7,7,0,0,1-6.765-4.226,9.523,9.523,0,0,1,.159-9.518c2.726-4.551,6.082-8.731,8.733-13.321,3.613-6.254,2.094-12.489-3.347-15.517-5.289-2.944-11.666-.917-15.371,4.917a24.173,24.173,0,0,0-4.124,13.118c-.007,3.276.448,6.816-1.978,9.481-1.217,1.337-3.079,2.806-4.695,2.861-1.673.057-3.684-1.214-5.053-2.45-3.961-3.576-1.959-8.811-3.248-13.169a8.408,8.408,0,0,0-7.064-6.176c-7.7-1.29-15.754,6.006-13.38,13.038,3.068,9.087,3.556,19.687,13.29,25.709,5.486,3.393,7.132,9.26,6.648,15.68-.45,5.972-.833,11.9-3.317,17.517-4.559,10.3-8.905,20.7-13.444,31-2.134,4.847-4.676,9.52-6.687,14.414-.711,1.731-.646,4.27,1.511,5.137a10.339,10.339,0,0,0,5.592.294c3.576-.715,5.615-3.619,6.949-6.628,3.227-7.277,5.953-14.775,9.1-22.088,8.486-19.7,20.6-35.553,43.21-40.084a27.659,27.659,0,0,0,5.683-1.761c5.479-2.414,7.658-7.035,8.105-12.7.473-6.011-4.135-10.517-9.877-9.2C411.247,250.675,407.6,252.355,404.444,253.473Z"/><path class="b" d="M226.173,396.086c1.433-1.166,4.269-2.624,4.1-3.455-6.131-29.407-2.72-59.318-4.928-88.906-1.583-21.208-3.3-42.445-6.187-63.5-1.245-9.074-6.195-17.46-11.491-25.179-.472-.688-2.44-.931-3.385-.556a4.183,4.183,0,0,0-2.374,2.741c-.938,9.951-2.3,19.761-5.455,29.342-2.246,6.822-6.259,11.925-12.7,14.524a263.7,263.7,0,0,1-26.357,9.113A69.806,69.806,0,0,0,134.3,281.452c-9.744,7.247-16.021,15.808-15.986,28.276a11.4,11.4,0,0,1-.1,1.993c-1.262,7.18-4.225,10.48-9.618,10.758-5.9.3-8.8-3.482-9.359-12.433-.125-1.975.337-4,.106-5.952-.612-5.183-5.513-8.206-10.176-6.075a43.572,43.572,0,0,0-8.333,5.265c-2.091,1.614-3.709,3.822-5.664,5.629-7.982,7.386-14,6.413-18.662-2.957-2.708-5.439-.988-10.279,4.974-12.9,3.635-1.6,7.655-2.338,11.252-4,3.691-1.709,6.91-4.325,7-8.922.088-4.654-3.1-7.365-6.852-8.911-3.648-1.5-7.75-1.862-11.506-3.149a12.454,12.454,0,0,1-7.148-6.618,8.3,8.3,0,0,1,1.092-9.3c2.183-2.822,5.047-4.669,8.535-3.757,3.156.826,6.111,2.527,9.051,4.042,3.522,1.816,6.747,4.381,10.433,5.674,8.826,3.1,16.162-3.026,15.032-12.365-.475-3.928-2-7.743-2.338-11.67-.395-4.618,2.589-7.427,6.748-8.644,4.717-1.381,9.278-.675,12.939,2.843,3.329,3.2,2.139,6.879,1.532,11.009-1.565,10.645,6.978,18.214,16.993,14.871,11.331-3.783,22.329-8.607,33.313-13.345a12.978,12.978,0,0,0,5.59-5.46c6.765-12.219,13.735-24.393,16.053-38.484.215-1.311.629-2.59.972-3.878,1.658-6.232-3.307-11.377-2.805-17.476.537-6.531,8.871-8.3,8.859-14.991a5.476,5.476,0,0,0-1.154-3.574c-.476-.481-2.517-.222-3.178.41-8.058,7.711-17.5,11.961-28.735,12.068-5.838.056-8.471-2.419-8.355-8.151.08-3.964.783-8,.246-11.875-1.171-8.463-5.72-14.867-13.658-18.381-8.542-3.782-15.817-2.511-25.748,4.207,2.483,4.762,6.882,2.12,10.233,2.455,14.451,1.447,19.47,6.03,21.855,20.852.421,2.62.521,5.291.765,7.9-17.942,9.124-25.354,8.348-38.481-4.97a79.359,79.359,0,0,0-15.755-12.106c-3.407-2.064-6.473-4.685-9.711-7.03C70.716,132.308,64.926,118.6,68.66,102.161c3.892-17.135,15.8-27.284,32.779-31.254a45.225,45.225,0,0,1,11.931-.93c8.7.341,17.051-.241,25.565-2.956,6.8-2.169,14.431-2.589,21.27,1.736,6.168,3.9,13.878,7.155,14.015,15.423.108,6.523-18.585,15.745-26.494,13.571C142.035,96.188,136.111,94.394,132.5,89c-1.472-2.2-3.022-4.125-5.877-4.42-.372,1.216-1.415,2.778-1,3.545,7.3,13.424,25.249,21.23,38.865,17.057,6.8-2.084,11.041-6.814,14.421-12.942,2.37-4.3,5.781-4.619,9.88-2.191,13.715,8.121,17.616,16.838,15.587,34.662-.237,2.079.472,4.118,2.517,4.764a3.728,3.728,0,0,0,4.7-2.4c.458-1.187.01-2.7.377-3.952,2.36-8.024,4.359-9.287,10.828-6.423a93.557,93.557,0,0,1,12.339,6.482c6.264,3.985,12.6,6.771,20.343,6.983,10.268.282,18.576,6.692,27.74,10.485,7.8,3.229,14.069,10.071,23.7,10.519,1.554-6.841,2.981-13.295,4.5-19.729a29.249,29.249,0,0,0-.51-15.79c-2.416-7.614-7.15-12.69-15.615-13.228-3.318-.211-6.671-.091-9.959-.506a7.146,7.146,0,0,1-6.533-6.445c-.466-3.608,1.683-6.574,4.659-8.176a13.078,13.078,0,0,1,7.583-1.451c3.9.572,7.6,2.424,11.483,3.269,7.491,1.631,13.483-2.82,13.6-10.38.092-5.963-.914-11.94-.914-17.911,0-4.985,4.078-8.461,9.163-8.586,4.73-.116,9.345,3.691,9.378,8.316.033,4.642-1.147,9.333-.792,13.925.8,10.287,11.325,16.017,20.609,11.305,3.516-1.784,6.445-4.688,9.822-6.792a9.858,9.858,0,0,1,9.548-.72c2.493,1.117,4.641,3.021,4.516,5.895a7.671,7.671,0,0,1-2.324,5.212c-2.579,2.022-5.884,3.086-8.643,4.918q-13.221,8.778-2.365,19.458c2.346,2.317,5.312,4.024,7.563,6.416,1.859,1.975,2.875,4.911.924,7.227-1.6,1.9-4.009,3.825-6.328,4.24-2.407.432-5.191-.765-7.714-1.557-3.79-1.191-7.4-3.124-11.257-3.9-9.728-1.957-17.135,2.977-18.9,12.934-1.04,5.854-.56,11.96-1.228,17.9-2.092,18.585-7.415,21.337-25.143,14.312-7.577-3-13.862-7.786-20.563-12.07-.748-.478-2.686.048-3.5.762s-1.625,2.648-1.223,3.37c2.571,4.611,5.445,9.054,8.284,13.512,1.788,2.808,3.614,5.568,2.63,9.342-4.861.482-9.921.818-14.927,1.534-3.914.56-5.452,3.989-3.531,7.257,2.08,3.539,4.609,6.808,9.1,6.8,4.744,0,6.649-3.665,8.226-7.5.725-1.762,1.738-3.406,3.072-5.972,8,9.868,14.46,19.663,17.414,31.476l-4.951,4.5c-4.487-1.87-6.744-6.026-9.9-9.328-7.805-8.158-16.981-6.162-21.717,4.34C264.89,231.678,269,249.685,279.4,258.6c8.692,7.447,8.415,9.4-2.025,13.049-3.068,1.073-6.261,1.791-9.4,2.672-3.053-3.732.451-7.5-.091-11.354-2.235-15.892-11.98-21.511-26.98-15a6.759,6.759,0,0,0-3.238,4.369c-.444,2.24,1.727,3.46,3.661,3.787a13.847,13.847,0,0,0,5.8-.232c3.848-1.056,6.551.261,8.048,3.646,2.062,4.663-.885,7.668-4.395,9.755-3.38,2.01-7.263,3.158-10.768,4.985a3.591,3.591,0,0,0-1.406,3.117c.256,1.1,1.493,2.637,2.494,2.8,5.008.793,10.078,1.2,15.126,1.737,1.012.823,2.963,1.743,2.89,2.454-.607,5.914-1.586,11.789-2.484,17.885-5.362.262-10.2,5.317-16.523,3.041-1.9-.684-4.5-.5-5.06,1.548-.431,1.569.356,4.479,1.6,5.327,5.285,3.6,5.93,6.323,2.387,12.612-6.017,10.681-4.478,22.484.956,33.635-.957-6.5.131-12.951.119-19.43-.015-7.324,5.874-10.247,12.167-6.6,2.281,1.321,4.237,3.283,6.615,4.331,1.764.777,4.28.292,4.583-2.082,1.147-8.987-3.381-15.315-11.97-16.861-2.505-.451-5.191-.056-6.9-2.56a44.958,44.958,0,0,1,3.944-4.46c8.517-7.461,8.561-7.451,16.145-.61,2.964,2.674,5.725,5.583,8.782,8.141,1.446,1.211,3.916,3.04,4.99,2.549,6.143-2.8,13.335.254,19.114-3.655,2.767-1.872,5.34-4.124,6.1-7.543.408-1.829.7-4.15-.076-5.672-1.369-2.673-3.024-.523-4.414.545a31.383,31.383,0,0,1-12.388,6.228,10.612,10.612,0,0,1-9.307-2.2c-5.176-4.057-8.848-14.884-6.6-19.62,3.683-7.76,13.729-12.914,21.281-11.071a12.4,12.4,0,0,1,8,5.425c1.039,1.645,2.006,1.979,2.814.531a7.711,7.711,0,0,0,1.106-3.552c-.014-8-8.683-10.588-11.871-16.984,8.206-3.458,13.017-8.117,12.463-16.938-.373-5.936.186-11.931.328-17.9l4.173-3.356c9.146,18.305,10.043,38.111,10.471,57.983.128,5.969-.223,11.949-.041,17.914.07,2.3-.657,5.092,2.045,6.777,4.624-1.7,4.407-6.006,5.088-9.679,1.688-9.108,2.856-18.325,4.85-27.362,1.58-7.157,7.691-10.985,14.834-10.282,7.181.707,12.587,5.5,13.47,12.387,1.143,8.9-1.537,17.318-5.108,25.124-5.8,12.671-12.488,24.938-18.988,37.278-3.7,7.029-7.907,13.792-11.64,20.805-4.358,8.186-4.028,16.2.046,24.734,12.355,25.871,41.144,32.58,64.417,27.644,7.733-1.64,15.173-4.662,22.747-7.053l4.025,3.677c-2.5,11.664-2.486,11.639,6.588,17.871a13.521,13.521,0,0,1,2.316,2.73q-.867,1.329-1.711,2.674c-6.286-.808-10.47,5.1-16.725,5.376-.764-1.817-1.5-3.526-2.2-5.25-5.45-13.38-19.32-11.886-28.213-5.739-1.965,1.359-3.408,4.021-4.21,6.383-1.2,3.522-3.3,3.382-5.794,2.163-8.9-4.338-16.634-10.518-24.926-15.8-12.431-7.91-18.608-4.318-21.974,10.032-1.813,7.728-.765,14.165,3.745,20.492,1.637,2.3,5.286,4.547,1.983,8.211-4.484,1.123-7.683-1.252-10.6-4.07-5.253-5.081-10.161-10.543-15.641-15.359-5.706-5.014-14.854-5.027-22.375.142-5.182,3.561-1.649,8.379-.491,12.685l-3.454,2.7c-18.035-15.43-34.269-32.706-50.864-49.611Zm5.237-230.5c-4.312-3.007-8.506-6.207-12.968-8.973-5.527-3.427-9.392-2.267-13.122,3.74-1.008,1.623-1.359,4.114.9,4.775,2.434.711,5.223.091,7.8.445,3.516.482,6.441,1.972,5.982,6.259-.388,3.629-2.49,5.7-6.081,6.878-3.158,1.031-6.018-2.746-9.419.155,2.338,6.032,6.932,8.751,13.145,10.065,7.644,1.616,8.18,3.028,4.633,9.62-1.241,2.307-3.229,4.208-4.517,6.5-.462.82-.211,3,.306,3.234a13.131,13.131,0,0,0,5.544,1.2c3.316-.1,3.488-3.214,4.768-5.438,3.675-6.39,7.094-7.906,12.446-6.166,5.646,1.834,9.31,6.027,9.292,11.48a148.073,148.073,0,0,1-1.016,15.613c-.444,4.051-5.354,6.51-9.123,4.394-2.784-1.564-4.906-4.3-7.677-5.894a3.485,3.485,0,0,0-4.923,1.741c-.456,1.042-.663,2.822-.083,3.588a24.947,24.947,0,0,0,18.509,10.19c11.027.988,14.024-1.316,15.366-12.389a102.843,102.843,0,0,1,1.883-11.69c1.344-5.591-.193-10.259-3.128-15.02-6.082-9.865-13.81-15.952-26.171-13.488-1.787.356-3.7.049-6.808.049,2.34-7.465,7.241-13.708,4.134-21.046,1.792-.7,3.093-.938,4.82.91,4.472,4.786,9.034,9.653,14.277,13.513,6.628,4.878,17.057.834,19.1-6.98.671-2.562.008-5.592-2.384-7.008-1.281-.758-3.563.05-5.356.362-.511.089-.8,1.083-1.35,1.379-7.334,3.979-11.769,2.315-12.349-4.875-.258-3.208.739-6.512.525-9.73a6.844,6.844,0,0,0-2.568-4.8c-2.446-1.516-5.046-.265-7.186,1.45-3.483,2.789-3.746,6.731-3.623,10.738C235.079,163.044,235.09,165.545,231.41,165.584ZM291.3,401.672c.767,9.2-4.037,13.99-12.365,12.341a19.9,19.9,0,0,1-5.473-2.139c-3.463-1.876-6.694-4.209-10.239-5.9-4.2-2-5.615-5.366-5.524-9.577.1-4.524,2.966-7.5,6.821-8.907,2.99-1.089,6.458-.806,9.68-1.335a35.654,35.654,0,0,0,7.489-1.858c.855-.342,1.618-2.15,1.534-3.22-.071-.907-1.447-2.469-2.2-2.443a127.668,127.668,0,0,0-15.638,1.167c-14.8,2.346-18.822,9.244-14.493,23.909,1.567,5.307,3.7,9.767,9.542,11.759a23.131,23.131,0,0,1,8.469,5.057c7.25,7.059,15.7,6.319,24.271,4.169,9.12-2.288,13.194-7.277,14.04-16.875.338-3.827-1.052-7.559,1.766-11.322,6.651-8.886.84-16.244-4.242-23.007-2.508-3.337-6.911-4.06-10.5-.675-1.068,1.006-3.134,2.34-.506,4.6,6.851,5.883,7.124,6.786,3.034,11.164C293.144,392.449,288.091,395.339,291.3,401.672Zm-18.185-76.363c-.209,13.054-7.257,21.568-8.381,32.049-.5,4.612-4.381,6.557-8.189,7.563-3.109.821-6.569.234-9.814.693-.776.11-1.859,1.926-1.815,2.913a4.186,4.186,0,0,0,1.945,3.134c9.977,4.283,19.312,1.719,28.206-3.283,1.568-.881,3.332-2.854,3.531-4.5C280.076,351.594,282.312,339.124,273.111,325.309Zm10.716,21.785c-.068,7.829,3.044,13.4,9.328,15.6a6.063,6.063,0,0,0,5.308-1.176c.978-1.033,1.194-3.88.457-5.216-1.535-2.782-4.464-4.834-5.817-7.666a6.368,6.368,0,0,1,2.6-8.527c3.512-2.09,3.891,1.966,5.678,3.35a4.521,4.521,0,0,0,3.425.951,3.8,3.8,0,0,0,1.98-2.7,15.349,15.349,0,0,0-2.655-11.184c-3.359-4.949-8.889-5.359-13.4-1.268C285.36,334.113,284.448,340.5,283.827,347.094ZM233.378,136.063c-.3-2.718-1.309-5.724-4.287-5.215-3.527.6-4.837,3.954-4.753,7.467a3.62,3.62,0,0,0,3.4,3.847C230.974,142.606,233.383,140.018,233.378,136.063Z"/><path class="b" d="M220.873,400.661c-10.815-6.688-22.6-11.21-34.66-14.938-4.25-1.314-7.906-7.371-13.336-2.4,1.7,5.722,6.582,8.5,11.43,9.968,8.46,2.565,13.015,8.3,17.055,15.582,3.178,5.732,7.917,10.584,11.787,15.953,3.359,4.661,2.348,9.446-2.716,11.479-6.774,2.718-13.618,5.406-21.085,5.752-5.982.277-11.986,1.24-17.932.938-17.193-.874-30.977,5.839-42.666,17.88a29.319,29.319,0,0,1-5.972,5.064c-3.256,1.9-10.5.356-12.876-2.751-2.631-3.437.013-6.077,1.964-8.714a19.526,19.526,0,0,0,2.164-3.347c2.409-5.257-.352-11.611-5.835-12.248-4.542-.528-9.233.046-13.844.349-2.61.172-5.2,1.173-7.786,1.109-5.422-.135-10.3-5.616-9.827-10.577.579-6.126,6.379-11.937,11.838-11.147,5.178.75,10.176,2.8,15.357,3.46a8.023,8.023,0,0,0,9.074-9.968c-.909-3.833-2.87-7.405-4.105-11.177-1.432-4.378.224-7.881,4.008-10.149,4.928-2.953,11.838-2.093,14.384,2.07,2.406,3.933,3.8,8.471,6.043,12.52,4.091,7.382,10.124,12.091,18.846,13.028,5.928.637,11.793,1.838,17.716,2.542,3.372.4,6.246,7.117,9.6,1.94,2.372-3.662-1.743-7.3-3.965-10.533a118.8,118.8,0,0,0-7-9.709c-9.992-11.773-9.841-25.538-8.08-39.652a10.85,10.85,0,0,1,7-8.984c8.139-3.4,16.459-5.455,25.109-1.6,5.451,2.431,11.12,4.466,16.316,7.354,6.635,3.687,11.408,8.974,12.087,17.173a51.668,51.668,0,0,0,5.21,19.156Z"/><path class="b" d="M435.439,373.442A361.954,361.954,0,0,0,448.9,303.359a287.276,287.276,0,0,1,13.921-64.05,38.713,38.713,0,0,1,6.565-12.1c2.361-2.873,5.983-5.613,10.371-3.215,3.19,1.744,4.421,4.875,4.306,8.374a32.575,32.575,0,0,1-1.007,7.848c-7.626,26.618-7.867,53.371-4.321,80.794,3.156,24.41.8,48.972-6.1,72.85-1.291,4.467-2.92,8.864-3.833,13.406-4.652,23.135-19.631,38.38-38.42,50.767a5.272,5.272,0,0,1-1.949.35l-2.946-3.015c8.039-13.4,7.994-13.82-2.872-27.066q.844-1.345,1.711-2.674c2.482.761,5.181,1.131,7.4,2.365,4.7,2.616,8.8,1.916,12.916-1.14,4.635-3.435,4-7.913,2.66-12.52-1.2-4.113-5.435-7.617-2.636-12.537a15.857,15.857,0,0,1,3.771-.181c5.285,1.078,9.59-.511,11.182-5.657,1.9-6.143,5.123-12.6,0-18.895-1.819-2.238-4.271-2.895-6.952-3.228-4.894-.608-9.036,1.619-13.3,3.416Zm21.676-17.125a11.216,11.216,0,0,0-1.553-.383c-2.519-.332-5.361-1.288-6.5,2.18-.91,2.77.4,5.165,1.9,7.375,2.015,2.964,4.522,4.808,8.292,3.007,5.146-2.458,7.927-6.94,6.447-10.77-.429-1.11-1.66-2.647-2.571-2.681C461.255,354.976,459.345,355.789,457.115,356.317Zm7.119-18.742c-.641-2.074-1.614-3.539-3.887-3.557-3.284-.026-4.7,1.848-4.368,4.838a3.612,3.612,0,0,0,3.769,3.418C463.117,342.34,464.117,340.313,464.234,337.575Z"/><path class="b" d="M404.444,253.473c3.156-1.118,6.8-2.8,10.633-3.675,5.742-1.315,10.35,3.191,9.877,9.2-.447,5.67-2.626,10.291-8.105,12.7a27.659,27.659,0,0,1-5.683,1.761c-22.614,4.531-34.724,20.383-43.21,40.084-3.15,7.313-5.876,14.811-9.1,22.088-1.334,3.009-3.373,5.913-6.949,6.628a10.339,10.339,0,0,1-5.592-.294c-2.157-.867-2.222-3.406-1.511-5.137,2.011-4.894,4.553-9.567,6.687-14.414,4.539-10.309,8.885-20.7,13.444-31,2.484-5.613,2.867-11.545,3.317-17.517.484-6.42-1.162-12.287-6.648-15.68-9.734-6.022-10.222-16.622-13.29-25.709-2.374-7.032,5.682-14.328,13.38-13.038a8.408,8.408,0,0,1,7.064,6.176c1.289,4.358-.713,9.593,3.248,13.169,1.369,1.236,3.38,2.507,5.053,2.45,1.616-.055,3.478-1.524,4.695-2.861,2.426-2.665,1.971-6.205,1.978-9.481a24.173,24.173,0,0,1,4.124-13.118c3.7-5.834,10.082-7.861,15.371-4.917,5.441,3.028,6.96,9.263,3.347,15.517-2.651,4.59-6.007,8.77-8.733,13.321a9.523,9.523,0,0,0-.159,9.518A7,7,0,0,0,404.444,253.473Z"/><path class="b" d="M420.924,463.054c-.837,1-1.469,2.419-2.539,2.948-27.556,13.61-56.857,19.354-87.179,15.341-17.752-2.35-34.913-8.623-48.392-21.753l2.73-3.653c2.622-.927,5.066-2.052,5.7-5.17l2.895-3.3c5.2,3.533,11.746,4.58,14.581,12.129,1.593,4.241,8.815,5.318,13.883,4.984,1.954-.129,3.635-4.41,5.44-6.8,1.2.184,2.974-.079,3.52.618,9.368,11.975,21.4,10.856,34.09,7.333,4.5-1.25,6.564-4.157,6.687-8.508.166-5.862.041-11.732.041-17.6,6.8.531,5.307,11.852,12.256,10.418,9.794-2.022,6.858,7.727,11.206,10.31a19.639,19.639,0,0,0,7.224,2.689c5.375.7,10.4-1.11,15.3-3.171Z"/><path class="b" d="M421.361,391.79l14.078-18.347,3.929,3.812c-3.111,3.878-3.658,8.164-2.527,12.957s-2.138,5.22-5.692,5.144c-1.967-.042-3.937.019-5.9.033Z"/><path class="b" d="M411.4,401.353l6.5-5.5q1.2,1.263,2.452,2.467c-.336,3.193-2.859,4.783-4.923,6.71Z"/><path class="b" d="M282.814,459.59c-2.9-1.047-5.932-1.927-6.953-5.4l2.591-3.283,7.092,5.026Z"/><path class="b" d="M428.431,458.387c-1.323,3.457-4.431,4.037-7.51,4.663l-2.555-3.178,7.119-4.5Z"/><path class="b" d="M275.861,454.194a4.187,4.187,0,0,1-4.119-3.926l3.449-2.692,3.261,3.335Z"/><path class="b" d="M417.891,395.853q1.737-2.031,3.471-4.062l3.881,3.6a4.8,4.8,0,0,1-4.9,2.931Q419.088,397.116,417.891,395.853Z"/><path class="b" d="M307.021,219.839q1.092,2.622,2.182,5.244l-4.172,3.356-2.961-4.1Z"/><path class="a" d="M302.07,224.338l2.961,4.1c-.142,5.969-.7,11.964-.328,17.9.554,8.821-4.257,13.48-12.463,16.938,3.188,6.4,11.857,8.986,11.871,16.984a7.711,7.711,0,0,1-1.106,3.552c-.808,1.448-1.775,1.114-2.814-.531a12.4,12.4,0,0,0-8-5.425c-7.552-1.843-17.6,3.311-21.281,11.071-2.249,4.736,1.423,15.563,6.6,19.62a10.612,10.612,0,0,0,9.307,2.2,31.383,31.383,0,0,0,12.388-6.228c1.39-1.068,3.045-3.218,4.414-.545.78,1.522.484,3.843.076,5.672-.763,3.419-3.336,5.671-6.1,7.543-5.779,3.909-12.971.852-19.114,3.655-1.074.491-3.544-1.338-4.99-2.549-3.057-2.558-5.818-5.467-8.782-8.141-7.584-6.841-7.628-6.851-16.145.61a44.958,44.958,0,0,0-3.944,4.46c1.705,2.5,4.391,2.109,6.9,2.56,8.589,1.546,13.117,7.874,11.97,16.861-.3,2.374-2.819,2.859-4.583,2.082-2.378-1.048-4.334-3.01-6.615-4.331-6.293-3.645-12.182-.722-12.167,6.6.012,6.479-1.076,12.925-.119,19.43-5.434-11.151-6.973-22.954-.956-33.635,3.543-6.289,2.9-9.012-2.387-12.612-1.245-.848-2.032-3.758-1.6-5.327.565-2.052,3.161-2.232,5.06-1.548,6.322,2.276,11.161-2.779,16.523-3.041.9-6.1,1.877-11.971,2.484-17.885.073-.711-1.878-1.631-2.89-2.454l-.3.165c1.15,1.086,2.17,3.109,4.036,1.247a62.721,62.721,0,0,0,4.374-5.375l-.431.327c2.5-.449,4.426-1.457,4.391-4.419l-.318.444c3.136-.881,6.329-1.6,9.4-2.672,10.44-3.651,10.717-5.6,2.025-13.049-10.4-8.912-14.509-26.919-8.948-39.247,4.736-10.5,13.912-12.5,21.717-4.34C295.326,218.312,297.583,222.468,302.07,224.338Zm-4.983,16.4c0-2.869.531-4.555-.086-5.429-4.022-5.7-8.136-11.348-12.647-16.652-.694-.816-3.676-.183-4.7,2.1-3.619,8.062-.815,15.455,2.529,22.634,2.173,4.664,8.205,7.7,11.162,6.127C297.6,247.253,296.871,242.983,297.087,240.735Z"/><path class="a" d="M425.485,455.372l-7.119,4.5c-4.9,2.06-9.923,3.869-15.3,3.17a19.639,19.639,0,0,1-7.224-2.689c-4.348-2.583-1.412-12.332-11.206-10.31-6.949,1.434-5.452-9.887-12.256-10.418,0,5.872.125,11.742-.041,17.6-.123,4.351-2.183,7.258-6.687,8.508-12.689,3.523-24.722,4.642-34.09-7.333-.546-.7-2.318-.434-3.522-.619l.186.354c.645-3.576.669-6.519-4.379-4.3l.447.34c3.3-3.664-.346-5.913-1.983-8.211-4.51-6.327-5.558-12.764-3.745-20.492,3.366-14.35,9.543-17.942,21.974-10.032,8.292,5.277,16.027,11.457,24.926,15.8,2.5,1.219,4.6,1.359,5.794-2.163.8-2.362,2.245-5.024,4.21-6.383,8.893-6.147,22.763-7.641,28.213,5.739.7,1.724,1.439,3.433,2.2,5.25,6.255-.279,10.439-6.184,16.725-5.376C433.479,441.552,433.524,441.971,425.485,455.372Zm-92.439-33.731c-2.866.629-4.851,2.155-5.472,5-2.631,12.049,9.618,28.793,22.038,29.828,2.491.207,5.183-.613,7.617-1.445a7.972,7.972,0,0,0,4.967-9.49c-.538-1.875-.96-4.249-2.3-5.351-7.548-6.217-15.319-12.169-23.133-18.052C335.871,421.456,334.232,421.772,333.046,421.641Zm71.43,27.136c12.417,1.2,13.422.423,13.575-9.714Zm-18.848-13.023c2.868.118,6.412-3.294,5.989-6.023-.286-1.854-1.344-3.45-3.65-3.5-3.294-.067-6.506.152-6.938,4.381C380.7,433.867,383.593,434.537,385.628,435.754Z"/><path class="a" d="M231.034,165.377c3.159,7.366-1.742,13.609-4.082,21.074,3.1,0,5.021.307,6.808-.049,12.361-2.464,20.089,3.623,26.171,13.488,2.935,4.761,4.472,9.429,3.128,15.02a102.843,102.843,0,0,0-1.883,11.69c-1.342,11.073-4.339,13.377-15.366,12.389A24.947,24.947,0,0,1,227.3,228.8c-.58-.766-.373-2.546.083-3.588a3.485,3.485,0,0,1,4.923-1.741c2.771,1.6,4.893,4.33,7.677,5.894,3.769,2.116,8.679-.343,9.123-4.394a148.073,148.073,0,0,0,1.016-15.613c.018-5.453-3.646-9.646-9.292-11.48-5.352-1.74-8.771-.224-12.446,6.166-1.28,2.224-1.452,5.333-4.768,5.438a13.131,13.131,0,0,1-5.544-1.2c-.517-.23-.768-2.414-.306-3.234,1.288-2.288,3.276-4.189,4.517-6.5,3.547-6.592,3.011-8-4.633-9.62-6.213-1.314-10.807-4.033-13.145-10.065,3.4-2.9,6.261.876,9.419-.155,3.591-1.173,5.693-3.249,6.081-6.878.459-4.287-2.466-5.777-5.982-6.259-2.58-.354-5.369.266-7.8-.445-2.26-.661-1.909-3.152-.9-4.775,3.73-6.007,7.595-7.167,13.122-3.74,4.462,2.766,8.656,5.966,12.968,8.973Z"/><path class="a" d="M291.3,401.672c-3.2-6.333,1.848-9.223,5.462-13.092,4.09-4.378,3.817-5.281-3.034-11.164-2.628-2.256-.562-3.59.506-4.6,3.592-3.385,8-2.662,10.5.675,5.082,6.763,10.893,14.121,4.242,23.007-2.818,3.763-1.428,7.5-1.766,11.322-.846,9.6-4.92,14.587-14.04,16.875-8.57,2.15-17.021,2.89-24.271-4.169a23.131,23.131,0,0,0-8.469-5.057c-5.842-1.992-7.975-6.452-9.542-11.759-4.329-14.665-.307-21.563,14.493-23.909a127.668,127.668,0,0,1,15.638-1.167c.754-.026,2.13,1.536,2.2,2.443.084,1.07-.679,2.878-1.534,3.22a35.654,35.654,0,0,1-7.489,1.858c-3.222.529-6.69.246-9.68,1.335-3.855,1.4-6.723,4.383-6.821,8.907-.091,4.211,1.327,7.579,5.524,9.577,3.545,1.687,6.776,4.02,10.239,5.9a19.9,19.9,0,0,0,5.473,2.139C287.259,415.662,292.063,410.877,291.3,401.672Z"/><path class="a" d="M420.343,398.32a4.8,4.8,0,0,0,4.9-2.931c1.969-.014,3.939-.075,5.906-.033,3.554.076,6.82-.365,5.692-5.144s-.584-9.079,2.527-12.957c4.263-1.8,8.405-4.024,13.3-3.416,2.681.333,5.133.99,6.952,3.228,5.121,6.3,1.9,12.752,0,18.895-1.592,5.146-5.9,6.735-11.182,5.657a15.857,15.857,0,0,0-3.771.181c-2.8,4.92,1.44,8.424,2.636,12.537,1.339,4.607,1.975,9.085-2.66,12.52-4.121,3.056-8.211,3.756-12.916,1.14-2.219-1.234-4.918-1.6-7.4-2.365a13.5,13.5,0,0,0-2.316-2.731c-9.074-6.232-9.091-6.207-6.588-17.871C417.484,403.1,420.007,401.513,420.343,398.32Zm7.348,11.342c-1.032.488-2.546.732-3.05,1.577a3.751,3.751,0,0,0,.229,3.37A7.4,7.4,0,0,0,431.388,418a4.437,4.437,0,0,0,3.163-1.457,3.668,3.668,0,0,0-.4-3.274A7.765,7.765,0,0,0,427.691,409.662Zm23.675-24.711c-.754-.7-1.56-2.021-2.251-1.964-1.884.159-3.7,1.14-3.2,3.461a3.346,3.346,0,0,0,2.395,2.02C450.594,388.658,451.256,386.932,451.366,384.951Z"/><path class="a" d="M278.452,450.911l-3.261-3.335c-1.158-4.306-4.691-9.124.491-12.685,7.521-5.169,16.669-5.156,22.375-.142,5.48,4.816,10.388,10.278,15.641,15.359,2.915,2.818,6.114,5.193,10.6,4.07l-.447-.34c-.027,2.945-.129,5.968,4.379,4.3l-.186-.354c-1.8,2.39-3.484,6.671-5.438,6.8-5.068.334-12.29-.743-13.883-4.984-2.835-7.549-9.383-8.6-14.583-12.125-1.471-.71-3.824-2.382-4.262-1.978-2.375,2.191-.93,3.96,1.369,5.269-.635,3.118-3.079,4.243-5.7,5.17Z"/><path class="a" d="M256.227,281.929c-5.048-.541-10.118-.944-15.126-1.737-1-.159-2.238-1.693-2.494-2.8a3.591,3.591,0,0,1,1.406-3.117c3.5-1.827,7.388-2.975,10.768-4.985,3.51-2.087,6.457-5.092,4.395-9.755-1.5-3.385-4.2-4.7-8.048-3.646a13.847,13.847,0,0,1-5.8.232c-1.934-.327-4.1-1.547-3.661-3.787a6.759,6.759,0,0,1,3.238-4.369c15-6.516,24.745-.9,26.98,15,.542,3.852-2.962,7.622.091,11.354l.319-.445c-4.253-1.3-5.762.132-4.391,4.42l.431-.327c-5.287-2.466-7.365-1.445-8.41,4.128Z"/><path class="a" d="M273.111,325.309c9.2,13.815,6.965,26.285,5.483,38.569-.2,1.646-1.963,3.619-3.531,4.5-8.894,5-18.229,7.566-28.206,3.283a4.186,4.186,0,0,1-1.945-3.134c-.044-.987,1.039-2.8,1.815-2.913,3.245-.459,6.7.128,9.814-.693,3.808-1.006,7.694-2.951,8.189-7.563C265.854,346.877,272.9,338.363,273.111,325.309Z"/><path class="a" d="M231.41,165.584c3.68-.039,3.669-2.54,3.586-5.22-.123-4.007.14-7.949,3.623-10.738,2.14-1.715,4.74-2.966,7.186-1.45a6.844,6.844,0,0,1,2.568,4.8c.214,3.218-.783,6.522-.525,9.73.58,7.19,5.015,8.854,12.349,4.875.547-.3.839-1.29,1.35-1.379,1.793-.312,4.075-1.12,5.356-.362,2.392,1.416,3.055,4.446,2.384,7.008-2.047,7.814-12.476,11.858-19.1,6.98-5.243-3.86-9.805-8.727-14.277-13.513-1.727-1.848-3.028-1.606-4.846-.924Z"/><path class="a" d="M283.83,347.1c.618-6.593,1.53-12.982,6.9-17.844,4.514-4.091,10.044-3.681,13.4,1.268a15.349,15.349,0,0,1,2.655,11.184,3.8,3.8,0,0,1-1.98,2.7,4.521,4.521,0,0,1-3.425-.951c-1.787-1.384-2.166-5.44-5.678-3.35a6.368,6.368,0,0,0-2.6,8.527c1.353,2.832,4.282,4.884,5.817,7.666.737,1.336.521,4.183-.457,5.216a6.063,6.063,0,0,1-5.308,1.176C286.871,360.5,283.759,354.923,283.83,347.1Z"/><path class="a" d="M233.379,136.062c0,3.956-2.405,6.544-5.642,6.1a3.62,3.62,0,0,1-3.4-3.847c-.084-3.513,1.226-6.863,4.753-7.467C232.069,130.339,233.082,133.345,233.379,136.062Z"/><path class="a" d="M457.115,356.317c2.23-.528,4.14-1.341,6.018-1.272.911.034,2.142,1.571,2.571,2.681,1.48,3.83-1.3,8.312-6.447,10.77-3.77,1.8-6.277-.043-8.292-3.007-1.5-2.21-2.813-4.6-1.9-7.375,1.139-3.468,3.981-2.512,6.5-2.18A11.216,11.216,0,0,1,457.115,356.317Z"/><path class="a" d="M464.234,337.575c-.117,2.738-1.117,4.765-4.486,4.7a3.612,3.612,0,0,1-3.769-3.418c-.336-2.99,1.084-4.864,4.368-4.838C462.62,334.036,463.593,335.5,464.234,337.575Z"/><path class="b" d="M297.087,240.735c-.216,2.248.51,6.518-3.744,8.782-2.957,1.573-8.989-1.463-11.162-6.127-3.344-7.179-6.148-14.572-2.529-22.634,1.026-2.285,4.008-2.918,4.7-2.1,4.511,5.3,8.625,10.956,12.647,16.652C297.618,236.18,297.087,237.866,297.087,240.735Z"/><path class="b" d="M255.925,282.094c1.045-5.573,3.123-6.594,8.41-4.128a62.721,62.721,0,0,1-4.374,5.375C258.1,285.2,257.075,283.18,255.925,282.094Z"/><path class="b" d="M263.9,278.293c-1.371-4.288.138-5.716,4.391-4.42C268.33,276.836,266.4,277.844,263.9,278.293Z"/><path class="b" d="M333.046,421.641c1.186.131,2.825-.185,3.719.488,7.814,5.883,15.585,11.835,23.133,18.052,1.338,1.1,1.76,3.476,2.3,5.351a7.972,7.972,0,0,1-4.967,9.49c-2.434.832-5.126,1.652-7.617,1.445-12.42-1.035-24.669-17.779-22.038-29.828C328.2,423.8,330.18,422.27,333.046,421.641Z"/><path class="b" d="M404.476,448.777l13.575-9.714C417.9,449.2,416.893,449.976,404.476,448.777Z"/><path class="b" d="M385.628,435.754c-2.035-1.217-4.932-1.887-4.6-5.14.432-4.229,3.644-4.448,6.938-4.381,2.306.048,3.364,1.644,3.65,3.5C392.04,432.46,388.5,435.872,385.628,435.754Z"/><path class="b" d="M328.228,458.139c-4.508,1.667-4.406-1.356-4.379-4.3C328.9,451.62,328.873,454.563,328.228,458.139Z"/><path class="b" d="M427.691,409.662a7.765,7.765,0,0,1,6.464,3.6,3.668,3.668,0,0,1,.4,3.274A4.437,4.437,0,0,1,431.388,418a7.4,7.4,0,0,1-6.518-3.386,3.751,3.751,0,0,1-.229-3.37C425.145,410.394,426.659,410.15,427.691,409.662Z"/><path class="b" d="M451.363,384.95c-.107,1.982-.769,3.708-3.053,3.518a3.346,3.346,0,0,1-2.395-2.02c-.5-2.321,1.316-3.3,3.2-3.461C449.806,382.93,450.612,384.256,451.363,384.95Z"/><path class="b" d="M291.245,450.767c-2.3-1.309-3.744-3.078-1.369-5.269.438-.4,2.791,1.268,4.262,1.978Q292.694,449.117,291.245,450.767Z"/></svg>