<svg xmlns="http://www.w3.org/2000/svg" viewBox="0 0 543.348 543.348"><defs><style>.a{fill:#dfcf06;}.b{fill:#fcfcfb;}</style></defs><path class="a" d="M73.413,454.465c1.2,3.064-.664,4.936-2.682,6.684-8.039,6.962-16.6,13.336-22.924,22.147-1.335,1.859-4.382,2.862-6.832,3.419-1.659.377-4.08-.052-4.748-2.48a26.431,26.431,0,0,1-1.17-5.791c-.194-4.656-.141-9.324-.142-13.987q-.006-202.854.008-405.709c0-26.159-1.862-23.868,23.49-23.875q212.9-.057,425.808-.018c.666,0,1.336-.047,2,.007,6.526.541,15.123-2.814,19.074,2.521,5.214,7.041,2.472,16.729,1.837,25.281-.252,3.382-3.142,5.8-6.148,7.434-8.778,4.756-17.371,9.96-26.485,13.973-18.676,8.224-33.96,20.757-47.923,35.294-5.971,6.217-11.391,13.107-19.065,17.5q-1.743-1.677-3.487-3.351c-.949-3.15-1.215-6.753-2.956-9.379-16.685-25.179-36.585-47.315-63.486-61.859-13.43-7.261-27.719-12.517-43.67-11.615a55.026,55.026,0,0,1-27.118-5.337,71.154,71.154,0,0,0-15.006-5.162c-5.228-1.174-10.289-.277-14.032,4.655,4.745,3.185,9.284-.193,13.6,1,2.562.706,5.561,1.1,5.117,4.556a7.072,7.072,0,0,1-3.047,4.6c-6.214,3.586-13.84,4.959-18.117-1.053-4.179-5.874-7.529-3.352-11.576-1.956-7.5,2.588-3.653-6.844-8.162-7.472-5.53,3.444-11.315,6.652-16.648,10.489a9.654,9.654,0,0,0-1.906,14.115c3.242,4.13,6.99,7.864,10.515,11.773,8.555-10.377,9.13-10.673,17.318-6.721,1.6.774,3.615,2.392,3.837,3.862s-1.167,3.933-2.557,4.736c-3.368,1.946-7.221,3.039-10.7,4.815-.725.37-1.169,2.339-.892,3.335a4.411,4.411,0,0,0,2.507,2.543c3.915,1.343,7.81.5,11.728-.455,19.317-4.716,38.658-9.331,57.988-13.991a47.824,47.824,0,0,0,5.774-1.53c4.452-1.69,8.3-3.9,9.341-9.284.967-5.021,5.055-6.085,9.176-5.044,16.1,4.064,32.131,8.445,43.444,22.018q-.839,1.034-1.731,2.017c-6.2-.833-10.841-4.9-15.838-8.026a56.046,56.046,0,0,0-16.569-6.552c-7.1-1.774-10.948-.7-11.356,3.337-.57,5.653,4.145,5.755,7.631,7.278,27.215,11.891,48.09,30.25,59.45,58.327.986,2.436,2.075,5.067,3.856,6.884,2.1,2.148,4.889,1.044,7.3-.261l2.914,3.327c-3.867,7.048-9.527,12.55-15.353,17.935-24.717,22.846-49.355,45.777-74.166,68.521-2.768,2.537-3.8,5.142-3.371,8.626l.3-.255c-1.015.695-2.5,2.22-2.97,1.953a110.03,110.03,0,0,1-11.66-7.39c-23.57-17.607-64.617-.671-65.812,32.984-.258,7.259-.044,14.554.347,21.811.43,8,.627,7.994,11.932,6.626.909,2.988-.918,4.857-2.87,6.5-7.409,6.243-14.779,12.542-22.385,18.539-5.17,4.078-9.973,8.218-10.919,15.232l.471-.28c-3.012,3.259-6.129,1.5-8.64-.367a35.315,35.315,0,0,0-22.014-7.21c-18.583.054-27.627,10.831-23.962,29.131,1.2,5.983,2.446,6.467,11.69,4.536l3.151,2.663c-5.107,6.284-7.853,13.7-10.357,21.263-.976,2.945-4.162,5.85-.57,8.8,2.449,2.01,4.841-.677,7.259-.955,12.637-1.457,19.235-10.36,26.032-19.6,2.31-3.143-2.011-8.2,4.154-9.968,7.922,5.48,15.461,12.065,24.765,15.979,14.152,5.953,27.1,4.576,39.4-4.737,12.382-9.378,16.729-21.812,14.749-36.808-.522-3.95-1.362-7.868-2.257-11.754-1.593-6.916-2.046-7.152-11.178-4.654-1.391.381-2.679,1.2-3.539-.147a3.812,3.812,0,0,1-.114-3.413c3.8-5.608,9.374-9.329,14.635-13.394,4.714-3.643,9.547-7.192,13.867-11.27,4.361-4.116,4.119-8.344.035-11.911a33.241,33.241,0,0,0-3.186-2.377c-8.37-5.695-11.774-5.431-18.633,2.129-3.579,3.945-6.9,8.07-11.762,10.546-1.095-5.311,3.449-8.336,5.05-12.546,1.868-4.91,1.537-9.006-4.5-10.961-3.766-1.22-3.2-3.52-.257-5.1,6.966-3.745,13.955-4.5,20.374,1.216,8.43,7.506,18.009,13.54,25.928,21.8a119.343,119.343,0,0,0,29.908,23.156c37.173,19.72,73.341,8.68,94.568-26.213,14.061-23.112,19.333-49.566,19.32-76.5,0-10.388-3.817-20.792-6.059-31.152-.978-4.52-4.728-3.651-7.96-3.567a29.541,29.541,0,0,0-2.415-2.858c11.258-13.269,25.508-23.279,38.481-34.63a190.27,190.27,0,0,0,27.263-28.986c7.982-10.629,16.254-21.04,24.358-31.578,1.017-1.323,2.145-1.818,3.459-.816.933.711,2.177,1.731,2.266,2.707.426,4.619.677,9.27.679,13.91q.048,194.837.019,389.672c0,4,.049,8-.183,11.985-.375,6.478-2.219,8.622-8.086,8.984-5.312.328-10.653.26-15.981.26q-206.882.017-413.762-.039c-6.422,0-13.045,1.085-19.026-1.271C49.436,500.352,52,495.9,54.879,492.823c6.771-7.246,14.469-13.639,21.942-20.206,2-1.756,3.386.171,4.575,1.684-.456,6.19,2.8,9.845,8.462,11.04,4.766,1.007,10.16,2.528,13.876-4.725l-22.6-6.046c-1.381-1.172-3.58-2.3-1.905-4.432,4.394-5.593,9.164-10.894,13.491-16.537a3.524,3.524,0,0,0-.969-5.119,4.906,4.906,0,0,0-3.514-.619c-5.4,1.449-8.034,9-15.107,6.866.155-3.264.168-6.539.49-9.784.684-6.883,3.751-9.317,10.108-8.17,7.974,1.44,15.185,4.871,22.02,9.008a40.169,40.169,0,0,0,24.836,5.562c3.366-.276,7.308-.454,8.955-3.352,1.5-2.638,1.148-6.329,1.612-9.558,1.6-1.4,3.458-2.013,5.175-.562,6.5,5.493,12.355,3.012,17.832-1.5,6.058-4.993,11.852-10.306,17.836-15.546-9.611-7.452-10.293-7.512-13.968-1.555-8.6,13.939-11.508,14.437-24.673,5.571-4.336-2.92-6.377-5.98-5.8-11.345.506-4.735-2.686-7.143-7.253-7.484a21.84,21.84,0,0,0-5.954.257c-1.839.376-4.26.853-5.173,2.159-1.642,2.351-.477,4.9,1.229,7.2,4.484,6.036,11.122,9.273,16.906,13.653,2.708,2.052,7.158,4.388,4.095,9.405-13.6-1.511-27.5-1.64-39.147-10.744-2.322-1.814-6.193-1.72-9.382-2.342-14.963-2.92-26.172,4.6-28.148,19.181a10.108,10.108,0,0,0,1.871,7.266C67.983,453.625,71.071,453.717,73.413,454.465Zm43.859-60.053a8.657,8.657,0,0,0,.868,1.479c.192.223.647.218.984.316l-2.157-1.48c-1.195-10.614.46-19.749,12.209-23.726a3.287,3.287,0,0,0,1.4-1.328,7.08,7.08,0,0,0-.385-9.093c-2.323-2.751-4.465-.942-6.407.983-3.276,3.246-6.658,6.386-9.911,9.655-6.018,6.049-6.444,7.9-2.489,15.535C112.842,389.568,115.275,391.878,117.272,394.412Zm19.223-6.776a4.408,4.408,0,0,0-3.192-4.357c-2.588-.877-3.832.827-3.918,2.9-.1,2.433-.389,5.727,3.545,5.493C135.015,391.549,136.244,389.809,136.5,387.636Z"/><path class="a" d="M310.046,257.74c4.292.264,7.381-1.9,10.476-4.62q38.025-33.393,76.262-66.545c4.484-3.878,9.592-7.034,14.4-10.53a30.481,30.481,0,0,1,2.4,2.85c-.711,1.089-1.167,2.626-2.172,3.2-15.14,8.624-18.8,21.548-18.14,38.514,1,25.678-8.133,48.2-28.548,65.177-2.334,1.941-5.663,3.606-4.117,7.722,13.608.694,13.608.694,26.263-5.751l3.357,3.751c-19.528,14.509-37.121,14.279-54.788-.81a207.485,207.485,0,0,1-28.448-29.837Z"/><path class="a" d="M297.257,246.564c3.218.479,5.5,1.891,5.544,5.545q-.756,1.273-1.582,2.5c-5.789-3.275-6.4-4.663-3.664-8.3Z"/><path class="a" d="M302.8,252.109c2.974,1.159,5.628,2.728,7.245,5.631l-3.052,3.119-5.775-6.246Q302.045,253.383,302.8,252.109Z"/><path class="a" d="M407.509,136.863l-4.3,3.57-2.927-2.878a4.975,4.975,0,0,1,3.738-4.043Q405.766,135.186,407.509,136.863Z"/><path class="a" d="M403.21,140.433l-4.148,3.839q-1.377-1.369-2.767-2.722a5.244,5.244,0,0,1,3.987-4Z"/><path class="a" d="M399.062,144.272l-4.748,3.277q-1.278-1.265-2.535-2.548l4.515-3.452Q397.685,142.9,399.062,144.272Z"/><path class="a" d="M394.314,147.549a5.311,5.311,0,0,1-4.168,3.932l-2.912-3.325q2.273-1.575,4.545-3.154Q393.036,146.284,394.314,147.549Z"/><path class="b" d="M301.219,254.613l5.775,6.246A207.379,207.379,0,0,0,335.441,290.7c17.667,15.089,35.26,15.319,54.787.81,4.207-1.466,7.629-3.581,7.279-8.813,2.427,0,3.42-1.3,3.05-3.6-.084-.516-1.026-1.4-1.182-1.321-1.809.894-3.035,2.2-2.395,4.456-4.826-.823-7.381,2.506-10.108,5.523-12.655,6.445-12.655,6.445-26.263,5.751-1.546-4.116,1.783-5.781,4.117-7.722,20.415-16.974,29.543-39.5,28.548-65.177-.657-16.966,3-29.89,18.14-38.514,1-.573,1.461-2.11,2.172-3.2,3.232-.083,6.982-.952,7.96,3.568,2.242,10.36,6.054,20.764,6.059,31.152.013,26.932-5.259,53.386-19.32,76.5-21.227,34.893-57.4,45.933-94.568,26.213a119.343,119.343,0,0,1-29.908-23.156c-7.919-8.259-17.5-14.293-25.928-21.8-6.419-5.716-13.408-4.961-20.374-1.216-2.94,1.58-3.509,3.88.257,5.1,6.035,1.955,6.366,6.051,4.5,10.961-1.6,4.21-6.145,7.235-5.051,12.545l.308-.371c-3.7-.36-6.351,1.377-8.451,4.218l.323-.315c-11.3,1.368-11.5,1.378-11.932-6.626-.391-7.257-.6-14.552-.347-21.811,1.195-33.655,42.242-50.591,65.812-32.984a110.03,110.03,0,0,0,11.66,7.39c.47.267,1.955-1.258,2.97-1.953C294.817,249.95,295.43,251.338,301.219,254.613ZM232.8,281.832q-.375-1.745-.751-3.489c-1,.6-2.533,1-2.867,1.864a3.486,3.486,0,0,0,.912,3.219C231.368,284.316,232.5,283.458,232.8,281.832Z"/><path class="b" d="M150.762,368.377c-9.244,1.931-10.492,1.447-11.69-4.536-3.665-18.3,5.379-29.077,23.962-29.131a35.315,35.315,0,0,1,22.014,7.21c2.511,1.869,5.628,3.626,8.637.367-1.654,1.284-2.284,2.77-1.038,4.713,2.117,3.3,4.587,6.213,8.307,7.8,2.526,2.954,4.895,6.062,7.6,8.836,10.151,10.39,21.624,9.874,33.681,3.805l4.755-3.3a56.091,56.091,0,0,0,4.3-5.982,3.289,3.289,0,0,0-.642-3.118,2.914,2.914,0,0,0-4.657.83A36.294,36.294,0,0,0,243.909,361q-2.32,1.648-4.646,3.289c-10.448,2.661-10.513,2.569-9.336-6.328.595-4.492,1.166-8.987,1.739-13.484,1.41-2.072,3.494-4.34.385-6.311-.64-.406-2.881,1.709-4.383,2.662-4.419,3.429-9.053,6.621-13.19,10.361-3.441,3.112-6.714,2.508-10.321.915-2.047-5-6.036-7.791-10.94-9.534.946-7.014,5.749-11.154,10.919-15.232,7.606-6,14.976-12.3,22.385-18.539,1.952-1.646,3.779-3.515,2.87-6.5l-.323.315c3.892.747,6.7-.676,8.451-4.218l-.308.371c4.859-2.475,8.184-6.6,11.763-10.545,6.859-7.56,10.263-7.824,18.633-2.129a33.241,33.241,0,0,1,3.186,2.377c4.084,3.567,4.326,7.8-.035,11.911-4.32,4.078-9.153,7.627-13.867,11.27-5.261,4.065-10.839,7.786-14.635,13.394a3.812,3.812,0,0,0,.114,3.413c.86,1.344,2.148.528,3.539.147,9.132-2.5,9.585-2.262,11.178,4.654.9,3.886,1.735,7.8,2.257,11.754,1.98,15-2.367,27.43-14.749,36.808-12.295,9.313-25.247,10.69-39.4,4.737-9.3-3.914-16.843-10.5-24.765-15.979-6.165,1.768-1.844,6.825-4.154,9.968-6.8,9.244-13.395,18.147-26.032,19.6-2.418.278-4.81,2.965-7.259.955-3.592-2.947-.406-5.852.57-8.8,2.5-7.56,5.25-14.979,10.357-21.263,4.26-1.445,8.465-3.1,12.8-4.244,2.129-.561,5.486,1.354,5.745-2.386.1-1.416-1.845-3.6-3.389-4.378a58.215,58.215,0,0,0-12.563-4.955c-3.989-.934-8.1.617-9.527,4.7-1.077,3.089,4.063,2.381,4.583,4.876C151.8,365.786,151.06,367.128,150.762,368.377Z"/><path class="b" d="M391.779,145q-2.272,1.578-4.545,3.154c-2.412,1.3-5.2,2.408-7.3.26-1.781-1.817-2.87-4.448-3.856-6.884-11.36-28.077-32.235-46.436-59.45-58.327-3.486-1.523-8.2-1.625-7.631-7.278.408-4.039,4.258-5.111,11.356-3.337a56.046,56.046,0,0,1,16.569,6.552c5,3.129,9.635,7.193,15.839,8.025.25,2.177,1.814,2.966,3.619,3.723,1.5.627,2.517.536,3.029-.97a1.962,1.962,0,0,0-.332-1.753c-1.45-1.108-3.045-2.027-4.586-3.016C343.177,71.578,327.147,67.2,311.046,63.133c-4.121-1.041-8.209.023-9.176,5.044-1.038,5.388-4.889,7.594-9.341,9.284a47.824,47.824,0,0,1-5.774,1.53c-19.33,4.66-38.671,9.275-57.988,13.991-3.918.957-7.813,1.8-11.728.455a4.411,4.411,0,0,1-2.507-2.543c-.277-1,.167-2.965.892-3.335,3.484-1.776,7.337-2.869,10.7-4.815,1.39-.8,2.778-3.269,2.557-4.736s-2.233-3.088-3.837-3.862c-8.188-3.952-8.763-3.656-17.318,6.721-3.525-3.909-7.273-7.643-10.515-11.773a9.654,9.654,0,0,1,1.906-14.115c5.333-3.837,11.118-7.045,16.648-10.489,4.509.628.657,10.06,8.162,7.472,4.047-1.4,7.4-3.918,11.576,1.956,4.277,6.012,11.9,4.639,18.117,1.053a7.072,7.072,0,0,0,3.047-4.6c.444-3.456-2.555-3.85-5.117-4.556-4.317-1.19-8.856,2.188-13.6-1,3.743-4.932,8.8-5.829,14.032-4.655a71.154,71.154,0,0,1,15.006,5.162,55.026,55.026,0,0,0,27.118,5.337c15.951-.9,30.24,4.354,43.67,11.615,26.9,14.544,46.8,36.68,63.486,61.859,1.741,2.626,2.007,6.229,2.956,9.379a4.975,4.975,0,0,0-3.739,4.043,5.241,5.241,0,0,0-3.988,4Q394.036,143.275,391.779,145ZM257.471,65.161c-5.267.5-11.857.9-18.367,1.842-3.7.537-5.31,3.519-5.565,7.107a5.987,5.987,0,0,0,6.384,6c12.43-1.416,25.077-1.929,36.689-7.359,1.66-.776,3.737-1.948,2.759-4.364a3.86,3.86,0,0,0-2.779-1.842C270.681,65.983,264.748,65.657,257.471,65.161Z"/><path class="b" d="M141.146,438.436c-.464,3.228-.112,6.919-1.612,9.557-1.647,2.9-5.589,3.076-8.955,3.352a40.169,40.169,0,0,1-24.836-5.562c-6.835-4.137-14.046-7.568-22.02-9.008-6.357-1.147-9.424,1.287-10.108,8.17-.322,3.245-.335,6.52-.49,9.784l.289-.267c-2.343-.745-5.431-.837-6.826-2.419a10.108,10.108,0,0,1-1.871-7.266c1.976-14.585,13.185-22.1,28.148-19.181,3.189.622,7.06.528,9.382,2.342,11.651,9.1,25.546,9.233,39.147,10.744Z"/><path class="b" d="M141.394,438.682c3.063-5.017-1.387-7.353-4.095-9.405-5.784-4.38-12.422-7.617-16.906-13.653-1.706-2.3-2.871-4.845-1.229-7.2.913-1.306,3.334-1.783,5.173-2.159a21.84,21.84,0,0,1,5.954-.257c4.567.341,7.759,2.749,7.253,7.484-.573,5.365,1.468,8.425,5.8,11.345,13.165,8.866,16.075,8.368,24.673-5.571,3.675-5.957,4.357-5.9,13.968,1.555-5.984,5.24-11.778,10.553-17.836,15.546-5.477,4.514-11.333,7-17.832,1.5-1.717-1.451-3.578-.84-5.175.562Z"/><path class="b" d="M117.264,394.418c-1.989-2.54-4.422-4.85-5.88-7.665-3.955-7.63-3.529-9.486,2.489-15.535,3.253-3.269,6.635-6.409,9.911-9.655,1.942-1.925,4.084-3.734,6.407-.983a7.08,7.08,0,0,1,.385,9.093,3.287,3.287,0,0,1-1.4,1.328c-11.749,3.977-13.4,13.112-12.209,23.726Z"/><path class="b" d="M81.129,474.57l22.6,6.046c-3.716,7.253-9.11,5.732-13.876,4.725-5.657-1.195-8.918-4.85-8.462-11.04Z"/><path class="b" d="M136.5,387.636c-.251,2.173-1.48,3.913-3.565,4.037-3.934.234-3.646-3.06-3.545-5.493.086-2.074,1.33-3.778,3.918-2.9A4.408,4.408,0,0,1,136.5,387.636Z"/><path class="b" d="M116.967,394.727l2.157,1.479c-.337-.1-.792-.092-.984-.315a9.041,9.041,0,0,1-.872-1.476S116.967,394.727,116.967,394.727Z"/><path class="a" d="M232.8,281.832c-.3,1.626-1.43,2.484-2.7,1.594a3.486,3.486,0,0,1-.912-3.219c.334-.862,1.862-1.261,2.867-1.864Q232.424,280.088,232.8,281.832Z"/><path class="a" d="M386.872,287.756c2.727-3.017,5.282-6.346,10.108-5.523l.529.464c.348,5.229-3.074,7.344-7.281,8.81Z"/><path class="a" d="M396.98,282.233c-.64-2.253.586-3.562,2.395-4.456.156-.077,1.1.805,1.182,1.321.37,2.292-.623,3.595-3.05,3.6Z"/><path class="a" d="M237.519,298.39c-1.75,3.542-4.559,4.965-8.451,4.218C231.168,299.767,233.821,298.03,237.519,298.39Z"/><path class="a" d="M242.241,367.445c-12.058,6.068-23.531,6.584-33.682-3.806-2.71-2.774-5.079-5.882-7.6-8.836l3.211-2.718c3.6,1.609,6.872,2.213,10.313-.9,4.137-3.74,8.771-6.932,13.189-10.361l4.007,3.653c-.581,4.493-1.152,8.988-1.747,13.48-1.177,8.9-1.112,8.989,9.34,6.337Q240.758,365.879,242.241,367.445Z"/><path class="a" d="M150.762,368.377c.3-1.249,1.042-2.591.805-3.728-.52-2.5-5.66-1.787-4.583-4.876,1.422-4.079,5.538-5.63,9.527-4.7a58.215,58.215,0,0,1,12.563,4.955c1.544.774,3.486,2.962,3.389,4.378-.259,3.74-3.616,1.825-5.745,2.386-4.34,1.144-8.545,2.8-12.8,4.244Z"/><path class="a" d="M193.217,342.567c4.9,1.743,8.893,4.531,10.94,9.534-1.063.89-2.133,1.8-3.2,2.7-3.72-1.59-6.19-4.5-8.307-7.8-1.246-1.943-.616-3.429,1.038-4.713Z"/><path class="a" d="M243.906,360.994A36.778,36.778,0,0,1,246,355.876a2.914,2.914,0,0,1,4.657-.83,3.289,3.289,0,0,1,.642,3.118,56.091,56.091,0,0,1-4.3,5.982Q245.45,362.571,243.906,360.994Z"/><path class="a" d="M227.668,340.825c1.5-.953,3.743-3.068,4.383-2.662,3.109,1.971,1.025,4.239-.385,6.311Q229.676,342.653,227.668,340.825Z"/><path class="a" d="M247,364.146l-4.755,3.3q-1.483-1.569-2.973-3.149,2.318-1.656,4.642-3.3Q245.45,362.569,247,364.146Z"/><path class="a" d="M257.471,65.161c7.277.5,13.21.822,19.121,1.379a3.86,3.86,0,0,1,2.779,1.842c.978,2.416-1.1,3.588-2.759,4.364-11.612,5.43-24.259,5.943-36.689,7.359a5.987,5.987,0,0,1-6.384-6c.255-3.588,1.867-6.57,5.565-7.107C245.614,66.06,252.2,65.664,257.471,65.161Z"/><path class="a" d="M354.49,85.151c1.541.989,3.136,1.908,4.586,3.016a1.962,1.962,0,0,1,.332,1.753c-.512,1.506-1.534,1.6-3.029.97-1.805-.757-3.369-1.546-3.619-3.723Q353.651,86.185,354.49,85.151Z"/></svg>