<svg xmlns="http://www.w3.org/2000/svg" viewBox="0 0 543.348 543.348"><defs><style>.a{fill:#1f1e15;}.b{fill:#fcfcfb;}</style></defs><path class="a" d="M35.468,269.886q0-105.912,0-211.823c0-5.329.113-10.658.069-15.986-.042-5.123,2.757-6.98,7.49-6.93,4.663.051,9.328-.03,13.992-.031q214.878,0,429.755.012c24.365,0,21.544-1.948,21.554,21.117q.088,215.82.018,431.64c0,21.549,1.881,19.926-18.7,19.927q-217.876.018-435.752,0a116.165,116.165,0,0,1-13.963-.421,5.6,5.6,0,0,1-3.766-3.757,138.608,138.608,0,0,1-.678-15.926Q35.44,378.8,35.468,269.886ZM248.951,149.6c-2.269-8.739-.66-16.006-.414-23.3q.641-18.931.547-37.885c-.04-7.533-2.347-14.386-7.949-19.855-4.98-4.862-11.014-4.825-15.846-.041-4.442,4.4-6.465,10.1-8.43,15.675-5.363,15.221-6.2,31.22-6.921,47.144-.477,10.607-.143,21.188-2.013,31.776a104.452,104.452,0,0,0-1.243,23.823c.923,16.481,1.9,32.842.035,49.391-1.853,16.472-1.771,33.154-3.355,49.666-.753,7.848-3.72,15.458-5.095,23.28-1,5.681-4.313,9.765-8.068,13.434-15.144,14.8-27.8,13.955-39-4.059-6.041-9.713-14.586-17.178-20.575-26.793-1.988-3.193-5.628-5.746-9.051-7.594-19.226-10.378-38.526-8.12-57.42.889-6.938,3.308-11.021,9.423-12.308,17.228-1.172,7.111,1.391,11.48,8.339,13.49,1.911.553,3.95.646,5.888,1.121,10.343,2.538,20.752,4.83,28.705,12.876,1.793,1.814,4.47,2.921,6.923,3.89,24.3,9.594,31.862,32.315,41.857,53.137.224,15.571,10.187,25.078,20.638,34.825,11.63,10.845,25.187,19.546,35.225,32.178a92,92,0,0,0,20.386,19c10.621,7.212,21.653,9.6,33.981,4.771,8.052-3.156,16.507-5.315,24.462-8.675,21.286-8.988,42.519-8.746,64.093-1.167,5.588,1.962,11.594,2.75,17.424,4.005,14.069,3.029,24.623-2.57,32.973-13.518a54.892,54.892,0,0,0,3.643-4.749c10.4-17.286,18.013-35.667,20.457-55.806,1.842-15.171,2.786-30.433,9.9-44.451a23.981,23.981,0,0,0,2.138-9.635c.263-6.267,3.2-11.468,5.814-16.824,1.743-3.578,4.63-6.815,5.515-10.556,3.894-16.465,12.864-30.52,20.345-45.337,10.819-21.43,19.591-43.716,22.958-67.666,1.193-8.49,1.432-17.22-3.1-25.247-4.051-7.176-11.611-7.915-15.652-.868-6.271,10.936-12.432,21.952-16.354,34.085-5.154,15.943-13.527,30.286-22.917,44.076-4.944,7.262-11.476,12.97-18.28,18.272-5.269,4.105-11.815,2.626-15.756-2.646-4.635-6.2-6.829-12.839-4.171-20.56,3.237-9.4,6.906-18.708,9.362-28.318,6.58-25.743,12.657-51.615,18.842-77.458,2.674-11.17,1.936-22.543,1.2-33.828C416.244,104,410.537,97.693,404.82,96.3c-5.474-1.332-12.266,2.733-15.849,9.7A68.837,68.837,0,0,0,386,113.406c-5.625,14.991-10.091,30.3-12.081,46.225-.749,6-1.894,11.789-4.55,17.273-6.129,12.656-9.6,26.131-12.241,39.879a69.45,69.45,0,0,1-10.537,25.584c-1.892,2.837-4.588,5.579-8.088,4.912-3.932-.749-8.152-3.286-8.819-7.271a134.865,134.865,0,0,1-2.138-25.423c.523-21.271,2.639-42.53,2.506-63.783-.121-19.38-.246-38.615,4.5-57.515,2.587-10.3-1.531-19.742-3.678-29.272-1.593-7.075-8.541-10.106-15.34-11.047-6.946-.961-11.026,4.061-14.056,9.358-4.683,8.186-7.523,17.232-7.421,26.61.239,22.016-.627,43.827-5.608,65.418s-4.818,43.641-3.774,65.6c.469,9.875-4.186,16.414-10.814,22.337-4.974,4.446-11.829,3.556-15.519-2.021a26.61,26.61,0,0,1-3.236-7.143c-3.925-13.393-6.542-26.959-6.227-41.054C249.205,177.442,248.951,162.8,248.951,149.6Z"/><path class="b" d="M248.951,149.6c0,13.2.254,27.843-.072,42.47-.315,14.1,2.3,27.661,6.227,41.054a26.61,26.61,0,0,0,3.236,7.143c3.69,5.577,10.545,6.467,15.519,2.021,6.628-5.923,11.283-12.462,10.814-22.337-1.044-21.955-1.206-44.007,3.774-65.6s5.847-43.4,5.608-65.418c-.1-9.378,2.738-18.424,7.421-26.61,3.03-5.3,7.11-10.319,14.056-9.358,6.8.941,13.747,3.972,15.34,11.047,2.147,9.53,6.265,18.973,3.678,29.272-4.748,18.9-4.623,38.135-4.5,57.515.133,21.253-1.983,42.512-2.506,63.783a134.865,134.865,0,0,0,2.138,25.423c.667,3.985,4.887,6.522,8.819,7.271,3.5.667,6.2-2.075,8.088-4.912a69.45,69.45,0,0,0,10.537-25.584c2.645-13.748,6.112-27.223,12.241-39.879,2.656-5.484,3.8-11.277,4.55-17.273,1.99-15.925,6.456-31.234,12.081-46.225A68.837,68.837,0,0,1,388.971,106c3.583-6.965,10.375-11.03,15.849-9.7,5.717,1.391,11.424,7.7,11.866,14.485.737,11.285,1.475,22.658-1.2,33.828-6.185,25.843-12.262,51.715-18.842,77.458-2.456,9.61-6.125,18.916-9.362,28.318-2.658,7.721-.464,14.36,4.171,20.56,3.941,5.272,10.487,6.751,15.756,2.646,6.8-5.3,13.336-11.01,18.28-18.272,9.39-13.79,17.763-28.133,22.917-44.076,3.922-12.133,10.083-23.149,16.354-34.085,4.041-7.047,11.6-6.308,15.652.868,4.53,8.027,4.291,16.757,3.1,25.247-3.367,23.95-12.139,46.236-22.958,67.666-7.481,14.817-16.451,28.872-20.345,45.337-.885,3.741-3.772,6.978-5.515,10.556-2.609,5.356-5.551,10.557-5.814,16.824a23.981,23.981,0,0,1-2.138,9.635c-7.119,14.018-8.063,29.28-9.9,44.451-2.444,20.139-10.06,38.52-20.457,55.806a54.892,54.892,0,0,1-3.643,4.749c-8.35,10.948-18.9,16.547-32.973,13.518-5.83-1.255-11.836-2.043-17.424-4.005-21.574-7.579-42.807-7.821-64.093,1.167-7.955,3.36-16.41,5.519-24.462,8.675-12.328,4.83-23.36,2.441-33.981-4.771a92,92,0,0,1-20.386-19c-10.038-12.632-23.595-21.333-35.225-32.178-10.451-9.747-20.414-19.254-20.638-34.825-10-20.822-17.556-43.543-41.857-53.137-2.453-.969-5.13-2.076-6.923-3.89-7.953-8.046-18.362-10.338-28.7-12.876-1.938-.475-3.977-.568-5.888-1.121-6.948-2.01-9.511-6.379-8.339-13.49,1.287-7.805,5.37-13.92,12.308-17.228,18.894-9.009,38.194-11.267,57.42-.889,3.423,1.848,7.063,4.4,9.051,7.594,5.989,9.615,14.534,17.08,20.575,26.793,11.2,18.014,23.859,18.854,39,4.059,3.755-3.669,7.07-7.753,8.068-13.434,1.375-7.822,4.342-15.432,5.095-23.28,1.584-16.512,1.5-33.194,3.355-49.666,1.862-16.549.888-32.91-.035-49.391a104.452,104.452,0,0,1,1.243-23.823c1.87-10.588,1.536-21.169,2.013-31.776.717-15.924,1.558-31.923,6.921-47.144,1.965-5.575,3.988-11.277,8.43-15.675,4.832-4.784,10.866-4.821,15.846.041,5.6,5.469,7.909,12.322,7.949,19.855q.1,18.941-.547,37.885C248.291,133.593,246.682,140.86,248.951,149.6Z"/></svg>