<svg xmlns="http://www.w3.org/2000/svg" viewBox="0 0 543.348 543.348"><defs><style>.a{fill:#dfcf06;}.b{fill:#fcfcfb;}</style></defs><path class="a" d="M279.617,55.149l-4.3-16.306c3.841-4.7,8.05-3.432,11.748-3.437q101.994-.135,203.989-.059c3.329,0,6.663.065,9.988.233,3.822.194,6.157,2.248,6.378,6.1.267,4.65.309,9.318.31,13.978q.021,215.931,0,431.862c0,21.1,1.409,19.695-19.211,19.7q-216.988.023-433.977,0c-4,0-8,.03-11.993-.2-3.678-.214-6.317-1.965-6.5-6q-.316-6.984-.3-13.98-.023-215.931-.017-431.862c0-21.112-.971-19.839,19.231-19.839H264.912c3.693,7.595-2,13.437-1.738,19.808l.341-.29c-8.486,4.122-13.483-3.1-19.842-5.99-.876-.4-2.24.282-3.288.449-3.75,5.185,1.8,11.92-3,16.884-5.758-.191-9.893-3.851-14.448-6.437-4.046-2.3-7.73-5.243-11.821-7.442-1.994-1.072-4.617-3.447-6.853-.336-1.789,2.487-.515,5.2.647,7.472,1.507,2.946,3.7,5.533,5.346,8.418a89.253,89.253,0,0,1,5.393,10.635,3.269,3.269,0,0,1-2.479,4.477c-2.585.509-5.315.225-7.949.551-4.485.556-5.532,2.93-3.291,6.245,2.914,4.309,10.43,6.379,9.276,12.1-1.493,7.4-10.233,4.279-15.117,7.3-2.685,1.659-6.468,1.349-8.32,4.586,2.576,2.861,6.12,2.019,9.314,2.526a95.238,95.238,0,0,1,9.812,1.822c2.819.758,6.929-.371,7.608,4.073-1.406,6.434-10.142,7.164-10.255,14.262,9.735,6.18,15.749-.778,22.176-6.253l4,3.552c-.26.6-.569,1.192-.771,1.815-3.686,11.4-3.688,11.587,6.556,11.849,15.11.387,30.23.7,45.342.6,10.509-.074,21.011-.947,31.519-1.379,5.429-.224,6.221-3.413,5.551-7.917-.182-1.222.413-2.56.651-3.845,3.159-1.658,4.587,1.023,6.536,2.536,1.531,1.189,3.115,2.776,4.868,3.081a7.611,7.611,0,0,0,5.393-1.431c1.785-1.4.652-3.043-.576-4.81-6.183-8.9-6.108-9.013,2.393-11.614,5.676-1.736,11.439-3.191,17.08-5.025a3.906,3.906,0,0,0,1.977-2.934,3.337,3.337,0,0,0-1.9-2.61c-3.183-.852-6.522-1.113-9.721-1.916-19.352-4.855-19.322-4.87-9.355-21.359.57-.942.263-2.413.391-3.971a33.075,33.075,0,0,0-5.76-.6c-2.621.166-5.2.937-7.821,1.192-2.557.248-4.8-3-3.56-5.257,2.862-5.209,6.112-10.211,8.841-15.486,1.379-2.667,4-5.569.823-8.914-6.8.883-11.715,5.588-17.476,8.544-6.5,3.336-9.374,1.4-9.487-6.479-.038-2.6.464-5.233.246-7.81-.23-2.72-2.994-2.961-4.4-2.15-3.972,2.293-7.536,5.278-11.349,7.861-2.538,1.719-4.935.945-7.115-.893ZM451.553,378.93l.252.229c-1.679-8.209-4.081-15.977-12.307-20.2l.307.331c1.531-4.164.016-7.863-2.235-11.132-10.094-14.652-18.24-30.386-26.532-46.078-2.952-5.585-4.8-12.489-11.643-15.311l.273.275c-2.733-9.341-8.422-16.946-14.413-24.355-.223-.276-1.235.085-1.88.15l.26.263c.5-9.817-1.21-12.623-12.206-20.053l.331.4a6.829,6.829,0,0,0,.616-7.42c-4.627-8.752-9.014-17.661-14.2-26.076-2.644-4.293-5.611-8.874-10.874-10.815a6.466,6.466,0,0,0-1.211-6.129c-1.9-3.49-3.545-7.151-5.765-10.423-2.449-3.607-4.826-4.47-9.7-1.848-7.774,4.186-16.833,2.333-25.343,1.089a5.092,5.092,0,0,1-4.273-5.779c.261-3.285,2.854-4.378,5.57-4.488,7.3-.295,14.664-1.152,21.789,1.325,2.671.929,3.5-.982,3.915-2.74.268-1.135-.388-2.569-.86-3.78-1.117-2.87-3.726-3.86-6.386-3.9-6.647-.093-13.3.287-19.952.3-26.64.05-53.28-.028-79.919.088-6.122.026-12.44,3.535-11,5.535,2.763,3.828,6.983,2.775,10.814,2.927,3.979.159,8.03-.092,11.9.629,1.459.272,2.947,2.594,3.615,4.3.713,1.817.26,4.42-1.821,5.044-10.731,3.213-21.3,4.6-30.17-6-2.617,5.684-4.929,10.451-7,15.321-.907,2.134.291,3.859,2.337,4.409,2.518.678,5.216.672,7.753,1.3a3.46,3.46,0,0,1,2.62,4.535,7.915,7.915,0,0,1-3.65,4.193c-6.682,3.159-9.311-2.6-12.89-6.362-6.024,4.581-9.437,11.042-12.906,17.474-6.944,12.874-13.8,25.8-20.907,38.581-16.166,29.06-31.526,58.585-49.708,86.491-1.428,2.191-2.163,4.82-3.387,7.158-8.3,15.863-15.44,32.3-25.264,47.423-5.962,9.181-12.113,18.751-13.958,30.943,16.675,2.292,32.435,4.49,48.4,2.363,4.692-.625,9.219-.1,13.841-.031,35.253.488,70.475,1.481,105.768-.568,25.138-1.46,50.442-.185,75.67.032,28.532.244,57.1,1.721,85.579.6,15.979-.626,31.825-.742,47.734.149a69.749,69.749,0,0,0,30.595-5.251A139.246,139.246,0,0,0,451.553,378.93ZM195.11,464.909l-.2.011c.372,7.276.617,14.563,1.2,21.823.156,1.948,1.7,3.644,4,2.992a3.862,3.862,0,0,0,2.421-2.593c.226-5.943.089-11.9.156-17.85.022-1.9.259-3.9,2.379-4.726,2.336-.908,4.114.722,4.966,2.28,2.532,4.625,4.493,9.558,6.893,14.26,1.443,2.826,2.2,6.769,5.938,7.246,4.556.583,4.692-3.927,5.882-6.7,2.881-6.7,5.477-13.533,10.5-19a4.1,4.1,0,0,1,3.412-1.051,3.856,3.856,0,0,1,2.4,2.612c.648,7.9.952,15.825,1.616,23.721a2.645,2.645,0,0,0,5.272.176c2.837-14.618-.806-28.959-2.091-43.4-.054-.6-.625-1.148-.888-1.749-1.593-3.642-7.607-4.5-9.974-1.259a32.8,32.8,0,0,0-3.828,6.838c-2.506,6.125-4.633,12.407-7.228,18.491a7.992,7.992,0,0,1-3.862,3.874c-3.125,1.315-4.975-1.265-6.282-3.444-2.379-3.964-4.216-8.249-6.468-12.3s-4.668-7.985-7.123-11.9c-1.512-2.413-3.92-3.947-6.617-2.89s-3.405,4.018-3.35,6.686C194.35,453.011,194.8,458.959,195.11,464.909Zm-67.978,1.821-.99,0c0-6.6.041-13.2-.02-19.8-.025-2.738-.686-5.337-3.572-6.435a7.562,7.562,0,0,0-7.508,1.1c-6.022,4.767-8.255,11.811-10.577,18.725-1.056,3.147-1.769,6.856-5.887,6.859-2.9,0-4-3.017-5.192-5.286C90.6,456.605,88.1,451.166,85.12,446a24.129,24.129,0,0,0-5.249-5.8c-2.2-1.912-7.727-.33-8.492,2.286-.555,1.9-1.31,3.887-1.22,5.8q.888,18.843,2.218,37.664a3.727,3.727,0,0,0,2.326,2.464c3.007.851,3.231-1.9,3.311-3.556.352-7.271.286-14.562.613-21.834a3.753,3.753,0,0,1,2.34-2.556,3.945,3.945,0,0,1,3.447.855c4.97,6.305,8.14,13.579,10.844,21.08.666,1.85,1.581,4.054,3.97,3.128a8.047,8.047,0,0,0,4.017-3.757c1.951-4.192,3.249-8.684,5.123-12.917a29.808,29.808,0,0,1,4.231-6.687c.679-.829,2.269-1.074,3.494-1.257,1.684-.253,2.474.663,2.565,2.293a49.184,49.184,0,0,0,.69,7.906c1.367,6.143-2.21,13.344,3.907,18.465,8.24-4.859,2.437-12.6,3.836-18.87A18.612,18.612,0,0,0,127.132,466.73Zm326.314,9.882c6.746,2.777,10.443,9.483,16.077,13.879,1.273.993,3.268,3.207,4.619.462a6.448,6.448,0,0,0-.43-5.4c-3.223-4.969-7.014-9.567-10.374-14.454-2.781-4.043-2.813-8.161-1.377-13.1,1.785-6.139,8.766-10.053,7.138-17.438-9.138-1.305-9.895,9.455-16.66,11.563-.63.195-1.286.312-2.931.7-4.339-3.927-9.03-8.373-13.969-12.525a3.639,3.639,0,0,0-5.271.6,3.6,3.6,0,0,0-.087,3.4c3.556,4.749,7.323,9.341,11.073,13.942a11.322,11.322,0,0,1,1.486,13c-3,5.872-6.712,11.38-9.877,17.177-.45.825.124,2.627.8,3.562a3.365,3.365,0,0,0,5.128.611,39.106,39.106,0,0,0,6.731-7.079C447.771,482.3,448.971,478.291,453.446,476.612Zm-59.691-.412c7.359,2.606,11.1,8.241,15.518,13.159,1.216,1.352,3.258,2.008,5,2.806.388.177,1.226-.277,1.665-.66s.987-1.109.9-1.578c-1-5.522-4.992-9.423-8.414-13.233-6.474-7.205-5.907-14.309-1.756-22,2.2-4.071,4.6-8.039,6.624-12.19.269-.551-1.006-2.018-1.791-2.847a2.061,2.061,0,0,0-1.889-.229c-1.706.8-3.9,1.413-4.852,2.813-2.971,4.371-4.989,9.524-10.844,11.04-6.471-2.608-9.031-9.589-14.655-13.106-1.757-1.1-3.948-1.258-5.427.428-.532.607-.385,2.513.188,3.271,3.61,4.773,7.432,9.385,11.172,14.06,2.881,3.6,2.688,7.391.33,11.07-3.952,6.165-8.113,12.195-12.087,18.345-1.155,1.787-1.462,4.16.711,5.078,1.5.635,3.823.206,5.425-.523a14.1,14.1,0,0,0,4.509-3.8C387.427,484.193,390.587,480.127,393.755,476.2ZM351.4,442.413c-.411-.519-.727-1.214-1.262-1.5a1.781,1.781,0,0,0-1.651.144c-4.2,4.135-8.311,8.371-12.507,12.515-3.395,3.352-6.6,3.377-10.282-.166-3.806-3.664-7.341-7.607-11.08-11.342-1.42-1.419-3.291-2.468-4.905-.507a3.684,3.684,0,0,0,.123,3.43c2.627,3.778,5.44,7.435,8.342,11.011,8.338,10.277,8.421,12.846.544,24.076a90.3,90.3,0,0,0-5.451,8.2c-.416.756.2,2.733.977,3.306a3.652,3.652,0,0,0,3.478,0,57.388,57.388,0,0,0,5.546-5.578c8.612-9,8.624-9.013,17.122-1.382,1.471,1.32,2.567,3.159,4.2,4.163,1.479.909,4.07,1.952,5.1,1.284,3.224-2.085.608-4.446-.564-6.593a13.623,13.623,0,0,0-1.272-1.516c-10.741-14.156-10.757-14.168-1.524-29.283,1.376-2.252,3.16-4.262,4.459-6.552C351.379,445.1,351.224,443.664,351.4,442.413Zm-173.182,6.832c-1.722-6.129-5.392-6.67-8.275-7.94-15.768-6.944-36.646,2.825-35.136,26.625,1.183,18.658,17.9,31.278,40.987,21.239,1.37-.6,2.647-3.112,2.657-4.742.017-2.74-2.449-2.361-4.36-1.981-4.535.9-9.051,2.659-13.582,2.684-12,.063-18.153-7.641-17.887-21.395.21-10.891,6.327-17.33,17.5-17.234C165.858,446.549,171.575,448.181,178.219,449.245Zm118.8,40.569c-1-1.16-1.3-1.835-1.678-1.883-2.578-.329-5.173-.522-7.762-.765-9.878-.928-11.294-2.25-11.757-11.844-.445-9.227-.581-18.469-1.027-27.7-.126-2.613-.892-5.621-4.394-4.75-1.151.286-2.379,3.007-2.4,4.633-.2,12.525-.149,25.054-.1,37.581.012,3.5,1.081,7.04,4.8,7.667C280.879,494.136,289.348,495.825,297.018,489.814Z"/><path class="a" d="M263.174,55.145l16.442,0-.314-.332c-1.287,9.338,4.341,16.161,8.784,23.271,7.3,11.687,15.217,23,22.39,34.757,1.715,2.813,5.167,6.446,1.132,10.331-5.5-.624-10.944,3.553-16.468.173a21.142,21.142,0,0,1,.8-3.729c1.516-3.721.16-6.123-3.419-7.2-.917-.276-3.05.532-3.207,1.182-.738,3.065-1.4,6.393,2.593,8.036,1.186.489,2.382.957,3.573,1.434.655,1.98.422,3.575-1.516,4.856-12.928,8.54-26.036,7.32-39.2.739-3.641-1.819-4.242-3.988-1.151-7.423,1.622-1.8,1.693-5.454-1.266-6.716-2.844-1.213-4.91.33-4.742,3.78.093,1.9.269,4.554-2.173,4.332-8.513-.772-10.519,6.74-15,11.1l-4-3.553c4.581-12.256,11.31-23.342,18.237-34.379,6.562-10.457,12.606-21.244,18.636-32.021,1.508-2.7,2.98-5.9.215-8.932Zm29.064,44.534C285.4,88.587,280.724,80.756,275.78,73.1c-1.841-2.851-6.069-2.6-8.412.414C261.726,80.775,256.881,88.449,255.5,98.6,266.95,98.382,277.489,96.188,292.238,99.679Z"/><path class="b" d="M399.4,286.77c6.842,2.822,8.691,9.726,11.643,15.311,8.292,15.692,16.438,31.426,26.532,46.078,2.251,3.269,3.766,6.968,2.23,11.129a37.533,37.533,0,0,1-5.537-1.332c-8.983-3.627-18.249-3.417-27.462-1.671a6.471,6.471,0,0,0-5.225,7.418c.388,2.87,3.07,4.181,5.812,4.447q9.923.957,19.877,1.565c8.939.554,9.144.315,12.233-10.755,8.226,4.222,10.628,11.99,12.3,20.2-1.641.839-2.885,2.2-5.254,1.311-5.024-1.878-10.379-1.683-15.513-.573a4.715,4.715,0,0,0-3.685,5.913c.436,1.63,1.909,3.788,3.339,4.185,3.1.861,6.474.777,9.739,1.019,5.634.417,8.807-1.864,8.13-7.868-.282-2.5,1.342-3.281,3-4.214a139.246,139.246,0,0,1,27.585,45.123,69.749,69.749,0,0,1-30.595,5.251c-15.909-.891-31.755-.775-47.734-.149-28.475,1.116-57.047-.361-85.579-.6-25.228-.217-50.532-1.492-75.67-.032-35.293,2.049-70.515,1.056-105.768.568-4.622-.065-9.149-.594-13.841.031-15.96,2.127-31.72-.071-48.395-2.363,1.845-12.192,8-21.762,13.958-30.943,9.824-15.128,16.96-31.56,25.264-47.423,1.224-2.338,1.959-4.967,3.387-7.158,18.182-27.906,33.542-57.431,49.708-86.491,7.111-12.782,13.963-25.707,20.907-38.581,3.469-6.432,6.882-12.893,12.906-17.474,3.579,3.761,6.208,9.521,12.89,6.362a7.915,7.915,0,0,0,3.65-4.193,3.46,3.46,0,0,0-2.62-4.535c-2.537-.628-5.235-.622-7.753-1.3-2.046-.55-3.244-2.275-2.337-4.409,2.072-4.87,4.384-9.637,7-15.321,8.867,10.606,19.439,9.215,30.17,6,2.081-.624,2.534-3.227,1.821-5.044-.668-1.7-2.156-4.025-3.615-4.3-3.872-.721-7.923-.47-11.9-.629-3.831-.152-8.051.9-10.814-2.927-1.443-2,4.875-5.509,11-5.535,26.639-.116,53.279-.038,79.919-.088,6.651-.013,13.305-.393,19.952-.3,2.66.038,5.269,1.028,6.386,3.9.472,1.211,1.128,2.645.86,3.78-.414,1.758-1.244,3.669-3.915,2.74-7.125-2.477-14.494-1.62-21.789-1.325-2.716.11-5.309,1.2-5.57,4.488a5.092,5.092,0,0,0,4.273,5.779c8.51,1.244,17.569,3.1,25.343-1.089,4.87-2.622,7.247-1.759,9.7,1.848,2.22,3.272,3.866,6.933,5.765,10.423l-3.288,2.728c-4.545.074-9.121-.15-13.621.334-2.7.291-3.529,6.3-1.452,8.3,4.424,4.245,9.764,2.716,14.735,2.057,3.914-.519,3.61-4.908,5.173-7.583l-.339.3c5.266,1.939,8.233,6.52,10.877,10.813,5.183,8.415,9.57,17.324,14.2,26.076a6.815,6.815,0,0,1-.619,7.415c-12.423-7.543-25.712-3.187-38.665-2.571-2.422.116-4.132,2.9-3.621,6.023a4.259,4.259,0,0,0,3.98,3.758c11.231.195,22.474.287,33.7-.081,4.515-.148,3.709-4.5,4.281-7.526,11,7.43,12.7,10.236,12.2,20.053-5.22.233-10.442.406-15.656.72-3.285.2-6.728.089-9.782,1.089a5.484,5.484,0,0,0-3.763,6.218c.364,2.339,2.116,3.257,4.157,3.313,6.636.184,13.277.2,19.916.268,4.491.044,5.48-2.324,4.662-6.355-.355-1.753.114-3.672.208-5.516.645-.065,1.657-.426,1.88-.15,5.991,7.409,11.68,15.014,14.412,24.356-2.3,2.711-4.527.746-6.741-.144-5.111-2.053-10.3-1.522-15.317.016-2.728.837-3.338,3.737-3.716,6.354-.423,2.929.576,5.3,3.664,5.691a108.987,108.987,0,0,0,15.46,1.116c3.6-.065,5.979-2.275,5.2-6.41C397.745,291.2,396.74,288.686,399.4,286.77Zm-95.953,45.3c-7.39-.251-14.756-.425-20.937,4.471-1.393,1.1-2.745,3.493-2.513,5.052.219,1.467,2.521,3.693,3.961,3.736q14.871.442,29.763-.043c2.767-.088,4.713-2.38,5.012-5.308.4-3.934-1.865-6.335-5.424-7.075C310.1,332.239,306.735,332.321,303.442,332.073ZM142.743,347l0,.3c5.98-.338,12-.383,17.922-1.143,2.741-.351,4.168-2.98,4.531-5.8.411-3.188-1.519-5.586-4.106-5.875-8.568-.962-17.2-1.43-25.825-1.732-1.78-.063-3.828,1.1-5.378,2.221a8.064,8.064,0,0,0-3.509,8.644c.76,3.35,3.9,3.121,6.378,3.323C136.067,347.2,139.414,347,142.743,347ZM325.794,215.675v-.394c-2.657,0-5.317-.078-7.97.018-3.971.144-8.016.01-11.88.76-2.688.522-4.271,3.209-4.3,5.926a4.654,4.654,0,0,0,4.978,4.948c13.255.02,26.513.038,39.76-.327,2.835-.078,4.385-2.772,4.22-5.722-.166-2.969-1.982-5.031-4.9-5.135C339.07,215.515,332.429,215.675,325.794,215.675Zm69.577,115.684-.013.41c-5.26.339-10.572.345-15.759,1.153a5.115,5.115,0,0,0-4.056,5.913c.211,1.773,1.045,4.487,2.293,4.964a49.234,49.234,0,0,0,31.037,1.184c3.183-.867,4.336-4.793,3.434-8.382-.665-2.648-2-5.037-5.1-5.194C403.269,331.207,399.316,331.359,395.371,331.359Zm31.882,83.718.035-.568c4.573,0,9.153.142,13.718-.051,2.929-.123,4.69-1.854,4.971-4.917.263-2.863-.586-5.819-3.313-6.3a97.541,97.541,0,0,0-34.833-.115c-2.824.523-4.058,3.218-3.639,6.056.282,1.909,1.311,3.765,3.59,4.007C414.266,413.88,420.762,414.456,427.253,415.077Zm-306.715.315c6.8-.692,13.37-1.14,19.835-2.221,1.156-.193,2.527-2.97,2.614-4.617.088-1.684-.929-4.657-2.065-4.987a62.994,62.994,0,0,0-35.183.084c-1.229.347-2.2,3.081-2.52,4.848-.524,2.853.838,5.469,3.74,5.924C111.5,415.133,116.148,415.115,120.538,415.392ZM342.8,346.532c6.151-.454,11.45-.521,16.625-1.357,2.761-.445,3.9-3.172,4.18-5.965.379-3.828-1.369-6.835-4.977-7.233a75.22,75.22,0,0,0-27.3,1.648c-2.753.716-3.587,3.657-3.633,6.412-.048,2.931,1.547,5.352,4.21,5.849C335.739,346.6,339.745,346.39,342.8,346.532Zm-97.2-1.3c0,.274,0,.549,0,.823,3.324,0,6.652.1,9.972-.024,4.464-.168,9.747,1.128,11.465-5.047,1.227-4.409-3.443-7.695-11.369-7.447s-15.88.912-23.771,1.817c-2.97.34-4.4,3.265-4,5.932a5.647,5.647,0,0,0,3.823,3.766C236.3,345.543,240.966,345.234,245.6,345.234Zm-23.393,23.905c6.029-.356,11.954-.613,17.59-2.714a4.02,4.02,0,0,0,2.074-2.873c.1-1-.763-2.855-1.537-3.058-11.509-3.016-23.208-4.2-35.013-2.27-1.428.233-3.1,2.377-3.613,3.972-.678,2.095,1.139,3.943,3.016,4.3C210.505,367.616,216.372,368.293,222.206,369.139ZM373.36,356.33v-.106c-3.915,0-7.844-.194-11.739.085a10.132,10.132,0,0,0-5.348,1.906,8.175,8.175,0,0,0-2.724,4.667c-.363,2.15,1.438,3.485,3.448,3.856,9.68,1.784,19.408,2.426,29.165.635,2.679-.491,4.911-1.7,4.978-4.888.084-4.059-2.5-5.829-6.049-6.09C381.2,356.11,377.272,356.33,373.36,356.33Zm-99.086-82.465c2.543.5,8.511,1.635,14.387.246,1.455-.344,2.722-2.61,3.458-4.267.267-.6-1.155-2.8-1.993-2.919-11.733-1.618-23.488-4.7-35.3-.943-1.476.47-3.033,2.6-3.384,4.221-.467,2.154,1.481,3.544,3.565,3.608C260.3,273.974,265.6,273.865,274.274,273.865ZM218.1,215.46a26.238,26.238,0,0,0-3.967.029c-6.195.955-13.637-2.529-18.145,4.463-2.234,3.464,5.036,6.768,17.968,7.176,7.2.226,14.615,1.261,21.568-1.489,1.5-.592,2.937-2.859,3.222-4.553a4.206,4.206,0,0,0-2.949-4.532C230.005,214.482,224.029,215.264,218.1,215.46Zm27.833-9.17v.133c5.255,0,10.518.181,15.76-.071,2.9-.139,4.965-2.183,4.7-5.085-.154-1.661-1.622-4.206-2.994-4.592-11.564-3.254-23.287-1.951-34.906-.164-1.306.2-3.1,2.99-3.105,4.588a4.864,4.864,0,0,0,4.792,5.143C235.424,206.415,240.68,206.29,245.932,206.29ZM297.346,250.4v-.064c5.266,0,10.539.174,15.794-.069a5.234,5.234,0,0,0,5.146-5.013,4.823,4.823,0,0,0-4.687-5.274c-10.517-.066-21.041.178-31.556.5a5.33,5.33,0,0,0-5.408,4.787,4.844,4.844,0,0,0,4.92,5.059C286.809,250.573,292.082,250.4,297.346,250.4Zm-51.617,48.376c5.3,0,10.6.209,15.884-.083a4.861,4.861,0,0,0,4.741-5.262c-.068-2.766-1.627-5.471-4.423-5.84a107.625,107.625,0,0,0-33.626.547c-1.293.238-2.968,2.882-2.972,4.415a6.5,6.5,0,0,0,2.866,4.714C233.656,300.467,239.828,298.925,245.729,298.772ZM174.92,310.9c-9.76,0-15.082-.186-20.378.1a8.589,8.589,0,0,0-5.3,2.232c-1.14,1.177-1.548,3.39-1.6,5.166a3.7,3.7,0,0,0,2.108,2.88c12.478,2.406,24.938,2.842,37.046-1.815a3.345,3.345,0,0,0,1.871-4.841c-.6-1.1-1.512-2.731-2.433-2.839C181.012,311.173,175.745,310.953,174.92,310.9ZM219.6,274.782c4.876-2.007,11.891,1.938,17.944-2.211a4.369,4.369,0,0,0,1.813-3.178c-.065-1.031-1.29-2.729-2.187-2.855-8.457-1.189-16.9-2.465-25.532-1.648-8.056.762-13.468,3.589-11.8,6.886,2.91,5.769,8.239,1.544,12.339,2.579C214.065,274.833,216.132,274.613,219.6,274.782ZM200.025,334.2c-9.531-.089-15.64-2.05-20.975,1.669a7.714,7.714,0,0,0-2.563,4.874,3.67,3.67,0,0,0,3.1,4.277,108.9,108.9,0,0,0,29.428.233,2.565,2.565,0,0,0,1.583-1.062,19.181,19.181,0,0,0,2.758-4.869c.723-2.519-1.521-3.683-3.3-3.987C205.541,334.563,200.937,334.3,200.025,334.2Zm93.939-127.833v-.055c5.924,0,11.875.335,17.759-.15a4.486,4.486,0,0,0,3.817-5.764c-.4-1.632-2.008-4.063-3.294-4.211-11.094-1.281-22.259-2.354-33.171,1.283-2.192.731-2.5,2.817-2.514,4.784a3.929,3.929,0,0,0,3.58,3.987C284.72,206.62,289.352,206.369,293.964,206.369ZM219.048,322.3c.148-.014,3.41-.325,6.673-.634,2.617-.249,5.348-.125,7.812-.875,1.66-.5,4-2.107,4.177-3.46.375-2.881-2.21-4.772-4.739-5.015a174.9,174.9,0,0,0-17.62-.642c-4.96.025-11.021-2.309-13.618,4.432C200.253,319.948,205.4,322.165,219.048,322.3Zm49.467-11.623c-1.412.065-6.03.145-10.62.538-2.94.251-5.187,2.407-5.113,5.05.077,2.756,2.781,4.376,5.545,4.681,4.574.5,9.247,1.317,13.76.852,6.041-.624,13.831,3.7,17.577-4.559C291.58,313.012,285.789,310.848,268.515,310.677Zm-22.1,79.488c5.8-1.3,12.475,1.463,18.68-1.555a4.229,4.229,0,0,0,1.777-3.142c.056-1.126-.643-3.116-1.41-3.335a68.886,68.886,0,0,0-34.534-1.048,3.5,3.5,0,0,0-2.615,4.431c.512,1.549,2.354,3.492,3.85,3.725C236.645,389.941,241.245,389.89,246.414,390.165Zm51.222.248c7.057-.545,12.907-.882,18.728-1.5,2.306-.244,3.312-2.618,3.072-4.3-.226-1.584-1.89-4.009-3.221-4.227-11.023-1.8-22.109-2.084-32.936,1.184-1.434.433-3.1,2.749-3.225,4.309-.25,3.07,2.216,4.418,5.041,4.5C289.669,390.511,294.249,390.413,297.636,390.413Zm-21.44-21.92c4.006.013,8.745.782,12.855-1.6,1.348-.782,2.272-3.089,2.491-4.812a3.6,3.6,0,0,0-3.3-3.98c-10.424-1.553-20.794-.718-31.084,1.134-1.806.325-3.55,1.741-2.984,4.221a4.232,4.232,0,0,0,3.971,3.51C263.977,367.515,269.819,367.961,276.2,368.493Zm-99.942,34.718-.018-.455c-5.925.376-11.916.354-17.747,1.3-2.671.436-3.552,3.378-3.2,6.363a4.155,4.155,0,0,0,3.974,3.758c5.965.377,11.971.4,17.949.186a80.892,80.892,0,0,0,13.816-1.515c1.47-.31,3.285-2.562,3.564-4.166a4.515,4.515,0,0,0-4.406-5.384C185.567,402.959,180.9,403.211,176.254,403.211ZM282.183,227.444a35.239,35.239,0,0,0,5.53-.778c2.835-.824,4.487-3.017,3.855-5.9a9.632,9.632,0,0,0-3.127-4.635c-.832-.737-2.5-.664-3.8-.724-5.358-.245-10.071.567-14.771,4.123-5.949,4.5-8.954-7.193-15.715-4.027-2.844,1.333-4.218,3.081-4.361,5.759-.159,3.007,1.682,4.932,4.708,5.109,1.929.114,4.236.184,5.774-.732,3.488-2.076,6.256-3.867,10.1-.155C273.392,228.389,277.9,227.262,282.183,227.444Zm-85.362,59.139c-5.18,0-9.162-.153-13.127.044-3.829.191-5.815,2.694-6.565,6.242-.691,3.266,1.773,6.4,5.616,6.476,7.929.155,15.867.036,23.795-.183,2.626-.072,5.387-.725,5.644-4.155.27-3.593-.843-6.776-4.722-7.506A91.155,91.155,0,0,0,196.821,286.583Zm75.066-103.534c4.84-.36,10.111-.743,15.38-1.148,1.7-.13,2.5-1.09,2.183-2.76-.232-1.238-.314-2.777-1.088-3.579-1.311-1.36-3.075-3.108-4.72-3.187q-13.894-.66-27.823-.446a4.1,4.1,0,0,0-3.869,3.836c-.328,3.062,1.008,5.7,3.618,6.141C260.767,182.781,266.127,182.705,271.887,183.049Zm53.984,231.115.012-.253c4.578,0,9.2.359,13.721-.134a4.636,4.636,0,0,0,3.985-5.679c-.3-1.628-1.8-4.1-3.077-4.312a99.952,99.952,0,0,0-31.155-.256c-1.367.2-3.152,2.622-3.4,4.225a4.843,4.843,0,0,0,4.283,5.488C315.4,413.93,320.654,413.9,325.871,414.164Zm-1.356-139.825c4.64,0,9.29.176,13.916-.08,2.025-.112,3.925-1.754,3.448-3.838-.364-1.594-2.042-3.85-3.437-4.095-10.368-1.82-20.82-3.534-31.305-.829-2.143.553-2.954,2.572-2.5,4.591a5.035,5.035,0,0,0,2.292,2.973C312.52,276.021,318.639,274.241,324.515,274.339ZM276.13,414.464c2.132,0,6.055.109,9.968-.031,3.728-.133,6.4-2.45,6.842-5.824.514-3.942-2.57-5.7-6.168-5.755-7.839-.122-15.688-.154-23.521.118-3.467.119-6.75,2.16-7.172,5.572-.509,4.109,3.112,5.039,6.523,5.256C266.513,414.047,270.431,414.19,276.13,414.464Zm46.32-92.546c4.292-.19,8.411.8,11.849-1.862,1.563-1.211,2.959-2.816,2.287-5.023-.355-1.165-1.061-2.856-1.963-3.125-9.7-2.891-19.431-2.315-29.032.532-.785.233-1.472,2.139-1.481,3.273a4.586,4.586,0,0,0,1.416,3.431C310.83,322.657,317.109,320.663,322.45,321.918ZM367.8,309.589c-4.961.433-10.186.685-15.333,1.454a4.3,4.3,0,0,0-3.685,3.969c-.293,3.086,1.427,5.49,3.879,5.92a83.006,83.006,0,0,0,29.255-.027c2.292-.417,3.824-3.182,3.55-6.238a4.131,4.131,0,0,0-3.741-3.866C377.217,310.119,372.633,309.972,367.8,309.589ZM197.313,380.027c-4.282,2.2-11.986-3.563-16.553,4.2,3.543,10.112,12.13,4.874,18.336,5.365,5.261.416,12.36,3.409,15.955-3.81C216.919,382.029,211.342,379.979,197.313,380.027Zm-49.994-.506c-2.152,0-6.731-.165-11.29.059-2.865.141-5.079,1.985-4.879,4.877.108,1.563,1.771,3.918,3.2,4.347,10.192,3.055,20.57,2.544,30.888.547a3.5,3.5,0,0,0,1.925-2.847c-.234-1.708-.837-4.034-2.09-4.814C160.36,378.757,154.866,380.563,147.319,379.521Zm202.655.254c-4.57,0-9.155-.215-13.706.078-2.915.186-4.841,2.331-4.372,5.216a6.632,6.632,0,0,0,3.327,4.314c4.959,2.2,10.3,1.224,15.476.768,5.489-.481,12.368,2.422,15.383-4.984C367.691,381.213,361.869,379.1,349.974,379.775Zm-54.726-80.948,0-.267c5.216,0,10.451.259,15.642-.1,2.807-.195,4.449-2.5,4.665-5.34.219-2.882-1.172-5.563-3.9-5.953-9.692-1.388-19.471-1.535-28.943,1.338-2.61.791-3.139,3.707-3,6.541.133,2.626,2.178,3.479,3.809,3.653A111.64,111.64,0,0,0,295.248,298.827Zm-70.455,104.42,0,.182c-4.57,0-9.173-.307-13.689.189-1.343.148-3.067,2.374-3.509,3.958a4.778,4.778,0,0,0,3.643,5.958,65.919,65.919,0,0,0,25.308.18,5.742,5.742,0,0,0,4.778-5.47c.152-2.806-1.667-4.869-4.757-4.966C232.644,403.154,228.717,403.247,224.793,403.247ZM348.4,298.985a100.643,100.643,0,0,0,11.338-1.22c1.332-.242,2.752-2.641,3.236-4.309.8-2.771-.458-5.628-3.173-6.3-9.774-2.425-19.609-.563-29.334.7-2.653.344-3.462,3.552-3.324,6.374.158,3.236,2.269,4.552,5.062,4.7C336.15,299.142,340.112,298.985,348.4,298.985Zm46.546,91.844c6.167-.433,11.655,1.193,16.5-1.594a5.949,5.949,0,0,0,2.5-4.719c-.164-1.606-2.007-4.25-3.259-4.334-6.572-.443-13.193-.366-19.787-.152a19.311,19.311,0,0,0-7.607,1.682c-1.431.691-3.071,2.964-2.926,4.35.15,1.438,2.17,3.51,3.673,3.814C387.9,390.656,391.924,390.611,394.949,390.829Zm-22.4,11.427c-3.721.378-9,.636-14.142,1.634-1.29.251-2.989,2.913-2.922,4.394.072,1.558,1.835,4.109,3.207,4.365,9.766,1.83,19.651,2.334,29.355-.3,1.336-.361,2.579-2.871,2.932-4.58a3.558,3.558,0,0,0-3.031-4.268C383.367,402.913,378.737,402.728,372.545,402.256ZM122.931,368.6c4.721,0,6.681.022,8.641-.009,1.305-.02,2.615-.059,3.914-.183,5.1-.487,8.263-3.376,7.541-6.836-.8-3.856-3.691-5.188-7.1-5.36a75.483,75.483,0,0,0-11.726.212c-3.388.359-5.844,2.6-7.839,5.342-1.562,2.148-.722,6.089,1.582,6.4C120.5,368.522,123.1,368.613,122.931,368.6Zm74.552-118.26a109.491,109.491,0,0,0,11.3-.118c1.871-.19,3.27-1.893,3.378-4.13.138-2.856-.916-5.7-3.607-6.077a159.667,159.667,0,0,0-17.6-1.014,22.713,22.713,0,0,0-7.74.669,6.816,6.816,0,0,0-3.591,4.064c-.911,2.963,1.175,5.255,3.755,5.685C187.857,250.166,192.475,250.062,197.483,250.34ZM324.12,368.332c3.773-.242,9.725-.431,15.621-1.11a3.71,3.71,0,0,0,3.044-4.326c-.157-1.206-.776-3.142-1.568-3.359-11.637-3.188-23.35-4.483-34.934.167-.859.345-1.543,2.181-1.537,3.32a4.3,4.3,0,0,0,1.63,3.2C311.229,369.164,316.716,367.649,324.12,368.332Zm-153.959,0c5.559-.373,10.792-.584,15.986-1.149,1.85-.2,3.852-1.146,3.906-3.528.044-1.936-.256-3.926-2.552-4.659-10.278-3.279-20.454-1.621-30.552.877-.691.171-1.3,2.176-1.273,3.31a4.284,4.284,0,0,0,1.522,3.14C161.293,368.851,166.019,367.925,170.161,368.331Zm5.794-92.647c3.463-.747,7.283-1.39,10.967-2.491.931-.277,1.9-1.98,1.983-3.095a3.972,3.972,0,0,0-1.542-3.257c-6.936-3.228-13.813-2.254-20.4,1.115-.805.412-1.008,2.226-1.261,3.438-.331,1.584.5,2.452,2.136,2.734C170.4,274.569,172.951,275.1,175.955,275.684Zm225.369,33.928c-4.638-.4-8.293,2.151-8.51,5.933-.233,4.087,2.6,6.792,7.431,7.1,5.3.336,9.025-1.946,8.484-5.425C408.08,313.052,406.177,309.824,401.324,309.612ZM243.336,245.005a16.087,16.087,0,0,0,12.037,5.529c4.048.14,7.813-.493,10.115-4.427,1.434-2.452-2.113-4.8-8.29-5.031C252.235,240.893,246.548,238.719,243.336,245.005ZM111.177,390.715l4.568-.2c3.3-.147,4.563-2.343,4.5-5.153a4.978,4.978,0,0,0-4.693-5.251c-4.056-.38-7.87.523-10.627,3.768a5.019,5.019,0,0,0-1,3.58,3.753,3.753,0,0,0,2.109,2.573A25.366,25.366,0,0,0,111.177,390.715ZM158.939,287.6c-3.9.189-6.939,3.224-7.046,7.8-.118,5.076,4.145,3.931,7.019,4.067,3.321.158,6.59-.6,7.321-4.662C166.883,291.189,162.944,287.406,158.939,287.6Zm67.745-39.034a45.579,45.579,0,0,0,5.706-1.466,3.623,3.623,0,0,0,2.242-4.546,3.764,3.764,0,0,0-2.619-2.039,14.946,14.946,0,0,0-5.61.091c-2.453.558-5.163,1.738-3.986,4.9C222.925,246.872,225.22,247.575,226.684,248.567Z"/><path class="b" d="M263.515,54.855c2.765,3.035,1.293,6.236-.215,8.932-6.03,10.777-12.074,21.564-18.636,32.021-6.927,11.037-13.656,22.123-18.237,34.379-6.427,5.475-12.441,12.433-22.176,6.253.113-7.1,8.849-7.828,10.255-14.262-.679-4.444-4.789-3.315-7.608-4.073a95.238,95.238,0,0,0-9.812-1.822c-3.194-.507-6.738.335-9.314-2.526,1.852-3.237,5.635-2.927,8.32-4.586,4.884-3.016,13.624.1,15.117-7.3,1.154-5.716-6.362-7.786-9.276-12.095-2.241-3.315-1.194-5.689,3.291-6.245,2.634-.326,5.364-.042,7.949-.551a3.269,3.269,0,0,0,2.479-4.477,89.253,89.253,0,0,0-5.393-10.635c-1.646-2.885-3.839-5.472-5.346-8.418-1.162-2.273-2.436-4.985-.647-7.472,2.236-3.111,4.859-.736,6.853.336,4.091,2.2,7.775,5.145,11.821,7.442,4.555,2.586,8.69,6.246,14.448,6.437,4.8-4.964-.753-11.7,3-16.884,1.048-.167,2.412-.846,3.288-.449C250.032,51.752,255.029,58.977,263.515,54.855Z"/><path class="b" d="M311.608,123.175c4.035-3.884.583-7.517-1.132-10.33-7.173-11.762-15.087-23.07-22.39-34.757-4.443-7.11-10.071-13.933-8.784-23.271,2.18,1.837,4.577,2.611,7.115.892,3.813-2.583,7.377-5.568,11.349-7.861,1.407-.811,4.171-.57,4.4,2.15.218,2.577-.284,5.206-.246,7.81.113,7.877,2.984,9.815,9.487,6.479,5.761-2.956,10.676-7.661,17.476-8.544,3.177,3.345.556,6.247-.823,8.914-2.729,5.275-5.979,10.277-8.841,15.486-1.239,2.255,1,5.5,3.56,5.257,2.622-.255,5.2-1.026,7.821-1.192a33.075,33.075,0,0,1,5.76.6c-.128,1.558.179,3.029-.391,3.971-9.967,16.489-10,16.5,9.355,21.359,3.2.8,6.538,1.064,9.721,1.916a3.337,3.337,0,0,1,1.9,2.61,3.906,3.906,0,0,1-1.977,2.934c-5.641,1.834-11.4,3.289-17.08,5.025-8.5,2.6-8.576,2.718-2.393,11.614,1.228,1.767,2.361,3.412.576,4.81a7.611,7.611,0,0,1-5.393,1.431c-1.753-.305-3.337-1.892-4.868-3.081-1.949-1.513-3.377-4.194-6.536-2.536l.251.346c1.264-9.059-.822-12.175-8.206-12.254Z"/><path class="b" d="M295.136,123.352c5.528,3.377,10.974-.8,16.472-.176l-.29-.224c-.772,6.432,1.6,10.761,8.206,12.254l-.251-.346c-.238,1.285-.833,2.623-.651,3.845.67,4.5-.122,7.693-5.551,7.917-10.508.432-21.01,1.3-31.519,1.379-15.112.1-30.232-.211-45.342-.6-10.244-.262-10.242-.454-6.556-11.849.2-.623.511-1.212.771-1.815,4.48-4.362,6.486-11.874,15-11.1,2.442.222,2.266-2.427,2.173-4.332-.168-3.45,1.9-4.993,4.742-3.78,2.959,1.262,2.888,4.914,1.266,6.716-3.091,3.435-2.49,5.6,1.151,7.423,13.168,6.581,26.276,7.8,39.2-.739,1.938-1.281,2.171-2.876,1.516-4.856Z"/><path class="b" d="M195.11,464.909c-.314-5.95-.76-11.9-.883-17.853-.055-2.668.652-5.63,3.35-6.686s5.1.477,6.617,2.89c2.455,3.919,4.876,7.865,7.123,11.9s4.089,8.332,6.468,12.3c1.307,2.179,3.157,4.759,6.282,3.444a7.992,7.992,0,0,0,3.862-3.874c2.595-6.084,4.722-12.366,7.228-18.491a32.8,32.8,0,0,1,3.828-6.838c2.367-3.246,8.381-2.383,9.974,1.259.263.6.834,1.145.888,1.749,1.285,14.445,4.928,28.786,2.091,43.4a2.645,2.645,0,0,1-5.272-.176c-.664-7.9-.968-15.822-1.616-23.721a3.856,3.856,0,0,0-2.4-2.612,4.1,4.1,0,0,0-3.412,1.051c-5.022,5.468-7.618,12.3-10.5,19-1.19,2.769-1.326,7.279-5.882,6.7-3.735-.477-4.495-4.42-5.938-7.246-2.4-4.7-4.361-9.635-6.893-14.26-.852-1.558-2.63-3.188-4.966-2.28-2.12.823-2.357,2.821-2.379,4.726-.067,5.95.07,11.907-.156,17.85a3.862,3.862,0,0,1-2.421,2.593c-2.3.652-3.84-1.044-4-2.992-.583-7.26-.828-14.547-1.2-21.823Z"/><path class="b" d="M127.132,466.73a18.612,18.612,0,0,1-.041,3.974c-1.4,6.267,4.4,14.011-3.836,18.87-6.117-5.121-2.54-12.322-3.907-18.465a49.184,49.184,0,0,1-.69-7.906c-.091-1.63-.881-2.546-2.565-2.293-1.225.183-2.815.428-3.494,1.257a29.808,29.808,0,0,0-4.231,6.687c-1.874,4.233-3.172,8.725-5.123,12.917a8.047,8.047,0,0,1-4.017,3.757c-2.389.926-3.3-1.278-3.97-3.128-2.7-7.5-5.874-14.775-10.844-21.08a3.945,3.945,0,0,0-3.447-.855,3.753,3.753,0,0,0-2.34,2.556c-.327,7.272-.261,14.563-.613,21.834-.08,1.657-.3,4.407-3.311,3.556a3.727,3.727,0,0,1-2.326-2.464q-1.311-18.817-2.218-37.664c-.09-1.913.665-3.9,1.22-5.8.765-2.616,6.294-4.2,8.492-2.286A24.129,24.129,0,0,1,85.12,446c2.977,5.169,5.48,10.608,8.266,15.891,1.2,2.269,2.288,5.287,5.192,5.286,4.118,0,4.831-3.712,5.887-6.859,2.322-6.914,4.555-13.958,10.577-18.725a7.562,7.562,0,0,1,7.508-1.1c2.886,1.1,3.547,3.7,3.572,6.435.061,6.6.02,13.2.02,19.8Z"/><path class="b" d="M453.446,476.612c-4.475,1.679-5.675,5.69-7.925,8.9a39.106,39.106,0,0,1-6.731,7.079,3.365,3.365,0,0,1-5.128-.611c-.675-.935-1.249-2.737-.8-3.562,3.165-5.8,6.874-11.305,9.877-17.177a11.322,11.322,0,0,0-1.486-13c-3.75-4.6-7.517-9.193-11.073-13.942a3.6,3.6,0,0,1,.087-3.4,3.639,3.639,0,0,1,5.271-.6c4.939,4.152,9.63,8.6,13.969,12.525,1.645-.393,2.3-.51,2.931-.7,6.765-2.108,7.522-12.868,16.66-11.563,1.628,7.385-5.353,11.3-7.138,17.438-1.436,4.935-1.4,9.053,1.377,13.1,3.36,4.887,7.151,9.485,10.374,14.454a6.448,6.448,0,0,1,.43,5.4c-1.351,2.745-3.346.531-4.619-.462C463.889,486.1,460.192,479.389,453.446,476.612Z"/><path class="b" d="M393.755,476.2c-3.168,3.927-6.328,7.993-9.668,11.905a14.1,14.1,0,0,1-4.509,3.8c-1.6.729-3.925,1.158-5.425.523-2.173-.918-1.866-3.291-.711-5.078,3.974-6.15,8.135-12.18,12.087-18.345,2.358-3.679,2.551-7.469-.33-11.07-3.74-4.675-7.562-9.287-11.172-14.06-.573-.758-.72-2.664-.188-3.271,1.479-1.686,3.67-1.527,5.427-.428,5.624,3.517,8.184,10.5,14.66,13.1,5.85-1.514,7.868-6.667,10.839-11.038.952-1.4,3.146-2.012,4.852-2.813a2.061,2.061,0,0,1,1.889.229c.785.829,2.06,2.3,1.791,2.847-2.028,4.151-4.426,8.119-6.624,12.19-4.151,7.687-4.718,14.791,1.756,22,3.422,3.81,7.419,7.711,8.414,13.233.084.469-.461,1.191-.9,1.578s-1.277.837-1.665.66c-1.744-.8-3.786-1.454-5-2.806C404.851,484.441,401.114,478.806,393.755,476.2Z"/><path class="b" d="M351.4,442.413c-.178,1.251-.023,2.69-.6,3.713-1.3,2.29-3.083,4.3-4.459,6.552-9.233,15.115-9.217,15.127,1.524,29.283a13.623,13.623,0,0,1,1.272,1.516c1.172,2.147,3.788,4.508.564,6.593-1.033.668-3.624-.375-5.1-1.284-1.635-1-2.731-2.843-4.2-4.163-8.5-7.631-8.51-7.613-17.122,1.382a57.388,57.388,0,0,1-5.546,5.578,3.652,3.652,0,0,1-3.478,0c-.772-.573-1.393-2.55-.977-3.306a90.3,90.3,0,0,1,5.451-8.2c7.877-11.23,7.794-13.8-.544-24.076-2.9-3.576-5.715-7.233-8.342-11.011a3.684,3.684,0,0,1-.123-3.43c1.614-1.961,3.485-.912,4.905.507,3.739,3.735,7.274,7.678,11.08,11.342,3.682,3.543,6.887,3.518,10.282.166,4.2-4.144,8.3-8.38,12.507-12.515a1.781,1.781,0,0,1,1.651-.144C350.674,441.2,350.99,441.894,351.4,442.413Z"/><path class="b" d="M178.219,449.245c-6.644-1.064-12.361-2.7-18.091-2.744-11.178-.1-17.295,6.343-17.5,17.234-.266,13.754,5.889,21.458,17.887,21.395,4.531-.025,9.047-1.783,13.582-2.684,1.911-.38,4.377-.759,4.36,1.981-.01,1.63-1.287,4.146-2.657,4.742-23.092,10.039-39.8-2.581-40.987-21.239-1.51-23.8,19.368-33.569,35.136-26.625C172.827,442.575,176.5,443.116,178.219,449.245Z"/><path class="b" d="M297.018,489.814c-7.67,6.011-16.139,4.322-24.329,2.943-3.717-.627-4.786-4.171-4.8-7.667-.045-12.527-.1-25.056.1-37.581.026-1.626,1.254-4.347,2.4-4.633,3.5-.871,4.268,2.137,4.394,4.75.446,9.227.582,18.469,1.027,27.7.463,9.594,1.879,10.916,11.757,11.844,2.589.243,5.184.436,7.762.765C295.717,487.979,296.013,488.654,297.018,489.814Z"/><path class="b" d="M346.094,193.012a6.464,6.464,0,0,1,1.21,6.13l.335-.3c-2.923,1-3.951-.937-4.833-3.1Z"/><path class="b" d="M292.238,99.679c-14.749-3.491-25.288-1.3-36.742-1.075,1.385-10.155,6.23-17.829,11.872-25.094,2.343-3.018,6.571-3.265,8.412-.414C280.724,80.756,285.4,88.587,292.238,99.679Z"/><path class="b" d="M295.476,123.069c-1.191-.477-2.387-.945-3.573-1.434-3.994-1.643-3.331-4.971-2.593-8.036.157-.65,2.29-1.458,3.207-1.182,3.579,1.08,4.935,3.482,3.419,7.2a21.142,21.142,0,0,0-.8,3.729Z"/><path class="a" d="M303.442,332.073c3.293.248,6.656.166,9.862.833,3.559.74,5.824,3.141,5.424,7.075-.3,2.928-2.245,5.22-5.012,5.308q-14.873.479-29.763.043c-1.44-.043-3.742-2.269-3.961-3.736-.232-1.559,1.12-3.949,2.513-5.052C288.686,331.648,296.052,331.822,303.442,332.073Z"/><path class="a" d="M142.743,347c-3.329,0-6.676.2-9.983-.067-2.476-.2-5.618.027-6.378-3.323a8.064,8.064,0,0,1,3.509-8.644c1.55-1.119,3.6-2.284,5.378-2.221,8.622.3,17.257.77,25.825,1.732,2.587.289,4.517,2.687,4.106,5.875-.363,2.824-1.79,5.453-4.531,5.8-5.925.76-11.942.805-17.922,1.143Z"/><path class="a" d="M325.794,215.675c6.635,0,13.276-.16,19.9.074,2.922.1,4.738,2.166,4.9,5.135.165,2.95-1.385,5.644-4.22,5.722-13.247.365-26.5.347-39.76.327a4.654,4.654,0,0,1-4.978-4.948c.029-2.717,1.612-5.4,4.3-5.926,3.864-.75,7.909-.616,11.88-.76,2.653-.1,5.313-.018,7.97-.018Z"/><path class="a" d="M395.371,331.359c3.945,0,7.9-.152,11.833.048,3.1.157,4.438,2.546,5.1,5.194.9,3.589-.251,7.515-3.434,8.382a49.234,49.234,0,0,1-31.037-1.184c-1.248-.477-2.082-3.191-2.293-4.964a5.115,5.115,0,0,1,4.056-5.913c5.187-.808,10.5-.814,15.759-1.153Z"/><path class="a" d="M427.253,415.077c-6.491-.621-12.987-1.2-19.471-1.885-2.279-.242-3.308-2.1-3.59-4.007-.419-2.838.815-5.533,3.639-6.056a97.541,97.541,0,0,1,34.833.115c2.727.478,3.576,3.434,3.313,6.3-.281,3.063-2.042,4.794-4.971,4.917-4.565.193-9.145.051-13.718.051Z"/><path class="a" d="M120.538,415.392c-4.39-.277-9.042-.259-13.579-.969-2.9-.455-4.264-3.071-3.74-5.924.325-1.767,1.291-4.5,2.52-4.848a62.994,62.994,0,0,1,35.183-.084c1.136.33,2.153,3.3,2.065,4.987-.087,1.647-1.458,4.424-2.614,4.617C133.908,414.252,127.338,414.7,120.538,415.392Z"/><path class="a" d="M439.5,358.96c-3.089,11.07-3.294,11.309-12.233,10.755q-9.949-.615-19.877-1.565c-2.742-.266-5.424-1.577-5.812-4.447a6.471,6.471,0,0,1,5.225-7.418c9.213-1.746,18.479-1.956,27.462,1.671a37.533,37.533,0,0,0,5.537,1.332S439.5,358.96,439.5,358.96Z"/><path class="a" d="M342.8,346.532c-3.051-.142-7.057.069-10.891-.646-2.663-.5-4.258-2.918-4.21-5.849.046-2.755.88-5.7,3.633-6.412a75.22,75.22,0,0,1,27.3-1.648c3.608.4,5.356,3.405,4.977,7.233-.276,2.793-1.419,5.52-4.18,5.965C354.246,346.011,348.947,346.078,342.8,346.532Z"/><path class="a" d="M245.6,345.234c-4.633,0-9.3.309-13.878-.18a5.647,5.647,0,0,1-3.823-3.766c-.4-2.667,1.03-5.592,4-5.932,7.891-.9,15.833-1.569,23.771-1.817s12.6,3.038,11.369,7.447c-1.718,6.175-7,4.879-11.465,5.047-3.32.124-6.648.024-9.972.024C245.6,345.783,245.6,345.508,245.6,345.234Z"/><path class="a" d="M222.206,369.139c-5.834-.846-11.7-1.523-17.483-2.638-1.877-.362-3.694-2.21-3.016-4.3.516-1.6,2.185-3.739,3.613-3.972,11.805-1.929,23.5-.746,35.013,2.27.774.2,1.635,2.06,1.537,3.058a4.02,4.02,0,0,1-2.074,2.873C234.16,368.526,228.235,368.783,222.206,369.139Z"/><path class="a" d="M373.36,356.33c3.912,0,7.84-.22,11.731.065,3.551.261,6.133,2.031,6.049,6.09-.067,3.184-2.3,4.4-4.978,4.888-9.757,1.791-19.485,1.149-29.165-.635-2.01-.371-3.811-1.706-3.448-3.856a8.175,8.175,0,0,1,2.724-4.667,10.132,10.132,0,0,1,5.348-1.906c3.9-.279,7.824-.085,11.739-.085Z"/><path class="a" d="M274.274,273.865c-8.676,0-13.978.109-19.271-.054-2.084-.064-4.032-1.454-3.565-3.608.351-1.616,1.908-3.751,3.384-4.221,11.816-3.762,23.571-.675,35.3.943.838.116,2.26,2.317,1.993,2.919-.736,1.657-2,3.923-3.458,4.267C282.785,275.5,276.817,274.367,274.274,273.865Z"/><path class="a" d="M218.1,215.46c5.93-.2,11.906-.978,17.7,1.094a4.206,4.206,0,0,1,2.949,4.532c-.285,1.694-1.726,3.961-3.222,4.553-6.953,2.75-14.368,1.715-21.568,1.489-12.932-.408-20.2-3.712-17.968-7.176,4.508-6.992,11.95-3.508,18.145-4.463A26.238,26.238,0,0,1,218.1,215.46Z"/><path class="a" d="M245.932,206.29c-5.252,0-10.508.125-15.755-.048a4.864,4.864,0,0,1-4.792-5.143c.009-1.6,1.8-4.387,3.105-4.588,11.619-1.787,23.342-3.09,34.906.164,1.372.386,2.84,2.931,2.994,4.592.268,2.9-1.794,4.946-4.7,5.085-5.242.252-10.5.071-15.76.071Z"/><path class="a" d="M297.346,250.4c-5.264,0-10.537.177-15.79-.07a4.844,4.844,0,0,1-4.92-5.059,5.33,5.33,0,0,1,5.408-4.787c10.515-.326,21.039-.57,31.556-.5a4.823,4.823,0,0,1,4.687,5.274,5.234,5.234,0,0,1-5.146,5.013c-5.255.243-10.528.069-15.794.069Z"/><path class="a" d="M245.729,298.772c-5.9.153-12.073,1.695-17.53-1.509a6.5,6.5,0,0,1-2.866-4.714c0-1.533,1.679-4.177,2.972-4.415a107.625,107.625,0,0,1,33.626-.547c2.8.369,4.355,3.074,4.423,5.84a4.861,4.861,0,0,1-4.741,5.262C256.333,298.981,251.025,298.772,245.729,298.772Z"/><path class="a" d="M371.429,243.05c-.572,3.024.234,7.378-4.281,7.526-11.223.368-22.466.276-33.7.081a4.259,4.259,0,0,1-3.98-3.758c-.511-3.121,1.2-5.907,3.621-6.023,12.953-.616,26.242-4.972,38.665,2.571C371.76,243.452,371.429,243.05,371.429,243.05Z"/><path class="a" d="M174.92,310.9c.825.056,6.092.276,11.314.884.921.108,1.834,1.739,2.433,2.839a3.345,3.345,0,0,1-1.871,4.841c-12.108,4.657-24.568,4.221-37.046,1.815a3.7,3.7,0,0,1-2.108-2.88c.051-1.776.459-3.989,1.6-5.166a8.589,8.589,0,0,1,5.3-2.232C159.838,310.711,165.16,310.9,174.92,310.9Z"/><path class="a" d="M219.6,274.782c-3.47-.169-5.537.051-7.428-.427-4.1-1.035-9.429,3.19-12.339-2.579-1.663-3.3,3.749-6.124,11.8-6.886,8.636-.817,17.075.459,25.532,1.648.9.126,2.122,1.824,2.187,2.855a4.369,4.369,0,0,1-1.813,3.178C231.493,276.72,224.478,272.775,219.6,274.782Z"/><path class="a" d="M200.025,334.2c.912.094,5.516.361,10.033,1.135,1.778.3,4.022,1.468,3.3,3.987a19.181,19.181,0,0,1-2.758,4.869,2.565,2.565,0,0,1-1.583,1.062,108.9,108.9,0,0,1-29.428-.233,3.67,3.67,0,0,1-3.1-4.277,7.714,7.714,0,0,1,2.563-4.874C184.385,332.152,190.494,334.113,200.025,334.2Z"/><path class="a" d="M293.964,206.369c-4.612,0-9.244.251-13.824-.126a3.929,3.929,0,0,1-3.58-3.987c.019-1.967.322-4.053,2.514-4.784,10.912-3.637,22.077-2.564,33.171-1.283,1.286.148,2.893,2.579,3.294,4.211a4.486,4.486,0,0,1-3.817,5.764c-5.884.485-11.835.15-17.759.15Z"/><path class="a" d="M219.048,322.3c-13.651-.135-18.8-2.352-17.315-6.194,2.6-6.741,8.658-4.407,13.618-4.432a174.9,174.9,0,0,1,17.62.642c2.529.243,5.114,2.134,4.739,5.015-.176,1.353-2.517,2.955-4.177,3.46-2.464.75-5.195.626-7.812.875C222.458,321.975,219.2,322.286,219.048,322.3Z"/><path class="a" d="M268.515,310.677c17.274.171,23.065,2.335,21.149,6.562-3.746,8.263-11.536,3.935-17.577,4.559-4.513.465-9.186-.348-13.76-.852-2.764-.305-5.468-1.925-5.545-4.681-.074-2.643,2.173-4.8,5.113-5.05C262.485,310.822,267.1,310.742,268.515,310.677Z"/><path class="a" d="M246.414,390.165c-5.169-.275-9.769-.224-14.252-.924-1.5-.233-3.338-2.176-3.85-3.725a3.5,3.5,0,0,1,2.615-4.431,68.886,68.886,0,0,1,34.534,1.048c.767.219,1.466,2.209,1.41,3.335a4.229,4.229,0,0,1-1.777,3.142C258.889,391.628,252.211,388.868,246.414,390.165Z"/><path class="a" d="M297.636,390.413c-3.387,0-7.967.1-12.541-.037-2.825-.084-5.291-1.432-5.041-4.5.127-1.56,1.791-3.876,3.225-4.309,10.827-3.268,21.913-2.982,32.936-1.184,1.331.218,3,2.643,3.221,4.227.24,1.686-.766,4.06-3.072,4.3C310.543,389.531,304.693,389.868,297.636,390.413Z"/><path class="a" d="M276.2,368.493c-6.377-.532-12.219-.978-18.05-1.53a4.232,4.232,0,0,1-3.971-3.51c-.566-2.48,1.178-3.9,2.984-4.221,10.29-1.852,20.66-2.687,31.084-1.134a3.6,3.6,0,0,1,3.3,3.98c-.219,1.723-1.143,4.03-2.491,4.812C284.941,369.275,280.2,368.506,276.2,368.493Z"/><path class="a" d="M176.254,403.211c4.647,0,9.313-.252,13.935.091a4.515,4.515,0,0,1,4.406,5.384c-.279,1.6-2.094,3.856-3.564,4.166a80.892,80.892,0,0,1-13.816,1.515c-5.978.21-11.984.191-17.949-.186a4.155,4.155,0,0,1-3.974-3.758c-.355-2.985.526-5.927,3.2-6.363,5.831-.95,11.822-.928,17.747-1.3Z"/><path class="a" d="M282.183,227.444c-4.283-.182-8.791.945-11.8-1.964-3.844-3.712-6.612-1.921-10.1.155-1.538.916-3.845.846-5.774.732-3.026-.177-4.867-2.1-4.708-5.109.143-2.678,1.517-4.426,4.361-5.759,6.761-3.166,9.766,8.528,15.715,4.027,4.7-3.556,9.413-4.368,14.771-4.123,1.3.06,2.965-.013,3.8.724a9.632,9.632,0,0,1,3.127,4.635c.632,2.887-1.02,5.08-3.855,5.9A35.239,35.239,0,0,1,282.183,227.444Z"/><path class="a" d="M196.821,286.583a91.155,91.155,0,0,1,10.641.918c3.879.73,4.992,3.913,4.722,7.506-.257,3.43-3.018,4.083-5.644,4.155-7.928.219-15.866.338-23.795.183-3.843-.074-6.307-3.21-5.616-6.476.75-3.548,2.736-6.051,6.565-6.242C187.659,286.43,191.641,286.583,196.821,286.583Z"/><path class="a" d="M271.887,183.049c-5.76-.344-11.12-.268-16.319-1.143-2.61-.439-3.946-3.079-3.618-6.141a4.1,4.1,0,0,1,3.869-3.836q13.911-.194,27.823.446c1.645.079,3.409,1.827,4.72,3.187.774.8.856,2.341,1.088,3.579.313,1.67-.486,2.63-2.183,2.76C282,182.306,276.727,182.689,271.887,183.049Z"/><path class="a" d="M325.871,414.164c-5.217-.266-10.473-.234-15.634-.921a4.843,4.843,0,0,1-4.283-5.488c.251-1.6,2.036-4.023,3.4-4.225a99.952,99.952,0,0,1,31.155.256c1.275.214,2.773,2.684,3.077,4.312a4.636,4.636,0,0,1-3.985,5.679c-4.525.493-9.143.134-13.721.134Z"/><path class="a" d="M324.515,274.339c-5.876-.1-12,1.682-17.583-1.278a5.035,5.035,0,0,1-2.292-2.973c-.457-2.019.354-4.038,2.5-4.591,10.485-2.705,20.937-.991,31.305.829,1.395.245,3.073,2.5,3.437,4.095.477,2.084-1.423,3.726-3.448,3.838C333.805,274.515,329.155,274.339,324.515,274.339Z"/><path class="a" d="M276.13,414.464c-5.7-.274-9.617-.417-13.528-.664-3.411-.217-7.032-1.147-6.523-5.256.422-3.412,3.7-5.453,7.172-5.572,7.833-.272,15.682-.24,23.521-.118,3.6.056,6.682,1.813,6.168,5.755-.44,3.374-3.114,5.691-6.842,5.824C282.185,414.573,278.262,414.464,276.13,414.464Z"/><path class="a" d="M322.45,321.918c-5.341-1.255-11.62.739-16.924-2.774a4.586,4.586,0,0,1-1.416-3.431c.009-1.134.7-3.04,1.481-3.273,9.6-2.847,19.332-3.423,29.032-.532.9.269,1.608,1.96,1.963,3.125.672,2.207-.724,3.812-2.287,5.023C330.861,322.718,326.742,321.728,322.45,321.918Z"/><path class="a" d="M367.8,309.589c4.838.383,9.422.53,13.925,1.212a4.131,4.131,0,0,1,3.741,3.866c.274,3.056-1.258,5.821-3.55,6.238a83.006,83.006,0,0,1-29.255.027c-2.452-.43-4.172-2.834-3.879-5.92a4.3,4.3,0,0,1,3.685-3.969C357.609,310.274,362.834,310.022,367.8,309.589Z"/><path class="a" d="M197.313,380.027c14.029-.048,19.606,2,17.738,5.753-3.595,7.219-10.694,4.226-15.955,3.81-6.206-.491-14.793,4.747-18.336-5.365C185.327,376.464,193.031,382.225,197.313,380.027Z"/><path class="a" d="M147.319,379.521c7.547,1.042,13.041-.764,17.756,2.169,1.253.78,1.856,3.106,2.09,4.814a3.5,3.5,0,0,1-1.925,2.847c-10.318,2-20.7,2.508-30.888-.547-1.431-.429-3.094-2.784-3.2-4.347-.2-2.892,2.014-4.736,4.879-4.877C140.588,379.356,145.167,379.521,147.319,379.521Z"/><path class="a" d="M349.974,379.775c11.9-.672,17.717,1.438,16.108,5.392-3.015,7.406-9.894,4.5-15.383,4.984-5.179.456-10.517,1.428-15.476-.768a6.632,6.632,0,0,1-3.327-4.314c-.469-2.885,1.457-5.03,4.372-5.216C340.819,379.56,345.4,379.775,349.974,379.775Z"/><path class="a" d="M295.248,298.827a111.64,111.64,0,0,1-11.72-.131c-1.631-.174-3.676-1.027-3.809-3.653-.143-2.834.386-5.75,3-6.541,9.472-2.873,19.251-2.726,28.943-1.338,2.727.39,4.118,3.071,3.9,5.953-.216,2.838-1.858,5.145-4.665,5.34-5.191.362-10.426.1-15.642.1Z"/><path class="a" d="M224.793,403.247c3.924,0,7.851-.093,11.772.031,3.09.1,4.909,2.16,4.757,4.966a5.742,5.742,0,0,1-4.778,5.47,65.919,65.919,0,0,1-25.308-.18,4.778,4.778,0,0,1-3.643-5.958c.442-1.584,2.166-3.81,3.509-3.958,4.516-.5,9.119-.189,13.689-.189Z"/><path class="a" d="M348.4,298.985c-8.291,0-12.253.157-16.195-.053-2.793-.149-4.9-1.465-5.062-4.7-.138-2.822.671-6.03,3.324-6.374,9.725-1.265,19.56-3.127,29.334-.7,2.715.673,3.977,3.53,3.173,6.3-.484,1.668-1.9,4.067-3.236,4.309A100.643,100.643,0,0,1,348.4,298.985Z"/><path class="a" d="M394.949,390.829c-3.025-.218-7.051-.173-10.91-.953-1.5-.3-3.523-2.376-3.673-3.814-.145-1.386,1.5-3.659,2.926-4.35a19.311,19.311,0,0,1,7.607-1.682c6.594-.214,13.215-.291,19.787.152,1.252.084,3.1,2.728,3.259,4.334a5.949,5.949,0,0,1-2.5,4.719C406.6,392.022,401.116,390.4,394.949,390.829Z"/><path class="a" d="M372.545,402.256c6.192.472,10.822.657,15.4,1.249a3.558,3.558,0,0,1,3.031,4.268c-.353,1.709-1.6,4.219-2.932,4.58-9.7,2.63-19.589,2.126-29.355.3-1.372-.256-3.135-2.807-3.207-4.365-.067-1.481,1.632-4.143,2.922-4.394C363.542,402.892,368.824,402.634,372.545,402.256Z"/><path class="a" d="M122.931,368.6c.168.013-2.427-.078-4.986-.429-2.3-.316-3.144-4.257-1.582-6.4,2-2.745,4.451-4.983,7.839-5.342a75.483,75.483,0,0,1,11.726-.212c3.408.172,6.3,1.5,7.1,5.36.722,3.46-2.439,6.349-7.541,6.836-1.3.124-2.609.163-3.914.183C129.612,368.622,127.652,368.6,122.931,368.6Z"/><path class="a" d="M197.483,250.34c-5.008-.278-9.626-.174-14.1-.921-2.58-.43-4.666-2.722-3.755-5.685a6.816,6.816,0,0,1,3.591-4.064,22.713,22.713,0,0,1,7.74-.669,159.667,159.667,0,0,1,17.6,1.014c2.691.375,3.745,3.221,3.607,6.077-.108,2.237-1.507,3.94-3.378,4.13A109.491,109.491,0,0,1,197.483,250.34Z"/><path class="a" d="M399.4,286.77c-2.655,1.916-1.65,4.428-1.182,6.9.783,4.135-1.6,6.345-5.2,6.41a108.987,108.987,0,0,1-15.46-1.116c-3.088-.388-4.087-2.762-3.664-5.691.378-2.617.988-5.517,3.716-6.354,5.016-1.538,10.206-2.069,15.317-.016,2.214.89,4.436,2.855,6.741.144Z"/><path class="a" d="M383.375,262.84c-.094,1.844-.563,3.763-.208,5.516.818,4.031-.171,6.4-4.662,6.355-6.639-.064-13.28-.084-19.916-.268-2.041-.056-3.793-.974-4.157-3.313a5.484,5.484,0,0,1,3.763-6.218c3.054-1,6.5-.891,9.782-1.089,5.214-.314,10.436-.487,15.656-.72Z"/><path class="a" d="M324.12,368.332c-7.4-.683-12.891.832-17.744-2.111a4.3,4.3,0,0,1-1.63-3.2c-.006-1.139.678-2.975,1.537-3.32,11.584-4.65,23.3-3.355,34.934-.167.792.217,1.411,2.153,1.568,3.359a3.71,3.71,0,0,1-3.044,4.326C333.845,367.9,327.893,368.09,324.12,368.332Z"/><path class="a" d="M170.161,368.331c-4.142-.406-8.868.52-12.963-2.009a4.284,4.284,0,0,1-1.522-3.14c-.031-1.134.582-3.139,1.273-3.31,10.1-2.5,20.274-4.156,30.552-.877,2.3.733,2.6,2.723,2.552,4.659-.054,2.382-2.056,3.326-3.906,3.528C180.953,367.747,175.72,367.958,170.161,368.331Z"/><path class="a" d="M175.955,275.684c-3-.582-5.552-1.115-8.116-1.556-1.635-.282-2.467-1.15-2.136-2.734.253-1.212.456-3.026,1.261-3.438,6.586-3.369,13.463-4.343,20.4-1.115a3.972,3.972,0,0,1,1.542,3.257c-.085,1.115-1.052,2.818-1.983,3.095C183.238,274.294,179.418,274.937,175.955,275.684Z"/><path class="a" d="M451.553,378.93c-1.655.933-3.279,1.717-3,4.214.677,6-2.5,8.285-8.13,7.868-3.265-.242-6.637-.158-9.739-1.019-1.43-.4-2.9-2.555-3.339-4.185a4.715,4.715,0,0,1,3.685-5.913c5.134-1.11,10.489-1.305,15.513.573,2.369.886,3.613-.472,5.254-1.311C451.805,379.159,451.553,378.93,451.553,378.93Z"/><path class="a" d="M401.327,309.609c4.85.215,6.753,3.443,7.4,7.61.541,3.479-3.181,5.761-8.484,5.425-4.833-.307-7.664-3.012-7.431-7.1C393.031,311.763,396.686,309.214,401.327,309.609Z"/><path class="a" d="M243.336,245.005c3.212-6.286,8.9-4.112,13.862-3.929,6.177.228,9.724,2.579,8.29,5.031-2.3,3.934-6.067,4.567-10.115,4.427A16.087,16.087,0,0,1,243.336,245.005Z"/><path class="a" d="M342.806,195.74c.882,2.168,1.91,4.109,4.833,3.1-1.561,2.674-1.257,7.063-5.171,7.582-4.971.659-10.311,2.188-14.735-2.057-2.077-1.994-1.244-8,1.452-8.3C333.685,195.59,338.261,195.814,342.806,195.74Z"/><path class="a" d="M111.177,390.715a25.366,25.366,0,0,1-5.147-.687,3.753,3.753,0,0,1-2.109-2.573,5.019,5.019,0,0,1,1-3.58c2.757-3.245,6.571-4.148,10.627-3.768a4.978,4.978,0,0,1,4.693,5.251c.063,2.81-1.2,5.006-4.5,5.153Z"/><path class="a" d="M158.939,287.6c4-.195,7.944,3.588,7.294,7.2-.731,4.065-4,4.82-7.321,4.662-2.874-.136-7.137,1.009-7.019-4.067C152,290.825,155.043,287.79,158.939,287.6Z"/><path class="a" d="M226.684,248.567c-1.464-.992-3.759-1.695-4.267-3.062-1.177-3.16,1.533-4.34,3.986-4.9a14.946,14.946,0,0,1,5.61-.091,3.764,3.764,0,0,1,2.619,2.039,3.623,3.623,0,0,1-2.242,4.546A45.579,45.579,0,0,1,226.684,248.567Z"/><path class="a" d="M319.524,135.206c-6.608-1.493-8.978-5.822-8.206-12.254C318.7,123.031,320.788,126.147,319.524,135.206Z"/></svg>