<svg xmlns="http://www.w3.org/2000/svg" viewBox="0 0 543.348 543.348"><defs><style>.a{fill:#1f1e15;}.b{fill:#fcfcfb;}</style></defs><path class="a" d="M270.9,507.337q-106.987,0-213.977-.01c-5.329,0-10.662-.06-15.986-.281-3.059-.126-4.784-2.033-4.917-5.052-.206-4.655-.292-9.319-.293-13.979Q35.7,271.1,35.714,54.177c0-3.332-.073-6.668.049-10,.3-8.109.68-8.46,9.68-8.718,4-.114,8-.037,12-.037q213.978,0,427.955.033c25.474.013,22.283-2.876,22.3,22.238q.126,212.921,0,425.841c-.019,27.181,3.41,23.7-22.815,23.752Q377.886,507.494,270.9,507.337Zm128.274-268.5c.563.353,1.237,1.115,1.672,1,8.209-2.242,9.811-1.518,8.617,4.883-1.453,7.789-2.759,15.811-5.743,23.069-6.794,16.528-13.877,33.013-22.107,48.858-14.569,28.049-16.307,57.377-11.992,88.339,4.443-2.16,2.89-6.229,4.843-8.625,2.5-3.074,4.63-6.482,7.309-9.385,7.855-8.511,15.717-17.034,23.977-25.142,2.853-2.8,6.395-4.755,6.546-9.316.144-4.392,3.838-6.695,5.722-10.015,4.454-7.846,9.393-15.955,11.193-24.572,1.108-5.308,2.514-10.083,5.23-14.414,3.954-6.3-3.836-10.492-2.137-16.826,1.713-6.386-1.608-20.161-5.141-25.786-1.98-3.151-2.788-5.7-1.629-9.077.641-1.864,2.11-4.823,1.406-5.551-5.283-5.465-5.543-13.114-8.977-19.219-2.932-5.212-9.658-4.951-13.693-.649-3.431,3.658-4.382,8.051-4.591,12.805-3.155,2.344-7.731,4.018-9.21,7.151-5.255,11.137-16.193,16.846-23.624,25.943-8.176,10.009-18.45,18.177-22.879,31a12.053,12.053,0,0,1-4.655,6.085c-6.443,3.828-6.445,9.311-5.307,15.6a83.37,83.37,0,0,1,1.021,11.8c.236,6.53,8.254,29.682,12.405,34.513,1.964,2.286,3.768,5.5,8.215,3.808,1.326-6.971,2.982-14.088,3.976-21.3a93.556,93.556,0,0,1,8.625-28.483c5.237-10.746,10.364-21.557,15.1-32.527,5.533-12.8,10.9-25.7,15.7-38.784C400.779,249.3,403.126,243.9,399.171,238.834ZM48.919,131c-.354,1.282-.422,2.746-1.106,3.817-5.374,8.428-4.469,16.138,2.069,23.577,10.6,12.066,18.887,25.755,26.349,39.862,6.086,11.5,15.544,17.824,27.694,20.892,8.358,2.109,16.846,3.76,25.094,6.224,11.726,3.5,23.706,3.119,35.632,2.827,6.522-.16,13.533-.364,19.916-8.921-13.688.937-24.619-3.51-34.972-9.337A117.039,117.039,0,0,0,108.266,196c-10.654-1.526-12.582-3.974-13.353-13.805-1.958-24.988,1.114-49.1,12.518-71.764,2.684-5.336,5.259-10.727,7.768-16.147.8-1.725,1.951-3.776,1.611-5.4-.349-1.664-2.171-3.17-3.633-4.41-1.773-1.5-3.722-1-4.6,1.044-1.572,3.659-2.824,7.461-4.111,11.236-1.657,4.861-1.33,13.507-6.24,13.258-6.064-.307-2.515-8.327-3.4-12.909-.969-5-3.384-6.8-8.2-5.046-1.857.678-3.5,1.939-5.362,2.6-4.767,1.693-4.017,3.925-1.131,6.95,2.218,2.323,1.4,5.053-.449,7.167-7.98,9.108-14.161,19.2-17.747,30.836a6.258,6.258,0,0,1-2.332,3.165,4.888,4.888,0,0,1-3.625.608,4.747,4.747,0,0,1-2.77-2.449c-1.614-4.119.052-7.759,2.2-11.233,4.993-7.571,10-15.134,14.952-22.73a1.992,1.992,0,0,0,.177-1.7c-.276-.511-1-.779-2.3-1.685A49.631,49.631,0,0,0,48.919,131ZM347.972,444.174c-10.6-4.531-21.059-6.841-32.653-2.41-5.324,2.035-11.813.989-17.768,1.423-4.585.336-9.381.018-13.047,3.665-14.226,3.473-28.545,6.611-42.659,10.491-26.674,7.334-53.638,9.928-81.072,5.919-4.906-.717-10.992,1.131-14.154-4.687-1.677-3.085,2.084-4.448,15.333-2.2a145.4,145.4,0,0,0,55.559-1.37c18.206-3.926,36.25-8.627,54.3-13.237,8.454-2.16,16.759-4.906,26.1-7.674-6.432-4.169-11.3-7.553-16.4-10.536-2.824-1.653-6.307-4.128-9.032-3.643-8.556,1.524-15.62-1.889-22.948-4.968-2.475-1.041-5.564-2.221-7.454-.014-5.248,6.13-11.74,5.076-18.336,4-3.289-.538-6.683-1.54-9.242,1.446-3.6,4.2-8.157,3.867-12.863,3.177-3.487-.511-6.684.066-9.073,2.805-4.364,5-12.716.126-16.1,5.934-4.185,7.186-11.659,5.107-17.4,7.717-12.522,5.692-25.122,10.684-39.37,8.23a11.433,11.433,0,0,0-5.87.819c-1.688.675-4.041,2.024-4.275,3.389-.27,1.577,1.029,3.976,2.388,5.188,8.247,7.357,26.044,14.689,39.2,20.651,8.52,3.861,18.718,1.866,25.913,8.761,8.8-2.644,16.717,8.426,26.116,1.249,5.7-4.353,8.624,4.749,13.838,4.265,5.054-.47,8.737-7.313,14.6-3.6,4.066,2.574,7.293,1.649,11.023-.558,2.725-1.614,5.319-5.027,8.856-3.525,6.368,2.7,9.891-.851,13.653-4.895,1.295-1.394,3.954-3.418,4.886-2.952,7.15,3.581,9.349-2.056,12.618-6.071,1.2-1.476,3.093-3.747,4.387-3.571,8.524,1.157,11.187-4.537,14.65-10.545,1.794-3.112,6.248-4.692,9.446-6.916,13.528-4.141,27.661-.359,41.292-3.154,7.411.407,15.34,1.209,20.582,6.348,10.639,10.428,24.852,14.227,37,21.765,7.863,4.878,16.606,8.191,22.673,15.756,3.511,4.378,8.066,3.769,12.419.876a58.673,58.673,0,0,1,25.405-9.357c-8.062-3.433-14.09-6.113-20.207-8.575-9.355-3.765-18.484-7.712-22.823-17.886-1.235-2.895-3.97-3.374-6.664-3.123-17.723,1.649-28.381-8.06-36.822-22.082-3.079-5.116-4.493-11.725-10.829-15.181-.089,1.41-.11,2.072-.176,2.73-.894,8.921-2.7,10.769-8.609,7.98-11.286-5.327-24.245-9.059-25.19-25.695-16.321,3.775-28.033-3.151-38.614-13.054a39.657,39.657,0,0,0-2.941-2.689c-13.9-10.6-26.4-22.293-31.477-39.859-1-3.448-4-4.722-6.573-6.805-16.512-13.381-25.173-30.05-20-51.941.7-2.95.889-6.018,1.334-9.17-11.532-3.374-20.8.286-28.876,8.2,6.737,15.857,21.263,27.193,23.68,44.927.073.533.849.991,1.335,1.443C248.862,342.368,253.471,358.6,265,369.806c.908.882,2.1,2.382,1.908,3.35-2.565,13.062,6.039,14.771,15.676,16.626,3.531.68,6.668,4.239,9.635,6.878,15.917,14.151,32.569,27.273,51.451,37.317C347.989,436.273,348.306,440.032,347.972,444.174ZM212.133,235.755l-.5-.482c.77,3.324.127,6.385-.773,9.7-1.1,4.042,3.72,8.455,6.971,6.5,13.875-8.337,29.165-8.105,44.439-8.075,7.554.015,14.554-2.714,20.948-5.677a25.313,25.313,0,0,0,15.046-24.067c-.271-14.587-1.714-29.191-3.442-43.695-.852-7.15-2.354-14.58-8.684-19.6-2.091-1.657-4.071-3.321-7.042-2.988-3.891.436-3.268,3.39-3.477,5.9-.869,10.491-5.069,20.305-4.506,31.3.435,8.467-4.66,16.427-9.9,23.437-1.675,2.239-4.338,3.882-6.9,2.892-2.716-1.053-2.962-4.271-2.2-6.8,1.135-3.786,3.058-7.334,4.233-11.111a39.6,39.6,0,0,0,1.9-9.657c.309-6.2-4.918-10.071-10.507-7.737-8.044,3.361-15.148,7.989-20.759,15-7.879,9.841-16.257,19.285-24.508,28.825-7.14,8.254-16.1,13.652-26.433,17.155-13.054,4.425-26,4.537-39.277,1.068-8.771-2.291-17.229-7.483-27.47-4.154,6.395,24.311,17.652,44.432,39.726,57.772,8.553,5.17,15.173,6.694,23.068-.61,3.792-3.509,9.064-5.481,13.793-7.9,7.108-3.637,14.327-7.055,21.5-10.565,4.31-2.11,8.117-4.806,8.917-9.912.381-2.433.9-5.423-2.926-6.125-11.683-2.142-23.38-3.781-35.269-1.685-4.594.81-9.212,1.482-13.812,2.257a39.733,39.733,0,0,1-17.809-1.012,22.245,22.245,0,0,1-6.721-3.878c-.785-.587-1.514-2.553-1.127-3.145.979-1.5,3.073-3.91,3.9-3.621,16.74,5.841,32.821-3.87,49.4-1.988,2.928.332,6.215-1.9,9.239-3.172C204.77,238.384,207.736,235.2,212.133,235.755Zm5.012-61.461c-10.7,3.815-17.729,5.269-25,5.508-8.062.263-15.881-.084-23.534-2.983-3.676-1.393-6.189.516-7.793,4.005a34.7,34.7,0,0,1-3.953,6.677c-1.618,2.1-5.935,1-6.079-1.666-.642-11.91-6.706-21.041-13.762-30.108-7.709-9.905-8.654-21.966-8.128-34.074a11.581,11.581,0,0,1,6.158-9.678c6.511-3.8,10.97-9.6,15.384-15.424,3.3-4.351,1.813-7.523-3.184-8.456-8.175-1.527-14.229,1.137-18.868,7.926C115,115.612,107.569,137.4,104.523,160.756a52.908,52.908,0,0,0,.326,11.943c.827,8.276,2.076,10.083,10.474,11.907,16.318,3.546,32.211,7.937,46.348,17.33,2.7,1.792,6.111,2.589,9.276,3.584,16.346,5.14,30.663.03,39.5-14.5C212.786,187.163,213.9,182.558,217.145,174.294Zm112.226-27.565c-1.142-2.047-2.135-4.525-3.716-6.545-8.339-10.655-13.736-22.428-15.527-35.989-.588-4.456-2.035-9.8-5.038-12.755C294.9,81.406,283.876,72.224,273.048,62.855c-.616-.533-2.679-.233-3.394.419-.755.688-1.349,2.676-.9,3.385,3.543,5.555,7.484,10.857,11.057,16.395,6.9,10.691,14.409,22.265,11.366,35-2.928,12.248.845,21.415,6.033,31.313,2.75,5.244,4.534,11,6.673,16.554,1.562,4.058,1.144,10.18,6.883,10.433,4,.177,6.459-4.375,8.524-7.69,3.139-5.037,5.817-10.374,8.468-15.7C328.615,151.252,328.764,149.185,329.371,146.729ZM195.313,82.33c3.546,6.3,6.819,12.863,13.344,16.651,8.983,5.214,15.529,12.084,18.214,22.409A15.7,15.7,0,0,0,230.957,128a44.493,44.493,0,0,1,12.263,24.392c.749,4.366,2.22,7.528,7.268,7.509,6.568-.024,11.139-2.694,12.447-7.735a24.4,24.4,0,0,0,.789-7.817c-2.219-29.746-17.871-50.6-44.088-63.288C212.563,77.637,203.43,74.085,195.313,82.33Zm77.563,45.607c7.04-23.968,1.414-44.383-17.567-60.625a103.847,103.847,0,0,1-13.462-14.584c-9.161-11.557-12.7-11.138-25.208-4.174-2.651,1.474-6.039,2.564-7.21,6.4,3.665,7.242,9.463,12.089,17.046,15.452,23.21,10.29,38.539,27.451,44.562,52.444A47.272,47.272,0,0,0,272.876,127.937ZM61.591,204.379c-3.024,8.259-1.032,14.451,1.485,20.587,2.265,5.522,6.073,10.914,6.531,16.579,1.447,17.885,12.991,22.6,28.059,23.711,1.94.144,3.95.622,5.792.258.932-.185,2.358-2.044,2.207-2.91-2.185-12.5-5.3-25.449-15.422-33.379A330.486,330.486,0,0,1,61.591,204.379Zm131.043-143.3c-14.122-1.241-22.182-7.685-31.613-10.557-1.357-.413-3.715-2.354-4.226,1.186-.763,5.287-4.665,5.283-8.811,5.605-18.6,1.445-21.037,3.729-25.334,23.412,11.18-3.406,22.159-4.5,33.413-2.4,5.322.994,11.361.06,14.723-4.1C175.622,68.249,182.856,66.827,192.634,61.082ZM178.442,94.76c-9.857-.837-16.925,2.152-21.453,9.738-4.372,7.324-7.03,15.557-12.819,22.222-1.616,1.861-.506,6.33-.166,9.553.181,1.721.523,4.243,3.348,3.847,1.2-.169,3.006-.727,3.348-1.582,5.04-12.615,16.263-18.848,26.56-26.033,2.159-1.507,4.556-2.685,6.646-4.274a5.553,5.553,0,0,0,2.021-6.994c-.987-2.457-1.859-5.037-4.746-5.923A18.024,18.024,0,0,0,178.442,94.76Zm7.981,29.41c-11.085,4.591-20.852,10.755-27.78,20.823-3.021,4.39-3.4,11.312-.8,12.69,3.763,1.993,5.772-1.732,8.626-2.714,2.488-.856,5.021-1.594,7.473-2.541,5.24-2.024,8.306-6.263,10.782-11C187.472,136.167,190.317,130.878,186.423,124.17Zm-5.8,42.423c17.1,1.4,27.635-4.092,38.34-8.843,4.785-2.122,6.631-6.147,6.146-11.191-.182-1.9-.372-4.512-1.591-5.431-2.5-1.89-4.915.02-6.431,2.118C209.1,154.316,197.342,159.859,180.626,166.593Zm28.224-50.431c-1.116.507-3.073.853-3.207,1.549a116.472,116.472,0,0,0-1.449,11.819c-.041.475.832,1.494,1.187,1.453a6.611,6.611,0,0,0,3.421-1.062c4.281-3.674,3.605-8.115,1.535-12.617C210.107,116.805,209.36,116.542,208.85,116.162ZM143.922,45.394c-4.143-1.63-7.265-1.33-10.238.3-3.859,2.116-8.928,2.392-11.042,7.188,5.409,4.37,7.538-2.46,11.405-3.434C137.241,48.644,140.213,46.959,143.922,45.394Zm57.355,253.544c.608-.171,1.687-.238,1.751-.529.679-3.068,1.229-6.168,1.681-9.278.028-.2-1.036-.732-1.632-.81-2.644-.348-3.5,1.534-3.784,3.558C198.927,294.445,199.013,297.038,201.277,298.938Zm56.174-36.73c1.229,3.519,4.127,4.387,7.381,4.556.517.027,1.571-.715,1.527-.913-.711-3.2-2.718-5.19-6.041-5.292C259.4,260.531,258.438,261.609,257.451,262.208Zm-13.52-5.09-1.832-2.647c-.761.794-1.964,1.5-2.137,2.409-.128.675,1.077,1.6,1.689,2.42C242.411,258.577,243.171,257.853,243.931,257.118Z"/><path class="b" d="M212.133,235.755c-4.4-.551-7.363,2.629-10.972,4.153-3.024,1.276-6.311,3.5-9.239,3.172-16.574-1.882-32.655,7.829-49.4,1.988-.831-.289-2.925,2.123-3.9,3.621-.387.592.342,2.558,1.127,3.145a22.245,22.245,0,0,0,6.721,3.878,39.733,39.733,0,0,0,17.809,1.012c4.6-.775,9.218-1.447,13.812-2.257,11.889-2.1,23.586-.457,35.269,1.685,3.824.7,3.307,3.692,2.926,6.125-.8,5.106-4.607,7.8-8.917,9.912-7.172,3.51-14.391,6.928-21.5,10.565-4.729,2.418-10,4.39-13.793,7.9-7.9,7.3-14.515,5.78-23.068.61-22.074-13.34-33.331-33.461-39.726-57.772,10.241-3.329,18.7,1.863,27.47,4.154,13.278,3.469,26.223,3.357,39.277-1.068,10.337-3.5,19.293-8.9,26.433-17.155,8.251-9.54,16.629-18.984,24.508-28.825,5.611-7.01,12.715-11.638,20.759-15,5.589-2.334,10.816,1.533,10.507,7.737a39.6,39.6,0,0,1-1.9,9.657c-1.175,3.777-3.1,7.325-4.233,11.111-.759,2.533-.513,5.751,2.2,6.8,2.559.99,5.222-.653,6.9-2.892,5.242-7.01,10.337-14.97,9.9-23.437-.563-11,3.637-20.81,4.506-31.3.209-2.513-.414-5.467,3.477-5.9,2.971-.333,4.951,1.331,7.042,2.988,6.33,5.016,7.832,12.446,8.684,19.6,1.728,14.5,3.171,29.108,3.442,43.695a25.313,25.313,0,0,1-15.046,24.067c-6.394,2.963-13.394,5.692-20.948,5.677-15.274-.03-30.564-.262-44.439,8.075-3.251,1.953-8.069-2.46-6.971-6.5.9-3.312,1.543-6.373.776-9.7,12.423-2.517,22.435-10.381,33.8-15.248a2.643,2.643,0,0,0,1.277-1.448c.394-1.155,1-2.518.706-3.566a3.469,3.469,0,0,0-4.465-2.61c-6.192,2.1-12.1,5.513-18.436,6.606C214.4,220.755,211.866,226.937,212.133,235.755Z"/><path class="b" d="M311.177,449.884c-3.252,2.272-7.706,3.852-9.5,6.964-3.463,6.008-6.126,11.7-14.65,10.545-1.294-.176-3.185,2.1-4.387,3.571-3.269,4.015-5.468,9.652-12.618,6.071-.932-.466-3.591,1.558-4.886,2.952-3.762,4.044-7.285,7.6-13.653,4.895-3.537-1.5-6.131,1.911-8.856,3.525-3.73,2.207-6.957,3.132-11.023.558-5.862-3.713-9.545,3.13-14.6,3.6-5.214.484-8.136-8.618-13.838-4.265-9.4,7.177-17.317-3.893-26.116-1.249-7.195-6.895-17.393-4.9-25.913-8.761-13.153-5.962-30.95-13.294-39.2-20.651-1.359-1.212-2.658-3.611-2.388-5.188.234-1.365,2.587-2.714,4.275-3.389a11.433,11.433,0,0,1,5.87-.819c14.248,2.454,26.848-2.538,39.37-8.23,5.743-2.61,13.217-.531,17.4-7.717,3.382-5.808,11.734-.93,16.1-5.934,2.389-2.739,5.586-3.316,9.073-2.805,4.706.69,9.265,1.023,12.863-3.177,2.559-2.986,5.953-1.984,9.242-1.446,6.6,1.079,13.088,2.133,18.336-4,1.89-2.207,4.979-1.027,7.454.014,7.328,3.079,14.392,6.492,22.948,4.968,2.725-.485,6.208,1.99,9.032,3.643,5.1,2.983,9.966,6.367,16.4,10.536-9.343,2.768-17.648,5.514-26.1,7.674-18.051,4.61-36.095,9.311-54.3,13.237a145.4,145.4,0,0,1-55.559,1.37c-13.249-2.252-17.01-.889-15.333,2.2,3.162,5.818,9.248,3.97,14.154,4.687,27.434,4.009,54.4,1.415,81.072-5.919,14.114-3.88,28.433-7.018,42.651-10.489,6.228-.208,12.469-.3,18.695-.671C306.633,445.98,309.27,447.019,311.177,449.884Z"/><path class="b" d="M347.972,444.174c.334-4.142.017-7.9-4.3-10.2-18.882-10.044-35.534-23.166-51.451-37.317-2.967-2.639-6.1-6.2-9.635-6.878-9.637-1.855-18.241-3.564-15.676-16.626.19-.968-1-2.468-1.908-3.35-11.531-11.207-16.14-27.438-27.956-38.423-.486-.452-1.262-.91-1.335-1.443-2.417-17.734-16.943-29.07-23.68-44.927,8.075-7.911,17.344-11.571,28.876-8.2-.445,3.152-.637,6.22-1.334,9.17-5.177,21.891,3.484,38.56,20,51.941,2.572,2.083,5.577,3.357,6.573,6.805,5.075,17.566,17.579,29.256,31.477,39.859a39.657,39.657,0,0,1,2.941,2.689c10.581,9.9,22.293,16.829,38.614,13.054.945,16.636,13.9,20.368,25.19,25.695,5.91,2.789,7.715.941,8.609-7.98.066-.658.087-1.32.176-2.73,6.336,3.456,7.75,10.065,10.829,15.181,8.441,14.022,19.1,23.731,36.822,22.082,2.694-.251,5.429.228,6.664,3.123,4.339,10.174,13.468,14.121,22.823,17.886,6.117,2.462,12.145,5.142,20.207,8.575a58.673,58.673,0,0,0-25.405,9.357c-4.353,2.893-8.908,3.5-12.419-.876-6.067-7.565-14.81-10.878-22.673-15.756-12.148-7.538-26.361-11.337-37-21.765-5.242-5.139-13.171-5.941-20.54-6.338C351.6,444.869,349.98,444.188,347.972,444.174Z"/><path class="b" d="M55.408,129.7c-2.146,3.474-3.812,7.114-2.2,11.233a4.747,4.747,0,0,0,2.77,2.449,4.888,4.888,0,0,0,3.625-.608,6.258,6.258,0,0,0,2.332-3.165c3.586-11.634,9.767-21.728,17.747-30.836,1.852-2.114,2.667-4.844.449-7.167-2.886-3.025-3.636-5.257,1.131-6.95,1.861-.66,3.505-1.921,5.362-2.6,4.815-1.759,7.23.042,8.2,5.046.888,4.582-2.661,12.6,3.4,12.909,4.91.249,4.583-8.4,6.24-13.258,1.287-3.775,2.539-7.577,4.111-11.236.876-2.04,2.825-2.547,4.6-1.044,1.462,1.24,3.284,2.746,3.633,4.41.34,1.624-.813,3.675-1.611,5.4-2.509,5.42-5.084,10.811-7.768,16.147C96.027,133.1,92.955,157.207,94.913,182.2c.771,9.831,2.7,12.279,13.353,13.805A117.039,117.039,0,0,1,149.6,209.941c10.353,5.827,21.284,10.274,34.972,9.337-6.383,8.557-13.394,8.761-19.916,8.921-11.926.292-23.906.675-35.632-2.827-8.248-2.464-16.736-4.115-25.094-6.224-12.15-3.068-21.608-9.387-27.694-20.892-7.462-14.107-15.745-27.8-26.349-39.862-6.538-7.439-7.443-15.149-2.069-23.577.684-1.071.752-2.535,1.1-3.8C51.075,130.585,53.241,130.142,55.408,129.7Z"/><path class="b" d="M399.638,239.181c.247-4.727,1.2-9.12,4.629-12.778,4.035-4.3,10.761-4.563,13.693.649,3.434,6.105,3.694,13.754,8.977,19.219.7.728-.765,3.687-1.406,5.551-1.159,3.378-.351,5.926,1.629,9.077,3.533,5.625,6.854,19.4,5.141,25.786-1.7,6.334,6.091,10.522,2.137,16.826-2.716,4.331-4.122,9.106-5.23,14.414-1.8,8.617-6.739,16.726-11.193,24.572-1.884,3.32-5.578,5.623-5.722,10.015-.151,4.561-3.693,6.514-6.546,9.316-8.26,8.108-16.122,16.631-23.977,25.142-2.679,2.9-4.8,6.311-7.309,9.385-1.953,2.4-.4,6.465-4.843,8.625-4.315-30.962-2.577-60.29,11.992-88.339,8.23-15.845,15.313-32.33,22.107-48.858,2.984-7.258,4.29-15.28,5.743-23.069,1.194-6.4-.408-7.125-8.617-4.883-.435.118-1.109-.644-1.672-1Z"/><path class="b" d="M217.145,174.294c-3.25,8.264-4.359,12.869-6.7,16.724-8.833,14.532-23.15,19.642-39.5,14.5-3.165-1-6.578-1.792-9.276-3.584-14.137-9.393-30.03-13.784-46.348-17.33-8.4-1.824-9.647-3.631-10.474-11.907a52.908,52.908,0,0,1-.326-11.943C107.569,137.4,115,115.612,128.386,96.021c4.639-6.789,10.693-9.453,18.868-7.926,5,.933,6.48,4.105,3.184,8.456-4.414,5.827-8.873,11.625-15.384,15.424a11.581,11.581,0,0,0-6.158,9.678c-.526,12.108.419,24.169,8.128,34.074,7.056,9.067,13.12,18.2,13.762,30.108.144,2.667,4.461,3.765,6.079,1.666a34.7,34.7,0,0,0,3.953-6.677c1.6-3.489,4.117-5.4,7.793-4.005,7.653,2.9,15.472,3.246,23.534,2.983C199.416,179.563,206.449,178.109,217.145,174.294Z"/><path class="b" d="M399.171,238.834c3.955,5.068,1.608,10.462-.122,15.175-4.8,13.087-10.169,25.981-15.7,38.784-4.74,10.97-9.867,21.781-15.1,32.527a93.556,93.556,0,0,0-8.625,28.483c-.994,7.208-2.65,14.325-3.976,21.3-4.447,1.7-6.251-1.522-8.215-3.808-4.151-4.831-12.169-27.983-12.405-34.513a83.37,83.37,0,0,0-1.021-11.8c-1.138-6.285-1.136-11.768,5.307-15.6a12.053,12.053,0,0,0,4.655-6.085c4.429-12.821,14.7-20.989,22.879-31,7.431-9.1,18.369-14.806,23.624-25.943,1.479-3.133,6.055-4.807,9.191-7.164Z"/><path class="b" d="M329.371,146.729c-.607,2.456-.756,4.523-1.61,6.239-2.651,5.321-5.329,10.658-8.468,15.7-2.065,3.315-4.524,7.867-8.524,7.69-5.739-.253-5.321-6.375-6.883-10.433-2.139-5.555-3.923-11.31-6.673-16.554-5.188-9.9-8.961-19.065-6.033-31.313,3.043-12.734-4.468-24.308-11.366-35-3.573-5.538-7.514-10.84-11.057-16.395-.452-.709.142-2.7.9-3.385.715-.652,2.778-.952,3.394-.419C283.876,72.224,294.9,81.406,305.09,91.44c3,2.959,4.45,8.3,5.038,12.755,1.791,13.561,7.188,25.334,15.527,35.989C327.236,142.2,328.229,144.682,329.371,146.729Z"/><path class="b" d="M195.313,82.33c8.117-8.245,17.25-4.693,24.323-1.27,26.217,12.69,41.869,33.542,44.088,63.288a24.4,24.4,0,0,1-.789,7.817c-1.308,5.041-5.879,7.711-12.447,7.735-5.048.019-6.519-3.143-7.268-7.509A44.493,44.493,0,0,0,230.957,128a15.7,15.7,0,0,1-4.086-6.609c-2.685-10.325-9.231-17.2-18.214-22.409C202.132,95.193,198.859,88.633,195.313,82.33Z"/><path class="b" d="M272.876,127.937a47.272,47.272,0,0,1-1.839-5.089c-6.023-24.993-21.352-42.154-44.562-52.444-7.583-3.363-13.381-8.21-17.046-15.452,1.171-3.834,4.559-4.924,7.21-6.4,12.511-6.964,16.047-7.383,25.208,4.174a103.847,103.847,0,0,0,13.462,14.584C274.29,83.554,279.916,103.969,272.876,127.937Z"/><path class="b" d="M61.591,204.379a330.486,330.486,0,0,0,28.652,24.846c10.12,7.93,13.237,20.876,15.422,33.379.151.866-1.275,2.725-2.207,2.91-1.842.364-3.852-.114-5.792-.258-15.068-1.115-26.612-5.826-28.059-23.711-.458-5.665-4.266-11.057-6.531-16.579C60.559,218.83,58.567,212.638,61.591,204.379Z"/><path class="b" d="M192.634,61.082c-9.778,5.745-17.012,7.167-21.848,13.149-3.362,4.157-9.4,5.091-14.723,4.1-11.254-2.1-22.233-1.006-33.413,2.4,4.3-19.683,6.738-21.967,25.334-23.412,4.146-.322,8.048-.318,8.811-5.605.511-3.54,2.869-1.6,4.226-1.186C170.452,53.4,178.512,59.841,192.634,61.082Z"/><path class="b" d="M178.442,94.76a18.024,18.024,0,0,1,2.739.554c2.887.886,3.759,3.466,4.746,5.923a5.553,5.553,0,0,1-2.021,6.994c-2.09,1.589-4.487,2.767-6.646,4.274-10.3,7.185-21.52,13.418-26.56,26.033-.342.855-2.148,1.413-3.348,1.582-2.825.4-3.167-2.126-3.348-3.847-.34-3.223-1.45-7.692.166-9.553,5.789-6.665,8.447-14.9,12.819-22.222C161.517,96.912,168.585,93.923,178.442,94.76Z"/><path class="b" d="M186.423,124.17c3.894,6.708,1.049,12-1.7,17.256-2.476,4.739-5.542,8.978-10.782,11-2.452.947-4.985,1.685-7.473,2.541-2.854.982-4.863,4.707-8.626,2.714-2.6-1.378-2.221-8.3.8-12.69C165.571,134.925,175.338,128.761,186.423,124.17Z"/><path class="b" d="M180.626,166.593c16.716-6.734,28.47-12.277,36.464-23.347,1.516-2.1,3.926-4.008,6.431-2.118,1.219.919,1.409,3.536,1.591,5.431.485,5.044-1.361,9.069-6.146,11.191C208.261,162.5,197.724,167.994,180.626,166.593Z"/><path class="b" d="M347.972,444.174c2.008.014,3.63.7,4.485,2.614-13.673,2.785-27.806-1-41.307,3.12-1.88-2.889-4.517-3.928-7.959-3.725-6.226.368-12.467.463-18.695.671,3.674-3.649,8.47-3.331,13.055-3.667,5.955-.434,12.444.612,17.768-1.423C326.913,437.333,337.374,439.643,347.972,444.174Z"/><path class="b" d="M55.408,129.7c-2.167.442-4.333.885-6.5,1.314A49.655,49.655,0,0,1,68.24,103.588c1.293.906,2.021,1.174,2.3,1.685a1.992,1.992,0,0,1-.177,1.7C65.406,114.566,60.4,122.129,55.408,129.7Z"/><path class="b" d="M208.851,116.166c.509.376,1.256.639,1.486,1.138,2.07,4.5,2.746,8.943-1.535,12.617a6.611,6.611,0,0,1-3.421,1.062c-.355.041-1.228-.978-1.187-1.453a116.472,116.472,0,0,1,1.449-11.819C205.777,117.015,207.734,116.669,208.851,116.166Z"/><path class="b" d="M143.922,45.394c-3.709,1.565-6.681,3.25-9.875,4.053-3.867.974-6,7.8-11.4,3.434,2.114-4.8,7.183-5.072,11.042-7.188C136.657,44.064,139.779,43.764,143.922,45.394Z"/><path class="b" d="M201.274,298.939c-2.261-1.9-2.347-4.494-1.981-7.06.289-2.024,1.14-3.906,3.784-3.558.6.078,1.66.612,1.632.81-.452,3.11-1,6.21-1.681,9.278C202.964,298.7,201.885,298.767,201.274,298.939Z"/><path class="b" d="M257.451,262.208c.987-.6,1.944-1.677,2.867-1.649,3.323.1,5.33,2.09,6.041,5.292.044.2-1.01.94-1.527.913C261.578,266.6,258.68,265.727,257.451,262.208Z"/><path class="b" d="M243.931,257.124q-1.14,1.093-2.28,2.176c-.612-.816-1.817-1.745-1.689-2.42.173-.905,1.376-1.615,2.137-2.409Q243.016,255.794,243.931,257.124Z"/><path class="a" d="M212.133,235.755c-.267-8.818,2.263-15,12.38-16.747,6.333-1.093,12.244-4.5,18.436-6.606a3.469,3.469,0,0,1,4.465,2.61c.3,1.048-.312,2.411-.706,3.566a2.643,2.643,0,0,1-1.277,1.448c-11.363,4.867-21.375,12.731-33.8,15.248Z"/></svg>