<svg xmlns="http://www.w3.org/2000/svg" viewBox="0 0 543.348 543.348"><defs><style>.a{fill:#077ec6;}.b{fill:#fcfcfb;}</style></defs><path class="a" d="M481.049,333.624c-5.573-2.139-11.08-4.478-16.742-6.351-4.062-1.344-8.553-.552-11.1,2.61-6.626,8.218-9.656,17.778-9.835,28.913,6.695-1.48,6.189-6.658,8.817-9.446,7.255-7.7,16.736-6.747,21.057,2.721,2.711,5.943,2.964,14.1,11.11,14.954,7.207.755,11.628-5.542,16.567-9.906a31.4,31.4,0,0,1,3.263-2.235c4.706.883,3.666,4.747,3.688,7.742.121,15.987.076,31.977.06,47.965,0,4.642.414,9.42-3.057,13.249-2.55,2.813-2.612,6.075-1.3,9.244,1.417,3.43,6.287,6.815,2.2,10.309-2.587,2.212-7.349,1.882-11.533,2.777.469,7.034,8.91,7.192,11.052,13.031,1.692,4.611,2.042,7.454-1.6,10.477-4.246,3.53-9.171,5.183-14.464,6.317a340.677,340.677,0,0,1-45.389,6.742c-31.827,2.447-63.637,5.125-95.459,7.643a60.686,60.686,0,0,1-9.979.067c-40.509-3.521-81.128-2.467-121.7-2.731-26.7-.174-53.171-2.924-79.652-5.592-19.853-2-39.64-4.741-59.4-7.567a136.5,136.5,0,0,1-21.26-5.052c-5.2-1.624-9.762-4.642-9.725-11.163.033-5.769,4.323-7.724,8.751-9.486,1.237-.493,2.684-.662,3.709-1.42.829-.612,1.811-2.095,1.575-2.817a4.2,4.2,0,0,0-2.659-2.593c-5.246-.6-10.539-.769-15.806-1.208-4.894-.407-6.1-2.311-5.16-8.211.411-2.579,2.307-5.577,1.509-7.584-4.9-12.328-2.516-25.084-2.541-37.591q-.325-163.884-.135-327.768c-.005-24.674-1.142-22.63,22.75-22.633q212.907-.024,425.813-.007c4,0,8-.09,11.994.043,10.018.334,11.209,1.411,11.407,11.719.218,11.322.07,22.65.07,33.975q0,116.917,0,233.835v13.161c-8.8-2.013-10.989-8.04-12.807-14.021-.739-2.434.111-5.305-.144-7.94-1.271-13.181-10.878-18.112-22.652-11.594-2.9,1.606-5.419,3.908-8.323,5.51a33.948,33.948,0,0,1-9.07,3.89c-4.805,1.009-9.415-.173-12.317-4.525-3.015-4.521-1.607-8.339,1.722-12.534,4.623-5.825,4.043-7.583-.25-11.147-3.747-3.11-7.776-5.168-12.728-4.743-3.315.284-6.6,1.151-9.911,1.19-9.069.1-13.142-6.64-9.08-14.715,5.142-10.222,14.992-13.026,25.235-7.529,7.338,3.938,11.76,10.632,16.892,16.695,3.507,3.965,6.409,8.656,11.6,10.691a9.212,9.212,0,0,0,5.748.576c1.993-.667,2.231-2.948,1.315-4.9-2.111-4.5-3.307-9.141,1.25-12.66,5.264-4.065,9.941-1.881,13.991,2.475a8.415,8.415,0,0,0,1.461,1.36c4.154,2.723,7.368,1.723,9.271-2.848,4.827-11.591,1.674-24.543-7.963-32.139-2.064-1.627-4.627-2.631-6.658-4.292-3.179-2.6-2.413-7.608,1.106-10.314,3.665-2.818,9.131-2.3,11.959-6.553-5.7-14.567-5.619-14.721-16.651-20.472-6.332-3.3-11.494-8.291-18.674-10.6-6.121-1.966-8.195-9.2-6.554-15.117,1.559-5.628,6.574-8.092,14.391-7.917,5.173.116,8.462,2.962,12.12,5.962,7.96,6.529,9.7,5.747,13.743-3.692,2.993-6.99,3.6-14.141,3.12-21.518-.772-11.9-4.517-13.892-14.456-7.833a43.583,43.583,0,0,1-6.859,3.869A8.722,8.722,0,0,1,466,123.191c1.436-12.6,9.123-19.23,22.659-19.5a35.088,35.088,0,0,0,3.954.2c2.805-.388,5.128-1.77,5.571-4.766,2.553-17.28-3.959-34.309-18-40.986-4.061-1.931-7.675-2.036-10.643,1.762-2.45,3.135-4.487,6.636-7.195,9.515-4.441,4.723-10.41,3.324-12.256-2.643-.386-1.248-.182-2.674-.54-3.936-2.379-8.378-4.564-10.206-12.211-9.716a43.494,43.494,0,0,0-9.777,1.637c-9.808,2.971-11.806,6.5-10.46,17.512,1.47,12.031-1.837,18.086-12.013,22-5.979,2.3-11,1.443-14.7-2.5a13.526,13.526,0,0,1-1.417-16.595c2.187-3.273,5.455-5.8,7.929-8.909,3.234-4.061,1.771-8.936-3.01-11.615-5.163-2.893-10.211-2.93-15,.536-3.223,2.333-5.99,5.3-9.244,7.583-4.508,3.162-9.119,1.706-11.225-3.318a17.637,17.637,0,0,1-.689-3.906c-.82-4.951-3.534-6.127-8.472-5.419-13.009,1.865-22.2,7.475-25.987,21.044-1.938,6.934-5.54,13.555-9.264,19.8-3.558,5.964-11.653,6.94-17.575,3.14-5.658-3.631-7.773-9.313-7.555-15.426.2-5.681,3.52-9.929,9.566-11.263,1.3-.287,2.615-.532,3.894-.9,2.741-.787,4.7-2.386,4.82-5.441.148-3.635-3.65-8.657-6.923-8.7-2.582-.038-5.5.116-7.7,1.272-5.3,2.788-10.088,3-14.809-.9-4.318-3.567-8.45-3.051-12.515.482-5.24,4.553-10.456,3.827-16.606,1.167-7.733-3.345-9.956-1.952-14.116,5.536-2.71,4.878-1.832,7.738,3.226,8.656,3.229.587,6.61.183,9.527,2.211,6.106,4.245,8.26,10.21,7.546,17.356-.52,5.2-4.725,9.876-9.913,11.345-10.626,3.01-22.191-4.768-22.989-15.7-.289-3.96.543-8,.266-11.962-1-14.278-11.23-22.448-25.929-20.88-2.867.306-5.035,1.783-5.158,4.918-.076,1.969.656,3.972.573,5.94-.247,5.813-4.08,8.065-9.265,5.939-5.133-2.105-8.722-6-12.409-9.835-5.792-6.031-12.785-6.433-20.307-4.363-4.289,1.18-6.2,5.71-3.693,9.206,2.314,3.225,5.23,6.041,7.357,9.372,2.05,3.21.351,8.536-2.834,10.61-6.34,4.131-15.415,4.357-20.612.023-5.213-4.348-6.341-9.869-3.32-16.108a20.063,20.063,0,0,0,1.346-3.761c1.744-6.82.142-10.629-5.948-12.441a65.915,65.915,0,0,0-13.69-2.52c-13.675-1.042-16.076,1.43-15.661,15.261.04,1.319.565,2.756.192,3.922-.58,1.811-1.345,3.956-2.745,5.019-2.207,1.676-5,1.279-7.525.055-4.541-2.2-5.887-7.017-8.766-10.584-3.94-4.882-9.447-5.307-13.928-.992C50.714,69.4,46.766,80.447,46.71,92.959c-.025,5.7,2.417,8.58,8.708,7.432,10.959-2,16.2,3.368,19.559,12.451.924,2.5,1.89,4.982,2.668,7.524a8.445,8.445,0,0,1-2.545,9.051c-3.278,3.143-7.047,3.344-11.007,1.483-1.193-.561-2.225-1.455-3.389-2.091-10.35-5.65-13.526-4.4-16.191,6.792-2.032,8.537-2.341,17.084.812,25.543,2.285,6.133,5.366,7.51,10.085,3.343,5.617-4.959,11.038-9.365,19.252-8.927,5.675.3,10.645,1.09,13.286,6.777,2.618,5.636,1.568,12.361-4.312,15.84-8.83,5.223-14.261,15.49-26.293,16.293-5.261.351-9.164,5.691-9.636,11.462-.392,4.8,4.365,6.138,7.536,8.4a35.809,35.809,0,0,1,4.688,3.708c3.436,3.451,3.552,8.53.714,12.778-1.954,2.925-4.768,4.174-7.866,5.615-8.39,3.9-11.27,9.244-8.807,17.066,1.778,5.646,4.724,10.976,7.567,16.22,2.13,3.93,5.729,3.966,9.958.637,9.81-7.723,11.377-7.519,17.758,2.512.7,1.1.8,2.6,1.53,3.677a7.343,7.343,0,0,0,11.894.433,55.141,55.141,0,0,0,5.77-10.317c1.946-4.2,3-8.873,5.329-12.813,3.979-6.724,12.507-10.768,18.548-9.22,7.4,1.9,10.293,7.84,12.195,14.488a17.073,17.073,0,0,1,.289,1.971c1.34,8.347-2.778,13.059-10.942,12.2-3.283-.348-6.474-1.676-9.755-1.927-4.408-.338-9.343,4.394-9.1,8.832.177,3.267,1.4,6.467,2.023,9.722,1.056,5.5-1.779,8.719-6.4,11.06-4.439,2.25-8.665,2.86-13.287.338-4.667-2.546-9.656-4.5-14.372-6.964-5.607-2.93-10.373-1.172-14.733,2.409-6.05,4.97-9.622,11.313-7.741,19.285A34.769,34.769,0,0,1,48.337,339.4a20.4,20.4,0,0,0-1.374,5.8c-1.188,8.982,2.713,15.158,11.567,18.506,6.376,2.411,9.529.763,15.306-8.057.727-1.11,1.228-2.375,2-3.444a9.736,9.736,0,0,1,10.471-4.03,10.14,10.14,0,0,1,8.256,7.737,36.475,36.475,0,0,1-.3,19.745c-8.646,9.267-18.4,8.77-28.712,3.212-.581-.314-1.156-.64-1.718-.987s-1.077-.78-1.661-1.083c-2.887-1.5-5.923-3.688-8.593.121-2.17,3.1-1.1,6.324.5,9.3,7.685,14.222,20.79,19.562,35.833,21.147,6.294.663,11.711-2.355,15.53-7.294,2.666-3.448,6.115-7.282,1.91-12.424-1.784.906-3.531,1.711-5.2,2.661-2.291,1.307-4.538,2.692-6.769,4.1-4.168,2.632-8.79,2.815-13.416,2.175-2.467-.341-5.828-.466-6.245-3.76-.725-5.738,3.8-3.572,6.578-3.861,1.961-.2,3.982-.028,5.9-.406,6.4-1.258,7.234-3.33,5.62-13.192a3.875,3.875,0,0,0,4.659-2.08c5.09-8.51,4.935-17.849,4.461-27.175-.43-8.444-5.338-13.355-13.744-14.176-8.533-.834-15.783,1.358-20.595,9.161-.341.552-2.619.63-3.287.075a4.3,4.3,0,0,1-1.166-3.429c1.054-6.78,9.753-9.031,10.1-16.915-2.786-.2-5.5,0-7.957-.7-1.709-.493-3.5-2.373-1.351-4.313,1.9-1.714,4.115-3.536,6.5-4.173,9.286-2.486,16.981.469,23.191,7.706,2.717,3.165,6.031,5.6,10.432,4.114,8.836-2.988,14.189-9.806,17.6-17.983,2.511-6.013-2.742-9.7-5.654-13.984a15.353,15.353,0,0,1-1.7-3.5,2.525,2.525,0,0,1,.328-1.727c.294-.578.945-1.532,1.231-1.463a19.894,19.894,0,0,1,3.692,1.442c16.437,7.736,22.348,5.948,29.983-9.532,1.738-3.524,3.527-7.448,3.673-11.25.407-10.561,5.543-18.991,10.932-27.4,2.871-4.479,6.246-8.641,9.03-13.171,2.39-3.889,7.194-6.348,7.136-12.044-15.122,7.359-23.306,19.545-26.277,35.566-.494,2.666-.872,5.358-3.977,6.137-4.14,1.039-3.96-2.608-4.549-4.822-1.046-3.929-1.845-7.8-6.247-9.467-6.207-2.346-12.246-5.291-18.618-7.014-16.963-4.589-27.1,3.292-26.927,20.433.013,1.329.267,2.661.216,3.984-.138,3.579-1.369,6.9-5.316,7.117-3.736.2-5.637-2.8-6.792-6.134-1.782-5.146-2.549-10.207-.521-15.577,1.047-2.774,3.464-5.44,1.929-8.907-6.2,1.093-7.979,6.511-10.954,10.807-3.106,4.487-6.931,8.192-12.812,8.473a4.653,4.653,0,0,1-3.382-1.428c-.5-.606-.213-2.922.252-3.1,7.082-2.727,9.675-8.938,11.74-15.3,2.952-9.1,9.053-14.45,18.1-16.868,2.349-.629,5.233-.095,6.7-2.834-7.033-6.62-7.915-7.382-12.732-7.238-4.612.137-9.2,1.03-13.813,1.258a3.677,3.677,0,0,1-2.729-2.22c-.254-.914.687-2.244,1.3-3.277A3.2,3.2,0,0,1,67.5,201.26c13.968-5.188,27.381-4.728,39.706,4.4,5.342,3.959,10.293,8.441,15.561,12.506,12.559,9.693,19.974,9.695,31.966.076,3.072-2.464,5.955-5.164,8.925-7.756-7.57,2.755-15.311,2.518-22.949,2.443-4.615-.046-9.978.3-13.694-1.822-13.787-7.875-26.927-16.863-42.521-21.171-1.276-.353-1.954-3.327.134-4.974,3.051-2.406,7.68-2.109,9.843-6.175,3.348-6.292,9.55-6.721,15.611-6.637,6.689.093,13.318.84,16.848,7.906-.971,1.463-1.058,3.943-3.876,3.243-5.044-1.253-9.931-3.657-15.34-2.4-1.621.378-4.459-.675-4.113,2.563a4.317,4.317,0,0,0,2.057,2.959c10.464,4.937,20.843,10.145,35.968,14.607-7.688-6.937-12.456-10.837-16.7-15.238-2.161-2.24-1.128-4.671,1.815-5.959,4.229-.6,7.909,1.165,11.321,3.15,12.377,7.2,25.719,5.917,38.976,4.483,9.515-1.029,13.028-3.856,19.178-13.348-16.541,3.2-32.094,3.123-44.448-10.4-1.183-1.3-2.866-2.926-5.184-1.422-5.428,3.521-10.018,1.33-14.611-2.01-4.641-3.374-9.72-3.119-15.254-2.042a43.1,43.1,0,0,1-34.112-7.1c-8.672-6.053-17.477-9.828-26.494-.355-.313.328-2.587-.529-3.223-1.377a4.123,4.123,0,0,1-.517-3.623c3.9-7.081,10.369-10.321,18.416-8.416,5.777,1.367,11.244,4.013,16.889,5.974,4.355,1.513,8.606,3.922,13.462,2.537a7.859,7.859,0,0,0,3.1-2.192c1.316-1.338.81-2.2-.719-3.138-9.447-5.8-13.5-14-11.975-25.282C92.748,106.368,88,99.9,80.707,95.425c-4.493-2.757-9.468-4.717-14.088-7.285-.871-.484-1.765-2.46-1.431-3.192.428-.938,2.029-1.588,3.236-1.854,1.243-.273,2.619.116,3.938.126,8.221.065,13.6,7.188,20.874,9.826,4.466-7.327,8.513-13.409,11.931-19.826,1.507-2.828,1.567-6.4,2.645-9.5a4.293,4.293,0,0,1,2.864-2.114c2.772-.581,3.5,1.87,3.48,3.628-.042,3.24-.174,6.75-1.436,9.637-1.848,4.228-5,7.867-7.108,12.005-5.5,10.788-3.516,23.914,4.446,31.355,7.912,7.4,18.289,8.255,29.541,1.866,8.318-4.723,16.308-10.024,25.091-15.469-12.751.626-13.767.754-19.871,4.041-4.1,2.208-7.9,5.02-12.118,6.949-12.862,5.885-23.923-.909-25.217-15.372a4.907,4.907,0,0,1,1.526-3.409c1.444-1.384,3.811-2.241,4.965-.2,5.536,9.776,13.477,9.358,22.377,5.835a102.889,102.889,0,0,1,11.256-4.1c4.47-1.19,9.1-1.753,13.648-2.686,3.53-.725,7.69,1.566,11.708-3.321-7.738-5-6.4-15.271-12.866-21.55-.527-.512-.171-2.687.5-3.452.583-.664,2.33-.834,3.329-.506,3.236,1.06,6.178,2.815,7.188,6.324,2.674,9.294,9.853,11.33,18.288,12.438,11.349,1.491,15.75-2.17,14.929-13.844-.135-1.91-1.454-3.709-1.913-5.634-.44-1.843-.874-4.287,1.577-4.825a7.834,7.834,0,0,1,5.378,1.061c6.542,4.238,6.511,11.033,6.488,17.8-.016,4.572-3.089,8.982-.668,13.676,3.344,6.48,6.506,13.06,10.038,19.436,2.379,4.293,6.024,7.761,11.271,6.475,6.534-1.6,9.967.834,12.269,6.649,1.764,4.455,5.284,7.31,9.368,9.953,5.864,3.795,5.6,4.195.83,10.233-7.253,9.173-7.315,9.878-.96,18.686,1.157,1.6,2.83,2.849,3.9,4.5,2.8,4.3,1.75,8.039-3.032,11.622-13.53,10.139-13.842,11.085-9.31,28.221l-4.3,4.112c-6.409-4.339-7.547-12.364-12.424-17.75-1.8-1.984-4.1-3.652-6.994-2.42-12.835,5.464-21.547,13.394-11.784,29.091,2.2,3.544,4.5,4.091,6.116-1.127,1.387-4.477,5.648-5.674,9.76-4.357a83.119,83.119,0,0,1,12.62,5.779c20.62,10.686,41.232,13.473,62.016.407a67.479,67.479,0,0,1,8.835-4.58c7.832-3.435,9.773-2.578,13.96,6.852,1.706,3.842,3.979,2.914,5.739.908,9.994-11.39,4.664-28.511-10.175-33.178-6.433-2.023-10.036-.117-11.608,6.6-.74,3.161-.017,6.74-2.581,9.322a4.977,4.977,0,0,1-3.309,1.65c-.911-.083-2.507-1.651-2.414-2.387,1.126-8.869-1.925-15.49-9.715-20.077-1.6-.941-2.64-2.921-3.772-4.539-3.168-4.529-3.774-9.036.455-12.421,8.716-6.976,8.61-13.966,2.458-22.186-1.893-2.529-5.209-5.314-3.234-8.455,2.881-4.584,7.264-8.021,9.88-12.508,4.479-7.683,10.236-1.769,15.35-2.452,5.747-.768,8.925-5.68,10.22-11.073a61.435,61.435,0,0,1,13.5-26.185l-.365.265c15.991-2.41,31.128-6.446,40.664-21.233.338-.525,1.056-1.2,1.535-1.16a11.474,11.474,0,0,1,3.528.987c.51.227,1.162,1.021,1.106,1.48-.232,1.885-.309,3.952-1.163,5.572-5.425,10.29-13.678,17.484-24.211,22.458-5.314,2.509-11.845,3.588-16.773,11.339,7.239-2.326,12.192-3.955,17.168-5.51,14.278-4.462,28.376-5.849,42.286,1.619,4.614,2.477,9.535,4.728,15.085,4.2,4.792-.456,9.941-1.43,10.38-7.138.718-9.329,7.182-5.181,11.7-5.742,1.332,7.736-.431,14.318-6.3,19.948-7.712,7.4-17.081,5.434-26.239,5.184.569,4.9,4.436,6.27,7.739,8.4,11.357,7.317,30.984-2.481,28.591-18.478-.757-5.059.577-10.782-4.072-14.8.547-5.239-3.477-8.413-5.662-12.4A17.488,17.488,0,0,1,431.9,70.105c.247-.9,2.011-1.824,3.137-1.909,1-.075,3.012,1.063,2.981,1.569-.689,11.326,7.445,17.739,13.176,26.262C459.029,91.769,464,84.941,471.765,82.6c2.609-.788,5.229-1.5,6.639,1.622,1,2.221-.68,3.713-2.395,4.7-12.69,7.284-18.391,18.7-19.691,32.811a34.778,34.778,0,0,1-1.026,5.9c-3.025,11.143-9.342,18.906-21.375,20.995-5.084.883-10.529,1.135-14.542,5.633,12.387,1.554,23.645,1.06,32.514-9.269,3.97-4.624,10.372-5.808,16.049-7.664,7.932-2.593,14.782-.186,20.75,7.214a4.326,4.326,0,0,1,.511,3.695c-.813,1.924-3.15,3.276-4.766,2.2-12.9-8.583-22.672-3.4-31.151,6.919a23.027,23.027,0,0,1-19.38,8.58c-8.095-.332-15.854-1.088-23.028,3.743-1.7,1.143-3.787.673-5.3-1.069-2.593-2.982-5.343-3.423-8.455-.641-11.006,9.84-24.218,13.131-38.959,13.315,12.617,7.523,24.951,14.614,39.944,5.766,12.926-7.627,27.26-10.373,42.011-11.294,3.245-.2,6.773-.6,9.523,1.785a4.525,4.525,0,0,1,1.407,3.272c-.074,1.049-1.087,2.808-1.852,2.9-3.9.471-7.865.419-11.8.7-10.387.75-19.114,4.568-26.407,15.447,11.876-3.675,22.029-6.415,31.875-10,7.208-2.622,14.342-2.3,21.632-1.574,2.677.267,6.824,1.168,6.571,3.373-.894,7.8,9.252,7.481,9.5,15.031-9.117,1.783-19,2.688-28.522,11.951,9.039.477,15.308,2.522,19.586,7.614,5.227,6.222,11.147,11.32,18.609,14.581,1.57.687,1.805,1.778,1.16,3.344-.827,2.01-2.15,3.554-4.329,3.086-3.18-.683-6.6-1.328-9.285-3-4.468-2.784-8.42-6.393-12.62-9.613-2.833-2.172-5.792-3.122-8.968-.6,8.838,14.163,9.747,16.577,9.569,25.388-.141,6.945-1.759,8.232-11.635,9.253,2.592-11.506-.323-20.971-10.462-27.611-4.5-2.943-9.344-5.005-14.921-4.606-9.224.66-18.337,2.458-27.717,1.6-4.045-.368-4.787,3.566-5.174,7.022-.262,2.341.435,5.72-3.077,6.017-3.254.276-4.053-3.087-5.2-5.277-1.84-3.5-3.1-7.309-4.716-10.935a14.978,14.978,0,0,0-8.537-7.939c-3.946,3.316-.271,5.933,1.036,8.11,5.424,9.032,11.5,17.4,12.969,28.57.912,6.952,5.009,13.613,8.279,20.1,4.907,9.741,11.76,10.962,20.659,4.155,2.1-1.605,3.972-3.519,6.131-5.031,3.866-2.706,9.941-2.773,10.664-.167,1.188,4.283-2.527,5.342-5.084,7.23a49.411,49.411,0,0,0-5.9,5.3c-6.044,6.194-6.006,8.488-.142,14.809a90.37,90.37,0,0,1,6.26,7.431c.156.208-1.469,1.742-2.265,2.662-3.355,2.349-6.084-1.517-10.5-.635a35.435,35.435,0,0,1,2.343,26.017c-.99,3.625,1.158,6.275,4.317,7.937,3.232,1.7,5.676,5.69,10.849,3.457a36.984,36.984,0,0,0-3.688-26.391c-1.81-3.3-5.332-6.106-3.587-10.635.849-.841,2.258-2.536,2.465-2.4,9.892,6.5,17.911,4.261,26.091-3.815,5.735-5.662,13.938-7.012,22.019-6.607a20.445,20.445,0,0,1,7.5,1.949c2.342,1.105,4.954,3.356,4.333,5.91-1.049,4.313-4.319,3.7-7.658,2.023-2.187-1.1-4.688-2.827-7.305.7,3.74,4.174,9.96,6.1,12.222,11.814ZM206.722,108.551l.577.149-.782-.376c-.1-10.1-7.053-10.9-17.483-11.991C195.8,102.568,200.354,106.8,206.722,108.551ZM409.3,395.86l-5.3-6.822c.253-7.725-3.7-12.19-10.834-14.526-3.964-1.3-7.136.525-8.372,3.362-5.218,11.978-3.946,26.8,12.482,32.3,3.275,1.1,6.772,1.518,9.5-.777,10.252-8.609,20.317-17.206,19.77-32.67-.479-13.546-5.583-19.553-19-20.114-4.567-.191-9.2,1.525-13.7-.768-1.453-.741-2.1-1.555-1.491-3.163.212-.562.41-1.423.82-1.569,2.432-.866,4.94-1.512,7.393-2.323,10.615-3.51,14.239-12.225,8.866-21.52-4.259-7.369-10.463-11.895-19.171-12.542a11.2,11.2,0,0,0-11.769,8.6c-1.343,6.089,2.054,11.021,9.165,12.837.939.24,2.959-.73,3.23-1.551.484-1.472-.8-2.213-2.315-2.557-2.366-.535-5.768-.375-4.944-4.381.58-2.816,2.736-4.5,5.391-5.261a11.9,11.9,0,0,1,13.719,5.218c2.6,4.2,1.147,10.808-3.139,14.313a21.076,21.076,0,0,1-33.552-10.66c-1.684-5.866-1.172-11.723-.678-17.754.975-11.891,1.837-23.787,2.068-35.772.279-14.521-7.738-23-17.545-31.065-5.977-4.916-13.561-5.221-20.692-6.269-5.063-.744-8.731-2.124-10.672-7.263-1.071-2.839-3.881-3.146-6.691-2.27a40.391,40.391,0,0,0-15.294,9.055c-1.953,1.784-1.425,5.946.981,6.54,5.138,1.268,10.4,2.055,15.525,3.359,17.359,4.413,29.054,14.519,34.729,32.13,3.758,11.666,4.692,23.406,4.642,35.325-.037,8.837,2.021,17.158,4.868,25.242,4.371,12.413,12.562,17.723,25.649,17.773a44.452,44.452,0,0,0,5.979-.223c12.519-1.663,20.063,5.193,25.32,15.236C418.418,383.314,418,390.721,409.3,395.86ZM123,359.965c4.85,4.225-.149,7.059-1.872,9.683-8.846,13.472-1.026,35.427,14.025,42.5,9.892,4.65,26.951-1.024,31.237-10.588a4.484,4.484,0,0,0,.582-1.88c-.386-7.98-.628-16.184-6.878-22.142-2.747-2.618-6.445-5.125-10.667-2.092a7.287,7.287,0,0,0-2.51,2.877c-.167.406,1.221,2,2.065,2.159,1.917.352,4.156-.408,5.87.275,4.544,1.809,7.889,5.137,8.075,10.284a11.122,11.122,0,0,1-7.159,11.029,17.484,17.484,0,0,1-9.655.934c-7.929-1.622-14.361-8.969-15.372-16.494-1.181-8.792,3.238-17.809,11.512-21.272,7.342-3.073,15.107-5.377,23.318-3.973,3.343.572,6.662,1.021,9.659-.921,8.634-5.594,15.978-12.331,16.613-23.418a119.588,119.588,0,0,0-.7-17.854c-.8-8.643-2.251-17.552.572-25.76,4.81-13.981,12.075-26.938,24.6-35.512,11.31-7.743,22.447-17.221,38.087-12.559.746.222,2.221-1.065,2.96-1.972,1.1-1.345.594-2.575-1.011-3.243-4.264-1.775-8.5-3.627-12.809-5.289-5.729-2.211-10.593-2.038-16.8,1.01-10.608,5.209-22.439,7.942-33.821,11.508-.428.135-1.533-1.886-2.319-2.907-.24-5.813,5-7.324,8.3-10.174,5.584-4.823,4.311-10.583,2.973-16.441-.521-2.282-4.926-3.267-6.708-1.667-6.723,6.035-9.3,14.292-11.954,22.472-1.673,5.16-.669,5.826,7.724,5.507.928.821,2.791,2.031,2.636,2.4-1.252,3.006-2.329,6.377-4.49,8.664-11.02,11.665-12.7,25.715-11.192,40.722.73,7.257,1.274,14.538,2.254,21.76a28.23,28.23,0,0,1-2.049,15.562c-5.565,12.483-23.095,15.686-31.315,5.873-5.683-6.783-2.07-16.368,6.85-18.176,2.827-.573,6.136,2.94,5.615,6.23a9.918,9.918,0,0,1-1.779,3.482c-.948,1.461-.908,2.755.577,3.252a5.13,5.13,0,0,0,3.572-.078c4.873-2.45,6.016-6.853,5.151-11.747a12.551,12.551,0,0,0-10.867-10.124c-9.613-1.262-19.179,6.193-21.424,16.7-2.363,11.062.927,16.155,13.149,19.989,2.986.936,7.341.616,6.16,5.4-.732,2.968-4.267,1.967-6.689,2.314-5.223.747-10.508,1.22-15.645,2.357-2.665.589-3.4-1.25-4.838-2.347-.214-4.413,3.562-7.981,1.436-13.193-2.185-5.36-2.166-11.618-3.21-18.093-11.38,7.149-12.212,17.756-10.7,29.568C114.921,360.715,119.95,358.367,123,359.965ZM270.831,460.1l.365.418c-1.787-8.409-8.364-16.494-6.064-24.864,5.283-19.223,2.022-38.275,1.5-57.424-.36-13.3-.706-26.6-.8-39.9-.013-1.694,1.189-4.48,2.408-4.849,1.842-.557,3.039,1.649,3.482,3.6.83,3.652,2.419,1.529,3.567.359,1.706-1.74,2.744-5.159,5.907-3.242,1.219.739,1.821,3.4,1.777,5.156-.151,5.976-.488,11.969-1.176,17.906-1.061,9.151-3.884,18.346-3.344,27.365.558,9.314-.021,18.62.81,27.869.435,4.852-2.361,10.9,3.98,14.083,3.464,1.738,5.037-2.653,4.137-14.853-1.629-22.08.6-43.872,4.235-65.575a130.94,130.94,0,0,1,4.232-17.42c.415-1.324,3.03-1.958,4.633-2.91.706,1.682,2.052,3.391,1.984,5.041-.136,3.283-1.15,6.519-1.626,9.8-3.748,25.8-3.2,51.594-.183,77.371,2.092-20.52,3.489-41.05,5.171-61.556,1.491-18.19,5.911-35.428,17.43-50.2,2.079-2.667,3.464-5.69,1.252-9.175-28.457,0-57.016-.143-85.571.137-4.884.048-10.476-.089-14.253,4.861,12.6,18.22,17.821,38.16,18.191,60.116.341,20.29,3.018,40.54,4.87,63.3,1.807-3.619,2.794-4.656,2.753-5.65-.965-23.219.266-46.526-3.039-69.661-.838-5.861-.644-11.9-.544-17.844.022-1.344.085-4.566,3.071-3.273,1.566.678,3.446,2.5,3.692,4.04,1.153,7.207,1.4,14.564,2.676,21.743,3.851,21.722,2.57,43.8,4.768,65.636.586,5.821-.547,12.082-7.1,15.223-6.125,2.936-7.728,8.917-9.235,14.68-1,3.811-1.007,7.875-1.515,11.819-.5,3.879-3.007,5.908-6.666,5.952-3.953.048-5.762-2.511-5.983-6.346-.393-6.83,1.682-13.127,3.995-19.4a90.512,90.512,0,0,0,2.973-9.334c.509-2.037-3.419-4.733-5.588-4.236a10.992,10.992,0,0,0-7.485,6.075,55.447,55.447,0,0,0-6.256,24.906c-.074,5.8-3.746,8.442-9.23,7.588-11.171-1.739-22.347-3.531-33.424-5.778-7.83-1.588-7.759-1.938-7.463-13.565-13.9,1.031-27.722,1.989-41.527,3.156-1.888.16-3.714,1.3-5.512,2.118-.468.213-1.095.989-1.006,1.348.292,1.189.57,2.9,1.41,3.335a34.509,34.509,0,0,0,7.4,2.666c38.331,9.6,77.562,10.954,116.731,11.378,9.225.1,18.207-.444,27.374,1.467,9.845,2.052,19.846,1.283,29.715-.971,5.174-1.182,10.769-3.486,15.634-2.531,19.963,3.915,39.859,1.309,59.717.349,17.884-.864,35.885-2.017,53.1-7.792a3.905,3.905,0,0,0,2-2.9,3.579,3.579,0,0,0-1.744-2.857c-13.235-5.245-27.335-5.221-41.213-6.446-5.7-.5-9.474.743-5.32,7.665.488.813-1.314,4.2-2.692,4.732-8.079,3.087-16.435,5.413-25.219,4.415-2.669-.3-5.527-2.15-5.617-4.893a56.654,56.654,0,0,0-5.5-23.077c-1.8-3.753.586-6.2,4.194-7.327,3.713-1.159,3.351-3.419,1.413-5.689-4.853-5.682-10.521-10.264-18.268-11.176-2.487-.293-5.228-.285-6.9,3.333,2.94.8,5.976,1.3,8.726,2.463a33.177,33.177,0,0,1,8.521,4.955,6.014,6.014,0,0,1,1.327,5.267c-.526,1.7-2.612,2.577-4.871,1.8-4.964-1.71-9.58-4.918-15.255-3.739-2.592.538-5.714,1.059-5.9,4.158-.206,3.461,2.991,4.778,5.518,3.7,6.237-2.664,10.419-.172,13.52,4.7a111.1,111.1,0,0,1,8.468,15.727c2.3,5.364-.1,9.4-5.568,10.23-6.549.991-13.129,2.143-19.724,2.366-9.9.335-19.854.244-29.746-.327-4.091-.236-5.727-2.8-1.887-6.325,1.542-1.413,2.481-3.286.412-4.912-3.819-3-5.992-7-7.836-11.349a3.542,3.542,0,0,0-3.076-1.374,4.525,4.525,0,0,0-2.865,2.276C274.255,452.005,276.338,457.671,270.831,460.1ZM187.315,365.54c-6.849,2.258-11.414,5.064-11.489,9.923-.345,22.245,6,33.044,29.763,30.926,1.957-.174,3.836-1.1,5.781-1.539,17.565-3.981,25.029-14.265,22.834-31.213-.975-7.529-5.828-11.53-12.137-14.555-6.449-3.092-11.537-.193-16.408,3.522-1.561,1.191-2.58,3.079-4.1,4.341-5.7,4.728-4.815,10.655-2.615,16.374,2.261,5.875,7.157,7.341,13.062,5.861a7.234,7.234,0,0,1,1.957-.376c1.937.072,3.733.383,4.36,2.708.686,2.541-1.125,4.038-2.753,4.547-18.947,5.93-35.122-5.844-29.248-23.481C186.92,370.778,186.881,368.766,187.315,365.54Zm127.012,19c-.646,7.37.434,13.24,6.707,16.322,7.189,3.533,14.923,6.108,22.914,6.347,16.645.5,28.658-13.042,25.449-28.111-.215-1.012-1.7-1.886-2.765-2.55-1.21-.753-2.473-.144-2.823,1.529-1.107,5.286-2.876,10.214-6.478,14.381a20.67,20.67,0,0,1-34.69-5c-2.968-6.73.019-15.742,6.3-19.022,5.12-2.671,11.594-.153,15.059,5.858,2.489,4.317.329,8.459-5.358,9.149-2.649.321-5.614-.368-4.917,3.414.269,1.457,2.674,3.119,4.408,3.6,6.449,1.8,12.035-2.178,12.8-8.7,1.252-10.636-5.558-20.044-17.166-23.714-6.562-2.075-11.8.129-14.972,6.2C315.307,370.942,314.6,378.2,314.327,384.545Zm143.837-186.89c-5.919-1.683-9.85-1.157-13.53.551-6.621,3.072-13.514,5.8-19.6,9.741-11.861,7.692-25.18,7.524-36.366,2.406-13.7-6.269-28.445-11.371-40.219-21.676-2.622-2.294-5.249-5.761-11.411-4.934,9.747,11.169,18.263,22.6,31.509,27.5,11.2,4.145,22.532,7.665,32.993,13.607,6.147,3.492,12.522,3.326,19.151.383a51.485,51.485,0,0,0,13.592-8.139C441.679,210.588,448.252,203.17,458.164,197.655Zm-9.46,175.4c4.056,17.542,6.907,20.318,22.8,19.129,5.489-.411,10.01.691,15.014,2.414,4.1,1.413,9.192-4.389,10-10.057.458-3.2-2.868-4.917-8.89-4.579C463.582,381.311,463.582,381.311,448.7,373.054ZM375.375,257.371c-1.529,14.3,1.826,26.975,7.178,39.105,3.225,7.31,4.539,7.51,15.258,8.487-3.388-7.933-6.354-15.953-10.181-23.538C383.713,273.662,386.469,262.466,375.375,257.371ZM244.337,156.447c.726-3.814,1.578-7.644,2.158-11.514.549-3.659-1.433-6.353-4.281-8.151a8.685,8.685,0,0,0-5.423-1.249c-1.979.283-3.144,2.147-2.748,4.339.686,3.792.25,8.994,2.558,11.042,5.341,4.739,3.675,9.324,1.683,14.133-1.735,4.188-4.322,8.018-6.24,12.143-.326.7.544,2.506,1.36,3.042a5.107,5.107,0,0,0,3.666.457c2.585-.647,5.073-1.925,5.475-4.874C243.417,169.406,246.257,163.172,244.337,156.447Zm94.727-31.37c9.317-.167,17.8-4.214,27.133-4.161,9.288.054,17.167,5.85,26.89,5.572-10.378-9.387-11.262-9.935-22.854-10.533C358.913,115.37,347.551,115.038,339.064,125.077ZM169.243,256.109c-4.543,2.665-5.276,5.051-6.243,7.619-3.721,9.891-7.868,19.621-11.845,29.415-1.138,2.8-4.874,4.853-2.485,8.682,1.457,2.334,6.229.09,9.654-4.145a23.677,23.677,0,0,0,4.944-10.709C165.119,277.28,167.015,267.6,169.243,256.109ZM436.668,386.927c-3.559,4.606-3.477,8.744.049,12.619,9.739,10.706,22.806,12.11,39.212,2.983C457.675,409.523,449.125,393.5,436.668,386.927ZM187.18,445.355c9.288-13.355,18.212-23.058,33.565-22.524,1.062.037,2.216-1.26,3.243-2.047.507-.388,1.261-1.179,1.141-1.524-.388-1.121-.949-2.835-1.763-3.038-3.135-.781-6.561-1.949-9.579-1.382C198.37,417.739,190.154,427.548,187.18,445.355Zm36.484-126.141c-5.521-8.66-11.448-16.57-11.112-27.213a3.035,3.035,0,0,0-.811-1.78c-.805-.963-1.745-1.812-2.63-2.707-1.275,1.407-2.971,2.616-3.742,4.26-1.86,3.967-.585,8.082,1.49,11.356C211.053,309.748,215.225,316.6,223.664,319.214ZM306.59,172.9c.253,4.233.775,6.776,2.955,8.584.492.408,1.4.981,1.73.794,1.006-.572,2.314-1.338,2.581-2.288.3-1.076-.259-2.481-.681-3.659-2.019-5.641-8.514-11.456.805-16.572.5-.275,1.158-1.155,1.039-1.535-1.751-5.616-3.519-11.233-5.6-16.731-.247-.654-2.405-.988-3.553-.783a4.947,4.947,0,0,0-2.932,2.041c-1.566,2.436-.64,5.034.049,7.566C305.139,158.228,312,165.441,306.59,172.9Zm55.714,69.89c1.409-10.85-3.311-18.506-8.318-26-.477-.714-2.424-1.02-3.387-.675a3.992,3.992,0,0,0-2.27,2.687C347.143,229.634,351.572,237.309,362.3,242.787ZM304.66,450.136c4.926.685,7.1-1.723,5.591-6.316a20.56,20.56,0,0,0-2.307-5.291c-1.823-2.638-4.168-5.657-7.7-4.131-2.027.875-3.755,3.522-4.637,5.758-2.259,5.723-.7,8.188,5.225,9.351C302.1,449.756,303.384,449.921,304.66,450.136Zm156.784-27.28c-3.575.16-6.224,1.514-6.56,5.462-.47,5.515,2.174,9.251,6.848,9.887,3.8.518,6.441-2.706,6.349-7.751S465.777,422.883,461.444,422.856ZM416.466,431.8c.145-5.689-1.86-8.833-5.715-8.493-3.573.316-6.548,1.977-6.338,6.053.208,4.015,1.387,7.852,6.212,8.742C413.61,438.652,416.37,435.59,416.466,431.8ZM192.885,146.224c-.079-2.835-.989-2.485-2.611-.8-1.943,2.016-4.392,2.811-6.939,1.281-4.524-2.715-7.243-.264-9.413,3.247a3.563,3.563,0,0,0,.659,3.34c3.2,2.919,7.135,2.731,10.887,1.451C189.439,153.384,191.058,149.656,192.885,146.224ZM144.91,429.64c-.456-4.381-3.69-7.277-8-6.776-3.012.351-4.627,2.389-4.269,5.435.546,4.642,3.821,7.459,7.852,6.831C143.51,434.66,144.78,432.55,144.91,429.64Zm-49.618-3.528c-.28-4.058-2.323-6.031-6.149-5.942-5.019.117-7.379,2.385-7.416,7.126-.036,4.656,2.659,7.174,7.495,7C93.65,434.141,95.66,431.43,95.292,426.112ZM335.4,345.135c1.27-2.293.714-3.15-1.181-3.269-4.864-.305-8.979-1.716-11.481-6.426-.366-.69-.168-5.275-3.14-1.721a4.7,4.7,0,0,0-.581,3.752c2.058,7.073,6.021,10.4,12.483,10.081C333.1,347.473,334.614,345.653,335.4,345.135Zm-220.453,90.01c3.136.45,6.485-2.247,6.412-5.476-.092-4.02-1.382-7.478-5.762-8.741-2.829-.816-5.724,1.924-6.128,5.721C108.965,431.413,111.007,434.58,114.951,435.145Zm327.742-2.775c.025-5.7-2.441-8.711-6.42-8.282s-5.132,3.215-5.38,6.708c-.367,5.165,1.878,7.868,6.265,7.378C440.938,437.751,442.789,435.568,442.693,432.37ZM206.715,152.964c2.8-.014,7.386-4.459,7.849-7.6.264-1.794-3.73-5.093-5.427-4.482-3.184,1.147-5.852,9-3.842,11.444C205.591,152.682,206.233,152.757,206.715,152.964ZM59.5,420.078c-3.529-.126-5.417,2.005-6.033,5.565-.657,3.8,1.063,6.315,4.692,6.852,3.168.468,6.518.052,7.34-4.074A6.833,6.833,0,0,0,59.5,420.078Zm100.527,2.534c-2.74.953-4.431,2.764-4.645,5.707-.193,2.668-.049,5.392,2.708,6.7.966.459,3.05.28,3.61-.419,2.532-3.157,4.065-6.792,1.67-10.693C162.864,423.091,161.149,423.017,160.024,422.612ZM341.508,296.285c-.673-.984-1.148-2.441-2.12-2.95-2.623-1.375-3.34.772-3.778,2.679-.581,2.529-.966,5.106-1.36,7.674-.268,1.746-.949,3.989,1.906,3.973.977,0,2.18-1.258,2.876-2.23C340.957,302.742,342.2,299.774,341.508,296.285ZM489.451,431.346a29.7,29.7,0,0,0-.916-5.031,3.606,3.606,0,0,0-4.579-2.331,4.507,4.507,0,0,0-2.81,2.32,12.287,12.287,0,0,0-.7,5.579c.378,2.82,2.157,4.538,5.274,4.1C488.021,435.666,488.672,433.793,489.451,431.346ZM149.82,137.4c-2.429.1-3.49,1.722-3.5,3.794a3.62,3.62,0,0,0,3.5,3.915c2.27.07,3.442-1.605,3.424-3.809A3.572,3.572,0,0,0,149.82,137.4Zm56.788,310.718c-.273-1.114-.452-3.159-.833-3.2-3.617-.363-2.848,2.96-3.552,4.889-.2.55,1.222,2.436,1.738,2.373C206.176,451.912,206.229,449.83,206.608,448.117ZM397.845,147.462c-.327-2.331-2.065-3.168-3.934-3.249-.785-.033-1.974,1.124-2.355,2.009a6.313,6.313,0,0,0-.3,3.673,29.466,29.466,0,0,0,1.846,4.621,26.6,26.6,0,0,0,4.108-3.619C397.855,150.061,397.668,148.585,397.845,147.462Zm-58.035,4.684c-.659-1.83-1.073-3.87-2.117-5.509a3.857,3.857,0,0,0-3.321-1.3,3.1,3.1,0,0,0-2.14,4.487c.761,1.738,2.327,3.154,3.674,4.584a1.9,1.9,0,0,0,1.786.344A16.023,16.023,0,0,0,339.81,152.146Zm51.564,280.4c.449-5.488-1.451-8.378-4.446-7.9-3.2.51-3.963,2.932-4.116,5.56-.158,2.695.558,5.251,3.709,5.748C389.707,436.451,391.128,434.508,391.374,432.542ZM179.9,422.137c-2.645.765-3.8,2.323-3.508,4.442.234,1.7,1.65,2.081,2.975.876a6.337,6.337,0,0,0,1.97-3.007C181.677,422.906,180.74,422.086,179.9,422.137ZM338.683,325.05c-.9-1.973-2.065-3.366-4.346-2.617a2.186,2.186,0,0,0-1.292,1.307c-.59,2.763,1.432,3.159,3.338,3.071C337.186,326.773,337.94,325.652,338.683,325.05Z"/><path class="a" d="M38.176,485.452c5.561-2.138,10.365,1.364,15.426,2.375,26.248,5.242,52.9,6.23,79.472,7.512,32.564,1.57,65.183,2.056,97.783,2.833,41.252.983,82.5-.651,123.732-.713,33.99-.051,67.786-2.029,101.637-4.179,15.26-.968,30.65-.1,45.66-4.038,3.051-.8,5.094,1.147,5.455,4.074a62.636,62.636,0,0,1,.233,9.928,5.117,5.117,0,0,1-4.844,5.255c-4.634.412-9.312.434-13.972.434q-216.912.03-433.824.013c-3.332,0-6.67.083-9.994-.1-7.321-.392-8.848-1.963-8.912-9.983C35.991,494.347,34.824,489.524,38.176,485.452Z"/><path class="a" d="M486.337,329.456a15.276,15.276,0,0,1,3,2.242c2.5,3.054,4.832,7.1,1.189,9.941-4.662,3.639-5.907-1.932-7.929-4.576a16.059,16.059,0,0,1-1.545-3.44Z"/><path class="b" d="M94.247,375.639a36.249,36.249,0,0,0,.32-19.733,10.14,10.14,0,0,0-8.256-7.737A9.736,9.736,0,0,0,75.84,352.2c-.776,1.069-1.277,2.334-2,3.444-5.777,8.82-8.93,10.468-15.306,8.057-8.854-3.348-12.755-9.524-11.567-18.506a20.4,20.4,0,0,1,1.374-5.8A34.769,34.769,0,0,0,50.5,316.033c-1.881-7.972,1.691-14.315,7.741-19.285,4.36-3.581,9.126-5.339,14.733-2.409,4.716,2.465,9.7,4.418,14.372,6.964,4.622,2.522,8.848,1.912,13.287-.338,4.62-2.341,7.455-5.564,6.4-11.06-.625-3.255-1.846-6.455-2.023-9.722-.241-4.438,4.694-9.17,9.1-8.832,3.281.251,6.472,1.579,9.755,1.927,8.164.863,12.282-3.849,10.942-12.2a17.073,17.073,0,0,0-.289-1.971c-1.9-6.648-4.8-12.592-12.195-14.488-6.041-1.548-14.569,2.5-18.548,9.22-2.332,3.94-3.383,8.615-5.329,12.813a55.141,55.141,0,0,1-5.77,10.317,7.343,7.343,0,0,1-11.894-.433c-.73-1.076-.828-2.573-1.53-3.677-6.381-10.031-7.948-10.235-17.758-2.512-4.229,3.329-7.828,3.293-9.958-.637-2.843-5.244-5.789-10.574-7.567-16.22-2.463-7.822.417-13.166,8.807-17.066,3.1-1.441,5.912-2.69,7.866-5.615,2.838-4.248,2.722-9.327-.714-12.778a35.809,35.809,0,0,0-4.688-3.708c-3.171-2.257-7.928-3.6-7.536-8.4.472-5.771,4.375-11.111,9.636-11.462,12.032-.8,17.463-11.07,26.293-16.293,5.88-3.479,6.93-10.2,4.312-15.84-2.641-5.687-7.611-6.474-13.286-6.777-8.214-.438-13.635,3.968-19.252,8.927-4.719,4.167-7.8,2.79-10.085-3.343-3.153-8.459-2.844-17.006-.812-25.543,2.665-11.193,5.841-12.442,16.191-6.792,1.164.636,2.2,1.53,3.389,2.091,3.96,1.861,7.729,1.66,11.007-1.483a8.445,8.445,0,0,0,2.545-9.051c-.778-2.542-1.744-5.029-2.668-7.524-3.362-9.083-8.6-14.45-19.559-12.451-6.291,1.148-8.733-1.735-8.708-7.432.056-12.512,4-23.561,13.126-32.345,4.481-4.315,9.988-3.89,13.928.992,2.879,3.567,4.225,8.383,8.766,10.584,2.526,1.224,5.318,1.621,7.525-.055,1.4-1.063,2.165-3.208,2.745-5.019.373-1.166-.152-2.6-.192-3.922-.415-13.831,1.986-16.3,15.661-15.261a65.915,65.915,0,0,1,13.69,2.52c6.09,1.812,7.692,5.621,5.948,12.441a20.063,20.063,0,0,1-1.346,3.761c-3.021,6.239-1.893,11.76,3.32,16.108,5.2,4.334,14.272,4.108,20.612-.023,3.185-2.074,4.884-7.4,2.834-10.61-2.127-3.331-5.043-6.147-7.357-9.372-2.507-3.5-.6-8.026,3.693-9.206,7.522-2.07,14.515-1.668,20.307,4.363,3.687,3.837,7.276,7.73,12.409,9.835,5.185,2.126,9.018-.126,9.265-5.939.083-1.968-.649-3.971-.573-5.94.123-3.135,2.291-4.612,5.158-4.918,14.7-1.568,24.931,6.6,25.929,20.88.277,3.962-.555,8-.266,11.962.8,10.935,12.363,18.713,22.989,15.7,5.188-1.469,9.393-6.147,9.913-11.345.714-7.146-1.44-13.111-7.546-17.356-2.917-2.028-6.3-1.624-9.527-2.211-5.058-.918-5.936-3.778-3.226-8.656,4.16-7.488,6.383-8.881,14.116-5.536,6.15,2.66,11.366,3.386,16.606-1.167,4.065-3.533,8.2-4.049,12.515-.482,4.721,3.9,9.514,3.685,14.809.9,2.2-1.156,5.117-1.31,7.7-1.272,3.273.047,7.071,5.069,6.923,8.7-.124,3.055-2.079,4.654-4.82,5.441-1.279.367-2.593.612-3.894.9-6.046,1.334-9.363,5.582-9.566,11.263-.218,6.113,1.9,11.795,7.555,15.426,5.922,3.8,14.017,2.824,17.575-3.14,3.724-6.242,7.326-12.863,9.264-19.8,3.791-13.569,12.978-19.179,25.987-21.044,4.938-.708,7.652.468,8.472,5.419a17.637,17.637,0,0,0,.689,3.906c2.106,5.024,6.717,6.48,11.225,3.318,3.254-2.281,6.021-5.25,9.244-7.583,4.785-3.466,9.833-3.429,15-.536,4.781,2.679,6.244,7.554,3.01,11.615-2.474,3.108-5.742,5.636-7.929,8.909a13.526,13.526,0,0,0,1.417,16.6c3.705,3.946,8.725,4.8,14.7,2.5,10.176-3.909,13.483-9.964,12.013-22-1.346-11.011.652-14.541,10.46-17.512a43.494,43.494,0,0,1,9.777-1.637c7.647-.49,9.832,1.338,12.211,9.716.358,1.262.154,2.688.54,3.936,1.846,5.967,7.815,7.366,12.256,2.643,2.708-2.879,4.745-6.38,7.195-9.515,2.968-3.8,6.582-3.693,10.643-1.762,14.042,6.677,20.554,23.706,18,40.986-.443,3-2.766,4.378-5.571,4.766a35.088,35.088,0,0,1-3.954-.2c-13.536.269-21.223,6.9-22.659,19.5a8.722,8.722,0,0,0,11.77,9.182,43.583,43.583,0,0,0,6.859-3.869c9.939-6.059,13.684-4.064,14.456,7.833.479,7.377-.127,14.528-3.12,21.518-4.04,9.439-5.783,10.221-13.743,3.692-3.658-3-6.947-5.846-12.12-5.962-7.817-.175-12.832,2.289-14.391,7.917-1.641,5.921.433,13.151,6.554,15.117,7.18,2.306,12.342,7.3,18.674,10.6,11.032,5.751,10.951,5.905,16.651,20.472-2.828,4.251-8.294,3.735-11.959,6.553-3.519,2.706-4.285,7.713-1.106,10.314,2.031,1.661,4.594,2.665,6.658,4.292,9.637,7.6,12.79,20.548,7.963,32.139-1.9,4.571-5.117,5.571-9.271,2.848a8.415,8.415,0,0,1-1.461-1.36c-4.05-4.356-8.727-6.54-13.991-2.475-4.557,3.519-3.361,8.156-1.25,12.66.916,1.954.678,4.235-1.315,4.9a9.212,9.212,0,0,1-5.748-.576c-5.193-2.035-8.095-6.726-11.6-10.691-.01.01-.354.372-.365.381,9.866-1.011,11.484-2.3,11.625-9.243.178-8.811-.731-11.225-9.569-25.388,3.176-2.518,6.135-1.568,8.968.6,4.2,3.22,8.152,6.829,12.62,9.613,2.686,1.674,6.105,2.319,9.285,3,2.179.468,3.5-1.076,4.329-3.086.645-1.566.41-2.657-1.16-3.344-7.462-3.261-13.382-8.359-18.609-14.581-4.278-5.092-10.547-7.137-19.586-7.614,9.519-9.263,19.4-10.168,28.522-11.951-.252-7.55-10.4-7.231-9.5-15.031.253-2.205-3.894-3.106-6.571-3.373-7.29-.727-14.424-1.048-21.632,1.574-9.846,3.582-20,6.322-31.875,10,7.293-10.879,16.02-14.7,26.407-15.447,3.93-.284,7.892-.232,11.8-.7.765-.092,1.778-1.851,1.852-2.9a4.525,4.525,0,0,0-1.407-3.272c-2.75-2.388-6.278-1.988-9.523-1.785-14.751.921-29.085,3.667-42.011,11.294-14.993,8.848-27.327,1.757-39.944-5.766,14.741-.184,27.953-3.475,38.959-13.315,3.112-2.782,5.862-2.341,8.455.641,1.514,1.742,3.6,2.212,5.3,1.069,7.174-4.831,14.933-4.075,23.028-3.743a23.027,23.027,0,0,0,19.38-8.58c8.479-10.318,18.247-15.5,31.151-6.919,1.616,1.075,3.953-.277,4.766-2.2a4.326,4.326,0,0,0-.511-3.695c-5.968-7.4-12.818-9.807-20.75-7.214-5.677,1.856-12.079,3.04-16.049,7.664-8.869,10.329-20.127,10.823-32.514,9.269,4.013-4.5,9.458-4.75,14.542-5.633,12.033-2.089,18.35-9.852,21.375-20.995a34.778,34.778,0,0,0,1.026-5.9c1.3-14.107,7-25.527,19.691-32.811,1.715-.985,3.4-2.477,2.395-4.7-1.41-3.126-4.03-2.41-6.639-1.622-7.763,2.344-12.736,9.172-20.572,13.43-5.731-8.523-13.865-14.936-13.176-26.262.031-.506-1.986-1.644-2.981-1.569-1.126.085-2.89,1.009-3.137,1.909a17.488,17.488,0,0,0,1.262,13.528c2.185,3.986,6.209,7.16,5.662,12.4l.288-.258c-4.524.567-10.988-3.581-11.706,5.748-.439,5.708-5.588,6.682-10.38,7.138-5.55.529-10.471-1.722-15.085-4.2-13.91-7.468-28.008-6.081-42.286-1.619-4.976,1.555-9.929,3.184-17.168,5.51,4.928-7.751,11.459-8.83,16.773-11.339,10.533-4.974,18.786-12.168,24.211-22.458.854-1.62.931-3.687,1.163-5.572.056-.459-.6-1.253-1.106-1.48A11.474,11.474,0,0,0,380,66.516c-.479-.045-1.2.635-1.535,1.16-9.536,14.787-24.673,18.823-40.645,21.218,1.926-3.975,6.2-6.934,4.773-12.3a13.866,13.866,0,0,1,1.723-11.351c1.476-2.3,2.675-4.447.657-7.052-1.305-1.683-6.008-.029-8.161,2.955-3.514,4.87-5.854,9.955-5.763,16.319.081,5.6,5.119,7.253,7.117,11.178a61.435,61.435,0,0,0-13.5,26.185c-1.295,5.393-4.473,10.305-10.22,11.073-5.114.683-10.871-5.231-15.35,2.452-2.616,4.487-7,7.924-9.88,12.508-1.975,3.141,1.341,5.926,3.234,8.455,6.152,8.22,6.258,15.21-2.458,22.186-4.229,3.385-3.623,7.892-.455,12.421,1.132,1.618,2.174,3.6,3.772,4.539,7.79,4.587,10.841,11.208,9.715,20.077-.093.736,1.5,2.3,2.414,2.387a4.977,4.977,0,0,0,3.309-1.65c2.564-2.582,1.841-6.161,2.581-9.322,1.572-6.716,5.175-8.622,11.608-6.6,14.839,4.667,20.169,21.788,10.175,33.178-1.76,2.006-4.033,2.934-5.739-.908-4.187-9.43-6.128-10.287-13.96-6.852a67.479,67.479,0,0,0-8.835,4.58c-20.784,13.066-41.4,10.279-62.016-.407a83.119,83.119,0,0,0-12.62-5.779c-4.112-1.317-8.373-.12-9.76,4.357-1.616,5.218-3.911,4.671-6.116,1.127-9.763-15.7-1.051-23.627,11.784-29.091,2.894-1.232,5.2.436,6.994,2.42,4.877,5.386,6.015,13.411,12.425,17.749,11.777,10.3,26.143,10.818,40.628,10.53,4.749-.095,9.024-1.742,10.946-7.149-5.538-3.168-11.357-.514-16.959-.775-10.538-.49-21.09-.474-30.315-6.717-4.532-17.136-4.22-18.082,9.31-28.221,4.782-3.583,5.833-7.317,3.032-11.622-1.072-1.648-2.745-2.894-3.9-4.5-6.355-8.808-6.293-9.513.96-18.686,4.775-6.038,5.034-6.438-.83-10.233-4.084-2.643-7.6-5.5-9.368-9.953-2.3-5.815-5.735-8.25-12.269-6.649-5.247,1.286-8.892-2.182-11.271-6.475-3.532-6.376-6.694-12.956-10.038-19.436-2.421-4.694.652-9.1.668-13.676.023-6.77.054-13.565-6.488-17.8A7.834,7.834,0,0,0,204,61.307c-2.451.538-2.017,2.982-1.577,4.825.459,1.925,1.778,3.724,1.913,5.634.821,11.674-3.58,15.335-14.929,13.844-8.435-1.108-15.614-3.144-18.288-12.438-1.01-3.509-3.952-5.264-7.188-6.324-1-.328-2.746-.158-3.329.506-.672.765-1.028,2.94-.5,3.452,6.468,6.279,5.128,16.553,12.866,21.55-4.018,4.887-8.178,2.6-11.708,3.321-4.544.933-9.178,1.5-13.648,2.686a102.889,102.889,0,0,0-11.256,4.1c-8.9,3.523-16.841,3.941-22.377-5.835-1.154-2.039-3.521-1.182-4.965.2a4.907,4.907,0,0,0-1.526,3.409c1.294,14.463,12.355,21.257,25.217,15.372,4.216-1.929,8.018-4.741,12.118-6.949,6.1-3.287,7.12-3.415,19.871-4.041-8.783,5.445-16.773,10.746-25.091,15.469-11.252,6.389-21.629,5.529-29.541-1.866-7.962-7.441-9.942-20.567-4.446-31.355,2.108-4.138,5.26-7.777,7.108-12.005,1.262-2.887,1.394-6.4,1.436-9.637.022-1.758-.708-4.209-3.48-3.628a4.293,4.293,0,0,0-2.864,2.114c-1.078,3.107-1.138,6.675-2.645,9.5-3.418,6.417-7.465,12.5-11.931,19.826-7.274-2.638-12.653-9.761-20.874-9.826-1.319-.01-2.695-.4-3.938-.126-1.207.266-2.808.916-3.236,1.854-.334.732.56,2.708,1.431,3.192,4.62,2.568,9.595,4.528,14.088,7.285C88,99.9,92.748,106.368,91.54,115.271c-1.53,11.28,2.528,19.478,11.975,25.282,1.529.939,2.035,1.8.719,3.138a7.859,7.859,0,0,1-3.1,2.192c-4.856,1.385-9.107-1.024-13.462-2.537-5.645-1.961-11.112-4.607-16.889-5.974-8.047-1.905-14.512,1.335-18.416,8.416a4.123,4.123,0,0,0,.517,3.623c.636.848,2.91,1.705,3.223,1.377,9.017-9.473,17.822-5.7,26.494.355a43.1,43.1,0,0,0,34.112,7.1c5.534-1.077,10.613-1.332,15.254,2.042,4.593,3.34,9.183,5.531,14.611,2.01,2.318-1.5,4,.126,5.184,1.422,12.354,13.526,27.907,13.6,44.448,10.4-6.15,9.492-9.663,12.319-19.178,13.348-13.257,1.434-26.6,2.72-38.976-4.483-3.412-1.985-7.092-3.749-11.321-3.15l.192.218c-3.529-7.063-10.158-7.81-16.847-7.9-6.061-.084-12.263.345-15.611,6.637-2.163,4.066-6.792,3.769-9.843,6.175-2.088,1.647-1.41,4.621-.134,4.974,15.594,4.308,28.734,13.3,42.521,21.171,3.716,2.123,9.079,1.776,13.694,1.822,7.638.075,15.379.312,22.949-2.443-2.97,2.592-5.853,5.292-8.925,7.756-11.992,9.619-19.407,9.617-31.966-.076-5.268-4.065-10.219-8.547-15.561-12.506-12.325-9.13-25.738-9.59-39.706-4.4a3.2,3.2,0,0,0-1.592,1.169c-.608,1.033-1.549,2.363-1.3,3.277a3.677,3.677,0,0,0,2.729,2.22c4.614-.228,9.2-1.121,13.813-1.258,4.817-.144,5.7.618,12.732,7.238-1.469,2.739-4.353,2.2-6.7,2.834-9.044,2.418-15.145,7.772-18.1,16.868-2.065,6.362-4.658,12.573-11.74,15.3-.465.179-.752,2.5-.252,3.1a4.653,4.653,0,0,0,3.382,1.428c5.881-.281,9.706-3.986,12.812-8.473,2.975-4.3,4.752-9.714,10.954-10.807,1.535,3.467-.882,6.133-1.929,8.907-2.028,5.37-1.261,10.431.521,15.577,1.155,3.335,3.056,6.336,6.792,6.134,3.947-.215,5.178-3.538,5.316-7.117.051-1.323-.2-2.655-.216-3.984-.173-17.141,9.964-25.022,26.927-20.433,6.372,1.723,12.411,4.668,18.618,7.014,4.4,1.665,5.2,5.538,6.247,9.467.589,2.214.409,5.861,4.549,4.822,3.1-.779,3.483-3.471,3.977-6.137,2.971-16.021,11.155-28.207,26.277-35.566.058,5.7-4.746,8.155-7.136,12.044-2.784,4.53-6.159,8.692-9.03,13.171-5.389,8.407-10.525,16.837-10.932,27.4-.146,3.8-1.935,7.726-3.673,11.25-7.635,15.48-13.546,17.268-29.983,9.532a19.894,19.894,0,0,0-3.692-1.442c-.286-.069-.937.885-1.231,1.463a2.525,2.525,0,0,0-.328,1.727,15.353,15.353,0,0,0,1.7,3.5c2.912,4.282,8.165,7.971,5.654,13.984-3.413,8.177-8.766,15-17.6,17.983-4.4,1.488-7.715-.949-10.432-4.114-6.21-7.237-13.9-10.192-23.191-7.706-2.381.637-4.6,2.459-6.5,4.173-2.147,1.94-.358,3.82,1.351,4.313,2.455.707,5.171.505,7.957.7-.345,7.884-9.044,10.135-10.1,16.915a4.3,4.3,0,0,0,1.166,3.429c.668.555,2.946.477,3.287-.075,4.812-7.8,12.062-10,20.6-9.161,8.406.821,13.314,5.732,13.744,14.176.474,9.326.629,18.665-4.461,27.175a3.875,3.875,0,0,1-4.659,2.08ZM251.534,109.482c3.18,4.641,5.332,9.894,7.66,14.949,2.417,5.247,6.4,9.674,8.464,15.4,1.46,4.051,6.385,3.925,10.449,3.869,2.329-.032,4.065-1.351,4.4-3.2a134.411,134.411,0,0,1,10.946-33.79c.261-.547-1.06-2.011-1.866-2.83-.348-.353-1.263-.2-1.918-.188a7.33,7.33,0,0,0-6.4,3.954c-1.974,3.435-3.518,7.125-5.586,10.5-1.733,2.825-6.408,3.127-8.6.555-2.119-2.487-3.556-5.568-5.742-7.983C260.423,107.488,256.743,106.589,251.534,109.482Zm8.792-45.774c-2.062,1.164-3.678,1.546-4.129,2.487a3.752,3.752,0,0,0,.771,3.461c8.314,7.322,14.433,15.36,10.659,27.411-.311.993.438,2.615,1.175,3.577a7.009,7.009,0,0,0,6.9,2.8c2.274-.328,3.793-2.219,3.346-3.916-3.075-11.672.335-21.836,6.266-31.725.974-1.624-1.4-4.263-3.21-3.518C274.423,67.442,266.94,65.906,260.326,63.708Zm7.452,118.353c2.586,2.514,5.884,2.6,9.129,2.514,4.094-.111,5.761-2.421,4.779-6.232-1.865-7.235-4.435-10.365-7.739-9.541-5.047,1.26-3.793,6.31-5.683,9.46C267.66,179.27,267.915,180.793,267.778,182.061Z"/><path class="b" d="M270.831,460.1c5.507-2.43,3.424-8.1,5.244-12.092a4.525,4.525,0,0,1,2.865-2.276,3.542,3.542,0,0,1,3.076,1.374c1.844,4.35,4.017,8.346,7.836,11.349,2.069,1.626,1.13,3.5-.412,4.912-3.84,3.521-2.2,6.089,1.887,6.325,9.892.571,19.841.662,29.746.327,6.6-.223,13.175-1.375,19.724-2.366,5.467-.827,7.869-4.866,5.568-10.23A111.1,111.1,0,0,0,337.9,441.7c-3.1-4.872-7.283-7.364-13.52-4.7-2.527,1.08-5.724-.237-5.518-3.7.184-3.1,3.306-3.62,5.9-4.158,5.675-1.179,10.291,2.029,15.255,3.739,2.259.779,4.345-.1,4.871-1.8a6.014,6.014,0,0,0-1.327-5.267,33.177,33.177,0,0,0-8.521-4.955c-2.75-1.168-5.786-1.663-8.726-2.463,1.676-3.618,4.417-3.626,6.9-3.333,7.747.912,13.415,5.494,18.268,11.176,1.938,2.27,2.3,4.53-1.413,5.689-3.608,1.126-5.993,3.574-4.194,7.327a56.654,56.654,0,0,1,5.5,23.077c.09,2.743,2.948,4.59,5.617,4.893,8.784,1,17.14-1.328,25.219-4.415,1.378-.527,3.18-3.919,2.692-4.732-4.154-6.922-.384-8.168,5.32-7.665,13.878,1.225,27.978,1.2,41.213,6.446a3.579,3.579,0,0,1,1.744,2.857,3.905,3.905,0,0,1-2,2.9c-17.219,5.775-35.22,6.928-53.1,7.792-19.858.96-39.754,3.566-59.717-.349-4.865-.955-10.46,1.349-15.634,2.531-9.869,2.254-19.87,3.023-29.715.971-9.167-1.911-18.149-1.367-27.374-1.467-39.169-.424-78.4-1.777-116.731-11.378a34.509,34.509,0,0,1-7.4-2.666c-.84-.432-1.118-2.146-1.41-3.335-.089-.359.538-1.135,1.006-1.348,1.8-.814,3.624-1.958,5.512-2.118,13.8-1.167,27.628-2.125,41.527-3.156-.3,11.627-.367,11.977,7.463,13.565,11.077,2.247,22.253,4.039,33.424,5.778,5.484.854,9.156-1.789,9.23-7.588a55.447,55.447,0,0,1,6.256-24.906A10.992,10.992,0,0,1,232,428.867c2.169-.5,6.1,2.2,5.588,4.236a90.512,90.512,0,0,1-2.973,9.334c-2.313,6.275-4.388,12.572-3.995,19.4.221,3.835,2.03,6.394,5.983,6.346,3.659-.044,6.166-2.073,6.666-5.952.508-3.944.518-8.008,1.515-11.819,1.507-5.763,3.11-11.744,9.235-14.68,6.554-3.141,7.687-9.4,7.1-15.223-2.2-21.839-.917-43.914-4.768-65.636-1.273-7.179-1.523-14.536-2.676-21.743-.246-1.542-2.126-3.362-3.692-4.04-2.986-1.293-3.049,1.929-3.071,3.273-.1,5.948-.294,11.983.544,17.844,3.305,23.135,2.074,46.442,3.039,69.661.041.994-.946,2.031-2.753,5.65-1.852-22.76-4.529-43.01-4.87-63.3-.37-21.956-5.59-41.9-18.191-60.116,3.777-4.95,9.369-4.813,14.253-4.861,28.555-.28,57.114-.137,85.571-.137,2.212,3.485.827,6.508-1.252,9.175-11.519,14.769-15.939,32.007-17.43,50.2-1.682,20.506-3.079,41.036-5.171,61.556-3.017-25.777-3.565-51.567.183-77.371.476-3.281,1.49-6.517,1.626-9.8.068-1.65-1.278-3.359-1.984-5.041-1.6.952-4.218,1.586-4.633,2.91a130.94,130.94,0,0,0-4.232,17.42c-3.638,21.7-5.864,43.5-4.235,65.575.9,12.2-.673,16.591-4.137,14.853-6.341-3.182-3.545-9.231-3.98-14.083-.831-9.249-.252-18.555-.81-27.869-.54-9.019,2.283-18.214,3.344-27.365.688-5.937,1.025-11.93,1.176-17.906.044-1.76-.558-4.417-1.777-5.156-3.163-1.917-4.2,1.5-5.907,3.242-1.148,1.17-2.737,3.293-3.567-.359-.443-1.953-1.64-4.159-3.482-3.6-1.219.369-2.421,3.155-2.408,4.849.1,13.3.443,26.6.8,39.9.519,19.149,3.78,38.2-1.5,57.424-2.3,8.37,4.277,16.455,6.06,24.859-3.614-.852-5.387-3.556-6.5-6.736-.862-2.475-1.111-5.186-2.139-7.576-1.094-2.544-6.847-2.74-8.648-.625-4.492,5.278-4.05,12.35-6.675,18.327-.725,1.65.914,3.464,2.863,4.461,5.1,2.613,10.191,1.261,15.411.507C271.193,468.05,270.406,463.828,270.831,460.1Z"/><path class="b" d="M126.606,356.282c1.44,1.1,2.173,2.936,4.838,2.347,5.137-1.137,10.422-1.61,15.645-2.357,2.422-.347,5.957.654,6.689-2.314,1.181-4.787-3.174-4.467-6.16-5.4-12.222-3.834-15.512-8.927-13.149-19.989,2.245-10.506,11.811-17.961,21.424-16.7a12.551,12.551,0,0,1,10.867,10.124c.865,4.894-.278,9.3-5.151,11.747a5.13,5.13,0,0,1-3.572.078c-1.485-.5-1.525-1.791-.577-3.252a9.918,9.918,0,0,0,1.779-3.482c.521-3.29-2.788-6.8-5.615-6.23-8.92,1.808-12.533,11.393-6.85,18.176,8.22,9.813,25.75,6.61,31.315-5.873a28.23,28.23,0,0,0,2.049-15.562c-.98-7.222-1.524-14.5-2.254-21.76-1.509-15.007.172-29.057,11.192-40.722,2.161-2.287,3.238-5.658,4.49-8.664.155-.37-1.708-1.58-2.636-2.4l-.335.307c.789,1.017,1.894,3.038,2.322,2.9,11.382-3.566,23.213-6.3,33.821-11.508,6.208-3.048,11.072-3.221,16.8-1.01,4.309,1.662,8.545,3.514,12.809,5.289,1.6.668,2.106,1.9,1.011,3.243-.739.907-2.214,2.194-2.96,1.972-15.64-4.662-26.777,4.816-38.087,12.559-12.525,8.574-19.79,21.531-24.6,35.512-2.823,8.208-1.376,17.117-.572,25.76a119.588,119.588,0,0,1,.7,17.854c-.635,11.087-7.979,17.824-16.613,23.418-3,1.942-6.316,1.493-9.659.921-8.211-1.4-15.976.9-23.318,3.973-8.274,3.463-12.693,12.48-11.512,21.272,1.011,7.525,7.443,14.872,15.372,16.494a17.484,17.484,0,0,0,9.655-.934,11.122,11.122,0,0,0,7.159-11.029c-.186-5.147-3.531-8.475-8.075-10.284-1.714-.683-3.953.077-5.87-.275-.844-.155-2.232-1.753-2.065-2.159a7.287,7.287,0,0,1,2.51-2.877c4.222-3.033,7.92-.526,10.667,2.092,6.25,5.958,6.492,14.162,6.878,22.142a4.484,4.484,0,0,1-.582,1.88c-4.286,9.564-21.345,15.238-31.237,10.588-15.051-7.074-22.871-29.029-14.025-42.5,1.723-2.624,6.722-5.458,1.872-9.683l-.327.227c1.5.2,2.549,2.394,4.611.328s-.145-3.106-.352-4.6Z"/><path class="b" d="M409.3,395.86c8.706-5.139,9.122-12.546,4.945-20.526-5.257-10.043-12.8-16.9-25.32-15.236a44.452,44.452,0,0,1-5.979.223c-13.087-.05-21.278-5.36-25.649-17.773-2.847-8.084-4.905-16.405-4.868-25.242.05-11.919-.884-23.659-4.642-35.325-5.675-17.611-17.37-27.717-34.729-32.13-5.128-1.3-10.387-2.091-15.525-3.359-2.406-.594-2.934-4.756-.981-6.54a40.391,40.391,0,0,1,15.294-9.055c2.81-.876,5.62-.569,6.691,2.27,1.941,5.139,5.609,6.519,10.672,7.263,7.131,1.048,14.715,1.353,20.692,6.269,9.807,8.065,17.824,16.544,17.545,31.065-.231,11.985-1.093,23.881-2.068,35.772-.494,6.031-1.006,11.888.678,17.754A21.076,21.076,0,0,0,399.6,341.95c4.286-3.5,5.734-10.109,3.139-14.313a11.9,11.9,0,0,0-13.719-5.218c-2.655.757-4.811,2.445-5.391,5.261-.824,4.006,2.578,3.846,4.944,4.381,1.52.344,2.8,1.085,2.315,2.557-.271.821-2.291,1.791-3.23,1.551-7.111-1.816-10.508-6.748-9.165-12.837a11.2,11.2,0,0,1,11.769-8.6c8.708.647,14.912,5.173,19.171,12.542,5.373,9.3,1.749,18.01-8.866,21.52-2.453.811-4.961,1.457-7.393,2.323-.41.146-.608,1.007-.82,1.569-.605,1.608.038,2.422,1.491,3.163,4.5,2.293,9.132.577,13.7.768,13.414.561,18.518,6.568,19,20.114.547,15.464-9.518,24.061-19.77,32.67-2.733,2.3-6.23,1.873-9.5.777-16.428-5.5-17.7-20.324-12.482-32.3,1.236-2.837,4.408-4.659,8.372-3.362,7.136,2.336,11.087,6.8,10.843,14.537-2.236-.484-2.943-2.192-3.363-4.18-.94-4.451-3.621-6.929-8.243-6.19-4.244.678-7.362,5.453-7.215,10.261a12.565,12.565,0,0,0,12.335,12.518C402.228,401.5,406.508,400.117,409.3,395.86Z"/><path class="b" d="M187.315,365.54c-.434,3.226-.4,5.238-.994,7.038-5.874,17.637,10.3,29.411,29.248,23.481,1.628-.509,3.439-2.006,2.753-4.547-.627-2.325-2.423-2.636-4.36-2.708a7.234,7.234,0,0,0-1.957.376c-5.905,1.48-10.8.014-13.062-5.861-2.2-5.719-3.083-11.646,2.615-16.374,1.521-1.262,2.54-3.15,4.1-4.341,4.871-3.715,9.959-6.614,16.408-3.522,6.309,3.025,11.162,7.026,12.137,14.555,2.195,16.948-5.269,27.232-22.834,31.213-1.945.441-3.824,1.365-5.781,1.539-23.767,2.118-30.108-8.681-29.763-30.926C175.9,370.6,180.466,367.8,187.315,365.54Zm39.267,18.225c.644-7.26-.869-12.763-5.694-17.032a11.533,11.533,0,0,0-12.817-1.436c-4.636,2.543-7.561,8.249-6.679,13.029a6.769,6.769,0,0,0,8.952,4.909c4.39-1.692,7.092-3.562,6.242,3.436-.23,1.9,1.166,3.5,3.441,3.883,3.337.566,4.534-1.9,5.8-4.081A7.667,7.667,0,0,0,226.582,383.765Z"/><path class="b" d="M314.327,384.545c.275-6.341.98-13.6,4.473-20.289,3.173-6.075,8.41-8.279,14.972-6.2,11.608,3.67,18.418,13.078,17.166,23.714-.767,6.523-6.353,10.5-12.8,8.7-1.734-.483-4.139-2.145-4.408-3.6-.7-3.782,2.268-3.093,4.917-3.414,5.687-.69,7.847-4.832,5.358-9.149-3.465-6.011-9.939-8.529-15.059-5.858-6.284,3.28-9.271,12.292-6.3,19.022a20.67,20.67,0,0,0,34.69,5c3.6-4.167,5.371-9.1,6.478-14.381.35-1.673,1.613-2.282,2.823-1.529,1.065.664,2.55,1.538,2.765,2.55,3.209,15.069-8.8,28.607-25.449,28.111-7.991-.239-15.725-2.814-22.914-6.347C314.761,397.785,313.681,391.915,314.327,384.545Z"/><path class="b" d="M458.164,197.655c-9.912,5.515-16.485,12.933-23.877,19.442a51.485,51.485,0,0,1-13.592,8.139c-6.629,2.943-13,3.109-19.151-.383-10.461-5.942-21.792-9.462-32.993-13.607-13.246-4.9-21.762-16.334-31.509-27.5,6.162-.827,8.789,2.64,11.411,4.934,11.774,10.305,26.517,15.407,40.219,21.676,11.186,5.118,24.5,5.286,36.366-2.406,6.082-3.945,12.975-6.669,19.6-9.741C448.314,196.5,452.245,195.972,458.164,197.655Z"/><path class="b" d="M93.83,375.357c1.614,9.862.777,11.934-5.62,13.192-1.918.378-3.939.2-5.9.406-2.779.289-7.3-1.877-6.578,3.861.417,3.294,3.778,3.419,6.245,3.76,4.626.64,9.248.457,13.416-2.175,2.231-1.408,4.478-2.793,6.769-4.1,1.665-.95,3.412-1.755,5.2-2.661,4.2,5.142.756,8.976-1.91,12.424-3.819,4.939-9.236,7.957-15.53,7.294-15.043-1.585-28.148-6.925-35.833-21.147-1.607-2.973-2.673-6.2-.5-9.3,2.67-3.809,5.706-1.616,8.593-.121.584.3,1.1.736,1.661,1.083s1.137.673,1.718.987c10.314,5.558,20.066,6.055,28.712-3.212Z"/><path class="b" d="M448.7,373.054c14.878,8.257,14.878,8.257,38.927,6.907,6.022-.338,9.348,1.375,8.89,4.579-.809,5.668-5.9,11.47-10,10.057-5-1.723-9.525-2.825-15.014-2.414C455.611,393.372,452.76,390.6,448.7,373.054Z"/><path class="b" d="M438.823,96.032c4.649,4.018,3.315,9.741,4.072,14.8,2.393,16-17.234,25.8-28.591,18.478-3.3-2.128-7.17-3.5-7.739-8.4,9.158.25,18.527,2.212,26.239-5.184,5.871-5.63,7.634-12.212,6.3-19.948C439.111,95.774,438.823,96.032,438.823,96.032Z"/><path class="b" d="M426.669,319.885c-1.745,4.529,1.777,7.331,3.587,10.635a36.984,36.984,0,0,1,3.688,26.391c-5.173,2.233-7.617-1.756-10.849-3.457-3.159-1.662-5.307-4.312-4.317-7.937a35.435,35.435,0,0,0-2.343-26.017c4.414-.882,7.143,2.984,10.5.635Z"/><path class="b" d="M375.375,257.371c11.094,5.1,8.338,16.291,12.255,24.054,3.827,7.585,6.793,15.6,10.181,23.538-10.719-.977-12.033-1.177-15.258-8.487C377.2,284.346,373.846,271.667,375.375,257.371Z"/><path class="b" d="M244.337,156.447c1.92,6.725-.92,12.959-1.792,19.368-.4,2.949-2.89,4.227-5.475,4.874a5.107,5.107,0,0,1-3.666-.457c-.816-.536-1.686-2.342-1.36-3.042,1.918-4.125,4.5-7.955,6.24-12.143,1.992-4.809,3.658-9.394-1.683-14.133-2.308-2.048-1.872-7.25-2.558-11.042-.4-2.192.769-4.056,2.748-4.339a8.685,8.685,0,0,1,5.423,1.249c2.848,1.8,4.83,4.492,4.281,8.151C245.915,148.8,245.063,152.633,244.337,156.447Z"/><path class="b" d="M123,359.965c-3.047-1.6-8.076.75-8.864-5.4-1.513-11.812-.681-22.419,10.7-29.568,1.044,6.475,1.025,12.733,3.21,18.093,2.126,5.212-1.65,8.78-1.436,13.193l.323-.365c-3.281-.429-5.2.5-4.259,4.275Z"/><path class="b" d="M339.064,125.077c8.487-10.039,19.849-9.707,31.169-9.122,11.592.6,12.476,1.146,22.854,10.533-9.723.278-17.6-5.518-26.89-5.572C356.863,120.863,348.381,124.91,339.064,125.077Z"/><path class="b" d="M169.243,256.109c-2.228,11.489-4.124,21.171-5.975,30.862a23.677,23.677,0,0,1-4.944,10.709c-3.425,4.235-8.2,6.479-9.654,4.145-2.389-3.829,1.347-5.88,2.485-8.682,3.977-9.794,8.124-19.524,11.845-29.415C163.967,261.16,164.7,258.774,169.243,256.109Z"/><path class="b" d="M436.668,386.927c12.457,6.568,21.007,22.6,39.261,15.6-16.406,9.127-29.473,7.723-39.212-2.983C433.191,395.671,433.109,391.533,436.668,386.927Z"/><path class="b" d="M190.93,244.046c-8.393.319-9.4-.347-7.724-5.507,2.652-8.18,5.231-16.437,11.954-22.472,1.782-1.6,6.187-.615,6.708,1.667,1.338,5.858,2.611,11.618-2.973,16.441-3.3,2.85-8.537,4.361-8.3,10.176Z"/><path class="b" d="M126.735,179.837c-2.943,1.288-3.976,3.719-1.815,5.959,4.248,4.4,9.016,8.3,16.7,15.238-15.125-4.462-25.5-9.67-35.968-14.607a4.317,4.317,0,0,1-2.057-2.959c-.346-3.238,2.492-2.185,4.113-2.563,5.409-1.261,10.3,1.143,15.34,2.4,2.818.7,2.9-1.78,3.876-3.243Z"/><path class="b" d="M187.18,445.355c2.974-17.807,11.19-27.616,26.607-30.515,3.018-.567,6.444.6,9.579,1.382.814.2,1.375,1.917,1.763,3.038.12.345-.634,1.136-1.141,1.524-1.027.787-2.181,2.084-3.243,2.047C205.392,422.3,196.468,432,187.18,445.355Z"/><path class="b" d="M223.664,319.214c-8.439-2.61-12.611-9.466-16.8-16.084-2.075-3.274-3.35-7.389-1.49-11.356.771-1.644,2.467-2.853,3.742-4.26.885.895,1.825,1.744,2.63,2.707a3.035,3.035,0,0,1,.811,1.78C212.216,302.644,218.143,310.554,223.664,319.214Z"/><path class="b" d="M306.59,172.9c5.406-7.456-1.451-14.669-3.6-22.583-.689-2.532-1.615-5.13-.049-7.566a4.947,4.947,0,0,1,2.932-2.041c1.148-.2,3.306.129,3.553.783,2.078,5.5,3.846,11.115,5.6,16.731.119.38-.538,1.26-1.039,1.535-9.319,5.116-2.824,10.931-.805,16.572.422,1.178.983,2.583.681,3.659-.267.95-1.575,1.716-2.581,2.288-.328.187-1.238-.386-1.73-.794C307.365,179.673,306.843,177.13,306.59,172.9Z"/><path class="b" d="M362.3,242.787c-10.732-5.478-15.161-13.153-13.975-23.986a3.992,3.992,0,0,1,2.27-2.687c.963-.345,2.91-.039,3.387.675C358.993,224.281,363.713,231.937,362.3,242.787Z"/><path class="b" d="M304.661,450.131c-1.277-.21-2.562-.375-3.831-.624-5.921-1.163-7.484-3.628-5.225-9.351.882-2.236,2.61-4.883,4.637-5.758,3.534-1.526,5.879,1.493,7.7,4.131a20.56,20.56,0,0,1,2.307,5.291C311.761,448.413,309.586,450.821,304.661,450.131Z"/><path class="b" d="M461.44,422.851q6.505.048,6.641,7.6c.092,5.045-2.549,8.269-6.349,7.751-4.674-.636-7.318-4.372-6.848-9.887C455.22,424.37,457.869,423.016,461.44,422.851Z"/><path class="b" d="M416.466,431.8c-.1,3.791-2.856,6.853-5.841,6.3-4.825-.89-6-4.727-6.212-8.742-.21-4.076,2.765-5.737,6.338-6.053C414.606,422.966,416.611,426.11,416.466,431.8Z"/><path class="b" d="M192.885,146.224c-1.827,3.432-3.446,7.16-7.417,8.516-3.752,1.28-7.683,1.468-10.887-1.451a3.563,3.563,0,0,1-.659-3.34c2.17-3.511,4.889-5.962,9.413-3.247,2.547,1.53,5,.735,6.939-1.281C191.9,143.739,192.806,143.389,192.885,146.224Z"/><path class="b" d="M144.912,429.641c-.132,2.909-1.4,5.019-4.416,5.489-4.031.628-7.306-2.189-7.852-6.831-.358-3.046,1.257-5.084,4.269-5.435C141.22,422.363,144.454,425.259,144.912,429.641Z"/><path class="b" d="M95.292,426.112c.368,5.318-1.642,8.029-6.07,8.186-4.836.172-7.531-2.346-7.495-7,.037-4.741,2.4-7.009,7.416-7.126C92.969,420.081,95.012,422.054,95.292,426.112Z"/><path class="b" d="M335.4,345.135c-.79.518-2.3,2.338-3.9,2.417-6.462.321-10.425-3.008-12.483-10.081a4.7,4.7,0,0,1,.581-3.752c2.972-3.554,2.774,1.031,3.14,1.721,2.5,4.71,6.617,6.121,11.481,6.426C336.118,341.985,336.674,342.842,335.4,345.135Z"/><path class="b" d="M114.951,435.145c-3.944-.565-5.986-3.732-5.478-8.5.4-3.8,3.3-6.537,6.128-5.721,4.38,1.263,5.67,4.721,5.762,8.741C121.436,432.9,118.087,435.6,114.951,435.145Z"/><path class="b" d="M442.693,432.37c.1,3.2-1.755,5.381-5.535,5.8-4.387.49-6.632-2.213-6.265-7.378.248-3.493,1.409-6.281,5.38-6.708S442.718,426.665,442.693,432.37Z"/><path class="b" d="M206.715,152.964c-.482-.207-1.124-.282-1.42-.641-2.01-2.439.658-10.3,3.842-11.444,1.7-.611,5.691,2.688,5.427,4.482C214.1,148.505,209.512,152.95,206.715,152.964Z"/><path class="b" d="M59.5,420.078a6.833,6.833,0,0,1,6,8.343c-.822,4.126-4.172,4.542-7.34,4.074-3.629-.537-5.349-3.057-4.692-6.852C54.08,422.083,55.968,419.952,59.5,420.078Z"/><path class="b" d="M160.024,422.612c1.125.4,2.84.479,3.343,1.3,2.4,3.9.862,7.536-1.67,10.693-.56.7-2.644.878-3.61.419-2.757-1.31-2.9-4.034-2.708-6.7C155.593,425.376,157.284,423.565,160.024,422.612Z"/><path class="b" d="M341.508,296.285c.695,3.489-.551,6.457-2.476,9.146-.7.972-1.9,2.225-2.876,2.23-2.855.016-2.174-2.227-1.906-3.973.394-2.568.779-5.145,1.36-7.674.438-1.907,1.155-4.054,3.778-2.679C340.36,293.844,340.835,295.3,341.508,296.285Z"/><path class="b" d="M489.451,431.346c-.779,2.447-1.43,4.32-3.728,4.64-3.117.435-4.9-1.283-5.274-4.1a12.287,12.287,0,0,1,.7-5.579,4.507,4.507,0,0,1,2.81-2.32,3.606,3.606,0,0,1,4.579,2.331A29.7,29.7,0,0,1,489.451,431.346Z"/><path class="b" d="M206.74,108.577c-6.386-1.777-10.945-6.009-17.706-12.244,10.43,1.086,17.386,1.89,17.483,11.991Z"/><path class="b" d="M149.82,137.4a3.572,3.572,0,0,1,3.427,3.9c.018,2.2-1.154,3.879-3.424,3.809a3.62,3.62,0,0,1-3.5-3.915C146.33,139.121,147.391,137.5,149.82,137.4Z"/><path class="b" d="M206.606,448.118c-.377,1.712-.43,3.794-2.645,4.063-.516.063-1.938-1.823-1.738-2.373.7-1.929-.065-5.252,3.552-4.889C206.156,444.958,206.335,447,206.606,448.118Z"/><path class="b" d="M397.845,147.462c-.177,1.123.01,2.6-.635,3.435a26.6,26.6,0,0,1-4.108,3.619,29.466,29.466,0,0,1-1.846-4.621,6.313,6.313,0,0,1,.3-3.673c.381-.885,1.57-2.042,2.355-2.009C395.78,144.294,397.518,145.131,397.845,147.462Z"/><path class="b" d="M339.81,152.146a16.023,16.023,0,0,1-2.118,2.6,1.9,1.9,0,0,1-1.786-.344c-1.347-1.43-2.913-2.846-3.674-4.584a3.1,3.1,0,0,1,2.14-4.487,3.857,3.857,0,0,1,3.321,1.3C338.737,148.276,339.151,150.316,339.81,152.146Z"/><path class="b" d="M391.374,432.542c-.246,1.966-1.667,3.909-4.853,3.407-3.151-.5-3.867-3.053-3.709-5.748.153-2.628.915-5.05,4.116-5.56C389.923,424.164,391.823,427.054,391.374,432.542Z"/><path class="b" d="M179.9,422.137c.844-.051,1.781.769,1.437,2.311a6.337,6.337,0,0,1-1.97,3.007c-1.325,1.205-2.741.825-2.975-.876C176.1,424.46,177.251,422.9,179.9,422.137Z"/><path class="b" d="M338.683,325.05c-.743.6-1.5,1.723-2.3,1.761-1.906.088-3.928-.308-3.338-3.071a2.186,2.186,0,0,1,1.292-1.307C336.618,321.684,337.779,323.077,338.683,325.05Z"/><path class="b" d="M206.517,108.324l.782.376s-.577-.149-.568-.136S206.517,108.324,206.517,108.324Z"/><path class="a" d="M251.534,109.482c5.209-2.893,8.889-1.994,11.813,1.237,2.186,2.415,3.623,5.5,5.742,7.983,2.191,2.572,6.866,2.27,8.6-.555,2.068-3.371,3.612-7.061,5.586-10.5a7.33,7.33,0,0,1,6.4-3.954c.655-.016,1.57-.165,1.918.188.806.819,2.127,2.283,1.866,2.83a134.411,134.411,0,0,0-10.946,33.79c-.339,1.846-2.075,3.165-4.4,3.2-4.064.056-8.989.182-10.449-3.869-2.065-5.728-6.047-10.155-8.464-15.4C256.866,119.376,254.714,114.123,251.534,109.482Z"/><path class="a" d="M260.326,63.708c6.614,2.2,14.1,3.734,21.781.573,1.811-.745,4.184,1.894,3.21,3.518-5.931,9.889-9.341,20.053-6.266,31.725.447,1.7-1.072,3.588-3.346,3.916a7.009,7.009,0,0,1-6.9-2.8c-.737-.962-1.486-2.584-1.175-3.577,3.774-12.051-2.345-20.089-10.659-27.411a3.752,3.752,0,0,1-.771-3.461C256.648,65.254,258.264,64.872,260.326,63.708Z"/><path class="a" d="M249.571,209.619c9.225,6.243,19.777,6.227,30.315,6.717,5.6.261,11.421-2.393,16.959.775-1.922,5.407-6.2,7.054-10.946,7.149-14.485.288-28.851-.229-40.628-10.53Q247.421,211.676,249.571,209.619Z"/><path class="a" d="M338.165,88.644c-2-3.925-7.036-5.583-7.117-11.178-.091-6.364,2.249-11.449,5.763-16.319,2.153-2.984,6.856-4.638,8.161-2.955,2.018,2.6.819,4.752-.657,7.052A13.866,13.866,0,0,0,342.592,76.6c1.428,5.365-2.847,8.324-4.773,12.3C337.8,88.909,338.165,88.644,338.165,88.644Z"/><path class="a" d="M267.778,182.061c.137-1.268-.118-2.791.486-3.8,1.89-3.15.636-8.2,5.683-9.46,3.3-.824,5.874,2.306,7.739,9.541.982,3.811-.685,6.121-4.779,6.232C273.662,184.663,270.364,184.575,267.778,182.061Z"/><path class="a" d="M270.831,460.1c-.425,3.727.362,7.949-5.323,8.771-5.22.754-10.309,2.106-15.411-.507-1.949-1-3.588-2.811-2.863-4.461,2.625-5.977,2.183-13.049,6.675-18.327,1.8-2.115,7.554-1.919,8.648.625,1.028,2.39,1.277,5.1,2.139,7.576,1.109,3.18,2.882,5.884,6.5,6.736Z"/><path class="a" d="M122.67,360.192c-.943-3.778.978-4.7,4.259-4.275.207,1.5,2.419,2.531.352,4.6S124.17,360.4,122.67,360.192Z"/><path class="a" d="M409.3,395.86c-2.788,4.257-7.068,5.638-11.779,5.6a12.565,12.565,0,0,1-12.335-12.518c-.147-4.808,2.971-9.583,7.215-10.261,4.622-.739,7.3,1.739,8.243,6.19.42,1.988,1.127,3.7,3.363,4.18Q406.64,392.444,409.3,395.86Z"/><path class="a" d="M226.582,383.765a7.667,7.667,0,0,1-.753,2.708c-1.268,2.177-2.465,4.647-5.8,4.081-2.275-.386-3.671-1.981-3.441-3.883.85-7-1.852-5.128-6.242-3.436a6.769,6.769,0,0,1-8.952-4.909c-.882-4.78,2.043-10.486,6.679-13.029a11.533,11.533,0,0,1,12.817,1.436C225.713,371,227.226,376.505,226.582,383.765Z"/></svg>