<svg xmlns="http://www.w3.org/2000/svg" viewBox="0 0 543.348 543.348"><defs><style>.a{fill:#df271f;}.b{fill:#dfcf06;}.c{fill:#fcfcfb;}</style></defs><path class="a" d="M442.282,38.831c-14.25,15.642-17.54,33.5-11.848,53.73,4.472,15.9,7.907,32.082,12.085,49.3-4.895,4.56-11.835,3.291-18.15,3.656-7.386.427-14.653,1.138-21.33,4.479a24.707,24.707,0,0,0-6.161,4.881,4.671,4.671,0,0,0-1.051,3.593c.384,2.181,2.1,3.026,4.28,2.544,8.411-1.858,16.8-3.792,25.223-5.615a30.936,30.936,0,0,1,13.854-.2c6.461,1.522,7.98,4.278,5.136,12.3-1.636,4.612-1.259,9.167-1.394,13.775-.784,26.66-3.549,53-10.754,78.827a246.548,246.548,0,0,1-32.612,70.278c-11.481,17.328-24.821,32.9-41.352,45.651-30.32,23.381-64.091,34.456-102.623,29.684-11.407-1.413-22.2-4.225-32.13-9.962-4.478-2.588-7.69-1.37-9.827,2.78-9.52,18.491-26.859,27.038-44.551,34.97-27.808,12.467-56.614,13.2-85.915,6.412-9.03-2.091-18.041-4.265-27.065-6.395q-1.305-.968-2.6-1.947c-.008.583-.246,1.32.021,1.721.918,1.383,1.943,1.261,2.831-.2-2.574,4.224,1.184,5.869,3.453,7.756A297.531,297.531,0,0,0,116.636,477.6c26.973,13.579,55.413,23.5,85.04,27.51,22.11,2.989,45.075,4.074,67.36-2.244,5.087-1.442,10.545-1.543,15.677-2.864,19.421-5,37.779-11.923,54.139-24.349,15.873-12.056,32.208-23.477,46.788-37.13,32.9-30.806,53.193-69.381,68.034-111.217,1.982-5.586,2.733-11.62,3.934-17.47,8.607-41.915,11.336-84.141,6.615-126.752-.366-3.308-.234-6.794-1.269-9.884-5.961-17.8-.71-15.965,13.128-17.091a50.416,50.416,0,0,1,9.92.4c20.326,2.4,21.72,3.944,21.726,24.873q.043,153.864.011,307.727c0,3.33.087,6.666-.076,9.99-.378,7.719-1.562,8.846-9.762,9.191-3.991.168-7.994.072-11.991.072q-213.867,0-427.734-.015c-25-.006-22.423,2.176-22.432-22.562q-.077-213.81,0-427.62c.01-23.807-2.578-21.709,21.073-21.718q182.886-.075,365.772.033c6.56,0,13.366-1.327,19.559,2.169ZM228.268,155.057c12.723,17.9,27.12,23.2,43.958,17.349,4.392-1.525,8.466-4.07,12.92-5.293,12.442-3.416,26.882,2.72,32.583,13.409,3.405,6.384,2.555,13.341-2.6,18.289-4.4,4.223-9.463,7.245-15.813,7.745-2.406.189-6.117-.1-5.744,3.582.231,2.285,2.162,4.763,3.977,6.467,15.092,14.166,32.66,19.919,53.187,15.064,1.3-.306,2.589-.637,3.9-.887,8.9-1.7,17.3.59,25.321,3.936,8.958,3.736,15.792,15.457,14.763,24.067-1.338,11.195-10.856,22.59-20.6,24.616-1.291.268-2.783.849-3.9.467-9.868-3.373-21.334-1.773-29.645-10.256-3.18-3.247-7.693-5.185-10.107-9.4-3.858-6.741-11.128-6.722-17.4-8.467-6.023-1.676-11.852-1.233-17.018,3.874,1.6,2.1,3.325,4.063,4.727,6.238,4.109,6.378,3.9,8.783-1.159,13.805a10.838,10.838,0,0,1-3.368,2.123c-4.073,1.741-3.465,9.124-10.086,7.973-4.687-.815-9.2-1.928-12.945-4.831-8.343-6.464-13.246-14.882-13.044-25.661.136-7.317.639-14.633,1.174-21.935,1.036-14.139-5.375-24.091-16.816-31.743-11.147-7.455-23.078-9.931-36.114-7.223-3.249.674-6.369,1.956-9.607,2.7-19.305,4.443-32.481-1.469-41.618-18.681-1.244-2.344-2.083-4.9-3.155-7.337-5.435-12.349-15.314-17.783-28.4-18.256-6.149-.222-8.289.7-9.006,7.476-.981,9.284-6.289,14.054-14.019,17.656-12.708,5.922-24.607,3.117-36.454-2.545-3.139-1.5-5.265-6.1-9.9-3.747,1.179,13.071,2.67,16.328,12.446,25.628,6.8,6.468,13.715,12.556,24.218,12.083,9.954-.449,19.943-.213,29.915-.136,7.473.057,12.386,4.484,15.989,10.392,5.256,8.618.452,19.253-9.6,21.685-3.636.88-7.927-1.088-10.952,2.5,5.652,11.565,5.589,11.65,11.055,15.723,14,10.431,29.641,14.806,46.976,12.025,8.042-1.291,15.846-1.626,23.564,1.565,10.11,4.179,16.25,11.324,17.189,22.427.983,11.623-3.415,20.623-13,27.415-6.972,4.942-23.362,4.73-29.357-3.353a137.872,137.872,0,0,0-11.539-13.774c-6.333-6.544-9.794-6.336-17.918.2-8.275,6.658-16.148,6.017-22.379-1.936-1.216-1.553-1.946-3.476-3.053-5.126-7.833-11.677-16.495-13.758-28.523-6.242-5.028,3.142-10.29,6.649-13.869,11.224-8.169,10.442-17.969,17.571-32.689,18.812,11.788,6.712,11.832,6.872,19.3,6.183,4.634-.427,9.2-1.805,13.827-2.048,16.753-.879,31.758,13.827,31.984,28.971.231,15.432-17.288,27.506-31.651,26.237-8.844-.781-16.2-4.875-23.967-7.717-3.384,4.188-1.988,7.852.045,11.391,8.075,14.055,20.675,22.931,35.666,27.288,33.7,9.793,64.339,2.468,91.717-19.187,12.507-9.893,19.868-21.384,12.875-38.059-1.728-4.119,2.362-7.487,7.077-6.034,11.448,3.528,22.64,7.645,32.818,14.237,10.737,6.955,22.658,11.2,35.155,13.694,25.357,5.069,53.989-6.577,56.249-35.727.3-3.855,3.685-5.7,7.319-3.531,8.833,5.272,17.96,5.874,26.515.572,11.893-7.369,23.118-15.675,30.019-28.556,5.993-11.185,12.055-22.311,14.122-35.007a33.254,33.254,0,0,1,4.748-13c12.484-19.4,12.951-41.517,14.231-63.423.872-14.913-16.947-22.131-25.113-15.725-9.5,7.451-14.377,4.21-20.53-2.877-2.235-2.574-5.911-2.844-9.331-2.624-3.326.214-6.67.6-9.315-1.9a7.59,7.59,0,0,1,2.876-7.046c4.029-3.507,7.937-6.9,7.785-13.138-.139-5.672-2.3-10.319-5.5-14.675-6.877-9.347-15.29-16.259-26.842-19.6-25.21-7.29-48.511-5.555-69.577,11.685C256.323,146.06,244.2,152.956,228.268,155.057Zm20.589-38.4c-11.479-8.891-17.046-17.742-22.958-26.415-6.37-9.344-13.97-17.84-24.277-23.123-14.368-7.365-29.745-9.443-43.637-.759-9.77,6.108-19.233,11.392-30.626,13.085a3.759,3.759,0,0,0-2.349,2.52,4.122,4.122,0,0,0,1.153,3.29,26.774,26.774,0,0,0,20.047,7.125c4.607-.255,9.275-1.049,13.808-.573,4.663.49,8.988,2.65,10.659,7.657,1.129,3.383-2.043,8.632-6.62,11.151-1.714.944-3.736,1.307-5.549,2.092-6.519,2.82-7.109,6.459-1.583,10.907,12.364,9.951,26.13,14.167,40.324,5.162,12.381-7.855,25.191-11.276,39.58-10.224C239.382,118.735,242.018,117.78,248.857,116.654Z"/><path class="a" d="M471.281,39.824c6.308-5.577,13.991-3.169,21.072-3.266,15.166-.208,15.307.078,15.358,15.464.1,29.948.045,59.9,0,89.843-.006,3.275-.4,6.55-.718,11.359-16.135-7.07-33.383-1.938-48.809-8.912-1.044-4.163,4-8.876-1.429-12.764-2.214-1.588-2.643-3.984-.731-6.8,2.191-3.234,1.075-6.186-2.333-8.281-4.031-2.478-6.173-4.959-.347-8.183,1.357-.75,2.114-3.3,2.4-5.131.77-4.931-9.692-4.121-5.889-10.216,3.068-4.917,2.828-8.23-1.412-12-1.168-1.036-2-4.172-1.3-5.287,2.989-4.768.551-10.247,1.49-15.2,14.431,2.5,30.423,1.311,41.741-2.831,2.886-1.056,3.429-6.095,1-8.284-4.6-4.142-10.226-6.028-15.978-7.578C474.054,41.117,472.668,40.471,471.281,39.824Z"/><path class="b" d="M471.281,39.824c1.387.647,2.773,1.293,4.108,1.934-.135,6.48-2.7,9-7.118,7.226-3.3-1.325-4.991-3.65-6.685-6.719-4.119-7.464-5.116-7.812-11.962-6.315-2.535.554-4.892,1.922-7.336,2.9-.006-.019-.151-.215-.137-.2C451.991,36.005,461.83,33.014,471.281,39.824Z"/><path class="c" d="M228.268,155.057c15.936-2.1,28.055-9,38.973-17.932,21.066-17.24,44.367-18.975,69.577-11.685,11.552,3.341,19.965,10.253,26.842,19.6,3.2,4.356,5.361,9,5.5,14.675.152,6.242-3.756,9.631-7.785,13.138A7.59,7.59,0,0,0,358.5,179.9c2.645,2.5,5.989,2.115,9.315,1.9,3.42-.22,7.1.05,9.331,2.624,6.153,7.087,11.03,10.328,20.53,2.877,8.166-6.406,25.985.812,25.113,15.725-1.28,21.906-1.747,44.027-14.231,63.423a33.254,33.254,0,0,0-4.748,13c-2.067,12.7-8.129,23.822-14.122,35.007-6.9,12.881-18.126,21.187-30.019,28.556-8.555,5.3-17.682,4.7-26.515-.572-3.634-2.169-7.02-.324-7.319,3.531-2.26,29.15-30.892,40.8-56.249,35.727-12.5-2.5-24.418-6.739-35.155-13.694-10.178-6.592-21.37-10.709-32.818-14.237-4.715-1.453-8.805,1.915-7.077,6.034,6.993,16.675-.368,28.166-12.875,38.059-27.378,21.655-58.02,28.98-91.717,19.187-14.991-4.357-27.591-13.233-35.666-27.288-2.033-3.539-3.429-7.2-.045-11.391C62,381.206,69.355,385.3,78.2,386.081c14.363,1.269,31.882-10.805,31.651-26.237-.226-15.144-15.231-29.85-31.984-28.971-4.631.243-9.193,1.621-13.827,2.048-7.465.689-7.509.529-19.3-6.183,14.72-1.241,24.52-8.37,32.689-18.812,3.579-4.575,8.841-8.082,13.869-11.224,12.028-7.516,20.69-5.435,28.523,6.242,1.107,1.65,1.837,3.573,3.053,5.126,6.231,7.953,14.1,8.594,22.379,1.936,8.124-6.537,11.585-6.745,17.918-.2a137.872,137.872,0,0,1,11.539,13.774c6,8.083,22.385,8.3,29.357,3.353,9.581-6.792,13.979-15.792,13-27.415-.939-11.1-7.079-18.248-17.189-22.427-7.718-3.191-15.522-2.856-23.564-1.565-17.335,2.781-32.98-1.594-46.976-12.025-5.466-4.073-5.4-4.158-11.055-15.723,3.025-3.584,7.316-1.616,10.952-2.5,10.053-2.432,14.857-13.067,9.6-21.685-3.6-5.908-8.516-10.335-15.989-10.392-9.972-.077-19.961-.313-29.915.136-10.5.473-17.419-5.615-24.218-12.083-9.776-9.3-11.267-12.557-12.446-25.628,4.631-2.351,6.757,2.247,9.9,3.747,11.847,5.662,23.746,8.467,36.454,2.545,7.73-3.6,13.038-8.372,14.019-17.656.717-6.778,2.857-7.7,9.006-7.476,13.089.473,22.968,5.907,28.4,18.256,1.072,2.437,1.911,4.993,3.155,7.337,9.137,17.212,22.313,23.124,41.618,18.681,3.238-.745,6.358-2.027,9.607-2.7,13.036-2.708,24.967-.232,36.114,7.223,11.441,7.652,17.852,17.6,16.816,31.743-.535,7.3-1.038,14.618-1.174,21.935-.2,10.779,4.7,19.2,13.044,25.661,3.749,2.9,8.258,4.016,12.945,4.831,6.621,1.151,6.013-6.232,10.086-7.973a10.838,10.838,0,0,0,3.368-2.123c5.055-5.022,5.268-7.427,1.159-13.805-1.4-2.175-3.126-4.143-4.727-6.238,5.166-5.107,11-5.55,17.018-3.874,6.271,1.745,13.541,1.726,17.4,8.467,2.414,4.218,6.927,6.156,10.107,9.4,8.311,8.483,19.777,6.883,29.645,10.256,1.118.382,2.61-.2,3.9-.467,9.74-2.026,19.258-13.421,20.6-24.616,1.029-8.61-5.805-20.331-14.763-24.067-8.026-3.346-16.419-5.635-25.321-3.936-1.308.25-2.6.581-3.9.887-20.527,4.855-38.1-.9-53.187-15.064-1.815-1.7-3.746-4.182-3.977-6.467-.373-3.68,3.338-3.393,5.744-3.582,6.35-.5,11.417-3.522,15.813-7.745,5.151-4.948,6-11.9,2.6-18.289-5.7-10.689-20.141-16.825-32.583-13.409-4.454,1.223-8.528,3.768-12.92,5.293C255.388,178.252,240.991,172.952,228.268,155.057Z"/><path class="c" d="M248.857,116.654c-6.839,1.126-9.475,2.081-12.028,1.9-14.389-1.052-27.2,2.369-39.58,10.224-14.194,9-27.96,4.789-40.324-5.162-5.526-4.448-4.936-8.087,1.583-10.907,1.813-.785,3.835-1.148,5.549-2.092,4.577-2.519,7.749-7.768,6.62-11.151-1.671-5.007-6-7.167-10.659-7.657-4.533-.476-9.2.318-13.808.573a26.774,26.774,0,0,1-20.047-7.125,4.122,4.122,0,0,1-1.153-3.29,3.759,3.759,0,0,1,2.349-2.52c11.393-1.693,20.856-6.977,30.626-13.085,13.892-8.684,29.269-6.606,43.637.759C211.929,72.4,219.529,80.9,225.9,90.239,231.811,98.912,237.378,107.763,248.857,116.654Z"/><path class="c" d="M56.347,433.092c-.888,1.464-1.913,1.586-2.831.2-.267-.4-.029-1.138-.021-1.721q1.3.977,2.6,1.947Z"/></svg>