<svg xmlns="http://www.w3.org/2000/svg" viewBox="0 0 543.348 543.348"><defs><style>.a{fill:#dfcf06;}.b{fill:#fcfcfb;}</style></defs><path class="a" d="M150.777,434.033c17.06-3.781,34.345-1.494,51.53-1.9,3.286-.077,6.594.222,9.852-.081.872-.08,2.09-1.661,2.253-2.695a4.29,4.29,0,0,0-1.276-3.371c-2.646-2.252-5.965-2.7-9.354-2.693-10.658.016-21.319-.149-31.974.051-39.951.749-79.674-5.368-119.657-3.909-4.528.165-9.121-1.164-13.665-1.916a2.054,2.054,0,0,1-1.647-3.074c.43-1.092,1-2.591,1.889-2.942a14.372,14.372,0,0,1,5.732-.989c15.943.685,31.878,1.529,47.818,2.276q34.918,1.637,69.839,3.189a44.59,44.59,0,0,0,17.065-2.6c.122-1.076.346-1.871.2-1.947a4.8,4.8,0,0,0-1.916-.5c-23.932-1.2-47.855-2.643-71.8-3.465-18.634-.638-37.295-.426-55.941-.721-13.568-.216-13.625-.309-13.862-13.034-.149-7.992-.118-15.988-.119-23.982q-.009-155.9,0-311.806c0-4.663-.1-9.334.108-13.989.343-7.579,1.567-8.668,9.878-9.01,3.992-.164,8-.067,11.994-.067q213.924,0,427.847.021c24.648.008,22.131-2.352,22.146,22.8q.1,171.892.031,343.785v20.465c-15.922,4.2-31.965.578-47.906,7.051,13.893.342,26.263.68,38.635.94,8.256.173,8.694.13,8.8,7.216q.477,30.972.291,61.951c-.031,6.463-1.833,8.266-8.5,8.26-29.978-.026-60.071,1.279-89.908-.872-50.547-3.643-101.125-4.161-151.723-4.946-6.612-.1-13.6-.208-19.787,1.714-11.707,3.637-23.556,4.258-35.546,4.277q-73.972.113-147.947.023c-3.993,0-8.007.022-11.974-.362-3.707-.358-6.116-2.608-6.134-6.482q-.154-33.969-.116-67.939c0-4.765,2.481-7.33,7.342-7.239,17.969.333,36.1-.628,53.861,1.459,15.913,1.869,31.873,2,47.745,3.7,2.726.292,5.206.623,6.3,3.606-2.429.837-4.818,2.166-7.317,2.421-25.148,2.562-50.325,1.535-75.508.5-2.494-.1-6.129-1.725-8.389,3.573,61.823,4.755,122.669,6.114,185.313,5.728-2.718-2.019-3.673-3.327-4.75-3.436-12.541-1.267-25.081-2.69-37.66-3.4-14.584-.822-29.207-.968-43.812-1.423C155.652,438.14,152.468,437.538,150.777,434.033Zm310.434-92.919c-.706-1.711-1.294-3.483-2.153-5.112-.8-1.513-1.874-1.659-2.738-.6-.357.439-.853.964-.86,1.455a6.831,6.831,0,0,0,3.252,6.247c.433,3.216.077,6.961,4.868,7.254a15.1,15.1,0,0,0-.409,3.768,11.08,11.08,0,0,0,1.454,3.482c.076.143,1.023.039,1.374-.215,2.027-1.467,1.378-3.366.309-4.893-.623-.891-2.027-1.238-3.076-1.833C463.911,347.2,464.146,343.817,461.211,341.114Zm10.441,29.18c-.085,1.847-.249,3.7-.2,5.539.012.451.779,1.292,1.118,1.253a2.085,2.085,0,0,0,2.046-2.631c-.278-2.032-1.057-3.591-3.344-3.869a33.427,33.427,0,0,0-.082-5.586c-.305-1.758-1.4-2.155-2.375-1.247-.426.394-1.019.9-1.048,1.383C467.609,367.9,468.341,370.1,471.652,370.294ZM385.6,244.485,373.722,248.5c-12.384,1.378-24.4,7.183-39.516,3.133,13.567-3.5,25.051-6.3,36.428-9.474a130.322,130.322,0,0,0,14.894-5.5c2.464-1.026,1.968-4.825-1.187-7.176-1.672-1.246-3.062-2.289-2.978-4.532,3.147-.53,7.111.486,8.043-4.242,6.72-1.687,7.082-6.417,5.38-11.81-.839-2.658-3.316-1.751-4.435-.558-2.123,2.264-3.688,5.052-5.475,7.628l-7.186,4.594c-5.676,1.88-11.257,4.178-17.062,5.492a29.524,29.524,0,0,1-11.767.1c-1.829-.349-3.095-4.549-4.763-4.654-3.158-.2-6.417,1.326-9.647,2.078a7.294,7.294,0,0,1-1.983.044c-21.237-1.054-42.477-2.064-63.707-3.252-2.408-.135-5.038-1.009-4.418-5.9,7.118.822,14.263,1.822,21.441,2.429,7.928.67,16,2.039,23.808,1.226,16.485-1.714,32.882-4.424,49.234-7.2a101.774,101.774,0,0,0,19.149-5.371c8.454-3.232,14.171-9.542,17.113-18.179,1.1-3.22-1.844-7.67-4.81-6.884-7.03,1.863-14.282,2.085-21.37,4.175-13.558,4-27,8.235-41.228,10.452-18.071,2.815-35.718,2.385-53.581.533-2.989-.31-6.837-.053-7.737-4.735,18.166-2.421,36.644,2.229,55.277-2.017-4.044-3.358-8.171-2.463-12.078-2.694-21.973-1.3-43.467-5.382-64.692-11.073-2.6-.7-5.129-1.2-5.386-4.553,8.18-1.322,15.7,1.418,23.36,3.616,40.614,11.656,81.234,8.969,121.778-.38,5.125-1.181,10.063-3.284,14.971-5.253,2.5-1,4.335-2.929,4.017-6.041l-.309.3a5.92,5.92,0,0,0,6.556-3.264c2.7-4.729,3.117-10.062,4-15.306,1.6-9.557-1.914-16.73-9.2-22.76-8.054-6.663-17.7-9.145-27.514-10.9-15.033-2.684-30.252-4.031-45.432-5.691-24.773-2.71-49.148-.889-73.632,1.29a78.557,78.557,0,0,0-33.67,11.383c-16.311,9.8-12.83,36.56.724,44.124,5.033,2.808,11.573,3.419,14.774,9.207-11.335.746-20.5-4.248-28.864-11.122-1.767-1.451-3.677-1.945-5.257-.829-2.544,1.8-2.359,4.859-1.114,7.187,1.2,2.25,3.283,4.1,5.2,5.884,3.351,3.12,8.357,4.3,10.516,8.872-7.922,4.2-13.513-3.086-20.615-4.312-2.59,10.689.484,18.354,10.608,22.909,2.409,1.083,5.778,2.164,6.661,4.153,4.483,10.1,13.331,9.024,21.936,9.206-2.371.832-5.633.336-6.755,1.657-4.791,5.637-10.407,5.381-16.023,2.64-7.111-3.471-16.039-4.522-20.944-10.906-4.532-5.9-.861-14.27-2.7-21.193-3.8-14.337.552-26.206,9.823-36.873,2.653-3.052,5.253-6.015,5.225-10.4-.021-3.488-.4-7.143-4.537-7.637a98.027,98.027,0,0,0-59.786,11.284c-11.572,6.322-10.836,15.977.909,22.554.581.326,1.117.731,1.7,1.05,3.942,2.154,9.5,1.308,11.858,6.4-5.114,5.3-9.241-2.007-14.131-1.179-1.722.292-3.71-1.2-5.617-1.729-2.031-.566-4.379-.246-4.977,1.722a8.027,8.027,0,0,0,.968,5.568c3.343,5.986,8.382,9.786,14.794,12.647,11.44,5.1,23.685,7.533,37.323,11.291-6.405,4.287-11.416,3.331-16.2,1.914-12.672-3.755-25.254-7.809-37.876-11.739-.6-1.637-1.792-3.25-3.338-1.756s.184,2.728,1.615,3.54c1.535,3.169,4.278,4.956,7.3,6.451a56.086,56.086,0,0,1,7,3.73,3.714,3.714,0,0,1,1.287,3.253c-.239.757-2.173,1.646-3.082,1.412-4.47-1.156-8.808-2.817-13.271-4.007-4.049-1.079-7.14,3.146-6.33,7.46,1.19,6.338,7.146,9.536,9.255,15.167q-.72,1-1.515,1.946c-5.231.121-8.375,2.1-7.022,7.983.42,1.824.986,3.614,1.484,5.42q-1.356,1.308-2.636,2.69c-1.315-.2-2.632-.381-3.945-.595-3.917-.64-6.421,1.032-7.324,4.805-.729,3.049,1.146,5.1,3.545,6.355,6.454,3.378,13.072,6.443,19.5,9.861a3.613,3.613,0,0,1,1.08,3.337,3.413,3.413,0,0,1-3.013,1.527c-7.843-2.946-15.593-6.141-24.508-9.723,0,4.074-.686,6.91.112,9.236,5.154,15.035,6.85,14.874,19.515,14.782,17.275-.126,34.552,0,51.827-.125a8.387,8.387,0,0,0,5.231-1.7c1.816-1.662-3.745-4.128-.214-5.707,2.24-1,5.227-.55,7.862-.409,5.3.283,10.583.993,15.885,1.152,3.658.109,6.184-1.89,7.2-5.535l-.406.277c9.7-2.341,14.7,5.125,21.793,9.105-3.326,3.053-5.365,6.081-8.172,7.224-3.965,1.615-5-3.2-7.47-5.013a3.237,3.237,0,0,0-4.991,1.157c-.967,2.308-.639,5.125-1.137,7.672-.884,4.517-3.69,6.647-6.555,4.342-9.043-7.275-20.188-7.587-30.35-7.632-24.476-.109-48.979,1.557-73.434,3.1A81,81,0,0,0,67.27,302.936c-9.14,5.622-9.3,11.928-.349,18.548A63.38,63.38,0,0,0,86.4,331.3a3.082,3.082,0,0,1,1.418,4.776,3.905,3.905,0,0,1-3.392,1.325c-5.078-1.528-10.053-3.4-15.07-5.136a96.838,96.838,0,0,0-8.228-5.564c-2.808-1.53-5.377-.482-5.879,2.678-.37,2.325-.655,5.572,2.924,6.2a67.272,67.272,0,0,0,7.952.493c-.254,1.3-.067,3.045-.845,3.826-2.383,2.392-8.258,3.694-1.891,8.02a81.9,81.9,0,0,0,14.094,7.2c18.1,7.755,37.436,8.846,56.469,10.783,23.311,2.372,46.5-1.7,69.645-4.34a36.094,36.094,0,0,0,9.582-2.748c2.787-1.161,3.586-3.772,2.345-6.5-.81-1.779-2.355-3.207-3.406-4.895-4.068-6.537-9.333-8.436-16.824-5.658-4.277,1.586-9.156,1.489-13.718,2.384-16.507,3.237-33.2,3.214-49.686,1.058-8.174-1.069-17.156-.226-24.444-5.111-2.738-1.835,2.938-2.773,25.7-.473,1.324.133,2.633.478,3.958.542,19.291.936,38.431.526,57.478-3.625,8.142-1.775,13.857-4.122,12.869-13.708a2.439,2.439,0,0,1,.617-1.845,2.633,2.633,0,0,1,1.905-.351c.51.072,1.345.538,1.375.886.22,2.553.343,5.12.366,7.683.086,9.6,3.658,16.442,13.5,19.684,9.433,3.108,18.195,7.9,28.054,10.186,31.45,7.305,63.223,8.467,95.277,6.571,16.167-.957,31.338-5.421,45.969-12.043a39.6,39.6,0,0,0,6.926-3.94c2.818-2.046,7.718-15.484,5.861-17.387-4.635-4.749-8.244.964-12.227,2.234-6.958,2.218-13.658,5.3-20.679,7.251-4.714,1.311-8.808,2.071-8.787,8.322.007,2.089-1.052,2.039-1.757.269-3.255-8.162-10.294-4.711-15.436-3.922-18.011,2.765-35.855.047-53.748-.605-5.744-.208-12.071,0-17.559-7.024,27.8,5.216,54.074,4.5,80.364-.025a135.166,135.166,0,0,0,37.859-12.021c10.486-5.24,12.4-10.282,9.477-22.981-28.633,14.825-58.908,17.87-93.343,13.309,14.3-5.059,26.716-.214,38.49-4.411-3.186-2.888-6.461-2.756-9.629-2.948-17.244-1.047-34.483-2.685-51.737-2.877-10.914-.122-21.019-3.112-31.317-5.634-2.546-.623-6.4-1.137-6.025-5.563,4.3-1.435,8.1.454,11.787,1.632,16.082,5.142,32.554,6.646,49.317,6.2,6.65-.178,13.333-.44,19.959-.017,24.966,1.6,48.845-4.054,72.616-10.49,6.563-1.777,12.452-4.876,16.208-10.874,2.6-4.148,3.764-8.469-.18-13.282-3.428,1.789-6.733,4.182-10.426,5.322-13.187,4.069-24.984,12.329-39.27,13.047-7.526,5.95-15.75,8.257-25.193,5.186-.862-.281-2.2,1.188-3.4,1.623-8.237,2.986-16.8,2.816-25.331,2.246-9.279-.62-18.536-1.574-27.805-2.356-1.918-.162-3.953-.047-4.313-4,8.377,0,16.767.635,25.029-.122a625.49,625.49,0,0,0,67.058-10.293c7.3-1.479,13.844-4.475,20.413-7.731,8.525-4.225,10.642-11.238,9.512-19.954-.353-2.723-3.533-4.862-5.512-3.236-12.37,10.166-27.883,12.274-42.516,16.169-13.811,3.675-28.12,5.828-42.208-1.058,20.922-1.01,41.691-.5,60.646-10.573q5.679-2.321,11.35-4.648l8.382-3.488c1.939-.036,3.884.013,5.816-.128,3.227-.235,4.081-2.279,3.939-5.206-.175-3.6-2.029-6.682-5.031-7.581-1.746-.523-4.577,1.676-6.561,3.138-1.5,1.1-2.42,2.977-3.575,4.518Zm53.9,73.8c1.69,3.106,1.69,3.106,3.876.023,5.862,1.364,3.863,8.006,7.352,10.912a5.225,5.225,0,0,0,3.413,1.434c.732-.095,1.757-1.782,1.789-2.784.249-7.8-5.792-14.625-3.9-22.329,2.1-3.355,7.239,8.11,7.4-2.09.041-2.553-.8-5.366,1.891-7.352,4.106,3.538,6.048,8.4,7.335,13.371,4.656,17.985,11.223,35.536,13.283,54.116a229.473,229.473,0,0,1,1,25.889A26.271,26.271,0,0,1,480.626,399c-1.139,2.79-4.219,4.077-6.192,1.622-2.927-3.641-8.264-5.312-10.01-8.325-3.964-6.84-12.8-7.64-15.853-14.386C441.737,362.8,435.5,347.421,428.9,332.2c-1.43-3.3-.3-6.24-.032-9.483.722-8.775-2.73-16.538-8.569-23.141-.307-.346-1.221-.133-1.846-.223-1.6-.228-2.645.506-2.588,2.219.109,3.283-.124,6.718.759,9.811,4.745,16.609,9.963,33.084,14.679,49.7,4.108,14.473,12.8,26.163,22.059,37.515a27.27,27.27,0,0,0,12.927,8.834c10.255,3.419,18.138-1.3,26.02-6.213,8.942-5.575,9.96-11.47,3.524-21.535-1.555-2.433-3.446-4.214-.432-6.095,3.29-2.054,4.179-4.746,4.143-8.283-.158-15.353-1.4-30.538-6.306-45.232-3.37-10.082-6.369-20.3-9.994-30.284-8.426-23.218-18.927-45.371-33.868-65.266a50.668,50.668,0,0,0-10.037-9.523c-4.547-3.519-9.9-3.814-15.232-3.348-5.178.454-10.654.912-12.974,6.947l.255-.246c-3.892.892-6.425,4.044-3.93,6.9,5.2,5.944,7.23,14.049,14.362,18.745,7.191,4.734,9.066,12.768,9.351,20.982.3,8.528.311,17.065.448,25.6-2.508,1.09-5.52,2.811-4.071,5.629C431.37,303.644,432.227,312.735,439.5,318.288ZM211.074,382.879c-9.986-8.923-9.987-8.933-22.516-8.223-3.324.189-6.663.3-9.96.725-24.787,3.194-49.142,1.618-72.96-6.33-1.88-.627-3.917-1.547-5.776-1.348-12.347,1.318-23.7-1.741-34.681-7.058-.846-.409-3.025.195-3.415.94a9.028,9.028,0,0,0-1.156,5.389,11.8,11.8,0,0,0,5.535,7.961,67.737,67.737,0,0,0,8.891,4.448c39.1,16.463,79.4,20.82,120.988,11.8,4.751-1.03,8.975-1.894,11.688,3.914,3.613,7.737,10.978,10.9,18.288,14.421,7.065,3.4,15.747,2.838,21.586,9.014-7.509,4.555-16.956.812-24.8,5.964,5.182,5.749,11.9,8.325,19.037,9.912,8.4,1.869,16.82,3.9,25.342,4.963,18.384,2.3,36.881,5.905,55.253,5.493,21.077-.472,42.122-4.363,63.072-7.5,7.836-1.173,14.937-5.254,21.585-9.815a16.2,16.2,0,0,0,7.531-15.213c-.111-2.069-.876-3.948-2.955-4.538a4.727,4.727,0,0,0-3.616.59c-6.954,5.144-13.992,9.943-22.513,12.365-34.2,9.719-68.926,13.786-104.257,8.769-7.491-1.064-15.7-1.848-22.078-7.2,5.277.144,10.585-.021,15.825.5,8.552.853,17.029,2.586,25.591,3.185,28.124,1.97,55.064-5.134,82.144-11.154,7.664-1.7,12.762-6.419,16.9-12.629l-.264.348c4.033-.455,5.328-3.7,6.273-6.8a7.053,7.053,0,0,0-.7-5.362c-1.227-1.8-3.586-1.41-5.382-.318-23.648,14.377-49.75,17.325-76.674,16.646-10.632-.269-21.274-.178-31.906-.447-2.918-.074-6.39.9-9.092-4.006,31.864-1.094,63.839,3.552,97.722-12.305-17.4,3.86-30.612,4.024-43.824,4.566a295.079,295.079,0,0,1-69.371-4.947c-5.347-1.053-12.227,0-14.933-7.1,5.4-.87,10.539.634,15.793,1.494,12.464,2.04,24.955,3.989,37.492,5.5,20.738,2.5,41.212-1.3,61.6-3.979,14.419-1.894,28.876-5.029,41.57-13.229,4.008-2.589,7.846-5.091,9.725-9.626,1.3-3.129,2.367-6.807-.5-9.264-2.207-1.893-4.776.537-7.068,1.6-5.424,2.513-11.02,4.694-16.281,7.507-12.107,6.473-25.064,8.543-38.59,8.413-15.322-.149-30.646-.026-45.968-.166-24.712-.225-49.064-2.624-72.4-11.655-5.871-2.271-12.106-.788-12.3,2.131-.346,5.215,2.58,9.184,6.462,11.647,3.832,2.432,8.544,3.548,12.959,4.969,3.12,1,6.615,1.185,7.92,4.984-12.546,2.045-22.432-3.182-31.672-10.989-3.93-3.32-7.336-.751-8.172,5.738a22.3,22.3,0,0,0,.159,3.87ZM101.335,483.32c7.769,5.255,16.293,5.735,24.691,5.951,44.588,1.15,89.176,1.774,133.792,1.346,27.9-.268,55.878.255,83.709,2.109,40.535,2.7,81.061,3.563,121.648,3.027.2,0,.384-.967.764-1.988-24.127-5.155-48.714-3.9-72.956-5.295-26.415-1.52-52.975.19-79.558-1.386-43.124-2.555-86.368-3.332-129.575-4.157C156.357,482.4,128.841,483.145,101.335,483.32Zm376.889-23.38c-9.955-.585-19.643-1.555-29.338-1.651-30.591-.3-61.185-.273-91.777-.378-3.988-.014-8.089.535-11.943-.2-12.524-2.387-25.163-1.878-37.777-2.2-39.2-1-78.455-.272-117.587-3.77-6.572-.587-13.274.439-19.917.468-18.513.08-37.028.028-55.542.028,5.751.831,11.6-.314,17.241,2.719,3.315,1.782,7.67,2.034,11.591,2.211,13.284.6,26.582.925,39.877,1.234,25.907.6,51.82,1,77.723,1.732,13.279.376,26.538,1.4,39.813,1.949q41.844,1.742,83.7,3.285c28.586,1.057,57.177,1.992,85.763,0C473.189,465.144,476.917,465.7,478.224,459.94Zm8.99,21.432-.395-2.3c-6.467-.716-12.92-1.619-19.4-2.116-36.527-2.8-73.15-.9-109.709-2.178a149.858,149.858,0,0,1-17.869-1.4,239.363,239.363,0,0,0-33.823-2.7c-14.643-.2-29.339-.213-43.907-1.5-51.853-4.585-103.813-1.961-155.716-2.863-2.632-.046-5.9-.837-8.373,3.82,5.47.2,10.067.791,14.6.467,18.713-1.339,37.241.774,55.806,2.468,5.958.544,11.952.86,17.935.934,21.966.273,43.942.08,65.9.655,34.6.907,69.184,2.3,103.776,3.477,23.778.811,47.776-3.253,71.306,3.19a7.733,7.733,0,0,0,1.993.047Q458.272,481.374,487.214,481.372Zm-96.179-33.153c26.22,4.509,54.594,4.16,73.3-.9C439.447,445.861,416.746,444.165,391.035,448.219Zm98.609,1.471q.2-1.016.4-2.029c-3.275-.155-6.551-.415-9.826-.414a16.554,16.554,0,0,0-3.819.908c1.1.511,2.187,1.4,3.319,1.464C483.019,449.818,486.335,449.69,489.644,449.69Zm-38.269-33.521c-2.957-1.127-5.8-1.5-8.645.32C445.681,417.536,448.526,418.115,451.375,416.169ZM199.282,278.674l-3.521,1.65c.817,1.57,1.265,3.655,2.548,4.574a10.634,10.634,0,0,0,5.563,1.413,4.018,4.018,0,0,0,3.206-1.613c.394-.8-.246-2.483-.946-3.369C204.437,279.186,202.211,277.888,199.282,278.674ZM417.771,258.98c2.15-1.028,2.126-2.893,1.465-4.641-.323-.857-1.824-2.134-2.216-1.955-1.994.909-2.05,2.871-1.387,4.62C415.958,257.86,417.111,258.4,417.771,258.98Z"/><path class="b" d="M132.034,189.913c12.618,3.935,25.2,7.989,37.872,11.744,4.783,1.417,9.794,2.373,16.2-1.914-13.638-3.758-25.883-6.186-37.323-11.291-6.412-2.861-11.451-6.661-14.794-12.647a8.027,8.027,0,0,1-.968-5.568c.6-1.968,2.946-2.288,4.977-1.722,1.907.531,3.895,2.021,5.617,1.729,4.89-.828,9.017,6.479,14.131,1.179-2.354-5.1-7.916-4.25-11.858-6.4-.584-.319-1.12-.724-1.7-1.05-11.745-6.577-12.481-16.232-.909-22.554a98.027,98.027,0,0,1,59.786-11.284c4.139.494,4.516,4.149,4.537,7.637.028,4.388-2.572,7.351-5.225,10.4-9.271,10.667-13.626,22.536-9.823,36.873,1.836,6.923-1.835,15.295,2.7,21.193,4.905,6.384,13.833,7.435,20.944,10.906,5.616,2.741,11.232,3,16.023-2.64,1.122-1.321,4.384-.825,6.755-1.657-8.6-.182-17.453.89-21.936-9.206-.883-1.989-4.252-3.07-6.661-4.153-10.124-4.555-13.2-12.22-10.608-22.909,7.1,1.226,12.693,8.512,20.615,4.312-2.159-4.574-7.165-5.752-10.516-8.872-1.918-1.786-4-3.634-5.2-5.884-1.245-2.328-1.43-5.388,1.114-7.187,1.58-1.116,3.49-.622,5.257.829,8.367,6.874,17.529,11.868,28.864,11.122l-.406-.323c.247,3.35,2.78,3.849,5.376,4.546,21.225,5.691,42.719,9.768,64.692,11.073,3.907.231,8.034-.664,12.078,2.694-18.633,4.246-37.111-.4-55.277,2.017.9,4.682,4.748,4.425,7.737,4.735,17.863,1.852,35.51,2.282,53.581-.533,14.231-2.217,27.67-6.454,41.228-10.452,7.088-2.09,14.34-2.312,21.37-4.175,2.966-.786,5.906,3.664,4.81,6.884-2.942,8.637-8.659,14.947-17.113,18.179a101.774,101.774,0,0,1-19.149,5.371c-16.352,2.777-32.749,5.487-49.234,7.2-7.812.813-15.88-.556-23.808-1.226-7.178-.607-14.323-1.607-21.441-2.429-.62,4.894,2.01,5.768,4.418,5.9,21.23,1.188,42.47,2.2,63.707,3.252a7.294,7.294,0,0,0,1.983-.044c3.23-.752,6.489-2.275,9.647-2.078,1.668.105,2.934,4.305,4.763,4.654a29.524,29.524,0,0,0,11.767-.1c5.805-1.314,11.386-3.612,17.065-5.485q1.845,2.2,3.681,4.392c-.1,2.232,1.295,3.275,2.967,4.521,3.155,2.351,3.651,6.15,1.187,7.176a130.322,130.322,0,0,1-14.894,5.5c-11.377,3.178-22.861,5.974-36.428,9.474,15.117,4.05,27.132-1.755,39.52-3.125q1.959,2.3,3.91,4.578c-18.963,10.064-39.732,9.557-60.654,10.567,14.088,6.886,28.4,4.733,42.208,1.058,14.633-3.9,30.146-6,42.516-16.169,1.979-1.626,5.159.513,5.512,3.236,1.13,8.716-.987,15.729-9.512,19.954-6.569,3.256-13.112,6.252-20.413,7.731a625.49,625.49,0,0,1-67.058,10.293c-8.262.757-16.652.122-25.029.122.36,3.953,2.395,3.838,4.313,4,9.269.782,18.526,1.736,27.805,2.356,8.535.57,17.094.74,25.331-2.246,1.2-.435,2.541-1.9,3.4-1.623,9.443,3.071,17.667.764,25.193-5.186,14.286-.718,26.083-8.978,39.27-13.047,3.693-1.14,7-3.533,10.426-5.322,3.944,4.813,2.778,9.134.18,13.282-3.756,6-9.645,9.1-16.208,10.874-23.771,6.436-47.65,12.088-72.616,10.49-6.626-.423-13.309-.161-19.959.017-16.763.447-33.235-1.057-49.317-6.2-3.683-1.178-7.482-3.067-11.787-1.632-.375,4.426,3.479,4.94,6.025,5.563,10.3,2.522,20.4,5.512,31.317,5.634,17.254.192,34.493,1.83,51.737,2.877,3.168.192,6.443.06,9.629,2.948-11.774,4.2-24.187-.648-38.49,4.411,34.435,4.561,64.71,1.516,93.343-13.309,2.921,12.7,1.009,17.741-9.477,22.981a135.166,135.166,0,0,1-37.859,12.021c-26.29,4.52-52.567,5.241-80.364.025,5.488,7.022,11.815,6.816,17.559,7.024,17.893.652,35.737,3.37,53.748.605,5.142-.789,12.181-4.24,15.436,3.922.7,1.77,1.764,1.82,1.757-.269-.021-6.251,4.073-7.011,8.787-8.322,7.021-1.954,13.721-5.033,20.679-7.251,3.983-1.27,7.592-6.983,12.227-2.234,1.857,1.9-3.043,15.341-5.861,17.387a39.6,39.6,0,0,1-6.926,3.94c-14.631,6.622-29.8,11.086-45.969,12.043-32.054,1.9-63.827.734-95.277-6.571-9.859-2.29-18.621-7.078-28.054-10.186-9.838-3.242-13.41-10.086-13.5-19.684-.023-2.563-.146-5.13-.366-7.683-.03-.348-.865-.814-1.375-.886a2.633,2.633,0,0,0-1.905.351,2.439,2.439,0,0,0-.617,1.845c.988,9.586-4.727,11.933-12.869,13.708-19.047,4.151-38.187,4.561-57.478,3.625-1.325-.064-2.634-.409-3.958-.542-22.759-2.3-28.435-1.362-25.7.473,7.288,4.885,16.27,4.042,24.444,5.111,16.488,2.156,33.179,2.179,49.686-1.058,4.562-.9,9.441-.8,13.718-2.384,7.491-2.778,12.756-.879,16.824,5.658,1.051,1.688,2.6,3.116,3.406,4.895,1.241,2.729.442,5.34-2.345,6.5a36.094,36.094,0,0,1-9.582,2.748c-23.145,2.637-46.334,6.712-69.645,4.34-19.033-1.937-38.37-3.028-56.469-10.783a81.9,81.9,0,0,1-14.094-7.2c-6.367-4.326-.492-5.628,1.891-8.02.778-.781.591-2.524.845-3.826l3.238-3.825c5.01,1.754,9.985,3.626,15.063,5.154a3.905,3.905,0,0,0,3.392-1.325A3.082,3.082,0,0,0,86.4,331.3a63.38,63.38,0,0,1-19.479-9.817c-8.953-6.62-8.791-12.926.349-18.548a81,81,0,0,1,37.547-12.229c24.455-1.547,48.958-3.213,73.434-3.1,10.162.045,21.307.357,30.35,7.632,2.865,2.305,5.671.175,6.555-4.342.5-2.547.17-5.364,1.137-7.672a3.237,3.237,0,0,1,4.991-1.157c2.468,1.812,3.5,6.628,7.47,5.013,2.807-1.143,4.846-4.171,8.172-7.224-7.094-3.98-12.088-11.446-21.79-9.106,1.327-2.283.5-2.917-1.832-2.392l2.235,2.116c-1.018,3.645-3.544,5.644-7.2,5.535-5.3-.159-10.584-.869-15.885-1.152-2.635-.141-5.622-.593-7.862.409-3.531,1.579,2.03,4.045.214,5.707a8.387,8.387,0,0,1-5.231,1.7c-17.275.128-34.552,0-51.827.125-12.665.092-14.361.253-19.515-14.782-.8-2.326-.112-5.162-.112-9.236,8.915,3.582,16.665,6.777,24.508,9.723a3.413,3.413,0,0,0,3.013-1.527,3.613,3.613,0,0,0-1.08-3.337c-6.431-3.418-13.049-6.483-19.5-9.861-2.4-1.255-4.274-3.306-3.545-6.355.9-3.773,3.407-5.445,7.324-4.805,1.313.214,2.63.4,3.946.595a4.63,4.63,0,0,0,4.353,3.6c1.567,4.159,4.582,4.868,8.45,3.546.2,1.543.028,3.76,2.395,1.3l-2.731-.948c.836-4.574-3.254-4.518-5.686-6.015-1.389-1.379-2.768-2.775-4.146-4.172-.5-1.806-1.064-3.6-1.484-5.42-1.353-5.88,1.791-7.862,7.024-7.985,3.4,4.224,8.359,5.622,13.248,6.856,1.578.4,4.681-.186,5.089-1.158,1.275-3.035-2.026-4.17-3.832-4.775-4.182-1.4-8.644-1.964-12.992-2.867-2.109-5.631-8.065-8.829-9.255-15.167-.81-4.314,2.281-8.539,6.33-7.46,4.463,1.19,8.8,2.851,13.271,4.007.909.234,2.843-.655,3.082-1.412a3.714,3.714,0,0,0-1.287-3.253,56.086,56.086,0,0,0-7-3.73c-3.025-1.5-5.768-3.282-7.3-6.451Q131.17,190.806,132.034,189.913Zm46.51,69.654c7.138,5.7,15.2,6.437,23.437,5.545,1.1-.119,1.906-2.966,3.441-5.545Zm68.937,73.256-14.375-4.261C236.894,333.6,241.9,334.237,247.481,332.823Zm63.234-104.276c17.363,2.952,17.363,2.952,28.332-2.292C329.461,225.394,322.025,225.233,310.715,228.547ZM206.477,235.92c0-1.595-.735-2.429-2.115-2.138-.41.086-1.045,1.185-.923,1.356a18.873,18.873,0,0,0,2.155,2.269Q206.035,236.663,206.477,235.92ZM379.2,193.9l1.137-1.473a6.272,6.272,0,0,0-1.792-.571c-1.813-.009-2.205.88-.976,2.3C377.756,194.37,378.634,194,379.2,193.9Z"/><path class="b" d="M239.9,170.9c-3.2-5.788-9.741-6.4-14.774-9.207-13.554-7.564-17.035-34.328-.724-44.124a78.557,78.557,0,0,1,33.67-11.383c24.484-2.179,48.859-4,73.632-1.29,15.18,1.66,30.4,3.007,45.432,5.691,9.814,1.751,19.46,4.233,27.514,10.9,7.288,6.03,10.8,13.2,9.2,22.76-.878,5.244-1.3,10.577-4,15.306a5.916,5.916,0,0,1-6.555,3.262c-.108-4.62-5.459-9.379.648-13.919,1.263-.939,1.394-3.4,2.047-5.16-1.862-.221-4.234-1.295-5.509-.533-16.547,9.88-34.861,11.934-53.545,12.724-10.588.446-21.167,1.174-31.737,1.952-2.308.17-6.132.251-4.29,4.044.963,1.983,4.136,3.741,6.469,3.967,2.22.214,4.658-2.57,6.979-2.537,22.5.32,44.945.593,66.389-7.9,2.909-1.152,4.735.384,6.66,2.556,1.654,1.867,4.1,3.032,6.2,4.507.318,3.112-1.513,5.036-4.017,6.041-4.908,1.969-9.846,4.072-14.971,5.253-40.544,9.349-81.164,12.036-121.778.38-7.66-2.2-15.18-4.938-23.355-3.613Zm-18.192-35.819c-.959.813-1.658,1.15-1.908,1.694a2.134,2.134,0,0,0,.1,1.817c6.054,8.347,14.2,13.022,24.539,13.693a1.928,1.928,0,0,0,1.464-1.192c.146-1.157.326-3.125-.237-3.432C237.681,143.3,229.572,139.16,221.707,135.079Zm80.369,25.2c-.433-.486-.851-1.375-1.3-1.391-2.53-.089-5.071-.028-7.6.127-.571.035-1.108.642-1.66.985.74.735,1.462,2.071,2.224,2.093a48.243,48.243,0,0,0,7.483-.6C301.553,161.45,301.794,160.7,302.076,160.279Z"/><path class="b" d="M247.585,418.529c-5.838-6.173-14.52-5.611-21.585-9.011-7.31-3.519-14.675-6.684-18.288-14.421-2.713-5.808-6.937-4.944-11.688-3.914-41.586,9.02-81.888,4.663-120.988-11.8a67.737,67.737,0,0,1-8.891-4.448,11.8,11.8,0,0,1-5.535-7.961,9.028,9.028,0,0,1,1.156-5.389c.39-.745,2.569-1.349,3.415-.94,10.978,5.317,22.334,8.376,34.681,7.058,1.859-.2,3.9.721,5.776,1.348,23.818,7.948,48.173,9.524,72.96,6.33,3.3-.425,6.636-.536,9.96-.725,12.529-.71,12.53-.7,22.518,8.221.534,3.707,3.443,4.916,6.4,6.069,2.72,1.246,5.437,2.5,8.157,3.747a9.629,9.629,0,0,0,1.652.987c2.487.852,6.142,1.616,6.834-.827.666-2.356-3-3.268-5.405-3.892l-8.1-3.855a11.092,11.092,0,0,0-8.388-3.654,22.3,22.3,0,0,1-.159-3.87c.836-6.489,4.242-9.058,8.172-5.738,9.24,7.807,19.126,13.034,31.672,10.989l-.406-.32c2.7,7.084,9.575,6.036,14.922,7.089a295.079,295.079,0,0,0,69.371,4.947c13.212-.542,26.427-.706,43.824-4.566-33.883,15.857-65.858,11.211-97.722,12.305,2.7,4.9,6.174,3.932,9.092,4.006,10.632.269,21.274.178,31.906.447,26.924.679,53.026-2.269,76.674-16.646,1.8-1.092,4.155-1.483,5.382.318a7.053,7.053,0,0,1,.7,5.362c-.945,3.1-2.24,6.342-6.275,6.8q-.935-1.33-1.865-2.666l-.87,2.1,3,.213c-4.136,6.21-9.234,10.925-16.9,12.629-27.08,6.02-54.02,13.124-82.144,11.154-8.562-.6-17.039-2.332-25.591-3.185-5.24-.522-10.548-.357-15.825-.5l.474.26c-2.855-5.179-7.806-4.254-12.435-4.265Z"/><path class="b" d="M411.132,218.6c2.32-6.035,7.8-6.493,12.974-6.947,5.328-.466,10.685-.171,15.232,3.348a50.668,50.668,0,0,1,10.037,9.523c14.941,19.9,25.442,42.048,33.868,65.266,3.625,9.988,6.624,20.2,9.994,30.284,4.909,14.694,6.148,29.879,6.306,45.232.036,3.537-.853,6.229-4.143,8.283-3.014,1.881-1.123,3.662.432,6.095,6.436,10.065,5.418,15.96-3.524,21.535-7.882,4.913-15.765,9.632-26.02,6.213a27.27,27.27,0,0,1-12.927-8.834C444.1,387.25,435.41,375.56,431.3,361.087c-4.716-16.617-9.934-33.092-14.679-49.7-.883-3.093-.65-6.528-.759-9.811-.057-1.713.985-2.447,2.588-2.219.625.09,1.539-.123,1.846.223,5.839,6.6,9.291,14.366,8.569,23.141-.266,3.243-1.4,6.186.032,9.483,6.6,15.218,12.838,30.6,19.672,45.7,3.052,6.746,11.889,7.546,15.853,14.386,1.746,3.013,7.083,4.684,10.01,8.325,1.973,2.455,5.053,1.168,6.192-1.622a26.271,26.271,0,0,0,2.316-9.518,229.473,229.473,0,0,0-1-25.889c-2.06-18.58-8.627-36.131-13.283-54.116-1.287-4.971-3.229-9.833-7.335-13.371-2.69,1.986-1.85,4.8-1.891,7.352-.165,10.2-5.306-1.265-7.4,2.09-1.892,7.7,4.149,14.525,3.9,22.329-.032,1-1.057,2.689-1.789,2.784a5.225,5.225,0,0,1-3.413-1.434c-3.489-2.906-1.49-9.548-7.352-10.912l.189.324c1.071-4.977.945-9.544-4.255-12.364l.277.432c-.039-3.517.4-7.279-4.305-8.408l.287.432c-.047-3.517,1.189-7.692-4.318-8.406l.368.26c-.137-8.533-.152-17.07-.448-25.6-.285-8.214-2.16-16.248-9.351-20.982-7.132-4.7-9.165-12.8-14.362-18.745-2.5-2.854.038-6.006,3.933-6.9q2.1,2.064,4.188,4.132c-.258,4.2,2.919,4.616,5.878,5.283,1.3,1.52,2.578,3.06,3.866,4.581,1.511,1.383,3.009,2.784,4.507,4.186a12.209,12.209,0,0,0,.474,1.834c.747,1.762,2.149,3.662,3.939,2.882,2.076-.905,1.394-3.262.3-4.831-.648-.927-1.942-1.4-2.946-2.083a4.176,4.176,0,0,0-3.912-4.051,4.124,4.124,0,0,0-4.137-3.87c-1.688-3.581-4.277-5.15-8.227-3.68Z"/><path class="b" d="M251.91,382.833c-1.305-3.8-4.8-3.98-7.92-4.984-4.415-1.421-9.127-2.537-12.959-4.969-3.882-2.463-6.808-6.432-6.462-11.647.194-2.919,6.429-4.4,12.3-2.131,23.333,9.031,47.685,11.43,72.4,11.655,15.322.14,30.646.017,45.968.166,13.526.13,26.483-1.94,38.59-8.413,5.261-2.813,10.857-4.994,16.281-7.507,2.292-1.062,4.861-3.492,7.068-1.6,2.865,2.457,1.794,6.135.5,9.264-1.879,4.535-5.717,7.037-9.725,9.626-12.694,8.2-27.151,11.335-41.57,13.229-20.386,2.679-40.86,6.482-61.6,3.979-12.537-1.514-25.028-3.463-37.492-5.5-5.254-.86-10.395-2.364-15.788-1.49Z"/><path class="b" d="M259.187,422.32c6.376,5.355,14.587,6.139,22.078,7.2,35.331,5.017,70.057.95,104.257-8.769,8.521-2.422,15.559-7.221,22.513-12.365a4.727,4.727,0,0,1,3.616-.59c2.079.59,2.844,2.469,2.955,4.538a16.2,16.2,0,0,1-7.531,15.213c-6.648,4.561-13.749,8.642-21.585,9.815-20.95,3.136-41.995,7.027-63.072,7.5-18.372.412-36.869-3.193-55.253-5.493-8.522-1.065-16.939-3.094-25.342-4.963-7.134-1.587-13.855-4.163-19.037-9.912,7.844-5.152,17.291-1.409,24.8-5.966l-.359-.214c2.38,6.563,7.876,4.05,12.435,4.265Z"/><path class="b" d="M101.335,483.32c27.506-.175,55.022-.918,82.515-.393,43.207.825,86.451,1.6,129.575,4.157,26.583,1.576,53.143-.134,79.558,1.386,24.242,1.394,48.829.14,72.956,5.295-.38,1.021-.566,1.985-.764,1.988-40.587.536-81.113-.328-121.648-3.027-27.831-1.854-55.81-2.377-83.709-2.109-44.616.428-89.2-.2-133.792-1.346C117.628,489.055,109.1,488.575,101.335,483.32Z"/><path class="b" d="M478.224,459.94c-1.307,5.758-5.035,5.2-8.178,5.423-28.586,2-57.177,1.062-85.763,0q-41.85-1.548-83.695-3.285c-13.275-.553-26.534-1.573-39.813-1.949-25.9-.734-51.816-1.129-77.723-1.732-13.295-.309-26.593-.634-39.877-1.234-3.921-.177-8.276-.429-11.591-2.211-5.642-3.033-11.49-1.888-17.241-2.719,18.514,0,37.029.052,55.542-.028,6.643-.029,13.345-1.055,19.917-.468,39.132,3.5,78.385,2.768,117.587,3.77,12.614.322,25.253-.187,37.777,2.2,3.854.734,7.955.185,11.943.2,30.592.105,61.186.077,91.777.378C458.581,458.385,468.269,459.355,478.224,459.94Z"/><path class="b" d="M487.214,481.372q-28.941,0-57.883,0a7.733,7.733,0,0,1-1.993-.047c-23.53-6.443-47.528-2.379-71.306-3.19-34.592-1.181-69.178-2.57-103.776-3.477-21.957-.575-43.933-.382-65.9-.655-5.983-.074-11.977-.39-17.935-.934-18.565-1.694-37.093-3.807-55.806-2.468-4.531.324-9.128-.265-14.6-.467,2.478-4.657,5.741-3.866,8.373-3.82,51.9.9,103.863-1.722,155.716,2.863,14.568,1.288,29.264,1.305,43.907,1.5a239.363,239.363,0,0,1,33.823,2.7,149.858,149.858,0,0,0,17.869,1.4c36.559,1.281,73.182-.626,109.709,2.178,6.484.5,12.937,1.4,19.4,2.116Z"/><path class="b" d="M150.777,434.033c1.691,3.5,4.875,4.107,8.282,4.213,14.6.455,29.228.6,43.812,1.423,12.579.709,25.119,2.132,37.66,3.4,1.077.109,2.032,1.417,4.75,3.436-62.644.386-123.49-.973-185.313-5.728,2.26-5.3,5.895-3.676,8.389-3.573,25.183,1.037,50.36,2.064,75.508-.5,2.5-.255,4.888-1.584,7.317-2.421Z"/><path class="b" d="M391.035,448.219c25.711-4.054,48.412-2.358,73.3-.9C445.629,452.379,417.255,452.728,391.035,448.219Z"/><path class="b" d="M439.5,318.289c-7.268-5.554-8.125-14.645-11.948-22.078-1.449-2.818,1.563-4.539,4.071-5.629l-.368-.261c.3,3.385-.363,7.268,4.318,8.406l-.287-.432c-.195,3.637-1.356,7.769,4.305,8.408l-.278-.432q-.029,6.177-.056,12.353Z"/><path class="b" d="M391.924,239.675c1.179-1.531,2.1-3.407,3.6-4.508,1.984-1.462,4.815-3.661,6.561-3.138,3,.9,4.856,3.979,5.031,7.581.142,2.927-.712,4.971-3.939,5.206-1.932.141-3.877.092-5.816.128Z"/><path class="b" d="M489.644,449.69c-3.309,0-6.625.128-9.922-.071-1.132-.068-2.214-.953-3.319-1.464a16.554,16.554,0,0,1,3.819-.908c3.275,0,6.551.259,9.826.414Q489.846,448.675,489.644,449.69Z"/><path class="b" d="M384.866,215.959c1.8-2.571,3.362-5.359,5.485-7.623,1.119-1.193,3.6-2.1,4.435.558,1.7,5.393,1.34,10.123-5.38,11.81Q387.136,218.331,384.866,215.959Z"/><path class="b" d="M66.125,336.073a67.272,67.272,0,0,1-7.952-.493c-3.579-.628-3.294-3.875-2.924-6.2.5-3.16,3.071-4.208,5.879-2.678,2.894,1.577,5.5,3.687,8.231,5.555Q67.747,334.156,66.125,336.073Z"/><path class="b" d="M451.375,416.169c-2.849,1.946-5.694,1.367-8.645.32C445.58,414.667,448.418,415.042,451.375,416.169Z"/><path class="b" d="M199.284,278.672c2.927-.784,5.153.514,6.848,2.657.7.886,1.34,2.572.946,3.369a4.018,4.018,0,0,1-3.206,1.613,10.634,10.634,0,0,1-5.563-1.413c-1.283-.919-1.731-3-2.548-4.574Q197.522,279.5,199.284,278.672Z"/><path class="b" d="M417.771,258.98c-.66-.58-1.813-1.12-2.138-1.976-.663-1.749-.607-3.711,1.387-4.62.392-.179,1.893,1.1,2.216,1.955C419.9,256.087,419.921,257.952,417.771,258.98Z"/><path class="b" d="M388.985,248.439q-5.678,2.322-11.353,4.645-1.947-2.282-3.906-4.576,5.933-2.019,11.875-4.015Q387.3,246.474,388.985,248.439Z"/><path class="b" d="M389.406,220.7c-.932,4.728-4.9,3.712-8.038,4.248l-3.675-4.387q3.588-2.307,7.178-4.6Z"/><path class="b" d="M471.655,370.292c-3.314-.193-4.046-2.394-3.885-5.156.029-.484.622-.989,1.048-1.383.979-.908,2.07-.511,2.375,1.247a33.427,33.427,0,0,1,.082,5.586Z"/><path class="b" d="M443.375,318.311c-2.186,3.083-2.186,3.083-3.878-.022l-.245.335,4.312.011Z"/><path class="b" d="M397.36,244.944q-4.191,1.745-8.378,3.492-1.685-1.963-3.381-3.943,3.169-2.412,6.335-4.813Q394.636,242.308,397.36,244.944Z"/><path class="b" d="M471.275,370.586c2.287.278,3.066,1.837,3.344,3.869a2.085,2.085,0,0,1-2.046,2.631c-.339.039-1.106-.8-1.118-1.253-.052-1.843.112-3.692.2-5.54Z"/><path class="b" d="M463.229,350.672c1.052.592,2.456.939,3.079,1.83,1.069,1.527,1.718,3.426-.309,4.893-.351.254-1.3.358-1.374.215a11.08,11.08,0,0,1-1.454-3.482,15.1,15.1,0,0,1,.409-3.768Z"/><path class="b" d="M461.234,341.094c2.912,2.723,2.677,6.1,2,9.577l.35-.311c-4.791-.293-4.435-4.038-4.868-7.254Q459.945,342.065,461.234,341.094Z"/><path class="b" d="M458.712,343.106a6.831,6.831,0,0,1-3.252-6.247c.007-.491.5-1.016.86-1.455.864-1.061,1.94-.915,2.738.6.859,1.629,1.447,3.4,2.165,5.1C460.375,341.742,459.534,342.412,458.712,343.106Z"/><path class="b" d="M130.307,191.7c-1.431-.812-3.156-2.051-1.615-3.54s2.74.119,3.34,1.753Q131.171,190.806,130.307,191.7Z"/><path class="a" d="M178.544,259.567h26.878c-1.535,2.579-2.34,5.426-3.441,5.545C193.746,266,185.682,265.268,178.544,259.567Z"/><path class="a" d="M247.481,332.823c-5.58,1.414-10.587.778-14.375-4.261Z"/><path class="a" d="M132.47,225.168c4.348.9,8.81,1.467,12.992,2.867,1.806.6,5.107,1.74,3.832,4.775-.408.972-3.511,1.556-5.089,1.158-4.889-1.234-9.845-2.632-13.248-6.856Q131.749,226.172,132.47,225.168Z"/><path class="a" d="M310.715,228.547c11.31-3.314,18.746-3.153,28.332-2.292C328.078,231.5,328.078,231.5,310.715,228.547Z"/><path class="a" d="M206.477,235.92q-.443.743-.883,1.487a18.873,18.873,0,0,1-2.155-2.269c-.122-.171.513-1.27.923-1.356C205.742,233.491,206.473,234.325,206.477,235.92Z"/><path class="a" d="M379.2,193.9c-.561.1-1.439.473-1.631.252-1.229-1.416-.837-2.305.976-2.3a6.272,6.272,0,0,1,1.792.571Z"/><path class="a" d="M129.575,244.672c2.42,1.514,6.51,1.458,5.674,6.032l.336-.352c-3.868,1.323-6.883.614-8.45-3.545Q128.377,245.765,129.575,244.672Z"/><path class="a" d="M135.249,250.7l2.731.948c-2.367,2.461-2.2.244-2.395-1.3Z"/><path class="a" d="M215.539,270.471l-2.235-2.116c2.336-.525,3.159.109,1.832,2.392Z"/><path class="a" d="M125.417,240.517c1.378,1.4,2.757,2.793,4.146,4.172-.787.711-1.6,1.423-2.428,2.118a4.63,4.63,0,0,1-4.353-3.6Q124.062,241.826,125.417,240.517Z"/><path class="a" d="M403.609,162.51c-2.1-1.475-4.543-2.64-6.2-4.507-1.925-2.172-3.751-3.708-6.66-2.556-21.444,8.493-43.891,8.22-66.389,7.9-2.321-.033-4.759,2.751-6.979,2.537-2.333-.226-5.506-1.984-6.469-3.967-1.842-3.793,1.982-3.874,4.29-4.044,10.57-.778,21.149-1.506,31.737-1.952,18.684-.79,37-2.844,53.545-12.724,1.275-.762,3.647.312,5.509.533-.653,1.76-.784,4.221-2.047,5.16-6.107,4.54-.756,9.3-.648,13.919Z"/><path class="a" d="M221.707,135.079c7.865,4.081,15.974,8.219,23.961,12.58.563.307.383,2.275.237,3.432a1.928,1.928,0,0,1-1.464,1.192c-10.335-.671-18.485-5.346-24.539-13.693a2.134,2.134,0,0,1-.1-1.817C220.049,136.229,220.748,135.892,221.707,135.079Z"/><path class="a" d="M302.076,160.279c-.282.421-.523,1.171-.853,1.213a48.243,48.243,0,0,1-7.483.6c-.762-.022-1.484-1.358-2.224-2.093.552-.343,1.089-.95,1.66-.985,2.529-.155,5.07-.216,7.6-.127C301.225,158.9,301.643,159.793,302.076,160.279Z"/><path class="a" d="M259.661,422.581c-4.559-.215-10.055,2.3-12.435-4.265C251.855,418.327,256.806,417.4,259.661,422.581Z"/><path class="a" d="M212.225,381.452a11.092,11.092,0,0,1,8.388,3.654q-1.569,1.926-3.14,3.85c-2.954-1.163-5.863-2.372-6.4-6.079Z"/><path class="a" d="M220.613,385.106l8.1,3.855-3.085,3.743q-4.074-1.884-8.153-3.758Q219.042,387.037,220.613,385.106Z"/><path class="a" d="M228.714,388.961c2.4.624,6.071,1.536,5.405,3.892-.692,2.443-4.347,1.679-6.834.827a9.629,9.629,0,0,1-1.652-.987Q227.17,390.838,228.714,388.961Z"/><path class="a" d="M399.645,402.224l-3-.213.87-2.1q.931,1.335,1.865,2.666Z"/><path class="a" d="M443.564,318.635l-4.312-.011q.029-6.177.056-12.353C444.509,309.091,444.635,313.658,443.564,318.635Z"/><path class="a" d="M421.426,227.792c-2.929-.686-6.106-1.1-5.848-5.3l-.259.253c3.949-1.471,6.538.1,8.226,3.679A15.586,15.586,0,0,1,421.426,227.792Z"/><path class="a" d="M431.594,234.342c1,.679,2.3,1.156,2.946,2.083,1.1,1.569,1.778,3.926-.3,4.831-1.79.78-3.192-1.12-3.939-2.882a9.9,9.9,0,0,1-.453-1.853C430.425,235.765,431,235.045,431.594,234.342Z"/><path class="a" d="M435.568,298.727c-4.681-1.138-4.015-5.021-4.318-8.406C436.757,291.035,435.521,295.21,435.568,298.727Z"/><path class="a" d="M439.586,306.7c-5.661-.639-4.5-4.771-4.305-8.408C439.987,299.424,439.547,303.186,439.586,306.7Z"/><path class="a" d="M411.132,218.6l4.186,4.137.26-.252q-2.092-2.066-4.188-4.131Z"/><path class="a" d="M423.545,226.421a4.124,4.124,0,0,1,4.137,3.87q-1.209,1.015-2.373,2.082c-1.275-1.54-2.549-3.08-3.853-4.6A15.188,15.188,0,0,0,423.545,226.421Z"/><path class="a" d="M427.682,230.291a4.176,4.176,0,0,1,3.912,4.051c-.595.7-1.169,1.423-1.744,2.179-1.519-1.383-3.017-2.784-4.528-4.167C426.085,231.662,426.876,230.968,427.682,230.291Z"/></svg>