<svg xmlns="http://www.w3.org/2000/svg" viewBox="0 0 543.348 543.348"><defs><style>.a{fill:#2d9e54;}.b{fill:#fcfcfb;}</style></defs><path class="a" d="M287.357,267.017c-1.169-14.17,3.125-23.136,7.106-32.2,1.657-3.775,2.113-6.922-1.565-10.608-4.827-4.837-4.6-7.642-1.027-11.352,3.225-3.348,6.957-6.2,10.2-9.536,7.292-7.487,10.5-16.838,11.45-27.01.451-4.818-3.7-8.437-8.943-7.978-2.62.23-5.167,1.326-7.785,1.529-4.294.331-6.808-3.859-5.628-8.25,1.665-6.193,6.558-9.853,10.43-14.358,3.858-4.489,8.513-8.433,9.445-14.908.651-4.519-1.6-7.8-6.243-8.049a8.044,8.044,0,0,0-1.973.168c-3.957.783-8.659,2.018-10.933-2-2.321-4.107-1.738-9.156.882-13.376,3.848-6.2,8.716-11.67,11.532-18.622,2.374-5.861,3.122-11.446,1.269-17.437-.749-2.423-4.5-3.752-6.529-2.309a20.767,20.767,0,0,0-7.646,9.01,15.734,15.734,0,0,1-6.158,7.552c-2.07,1.347-5.778.206-6.689-2.063a13.513,13.513,0,0,1,.387-11.587,32.385,32.385,0,0,1,5.622-8.181c6.2-6.178,8.292-13.376,6.915-21.894-.281-1.738.462-3.641.666-5.019,3.438-2.607,6.868-2.107,10.133-2.109q95.979-.057,191.96-.027c2,0,4-.046,6,.075,6.168.375,7.621,1.96,7.986,8.788.143,2.659.106,5.329.106,7.994q.006,219.9-.006,439.792,0,4.992-.241,9.984c-.184,3.845-2.224,6.029-6.124,6.255-2.658.154-5.324.257-7.986.257q-97.98.015-195.959-.025c-2.641,0-5.282-.352-7.658-.521-2.356-3.854.605-4.661,2.743-5.762a33.845,33.845,0,0,0,12.17-10.173c7.008-9.7,7.433-12.572-2.248-19.663a43.556,43.556,0,0,1-5.962-5.283,8.371,8.371,0,0,1-.519-10.923,7.922,7.922,0,0,1,10.671-1.542c2.153,1.506,3.856,3.646,5.982,5.2,7.97,5.82,14.158,5.924,21.618-.175,7.826-6.4,14.8-13.585,15.676-24.474.3-3.715-1.259-6.581-5.344-6.866a66.672,66.672,0,0,0-9.959.2c-13.82,1.1-22.908-5.876-28.653-17.5-4.11-8.317-7.2-17.141-10.668-25.77-.982-2.446-1.464-5.108-2.574-7.484-1.209-2.586-7.622-3.577-11.012-1.864-2.929,1.48-2.957,4.106-2.163,6.736,4.444,14.728,9.813,29,20.689,40.45a48.159,48.159,0,0,1,5.232,6c1.021,1.516,2.139,3.721-.257,5.079a4.043,4.043,0,0,1-3.516-.179c-6.155-4.072-11.573-8.947-15.492-15.309-1.393-2.262-2.556-4.73-4.284-6.7-1.177-1.34-3.135-2.72-4.778-2.762-2.728-.07-2.215,2.72-2.089,4.355,1.627,21.2,2.3,42.6,11.656,62.379a3.944,3.944,0,0,1-.54,3.654c-1.865,1.588-3.231.088-4.545-1.417-4.765-5.46-4.176-13.7-10.085-19.012-6.456,5.024-7.44,13.742-13.225,20.888-1.958-7.37,2.5-11.784,3.546-16.906,1.2-5.852,3.263-11.546,4.2-17.428.929-5.836,3.221-11.474,1.929-17.718-1.2-5.822-1.394-11.854-2.025-17.744-5.985-1.771-6.4,3.53-8.369,6.253-3.882,5.37-6.6,11.669-12.382,15.445-1.429.933-3.954,1.914-5.038,1.277-2.052-1.2-1.111-3.533.334-4.982,8.642-8.669,14.29-19.218,18.71-30.409a102.877,102.877,0,0,0,4.757-17.208c.768-3.763-1.709-6.383-5.18-7.395-3.4-.992-6.531-.268-8.487,3.224-2.685,4.793-3.514,10.054-3.809,15.391a34.394,34.394,0,0,1-4.3,15.209c-7.518,13.462-17.894,21.291-34.2,17.9a25.938,25.938,0,0,0-3.927-.72c-6.977-.343-13.673,6.315-11.7,12.643,3.164,10.164,7.155,20.146,15.638,27.382a8.918,8.918,0,0,0,12.6-.414c2.81-2.817,4.854-6.472,7.884-8.974a34.571,34.571,0,0,1,10.3-5.755c3.477-1.233,6.473,1.224,8.659,3.666,2.366,2.644,2.435,5.867.924,9.283-2.4,5.428-7.81,6.916-12.064,9.973-4.592,3.3-5.083,6.972-2.679,12.149,5.118,11.022,14.639,16.6,25.566,20.4-1.174,5.349-5.245,3.768-7.92,3.774q-101.978.225-203.956.144A38.6,38.6,0,0,1,41.9,509.3c-3.678-.582-5.952-2.71-6.066-6.61-.136-4.66-.236-9.323-.236-13.984q-.018-215.9-.015-431.8c0-22.15-1.1-20.513,20.6-20.516q103.979-.011,207.957.054c5.193.007,10.548-1.1,16.808,1.721a144.39,144.39,0,0,1-22.347,36.9c-11.976,14.252-23.823,28.517-32.067,45.572-14.32,29.627-16.246,59.874-7.506,91.292,2.912,10.468,8.919,19.368,13.929,28.65,6.679,12.374,13.395,24.514,16.25,38.426,1.23,5.994,4.661,9.149,11.141,8.968,7.987-.223,15.989-.115,23.979.073,4.827.114,7.928-2.693,8.814-6.6,4.779-21.047,14.911-39.748,24.5-58.767,3.252-6.449,5.234-13.691,6.834-20.788,3.553-15.757,2.595-31.825,1.667-47.765-.32-5.5-2.776-10.878-5.025-19.134l-13.49,20.59c2.045,1.561,3.392,3.249,5.1,3.784,9.8,3.07,10.964,10.22,9.825,19-1.335,10.287-5.715,19.041-12.256,26.874-3.882,4.649-7.722,8.789-4.261,15.963,2.081,4.314-1.7,8.91-3.565,13.105C298.207,243.937,293.663,253.435,287.357,267.017ZM384.4,380.669l3.652,5.4c-1.145,3.154-2.145,6.25-.067,9.491,3.219,5.022,4.744,10.552,5.375,18.727-7.154-6.666-10.575-14.118-17.44-17.984-6.177-3.478-20.128-3.349-24.954.408,0,2.474.125,5.078-.033,7.664-.173,2.827,1.82,6.584-2.948,7.944-4.251-4.16-5.047-9.292-4.629-14.558.186-2.345-.418-4.219-2.189-4.8-9.722-3.192-16.845-10.519-25.408-15.522-2.285-1.335-6.431.34-6.35,2.647.389,11.065-1.787,22.635,6.422,32.217,2.741,3.2,5.638,3.87,9.5-.207,3.712-3.922,7.154-4.514,9.083.2,3.717,9.082,11.719,9.986,19.384,11.877,4.467,1.1,7.36-.266,9.03-5.1,1.36-3.94,5.238-3.782,8.243-1.871,3.895,2.476,7.09,6.123,11.1,8.329,6.756,3.713,13.785,4.216,20.836-.044,6.895-4.166,7.457-6.864,2.32-15.279-.344-.563-1-.979-1.214-1.57-1-2.748-.722-5.4,2.1-6.724a31.4,31.4,0,0,1,7.542-2.161c13.38-2.516,18.7-7.292,21.293-19.612.719-3.423-.147-5.733-3.753-7.934-8.417-5.137-8.482-5.639-5.315-15.23,1.771-5.366,3.083-11.049-.408-15.271-7.717-9.333-17.039-16.862-29.8-18.352-6.551-.765-10.051,2.517-8.856,9.154,3.742,20.794-1.5,38-20.2,50.839,2.778.474,4.735,1.364,6.4.979C376.959,383.433,380.653,381.925,384.4,380.669ZM203.348,199.681c1.744-12.334-2.718-20.831-12.954-24.923-6.859-2.742-14.086-4.006-14.129-13.811-.007-1.561-3.714-3.563-6.051-4.575-9.4-4.068-19.33-4.857-29.406-3.825-9.785,1-19.274,5.791-29.471,1.858-1.507-.581-3.943.506-5.675,1.369-12.433,6.192-26,11.091-30.052,26.835-.619,2.4-2.743,4.538-4.5,6.507-6.163,6.92-7.478,15.122-7.783,24.083-.528,15.546,4.2,28.891,14.935,39.959A50.89,50.89,0,0,1,90.13,271.42c4.479,12.463,2.747,17.882-8.255,27.462-1.366,1.189-3.064,2.331-1.823,5.666,6.909,2.812,14.424,4.287,22.423,1.208,7.5-2.888,11.415-8.465,13.332-16.139,1.006-4.027,4.388-5.673,8.691-6.94,5.988-1.764,7.765-6.576,6.954-12.268-.791-5.558-4.546-9.55-6.909-14.274-2.083-4.166-2.151-7.794,3.346-9.1,5.246-1.244,6.769-3.888,3.159-8.2a62.215,62.215,0,0,1-9.386-15.226c-1.413-3.24-3.946-5.057-7.972-3.818-3.159.972-6.5,1.337-9.745,2.051-7.36,1.62-9.774,6.423-6.1,13.1,2.876,5.234,6.484,10.061,9.65,15.142,8.116,13.029,7.19,26.426,1.292,39.9a4.189,4.189,0,0,1-3.238,1.908c-.747,0-1.636-1.589-2.191-2.614-.25-.462.063-1.315.281-1.934,6.7-19.058-2.289-32-16.674-42.857-3.174-2.395-6.518-4.6-9.457-7.259-3.242-2.928-2.732-8.574,1.442-9.521,5.68-1.288,8-3.95,7.839-9.33-.166-5.565,2.036-10.373,4.482-15.14,1.311-2.554,3.536-4.364,6.181-3.925,1.113.185,1.84,3.128,2.577,4.886.225.537-.219,1.315-.162,1.966.84,9.594,4.254,11.272,12.291,6,3.86-2.53,7.49-5.466,11.528-7.656,3.849-2.088,7.555.962,7.125,5.755-.222,2.472-2.664,5.265-.264,7.255a11.738,11.738,0,0,0,7.239,2.349c3.927-.093,7.825-1.233,11.747-1.858,4.588-.731,9.168-1.655,13.788-1.985a8.516,8.516,0,0,1,8.181,4.736c2.011,3.663-.2,6.142-3.008,8.211-3.069,2.264-7.741,3.71-6.3,8.765,1.139,4,4.748,6.276,8.214,8.361,4.19,2.52,8.785,2.736,13.515,2.537a145.155,145.155,0,0,1,15.895-.175,7.5,7.5,0,0,1,7.043,6.068c.826,3.781-1.214,6.368-4.492,7.926a52.1,52.1,0,0,1-5.607,1.929c-2.392.818-5.577.8-5.484,4.5.1,4,3.055,6.126,6.3,6.59,10.719,1.533,20.124,6.935,30.394,9.717,9.419,2.552,12.188.246,10.769-9.694a89.817,89.817,0,0,0-3.324-13.5c-3.573-11.648-10.993-21.086-17.573-31.107-8.336-12.7-18.237-22.654-33.263-26.946-5.649-1.613-9.6-4.594-2.64-10.241,1.525-1.239.38-3.588-1.075-5.189-2.843-3.128-6.672-4.261-10.487-5.466-9.722-3.07-19.7-3.038-29.717-2.4-2.812.178-6.421-.51-5.864-3.367,1.335-6.845-1.967-7.962-7.463-8.278-11.561-.666-22.484,1.8-33.027,6.214-2.525,1.056-4.736,2.271-7.91-.857,16.744-12.444,35.172-15.08,54.612-10.46,10.885,2.586,21.342,7.025,31.917,10.837a49.669,49.669,0,0,1,18.4,11.729C195.528,190.676,199.355,195.262,203.348,199.681Zm247.83,28.886c-1.371,9.718-3.775,17.189-8.618,23.738-5.286,7.148-8.286,15.117-7.033,24.286.159,1.163-.577,2.5-1.074,3.68-.24.572-.988,1.442-1.331,1.368a10.851,10.851,0,0,1-3.585-1.392c-2.6-1.687-2.4-4.583-2.647-7.168-.852-9.12,2.732-16.945,7.563-24.282,3.452-5.241,5.07-10.789,4-17.023a9.063,9.063,0,0,0-8.487-7.077c-7.434.031-12.129,5.025-16.832,9.6-3.179,3.093.755,5.952,1.461,8.932a8.181,8.181,0,0,1-1.821,7.4,61.308,61.308,0,0,0-4.895,6.287c-3.861,6.189-5.2,12.7,1,18.006,3.56,3.049,4.554,6.059,3.686,10.356a28.126,28.126,0,0,0-.635,7.912c.95,10.773,6.82,15.773,18.7,14.768,4.454-.377,7.559.422,10.781,3.164A49.929,49.929,0,0,0,451.086,318c5.314,2.661,10.232,1.577,14.213-3.266a13.491,13.491,0,0,0-2.769-2.166c-1.2-.5-2.637-.429-3.889-.849-14.825-4.976-20.06-17.823-12.19-31.152,2.649-4.487,6.561-8.352,10.372-12,7.425-7.114,12.82-15.57,15.17-25.374a106.3,106.3,0,0,0,.531-49.36c-1.361-5.835-3.872-11.42-9.119-15.062-2.1-1.459-5-3.894-7.024-2.049-5.611,5.125-9.385.961-13.88-1.545-6.079-3.388-13.827-5.556-18.562-.429-4.667,5.053-8.186,4.8-13.729,3.555-5.771-1.3-11.846-1.421-17.8-1.628-3.414-.119-7.176,1.165-7.957,4.706-1.23,5.579-3.879,7.668-9.562,7.089-6.755-.689-13.165.38-18.807,4.893-4.729,3.783-7.409,7.934-3.764,13.573,2.533,3.917,1.043,6.229-2.324,7.736-7.223,3.233-15.089,4.938-20.916,11.086-14.147,14.927-22.552,32.724-27,52.543-1.164,5.186,2.924,8.312,8.749,7.064,7.752-1.66,14.907-5.72,23.241-5.181,4.764.309,10.16-1.044,11.216-6.057,1-4.749-5.073-5.177-7.838-7.723a7.974,7.974,0,0,1-2.332-5.149c-.068-2.9,2.042-4.625,4.791-5.544,6.586-2.2,13.166-1.394,19.7.073,7.162,1.607,12.979-1.457,18.658-5.065,4.161-2.642,3.975-6.785-.522-9.175-2.924-1.553-6.243-2.4-9.071-4.087a7.238,7.238,0,0,1-3.2-4.429c-.435-2.781,1.331-5.131,3.67-6.584,4.952-3.077,10.162-2.428,15.278-.394,4.3,1.711,8.379,4.429,12.82,5.225,4.586.823,9.912-.7,12.739-4.335,3.369-4.34-1.909-6.711-4.231-9.574-.419-.517-1.146-.988-1.217-1.546-.238-1.863-.954-4.148-.179-5.547,1.3-2.355,4-3.812,6.753-2.488,4.156,2,8.048,4.545,12.094,6.781,3.037,1.679,6.285,2.418,9.438.518,3.5-2.106,3.255-5.439,2.182-8.768-.818-2.543-1.992-5.37,1.48-6.5,2.768-.9,5.182,1.024,6.758,3.126,2.365,3.155,4.825,6.427,6.266,10.039,1.948,4.884,4.546,4.841,9.2,3.91,6.307-1.261,8.493,1.3,8.517,7.264.025,6.116-.671,12.017-5.206,16.638a4.73,4.73,0,0,1-3.484,1.336,4.029,4.029,0,0,1-2.445-2.411C454.8,236.706,456.311,232.964,451.178,228.567ZM248.25,309.622c-15.192,0-25.814,0-36.435,0-20.341.011-20.858-1.761-21.426,20.21-.377,14.609.975,15.636,14.747,17.469a157.609,157.609,0,0,0,15.9.9c35.769,1.114,71.56.838,107.323,3.083,25.57,1.6,26.755-.475,25.777-26.2-.409-10.733-1.63-12.377-13.1-12.608C308.572,311.824,276.258,306.239,248.25,309.622Zm-16.761,64.717c-7.977-.98-13.83-1.153-19.737,4.055-10.984,9.687-23.611,16.5-38.966,17.375-7.339.415-14.234,3.263-18.662,10.031a3.835,3.835,0,0,1-3.231,1.443c-2.116-.558-2.3-2.358-2.157-4.5.8-11.944.339-12.571-10.314-13.587-5.755-.549-11.547-.7-17.215-1.03-1.159-7.161,9.615-6.439,8.037-12.3-1.306-4.858-5.14-9.046-7.9-13.5-1.027-1.654-2.382-3.17-1.3-5.563,1.909-3.109,6.462-3.516,8.087-7.87,1.446-3.875,1.109-9.431,7.842-11.606-.7,6.9-1.568,13.093-1.9,19.313-.323,6.016.25,11.986,4.018,17.106,4.56,6.2,11.4,8.789,18.107,11.791,6.115,2.736,11.952,3.708,18.25,1.572-.856-4.947-4.374-6.031-6.926-7.943-14.251-10.677-18.375-25.358-16.537-42.206.5-4.532,2.4-8.9,3.436-13.388,1.072-4.656-1.536-7.894-6.095-7.9a46.644,46.644,0,0,0-44.363,33.843c-2.008,7.352-1.436,13.9,4.572,20.127,5.21,5.4,4.819,6.713-2.7,11.939-7.291,5.066-7.025,10.241-2.628,16.928,5.2,7.907,9.478,9.124,20.068,6.539a55.349,55.349,0,0,1,5.843-1.18,4.485,4.485,0,0,1,4.653,6.376c-1.446,3.481-5.366,6.4-2.213,10.719,2.585,3.541,6.754,4.049,10.605,4.805,6.231,1.224,11.812.165,16.09-5.22a47.563,47.563,0,0,1,6.993-6.942c2.445-2.02,6.408-.694,8.024,2.684,1.346,2.815.43,7.262,4.384,8.084a17.68,17.68,0,0,0,9.823-.573c7.285-3.023,14.76-6.135,18.122-14.381a22.087,22.087,0,0,1,4.2-6.619,5.322,5.322,0,0,1,7.2-.884c1.509,1.072,2.156,3.29,3.572,4.572,3.923,3.555,9.455,1.723,10.443-3.336a21.334,21.334,0,0,0,.469-3.94C231.511,391.315,231.489,383.462,231.489,374.339ZM449.252,168.7c-1.41-8.193-7.869-12.194-14.432-14.654-8.6-3.223-18.232-6.184-27.062-2.072-7.626,3.552-15.1,4.4-23.112,4.09-9.543-.367-18.752.326-24.968,9.1-2.553,3.605-6.9,3.686-10.411,5.4-13.732,6.682-16.5,13.615-11.444,30.667,17.59-16.034,37.076-27.628,60.583-31.937,16.417-3.009,32.562-6.439,48.793.411C447.594,169.867,448.359,169.156,449.252,168.7ZM270.723,295.622c-19.111-1.766-38.407.206-57.569-1.208-1.321-.1-2.859-.667-3.914-.184-1.681.77-3.8,1.97-4.344,3.486-.659,1.836,1.1,3.5,3.171,3.827,1.929.3,3.922.173,5.88.326,35.7,2.8,71.473,2.029,107.222,1.8,4.707-.03,13.66,2.87,13.6-3.231-.074-7.805-9.358-4.368-14.4-4.568C303.843,295.213,287.275,295.622,270.723,295.622Zm-1.461,61.964v-1.315c-15.951,0-31.9-.13-47.852.074a119.885,119.885,0,0,0-15.775,1.66c-.654.1-1.56,2.038-1.425,3,.151,1.076,1.216,2.7,2.118,2.872a54.034,54.034,0,0,0,9.853,1.012c17.271.135,34.553-.213,51.813.278,18.561.527,37.1,1.826,55.652,2.708a25.8,25.8,0,0,0,7.905-.47,6.885,6.885,0,0,0,4.12-3.61c.729-1.92-.875-3.782-2.9-4.23-3.848-.853-7.771-1.842-11.673-1.887C303.82,357.472,286.54,357.586,269.262,357.586ZM309.9,110.094c-.719-3.079-2.163-4.586-4.327-4.064-1.975.477-2.872,2.472-2.518,4.483.379,2.154,1.882,3.519,4.168,2.987A3.179,3.179,0,0,0,309.9,110.094Z"/><path class="a" d="M253.811,128.429c3.685-1.407,4.913-6.8,9.6-6.292,2.52.273,2.547,4.579-3.519,11.046-11.939,12.727-16.25,28.35-17.031,47.869,5.653-6.829,9.638-11.957,13.983-16.759,2.114-2.335,4.926-5.268,8.327-2.426,2.709,2.263.147,4.791-1.142,6.88-1.742,2.821-3.864,5.4-5.687,8.179-8.421,12.815-9.727,26.712-7.249,41.129,4.938,1.212,5.034-2.436,6.392-4.283,2.455-3.337,2.315-10.818,8.292-8.334,3.42,1.421.15,7.168-1.128,10.837-2.016,5.79-1.851,11.746-1.478,17.734.905,14.536-.861,29.215,2.331,43.651.18.817-1.168,2.3-2.147,2.979-2.065,1.437-3.933.228-4.759-1.554a36.918,36.918,0,0,1-3.212-9.356c-2.7-16.567-8.893-31.815-15.9-46.986-11.832-25.6-13.25-52.837-7.9-80.029,3.66-18.589,14.791-33.882,27.562-47.713a3.635,3.635,0,0,1,3.487-.348,3.852,3.852,0,0,1,1.246,5.226c-4.537,8.009-12.441,13.995-14.209,23.677-3.785,2.966-5.379,7.316-6.008,11.667-.6,4.167-5.158,7.539-2.537,12.408Z"/><path class="b" d="M203.348,199.681c-3.993-4.419-7.82-9.005-12.023-13.217a49.669,49.669,0,0,0-18.4-11.729c-10.575-3.812-21.032-8.251-31.917-10.837-19.44-4.62-37.868-1.984-54.612,10.46,3.174,3.128,5.385,1.913,7.91.857,10.543-4.412,21.466-6.88,33.027-6.214,5.5.316,8.8,1.433,7.463,8.278-.557,2.857,3.052,3.545,5.864,3.367,10.019-.636,19.995-.668,29.717,2.4,3.815,1.2,7.644,2.338,10.487,5.466,1.455,1.6,2.6,3.95,1.075,5.189-6.956,5.647-3.009,8.628,2.64,10.241,15.026,4.292,24.927,14.249,33.263,26.946,6.58,10.021,14,19.459,17.573,31.107a89.817,89.817,0,0,1,3.324,13.5c1.419,9.94-1.35,12.246-10.769,9.694-10.27-2.782-19.675-8.184-30.394-9.717-3.244-.464-6.2-2.585-6.3-6.59-.093-3.7,3.092-3.683,5.484-4.5a52.1,52.1,0,0,0,5.607-1.929c3.278-1.558,5.318-4.145,4.492-7.926a7.5,7.5,0,0,0-7.043-6.068,145.155,145.155,0,0,0-15.895.175c-4.73.2-9.325-.017-13.515-2.537-3.466-2.085-7.075-4.361-8.214-8.361-1.441-5.055,3.231-6.5,6.3-8.765,2.8-2.069,5.019-4.548,3.008-8.211a8.516,8.516,0,0,0-8.181-4.736c-4.62.33-9.2,1.254-13.788,1.985-3.922.625-7.82,1.765-11.747,1.858a11.738,11.738,0,0,1-7.239-2.349c-2.4-1.99.042-4.783.264-7.255.43-4.793-3.276-7.843-7.125-5.755-4.038,2.19-7.668,5.126-11.528,7.656-8.037,5.267-11.451,3.589-12.291-6-.057-.651.387-1.429.162-1.966-.737-1.758-1.464-4.7-2.577-4.886-2.645-.439-4.87,1.371-6.181,3.925-2.446,4.767-4.648,9.575-4.482,15.14.16,5.38-2.159,8.042-7.839,9.33-4.174.947-4.684,6.593-1.442,9.521,2.939,2.656,6.283,4.864,9.457,7.259,14.385,10.854,23.374,23.8,16.674,42.857-.218.619-.531,1.472-.281,1.934.555,1.025,1.444,2.617,2.191,2.614a4.189,4.189,0,0,0,3.238-1.908c5.9-13.47,6.824-26.867-1.292-39.9-3.166-5.081-6.774-9.908-9.65-15.142-3.67-6.678-1.256-11.481,6.1-13.1,3.244-.714,6.586-1.079,9.745-2.051,4.026-1.239,6.559.578,7.972,3.818a62.215,62.215,0,0,0,9.386,15.226c3.61,4.314,2.087,6.958-3.159,8.2-5.5,1.3-5.429,4.93-3.346,9.1,2.363,4.724,6.118,8.716,6.909,14.274.811,5.692-.966,10.5-6.954,12.268-4.3,1.267-7.685,2.913-8.691,6.94-1.917,7.674-5.831,13.251-13.332,16.139-8,3.079-15.514,1.6-22.423-1.208-1.241-3.335.457-4.477,1.823-5.666,11-9.58,12.734-15,8.255-27.462a50.89,50.89,0,0,0-11.864-18.262C67.527,242.09,62.8,228.745,63.331,213.2c.3-8.961,1.62-17.163,7.783-24.083,1.753-1.969,3.877-4.1,4.5-6.507,4.056-15.744,17.619-20.643,30.052-26.835,1.732-.863,4.168-1.95,5.675-1.369,10.2,3.933,19.686-.855,29.471-1.858,10.076-1.032,20.011-.243,29.406,3.825,2.337,1.012,6.044,3.014,6.051,4.575.043,9.805,7.27,11.069,14.129,13.811C200.63,178.85,205.092,187.347,203.348,199.681Z"/><path class="b" d="M451.178,228.567c5.133,4.4,3.626,8.139,4.733,11.144a4.029,4.029,0,0,0,2.445,2.411,4.73,4.73,0,0,0,3.484-1.336c4.535-4.621,5.231-10.522,5.206-16.638-.024-5.965-2.21-8.525-8.517-7.264-4.658.931-7.256.974-9.2-3.91-1.441-3.612-3.9-6.884-6.266-10.039-1.576-2.1-3.99-4.029-6.758-3.126-3.472,1.132-2.3,3.959-1.48,6.5,1.073,3.329,1.314,6.662-2.182,8.768-3.153,1.9-6.4,1.161-9.438-.518-4.046-2.236-7.938-4.779-12.094-6.781-2.748-1.324-5.449.133-6.753,2.488-.775,1.4-.059,3.684.179,5.547.071.558.8,1.029,1.217,1.546,2.322,2.863,7.6,5.234,4.231,9.574-2.827,3.64-8.153,5.158-12.739,4.335-4.441-.8-8.518-3.514-12.82-5.225-5.116-2.034-10.326-2.683-15.278.394-2.339,1.453-4.105,3.8-3.67,6.584a7.238,7.238,0,0,0,3.2,4.429c2.828,1.689,6.147,2.534,9.071,4.087,4.5,2.39,4.683,6.533.522,9.175-5.679,3.608-11.5,6.672-18.658,5.065-6.539-1.467-13.119-2.274-19.7-.073-2.749.919-4.859,2.643-4.791,5.544a7.974,7.974,0,0,0,2.332,5.149c2.765,2.546,8.838,2.974,7.838,7.723-1.056,5.013-6.452,6.366-11.216,6.057-8.334-.539-15.489,3.521-23.241,5.181-5.825,1.248-9.913-1.878-8.749-7.064,4.444-19.819,12.849-37.616,27-52.543,5.827-6.148,13.693-7.853,20.916-11.086,3.367-1.507,4.857-3.819,2.324-7.736-3.645-5.639-.965-9.79,3.764-13.573,5.642-4.513,12.052-5.582,18.807-4.893,5.683.579,8.332-1.51,9.562-7.089.781-3.541,4.543-4.825,7.957-4.706,5.957.207,12.032.332,17.8,1.628,5.543,1.245,9.062,1.5,13.729-3.555,4.735-5.127,12.483-2.959,18.562.429,4.5,2.506,8.269,6.67,13.88,1.545,2.019-1.845,4.921.59,7.024,2.049,5.247,3.642,7.758,9.227,9.119,15.062a106.3,106.3,0,0,1-.531,49.36c-2.35,9.8-7.745,18.26-15.17,25.374-3.811,3.652-7.723,7.517-10.372,12-7.87,13.329-2.635,26.176,12.19,31.152,1.252.42,2.684.347,3.889.849a13.491,13.491,0,0,1,2.769,2.166c-3.981,4.843-8.9,5.927-14.213,3.266a49.929,49.929,0,0,1-9.682-6.876c-3.222-2.742-6.327-3.541-10.781-3.164-11.88,1-17.75-4-18.7-14.768a28.126,28.126,0,0,1,.635-7.912c.868-4.3-.126-7.307-3.686-10.356-6.2-5.309-4.856-11.817-1-18.006a61.308,61.308,0,0,1,4.895-6.287,8.181,8.181,0,0,0,1.821-7.4c-.706-2.98-4.64-5.839-1.461-8.932,4.7-4.574,9.4-9.568,16.832-9.6a9.063,9.063,0,0,1,8.487,7.077c1.072,6.234-.546,11.782-4,17.023-4.831,7.337-8.415,15.162-7.563,24.282.242,2.585.044,5.481,2.647,7.168a10.851,10.851,0,0,0,3.585,1.392c.343.074,1.091-.8,1.331-1.368.5-1.182,1.233-2.517,1.074-3.68-1.253-9.169,1.747-17.138,7.033-24.286C447.4,245.756,449.807,238.285,451.178,228.567Z"/><path class="b" d="M248.25,309.622c28.008-3.383,60.322,2.2,92.786,2.855,11.467.231,12.688,1.875,13.1,12.608.978,25.728-.207,27.808-25.777,26.2-35.763-2.245-71.554-1.969-107.323-3.083a157.609,157.609,0,0,1-15.9-.9c-13.772-1.833-15.124-2.86-14.747-17.469.568-21.971,1.085-20.2,21.426-20.21C222.436,309.617,233.058,309.622,248.25,309.622Z"/><path class="b" d="M231.489,374.339c0,9.123.022,16.976-.021,24.829a21.334,21.334,0,0,1-.469,3.94c-.988,5.059-6.52,6.891-10.443,3.336-1.416-1.282-2.063-3.5-3.572-4.572a5.322,5.322,0,0,0-7.2.884,22.087,22.087,0,0,0-4.2,6.619c-3.362,8.246-10.837,11.358-18.122,14.381a17.68,17.68,0,0,1-9.823.573c-3.954-.822-3.038-5.269-4.384-8.084-1.616-3.378-5.579-4.7-8.024-2.684a47.563,47.563,0,0,0-6.993,6.942c-4.278,5.385-9.859,6.444-16.09,5.22-3.851-.756-8.02-1.264-10.605-4.805-3.153-4.32.767-7.238,2.213-10.719a4.485,4.485,0,0,0-4.653-6.376,55.349,55.349,0,0,0-5.843,1.18c-10.59,2.585-14.869,1.368-20.068-6.539-4.4-6.687-4.663-11.862,2.628-16.928,7.521-5.226,7.912-6.543,2.7-11.939-6.008-6.222-6.58-12.775-4.572-20.127a46.644,46.644,0,0,1,44.363-33.843c4.559,0,7.167,3.241,6.095,7.9-1.035,4.492-2.941,8.856-3.436,13.388-1.838,16.848,2.286,31.529,16.537,42.206,2.552,1.912,6.07,3,6.926,7.943-6.3,2.136-12.135,1.164-18.25-1.572-6.71-3-13.547-5.595-18.107-11.791-3.768-5.12-4.341-11.09-4.018-17.106.334-6.22,1.2-12.411,1.9-19.313-6.733,2.175-6.4,7.731-7.842,11.606-1.625,4.354-6.178,4.761-8.087,7.87-1.078,2.393.277,3.909,1.3,5.563,2.764,4.454,6.6,8.642,7.9,13.5,1.578,5.865-9.2,5.143-8.037,12.3,5.668.326,11.46.481,17.215,1.03,10.653,1.016,11.115,1.643,10.314,13.587-.143,2.146.041,3.946,2.157,4.5a3.835,3.835,0,0,0,3.231-1.443c4.428-6.768,11.323-9.616,18.662-10.031,15.355-.87,27.982-7.688,38.966-17.375C217.659,373.186,223.512,373.359,231.489,374.339ZM187.5,405.592a3.692,3.692,0,0,0,3.689-3.531c.236-1.914.557-3.848-1.523-5.121-2.565-1.57-3.55.592-4.323,2.1C183.945,401.769,184.889,404.057,187.5,405.592Z"/><path class="b" d="M384.4,380.669c-3.751,1.256-7.445,2.764-11.281,3.653-1.662.385-3.619-.5-6.4-.979,18.694-12.842,23.941-30.045,20.2-50.839-1.195-6.637,2.305-9.919,8.856-9.154,12.756,1.49,22.078,9.019,29.8,18.352,3.491,4.222,2.179,9.905.408,15.271-3.167,9.591-3.1,10.093,5.315,15.23,3.606,2.2,4.472,4.511,3.753,7.934-2.588,12.32-7.913,17.1-21.293,19.612a31.4,31.4,0,0,0-7.542,2.161c-2.823,1.327-3.1,3.976-2.1,6.724.216.591.87,1.007,1.214,1.57,5.137,8.415,4.575,11.113-2.32,15.279-7.051,4.26-14.08,3.757-20.836.044-4.012-2.206-7.207-5.853-11.1-8.329-3-1.911-6.883-2.069-8.243,1.871-1.67,4.837-4.563,6.2-9.03,5.1-7.665-1.891-15.667-2.8-19.384-11.877-1.929-4.714-5.371-4.122-9.083-.2-3.859,4.077-6.756,3.406-9.5.207-8.209-9.582-6.033-21.152-6.422-32.217-.081-2.307,4.065-3.982,6.35-2.647,8.563,5,15.686,12.33,25.408,15.522,1.771.581,2.375,2.455,2.189,4.8-.418,5.266.378,10.4,4.629,14.558,4.768-1.36,2.775-5.117,2.948-7.944.158-2.586.033-5.19.033-7.664,4.826-3.757,18.777-3.886,24.954-.408,6.865,3.866,10.286,11.318,17.44,17.984-.631-8.175-2.156-13.7-5.375-18.727-2.078-3.241-1.078-6.337.067-9.491,7.605-2.42,15.323-3.649,23.321-2.456,2.334.348,3.618-1.191,3.536-3.25-.038-.982-1.277-2.175-2.268-2.811-2.688-1.726-6.789-.695-8.644-3.973-2.164-3.823-.525-7.681.671-11.379a22.863,22.863,0,0,0,.524-13.59c-.817-2.825-1.13-6.62-7.716-6.419C402.232,358.013,395.75,370.3,384.4,380.669Z"/><path class="b" d="M449.252,168.7c-.893.456-1.658,1.167-2.053,1-16.231-6.85-32.376-3.42-48.793-.411-23.507,4.309-42.993,15.9-60.583,31.937-5.056-17.052-2.288-23.985,11.444-30.667,3.511-1.709,7.858-1.79,10.411-5.4,6.216-8.775,15.425-9.468,24.968-9.1,8.01.308,15.486-.538,23.112-4.09,8.83-4.112,18.46-1.151,27.062,2.072C441.383,156.506,447.842,160.507,449.252,168.7Z"/><path class="b" d="M270.723,295.622c16.552,0,33.12-.409,49.646.247,5.044.2,14.328-3.237,14.4,4.568.058,6.1-8.9,3.2-13.6,3.231-35.749.23-71.52,1-107.222-1.8-1.958-.153-3.951-.023-5.88-.326-2.075-.326-3.83-1.991-3.171-3.827.545-1.516,2.663-2.716,4.344-3.486,1.055-.483,2.593.086,3.914.184C232.316,295.828,251.612,293.856,270.723,295.622Z"/><path class="b" d="M269.262,357.586c17.278,0,34.558-.114,51.835.087,3.9.045,7.825,1.034,11.673,1.887,2.025.448,3.629,2.31,2.9,4.23a6.885,6.885,0,0,1-4.12,3.61,25.8,25.8,0,0,1-7.905.47c-18.552-.882-37.091-2.181-55.652-2.708-17.26-.491-34.542-.143-51.813-.278a54.034,54.034,0,0,1-9.853-1.012c-.9-.175-1.967-1.8-2.118-2.872-.135-.957.771-2.9,1.425-3a119.885,119.885,0,0,1,15.775-1.66c15.948-.2,31.9-.074,47.852-.074Z"/><path class="b" d="M309.9,110.094a3.179,3.179,0,0,1-2.677,3.406c-2.286.532-3.789-.833-4.168-2.987-.354-2.011.543-4.006,2.518-4.483C307.736,105.508,309.18,107.015,309.9,110.094Z"/><path class="b" d="M253.811,128.429l-12.69,19.2c-2.621-4.869,1.934-8.241,2.537-12.408.629-4.351,2.223-8.7,6.008-11.667Z"/><path class="a" d="M187.5,405.592c-2.607-1.535-3.551-3.823-2.157-6.549.773-1.511,1.758-3.673,4.323-2.1,2.08,1.273,1.759,3.207,1.523,5.121A3.692,3.692,0,0,1,187.5,405.592Z"/><path class="a" d="M384.4,380.669c11.346-10.372,17.828-22.656,13.076-38.479,6.586-.2,6.9,3.594,7.716,6.419a22.863,22.863,0,0,1-.524,13.59c-1.2,3.7-2.835,7.556-.671,11.379,1.855,3.278,5.956,2.247,8.644,3.973.991.636,2.23,1.829,2.268,2.811.082,2.059-1.2,3.6-3.536,3.25-8-1.193-15.716.036-23.321,2.456Z"/></svg>