<svg xmlns="http://www.w3.org/2000/svg" viewBox="0 0 543.348 543.348"><defs><style>.a{fill:#077ec6;}.b{fill:#fcfcfb;}</style></defs><path class="a" d="M273.954,37.024q107.994,0,215.986-.02c17.648-.012,17.862-.492,17.855,17.3q-.075,218.927-.037,437.854,0,4.995-.206,9.989c-.159,3.78-2.011,6.239-5.942,6.453-4.653.254-9.32.333-13.981.334q-215.985.024-431.971.024c-21.3,0-19.913.656-19.914-19.157q-.006-216.928,0-433.856c0-4-.058-8.005.186-11.991.226-3.692,2.12-6.355,6.06-6.549,5.983-.295,11.982-.367,17.975-.369Q166.961,37,273.954,37.024ZM171.475,119.915c-6.674,1.5-9.025,7.543-11.666,12.436-8.838,16.374-17.781,32.786-25.123,49.854-12.655,29.424-22.63,59.766-25.355,92a59.17,59.17,0,0,0-.172,7.932c.186,3.736,4.134,6.046,7.039,4.212a35.373,35.373,0,0,0,3.136-2.462c3.041-2.441,6.186-7.5,9.771-5.554,4.948,2.682,2.061,8.2.548,12.3-3.2,8.677-5.706,17.971-16.125,21.372-3.023.987-3.07,4.085-3.152,6.727-.5,16.152,3.238,31.636,7.2,47.139,4.4,17.222,14.994,31.062,24.357,45.523,6.493,10.028,13.583,19.635,22.788,27.658,33.185,28.924,71.667,42.227,115.567,41.163,40.165-.973,73.5-17.685,101.685-44.773,24.355-23.41,36.115-53.807,42.382-86.487.37-1.932.842-4.141.277-5.9-2.362-7.362-.618-14.588.594-21.725,1.618-9.535-.762-18.487-3.056-27.46a3.011,3.011,0,0,0-4.9-1.119c-2.432,2.218-4.382,4.974-6.862,7.127-2.709,2.351-7.478.425-7.337-3.052.657-16.222-4.8-31.459-7.294-47.165-.409-2.576.287-6.034-4.331-7.1-.978,9.761-2.741,18.976-2.6,28.163.163,11.019-6.291,16.929-14.114,22.392-3,2.095-6.42.642-7.283-3.411-1.66-7.794-3.249-15.625-4.347-23.512A56.146,56.146,0,0,0,351.522,239c-4.511-5.809-6.5-6.614-13.528-4.119-6.891,2.447-13.515,5.651-20.422,8.045-8.269,2.866-13.953,7.858-14.986,16.832-.687,5.966-4.044,9.531-8.966,12.3a85.709,85.709,0,0,0-9.993,6.487,6.764,6.764,0,0,0-2.781,7.022c3.35,14.232,5.811,28.89,19.74,37.711,2.221,1.406,5.67,3.177,3.877,8.406-13.536-7.706-28.47-12.838-29.379-31.7-.168-3.486-2.386-6.459-6.1-6.815A10.084,10.084,0,0,0,260,296.686a50.06,50.06,0,0,0-8.645,17.8c-2.582,9.629-5.745,19.111-8.908,28.573-2.38,7.122-6.086,13.614-13.244,16.788-11.711,5.192-19.128,13.746-23.1,25.863-1.31,4-4.968,6.6-9.539,4.605-5.8-2.525-6.958.918-7.552,5.258-.95,6.936,3.707,13.781,1.011,21.033-1.221-.508-2.213-.605-2.4-1.043-5.853-13.9-4.922-28.39-3.2-42.83.348-2.918,3.749-3.752,6.412-2.548,3.48,1.575,6.5,6.435,10.325,4.253,3.058-1.744,4.716-6.167,6.657-9.592,3.982-7.023,11.528-8.569,17.808-12.144,10.3-5.865,13.109-17.655,6.389-27.059-7.42-10.384-17.731-17.895-27.285-26.09-3.706-3.179-8.222-3.488-13.044-.966-8.774,4.588-18.126,8.067-25.433,14.331-3.434-2.341-2.637-5.19-3.181-7.64-.6-2.719-1.74-5.191-5.26-4.285-2.321.6-2.293,2.718-2.5,4.643a16.207,16.207,0,0,0,4.157,12.89c2.755,3.175,4.359,7.163,3.34,11.111-2.521,9.763,1.822,17.58,7.464,25.135-11.119,3.359-11.391,3.433-9.18,11.6,1.579,5.832,3.406,11.54,2.13,17.625a4.291,4.291,0,0,1-2.244,2.727,4.491,4.491,0,0,1-3.708-.312,21.19,21.19,0,0,1-5.651-5.455c-6.934-11.364-13.655-22.861-20.31-34.392a13.667,13.667,0,0,1-1.6-5.656,4.113,4.113,0,0,1,1.6-3.26,3.479,3.479,0,0,1,3.361.555c3.965,5.279,7.618,10.792,11.593,16.062.429.568,3.213.389,3.362-.013,2.951-8,6.9-16.4,1.808-24.506-3.86-6.146-4.495-12.264-4.087-19.026.562-9.3.62-18.635,1.4-27.912.375-4.444-.324-8.083-4.315-10.17-3.346-1.751-2.8-8.992-7.852-6.936-7.217,2.937-8.17.254-7.288-5.843,2.223-15.366,8.762-29.226,15.17-43.115.428-.929,2.07-1.493,3.259-1.822,1.207-.333,2.258.884,1.681,2.466-3.783,10.381-1.755,21.134-2.266,31.719-.274,5.68.52,10.426,7.185,12.5,2.083.648,3.561,3.755,2.994,6.82a60.443,60.443,0,0,0-1.344,9.891c-.1,6.119,8.65,15.12,14.428,13.646,10.047-2.565,21.446-3.891,25.234-16.565a72.137,72.137,0,0,1,4.842-10.942c2.783-5.651,2.884-11.026,1.084-17.289-3.557-12.372-3.044-12.519,11.241-27.332-4.807,8.894-7.412,14.859-4.739,20.444,4.117,8.6,3.095,16.67.106,25.13-5.147,14.566.424,25.774,11.62,34.979,4.622,3.8,9.289,7.556,14.1,11.1a5.683,5.683,0,0,0,7.369-.2c3.705-3.343,9.181-5.382,7.236-12.649-1.762-6.581,2.477-11.319,7.666-14.986,8.7-6.15,17.214-12.605,26.195-18.32,5.452-3.47,9.275-7.252,9.377-14.108.138-9.349,6.06-14.276,14.042-17.452,3.7-1.47,7.455-2.825,11.014-4.58,1.7-.839,3.133-2.328,2.709-4.762-1.491-8.567-12.035-16.635-20.206-14.9-7.518,1.593-14.9,3.928-22.745,1.178a188.591,188.591,0,0,1,26.255-6.6,16.994,16.994,0,0,1,16.356,5.292c6.341,6.709,11.951,14.818,23.207,12.125,9.178,9.311,21.773,15.794,24.619,30.323a170.77,170.77,0,0,0,4.4,17.353,3.491,3.491,0,0,0,4.747,2.281,10.084,10.084,0,0,0,3.259-2.027c2.562-2.539,2.735-5.887,2.845-9.253.561-17.3,1.587-34.6-.685-51.871a42.764,42.764,0,0,1-.483-7.9,3.885,3.885,0,0,1,2.2-2.731,3.788,3.788,0,0,1,3.369.754c6.235,7.055,11.4,14.638,12.856,24.337,1.876,12.5,4.108,24.953,6.322,37.4,1.159,6.515,1.552,13.87,11.881,10.8,2.625-.779,4.58,1.925,6.354,4.032,1.887,2.242,1.759,6.627,7.027,6.412,1.274-9.34-.045-18.43-1.973-27.376-11.428-53.013-34.184-100.819-69.251-142.05C341.2,90.057,317.935,73.428,289.645,64.533c-18.064-5.68-35.194-4.867-52.677,1.8-25.607,9.76-45.854,26.626-63.9,46.612-1.83,2.027-2.961,4.368-1.837,7.217Z"/><path class="b" d="M171.232,120.154c-1.124-2.845.007-5.186,1.837-7.213,18.045-19.986,38.292-36.852,63.9-46.612,17.483-6.663,34.613-7.476,52.677-1.8,28.29,8.895,51.55,25.524,70.221,47.477,35.067,41.231,57.823,89.037,69.251,142.05,1.928,8.946,3.247,18.036,1.973,27.376-5.268.215-5.14-4.17-7.027-6.412-1.774-2.107-3.729-4.811-6.354-4.032-10.329,3.067-10.722-4.288-11.881-10.8-2.214-12.449-4.446-24.9-6.322-37.4-1.454-9.7-6.621-17.282-12.856-24.337a3.788,3.788,0,0,0-3.369-.754,3.885,3.885,0,0,0-2.2,2.731,42.764,42.764,0,0,0,.483,7.9c2.272,17.267,1.246,34.57.685,51.871-.11,3.366-.283,6.714-2.845,9.253a10.084,10.084,0,0,1-3.259,2.027A3.491,3.491,0,0,1,371.4,269.2a170.77,170.77,0,0,1-4.4-17.353c-2.846-14.529-15.441-21.012-24.619-30.323-11.256,2.693-16.866-5.416-23.207-12.125a16.994,16.994,0,0,0-16.356-5.292,188.591,188.591,0,0,0-26.255,6.6c7.849,2.75,15.227.415,22.745-1.178,8.171-1.731,18.715,6.337,20.206,14.9.424,2.434-1.007,3.923-2.709,4.762-3.559,1.755-7.318,3.11-11.014,4.58-7.982,3.176-13.9,8.1-14.042,17.452-.1,6.856-3.925,10.638-9.377,14.108-8.981,5.715-17.491,12.17-26.195,18.32-5.189,3.667-9.428,8.4-7.666,14.986,1.945,7.267-3.531,9.306-7.236,12.649a5.683,5.683,0,0,1-7.369.2c-4.815-3.548-9.482-7.3-14.1-11.1-11.2-9.2-16.767-20.413-11.62-34.979,2.989-8.46,4.011-16.527-.106-25.13-2.673-5.585-.068-11.55,4.739-20.444-14.285,14.813-14.8,14.96-11.241,27.332,1.8,6.263,1.7,11.638-1.084,17.289a72.137,72.137,0,0,0-4.842,10.942c-3.788,12.674-15.187,14-25.234,16.565-5.778,1.474-14.528-7.527-14.428-13.646a60.443,60.443,0,0,1,1.344-9.891c.567-3.065-.911-6.172-2.994-6.82-6.665-2.07-7.459-6.816-7.185-12.5.511-10.585-1.517-21.338,2.266-31.719.577-1.582-.474-2.8-1.681-2.466-1.189.329-2.831.893-3.259,1.822-6.408,13.889-12.947,27.749-15.17,43.115-.882,6.1.071,8.78,7.288,5.843,5.052-2.056,4.506,5.185,7.852,6.936,3.991,2.087,4.69,5.726,4.315,10.17-.783,9.277-.841,18.613-1.4,27.912-.408,6.762.227,12.88,4.087,19.026,5.091,8.105,1.143,16.509-1.808,24.506-.149.4-2.933.581-3.362.013-3.975-5.27-7.628-10.783-11.593-16.062a3.479,3.479,0,0,0-3.361-.555,4.113,4.113,0,0,0-1.6,3.26,13.667,13.667,0,0,0,1.6,5.656c6.655,11.531,13.376,23.028,20.31,34.392a21.19,21.19,0,0,0,5.651,5.455,4.491,4.491,0,0,0,3.708.312,4.291,4.291,0,0,0,2.244-2.727c1.276-6.085-.551-11.793-2.13-17.625-2.211-8.168-1.939-8.242,9.18-11.6-5.642-7.555-9.985-15.372-7.464-25.135,1.019-3.948-.585-7.936-3.34-11.111a16.207,16.207,0,0,1-4.157-12.89c.207-1.925.179-4.046,2.5-4.643,3.52-.906,4.658,1.566,5.26,4.285.544,2.45-.253,5.3,3.181,7.64,7.307-6.264,16.659-9.743,25.433-14.331,4.822-2.522,9.338-2.213,13.044.966,9.554,8.195,19.865,15.706,27.285,26.09,6.72,9.4,3.911,21.194-6.389,27.059-6.28,3.575-13.826,5.121-17.808,12.144-1.941,3.425-3.6,7.848-6.657,9.592-3.826,2.182-6.845-2.678-10.325-4.253-2.663-1.2-6.064-.37-6.412,2.548-1.723,14.44-2.654,28.928,3.2,42.83.185.438,1.177.535,2.4,1.043,2.7-7.252-1.961-14.1-1.011-21.033.594-4.34,1.756-7.783,7.552-5.258,4.571,1.992,8.229-.605,9.539-4.605,3.968-12.117,11.385-20.671,23.1-25.863,7.158-3.174,10.864-9.666,13.244-16.788,3.163-9.462,6.326-18.944,8.908-28.573a50.06,50.06,0,0,1,8.645-17.8,10.084,10.084,0,0,1,8.983-3.528c3.717.356,5.935,3.329,6.1,6.815.909,18.866,15.843,24,29.379,31.7,1.793-5.229-1.656-7-3.877-8.406-13.929-8.821-16.39-23.479-19.74-37.711a6.764,6.764,0,0,1,2.781-7.022,85.709,85.709,0,0,1,9.993-6.487c4.922-2.767,8.279-6.332,8.966-12.3,1.033-8.974,6.717-13.966,14.986-16.832,6.907-2.394,13.531-5.6,20.422-8.045,7.026-2.5,9.017-1.69,13.528,4.119A56.146,56.146,0,0,1,363.1,266.2c1.1,7.887,2.687,15.718,4.347,23.512.863,4.053,4.282,5.506,7.283,3.411,7.823-5.463,14.277-11.373,14.114-22.392-.137-9.187,1.626-18.4,2.6-28.163,4.618,1.067,3.922,4.525,4.331,7.1,2.494,15.706,7.951,30.943,7.294,47.165-.141,3.477,4.628,5.4,7.337,3.052,2.48-2.153,4.43-4.909,6.862-7.127a3.011,3.011,0,0,1,4.9,1.119c2.294,8.973,4.674,17.925,3.056,27.46-1.212,7.137-2.956,14.363-.594,21.725.565,1.762.093,3.971-.277,5.9-6.267,32.68-18.027,63.077-42.382,86.487-28.181,27.088-61.52,43.8-101.685,44.773-43.9,1.064-82.382-12.239-115.567-41.163-9.2-8.023-16.295-17.63-22.788-27.658-9.363-14.461-19.958-28.3-24.357-45.523-3.959-15.5-7.7-30.987-7.2-47.139.082-2.642.129-5.74,3.152-6.727,10.419-3.4,12.926-12.695,16.125-21.372,1.513-4.1,4.4-9.623-.548-12.3-3.585-1.942-6.73,3.113-9.771,5.554a35.373,35.373,0,0,1-3.136,2.462c-2.9,1.834-6.853-.476-7.039-4.212a59.17,59.17,0,0,1,.172-7.932c2.725-32.239,12.7-62.581,25.355-92,7.342-17.068,16.285-33.48,25.123-49.854,2.641-4.893,4.992-10.937,11.667-12.435,3.028,2.142,1.538,4.226-.091,6.288-4.914,6.22-9.416,12.762-11.183,20.577-1.206,5.335-.221,10.513,4.654,14.084,4.582,3.357,8.737,1.093,12.785-1.2,3.147-1.777,5.276-6.256,10.007-3.588,2.461,6.893-3.987,10.6-5.867,15.954-3.571,10.159-2.909,19.636,3.211,28.307,6.093,8.634,21.394,8.588,25.2-.7,4.644-11.346,9.516-23.6,1.022-35.72l.367.4c-.255-7.075-5.473-8.149-10.9-9.316-4.677-1-8.606,3.841-13.335,1.382-2.012-3.367-.182-6.32,1.224-9.149a34.722,34.722,0,0,0,3.355-19.064c-.618-6.649-5.3-9.552-12.583-8.243C176.667,120.406,174.048,124.605,171.232,120.154Zm133.325,243c2.947-3.537,6.408-6.777,4.084-12.216A17.145,17.145,0,0,0,289.5,340.454c-7,1.311-12.95,8-13.528,15.2-.573,7.131,4.62,14.77,11.364,16.719,6.289,1.818,10.591-.311,15.579-7.708A15.872,15.872,0,0,1,304.557,363.154ZM271.655,140c-1.029.014-.849-4.091-2.83-.83l3.186.421c-.67,6.376,1.239,13.125-4.007,18.743-5.4,5.78-12.683,4.93-15.608-2.416a12.452,12.452,0,0,1,1.86-13.006c1.9-2.485,6.152-2.81,6.212-6.948-3.3-2.672-6.176-.541-9.07.833-2.7,1.281-4.124,5.515-8.227,3.506-3.855-2.521-1.92-5.518-.8-8.551,2.618-7.066,3.138-14.289.429-21.4-1.52-3.992-4.525-6.467-9.215-5.9-.658.08-1.75.029-1.88.348a5.179,5.179,0,0,0-.313,2.674c6.621,2.2,6.984,7.368,5.961,12.9-.974,5.271-2.907,10.273-7.112,13.895a11.377,11.377,0,0,1-11.09,2.641c-4.215-1.288-6.019-4.722-7.115-8.776-1.047-3.876,1.806-8.583-1.867-12.691-4.485,4.95-5.771,10.03-6.219,15.257-1.23,14.344,9.966,22.387,23.323,16.529,4.153-1.821,7.76-4.981,11.43-7.775,2-1.524,3.32-.951,4.737.576a4.641,4.641,0,0,1,.2,5.342c-4.151,7.568-.661,14.074,3.763,19.651,4.2,5.29,10.329,8.3,17.379,6.108,6.074-1.891,9.325-6.776,11.064-12.75C277.864,151.455,275.52,145.558,271.655,140ZM387.437,363.925c.955.788,2.856,2,2.722,2.3-1.875,4.134-4.229,8.053-6.059,12.2-2.109,4.786-4.03,9.643-2.966,15.172.94,4.888,6.624,7.676,10.458,4.706,8.238-6.382,12.8-14.749,12.957-25.279.066-4.255-2.887-6.909-7.423-7.287-3.32-.277-7.492,4.293-9.863-1.644-2.261-5.526,1.468-10.2,2.175-15.3,1.442-10.42-4.874-20.12-13.6-21.019-10.429-1.074-20.667,5.547-25.008,16.173-4.582,11.216-2.265,21.086,6.847,29.148.128-1.239.817-2.824.3-3.666-6.811-11.049-1.7-20.362,4.209-29.49a10.338,10.338,0,0,1,10.376-4.633c4.512.525,6.575,3.97,8.23,7.8a13.149,13.149,0,0,1-1.149,13.294,130.964,130.964,0,0,1-8.782,10.787c-1.285,1.5-2.973,2.668-4.182,4.218-.57.732-.868,2.72-.554,2.908a6.322,6.322,0,0,0,3.688.931C377.516,374.383,379.551,364.609,387.437,363.925ZM343.1,404.5c-1.491-5.928,5.086-6.975,6.714-11.071,1.586-3.992,1.784-7.809-1.027-11.185-3.385-4.063-11.361-5.28-16.528-2.544-4.638,2.455-6,6.778-5.865,11.738.148,5.348,2.976,8.233,8.018,9.876,2.983.972,6.755-.317,8.977,2.917.641,5.218-4.274,5.93-6.957,8.321a40.931,40.931,0,0,0-12.857,21.972c-1.979,8.7,4.86,15.995,13.577,15.107,14.146-1.441,30.945-15.364,35.127-29.115,2.61-8.581-2.617-15.757-11.683-16.743C354.665,403.128,349.02,406.914,343.1,404.5Zm-83.7-308.187c-5.536-4.9,1.446-7.719,2.062-11.6.852-5.365.089-7.785-5.7-10.987a4.818,4.818,0,0,0-3.745-.154c-.5.212-.758,2.43-.284,3.255,2.018,3.508,1.32,6.344-1.842,8.475-3.986,2.687-8.391,3.909-12.961,1.62-.841-.422-1.474-2.389-1.292-3.492a56.212,56.212,0,0,1,2.232-7.4c-2.125.788-4.137,1.123-5.651,2.176-4.076,2.833-6.293,6.764-5.207,11.873.847,3.984,5.174,6.571,10.923,6.876a38.41,38.41,0,0,0,17.332-3.208c2.533-1.082,3.282.869,4.3,2.409,2.655,3.846-.109,7.638-.21,11.446-.2,7.574,3.732,12.645,9.686,16.145,10.967,6.446,24.391,2.115,30.435-9.418,1.779-3.393.392-8.114,5.079-11.022,5.191,1.237,9.628,6.389,15.91,5.781,3.345-.323,6.573-.862,8.421-4.223a8.979,8.979,0,0,0-.181-9.407c-3.136-5.388-8.253-8.371-13.623-11a2.046,2.046,0,0,0-1.685.179c-1.418.9-1.148,1.893-.252,3.358,1.486,2.43,5.642,4.8,1.826,7.991-2.176,1.819-5.153.208-7.3-1.282-3.69-2.557-7.161-5.432-12.615-9.628,1.068,8.859-3.7,14.538-3.34,22.044.287,6.022-5.023,10.11-10.073,10.494a14.253,14.253,0,0,1-14-8.932,13.519,13.519,0,0,1-.576-5.867C267.756,96.646,261.619,98.838,259.394,96.312Zm48.487,308.312c.526-6.6-2.837-12.389-9.681-16.648-10.56-6.572-20.283-3.367-29.762,2.174-8.325,4.866-11.124,11.984-9.8,21.857,1.151,8.55,7.2,12.4,14.207,14.741a31.387,31.387,0,0,0,19.482-.126C302.091,423.549,307.5,416.3,307.881,404.624ZM280.289,464.3c4.936.351,7.555.656,10.177.685a19.652,19.652,0,0,0,5.933-.558,30.038,30.038,0,0,0,7.143-3.236,7.124,7.124,0,0,0,.605-11.76c-3.215-2.438-6.64-4.655-10.755-4.835q-14.914-.649-29.849-.793c-1.9-.019-3.874.867-5.7,1.607-3.441,1.391-4.651,7.064-2.38,10.284,2.9,4.107,7.195,5.512,11.828,6.371.866-10.042,1.552-10.952,8.6-11.3,1.328-.066,2.662-.043,3.993-.045,8.83-.01,13.955,2.123,13.02,5.46C291.325,461.782,284.966,459.429,280.289,464.3Zm-45.261-19.844c1.962-.041,4.823-1.64,6.6-4.694,2.29-3.943,1.264-7.721-1.442-11.063a26.57,26.57,0,0,0-20.7-10.377,8.235,8.235,0,0,0-8.579,8.779C211.363,437.665,220.842,445.01,235.028,444.459ZM340.463,315.424c7.727.254,15-6.048,14.654-12.7-.426-8.221-6.99-15.146-14.789-15.6a12.14,12.14,0,0,0-12.952,11.8C326.921,307.91,332.677,315.169,340.463,315.424ZM324.008,119.878c-2.509,4.877,3.987,12.605-2.281,14.266-7.222,1.913-8.614-5.794-9.692-11.542-.311-1.663-.849-2.507-2.718-2.345-3.638,3.917-2.061,8.435-.724,12.6a15.353,15.353,0,0,0,7.466,8.862c5.247,2.9,13.173.241,14.506-5.565C332.1,129.491,331.741,123.129,324.008,119.878Z"/><path class="a" d="M259.4,96.312c2.224,2.526,8.361.334,7.664,6.5a13.519,13.519,0,0,0,.576,5.867,14.253,14.253,0,0,0,14,8.932c5.05-.384,10.36-4.472,10.073-10.494-.359-7.506,4.408-13.185,3.34-22.044,5.454,4.2,8.925,7.071,12.615,9.628,2.15,1.49,5.127,3.1,7.3,1.282,3.816-3.189-.34-5.561-1.826-7.991-.9-1.465-1.166-2.461.252-3.358a2.046,2.046,0,0,1,1.685-.179c5.37,2.628,10.487,5.611,13.623,11a8.979,8.979,0,0,1,.181,9.407c-1.848,3.361-5.076,3.9-8.421,4.223-6.282.608-10.719-4.544-15.91-5.781-4.687,2.908-3.3,7.629-5.079,11.022-6.044,11.533-19.468,15.864-30.435,9.418-5.954-3.5-9.886-8.571-9.686-16.145.1-3.808,2.865-7.6.21-11.446Z"/><path class="a" d="M343.09,404.512c5.93,2.4,11.575-1.384,17.505-.74,9.066.986,14.293,8.162,11.683,16.743-4.182,13.751-20.981,27.674-35.127,29.115-8.717.888-15.556-6.406-13.577-15.107a40.931,40.931,0,0,1,12.857-21.972c2.683-2.391,7.6-3.1,6.957-8.321Zm-7.156,39.643c11.913-.789,19.206-8.037,24.588-17.826,1.593-2.9,3.17-6.21.411-9.123-2.4-2.539-5.842-3.11-9.258-2.553-10.641,1.738-19.829,11.559-21.85,23.2C329.263,441.1,332.377,444.3,335.934,444.155Z"/><path class="a" d="M243.441,140.033c-1.414-1.528-2.731-2.1-4.734-.577-3.67,2.794-7.277,5.954-11.43,7.775-13.357,5.858-24.553-2.185-23.323-16.529.448-5.227,1.734-10.307,6.219-15.257,3.673,4.108.82,8.815,1.867,12.691,1.1,4.054,2.9,7.488,7.115,8.776a11.377,11.377,0,0,0,11.09-2.641c4.2-3.622,6.138-8.624,7.112-13.895,1.023-5.532.66-10.7-5.961-12.9a5.179,5.179,0,0,1,.313-2.674c.13-.319,1.222-.268,1.88-.348,4.69-.566,7.695,1.909,9.215,5.9,2.709,7.111,2.189,14.334-.429,21.4-1.124,3.033-3.059,6.03.8,8.551Z"/><path class="a" d="M387.435,363.924c-7.884.685-9.919,10.459-17.621,11.329a6.322,6.322,0,0,1-3.688-.931c-.314-.188-.016-2.176.554-2.908,1.209-1.55,2.9-2.717,4.182-4.218a130.964,130.964,0,0,0,8.782-10.787,13.149,13.149,0,0,0,1.149-13.294c-1.655-3.832-3.718-7.277-8.23-7.8a10.338,10.338,0,0,0-10.376,4.633c-5.91,9.128-11.02,18.441-4.209,29.49.518.842-.171,2.427-.3,3.666-9.109-8.062-11.426-17.932-6.844-29.148,4.341-10.626,14.579-17.247,25.008-16.173,8.724.9,15.04,10.6,13.6,21.019-.707,5.1-4.436,9.771-2.175,15.3Z"/><path class="a" d="M307.881,404.624c-.38,11.678-5.79,18.925-15.55,22a31.387,31.387,0,0,1-19.482.126c-7.01-2.338-13.056-6.191-14.207-14.741-1.328-9.873,1.471-16.991,9.8-21.857,9.479-5.541,19.2-8.746,29.762-2.174C305.044,392.235,308.407,398.029,307.881,404.624Zm-26.144,19.629c1.081-.088,2.4-.134,3.695-.312,7.487-1.027,12.828-6.446,14.075-14.236,1.053-6.581-2.43-12.384-9.356-15.585-6.558-3.03-13.075-2.079-17.919,3.372a37.707,37.707,0,0,0-6.087,9.934c-2.56,5.869-.925,9.776,4.276,13.556C273.816,423.449,277.5,424.234,281.737,424.253Z"/><path class="a" d="M211.211,163.919c8.494,12.122,3.622,24.374-1.022,35.72-3.8,9.292-19.1,9.338-25.2.7-6.12-8.671-6.782-18.148-3.211-28.307,1.88-5.35,8.328-9.061,5.867-15.954l-.309.3C192.068,158.842,196,154,200.674,155c5.431,1.167,10.649,2.241,10.9,9.316-1.232-.38-2.7-.456-3.655-1.2-3.263-2.552-6.68-4.528-10.843-2.7a14.4,14.4,0,0,0-8.559,10.263c-1.665,7.173-2.446,14.365,1.5,21.157,1.77,3.048,4.329,4.914,8.025,4.625a7.179,7.179,0,0,0,6.3-4.095C208.59,183.371,212.152,174.18,211.211,163.919Z"/><path class="a" d="M280.289,464.3c4.677-4.874,11.036-2.521,12.606-8.123.935-3.337-4.19-5.47-13.02-5.46-1.331,0-2.665-.021-3.993.045-7.043.351-7.729,1.261-8.6,11.3-4.633-.859-8.931-2.264-11.828-6.371-2.271-3.22-1.061-8.893,2.38-10.284,1.83-.74,3.8-1.626,5.7-1.607q14.928.148,29.849.793c4.115.18,7.54,2.4,10.755,4.835a7.124,7.124,0,0,1-.605,11.76,30.038,30.038,0,0,1-7.143,3.236,19.652,19.652,0,0,1-5.933.558C287.844,464.959,285.225,464.654,280.289,464.3Z"/><path class="a" d="M187.648,156.082c-4.731-2.668-6.86,1.811-10.007,3.588-4.048,2.288-8.2,4.552-12.785,1.2-4.875-3.571-5.86-8.749-4.654-14.084,1.767-7.815,6.269-14.357,11.183-20.577,1.629-2.062,3.119-4.146.091-6.288l-.244.24c2.816,4.449,5.435.25,8.1-.229,7.279-1.309,11.965,1.594,12.583,8.243a34.722,34.722,0,0,1-3.355,19.064c-1.406,2.829-3.236,5.782-1.224,9.149Zm-14.333-3.24c7.171-7.686,12.556-14.268,12.144-24.127a4.111,4.111,0,0,0-2.255-2.8,3.959,3.959,0,0,0-3.413.461C171.97,132.71,169.08,140.584,173.315,152.842Z"/><path class="a" d="M271.675,139.981c3.845,5.577,6.189,11.474,4.173,18.4-1.739,5.974-4.99,10.859-11.064,12.75-7.05,2.194-13.183-.818-17.379-6.108-4.424-5.577-7.914-12.083-3.763-19.651a4.638,4.638,0,0,0-.2-5.342l-.27.274c4.1,2.009,5.529-2.225,8.226-3.506,2.894-1.374,5.769-3.505,9.07-.833-.06,4.138-4.317,4.463-6.212,6.948a12.452,12.452,0,0,0-1.86,13.006c2.925,7.346,10.21,8.2,15.608,2.416,5.246-5.618,3.337-12.367,4.007-18.743Z"/><path class="a" d="M387.263,364.1c2.371,5.937,6.543,1.367,9.863,1.644,4.536.378,7.489,3.032,7.423,7.287-.161,10.53-4.719,18.9-12.957,25.279-3.834,2.97-9.518.182-10.458-4.706-1.064-5.529.857-10.386,2.966-15.172,1.83-4.152,4.184-8.071,6.059-12.2.134-.3-1.767-1.511-2.723-2.3Z"/><path class="a" d="M302.919,364.669c-4.988,7.4-9.29,9.526-15.579,7.708-6.744-1.949-11.937-9.588-11.364-16.719.578-7.2,6.531-13.893,13.528-15.2a17.145,17.145,0,0,1,19.137,10.484c2.324,5.439-1.137,8.679-4.089,12.22a17.49,17.49,0,0,0-8.118-12.719c-2.873-1.906-6.018-2.525-9.088-.47-4.144,2.773-5.78,8.78-3.568,13.938,1.93,4.5,5.893,4.469,9.885,3.5C296.784,366.639,299.836,365.591,302.919,364.669Z"/><path class="a" d="M259.557,96.149c-1.018-1.54-1.767-3.491-4.3-2.409a38.41,38.41,0,0,1-17.332,3.208c-5.749-.3-10.076-2.892-10.923-6.876-1.086-5.109,1.131-9.04,5.207-11.873,1.514-1.053,3.526-1.388,5.651-2.176a56.212,56.212,0,0,0-2.232,7.4c-.182,1.1.451,3.07,1.292,3.492,4.57,2.289,8.975,1.067,12.961-1.62,3.162-2.131,3.86-4.967,1.842-8.475-.474-.825-.216-3.043.284-3.255a4.818,4.818,0,0,1,3.745.154c5.793,3.2,6.556,5.622,5.7,10.987-.616,3.884-7.6,6.7-2.061,11.6Z"/><path class="a" d="M235.028,444.459c-14.186.551-23.665-6.794-24.121-17.355a8.235,8.235,0,0,1,8.579-8.779,26.57,26.57,0,0,1,20.7,10.377c2.706,3.342,3.732,7.12,1.442,11.063C239.851,442.819,236.99,444.418,235.028,444.459Zm-13-19.2c-2.86.022-6.163,4.119-5.366,6.656,1.928,6.136,8.706,9.74,15.424,7.982a3.736,3.736,0,0,0,2.281-2.509C235,431.937,228.032,425.216,222.025,425.261Z"/><path class="a" d="M340.463,315.424c-7.786-.255-13.542-7.514-13.087-16.5a12.14,12.14,0,0,1,12.952-11.8c7.8.457,14.363,7.382,14.789,15.6C355.462,309.376,348.19,315.678,340.463,315.424Zm-2.342-19.271c-2.8.413-4.15,2.793-4.305,5.43-.265,4.5,4.434,7.913,9.577,7.38,3-.311,6.857-4.32,6.234-6.474C348.557,298.794,343.1,295.671,338.121,296.153Z"/><path class="a" d="M343.388,404.23c-2.222-3.234-5.994-1.945-8.977-2.917-5.042-1.643-7.87-4.528-8.018-9.876-.136-4.96,1.227-9.283,5.865-11.738,5.167-2.736,13.143-1.519,16.528,2.544,2.811,3.376,2.613,7.193,1.027,11.185-1.628,4.1-8.2,5.143-6.719,11.078C343.09,404.512,343.388,404.23,343.388,404.23ZM331.9,393.336c.609,3.087,3.373,3.732,5.7,3.524,3.142-.28,6.234-1.633,6.079-5.736-.118-3.111-3.764-5.775-6.7-4.747C333.884,387.46,331.346,389.279,331.9,393.336Z"/><path class="a" d="M324.008,119.878c7.733,3.251,8.087,9.613,6.557,16.275-1.333,5.806-9.259,8.46-14.506,5.565a15.353,15.353,0,0,1-7.466-8.862c-1.337-4.164-2.914-8.682.724-12.6,1.869-.162,2.407.682,2.718,2.345,1.078,5.748,2.47,13.455,9.692,11.542C328,132.483,321.5,124.755,324.008,119.878Z"/><path class="a" d="M272.011,139.594l-3.186-.421c1.981-3.261,1.8.844,2.84.819Z"/><path class="b" d="M335.934,444.155c-3.557.145-6.671-3.059-6.109-6.3,2.021-11.645,11.209-21.466,21.85-23.2,3.416-.557,6.853.014,9.258,2.553,2.759,2.913,1.182,6.227-.411,9.123C355.14,436.118,347.847,443.366,335.934,444.155Z"/><path class="b" d="M281.737,424.253c-4.237-.019-7.921-.8-11.316-3.271-5.2-3.78-6.836-7.687-4.276-13.556a37.707,37.707,0,0,1,6.087-9.934c4.844-5.451,11.361-6.4,17.919-3.372,6.926,3.2,10.409,9,9.356,15.585-1.247,7.79-6.588,13.209-14.075,14.236C284.134,424.119,282.818,424.165,281.737,424.253Z"/><path class="b" d="M211.211,163.919c.941,10.261-2.621,19.452-6.868,28.449a7.179,7.179,0,0,1-6.3,4.095c-3.7.289-6.255-1.577-8.025-4.625-3.946-6.792-3.165-13.984-1.5-21.157a14.4,14.4,0,0,1,8.559-10.263c4.163-1.827,7.58.149,10.843,2.7.951.742,2.423.818,3.655,1.2Z"/><path class="b" d="M173.315,152.842c-4.235-12.258-1.345-20.132,6.476-26.47a3.959,3.959,0,0,1,3.413-.461,4.111,4.111,0,0,1,2.255,2.8C185.871,138.574,180.486,145.156,173.315,152.842Z"/><path class="b" d="M302.919,364.669c-3.083.922-6.135,1.97-9.256,2.733-3.992.974-7.955,1.006-9.885-3.5-2.212-5.158-.576-11.165,3.568-13.938,3.07-2.055,6.215-1.436,9.088.47a17.49,17.49,0,0,1,8.118,12.719A15.85,15.85,0,0,0,302.919,364.669Z"/><path class="b" d="M222.025,425.261c6.007-.045,12.978,6.676,12.339,12.129a3.736,3.736,0,0,1-2.281,2.509c-6.718,1.758-13.5-1.846-15.424-7.982C215.862,429.38,219.165,425.283,222.025,425.261Z"/><path class="b" d="M338.121,296.153c4.974-.482,10.436,2.641,11.506,6.336.623,2.154-3.238,6.163-6.234,6.474-5.143.533-9.842-2.876-9.577-7.38C333.971,298.946,335.321,296.566,338.121,296.153Z"/><path class="b" d="M331.9,393.336c-.555-4.057,1.983-5.876,5.076-6.959,2.937-1.028,6.583,1.636,6.7,4.747.155,4.1-2.937,5.456-6.079,5.736C335.274,397.068,332.51,396.423,331.9,393.336Z"/></svg>