<svg xmlns="http://www.w3.org/2000/svg" viewBox="0 0 543.348 543.348"><defs><style>.a{fill:#df271f;}.b{fill:#fcfcfb;}</style></defs><path class="a" d="M284.144,507.183c0-2.043-.643-4.272.1-5.842,5.556-11.7,4.144-23.143-.123-34.856-5.243-14.394-9.281-29.14-10.042-44.9-5.565,1.211-3.944,6.146-5.083,9.1-3.1,8.038-4.451,16.807-7.968,24.623-7.4,16.437-10.478,32.88-3.275,49.223-3.055,5.481-7.388,4.253-11.046,4.258q-97.963.129-195.929.053a76.4,76.4,0,0,1-7.983-.254c-3.693-.387-6.159-2.479-6.485-6.259-.343-3.971-.344-7.978-.344-11.969q-.023-217.863-.012-435.727c0-2.665-.07-5.334.033-7.995C36.384,36.46,37.23,35.646,47.9,35.277c3.328-.114,6.663-.033,9.995-.033q213.924,0,427.846.013c23.906,0,22.239-2.235,22.239,22.929q0,213.867,0,427.733c0,25.177,1.657,22.9-22.248,22.918q-90.968.063-181.935-.051C297.271,508.775,290.545,510.109,284.144,507.183Zm-80.668-326.4c10.593-6.769,18.428-5.87,26.263-4.642,4,.627,8.343,1.585,11.632-.909a40.867,40.867,0,0,0,13.39-17.082c2.357-5.779-1.286-10.437-4.253-14.678-4.412-6.307-3.7-12.157-.8-18.745,4.549-10.345,8.478-20.962,12.7-31.454,2.706-6.732,1.869-12.359-3.3-18.073-16.648-18.408-38.048-27.4-61.9-28.4-49.783-2.092-81.882,24.036-100.927,67.257-14.713,33.389-10.475,67.569,7.038,99.789a163.677,163.677,0,0,0,21.42,31.125c15.209,17.086,27.469,35.976,30.048,59.6a23.546,23.546,0,0,0,1.663,5.707c2.7,7.031,5.927,8.408,13.946,6.074,11.525-3.355,16.378-1.146,19.819,9.069a36.2,36.2,0,0,1,.978,3.872c3.13,14.4,5.022,28.72.936,43.389-3.8,13.652-2.516,27.779-2.234,41.735a21.979,21.979,0,0,0,2.782,9.425c1.862,3.51,4.575,6.588,9.255,6.416,4.535-.167,7.362-3,9.292-6.589,3.907-7.255,4.837-15.2,3.892-23.249-1.084-9.246-2.484-18.464-4.05-27.642-1.476-8.659-1.586-17.223.684-25.731,1.426-5.342,5.241-7.533,10.467-6.54,7.5,1.425,13.473,5.423,18.868,10.575,4.8,4.587,9.6,9.192,14.592,13.567,8.174,7.159,16.943,6.728,25.819,1.392,2.842-1.708,5.463-3.787,8.169-5.719,23.784-16.982,46.9-35.019,71.531-50.661,25.049-15.906,45.975-36.06,66.348-57.084,7.9-8.148,14.868-17.161,18.99-27.834,13.419-34.742,20.3-69.649,8.941-106.986C439.4,64.883,394.162,41.5,351,48.878c-23.828,4.07-43.53,15.738-61.759,30.625a20.45,20.45,0,0,0-5.794,7.868c-3.942,9.794-9.619,18.941-11.143,29.665-2.8,19.717-10.742,24.169,14.5,39.633,4.875,2.987,7.217,6.837,7.114,13.058-.187,11.291-.1,22.735,1.543,33.868,1.863,12.608-3.037,22-10.884,30.69a159.372,159.372,0,0,1-12.444,12.866c-10.765,9.511-15.867,20.854-12.929,35.328.181.891-1.155,2.09-2.43,4.227-2.662-7.514-1.762-14.468-2.275-21.328-.642-8.594,2.027-15.21,7.674-21.55A120.566,120.566,0,0,0,276.22,224.51c9.543-16.365,6.516-33.391.881-50.077-1.949-5.769-10.536-7.254-15.173-3.183a52.9,52.9,0,0,0-8.025,8.829c-4.455,6.209-10.189,7.884-17.467,6.461C226.679,184.63,216.848,183.1,203.476,180.785Z"/><path class="b" d="M203.476,180.785c13.372,2.312,23.2,3.845,32.96,5.755,7.278,1.423,13.012-.252,17.467-6.461a52.9,52.9,0,0,1,8.025-8.829c4.637-4.071,13.224-2.586,15.173,3.183,5.635,16.686,8.662,33.712-.881,50.077a120.566,120.566,0,0,1-14.042,19.318c-5.647,6.34-8.316,12.956-7.674,21.55.513,6.86-.387,13.814,2.275,21.328,1.275-2.137,2.611-3.336,2.43-4.227-2.938-14.474,2.164-25.817,12.929-35.328a159.372,159.372,0,0,0,12.444-12.866c7.847-8.689,12.747-18.082,10.884-30.69-1.645-11.133-1.73-22.577-1.543-33.868.1-6.221-2.239-10.071-7.114-13.058-25.246-15.464-17.305-19.916-14.5-39.633,1.524-10.724,7.2-19.871,11.143-29.665a20.45,20.45,0,0,1,5.794-7.868C307.471,64.616,327.173,52.948,351,48.878c43.161-7.374,88.4,16,104.477,68.876,11.354,37.337,4.478,72.244-8.941,106.986-4.122,10.673-11.094,19.686-18.99,27.834-20.373,21.024-41.3,41.178-66.348,57.084-24.634,15.642-47.747,33.679-71.531,50.661-2.706,1.932-5.327,4.011-8.169,5.719-8.876,5.336-17.645,5.767-25.819-1.392-4.994-4.375-9.789-8.98-14.592-13.567-5.395-5.152-11.368-9.15-18.868-10.575-5.226-.993-9.041,1.2-10.467,6.54-2.27,8.508-2.16,17.072-.684,25.731,1.566,9.178,2.966,18.4,4.05,27.642.945,8.052.015,15.994-3.892,23.249-1.93,3.586-4.757,6.422-9.292,6.589-4.68.172-7.393-2.906-9.255-6.416a21.979,21.979,0,0,1-2.782-9.425c-.282-13.956-1.568-28.083,2.234-41.735,4.086-14.669,2.194-28.991-.936-43.389a36.2,36.2,0,0,0-.978-3.872c-3.441-10.215-8.294-12.424-19.819-9.069-8.019,2.334-11.25.957-13.946-6.074a23.546,23.546,0,0,1-1.663-5.707c-2.579-23.623-14.839-42.513-30.048-59.6a163.677,163.677,0,0,1-21.42-31.125c-17.513-32.22-21.751-66.4-7.038-99.789C115.329,70.834,147.428,44.706,197.211,46.8c23.848,1,45.248,10,61.9,28.4,5.167,5.714,6,11.341,3.3,18.073-4.218,10.492-8.147,21.109-12.7,31.454-2.9,6.588-3.613,12.438.8,18.745,2.967,4.241,6.61,8.9,4.253,14.678a40.867,40.867,0,0,1-13.39,17.082c-3.289,2.494-7.634,1.536-11.632.909C221.9,174.915,214.069,174.016,203.476,180.785Z"/></svg>