<svg xmlns="http://www.w3.org/2000/svg" viewBox="0 0 543.348 543.348"><defs><style>.a{fill:#1f1e15;}.b{fill:#fcfcfb;}</style></defs><path class="a" d="M499.286,270.042c7.82,12.452,7.846,12.452,7.853,28.5.009,17.981.156,35.965-.138,53.942-.15,9.211-6.6,12.7-14.9,8.765-3.125-1.484-5.7-3.453-7.165-6.592A75.674,75.674,0,0,1,482,347.273c-6.906-20.065-6.894-20.069-27.842-19.642-17.665.361-25.2-5.6-29.119-23.2-.531-2.387-.544-4.889-.966-8.986-9.159,5.345-17.333,9.593-24.958,14.664-23.653,15.733-50.158,23.877-77.468,30.173-13.665,3.15-27.27,5.939-41.393,3.663a27.816,27.816,0,0,0-5.985.055c-35.6,2.1-68-9.5-99.969-23.127a134,134,0,0,1-27.43-16.175c-12.8-9.521-23.722-21.375-37.628-29.563a8.012,8.012,0,0,1-.181-13.558c19.968-13.339,36.765-30.617,56.227-44.539,2.684-1.92,5.641-3.957,8.765-4.682,16.244-3.771,30.582-12.475,46.33-17.482,6.427-2.044,8.75-4.355,7.125-9.586-3.672-11.821.222-22.093,4.252-32.84,3.96-10.561,1.148-17.539-7.452-24.638-3.91-3.228-8.392-3.506-13.037-4.08-6.589-.813-13.218-1.722-19.107-5.228-9.11-5.424-11.527-11.572-8.355-21.835.98-3.172,2.283-6.248,3.513-9.338a16.1,16.1,0,0,0-1.271-15.314c-3.24-5.012-7.289-9.254-14.232-8.71,4.353,17.177,4.45,17.238-6.447,34.573-2.562,4.077-4.391,8.182-4.512,12.975-.183,7.28,2.391,13.148,9.4,16.07,5.5,2.3,11.336,3.8,16.866,6.046,12.651,5.134,16.494,15.155,10.648,27.266a31.983,31.983,0,0,1-3,5.161c-6.589,8.9-10.814,18.286-7.169,29.694.28.878-.938,3.175-1.59,3.229-1.771.146-4.283.066-5.311-1.035-4.611-4.943-7.82-10.654-7.961-17.748-.078-3.968-.106-8.056-1.067-11.861-1.932-7.655-6.733-13.01-14.745-14.6-5.213-1.032-10.623-1.114-15.8-2.263-14.975-3.321-21.662-10.51-24.239-25.42-.788-4.558-.946-9.331-2.447-13.638-3.067-8.8-8.253-11.362-20.521-11.086a46.67,46.67,0,0,0,3.253,4.793c7.167,8.167,9.831,17.55,5.964,27.76-5.487,14.49-.922,22.868,14.264,33.065,4.4,2.954,9.6,4.8,13.726,8.053,10.27,8.11,13.917,19,11.547,31.835-.963,5.216-4.925,6.965-8.366,3.062-8.458-9.595-18.813-11.776-30.743-9.82a41.984,41.984,0,0,1-5.974.471c-9.286.179-17-2.548-21.455-11.5a23.169,23.169,0,0,0-4.317-6.641c-5.483-5.166-11.515-9.1-20.792-4.664,9.379,6.39,13.2,14.935,14.439,25.435,1.229,10.42,7.979,15.711,19.029,16.632,4.609.384,9.318-.525,13.944-.239,13.362.826,19.12,6.517,20.516,19.746.786,7.451-2.318,9.986-8.979,7.267a38.645,38.645,0,0,1-3.441-1.96c-11.373-6.093-21.372-5.155-30.445,4.855a54.276,54.276,0,0,1-14.03,11.009c-12.314,6.7-24.6.218-26.627-13.63a69.585,69.585,0,0,1-.277-9.973q-.019-92.905.041-185.81c.006-4.5-1.008-9.238,1.735-13.42,5.072-2.635,10.5-1.521,15.737-1.523q218.835-.1,437.669-.048c3.33,0,6.661.1,9.99.078,5.16-.028,6.8,2.992,6.765,7.589-.027,4,.05,7.991.05,11.987q.006,98.9-.021,197.8c0,5.307.255,10.721-.69,15.888-.88,4.814-4.508,3.351-7.6,1.751-6.261-4.295-12.577-3.195-18.806-.1-4.149,2.063-8.167,4.395-12.214,6.659-6.706,3.752-13.315,2.776-18.344-2.329-6.735-6.838-13.541-12.268-23.81-12.327-3.033-.017-3.19-3.715-2.112-6.374a15.789,15.789,0,0,1,11.666-9.9,88.448,88.448,0,0,1,11.811-1.256c13.669-1.122,18.743-6.5,18.759-20.182,0-2.642-.686-5.278-.778-7.926-.545-15.553,2.622-20.09,17.116-24.725,2.731-.873,6.747.918,7.842-4.542-7.429,0-14.687-.082-21.941.024-7.335.106-12.493,2.9-14.741,10.649a82.061,82.061,0,0,1-7.105,16.413,15.806,15.806,0,0,1-14.683,8.66c-3.979-.047-7.954-.46-11.935-.536-8.437-.161-15.41,3.2-21.426,8.965-5.855,5.609-6.222,9.722.095,14.712,11.417,9.018,23.192,17.588,34.923,26.2,6.334,4.65,7.126,8.376,2.043,14.765-1.593,2-4.228,3.175-6.338,4.692a27.669,27.669,0,0,0,2.45,2.6c19.349,13.645,27.448,12.732,41.145-5.979C479.4,279.19,487.167,271.707,499.286,270.042ZM234.332,275.12c-.365-1.239-.46-2.656-1.139-3.689-4.176-6.366-10.918-7.965-13.873-3.412-2.213,3.41-2.259,11.955.177,12.9,3.349,1.307,6.17-.69,8.911-2.4,2.148-1.34,4.317-2.647,6.477-3.968-.863,16.924,1.312,18.607,17.483,13.562,2.521-.787,5.193-1.223,7.568-2.314,3.451-1.589,5.655-6.8,4.574-9.894-2.2-6.3-6.226-8.879-11.891-7.13C246.473,270.678,240.446,272.965,234.332,275.12Zm71.014,48.732c-3.924-1.018-7.577-.612-10.59,2.323-.87.847-1.936,2.056-1.908,3.071.02.725,1.626,1.784,2.682,2.037,4.051.967,7.527.2,9.444-4.025,3.316,0,6.893.819,9.9-.139,22.7-7.225,45.712-13.835,66.3-26.3a204.154,204.154,0,0,0,22.851-15.86c5.9-4.783,5.447-9.912-.672-14.994-13.4-11.126-28.932-18.656-44.742-25.6-2.311-1.015-5.214-.832-7.853-.917-3.214-.1-5.56,2.023-4.267,4.81,7.884,16.986-1.088,30.7-8.155,44.824C331.169,307.418,318.394,315.791,305.346,323.852Zm-6.717-126.745c.921.679,1.765,1.73,2.815,2.012,24.327,6.515,48.617,13.072,68.99,29.014a21.719,21.719,0,0,0,5.292,2.695c4.158,1.684,8.514.165,9.11-4.4,1.288-9.872,7.332-15.194,15.557-19.032a68.675,68.675,0,0,1,9.108-3.985c8.855-2.649,12.06-9.434,14.272-17.573,2.778-10.224.854-20.144-2.8-29.273-3.847-9.6-1.613-16.548,4.848-23.47,3.457-3.7,8.642-6.041,9.8-11.875-6.331-1.31-11.912,1.664-17.176,3.829-13.8,5.678-17.976,13.13-15.49,28.212a53.5,53.5,0,0,1-.688,21.582c-1.923,8.085-7.728,13.943-15.214,13.6-14.358-.663-24.122,5.028-31.53,16.5a5.993,5.993,0,0,1-2.947,2.533c-1.789.5-4.26,1.055-5.526.212-1.286-.856-2.235-3.49-1.993-5.151a43.074,43.074,0,0,1,8.646-19.844c9.163-12.075,8.233-24.737,2.692-37.7-2.6-6.086-6.252-11.761-8.479-17.963-4.33-12.058-4.048-23.381,7.074-32.356a75.382,75.382,0,0,0,11.386-11.092c4.62-5.724,5.532-12.076,1.1-19.292-5.081,5.563-6.122,12.951-12.6,16.11-4.763,2.322-9.388,4.925-14.109,7.336-18.057,9.223-22.532,19.265-17.3,39.023.337,1.276,1.08,2.443,1.441,3.716,4.749,16.744,1.918,31.609-11.3,43.644C306.6,180.5,301.4,187.933,298.629,197.107Zm-18.2-141.593a57.874,57.874,0,0,0-2.3-6.852c-.769-1.781-2.38-3.437-4.658-2.609-.914.332-2.113,1.839-2.02,2.684,1.188,10.74-5.193,17.2-12.589,23.309a67.2,67.2,0,0,0-9.986,9.7c-7.784,9.8-8.393,18.77-1.927,29.454,2.371,3.919,5.769,7.229,8.783,10.743,11.141,12.99,10.862,23.487-1.075,36.577-3.584,3.929-7.789,7.415-10.748,11.759-3.314,4.866-7.564,10.993-4.525,16.509,3.247,5.892,10.18,7.739,17.263,6.457a39.611,39.611,0,0,1,5.9-.808c3.313-.092,6.633.051,9.948.142,5.138.142,10.679,5.822,14.961,1.478,3.345-3.4,3.855-9.508,5.867-14.313,2.561-6.116,5.559-12.054,8.017-18.21,2.84-7.115,2.447-14.236-.569-21.337a47.22,47.22,0,0,0-13.148-17.284c-3.516-3.036-7.733-5.347-10.9-8.684-8.353-8.807-12.341-18.841-6.348-30.7,2.086-4.128,4.456-8.115,6.759-12.13C279.505,67.272,281.076,62.962,280.428,55.514ZM236.64,325.343c-8.278-1.087-13.888-7.061-20.674-10.816-14.719-8.143-31.945-35.912-29.279-52.781,1.335-8.444.638-17.273,4.4-25.279.849-1.808,1.91-3.632.126-5.222a6.337,6.337,0,0,0-7.421-.618c-10.949,6.152-21.862,12.387-32.526,19.015a68.616,68.616,0,0,0-12.3,10c-6.949,7.008-7.1,12.43-.106,18.651,11.8,10.5,23.585,21.183,38.051,28.032,12.475,5.9,24.956,11.919,37.862,16.741C221.323,325.516,228.149,329.329,236.64,325.343ZM296.957,250.5c.9-5.809,1.547-9.7,2.084-13.61.454-3.293.918-6.595,1.12-9.908.275-4.526-2.273-7.542-7.093-7.236-7.493.476-14.6-.36-21.412-3.527-10.325-4.8-19.106-.742-27.444,5.008a6.33,6.33,0,0,0-2.694,6.966c2.695,11.195,9.483,16.669,19.975,13.832C274.574,238.484,286.185,239.186,296.957,250.5Zm-10.745,35.861c3.332-.85,3.768-3.229,3.466-5.919-.284-2.539-3.737-5.188-5.279-4.008a5.668,5.668,0,0,0-2.051,6.811C283,285.005,283.869,286.864,286.212,286.358Z"/><path class="a" d="M163.255,472.217c4.414-1.568,5.83-4.7,7.817-7.333,5.553-7.35,13.453-10.17,22.127-12.306,15.531-3.823,19.463-9.576,19.789-25.248.144-6.918-2.114-13.021-4.652-19.2-4.224-10.3-5.244-20.421.992-30.574,3.223-5.247,6.375-9.836,12.672-11.924,5-1.657,9.487-4.8,14.4-6.784,5.93-2.394,10.492,1.323,10.208,7.763-.338,7.632-3.4,13.858-8.114,19.9-9.655,12.38-7.516,24.83,5.317,33.566,3.8,2.589,8.279,4.167,12.318,6.435,14.254,8,19.327,21.516,7.777,36.638-3.631,4.752-7.523,9.324-10.873,14.265-2.747,4.052-3.567,8.7-.9,13.2,1.287,2.17,2.85,5.218,4.825,5.71,3.446.857,3.5-2.758,3.949-5.222,1.915-10.474,8.486-17.827,16.3-24.345,4.6-3.837,9.524-7.347,13.776-11.538,8.471-8.35,8.738-14.861,1.175-24.539-2.845-3.64-6.461-6.668-9.588-10.1-12.761-14.009-13.294-25.3.28-38.111,7.319-6.906,11.955-13.687,11.921-23.879-.015-4.19,5.842-5.443,9.205-2.314,9.351,8.7,14.262,19.019,11.807,32.1a97.371,97.371,0,0,0-2.03,13.806c-.443,10.612,4.15,17.619,14.09,21.681,5.533,2.261,11.264,4.054,16.955,5.911,8.017,2.618,11.742,8.315,11.991,16.48.141,4.66-.244,9.345.081,13.986.423,6.029,1.332,12.019,7.121,15.612,2.862-1.4,2.78-4.006,2.958-6.643.631-9.375,1.948-18.557,8.222-26.19a15.676,15.676,0,0,0,1.994-3.44c6.174-13.432,2.35-23.051-12.14-27.761-5.129-1.668-10.041-3.378-14.479-6.293-9.337-6.131-12.743-14.106-7.785-23.911,5.258-10.4,9.235-20.486,7.234-32.29-.116-.682,1.454-2.144,2.448-2.388a4.618,4.618,0,0,1,3.693.748c6.1,5.641,9.671,12.608,10.02,21,.222,5.34-.022,10.712,4.631,14.677,4.625,3.939,9.621,7.171,15.669,8.3,5.235.98,10.5,2.157,15.8,2.4,13.772.622,20.055,8.809,22.519,21.2.389,1.957.576,3.956.793,5.943.681,6.228,2.976,11.583,8.308,15.256,5.808,4,11.968,5.159,19.2,2.11-1.293-1.812-2.11-3.643-3.5-4.786-9.851-8.134-11.921-18.722-9.881-30.614.675-3.936,1.895-7.78,2.518-11.721,1.84-11.646-2.232-17.311-14.08-19.628-5.216-1.022-10.486-1.775-15.74-2.595-11.227-1.751-17.394-8.4-20.179-19.3a60.091,60.091,0,0,1-1.558-21.748c.207-1.884,1.034-3.829,3.387-4.393,2.991-.718,5.114.557,6.645,2.923a21.6,21.6,0,0,1,1.5,3.7c5.928,14.656,17.616,18.908,32.239,17.775a23.88,23.88,0,0,0,5.9-.961c14.985-5.173,26-.528,33.486,13.225a20.215,20.215,0,0,0,2.293,3.262c6.792,8.125,13.228,8.982,22.56,3.436,1.951-1.16,2.532-5.1,6.276-3.193,2.908,2.323,2.124,5.826,2.13,8.939q.111,61.966.048,123.934c0,1.332-.02,2.666-.086,4-.189,3.785-1.8,6.3-5.946,6.368-5.33.085-10.661.15-15.991.151-64.649.01-129.3.245-193.948-.083-39.15-.2-78.294.318-117.443.13-38.655-.186-77.312-.038-115.968-.045-5.332,0-10.667.056-15.994-.113-3.789-.119-6.22-2.056-6.385-6.068-.164-3.99-.236-7.987-.237-11.981q-.024-58.969,0-117.938c0-7.279-.825-14.661,3.613-21.287,1.55-2.313.816-4.47-1.5-6.7-3.12-3-2.085-7.468-2.094-11.389-.052-21.949-.025-43.9-.025-65.487,4.53-3.236,6.082.284,8.354,2.52,7,6.893,14.78,8.422,23.523,3.122,2.251-1.364,4.857-2.138,7.286-3.214,6.2-2.746,11.777-1.123,16.842,2.679,4.227,3.173,8.191,6.7,12.269,10.067,2.208,1.824,7.276,1.3,5.5,6.4-1,2.882-3.847,3.385-6.376,4.058-1.922.511-3.913.763-5.869,1.147C80.3,296.355,77.721,298.9,75.384,314.432c-.3,1.966-.056,4.01-.331,5.981-1.672,12-4.548,14.824-16.479,14.7-4.773-.05-9.376-.352-13.339,2.614-1.513,1.132-3.667,3.168-3.47,4.481.529,3.5,3.182,2.59,5.8,1.8,7-2.113,12.9,1.364,19.014,4.034,12.688,5.543,19.13,2.68,22.352-9.628,6.153-23.511,6.151-23.45,30.563-22.775a44.14,44.14,0,0,0,11.8-1.078c3.1-.775,5.849-3.356,9.172-.866,2.378,1.782.425,7.812-3.374,12.308-4.14,4.9-10,6.328-15.49,8.628-14.863,6.228-18.032,12.735-13.237,27.96,1.591,5.05,4.574,9.7,5.85,14.8,2.056,8.216,2.281,17.944-10.259,22.667-6.858,2.583-13.8,5.337-16.306,13.345,1.652,1.882,3.593,1.188,4.7-.2,4.672-5.858,10.6-7.5,17.773-6.315a35.915,35.915,0,0,0,9.913.485c10.019-1.186,16.582-9.316,15.9-19.444-.179-2.631-1.223-5.2-1.474-7.832-1.846-19.311,5.5-28.369,25.05-30.88,3.951-.508,7.943-.69,11.919-.993,4.783-.363,8.878-2.448,12.929-4.831,1.575-.926,3.9-2.008,5.106.386a10.67,10.67,0,0,1,.957,5.631c-.512,4.929-3.664,8.527-7.1,11.7-12.118,11.194-12.1,24.316-6.2,38.314,2.058,4.89,4.834,9.474,6.979,14.332,6.473,14.659,3.868,25-9.686,34.2C165.908,453.73,160.575,460.232,163.255,472.217Z"/><path class="b" d="M298.629,197.107c2.77-9.174,7.97-16.6,14.976-22.984,13.217-12.035,16.048-26.9,11.3-43.644-.361-1.273-1.1-2.44-1.441-3.716-5.234-19.758-.759-29.8,17.3-39.023,4.721-2.411,9.346-5.014,14.109-7.336,6.479-3.159,7.52-10.547,12.6-16.11,4.432,7.216,3.52,13.568-1.1,19.292a75.382,75.382,0,0,1-11.386,11.092c-11.122,8.975-11.4,20.3-7.074,32.356,2.227,6.2,5.876,11.877,8.479,17.963,5.541,12.959,6.471,25.621-2.692,37.7a43.074,43.074,0,0,0-8.646,19.844c-.242,1.661.707,4.295,1.993,5.151,1.266.843,3.737.284,5.526-.212a5.993,5.993,0,0,0,2.947-2.533c7.408-11.472,17.172-17.163,31.53-16.5,7.486.347,13.291-5.511,15.214-13.6a53.5,53.5,0,0,0,.688-21.582c-2.486-15.082,1.687-22.534,15.49-28.212,5.264-2.165,10.845-5.139,17.176-3.829-1.155,5.834-6.34,8.172-9.8,11.875-6.461,6.922-8.695,13.87-4.848,23.47,3.656,9.129,5.58,19.049,2.8,29.273-2.212,8.139-5.417,14.924-14.272,17.573a68.675,68.675,0,0,0-9.108,3.985c-8.225,3.838-14.269,9.16-15.557,19.032-.6,4.561-4.952,6.08-9.11,4.4a21.719,21.719,0,0,1-5.292-2.695c-20.373-15.942-44.663-22.5-68.99-29.014C300.394,198.837,299.55,197.786,298.629,197.107Z"/><path class="b" d="M280.428,55.514c.648,7.448-.923,11.758-3.287,15.881-2.3,4.015-4.673,8-6.759,12.13-5.993,11.863-2,21.9,6.348,30.7,3.165,3.337,7.382,5.648,10.9,8.684A47.22,47.22,0,0,1,300.776,140.2c3.016,7.1,3.409,14.222.569,21.337-2.458,6.156-5.456,12.094-8.017,18.21-2.012,4.805-2.522,10.917-5.867,14.313-4.282,4.344-9.823-1.336-14.961-1.478-3.315-.091-6.635-.234-9.948-.142a39.611,39.611,0,0,0-5.9.808c-7.083,1.282-14.016-.565-17.263-6.457-3.039-5.516,1.211-11.643,4.525-16.509,2.959-4.344,7.164-7.83,10.748-11.759,11.937-13.09,12.216-23.587,1.075-36.577-3.014-3.514-6.412-6.824-8.783-10.743-6.466-10.684-5.857-19.656,1.927-29.454a67.2,67.2,0,0,1,9.986-9.7c7.4-6.1,13.777-12.569,12.589-23.309-.093-.845,1.106-2.352,2.02-2.684,2.278-.828,3.889.828,4.658,2.609A57.874,57.874,0,0,1,280.428,55.514Z"/><path class="b" d="M499.286,270.042c-12.119,1.665-19.886,9.148-26.839,18.646-13.7,18.711-21.8,19.624-41.145,5.979a27.669,27.669,0,0,1-2.45-2.6c2.11-1.517,4.745-2.69,6.338-4.692,5.083-6.389,4.291-10.115-2.043-14.765-11.731-8.612-23.506-17.182-34.923-26.2-6.317-4.99-5.95-9.1-.095-14.712,6.016-5.762,12.989-9.126,21.426-8.965,3.981.076,7.956.489,11.935.536a15.806,15.806,0,0,0,14.683-8.66,82.061,82.061,0,0,0,7.105-16.413c2.248-7.753,7.406-10.543,14.741-10.649,7.254-.106,14.512-.024,21.941-.024-1.095,5.46-5.111,3.669-7.842,4.542-14.494,4.635-17.661,9.172-17.116,24.725.092,2.648.781,5.284.778,7.926-.016,13.684-5.09,19.06-18.759,20.182a88.448,88.448,0,0,0-11.811,1.256,15.789,15.789,0,0,0-11.666,9.9c-1.078,2.659-.921,6.357,2.112,6.374,10.269.059,17.075,5.489,23.81,12.327,5.029,5.105,11.638,6.081,18.344,2.329,4.047-2.264,8.065-4.6,12.214-6.659,6.229-3.1,12.545-4.2,18.806.1C498.869,270.476,499.286,270.042,499.286,270.042Z"/><path class="b" d="M305.346,323.852c13.048-8.061,25.823-16.434,33-30.768,7.067-14.122,16.039-27.838,8.155-44.824-1.293-2.787,1.053-4.912,4.267-4.81,2.639.085,5.542-.1,7.853.917,15.81,6.94,31.346,14.47,44.742,25.6,6.119,5.082,6.572,10.211.672,14.994a204.154,204.154,0,0,1-22.851,15.86c-20.591,12.467-43.6,19.077-66.3,26.3-3.011.958-6.588.136-9.893.14A5.935,5.935,0,0,0,305.346,323.852Z"/><path class="b" d="M236.64,325.343c-8.491,3.986-15.317.173-21.87-2.276-12.906-4.822-25.387-10.836-37.862-16.741-14.466-6.849-26.251-17.532-38.051-28.032-6.992-6.221-6.843-11.643.106-18.651a68.616,68.616,0,0,1,12.3-10c10.664-6.628,21.577-12.863,32.526-19.015a6.337,6.337,0,0,1,7.421.618c1.784,1.59.723,3.414-.126,5.222-3.761,8.006-3.064,16.835-4.4,25.279-2.666,16.869,14.56,44.638,29.279,52.781C222.752,318.282,228.362,324.256,236.64,325.343Z"/><path class="b" d="M296.957,250.5c-10.772-11.311-22.383-12.013-35.464-8.475-10.492,2.837-17.28-2.637-19.975-13.832a6.33,6.33,0,0,1,2.694-6.966c8.338-5.75,17.119-9.809,27.444-5.008,6.809,3.167,13.919,4,21.412,3.527,4.82-.306,7.368,2.71,7.093,7.236-.2,3.313-.666,6.615-1.12,9.908C298.5,240.8,297.853,244.688,296.957,250.5Z"/><path class="b" d="M234.367,275.082c6.079-2.117,12.106-4.4,18.252-6.3,5.665-1.749,9.687.826,11.891,7.13,1.081,3.09-1.123,8.305-4.574,9.894-2.375,1.091-5.047,1.527-7.568,2.314-16.171,5.045-18.346,3.362-17.483-13.562Z"/><path class="b" d="M234.885,274.557c-2.16,1.321-4.329,2.628-6.477,3.968-2.741,1.709-5.562,3.706-8.911,2.4-2.436-.95-2.39-9.5-.177-12.9,2.955-4.553,9.7-2.954,13.873,3.412.679,1.033.774,2.45,1.156,3.67Z"/><path class="b" d="M305.346,323.852a5.935,5.935,0,0,1-.361,3.407c-1.928,4.22-5.4,4.991-9.455,4.024-1.056-.253-2.662-1.312-2.682-2.037-.028-1.015,1.038-2.224,1.908-3.071C297.769,323.24,301.422,322.834,305.346,323.852Z"/><path class="b" d="M286.212,286.358c-2.343.506-3.216-1.353-3.864-3.116a5.668,5.668,0,0,1,2.051-6.811c1.542-1.18,5,1.469,5.279,4.008C289.98,283.129,289.544,285.508,286.212,286.358Z"/></svg>