<svg xmlns="http://www.w3.org/2000/svg" viewBox="0 0 543.348 543.348"><defs><style>.a{fill:#1f1e15;}</style></defs><path class="a" d="M498.927,44.881c3.587,1.058,9.615-1.752,8.836,6.081-.458,4.615-.031,9.314-.031,13.976q0,210.779,0,421.559v4c0,18,1.374,17.343-17.314,17.34q-220.827-.037-441.655-.015h-9.53c-2.324-3.861.183-5.239,2.369-6.514,35.029-20.425,70.124-40.737,105.116-61.226,21.8-12.763,43.451-25.78,65.171-38.68,17.15-10.186,34.556-19.969,51.4-30.641,27.253-17.268,54.935-34.028,78.813-56.338-3.986-3.974-8.051-2.4-11.7-2.24-7.953.342-15.888,1.156-23.824,1.858-3.27.289-6.539,1.212-9.778,1.085-5.29-.206-11.009-4.29-10.91-7.172.135-3.913,3.4-5.47,5.894-7.4,29.434-22.727,57.081-47.777,88.424-68.03,3.34-2.159,6.323-4.868,9.479-7.311,15.249-11.805,29.567-24.778,45.757-35.424,5.875-3.863,12.091-7.986,15.781-14.363-2.608-4.5-6.395-3.126-9.007-2.608-18.24,3.619-36.964,4.354-54.934,9.721-6.941,2.074-14.437,2.256-21.65,3.481a5.208,5.208,0,0,1-5.2-1.821c-1.6-1.839-.816-3.943.376-5.422a64.975,64.975,0,0,1,6.915-7.127c10.315-9.405,20.531-18.927,31.091-28.052,19.653-16.982,38.734-34.536,56.833-53.19a238.924,238.924,0,0,1,22.468-19.77,151.478,151.478,0,0,0,21.112-21.166c1.367-1.624,1.8-3.325.28-5.119Z"/><path class="a" d="M499.507,44.353c-18.228,6.546-34.266,17.23-50.625,27.21-9.1,5.549-18.274,10.849-27.629,15.953-32.7,17.841-66.381,34.3-97.27,54.9-25.4,16.948-52.437,31.243-76.958,49.81-21.119,15.99-43.417,30.7-65.2,45.966-3.169,2.222-6.691,4.205-8.2,8.427,2.022,3.928,5.567,2.084,8.325,1.643,5.9-.943,11.654-2.828,17.561-3.7,19-2.8,38.049-5.33,57.082-7.93a15.286,15.286,0,0,1,3.989-.1c2.5.322,5.43-.318,6.891,2.7,1.491,3.074-.4,5.071-2.442,6.731-4.653,3.775-9.463,7.354-14.208,11.015q-25.99,20.053-51.967,40.127c-2.62,2.031-4.838,4.619-7.575,6.453-18.319,12.278-34.928,26.645-50.915,41.733-10.177,9.6-20.442,19.057-31.843,27.209-2.152,1.539-4.4,3.05-3.683,6.957,14.917-1.09,29.944-2.332,44.992-3.213,5.721-.334,13.734-3.17,16.586,2.1,4.076,7.533-4.645,11.168-9.145,15.537-15.777,15.322-33.891,27.9-49.894,43.075-20.248,19.2-42.021,36.792-63.151,55.061a19.954,19.954,0,0,1-4.711,3.5c-.74.321-3.086-.876-3.149-1.533-.446-4.627-.635-9.293-.636-13.946q-.039-212.934-.02-425.865c0-3.333-.076-6.668.044-10,.294-8.131.915-8.735,9.434-9.014,4-.13,8-.051,12-.051q212.989,0,425.978,0c5.332,0,10.669-.026,15.994.193,1.872.077,4.321.667,3.85,3.2-.312,1.676-1.96,3.1-3,4.645-.371.553-.7,1.131-1.072,1.712C498.927,44.881,499.507,44.353,499.507,44.353Z"/></svg>