<svg xmlns="http://www.w3.org/2000/svg" viewBox="0 0 543.348 543.348"><defs><style>.a{fill:#df271f;}.b{fill:#dfcf06;}.c{fill:#fcfcfb;}</style></defs><path class="a" d="M227.377,426.107c.66-.075,1.319-.158,1.98-.222,8.665-.834,9.68-.217,7.919,5.5-3.9,12.659-8.068,25.236-12.082,37.86a68.058,68.058,0,0,0-2.047,7.647c-.36,1.862-.292,4.018,2.144,4.417a4.772,4.772,0,0,0,3.611-1.076,53.6,53.6,0,0,0,5.015-6.091c4.815-6.338,9.536-12.748,14.415-19.035,1.146-1.476,2.5-3.19,4.843-2.545s2.693,2.692,2.595,4.6c-.236,4.634-1.009,9.253-1.058,13.883-.07,6.581.619,13.077,5.186,19.257,8.922-7.294,8.816-18.146,13.229-26.736,4.832-.9,4.667,3.059,5.908,5.882,2.879,6.548,4.1,14.042,10.456,19.177,7.622-8.5,4.559-19.136,6.589-28.556,4.233-1.477,5.882,1.387,7.412,4.431,3.968,7.891,9.95,13.787,17.524,18.772,3.126-5.909.928-10.87-.27-15.739-2.849-11.579-6.006-23.082-8.873-34.657a3.456,3.456,0,0,1,1.412-3.022,4.688,4.688,0,0,1,3.7.284c4,2.209,6.117,7.095,11.191,7.88,2.828-2.322.975-4.6-.195-6.842A331.24,331.24,0,0,1,305.71,375.9c-1.174-3.778-2.989-7.639-2.94-11.441.061-4.71-4.174-11.834,2.124-13.7,4.864-1.443,8.659,4.911,11.744,9.1,1.525,2.07,2.079,4.828,3.368,7.108a4.039,4.039,0,0,0,5.072,1.7c1.805-.619,3.336-2.406,5.124-2.642,10.469-1.383,22.781,7.781,24.731,18.212.66,3.529-1.215,6.307-2.868,9.226-2.942,5.2-.663,8.759,4.11,11.284a82.148,82.148,0,0,0,7.263,6.357c4.5,3.122,8.738,1.657,12.352-1.753,1.283-1.211,2.733-3.141,2.683-4.7-.141-4.362-3.675-2.789-5.578-2.009-4.99,2.045-8.809-.871-13.014-2.292-.762-10.907,7.07-18.309,12.315-26.068,4.341-6.423,14.061-6.925,21.882-6.952,6.558-.022,10.261,5.257,12.508,11.227a15.314,15.314,0,0,0,2.246,3.191c6.156-9.467,6.264-14.66-.1-20.229-6.66-5.829-13.381-9.7-22.93-4.583-5.322,2.853-10.244-.37-10.911-4.783-.843-5.572,2.962-9.817,9.052-10.693,5.056-.728,8.952,1.669,12.989,3.913,1.349,1.3,3.353,2.165,4.537.81,1.826-2.091.832-4.379-1.212-6.1-4.31-4.191-8.695-8.385-15.25-8.3-17.637.219-21.542,4.353-21.676,22.64-.052,7.106-3.765,9.962-9.479,7.291-6.262-2.928-13.985-16.231-13.138-23.956.61-5.561-.664-10.2-4.577-13.824-3.386-3.134-7.558-5.406-11.067-8.426-3.067-2.64-2.223-5.887-.284-8.93,2.783-4.37,6.337-5.2,9.84-1.962,1.924,1.777,3.305,4.129,5.023,6.143,1.323,1.552,3.021,2.209,5.86,1.268-.531-5.61-1.189-11.427-1.528-17.262a3.3,3.3,0,0,1,5.526-2.339c4.259,5.056,8.142,10.432,12.454,15.44,1.655,1.922,3.883,4.152,6.771,3.448,3.443-.84,2.4-4.079,2.456-6.476.126-5.275.039-10.555.039-15.906,5.1.895,5.311,5.648,7.57,8.62,3.606,4.743,6.949,9.689,10.632,14.369.6.764,2.519,1.059,3.569.734a3.545,3.545,0,0,0,2.035-2.693,109.836,109.836,0,0,0-1.537-13.858c-1-5.207-2.756-10.287-1.443-15.722,4.278-.516,5.356,2.611,6.384,5.633,3.665,10.769,8.317,21.04,15.228,30.152,1.572,2.073,3.4,5.008,6.261,4.081,3.3-1.069,1.542-4.25,1.127-6.547-2.124-11.757-4.444-23.479-6.457-35.254-.416-2.433.182-5.039.434-9.908,13.686,13.347,13.824,31.036,21.908,45.272.924-1.7,1.89-2.654,1.889-3.605-.009-12.644-.158-25.288-.26-37.933-.026-3.3-.187-6.618.092-9.895a4.007,4.007,0,0,1,2.289-2.616,3.391,3.391,0,0,1,4.526,2.581c2.412,9.69,4.232,19.5,4.177,29.551-.082,15.244.8,30.52-3.22,47.586,7.711-5.489,8.689-11.637,9.771-17.735a421.219,421.219,0,0,0,6.285-59.464c.164-4.88.694-9.748,1.192-16.461,6.2,10.541,6.313,10.53,7.557,23.658.746,7.878,2.345,15.6,1.117,23.755-1.179,7.827-.183,15.957-.612,23.928s-1.133,15.943-2.285,23.832c-1.137,7.794-4.176,15.4-1.86,24.445,6.186-7.812,6.237-16.613,8.365-24.763,1.939-7.429,3.134-15.27,9.843-26.14.86,22.406-3.64,39.333-7.028,56.285-3.356,16.787-7.762,33.364-12.061,51.53,7.591-4.858,8.568-11.654,10.885-17.462,3.692-9.255,6.7-18.781,10.176-28.126a3.95,3.95,0,0,1,2.954-1.9c2.635-.146,3.251,2.107,2.866,3.958-5.137,24.713-9.2,49.67-16.5,73.895-.753,2.5-1.943,4.838-.485,8.606,15.453-27.772,20.4-58.034,27.867-87.425-.009.043.561,1.331.561,1.331l1.372-.32c.475,3.288,1.354,6.574,1.366,9.863q.206,55.977.167,111.956a33.53,33.53,0,0,1-.4,5.956c-.509,2.813-2.26,4.895-5.124,5.267a77.828,77.828,0,0,1-9.974.42q-219.976.027-439.952.005c-3.328,0-6.67.012-9.981-.274-3.785-.326-5.872-2.65-6.328-6.389a31.735,31.735,0,0,1-.2-3.985q.33-65.955.684-131.857c1.644,2.462,3.151,1.939,4.583-.159a368.849,368.849,0,0,0,14.194,59.232c5.3,16.114,11.117,32.161,23.061,44.95.811.718,1.611,1.455,2.41,2.191l-.012-2.378-2.7.654c2.8-6.928-.955-12.664-3.515-18.541A247.184,247.184,0,0,1,59.752,404.91c-1.379-6.413-3.123-12.864-.833-19.458l-.39.306c7.871,6.038,9.2,15.437,11.4,23.988,2.7,10.475,7.448,19.5,16.6,31.881-3.75-22.234-11.043-38.84-14.01-56.354-2.9-17.126-10.452-33.553-9.879-51.9,6.14,1.058,5.739,5.14,6.59,7.941,2.112,6.954,3.558,14.106,5.467,21.125,1.527,5.611,2.775,11.458,8.247,14.926q.615,1.558,1.229,3.119c.376-.756,1.137-1.562,1.048-2.259-.179-1.4-1.276-1.516-2.638-.426,3.31-5.155.994-10.566-.12-15.461-4.48-19.682-4.408-39.576-4.024-59.537.206-10.652.262-21.307.562-31.956a3.59,3.59,0,0,1,2.135-2.606,3.522,3.522,0,0,1,4.319,3.023c1.993,16.506,3.645,33.054,5.6,49.566.379,3.207,1.587,6.325,2.544,9.443.095.31,1.143.539,1.7.461,2.639-.371,1.189,2.349,1.669-.241a104.8,104.8,0,0,0,1.366-11.9c1.288-18.591,2.44-37.192,3.776-55.779a45.843,45.843,0,0,1,1.8-9.8c.54-1.8,1.915-3.591,5.246-2.548.436,16.623.828,33.706,1.373,50.785a93.058,93.058,0,0,0,1.271,11.87,4.341,4.341,0,0,0,2.3,2.594c2.59,1.223,3.8-1.072,4.2-2.719,2.948-12.287,5.643-24.634,8.413-36.963a42.085,42.085,0,0,1,1.36-5.824,4,4,0,0,1,2.424-2.337c2.944-.433,2.959,2.22,2.9,3.9-.167,4.625-1.042,9.227-1.155,13.851-.2,7.986-.2,15.989.131,23.968.064,1.532,2.034,2.985,3.125,4.474,1.419-1.2,3.519-2.119,4.142-3.643,3.269-7.988,6.159-16.131,9.19-24.217,1.123-2.995,2.272-5.982,4.06-10.685,3.256,4.409,2.027,8.111,2.108,11.421.161,6.632.065,13.271.337,19.9.026.624,1.861,1.306,2.951,1.688a1.961,1.961,0,0,0,1.675-.7,49.382,49.382,0,0,0,4.293-6.553c2.657-5.351,5.073-10.823,7.569-16.254.685-1.49,1.851-2.241,3.2-1.5.958.527,2.26,1.8,2.181,2.616-.444,4.617-1.335,9.19-1.925,13.8-.4,3.12-1.351,6.373,1.166,9.584,10.41-3.171,9.333-15.378,16.045-21.089,5.24,2.852,3.157,7.247,3.382,10.8.695,10.989.648,11.149,10.839,4.545,5.766-3.736,12.531-.853,18.569-3.559,2.716-1.216,6.691,5.334,5.686,8.849-1.537,5.371-4.568,10.53-9.8,11.725-6.563,1.5-6.8,7.69-10.672,10.89-3.465,2.867,3.16,8.176-2.518,9.845-3.062.9-6.494.54-9.972.763.727,1.567.936,3.152,1.745,3.565,3.44,1.76,8.438,2.617,6.378,8.031-2.35,6.176-7.57,8.465-14.617,7.714-4.712-.5-6.851-3.611-7.923-7.711a9.336,9.336,0,0,1,.01-3.969c1.6-8.4-3.525-12.284-10.179-14.855-8.233-3.181-15.844-1.641-22.045,4.576a6.124,6.124,0,0,0-.389,7.5c1.382,2.044,2.969.58,4.762-.232,9.4-4.256,12.562-3.931,17.245,1.926,1,1.25,1.115,3.814.633,5.482a3.971,3.971,0,0,1-4.8,2.458c-3.23-.685-6.862-1-9.484-2.732-6.733-4.457-11.5-.235-16.166,3.187-9.368,6.862-9.586,18.611-.859,27.365.351.351,1.236.234,1.87.222s1.765-.059,1.81-.273a32.476,32.476,0,0,0,.84-5.775c.319-12.052,4.4-15.962,15.087-13.725,8.625,1.806,15.41,7.262,22.189,12.469,1.461,1.122,2.187,3.294,3.052,5.079,2.255,4.649,1.921,9.929-1.426,13.077-3.6,3.388-7.235-.486-10.142-3.185-2.325-2.158-4.352-2.769-6.033.617-1.234,2.486-1.743,5.08-.029,7.478,3.318,4.646,8.552,6.206,13.654,7.6a6.227,6.227,0,0,0,5.313-1.466c5.442-6.47,12.558-12.126,9.469-22.579-1.751-5.925,1.946-10.539,7.35-12.572,5.576-2.1,11.437-3.324,15.35-8.352,12.32,5.035,16.67-5.573,23.339-11.755.8-.742,2.47-.867,3.694-.765,2.524.21,3.2,2.45,2.913,4.278-2.047,13.194-6.523,25.7-11.651,37.939-4.357,10.4-9.253,20.568-13.9,30.845-1.219,1.208-2.646,2.831-1.086,4.2C225.7,429.46,226.781,427.771,227.377,426.107ZM86.685,482.1l.569-.167-.894-.108-1.192-2.153C85.687,480.488,86.206,481.309,86.685,482.1Zm384.075-8.575a14.34,14.34,0,0,0,2.078-2.894c.315-.778-.022-1.821-.068-2.746a19.557,19.557,0,0,0-1.182,2.238c-.414,1.095-.687,2.243-.992,3.361l-.279.553Z"/><path class="a" d="M495.156,153.1c2.373-3.3.781-6.495-.81-9.237-20.387-35.127-46.891-64.354-82.33-84.94-7.246-4.209-14.3-7.183-22.239-1.561-9.46,6.7-14.377,15.631-13.107,27.226a33.508,33.508,0,0,0,6.381,16.617c8.183,10.851,11.671,23.8,16.258,36.219,9.51,25.747,4.357,49.661-10.521,71.8-7.956,11.841-28.455,11.207-36.218-.7a11.64,11.64,0,0,1-1.676-5.614c-.681-15.543-6.539-29.07-15.646-41.422a23.094,23.094,0,0,1-3.892-6.8c-.473-1.614.377-3.8,1.17-5.477.212-.446,2.6-.357,3.645.168,5.929,2.974,11.765,6.138,17.609,9.281,1.411.759,2.768.6,3.223-1a4.765,4.765,0,0,0-.658-3.607c-1.5-2.1-3.285-5.465-5.138-5.59-8.377-.563-14.87-5.2-21.968-8.639-2.285-1.108-5.178-2.123-7.526-1.7-4.731.854-.043,5.179-.9,5.606-5.834,2.908-11.669,1.739-16.8-1.94-3.538-2.538-4.462-6.482-3.707-10.7.588-3.288,1.611-6.408,4.742-8.129,3.222,1.582,1.806,4.469,2.36,6.778,1.408,5.874,1.457,5.773,7.84,1.782,1.5-.935,3.728-2.021,5.141-1.561,17.484,5.694,37.044,5.517,52.067,18.285,1.761,1.5,4.919-1.008,5.476-3.877,1.542-7.947-.726-14.527-7.226-19.327-2.634-1.945-5.895-3.018-8.7-4.759-2.195-1.361-4.816-2.542-5.226-5.607-1.463-10.949-9.111-13.549-18.534-13.777l.338.356c-13.269-10.985-24.874-12.582-37.405-7.592a23.67,23.67,0,0,0-13.274,13.55c-7.192,19.575-9.092,40.269-.457,59.8,4.48,10.13-.044,17.89-2.092,26.5-.508,2.137-3.725,3.64-6.7,3.326-3.543-.375-6.844-1.918-7.811-5.239-1.837-6.31-4.081-12.9-3.892-19.3.251-8.549-.85-17.171,1.389-25.774,2.68-10.3-1.314-34.318-6.314-43.835-1.471-2.8-1.881-7.525-5.749-7.222-7.012.55-10.964-7.794-18.378-5.367-11.352,3.716-22.786,7.184-34.223,10.631-3.531,1.065-6.113,2.845-5.778,6.817.464,5.5-1.961,8.733-6.971,10.61a42.8,42.8,0,0,0-7.082,3.655c-7.521,4.571-11.373,11.111-9.925,20.054.4,2.463,1.053,5.7,2.773,6.933,2.373,1.693,4.781-.39,6.371-2.8,4.429-6.719,11.406-8.455,18.755-9.916,9.711-1.932,20.028-1.267,28.991-6.588,2.051-1.218,3.861-.033,4.592,1.785a4.018,4.018,0,0,1-1.186,3.557c-7.87,6.185-17.189,9.711-26.259,13.6-1.328.57-3.575-1.3-5.469-1.684-4.315-.878-5.661,2.3-6.672,5.459-.673,2.1.436,4.352,2.59,3.764,5.091-1.389,9.964-3.571,14.946-5.372,3.138-1.134,6.324-1.933,10.051-.2-.528,6.487-5.9,10.4-9.926,13.58-8.926,7.061-11.408,16.424-11.07,26.329.249,7.3,2.274,16.029-2.4,20.68-5.522,5.49-15.055,2.5-22.873,3.042-8.064.56-13.5-2.5-17.971-9.576-8.827-13.96-13.164-28-10.574-45.072,3.5-23.082,13.946-42.7,25.675-62.059,2.06-3.4,4.891-6.419,6.474-10.008,4.517-10.245,2.2-19.46-5.252-27.562-6.793-7.382-14.672-8.193-23.5-4.036-3.592,1.691-7.555,2.663-11,4.592-32.381,18.165-59.332,42.535-81.371,72.3-3.514,4.746-5.854,10.41-8.354,15.827-.7,1.524-.759,4.181.13,5.443,2.365,3.356,4.406-.09,6.472-1.029,1.759-.8,3.267-2.458,5.06-2.789,1.881-.346,3.765.648,3.434,3.282a6.164,6.164,0,0,1-.325,1.94C52.51,182.372,46.769,211.747,40.7,240.984c-1.547-2.672-2.86-2.013-4.05.269-.232-12.648-.644-25.3-.665-37.945q-.118-71.968-.022-143.936c0-5.328.1-10.657.229-15.984.094-3.9,2.336-6.3,6.031-6.642,4.631-.432,9.32-.307,13.984-.308q215.961-.018,431.922,0c21.236,0,19.824-1.425,19.837,19.035q.045,69.968.008,139.936V213.4c-6.3-.164-4.911-4.318-5.471-6.856-3.875-17.573-7.754-35.11-17.9-50.466-1.052-1.592-2.293-3.961-.356-5.4,2.457-1.822,4.76-.053,6.915,1.507a15.3,15.3,0,0,0,3.612,1.425l1.868,2.875c.465-.8,1.345-1.626,1.306-2.4C497.876,152.629,496.694,152.313,495.156,153.1ZM50.314,159.093l-1.2-1.359a11.671,11.671,0,0,0-1.163,2.47c-.074.321.681.831,1.058,1.255C49.447,160.66,49.889,159.86,50.314,159.093Z"/><path class="b" d="M36.653,241.253c1.19-2.282,2.5-2.941,4.05-.269-3.195,24.071-6.668,48.038-6.287,72.427.2,12.591.894,24.87,4.853,36.932,1.607,4.9,3.448,10.037,1.982,15.4-1.436,2.047-2.943,2.57-4.587.108-.247-4.662-1.386-9.429-.6-13.852,5.645-31.667,2.241-63.289.223-94.942C35.956,251.819,36.51,246.523,36.653,241.253Z"/><path class="a" d="M206.518,111.751c4.148-2.752,8.056-5.672,12.27-8.049,4.192-2.365,8.626-2.17,12.993.069a4.571,4.571,0,0,1,1.5,6.475c-4.041,5.968-11.072,1.337-16.071,4.954C213.859,117.624,209.822,115.218,206.518,111.751Z"/><path class="a" d="M338.241,100.893c.061,6.374,6.631,7,9.527,10.853.723.961,1.443,2.464,1.2,3.5-.5,2.177-2.7,2.2-4.531,2.467-3.484.508-6.294-.955-9.2-2.7-3.834-2.3-11.031-2.811-10.666-7.341.588-7.274,8.361-3.2,12.725-4.936.542-.215.872-.962,1.288-1.475Z"/><path class="a" d="M245.49,137.011c-.869-.554-2.5-1.049-2.6-1.757a27.075,27.075,0,0,1-.155-7.857c.478-3.02-6.31-7.919,1.277-8.752,4.261-.468,5.432,4.793,6.412,8.652.923,3.633-.322,6.458-3.039,8.773A9.118,9.118,0,0,1,245.49,137.011Z"/><path class="b" d="M506.409,374.89l-1.372.32s-.57-1.288-.561-1.331c-.967-6.367,5.861-10.344,5.009-16.87-4.585-.127-2,3.162-2.084,4.729C507.163,366.132,510.364,370.755,506.409,374.89Z"/><path class="a" d="M58.919,385.452l-2.287-1.745c2.66-1.2,2.632.1,1.9,2.05Z"/><path class="c" d="M359.881,400.343c4.205,1.421,8.024,4.337,13.014,2.292,1.9-.78,5.437-2.353,5.578,2.009.05,1.556-1.4,3.486-2.683,4.7-3.614,3.41-7.855,4.875-12.352,1.753a82.148,82.148,0,0,1-7.263-6.357Q358.028,402.543,359.881,400.343Z"/><path class="c" d="M470.567,473.488c.334-1.126.607-2.274,1.021-3.369a19.557,19.557,0,0,1,1.182-2.238c.046.925.383,1.968.068,2.746a14.34,14.34,0,0,1-2.078,2.894Z"/><path class="c" d="M400.259,340.071c2.044,1.726,3.038,4.014,1.212,6.1-1.184,1.355-3.188.492-4.537-.81C398.042,343.613,399.15,341.842,400.259,340.071Z"/><path class="c" d="M82.59,377.8c1.362-1.09,2.459-.975,2.638.426.089.7-.672,1.5-1.048,2.259q-.615-1.56-1.229-3.119Z"/><path class="c" d="M227.377,426.107c-.6,1.664-1.678,3.353-3.4,1.844-1.56-1.367-.133-2.99,1.086-4.2C225.844,424.519,226.618,425.306,227.377,426.107Z"/><path class="c" d="M78.2,470.342l2.7-.654.012,2.378c-.8-.736-1.6-1.473-2.41-2.191Z"/><path class="c" d="M470.76,473.521l-.443.512s.279-.553.264-.549A1.646,1.646,0,0,0,470.76,473.521Z"/><path class="c" d="M86.726,482.13l-1.558-2.462,1.192,2.153Z"/><path class="c" d="M86.36,481.821l.894.108a4.975,4.975,0,0,0-.549.184Z"/><path class="c" d="M495.156,153.1c1.538-.786,2.72-.47,2.792.986.039.778-.841,1.6-1.306,2.4l-1.868-2.875Z"/><path class="c" d="M50.314,159.093,49,161.459c-.377-.424-1.132-.934-1.058-1.255a11.671,11.671,0,0,1,1.163-2.47Z"/></svg>