<svg xmlns="http://www.w3.org/2000/svg" viewBox="0 0 543.348 543.348"><defs><style>.a{fill:#2d9e54;}.b{fill:#fcfcfb;}</style></defs><path class="a" d="M201.14,208.563c-9.662,9.761-8.265,22.236-6.221,33.583,5.219,28.968,14.663,56.627,30.858,81.582,4.347,6.7,8.477,13.558,13.174,20,9.409,12.912,19.019,25.623,33.179,34.04,12.008,7.138,23.48,15.189,35.583,22.151,9.849,5.665,20.6,9.406,32.136,9.777,2.365.076,5.519-.988,7-2.675,1.882-2.147.405-5.169-1.489-7.121q-6.942-7.154-14.243-13.957c-13.8-12.875-25.293-27.261-31.776-45.331-4.088-11.4-7.225-22.317-4.252-34.941,3-12.729.147-24.945-9.413-35.211-8.2-8.808-14.074-19.342-19.18-30.26-1.156-2.469-2.42-4.935-1.107-7.489,1.817-3.532,4.508-1.04,6.85-.509a3.661,3.661,0,0,1,1.808.814c4.515,4.8,10.712-2.725,14.845,1.79a186.019,186.019,0,0,1,12.276,15.711c1.963,2.672,3.235,5.871,5.314,8.43,1.135,1.4,3.85,3.179,4.916,2.7,8.029-3.605,10.8,2.208,13.853,7.335,3.063,5.143,5.969,10.395,8.629,15.755,2.5,5.041,5.1,9.051,11.928,8.139,3.668-.49,5.607,3.035,7.149,6.024q8.691,16.854,17.257,33.774c1.139,2.26,2.741,2.254,4.8,1.765,8.407-1.994,8.6-2.024,10.244,3.584a323.153,323.153,0,0,0,16.725,44.86c1.337,2.889,3.18,6.677,7.269,4.407,5.886-3.266,8.118-.992,9.909,4.575,2.721,8.455,1.949,17.164,2.66,25.757.6,7.3.809,14.631,1.075,21.954.107,2.964,1.438,6.028,3.977,6.162,7.913.419,7.942,5.716,7.682,11.17a183.1,183.1,0,0,1-1.687,19.9c-2.74,17.33-2.894,17.305,2.326,30.393-3,3.612-7.178,2.276-10.849,2.279q-186.949.122-373.9.062a86.265,86.265,0,0,1-9.985-.259c-3.676-.431-5.995-2.627-6.112-6.548-.139-4.659-.242-9.322-.243-13.983q-.018-215.884-.016-431.77c0-22.2-1.105-20.7,20.52-20.536,7.976.06,15.946.837,23.917,1.314,3.321.2,6.761,1.164,9.934.594,17.293-3.1,34.514.01,51.76.012,16.606,0,33.21-1.856,49.818-1.888Q338,36.194,485.957,36.4c5.33,0,10.671-.079,15.987.228,3.733.216,6.085,2.456,6.266,6.339.217,4.653.3,9.317.3,13.976q.022,215.886,0,431.771c0,4.661-.1,9.323-.234,13.983-.11,3.909-2.388,6.441-6.062,6.571-15.774.556-31.544.365-49.164.093,4.545-9.837,8.813-17.274,11.525-25.24,16.046-47.125,24.952-95.652,20.211-145.332-4-41.928-15.564-82.3-36.592-119.383-1.969-3.473-4.5-6.658-6.213-10.241-19.557-40.779-53.543-61-96.762-68.171-1.962-.325-4.074-.322-5.845-1.094-3.146-1.371-6-3.641-4.6-7.534,4.529-12.515-.877-21.4-9.155-30.359-21.525-23.292-48.8-34.224-79.415-37.329-15.138-1.536-30.541-.712-45.817-.482-4.556.068-8.01-1.033-9.855-4.985-7.549-16.17-21.066-21.12-37.667-20.514-10.638.388-21.28.724-31.911,1.255-7.972.4-15.938,1.628-23.848-.6a19.774,19.774,0,0,0-3.955-.488C68.324,37.126,57.393,45.774,54.4,70.291c-.882,7.224-.608,14.648-.231,21.948A12.809,12.809,0,0,0,63.135,104.3c5.013,1.774,10,3.719,15.143,5.008,19.14,4.8,35.576,14.584,50.793,26.775,4.676,3.747,9.1,8.139,14.383,10.716,7.121,3.476,11.967,7.673,12.968,16,1.062,8.824,8.344,13.449,14.64,18.1a102.107,102.107,0,0,0,19.1,10.631c10.427,4.65,10.556,4.359,10.7,17.257Z"/><path class="a" d="M175.721,126.053c-5.3,3.189-5.363,9.257-10.4,10.589a5.308,5.308,0,0,1-3.711-.333c-.827-.492-1.782-2.4-1.453-2.964,5.95-10.3,5.405-21.47,5.384-32.8-.017-9.312,2.374-18.376,9.444-25.3a4.119,4.119,0,0,1,3.48-.633,1.975,1.975,0,0,1,.972,3.28c-8.42,9.381-6.932,18.442-1.1,28.895,6.4,11.471,12.266,23.537,12.676,37.264.215,7.181-1.74,13.2-8.7,16.369-2.822,1.284-6.32,3.515-8.967.046-2.144-2.811,1.5-4.353,2.4-6.537C179.376,145.184,181.251,136.333,175.721,126.053Z"/><path class="a" d="M245.761,160.441c0-11.752,5.061-20.975,13.049-22.915,13.5-3.278,27.279-5.922,41.276-2.877,1.713.373,4.267,2.04,4.427,3.351.361,2.961-2.291,4.415-4.944,4.945-4.547.907-9.132,1.657-13.728,2.279-8.955,1.212-15.875,6.343-22.694,11.637-5.227,4.057-5.471,10.283-6.789,16.075a3.687,3.687,0,0,1-4.412,2.9,4.3,4.3,0,0,1-2.571-2.578C247.8,168.241,246.5,163.134,245.761,160.441Z"/><path class="a" d="M289.546,95.905c9.591.134,15.633,5.789,20.084,13.492.8,1.39.428,3.854-.158,5.564a5.848,5.848,0,0,1-6.283,3.772c-9.227-1.058-15.557-6.428-19.585-14.593C281.893,100.672,285.333,96.05,289.546,95.905Z"/><path class="a" d="M418.88,212.706c.2,3.958-4.49,6.779-8.388,5.267a18.212,18.212,0,0,1-9.815-9.061c-2.781-5.291-2.564-10.7.819-12.232,3.733-1.691,8.917-.162,12.3,3.627A19.538,19.538,0,0,1,418.88,212.706Z"/><path class="a" d="M310.674,179.033c-3.657-.933-6.949-1.521-10.054-2.633a9.23,9.23,0,0,1-6.325-6.987c-.561-2.8,4.009-7.345,7.84-7.69a25.855,25.855,0,0,1,18.621,5.161,6.588,6.588,0,0,1,2.284,5,6.483,6.483,0,0,1-3.253,4.4C316.848,177.663,313.526,178.223,310.674,179.033Zm-3.432-10.183-2.712,1.9c1.1.406,2.19,1.127,3.285,1.129,1.076,0,2.153-.726,3.23-1.134Z"/><path class="a" d="M397.638,182.76c.422,2.792-3.376,6.272-6.26,5.769-6.814-1.189-11.695-5.135-15.419-10.748-1.659-2.5.125-7.139,3.007-7.815C387.019,168.077,396.392,174.5,397.638,182.76Z"/><path class="a" d="M258.86,79.788a49.319,49.319,0,0,1,8.862,2.63c3.564,1.638,6.7,4.3,6.156,8.964-.376,3.24-4.709,5.55-9.2,5.549a21.992,21.992,0,0,1-12.715-4.246c-3.69-2.528-5.668-7.271-4.011-9.833C249.564,80.359,252.091,79.418,258.86,79.788Zm1.968,9.558c.545-.31,1.58-.661,1.558-.924-.216-2.606-2.187-2.8-4.194-2.732a7.249,7.249,0,0,0-1.874.594C257.071,88.41,258.885,88.972,260.828,89.346Z"/><path class="a" d="M232.869,208.169c6.5-5.065,9.6-7.429,12.642-9.865,1.881-1.508,4.345-1.11,5.075.38,3.056,6.233,7.381,12.149,6.483,19.706-7.922,4.01-10.921-4.838-16.713-6.449C238.467,211.415,236.778,210.175,232.869,208.169Z"/><path class="a" d="M344.088,151.888c3.909.316,7.875.544,11.025,3.273,2.637,2.284,3.808,5.118,2.739,8.664-1.136,3.767-3.9,5.017-7.444,4.627-5.353-.589-10.139-2.64-13.253-7.213a6.929,6.929,0,0,1-.961-5.357c.5-1.467,2.5-2.612,4.069-3.461C341.325,151.848,342.8,152.035,344.088,151.888Z"/><path class="a" d="M428.621,236.757c4.482-.483,7.275,1.827,9.392,5.536,1.754,3.072,2.447,6.243.182,9.087-1.044,1.31-3.347,2.546-4.9,2.359-6.447-.777-10.888-9.516-7.753-14.9C426.094,237.884,427.546,237.453,428.621,236.757Z"/><path class="a" d="M359.161,180.991c2.468,1.195,4.811,2.128,6.946,3.41,3.176,1.906,4.353,4.939,2.291,8.04a5.155,5.155,0,0,1-6.809,1.7,24.962,24.962,0,0,1-6.088-4.334c-1.269-1.284-2.3-3.381-.81-5.186C355.817,183.264,357.463,182.335,359.161,180.991Z"/><path class="a" d="M133.537,80.062c3.117-.384,5.951,1.645,6.063,3.858.249,4.888-.839,9.849-1.492,14.765a2.358,2.358,0,0,1-1.827.226c-.843-.727-2.173-1.977-1.983-2.638,1.264-4.41.526-7.29-4.416-8.74-1.362-.4-3.249-3.4-2.863-4.49C127.95,80.424,130.939,80.223,133.537,80.062Z"/><path class="a" d="M200.87,208.784c1.332,1.234,2.35,2.923,4.681,1.266,3.706-2.635,7.114-6.286,12.329-5.284A5.768,5.768,0,0,1,220.6,206.9a1.928,1.928,0,0,1-.055,1.886c-4.586,3.625-9.106,7.374-13.988,10.563-1.542,1.007-3.615-.21-3.731-2.712-.129-2.781,3.261-6.289-1.675-8.076Z"/><path class="a" d="M164.694,54a6.6,6.6,0,0,1-4.81,5.379c-3.536,1.219-6.4-.621-8.816-2.632a6.093,6.093,0,0,1-1.849-4.964,6.458,6.458,0,0,1,3.685-3.863c3.9-1.46,7.618-.378,10.546,2.558C164.246,51.278,164.3,52.81,164.694,54Z"/><path class="a" d="M268.749,108.309c3.692-.335,6.784,2.074,6.4,5.12-.4,3.18-2.858,4-5.5,3.956s-5.107-.857-5.324-4.144C264.116,110.164,265.974,108.791,268.749,108.309Z"/><path class="a" d="M131.368,68.209c3.958.92,9.321-.89,11.136,5.107.169.559.3,1.419.011,1.782-2.308,2.866-8.45,2.46-14.295-.886a3.357,3.357,0,0,1-1.47-1.221,11.663,11.663,0,0,1-.907-3.482c-.027-.285.976-.863,1.567-.97A38.939,38.939,0,0,1,131.368,68.209Z"/><path class="a" d="M280.715,183.473a4.115,4.115,0,0,1-4.318-3.3,3.5,3.5,0,0,1,4.3-4.379c1.877.468,3.475,1.613,3.532,3.874C284.275,181.307,282.1,183.406,280.715,183.473Z"/><path class="a" d="M118.5,48.033c2.014.178,4.228,1,3.948,3.041-.168,1.223-2.632,2.993-4.015,2.948-1.451-.046-3.882-1.845-4.028-3.094C114.156,48.791,116.643,48.388,118.5,48.033Z"/><path class="a" d="M444.491,276.042c2.829.137,4.808,1.418,5.378,4.477.521,2.8-.1,5.866-2.745,6.368-2.442.464-4.853-1.56-5.564-4.56C440.883,279.471,441.458,277.249,444.491,276.042Z"/><path class="a" d="M384.984,206.8c-.856.566-1.835,1.7-2.537,1.553a4.031,4.031,0,0,1-2.512-2.182c-.651-1.687,2.011-3.46,3.533-2.309C384.26,204.464,384.5,205.8,384.984,206.8Z"/><path class="a" d="M405.161,232.85c-.888.622-2.106,1.935-2.553,1.71-2.208-1.108-4.954-2.3-3.688-5.576a3.537,3.537,0,0,1,2.934-1.687C404.929,227.782,405.859,229.931,405.161,232.85Z"/><path class="a" d="M213.19,77.832c1.619.5,2.125,1.585,1.006,2.781a11.187,11.187,0,0,1-3.058,1.688c-.37-1.137-1.162-2.366-.943-3.375C210.317,78.369,212.135,78.182,213.19,77.832Z"/><path class="a" d="M240.841,74.291c-.575.732-1.156,2.064-1.729,2.061-1.014-.006-2.023-.824-3.034-1.3a10.106,10.106,0,0,1,1.937-1.968C239.325,72.325,240.337,72.85,240.841,74.291Z"/><path class="b" d="M307.242,168.85l3.8,1.9c-1.077.408-2.154,1.136-3.23,1.134-1.095,0-2.19-.723-3.285-1.129Z"/><path class="b" d="M260.831,89.343c-1.946-.371-3.76-.933-4.513-3.059a7.249,7.249,0,0,1,1.874-.594c2.007-.069,3.978.126,4.194,2.732C262.408,88.685,261.373,89.036,260.831,89.343Z"/></svg>