<svg xmlns="http://www.w3.org/2000/svg" viewBox="0 0 543.348 543.348"><defs><style>.a{fill:#dfcf06;}.b{fill:#fcfcfb;}</style></defs><path class="a" d="M355.716,437.543c1.481-1.14,3.921-2.03,4.292-3.459,3.23-12.427,7.554-14.074,17.337-6.257,1.895,1.514,3.856,2.943,5.983,4.56-4.99,4.332-11.626-.4-16.725,3.2a4.825,4.825,0,0,0-1.051,6.667,10.867,10.867,0,0,0,10.53,4.13,81.743,81.743,0,0,0,15.4-3.472,62.775,62.775,0,0,1,27.219-3.6c6.749.6,12.32-.335,18.461-4.375,7-4.606,15.668-5.8,24.137-.982,7.541,4.295,15.989,5.545,24.67,4.859,3.861,5.7,8.578,3.53,14.3,1.343l-14.591-1.009a7.868,7.868,0,0,0-5.347-7.574c-2.895-1.188-7.185-1.607-5.828-6.211,1.042-3.538,5.141-3.849,8.071-4.992,5.755-2.244,11.691.218,17.119.49,5.316-4.981,1.554-11.92,4.453-16.764,2.317-.466,3.117.219,3.122,1.947q.126,42.755.263,85.509c.007,3.325-.092,6.663-.386,9.973-.258,2.89-1.917,5.035-4.874,5.313-3.965.372-7.974.365-11.965.365q-218.877.024-437.756-.01c-17.37,0-17.539-.154-17.518-17.527.089-73.27.408-146.539.411-219.809,0-69.936-.352-139.873-.407-209.809C35.014,32.19,32.4,35.387,59.4,35.372q212.881-.114,425.763.011c24.347.017,22.352-3.34,22.366,22.468q.078,139.886-.1,279.77c-.026,11.123,1.748,22.342-2.717,33.487-1.641,4.1,1.669,10.084,2.388,15.256.376,2.7-.541,6.365-3.043,6.727-15.732,2.279-26.965,14.157-41.476,18.89-1.263.412-2.456,1.032-3.708,1.481-4.362,1.559-8.08.933-9.4-4-1.207-4.5-4.637-5.8-8.216-7.77-11.737-6.463-11.845-18.653-.509-26.142,2.777-1.835,5.894-3.23,8.435-5.334,7.69-6.365,16.448-8.165,26.167-7.3,7.287.65,14.624.778,21.941,1.048,3.5.129,4.634-2.608,4.39-5.152-.432-4.513-2.042-8.911-2.49-13.423-.592-5.962-4.01-11.726-3.774-17.083a44.5,44.5,0,0,0-2.051-16.947c-1.856-5.583-3.486-9.524-9.954-10.48-4.551-.674-6.432-3.7-4.865-8.714,7.77-24.854-.355-27.506-21.417-22.456-2.455.588-5.9,2.149-6.784-1.171-2.753-10.336-10.2-8.581-17.5-7.476-1.76.267-3.438,1.078-6.249,2-.241-10.3,2.116-20.724-5.707-28.789-.932-.96.05-1.808,1.66-2.56,7.588-3.542,4.62-10.036,4.047-15.688-.814-8.019-.961-8.063,8.072-7.72,1.147.043,2.255,1.087,3.454,1.7-1.428,4.708-8.8,3.1-9.316,8.736-.615,6.7-.277,13.325,2.077,19.671,1.61,4.34,8.338,6.608,15.78,5.647,4.645-.6,7.668-4.286,7.613-9.876-.051-5.3.806-11.138-1.1-15.767-2.344-5.689-1.7-9.732,1.085-14.788,1.421-2.579.708-6.515.439-9.795-.3-3.643-2.265-5.972-6.325-6.214-9.987-.595-19.936-.915-29.8,1.339-4.539,1.038-6.739,3.887-6.95,8.372-.124,2.657.191,5.346-.069,7.983-.514,5.208-9.709,10.888-14.612,8.822a7.474,7.474,0,0,1-3.56-4.357c-1.064-3.519,2.194-2.239,3.607-2.411,3.2-.388,7.267.88,8.965-2.632,2.406-4.975,1.6-10.432-.811-15.226-1.711-3.405-5.613-3.036-8.894-2.915-2.756.1-5.158,1.139-5.9,4.208-.31,1.287-.372,2.633-.655,3.928-1.585,7.272-1.6,7.27-11.911,8.119l.266.341c2.591-6.512,11.008-9.987,8.631-18.642,7.579,0,14.123-.133,20.659.038s12.8-1.691,19.512-1.252c12.134.795,13.91-1.63,14.529-14.993.333-7.2.336-14.413.487-21.618,3.648,2.811,3.308,6.919,3.557,10.851.334,5.27.224,10.629,1.2,15.78,1.291,6.822,5.7,9.9,12.622,9.732,5.291-.132,10.575-.543,15.866-.715,18.3-.592,18.941-1.374,19.053-19.281.033-5.312-1.315-8.845-6.84-10.339-2.527-.684-3.849-3.1-5.508-5.208-5.171-6.581-5.426-6.379-12-1.469-7.755,5.794-12.68,5.054-18.821-2.463A146.9,146.9,0,0,0,440.377,131.9c-2.6-2.56-6.5-1.864-8.62,1.037-2.633,3.6-1.981,8.012,1.741,10.012,2.828,1.518,6.581,1.124,8.725,4.139-15.883-.056-31.766-.162-47.649-.14-5.963.008-8.772,2.358-9.157,8.057-.4,5.945-.242,11.929-.3,17.9-.027,2.684-.154,5.928-3.171,6.319-2.276.294-5.135-.975-7.144-2.387-2.061-1.448-3.406-3.916-5.064-5.937,12.644-.679,13.227-1.19,12.936-11.332-.251-8.751-3-12.026-11.628-12.463-11.218-.568-22.469-.467-33.695-.915-6.837-.272-6.214,5.011-7.35,9.092-5.74-1.627-11.426-3.49-17.235-4.819-6.831-1.563-9.564.292-11.217,6.977-1.275,5.16-2.53,10.327-3.667,15.519-1.776,8.107.231,13.979,8.972,16.835,2.939.96,3.127,3.873-.593,5.04a5.987,5.987,0,0,0-4.583,5.679c-.424,5.08-3.75,6.684-8.158,6.654a110.516,110.516,0,0,1-11.92-.782,4.636,4.636,0,0,1-3.227-1.916c-2.732-5.443-4.515-11.37-2.829-17.3,1.08-3.8,5.417-2.582,8.568-3.055,8.116-1.217,9.25-2.324,9.821-9.539.525-6.625.861-13.268,1.136-19.909.246-5.95-1.471-8-7.383-9.957-8.461-2.794-17.151-1.584-25.743-1.522-13.962.1-15.514,1.813-16.158,16.118a34.146,34.146,0,0,0,.269,3.977,37.581,37.581,0,0,1-3.153-4.82c-3.766-8.19-5.5-9.347-12.525-8.21-11.313,1.83-20.6,7.9-29.736,14.225-3.9,2.7-3.031,6.817-2.5,10.711-6.36-3.74-11.044-11.591-20.285-8.27l.31.409c.456-5.126,4.473-6.587,8.319-6.432,10.87.437,17.85-6.276,26.111-11.684-6.557-5.925-14.045-.244-19.913-4.02,1.962-3.38,4.868-6.519,5.66-10.123,1.869-8.495-.251-15.709-11.578-16.034-7.784-.223-15.556,1.235-23.567-1.313-6.06-1.928-12.662,1.651-17.166,6.294-7.335,7.559-7.043,7.749-15.443,7.432a32.789,32.789,0,0,0-7.867.724,6.207,6.207,0,0,0-4.821,5.661c-.355,3.065,1.808,4.859,4.735,5,4.624.223,9.268.156,13.9.036,1.967-.051,3.936-.823,5.88-.734,1.093.05,2.137,1.186,3.2,1.833-.786.946-1.441,2.555-2.377,2.74-13.831,2.733-27.7.388-41.555.08l.338.3a60.976,60.976,0,0,0,6.434-4.3c3.386-2.913,3.9-7.386,1.244-10.391-2.88-3.257-6.374-2.1-8.733.247-4.218,4.2-7.77,9.057-11.69,13.561-3.268,3.755-8.234,3.738-12.525,4.751-1.138.27-3.1-3.542-4.881-5.274-4.559-4.433-7-4.539-11.333.709-2.112,2.56-3.533,5.644-6.922,6.719-5.434,1.723-6.367,5.747-6.573,10.844-.671,16.548.378,17.831,17.293,18.443,1.329.048,2.664-.065,4-.111,9.894-.347,19.735,2.167,29.772-.488,3.259-.862,7.431,2.41,11.307,3a31.034,31.034,0,0,0,7.463.124c-5.616-1.474-14.811,2.882-24.345,2.793-3.072-.028-4.531,2.488-5.26,5.135-1.084,3.931-1.744,8.458.61,11.633,3.073,4.142,3.894,7.331,1.827,12.371-1.764,4.305-1.282,9.53-1.9,15.371-3.544-3.245-6.458-4.573-9.965-4.7-3.907-.143-7.932-.162-11.159-3,.269-.313.462-.761.769-.861,5.673-1.852,12.7,1.6,17.311-2.867,5.973-5.78-3.633-10.275-2.611-16.127.565-3.23.256-6.631.169-9.951-.116-4.437-1.692-7.867-6.857-7.751-7.232.163-14.626-1.481-21.861,1.655-.106,6.557-.966,12.581,2.3,19.22,3.935,8,1.142,12.318-7.205,16.951a36.528,36.528,0,0,1-3.6,1.723c-3.011,1.261-3.233,3.883-3.265,6.585-.034,2.829.832,5.257,3.7,6.311,9.412,3.463,18.677,6.46,28.885,1.979,5.316-2.334,11.089-3.772,16.753,1.146,4.413,3.832,10.265,1.654,15.387.63,4.729-.946,4.723-5.849,6.555-9.228.931-1.718,2.661-3.088,4.86-1.916,1.764.94,3.386,2.379,2.063,4.639-5.044,8.611-2.854,18.264-3.865,27.416-.839,7.588,3.022,13.02,10.356,14.737,9.042,2.117,18.32,3.3,27.543,4.532,3.469.465,6.777-.967,8.017-4.564,3.5-10.162,3.977-20.78,3.8-31.39-.024-1.456-2.135-3.373-3.734-4.2-2.888-1.5-1.54-3.21.034-3.391,4-.461,7.9-.328,10.639-4.132,4.646-6.46,10.023-12.534,9.707-21.229l-.289.337c3.018,1.439,5.936,2.654,9.267.462,1.556-1.024,3.821-1.692,4.868.769.216.509-1.257,2.32-2.244,2.645-2.808.925-4.516,2.4-4.521,5.52,0,3.321-.049,6.644-.183,9.963-.247,6.107-2.992,10.008-9.481,10.63a7.022,7.022,0,0,0-3.747,1.113,10.985,10.985,0,0,0-3.231,4.379c-.8,2.284,1.165,3.747,2.855,4.582,14.614,7.226,14.647,7.189,11.561,21.162-.284,1.286-1.143,2.478-1.27,3.759-.425,4.3,5.226,12.625,8.071,12.114,2.219-.4,8.866-7.359,9.041-9.886a37.18,37.18,0,0,0-.574-5.893c-.309-3.294-.766-6.589-.824-9.889-.079-4.582,2.265-7.232,6.837-8.292,13.523-3.136,18.531,1.306,17.046,15.369-.14,1.32.02,2.9-.643,3.9-4.877,7.381,2.154,10.68,5.223,15.206a3.117,3.117,0,0,0,5.047.034c2.958-4.065,8.363-7.516,5.414-13.738-2.481-5.234-1.518-10.39-.444-15.559,1.083-5.211,4.147-7.422,9.906-7.755,14.2-.823,18,3.429,15.543,17.575a19.062,19.062,0,0,1-2.063,5.565c-3.554,6.672,2.269,9.478,5.446,13.3,1.506,1.809,3.574,1.394,4.91-.272,2.805-3.5,6.972-6.544,4.636-12.1-2.121-5.049-1.984-10.395-1.673-15.715.337-5.761,2.708-7.994,8.865-8.32a73.811,73.811,0,0,1,7.968.086c4.583.256,7.328,2.74,8.016,7.266,1,6.612.511,13.169-.352,19.8-.494,3.793,4.981,10.531,7.467,10.523,2.586-.009,8.591-6.251,8.917-9.733.243-2.6-.233-5.267-.274-7.9a109.835,109.835,0,0,1,.051-11.873,6.789,6.789,0,0,1,6.522-6.385,36.189,36.189,0,0,1,9.851.813c5.673,1.136,7.9,4.151,7.4,9.834a21.605,21.605,0,0,1-1.746,7.646c-2.114,4.24-1.279,7.562,1.839,10.758,2.208,2.264,4.283,4.657,7.029,7.664,2.965-6.057,10.76-9.1,6.427-17.545-2.463-4.8-3.246-10.259-.636-15.362,2.489-4.867,8.108-3.8,12.193-5.687a11.347,11.347,0,0,0,1.616-1.018c2.3-1.577,1.892-7.386-.751-8.61a17.126,17.126,0,0,0-5.672-1.58c-5.574-.454-8.364-3.41-8.571-8.878-.125-3.315-.02-6.639-.127-9.955-.286-8.924,4.2-13.468,12.9-14.212l-.028-.03c.792,2.976-1.213,4.8-2.62,7-.968,1.515-2.1,4.022-1.493,5.271,4.356,8.927,8.919,17.923,21.588,17.106-6.61,3.669-9.9,8.219-7.4,16.087,1.575,4.973,1.376,10.493,2.121,15.747,1.305,9.19,3.1,10.73,12.919,11.231,2.555.13,5.122.019,7.94,1.891l-19.8,2.086c-4.282,8.3-5.546,16.977-2.841,26.316,1.272,4.389,3.807,6.8,8.464,6.649,5.974-.194,11.981-.131,17.909-.775,4.4-.479,7.064-3.441,7.286-8.044a45.522,45.522,0,0,0-.151-7.964c-.944-7.339-.559-12.978,9.486-12.363,3.825.235,4.351-4.148,4.839-7.515a4.79,4.79,0,0,1,2.06-2.707c1.277-.88,2.412-.183,2.717,1.585,1.5,8.686,7,10.361,14.651,8.574a17.315,17.315,0,0,1,5.825-.515c1,.117,1.844,1.5,2.759,2.316-.743.828-1.493,2.382-2.228,2.375-9.881-.09-19.759-.514-29.639-.594-3.793-.03-5.868,2.586-6.828,6.036a18.693,18.693,0,0,0-.526,3.922c-1.007,17.4,1.593,19.026,17.235,17.991,13.907-.92,27.7.737,41.516,1.912,1.87.159,4.419.789,3.951,3.21-.189.982-2.907,1.889-4.567,2.1-6.792.863-6.073,5.9-6.023,10.492.055,5.084,3.2,6.8,7.817,6.682a58.148,58.148,0,0,1,5.977-.029c2.1.166,3.959,1.4,3.132,3.573-.642,1.692-2.577,2.9-3.959,4.3-1.133,1.149-2.194.826-3.633.185-11.483-5.117-23.5-2.029-35.251-1.741-8.645.212-9.327,2.648-5,13.109-2.743.351-5.326.663-7.9,1.013-9.155,1.243-10.35,2.538-9.907,10.785.035.653.384,1.286.433,1.94.592,7.849.585,7.852-7.58,10.1-1.28.352-2.568.673-3.844,1,2.663-3.595,5.789-6.713,5.681-11.9-.165-7.847-2.3-11.194-9.662-11.758-7.109-.544-14.262-.468-21.392-.772-2.907-.124-2.052-2.574-2.342-4.274,7.96.372,15.919.976,23.882,1.042a177.855,177.855,0,0,0,17.859-1c2.747-.255,5.3-1.944,5.868-4.639,1.935-9.157,3.152-18.992-.557-27.38-3.049-6.9-11.973-3.1-18.179-4.537-.638-.148-1.369.048-1.979-.153-13.621-4.487-25.7-.612-37.425,6.431,7.418,9.248,7.39,9.252,9.108,20.773.49,3.282,1.191,6.533,1.8,9.8-8.465-.408-17.14-1.207-19.377,10.381,1.941.6,3.809,1.728,5.631,1.656,7.666-.3,14.217-.231,13.646,10.665-.229,4.363,4.07,6.414,8.5,5.53,6.466-1.291,12.864-1.961,19.317-.126-.841,3.167-1.683,6.333-2.765,10.407,6.813.986,13.344,2.286,20.328,1.018,6.819-1.239,12.911.615,18.073,6.9-2.665,1.609-4.707,3.527-7.091,4.165-11.529,3.085-23.128,5.924-34.755,8.623a45.373,45.373,0,0,1-9.9.957,5.864,5.864,0,0,1-5.849-4.509,6.594,6.594,0,0,1,1.595-5.187c3.084-3.26,8.226-4.4,10.03-9.377-9.071-2.215-17.4,1.13-25.918,1.947-7.652.733-8.441-.438-7.386-10.984a52.325,52.325,0,0,0,7.777-.744c1.7-.408,4.106-1.432,4.584-2.759a8.84,8.84,0,0,0-2.971-10.515,8.7,8.7,0,0,0-10.894-.489c-3.737,2.553-3.93,6.45-1.728,10.263a37.263,37.263,0,0,0,3.632,4.546c-8.9,2.182-18.109-4.492-26.965.845,5.153,8.234,13.759,0,22.682,5.544-16.647.682-29.647,7.295-44.165,2.24-7.61-2.65-17.2.6-22.986-7.742a110.826,110.826,0,0,0-39.227-.18c-1.922.317-4.186.589-4.407,2.969-.195,2.087,1.381,3.372,3.321,4.126,1.981.77,3.054,2.16,2.6,4.4.011-.01.283-.313.283-.313-14.621-.272-29.241-.643-43.863-.779-8.465-.078-17.33,2.317-24.444-4.706-.366-.361-1.345-.753-1.478-.61-8.661,9.288-18.746,1.538-28.079,2.474-1.669.167-3.222,1.492-4.829,2.282a33.025,33.025,0,0,0,2.672,4.935c1.194,1.549,3.1,2.574,4.2,4.169,1.834,2.652-.522,7.246-3.784,7.625a19.516,19.516,0,0,1-5.937.2c-15.621-3.132-31.515-5.521-46.053-12.363-4.477-2.107-7-1.843-10.143,1.613-2.567,2.826-5.84,1.767-9.221.9-9.8-2.523-17.7-9.069-28.054-13.268-1.513,12.6-10.115,21.584-12.746,33.315-2.329,10.381,1.595,15.156,12.393,12.833,2.488-.536,4.71-2.313,6.963-3.471-.886-5.253-6.276-4.492-8.734-7.431-1.049-1.254-1.784-2.016-.748-3.36.363-.471.9-1.185,1.329-1.17,5.278.2,10.575.3,15.814.9,1.809.206,3.268,1.647,3.622,4.023a6.213,6.213,0,0,0,7,5.615c18.557-1.213,37.126,4.221,55.7-.246,3.118-.75,6.6.166,9.871-.14,5.732-.537,12.623.266,12.494-8.752,7.148-8.027,16.2-10.916,24-5.32,5.909,4.24,8.991,3,13.159-1.293a8.5,8.5,0,0,1,5.338-2.093c2.527-.106,5.539.273,6.021,3.6.662,4.572.41,9.329,1.527,13.761.737,2.923,4.148,2.5,6.751,2.261,3.155-.287,2.494-2.589,1.762-4.233-.862-1.937-1.664-4.011.081-5.319,2.921-2.187,7.639-3.106,4.086-8.342,2.755-.552,5.31-.26,7.19-3.832,2.724-5.176,7.917-6.588,13.82-4.912,6.846,1.943,13.779,3.582,23.226,6.009-10.214,3.157-17.506,7.473-25.914.612-3.294-2.687-7.988-1.31-10.727,1.944-2.013,2.393,2.57,10.307,6.447,10.709,10.975,1.142,21.661,7.468,33.13,1.762a9.71,9.71,0,0,1,7.665-.075c11.488,5.957,22.731,1.06,32.835-2.383,8-2.727,14.072-5.433,21.452.174,2.346,1.782,5.27.654,5.753-2.667.528-3.631-1.687-8.3,4.5-9.163,6.423-.9,10.144,1.942,11.723,8.029a16.312,16.312,0,0,0,.724,1.87c-1.527.934-3.09,1.819-4.576,2.819A3.167,3.167,0,0,0,346.5,437.1c.663.73,1.53,1.918,2.231,1.852A59.451,59.451,0,0,0,355.716,437.543Zm94.032-42.4c1.028-6.1-2.76-8.134-7.746-8.9a3.636,3.636,0,0,0-3.076,1.261c-.462.834-.192,3.064.365,3.31,3.5,1.547,7.178,2.711,10.8,4,.594,3.68,3.419,7.123,6.22,6.329,2.5-.711,4.646-4.006,7.894-5.051,3.206-1.031,7.686.313,9.882-4.78-4.343-1.581-8.336-3.065-11.611.056C458.685,394.98,454.482,395.566,449.748,395.145ZM62.2,311.208l-.358-.261c-.123,13.225-.032,13.387,10.416,13.266,3.966-.046,7.944-.205,11.887-.6,3.76-.377,5.75-2.7,6.028-6.494.891-12.192-1.28-24.358.059-36.605.885-8.089-1.61-10.723-9.694-12.064-4.512-.748-11.05-2.666-13.4-.5-6.345,5.845-9.583.444-14.264-1.489-3.352-1.385-4.6-4.58-7.319-6.229-1.878-1.14-3.831-.09-5.188,1.422-5.814,6.48-4.537,14.318,2.9,17.666,4.189,1.887,8.332,4.327,13.243,2.81,1.749-.541,3.87-1.97,4.79.567a42.485,42.485,0,0,1,2.89,11.4c.313,4.746-4.988,2.923-7.173,4.972-2.785,2.611-7.616,4.4-6.555,8.971,1.353,5.828,6.543,1.553,9.837,2.585C60.935,310.824,61.57,311.014,62.2,311.208Zm139.46-200.019c.781-2.372,3.838-4.408,2.04-7.039-.774-1.134-3.624-1.7-5.21-1.289-8.73,2.265-17.163,6.243-26.59,2.759-1.027-.38-3.518,1.544-4.465,2.972-1.579,2.384,1.25,3.235,2.483,4.469a5.827,5.827,0,0,0,3.332,1.9c9.805.316,19.854,2.065,28.741-4.1a54.644,54.644,0,0,0-.49,7.907c.507,6.58,2.421,8.552,8.246,8.784,1.954.077,4.174.129,5.848-.682,4.439-2.15,5.752-.394,5.871,3.825.092,3.275-.012,6.642.722,9.793,1.186,5.083,6.039,7.762,10.714,5.9,7.316-2.921,13.911-7.7,22.3-7.832,1.062-.017,2.556-2.777,3.011-4.49.771-2.9.873-5.971,1.411-10.182.638,2.519,1.017,3.751,1.258,5.011,1.76,9.184,4.734,11.748,12.673,10.243,6.348-1.2,8.28-5.881,7.524-11.653-.206-1.574-.85-2.775.882-2.988.909-.112,2.075.849,2.9,1.579.319.282.067,1.27-.007,1.927-1,8.959,3.472,13.35,11.93,14.926,5.169.964,10.163,2.849,15.324,3.873,2.83.562,4.677-1.328,6.249-3.8,3.44-5.4-.105-11.847,2.787-17.243,11.677,1.986,11.721,1.937,24.038,12.909,4.259,3.794,9.354,4.922,14.706,4.992,7.955.1,15.915-.223,23.874-.313,11.841-.134,23.683-.168,35.522-.367,2.743-.046,5.153-1.073,5.755-4.218.507-2.646-2.688-6.9-5.7-6.985-4.6-.125-9.459-.569-13.758.677-5.053,1.464-7.5,1.012-7.4-4.636a6.306,6.306,0,0,0-4.054-6.213c-5.3-2.314-10.735-4.326-16.114-6.462l.247.361c-3.91-9.693-5.253-11.539-11.647-9.675-5.61,1.635-10.15,1.443-15.261-.977-2.91-1.379-6.393-1.629-9.656-2.157-2.163-.351-3.259,1.15-4.5,2.819-3.745,5.029-4.433,5.346-7.568.982-2.313-3.22-4.831-4.336-8.216-4.075-7.057.545-15.04-.912-18.823,7.709-15.507,2.15-30.925,9.651-46.6,3.35-6.1-2.455-14.255,1-18.25-5.613-4.117-6.818-10.5-4.267-16.008-5.4-5.809-1.2-7.775,3.14-10.647,6.93C209.071,112.062,205,111.41,201.663,111.189ZM175.6,331.393c-12.42-5.648-24.747-8.913-39.432-6.293-25.017,4.464-17.88.695-20.48,24.243a14.389,14.389,0,0,0,0,1.981c.232,7.772,2.782,11.31,10.245,11.671,10.523.509,21.093.183,31.64,0,4.607-.079,7.221-3.133,8.1-7.325.942-4.5.981-9.193,2.011-13.666C168.69,337.609,176.011,337.9,175.6,331.393ZM468.328,208.1c7.986-.521,15.8-1.018,23.616-1.548,2.831-.192,5.141-1.3,5.967-4.231.782-2.775-.23-5.2-2.042-7.278-4.466-5.11-9.269-9.278-16.915-8.352-4.591.556-9.31-.038-13.948.252a6.7,6.7,0,0,0-6.679,6.176c-.406,3.254-1.091,6.9-.067,9.814,2.077,5.913-3.835,11.978.252,17.189,4.766,6.076,12.87.543,19.555,4.919-5.059.905-9.331,1.9-13.659,2.373-3.77.416-6.175,1.865-6.642,5.836-.485,4.138,1.952,5.356,5.425,6.655,10.618,3.972,21.027.2,31.508-.263,2.7-.12,5.04-1.441,5.621-4.59.634-3.435.637-6.7-2.982-8.534-5.653-2.866-12.931-3.646-13.059-12.678-.031-2.227-3.82-3.12-6.625-3.319C474.521,210.3,470.95,211.654,468.328,208.1ZM166.8,383.971a16.936,16.936,0,0,1-1.837-3.515c-3.307-13.356-3.284-13.4-16.67-13.068-3.942.1-8.029-.071-11.773.923-3.932,1.043-7.009,3.766-6.858,8.538.041,1.314.392,2.62.413,3.934.142,8.77.126,8.77-8.79,9.119-9.326.363-9.326.364-11.885,12.707,4.673-.817,9.8-.5,13.485-2.642,5.615-3.267,10.348,1.006,15.391.048a11.137,11.137,0,0,0,5.4-2.22c4.288-4.025,9.891-2.946,14.65-4.529,7.631-2.538,14.179.577,21.193,1.076,5.608.4,8.064-3.483,5.826-9.17-1.882-4.786-6.145-7.047-10.937-5.947C171.307,379.935,170.526,384.351,166.8,383.971Zm-33.114-80.824c-.347,16.084,0,16.452,16.01,16.9a83.58,83.58,0,0,0,9.8.013,5.977,5.977,0,0,0,5.672-4.583c.823-3.175,2.17-6.309,2.405-9.525,1.1-15.029-3.445-19.689-18.509-19.517-2.626.03-5.258-.1-7.878.04-4.3.225-7.647,1.6-7.511,6.825C133.754,296.581,133.684,299.865,133.684,303.147Zm-22.278-8.136-.032-.485c-3.87.288-7.791.29-11.594.961a6.521,6.521,0,0,0-5.508,5.053c-1.03,6.435-2.058,13.477,1.254,19.1,3.021,5.125,9.573,2.675,14.644,3.025a113.5,113.5,0,0,0,11.81.213c2.736-.1,5.419-1.43,6.4-3.9,2.75-6.929,3.213-14.216-.508-20.843-2.729-4.862-8.046-3.206-12.534-3.12C114.028,295.032,112.717,295.011,111.406,295.011Zm-1.634,67.019c2.212-5.239-.6-7.613-5.129-8.348-10.569-1.715-21.231-1.307-31.851-.524-2.592.19-5.283,1.414-5.651,4.62-.583,5.078,3.372,4.442,6.467,4.984,3.894.681,8.606.423,11.469,2.566C94,372,105.665,374.937,112.11,385.075c.846,1.331,3.4,2.152,5.185,2.2,4.3.1,8.927-5.546,9.627-11.163.565-4.531-2.378-7.59-8.5-8.594-2.612-.428-5.435-.091-7.863-.948C108.807,365.946,107.975,363.867,109.772,362.03ZM440.9,347.649c6.1,0,8.722-.082,11.339.02,3.941.151,5.6-2.115,6.869-5.5,3.321-8.9.275-14.169-8.93-14.474a109.2,109.2,0,0,0-13.744.533,6.95,6.95,0,0,0-6.617,6.2c-1.411,11.349.509,13.735,10.634,13.255C441.757,347.617,443.063,347.479,440.9,347.649ZM62.919,330.026c-.016-.256-.031-.512-.047-.768-3.944.422-7.924.635-11.822,1.322-4.12.726-6.961,7.328-5.9,13.057.645,3.469,5.534,7.429,8.951,6.153,5.741-2.146,11.524-2.544,17.5-2.863,5.15-.275,7.119-3.577,6.927-9.985-.142-4.72-2-6.486-7.631-6.885C68.252,329.87,65.58,330.026,62.919,330.026Zm49.5,15.881c-3.448-18.252-6.106-20.423-21.946-17.982-6.215.958-9.273,4.583-8.986,10.653.328,6.963,2.382,9.417,9.722,8.834C98.27,346.851,105.622,349.771,112.42,345.907Zm85.691,15.767c-5.591-5.507-11.367-8.335-14.315-14.15-1.544-3.047-10.87.476-11.032,4.367-.122,2.949,2.616,6.133,2.181,8.916-.394,2.52-5.689,2.486-5.414,6.8.26,4.1,3.384,8.048,7.255,7.412,3.251-.533,8.994.356,7.177-6.118-1.272-4.531.532-5.746,4.56-5.922C191.049,362.871,193.555,362.317,198.111,361.674ZM93.817,275.03c0,2.864-.041,4.169.006,5.47.3,8.154,3.111,11.276,10.019,11.162,5.591-.093,8.595-3.549,8.425-10.648a105.37,105.37,0,0,0-1.651-15.432c-.469-2.7-2.794-4.066-5.592-4.514-6.577-1.056-9.969,1.312-10.714,7.728C94.01,271.381,93.9,273.987,93.817,275.03ZM482.168,246.1c-1.323,0-2.656-.105-3.968.017-7.059.654-8.982,3.019-8.478,10.3.383,5.534,2.591,7.336,9.268,7.514a36.452,36.452,0,0,0,3.967-.079c5.41-.449,7.273-2.962,7.121-9.517C489.918,247.458,488.529,245.99,482.168,246.1ZM61.274,264c3.348-.072,6.742.312,9.42-2.228,2.792-2.649,2.226-6.068,1.8-9.285a6.68,6.68,0,0,0-6.684-6.151c-3.774-.192-7.978-1.682-11.153,1.761-2.147,2.327-2.178,10.343-.342,13.264C56.011,264.055,58.776,263.719,61.274,264Zm33.473-9.116c5.2,0,10.416.26,15.579-.158a3.294,3.294,0,0,0,2.735-4.286c-.35-1.06-1.2-2.5-2.1-2.749C102.1,245.253,93,245.049,83.9,245.305a5.224,5.224,0,0,0-5.321,4.619c-.5,3.311,1.706,4.7,4.449,4.894C86.914,255.093,90.837,254.888,94.747,254.887Zm351.625.519c4.141-.2,9.414-.3,14.648-.793,1.809-.172,3.677-1.213,3.816-3.576a4.77,4.77,0,0,0-4.461-5.414,72.893,72.893,0,0,0-29.091,2.408,2.14,2.14,0,0,0-1.394,3.18c.456,1.1.967,2.5,1.879,3.018C436.044,256.633,440.75,254.817,446.372,255.406Zm-78.427,97.219c-7.695-4.559-12.8,2.516-19.031,4.15A2.358,2.358,0,0,0,347.86,361a3.818,3.818,0,0,0,3.425.76C356.871,358.891,362.319,355.751,367.945,352.625ZM73.49,371.88c-.45-.66-.681-1.367-1.159-1.639-3.567-2.03-6.062.393-8.442,2.394-.781.655-1.351,3.027-.993,3.307,1.351,1.058,3.329,2.448,4.695,2.124C70.642,377.341,73.77,375.93,73.49,371.88ZM209.457,141.041c2.166-.5,4.355-.473,5.77-1.5a6.785,6.785,0,0,0,2.438-4.623c.138-3.074-2.434-4.1-5.017-4.429-3.865-.489-7.873-.391-9.881,3.558-.555,1.091.681,3.711,1.845,4.887C205.8,140.13,207.91,140.418,209.457,141.041ZM122.815,291.7c5.348-.367,7.432-2.442,7.075-4.788-.462-3.039-2.667-4.116-5.277-4.319-3.224-.25-6.862,3.549-5.7,5.841A6.125,6.125,0,0,0,122.815,291.7Zm215.979-155.46c.366-3.3-1.5-4.794-4.283-5.451-3.416-.806-6.669-.584-8.558,2.864-1.377,2.513,1.614,6.251,5.293,6.732C334.751,140.846,337.69,140.1,338.794,136.242ZM220.169,400.369c5.054,1.994,10.086,4.5,15.025-.761Zm-55.8,35.23c2.472,4.659,7.255,4.813,11.547,5.7.648.135,2.173-1.408,2.377-2.368a3.86,3.86,0,0,0-1.119-3.329C173.006,432.892,168.657,432.575,164.368,435.6ZM92.433,397.225a14.1,14.1,0,0,0-.229-1.7c-2.544.04-5.164-.172-7.61.377-2.74.615-1.754,3.055-1.406,4.837.164.833,1.068,1.521,1.637,2.274Zm5.757-5.381a27.734,27.734,0,0,0,3.771-.826c1.958-.71,3.154-2.3,2.621-4.313-.793-3-2.911-1.185-4.484-.772a8.783,8.783,0,0,0-3.5,1.545c-.783.68-1.034,1.973-1.521,3Q96.629,391.162,98.19,391.844Zm229.973,51.087c3-.017,5.165-1.118,5.2-3.008.034-1.928-2.189-3.354-4.261-2.718-1.8.554-3.334,2-4.984,3.049Zm-131.624-5.042c-.485-.748-.837-1.979-1.585-2.308-1.824-.8-3.451-.133-4.566,1.58,1.031.633,2.059,1.27,3.094,1.9C194.892,439.912,195.9,439.565,196.539,437.889Zm-13.99-5.407c.431.766.909,1.62,1.389,2.473.442-.437,1.318-.973,1.245-1.292a12.261,12.261,0,0,0-1.247-2.636Z"/><path class="a" d="M314.263,421.106c-11.6-.248-22.748,10.787-35.025.488,3.591-3.333,8.526-.457,12.39-2.331a48.169,48.169,0,0,1,11.3-3.654C307.87,414.6,312.086,415.921,314.263,421.106Z"/><path class="a" d="M102.986,426.3c-6.991.694-11.73-1.225-10.14-4.071,2.365-4.235,6.609-3.248,10.274-3.333a24.642,24.642,0,0,1,7.636,1.3c.947.292,1.634,1.758,2.221,2.811.877,1.574.285,2.662-1.526,2.819C108.882,426.05,106.3,426.125,102.986,426.3Z"/><path class="a" d="M269.767,406.751c.247,2.046-.547,3.952-2.535,4.035-4.822.2-9.824.469-13.606-3.562-.009.011-.281.314-.292.324q8.379-.2,16.778-.425Z"/><path class="a" d="M270.112,407.123c-.413-5.141,1.208-7.265,6.493-4.653,1.383.683,2.347,1.255,2.033,2.77-.069.336-.911.665-1.431.73-2.474.311-4.959.53-7.44.781Z"/><path class="a" d="M479.649,303.855c3.217.147,6.915,5,6.051,8.262-.178.669-2.05,1.633-2.419,1.386a29.681,29.681,0,0,1-5.765-4.841c-.441-.5.446-2.275.89-3.4C478.622,304.715,479.222,304.319,479.649,303.855Z"/><path class="a" d="M377.779,202.851c-.693,5.4-4.128,5.217-8.085,3.963l.311.32a7.518,7.518,0,0,1,8.04-3.942Z"/><path class="a" d="M369.694,206.814c.993,3.429-.611,4.515-3.781,4.189l.027.03c.125-2.582,1.744-3.606,4.065-3.9Z"/><path class="b" d="M370.005,207.134c-2.321.293-3.94,1.317-4.065,3.9-8.7.744-13.187,5.288-12.9,14.212.107,3.316,0,6.64.127,9.955.207,5.468,3,8.424,8.571,8.878a17.126,17.126,0,0,1,5.672,1.58c2.643,1.224,3.048,7.033.751,8.61a11.347,11.347,0,0,1-1.616,1.018c-4.085,1.885-9.7.82-12.193,5.687-2.61,5.1-1.827,10.56.636,15.362,4.333,8.448-3.462,11.488-6.427,17.545-2.746-3.007-4.821-5.4-7.029-7.664-3.118-3.2-3.953-6.518-1.839-10.758a21.605,21.605,0,0,0,1.746-7.646c.5-5.683-1.732-8.7-7.4-9.834a36.189,36.189,0,0,0-9.851-.813,6.789,6.789,0,0,0-6.522,6.385,109.835,109.835,0,0,0-.051,11.873c.041,2.638.517,5.3.274,7.9-.326,3.482-6.331,9.724-8.917,9.733-2.486.008-7.961-6.73-7.467-10.523.863-6.633,1.357-13.19.352-19.8-.688-4.526-3.433-7.01-8.016-7.266a73.811,73.811,0,0,0-7.968-.086c-6.157.326-8.528,2.559-8.865,8.32-.311,5.32-.448,10.666,1.673,15.715,2.336,5.56-1.831,8.6-4.636,12.1-1.336,1.666-3.4,2.081-4.91.272-3.177-3.817-9-6.623-5.446-13.3a19.062,19.062,0,0,0,2.063-5.565c2.458-14.146-1.348-18.4-15.543-17.575-5.759.333-8.823,2.544-9.906,7.755-1.074,5.169-2.037,10.325.444,15.559,2.949,6.222-2.456,9.673-5.414,13.738a3.117,3.117,0,0,1-5.047-.034c-3.069-4.526-10.1-7.825-5.223-15.206.663-1,.5-2.58.643-3.9,1.485-14.063-3.523-18.5-17.046-15.369-4.572,1.06-6.916,3.71-6.837,8.292.058,3.3.515,6.6.824,9.889a37.18,37.18,0,0,1,.574,5.893c-.175,2.527-6.822,9.487-9.041,9.886-2.845.511-8.5-7.81-8.071-12.114.127-1.281.986-2.473,1.27-3.759,3.086-13.973,3.053-13.936-11.561-21.162-1.69-.835-3.655-2.3-2.855-4.582a10.985,10.985,0,0,1,3.231-4.379,7.022,7.022,0,0,1,3.747-1.113c6.489-.622,9.234-4.523,9.481-10.63.134-3.319.179-6.642.183-9.963.005-3.12,1.713-4.595,4.521-5.52.987-.325,2.46-2.136,2.244-2.645-1.047-2.461-3.312-1.793-4.868-.769-3.331,2.192-6.249.977-9.276-.452-2.372-2.268-4.683-4.668-8.473-3.567.557-3.223-.611-4.718-4-3.991.695-3.341-1.04-4.283-3.983-4.033.766-6.375-4.617-6.51-8.4-8.276-1.525-.713-2.807-.309-2.962,1.33-.167,1.754-.087,4.981.477,5.117a92.227,92.227,0,0,0,11.179,1.519c0,2.659,1.6,3.73,3.994,4,.173,2.514,1.393,3.979,4.03,4.028,1.611,4.054,4.853,4.2,8.44,3.52.306,8.7-5.071,14.779-9.717,21.239-2.737,3.8-6.643,3.671-10.639,4.132-1.574.181-2.922,1.9-.034,3.391,1.6.827,3.71,2.744,3.734,4.2.179,10.61-.3,21.228-3.8,31.39-1.24,3.6-4.548,5.029-8.017,4.564-9.223-1.235-18.5-2.415-27.543-4.532-7.334-1.717-11.195-7.149-10.356-14.737,1.011-9.152-1.179-18.805,3.865-27.416,1.323-2.26-.3-3.7-2.063-4.639-2.2-1.172-3.929.2-4.86,1.916-1.832,3.379-1.826,8.282-6.555,9.228-5.122,1.024-10.974,3.2-15.387-.63-5.664-4.918-11.437-3.48-16.753-1.146C64.2,245.859,54.932,242.862,45.52,239.4c-2.865-1.054-3.731-3.482-3.7-6.311.032-2.7.254-5.324,3.265-6.585a36.528,36.528,0,0,0,3.6-1.723c8.347-4.633,11.14-8.951,7.205-16.951-3.265-6.639-2.405-12.663-2.3-19.22,7.235-3.136,14.629-1.492,21.861-1.655,5.165-.116,6.741,3.314,6.857,7.751.087,3.32.4,6.721-.169,9.951-1.022,5.852,8.584,10.347,2.611,16.127-4.615,4.467-11.638,1.015-17.311,2.867-.307.1-.5.548-.769.861,3.227,2.837,7.252,2.856,11.159,3,3.507.128,6.421,1.456,9.965,4.7.62-5.841.138-11.066,1.9-15.371,2.067-5.04,1.246-8.229-1.827-12.371-2.354-3.175-1.694-7.7-.61-11.633.729-2.647,2.188-5.163,5.26-5.135,9.534.089,18.729-4.267,24.345-2.793a31.034,31.034,0,0,1-7.463-.124c-3.876-.588-8.048-3.86-11.307-3-10.037,2.655-19.878.141-29.772.488-1.331.046-2.666.159-4,.111-16.915-.612-17.964-1.895-17.293-18.443.206-5.1,1.139-9.121,6.573-10.844,3.389-1.075,4.81-4.159,6.922-6.719,4.331-5.248,6.774-5.142,11.333-.709,1.783,1.732,3.743,5.544,4.881,5.274,4.291-1.013,9.257-1,12.525-4.751,3.92-4.5,7.472-9.364,11.69-13.561,2.359-2.347,5.853-3.5,8.733-.247,2.657,3,2.142,7.478-1.244,10.391a61.319,61.319,0,0,1-6.432,4.3c-4.217.605-4.374,3.5-3.753,6.763a3.33,3.33,0,0,0,.962,1.471c.879.918,1.932.527,2.172-1.2a67.978,67.978,0,0,0,.279-7.332c13.858.308,27.724,2.653,41.555-.08.936-.185,1.591-1.794,2.377-2.74-1.066-.647-2.11-1.783-3.2-1.833-1.944-.089-3.913.683-5.88.734-4.63.12-9.274.187-13.9-.036-2.927-.142-5.09-1.936-4.735-5a6.207,6.207,0,0,1,4.821-5.661,32.789,32.789,0,0,1,7.867-.724c8.4.317,8.108.127,15.443-7.432,4.5-4.643,11.106-8.222,17.166-6.294,8.011,2.548,15.783,1.09,23.567,1.313,11.327.325,13.447,7.539,11.578,16.034-.792,3.6-3.7,6.743-5.66,10.123,5.868,3.776,13.356-1.905,19.913,4.02-8.261,5.408-15.241,12.121-26.111,11.684-3.846-.155-7.863,1.306-8.32,6.43-4.145-1.762-6.582.132-8.185,3.815-3.94-.181-8.061.134-8.694-5.507-.7-6.24.721-12.921-4.833-22.121,1.088,15.775-1.285,27.942,1.973,39.989-8.127,1.848-17.009-1.8-24.663,3.409-5.312,12.08-5.118,17.566,2.374,25.256,3.477,3.569,3.377,6.756,1.455,10.464a23.112,23.112,0,0,1-3.746,4.554c-2.459,2.69-.993,5.947,1.1,6.385,5.927,1.237,11.567,5.089,19.007,3.511-14.7-11.114-14.7-11.11-5.771-26.46a7.106,7.106,0,0,0,.283-2.315L135.3,206.257c-.612-6.8-1.189-13.209-1.759-19.61,6.2-.035,12.4-.128,18.6-.095a6.219,6.219,0,0,0,6.034-3.342c2.643-1.627,5.325-3.2,7.919-4.9,2.686-1.763,4.866-3.855,3.6-7.541,3.746.882,6.97.663,8.159-3.856,9.241-3.322,13.925,4.529,20.285,8.269l-.337-.367c-.363,3.716-.081,7.106,4.274,8.433l-.327-.4c.187,2.728,1.459,4.367,4.374,4.356l-.367-.367c.033,2.87,1.423,4.382,4.356,4.352l-.31-.392c3.228,7.7-5.4,11.031-6.881,16.929,3.852,2.264,6.878-.417,10.1-.291,7.2.283,12.263-1.709,15.161-9.64,2.038-5.579,10.164-4.032,13.077,2.982,1.85,4.455,4.011,6.511,8.48,6.4,3.317-.081,6.642-.295,9.938-.668,3.774-.427,5.845-2.863,6.446-6.458.437-2.616.57-5.285.774-7.936.365-4.759-1.64-7.863-6.613-7.755-8.756.19-11.624-4.644-11.632-12.474,0-3.283.034-6.686-2.853-9.116l.249.5a34.4,34.4,0,0,1-.268-3.978c.644-14.305,2.2-16.016,16.158-16.118,8.592-.062,17.282-1.272,25.743,1.522,5.912,1.952,7.629,4.007,7.383,9.957-.275,6.641-.611,13.284-1.136,19.909-.571,7.215-1.7,8.322-9.821,9.539-3.151.473-7.488-.743-8.568,3.055-1.686,5.931.1,11.858,2.829,17.3a4.636,4.636,0,0,0,3.227,1.916,110.516,110.516,0,0,0,11.92.782c4.408.03,7.734-1.574,8.158-6.654a5.987,5.987,0,0,1,4.583-5.679c3.72-1.167,3.532-4.08.593-5.04-8.741-2.856-10.748-8.728-8.972-16.835,1.137-5.192,2.392-10.359,3.667-15.519,1.653-6.685,4.386-8.54,11.217-6.977,5.809,1.329,11.5,3.192,17.235,4.819l-.312-.329c1.786,1.849,3.244,4.6,5.416,5.391,9.977,3.632,9.731,10.643,6.963,18.775-5.2,2.378-9.09,5.61-7.877,12.147-4.631,2.447-9.251,4.188-14.819,3.631-3.483-.348-5.09,4.085-2.924,7.142,1.1,1.548,2.423,3.708,3.97,4.03,6.63,1.382,13.381,2.184,20.089,3.2-4.6-6.009-9.631-10.545-6.672-18.281,5.332-2.305,8.568-5.967,7.881-12.169,2.024-1.516,4.8-2.609,5.937-4.625,4.337-7.659,11.03-8.15,18.5-7.016l-.4-.329c-.365,3.251,1.853,3.948,4.336,4.384l-.358-.33c1.659,2.021,3,4.489,5.065,5.937,2.009,1.412,4.868,2.681,7.144,2.387,3.017-.391,3.144-3.635,3.171-6.319.061-5.967-.1-11.951.3-17.9.385-5.7,3.194-8.049,9.157-8.057,15.883-.022,31.766.084,47.649.14l-.359-.365c-.152,7.207-.155,14.421-.488,21.62-.619,13.363-2.395,15.788-14.529,14.993-6.709-.439-12.979,1.422-19.512,1.252s-13.08-.038-20.659-.038c2.377,8.655-6.04,12.13-8.631,18.642A7.518,7.518,0,0,0,370.005,207.134Zm-56.214,12.007a13.135,13.135,0,0,0-.361-3.695c-.772-1.94-2.436-3.053-4.528-2.336a4.127,4.127,0,0,0-2.488,2.4c-.4,2.009.794,3.642,2.654,4.479,1.936.871,3.63.163,5.056-1.291.5,5.826.71,11.694,1.6,17.459.5,3.24,2.429,6.3,5.916,7.139,5.129,1.236,10.377,1.355,15.379-.765,1.131-.479,2.538-1.375,2.907-2.405,2.047-5.717,1.534-11.628-.435-17.137-1.591-4.455-6.115-4.1-10.045-4.055C324.225,218.99,319.007,219.07,313.791,219.141ZM202.26,229.734c-.254,11.857,1.677,13.994,10.963,14.268,10.341.306,13.373-2.413,13.726-12.307.381-10.66-1.16-12.215-12.62-12.623a34.647,34.647,0,0,0-5.951.076c-2.758.382-5.041,1.72-5.53,4.745C202.426,226.505,202.314,229.168,202.26,229.734Zm91.289-10.526c-4.654,0-5.987-.078-7.309.013-7.464.516-10.636,4.116-9.773,11.553.531,4.587,1.1,9.561,6.26,11.51a19.728,19.728,0,0,0,13.639-.006,7.432,7.432,0,0,0,4.062-3.883,24.11,24.11,0,0,0,.173-15.633c-.449-1.442-2.762-2.66-4.472-3.255C294.32,218.877,292.21,219.112,293.549,219.208Zm-51.866,7.113c0,4.554-.059,5.875.01,7.191.407,7.787,3.014,10.007,11.394,9.721a25.042,25.042,0,0,0,3.939-.281c7.793-1.528,12.745-14.718,7.783-20.842A5.9,5.9,0,0,0,261.591,220a69.3,69.3,0,0,0-9.819-.873C243.259,218.98,241.758,220.6,241.683,226.321ZM110.135,208.086c-1.394.178-3.288.336-5.137.711-.515.1-1.008.791-1.322,1.322-.942,1.593-.494,2.286,1.153,2.491,3.09.385,6.144,1.141,9.238,1.331.685.042,2-1.6,2.066-2.526a3.7,3.7,0,0,0-1.769-2.784C113.337,208.07,111.9,208.269,110.135,208.086ZM349.7,251.048l-1.116-3.17c-1.071.411-2.713.531-3.1,1.291a2.5,2.5,0,0,0,1.894,3.864C348.017,253.142,348.912,251.755,349.7,251.048ZM233.969,247.7l-3.076,1.2c.534,1.028.811,2.536,1.654,2.988,1.878,1.006,3.556.227,3.661-2.014C236.24,249.181,234.76,248.424,233.969,247.7ZM112.061,169.3c-.1-.484-.047-1.235-.328-1.392a2.189,2.189,0,0,0-1.725-.147c-1.606.729-1.46,1.58.4,2.067C110.878,169.955,111.505,169.5,112.061,169.3Z"/><path class="b" d="M201.66,111.189c3.337.221,7.411.873,9.43-1.79,2.872-3.79,4.838-8.126,10.647-6.93,5.511,1.135,11.891-1.416,16.008,5.4,4,6.615,12.147,3.158,18.25,5.613,15.672,6.3,31.09-1.2,46.6-3.35,3.783-8.621,11.766-7.164,18.823-7.709,3.385-.261,5.9.855,8.216,4.075,3.135,4.364,3.823,4.047,7.568-.982,1.244-1.669,2.34-3.17,4.5-2.819,3.263.528,6.746.778,9.656,2.157,5.111,2.42,9.651,2.612,15.261.977,6.394-1.864,7.737-.018,11.642,9.667-8.264-2.812-16.526,1.2-24.887-.007-3.14-.453-9.57-3.21-9.623,2-.067,6.6,5.822,1.388,8.869,1.686,6.477.633,13.066.094,19.609.082a5.555,5.555,0,0,0,5.79-4.111c5.379,2.136,10.813,4.148,16.114,6.462a6.306,6.306,0,0,1,4.054,6.213c-.105,5.648,2.346,6.1,7.4,4.636,4.3-1.246,9.158-.8,13.758-.677,3.013.083,6.208,4.339,5.7,6.985-.6,3.145-3.012,4.172-5.755,4.218-11.839.2-23.681.233-35.522.367-7.959.09-15.919.416-23.874.313-5.352-.07-10.447-1.2-14.706-4.992-12.317-10.972-12.361-10.923-24.038-12.909-2.892,5.4.653,11.839-2.787,17.243-1.572,2.468-3.419,4.358-6.249,3.8-5.161-1.024-10.155-2.909-15.324-3.873-8.458-1.576-12.93-5.967-11.93-14.926.074-.657.326-1.645.007-1.927-.826-.73-1.992-1.691-2.9-1.579-1.732.213-1.088,1.414-.882,2.988.756,5.772-1.176,10.449-7.524,11.653-7.939,1.5-10.913-1.059-12.673-10.243-.241-1.26-.62-2.492-1.258-5.011-.538,4.211-.64,7.286-1.411,10.182-.455,1.713-1.949,4.473-3.011,4.49-8.391.13-14.986,4.911-22.3,7.832-4.675,1.866-9.528-.813-10.714-5.9-.734-3.151-.63-6.518-.722-9.793-.119-4.219-1.432-5.975-5.871-3.825-1.674.811-3.894.759-5.848.682-5.825-.232-7.739-2.2-8.246-8.784a54.644,54.644,0,0,1,.49-7.907Z"/><path class="b" d="M62.2,311.208c-.633-.194-1.268-.384-1.9-.582-3.294-1.032-8.484,3.243-9.837-2.585-1.061-4.569,3.77-6.36,6.555-8.971,2.185-2.049,7.486-.226,7.173-4.972a42.485,42.485,0,0,0-2.89-11.4c-.92-2.537-3.041-1.108-4.79-.567-4.911,1.517-9.054-.923-13.243-2.81-7.437-3.348-8.714-11.186-2.9-17.666,1.357-1.512,3.31-2.562,5.188-1.422,2.716,1.649,3.967,4.844,7.319,6.229,4.681,1.933,7.919,7.334,14.264,1.489,2.349-2.164,8.887-.246,13.4.5,8.084,1.341,10.579,3.975,9.694,12.064-1.339,12.247.832,24.413-.059,36.605-.278,3.8-2.268,6.117-6.028,6.494-3.943.4-7.921.555-11.887.6-10.448.121-10.539-.041-10.418-13.267q1.506-1.016,3.016-2.026c-.813-.255-1.759-.9-2.411-.684C61.126,308.683,61.12,309.9,62.2,311.208Z"/><path class="b" d="M442.223,147.088c-2.144-3.015-5.9-2.621-8.725-4.139-3.722-2-4.374-6.407-1.741-10.012,2.118-2.9,6.022-3.6,8.62-1.037A146.9,146.9,0,0,1,451,143.613c6.141,7.517,11.066,8.257,18.821,2.463,6.57-4.91,6.825-5.112,12,1.469,1.659,2.111,2.981,4.524,5.508,5.208,5.525,1.494,6.873,5.027,6.84,10.339-.112,17.907-.757,18.689-19.053,19.281-5.291.172-10.575.583-15.866.715-6.925.172-11.331-2.91-12.622-9.732-.976-5.151-.866-10.51-1.2-15.78-.249-3.932.091-8.04-3.558-10.851Z"/><path class="b" d="M175.6,331.393c.411,6.5-6.91,6.216-7.922,10.612-1.03,4.473-1.069,9.167-2.011,13.666-.878,4.192-3.492,7.246-8.1,7.325-10.547.182-21.117.508-31.64,0-7.463-.361-10.013-3.9-10.245-11.671a14.389,14.389,0,0,1,0-1.981c2.6-23.548-4.537-19.779,20.48-24.243C150.853,322.48,163.18,325.745,175.6,331.393Z"/><path class="b" d="M377.992,362.974c-.6-3.266-1.305-6.517-1.8-9.8-1.718-11.521-1.69-11.525-9.108-20.773,11.728-7.043,23.8-10.918,37.425-6.431.61.2,1.341,0,1.979.153,6.206,1.434,15.13-2.36,18.179,4.537,3.709,8.388,2.492,18.223.557,27.38-.569,2.695-3.121,4.384-5.868,4.639a177.855,177.855,0,0,1-17.859,1c-7.963-.066-15.922-.67-23.879-1.039ZM418.5,346.049c-.236-.418-.373-1.054-.728-1.217-1.306-.6-2.4-.1-2.518,1.329-.062.786.684,1.636,1.067,2.457Q417.412,347.334,418.5,346.049Z"/><path class="b" d="M468.328,208.1c2.622,3.55,6.193,2.2,9.326,2.421,2.805.2,6.594,1.092,6.625,3.319.128,9.032,7.406,9.812,13.059,12.678,3.619,1.836,3.616,5.1,2.982,8.534-.581,3.149-2.919,4.47-5.621,4.59-10.481.464-20.89,4.235-31.508.263-3.473-1.3-5.91-2.517-5.425-6.655.467-3.971,2.872-5.42,6.642-5.836,4.328-.477,8.6-1.468,13.659-2.373-6.685-4.376-14.789,1.157-19.555-4.919-4.087-5.211,1.825-11.276-.252-17.189-1.024-2.916-.339-6.56.067-9.814a6.7,6.7,0,0,1,6.679-6.176c4.638-.29,9.357.3,13.948-.252,7.646-.926,12.449,3.242,16.915,8.352,1.812,2.073,2.824,4.5,2.042,7.278-.826,2.933-3.136,4.039-5.967,4.231C484.13,207.086,476.314,207.583,468.328,208.1Z"/><path class="b" d="M198.14,175.183c-.534-3.894-1.4-8.011,2.5-10.711,9.135-6.323,18.423-12.4,29.736-14.225,7.026-1.137,8.759.02,12.525,8.21a37.581,37.581,0,0,0,3.153,4.82l-.25-.5c.176,5.86.494,11.72.462,17.579-.015,2.6-.789,5.144-3.742,6.2-7.387,2.637-14.755,5.332-22.152,7.942-4.465,1.575-7.349-1.587-10.566-3.695l.309.392a4.215,4.215,0,0,0-4.355-4.352l.367.367c-.237-2.677-1.42-4.405-4.374-4.356l.327.4c.3-3.685.014-7.072-4.274-8.432Z"/><path class="b" d="M166.8,383.971c3.728.38,4.509-4.036,7.606-4.746,4.792-1.1,9.055,1.161,10.937,5.947,2.238,5.687-.218,9.569-5.826,9.17-7.014-.5-13.562-3.614-21.193-1.076-4.759,1.583-10.362.5-14.65,4.529a11.137,11.137,0,0,1-5.4,2.22c-5.043.958-9.776-3.315-15.391-.048-3.688,2.146-8.812,1.825-13.485,2.642,2.559-12.343,2.559-12.344,11.885-12.707,8.916-.349,8.932-.349,8.79-9.119-.021-1.314-.372-2.62-.413-3.934-.151-4.772,2.926-7.5,6.858-8.538,3.744-.994,7.831-.825,11.773-.923,13.386-.335,13.363-.288,16.67,13.068A16.936,16.936,0,0,0,166.8,383.971Z"/><path class="b" d="M133.684,303.147c0-3.282.07-6.566-.016-9.846-.136-5.23,3.209-6.6,7.511-6.825,2.62-.137,5.252-.01,7.878-.04,15.064-.172,19.608,4.488,18.509,19.517-.235,3.216-1.582,6.35-2.405,9.525a5.977,5.977,0,0,1-5.672,4.583,83.58,83.58,0,0,1-9.8-.013C133.679,319.6,133.337,319.231,133.684,303.147Z"/><path class="b" d="M405.714,391.083c-6.453-1.835-12.851-1.165-19.317.126-4.432.884-8.731-1.167-8.5-5.53.571-10.9-5.98-10.968-13.646-10.665-1.822.072-3.69-1.052-5.631-1.656,2.237-11.588,10.912-10.789,19.377-10.381l-.372-.336c.287,1.7-.568,4.147,2.339,4.271,7.13.3,14.283.228,21.392.772,7.362.564,9.5,3.911,9.662,11.758.108,5.192-3.018,8.31-5.681,11.9Z"/><path class="b" d="M111.406,295.011c1.311,0,2.622.021,3.933,0,4.488-.086,9.805-1.742,12.534,3.12,3.721,6.627,3.258,13.914.508,20.843-.982,2.474-3.665,3.809-6.4,3.9a113.5,113.5,0,0,1-11.81-.213c-5.071-.35-11.623,2.1-14.644-3.025-3.312-5.619-2.284-12.661-1.254-19.1a6.521,6.521,0,0,1,5.508-5.053c3.8-.671,7.724-.673,11.594-.961Z"/><path class="b" d="M109.772,362.03c-1.8,1.837-.965,3.916.791,4.536,2.428.857,5.251.52,7.863.948,6.118,1,9.061,4.063,8.5,8.594-.7,5.617-5.324,11.268-9.627,11.163-1.787-.044-4.339-.865-5.185-2.2C105.665,374.937,94,372,85.077,365.328c-2.863-2.143-7.575-1.885-11.469-2.566-3.095-.542-7.05.094-6.467-4.984.368-3.206,3.059-4.43,5.651-4.62,10.62-.783,21.282-1.191,31.851.524C109.173,354.417,111.984,356.791,109.772,362.03Z"/><path class="b" d="M330,155.278c1.136-4.081.513-9.364,7.35-9.092,11.226.448,22.477.347,33.695.915,8.633.437,11.377,3.712,11.628,12.463.291,10.142-.292,10.653-12.936,11.332l.357.33c.262-3.15-1.571-4.228-4.336-4.384l.4.33c-1.19-1.391-2.174-3.708-3.6-4.024-9.979-2.212-19.523-5.723-29.161-8.984-1.03-.348-2.462.5-3.707.785Z"/><path class="b" d="M440.9,347.649c2.167-.17.861-.032-.449.03-10.125.48-12.045-1.906-10.634-13.255a6.95,6.95,0,0,1,6.617-6.2,109.2,109.2,0,0,1,13.744-.533c9.205.305,12.251,5.576,8.93,14.474-1.266,3.39-2.928,5.656-6.869,5.5C449.618,347.567,446.993,347.649,440.9,347.649Z"/><path class="b" d="M62.919,330.026c2.661,0,5.333-.156,7.981.031,5.628.4,7.489,2.165,7.631,6.885.192,6.408-1.777,9.71-6.927,9.985-5.976.319-11.759.717-17.5,2.863-3.417,1.276-8.306-2.684-8.951-6.153-1.064-5.729,1.777-12.331,5.9-13.057,3.9-.687,7.878-.9,11.822-1.322C62.888,329.514,62.9,329.77,62.919,330.026Z"/><path class="b" d="M112.42,345.907c-6.8,3.864-14.15.944-21.21,1.5-7.34.583-9.394-1.871-9.722-8.834-.287-6.07,2.771-9.695,8.986-10.653C106.314,325.484,108.972,327.655,112.42,345.907Z"/><path class="b" d="M198.111,361.674c-4.556.643-7.062,1.2-9.588,1.308-4.028.176-5.832,1.391-4.56,5.922,1.817,6.474-3.926,5.585-7.177,6.118-3.871.636-7-3.314-7.255-7.412-.275-4.317,5.02-4.283,5.414-6.8.435-2.783-2.3-5.967-2.181-8.916.162-3.891,9.488-7.414,11.032-4.367C186.744,353.339,192.52,356.167,198.111,361.674Z"/><path class="b" d="M93.817,275.03c.08-1.043.193-3.649.493-6.234.745-6.416,4.137-8.784,10.714-7.728,2.8.448,5.123,1.811,5.592,4.514a105.37,105.37,0,0,1,1.651,15.432c.17,7.1-2.834,10.555-8.425,10.648-6.908.114-9.719-3.008-10.019-11.162C93.776,279.2,93.817,277.894,93.817,275.03Z"/><path class="b" d="M201.994,110.865c-8.887,6.166-18.936,4.417-28.741,4.1a5.827,5.827,0,0,1-3.332-1.9c-1.233-1.234-4.062-2.085-2.483-4.469.947-1.428,3.438-3.352,4.465-2.972,9.427,3.484,17.86-.494,26.59-2.759,1.586-.412,4.436.155,5.21,1.289,1.8,2.631-1.259,4.667-2.042,7.039Z"/><path class="b" d="M482.168,246.1c6.361-.113,7.75,1.355,7.91,8.239.152,6.555-1.711,9.068-7.121,9.517a36.452,36.452,0,0,1-3.967.079c-6.677-.178-8.885-1.98-9.268-7.514-.5-7.285,1.419-9.65,8.478-10.3C479.512,246,480.845,246.1,482.168,246.1Z"/><path class="b" d="M61.274,264c-2.5-.284-5.263.052-6.955-2.639-1.836-2.921-1.8-10.937.342-13.264,3.175-3.443,7.379-1.953,11.153-1.761A6.68,6.68,0,0,1,72.5,252.49c.422,3.217.988,6.636-1.8,9.285C68.016,264.315,64.622,263.931,61.274,264Z"/><path class="b" d="M94.747,254.888c-3.91,0-7.833.2-11.722-.07-2.743-.193-4.947-1.583-4.449-4.894a5.224,5.224,0,0,1,5.321-4.619c9.1-.256,18.206-.052,27.062,2.389.9.249,1.752,1.689,2.1,2.749a3.294,3.294,0,0,1-2.735,4.286C105.163,255.147,99.944,254.887,94.747,254.888Z"/><path class="b" d="M446.372,255.406c-5.622-.589-10.328,1.227-14.6-1.177-.912-.514-1.423-1.922-1.879-3.018a2.14,2.14,0,0,1,1.394-3.18,72.893,72.893,0,0,1,29.091-2.408,4.77,4.77,0,0,1,4.461,5.414c-.139,2.363-2.007,3.4-3.816,3.576C455.786,255.111,450.513,255.206,446.372,255.406Z"/><path class="b" d="M449.747,395.146c4.735.42,8.938-.166,12.725-3.774,3.275-3.121,7.268-1.637,11.611-.056-2.2,5.093-6.676,3.749-9.882,4.78-3.248,1.045-5.389,4.34-7.894,5.051-2.8.794-5.626-2.649-6.22-6.329Z"/><path class="b" d="M362.48,395.348a37.263,37.263,0,0,1-3.632-4.546c-2.2-3.813-2.009-7.71,1.728-10.263a8.7,8.7,0,0,1,10.894.489,8.84,8.84,0,0,1,2.971,10.515c-.478,1.327-2.881,2.351-4.584,2.759a52.325,52.325,0,0,1-7.777.744Z"/><path class="b" d="M367.945,352.625c-5.626,3.126-11.074,6.266-16.66,9.134a3.818,3.818,0,0,1-3.425-.76,2.358,2.358,0,0,1,1.054-4.224C355.144,355.141,360.25,348.066,367.945,352.625Z"/><path class="b" d="M73.49,371.88c.28,4.05-2.848,5.461-5.9,6.186-1.366.324-3.344-1.066-4.695-2.124-.358-.28.212-2.652.993-3.307,2.38-2,4.875-4.424,8.442-2.394C72.809,370.513,73.04,371.22,73.49,371.88Z"/><path class="b" d="M209.457,141.041c-1.547-.623-3.657-.911-4.845-2.111-1.164-1.176-2.4-3.8-1.845-4.887,2.008-3.949,6.016-4.047,9.881-3.558,2.583.327,5.155,1.355,5.017,4.429a6.785,6.785,0,0,1-2.438,4.623C213.812,140.568,211.623,140.536,209.457,141.041Z"/><path class="b" d="M450.087,394.818c-3.618-1.291-7.291-2.455-10.8-4-.557-.246-.827-2.476-.365-3.31A3.636,3.636,0,0,1,442,386.245c4.986.766,8.774,2.8,7.745,8.9Z"/><path class="b" d="M122.815,291.7a6.125,6.125,0,0,1-3.9-3.266c-1.164-2.292,2.474-6.091,5.7-5.841,2.61.2,4.815,1.28,5.277,4.319C130.247,289.26,128.163,291.335,122.815,291.7Z"/><path class="b" d="M338.794,136.242c-1.1,3.857-4.043,4.6-7.548,4.145-3.679-.481-6.67-4.219-5.293-6.732,1.889-3.448,5.142-3.67,8.558-2.864C337.3,131.448,339.16,132.944,338.794,136.242Z"/><path class="b" d="M220.169,400.369l15.025-.761C230.255,404.868,225.223,402.363,220.169,400.369Z"/><path class="b" d="M164.368,435.6c4.289-3.024,8.638-2.707,12.805.008a3.86,3.86,0,0,1,1.119,3.329c-.2.96-1.729,2.5-2.377,2.368C171.623,440.412,166.84,440.258,164.368,435.6Z"/><path class="b" d="M92.433,397.225l-7.608,5.786c-.569-.754-1.473-1.442-1.637-2.275-.348-1.782-1.334-4.222,1.406-4.837,2.446-.549,5.066-.337,7.61-.377A14.1,14.1,0,0,1,92.433,397.225Z"/><path class="b" d="M485.679,439.156l14.591,1.009c-5.72,2.187-10.437,4.359-14.3-1.343Z"/><path class="b" d="M98.187,391.847q-1.558-.684-3.115-1.374c.487-1.022.738-2.315,1.521-3a8.783,8.783,0,0,1,3.5-1.545c1.573-.413,3.691-2.224,4.484.772.533,2.011-.663,3.6-2.621,4.313A28.141,28.141,0,0,1,98.187,391.847Z"/><path class="b" d="M328.163,442.931l-4.046-2.677c1.65-1.051,3.18-2.5,4.984-3.049,2.072-.636,4.3.79,4.261,2.718C333.328,441.813,331.161,442.914,328.163,442.931Z"/><path class="b" d="M355.716,437.543a59.451,59.451,0,0,1-6.982,1.409c-.7.066-1.568-1.122-2.231-1.852a3.167,3.167,0,0,1,1.031-1.367c1.486-1,3.049-1.885,4.576-2.819Q353.907,435.222,355.716,437.543Z"/><path class="b" d="M196.539,437.889c-.643,1.676-1.647,2.023-3.057,1.169-1.035-.627-2.063-1.264-3.094-1.9,1.115-1.713,2.742-2.38,4.566-1.58C195.7,435.91,196.054,437.141,196.539,437.889Z"/><path class="b" d="M182.549,432.482l1.387-1.455a12.261,12.261,0,0,1,1.247,2.636c.073.319-.8.855-1.245,1.292C183.458,434.1,182.98,433.248,182.549,432.482Z"/><path class="a" d="M209.8,190.8c3.217,2.108,6.1,5.27,10.566,3.695,7.4-2.61,14.765-5.305,22.152-7.942,2.953-1.054,3.727-3.6,3.742-6.2.032-5.859-.286-11.719-.462-17.579,2.887,2.43,2.849,5.833,2.853,9.116.008,7.83,2.876,12.664,11.632,12.474,4.973-.108,6.978,3,6.613,7.755-.2,2.651-.337,5.32-.774,7.936-.6,3.595-2.672,6.031-6.446,6.458-3.3.373-6.621.587-9.938.668-4.469.108-6.63-1.948-8.48-6.4-2.913-7.014-11.039-8.561-13.077-2.982-2.9,7.931-7.965,9.923-15.161,9.64-3.223-.126-6.249,2.555-10.1.291C204.405,201.83,213.031,198.5,209.8,190.8Z"/><path class="a" d="M313.79,219.141c5.217-.071,10.435-.151,15.652-.209,3.93-.043,8.454-.4,10.045,4.055,1.969,5.509,2.482,11.42.435,17.137-.369,1.03-1.776,1.926-2.907,2.405-5,2.12-10.25,2-15.379.765-3.487-.84-5.418-3.9-5.916-7.139-.886-5.765-1.1-11.633-1.6-17.459Z"/><path class="a" d="M202.26,229.734c.054-.566.166-3.229.588-5.841.489-3.025,2.772-4.363,5.53-4.745a34.647,34.647,0,0,1,5.951-.076c11.46.408,13,1.963,12.62,12.623-.353,9.894-3.385,12.613-13.726,12.307C203.937,243.728,202.006,241.591,202.26,229.734Z"/><path class="a" d="M293.549,219.208c-1.339-.1.771-.331,2.58.3,1.71.595,4.023,1.813,4.472,3.255a24.11,24.11,0,0,1-.173,15.633,7.432,7.432,0,0,1-4.062,3.883,19.728,19.728,0,0,1-13.639.006c-5.157-1.949-5.729-6.923-6.26-11.51-.863-7.437,2.309-11.037,9.773-11.553C287.562,219.13,288.9,219.208,293.549,219.208Z"/><path class="a" d="M241.683,226.321c.075-5.72,1.576-7.341,10.089-7.2a69.3,69.3,0,0,1,9.819.873,5.9,5.9,0,0,1,3.218,2.113c4.962,6.124.01,19.314-7.783,20.842a25.042,25.042,0,0,1-3.939.281c-8.38.286-10.987-1.934-11.394-9.721C241.624,232.2,241.683,230.875,241.683,226.321Z"/><path class="a" d="M133.535,186.64c.577,6.408,1.154,12.815,1.766,19.617l13.168,2.043a7.106,7.106,0,0,1-.283,2.315c-8.925,15.35-8.932,15.346,5.771,26.46-7.44,1.578-13.08-2.274-19.007-3.511-2.1-.438-3.564-3.695-1.1-6.385a23.112,23.112,0,0,0,3.746-4.554c1.922-3.708,2.022-6.9-1.455-10.464-7.492-7.69-7.686-13.176-2.374-25.256Z"/><path class="a" d="M329.686,154.949c1.245-.29,2.677-1.133,3.707-.785,9.638,3.261,19.182,6.772,29.161,8.984,1.427.316,2.411,2.633,3.6,4.024-7.475-1.135-14.168-.644-18.5,7.015-1.141,2.016-3.913,3.109-5.935,4.626l.349.3c2.769-8.131,3.015-15.142-6.962-18.774C332.93,159.549,331.472,156.8,329.686,154.949Z"/><path class="a" d="M158.432,183.5c-3.265-12.054-.892-24.221-1.98-40,5.554,9.2,4.133,15.881,4.833,22.121.633,5.641,4.754,5.326,8.694,5.507l-.285-.367c1.264,3.688-.916,5.78-3.6,7.543-2.594,1.7-5.276,3.272-7.926,4.892Z"/><path class="a" d="M333.834,190.983c-2.961,7.734,2.07,12.27,6.67,18.279-6.708-1.013-13.459-1.815-20.089-3.2-1.547-.322-2.873-2.482-3.97-4.03-2.166-3.057-.559-7.49,2.924-7.142,5.568.557,10.188-1.184,14.819-3.631Z"/><path class="a" d="M110.135,208.086c1.761.183,3.2-.016,4.229.545a3.7,3.7,0,0,1,1.769,2.784c-.063.93-1.381,2.568-2.066,2.526-3.094-.19-6.148-.946-9.238-1.331-1.647-.205-2.095-.9-1.153-2.491.314-.531.807-1.217,1.322-1.322C106.847,208.422,108.741,208.264,110.135,208.086Z"/><path class="a" d="M166.065,202.872a91.819,91.819,0,0,1-11.18-1.517c-.564-.136-.644-3.363-.477-5.117.155-1.639,1.437-2.043,2.962-1.33,3.78,1.766,9.163,1.9,8.4,8.274Z"/><path class="a" d="M133.762,186.905c7.654-5.21,16.536-1.561,24.663-3.409l-.259-.293a6.2,6.2,0,0,1-6.027,3.349c-6.2-.033-12.394.06-18.6.095C133.535,186.64,133.762,186.905,133.762,186.905Z"/><path class="a" d="M314.124,218.7c-1.426,1.454-3.12,2.162-5.056,1.291-1.86-.837-3.057-2.47-2.654-4.479a4.127,4.127,0,0,1,2.488-2.4c2.092-.717,3.756.4,4.528,2.336a13.1,13.1,0,0,1,.36,3.695Z"/><path class="a" d="M334.188,191.262c-1.213-6.537,2.673-9.769,7.877-12.147l-.351-.3c.686,6.2-2.55,9.863-7.882,12.168Z"/><path class="a" d="M349.694,251.05c-.782.7-1.677,2.092-2.321,1.983a2.5,2.5,0,0,1-1.894-3.864c.388-.76,2.03-.88,3.1-1.291Q349.138,249.464,349.694,251.05Z"/><path class="a" d="M233.971,247.7c.789.726,2.269,1.483,2.237,2.17-.1,2.241-1.783,3.02-3.661,2.014-.843-.452-1.12-1.96-1.654-2.988Q232.431,248.3,233.971,247.7Z"/><path class="a" d="M101.684,146.783a67.978,67.978,0,0,1-.279,7.332c-.24,1.727-1.293,2.118-2.172,1.2a3.33,3.33,0,0,1-.962-1.471c-.621-3.261-.464-6.158,3.753-6.763Z"/><path class="a" d="M112.061,169.3c-.556.192-1.183.652-1.657.528-1.856-.487-2-1.338-.4-2.067a2.189,2.189,0,0,1,1.725.147C112.014,168.068,111.963,168.819,112.061,169.3Z"/><path class="a" d="M169.979,171.135c1.6-3.683,4.04-5.577,8.185-3.815l-.309-.407c-1.189,4.52-4.413,4.739-8.159,3.857Z"/><path class="a" d="M197.8,174.816c4.288,1.36,4.575,4.747,4.274,8.432C197.722,181.922,197.44,178.532,197.8,174.816Z"/><path class="a" d="M173.746,211.209c3.791-1.1,6.1,1.3,8.474,3.566l.3-.347c-3.577.67-6.819.524-8.43-3.53Z"/><path class="a" d="M365.756,166.842c2.765.156,4.6,1.234,4.336,4.384C367.609,170.79,365.391,170.093,365.756,166.842Z"/><path class="a" d="M201.75,182.85c2.954-.049,4.137,1.679,4.374,4.356C203.209,187.217,201.937,185.578,201.75,182.85Z"/><path class="a" d="M205.757,186.839a4.215,4.215,0,0,1,4.355,4.352C207.18,191.221,205.79,189.709,205.757,186.839Z"/><path class="a" d="M170.058,206.87c-2.4-.266-3.99-1.337-3.994-4l-.295.308c2.941-.248,4.676.694,3.981,4.035Z"/><path class="a" d="M169.75,207.217c3.386-.727,4.554.768,4,3.991l.341-.31c-2.637-.049-3.857-1.514-4.03-4.028Z"/><path class="a" d="M378.019,115.147a5.555,5.555,0,0,1-5.79,4.111c-6.543.012-13.132.551-19.609-.082-3.047-.3-8.936,4.91-8.869-1.686.053-5.207,6.483-2.45,9.623-2,8.361,1.206,16.623-2.8,24.887.007Z"/><path class="a" d="M62.2,311.208c-1.083-1.313-1.077-2.525.245-2.972.652-.22,1.6.429,2.411.684q-1.509,1.012-3.016,2.026Z"/><path class="a" d="M418.5,346.05l-2.18,2.568c-.383-.821-1.129-1.671-1.067-2.457.113-1.433,1.212-1.93,2.518-1.329C418.127,345,418.264,345.631,418.5,346.05Z"/></svg>