<svg xmlns="http://www.w3.org/2000/svg" viewBox="0 0 543.348 543.348"><defs><style>.a{fill:#077ec6;}.b{fill:#fcfcfb;}</style></defs><path class="a" d="M272.27,38.245q108.993,0,217.986.024c17.725.015,17.9.164,17.905,17.43q.072,218.928.015,437.857a94.743,94.743,0,0,1-.333,9.975,6.655,6.655,0,0,1-6.535,6.279c-4.639.38-9.316.361-13.977.361q-215.987.024-431.974.043c-21.895.008-20.953.236-20.948-20.583q.047-214.929.016-429.859c0-2.666-.051-5.333.02-8,.33-12.513,1.026-13.464,13.839-13.48Q160.277,38.153,272.27,38.245ZM473.007,451.306c1.757.574,4.423.629,5.1,1.818,2.118,3.714,3.484,7.856,5.153,11.858,5.7-10.816,5.711-10.831-2.8-14.375-2.45-1.021-4.949-1.924-7.426-2.882-6.015-4.114-12.209-8.1-15.745-14.779a34.867,34.867,0,0,0-10.463-11.906c-11.818-8.62-23.406-17.646-35.8-25.365a120.721,120.721,0,0,1-40.991-42.683c-15.383-26.5-26.3-55.119-37.855-83.394a124.386,124.386,0,0,1-8.057-66.452c1.913-13.15,4.635-26.186,6.173-39.4.612-5.268-.14-9-5.309-11.379-27.817-12.8-55.688-25.467-84.7-35.4-4.961-1.7-7.718-.538-9.467,4.152-4.177,11.2-7.4,22.73-13.222,33.326-4.1,7.454-3.742,7.73,4.514,13.944,2.053,1.546,4.275,2.78,4.922,5.5a6.224,6.224,0,0,1-7.327,1.391c-6.03-2.746-12.217-5.393-17.7-9.038-18.076-12.009-18.346-28.487-12.568-41.744,1.064-2.439,2.357-4.783,3.34-7.252,1.928-4.842,1.065-9.095-2.968-12.593-4.016-3.484-8.056-6.634-13.171-8.759-33.162-13.778-66.179-27.908-99.223-41.972-3.1-1.32-6.08-2.756-10.277-.418,12.616,18.743,34.2,25.019,52.479,37.038-8.573,3.693-14.289-.151-20.261-2.873Q78.463,78.149,57.469,68.851a3.637,3.637,0,0,0-3.354.94,3.908,3.908,0,0,0-.122,3.57c6.869,11.107,16.3,19.01,28.844,23.211,12.325,4.129,24.526,8.623,40.629,14.317-13.924,4.858-24.106.447-34.077-.1C79.305,110.232,69.381,105.56,59,109.2c.876,5.465,5.078,6.639,8.362,8.507a95.676,95.676,0,0,0,12.617,5.952A52.865,52.865,0,0,0,91.455,126.9c4.585.658,9.3.382,13.94.7,3.341.228,7.453-1.865,10.128,2.526-13.071,11.5-30.577,8.021-45.018,14.8,9.19,7.8,15.3,10.335,25.611,8.824,8.487-1.245,16.731-4.077,25.17-5.769,2.6-.521,6.315-2.635,8.007,1.854-2.1,4.059-6.026,5.124-9.47,7.045-6.955,3.88-13.7,8.141-20.4,12.453-.746.481-1.07,2.443-.77,3.481a4.2,4.2,0,0,0,2.566,2.336,27.223,27.223,0,0,0,17.629-.925c3.73-1.405,7.473-2.815,11.307-3.873.779-.215,2.1,1.02,2.949,1.819a2.212,2.212,0,0,1,.152,1.922,15.705,15.705,0,0,1-1.771,3.449c-2.545,3.655-9.05,6.866-6.2,11.3,3.493,5.436,9.419,1.262,14.211-.517,1.87-.694,3.8-1.238,5.657-1.957,2.9-1.12,6.112-3.884,8.236.7,1.272,2.743-.711,5.058-2.5,7.061-2.556,2.872-7.082,4.037-7.578,8.87,4.982,3.732,10.029,1.382,14.88-.17,3.534-1.131,7.075-5.466,10.427-1.042,1.906,2.515.972,6.379-.969,9.414-1.068,1.671-1.96,3.5-.624,5.287,3.341,0,7.864-1.337,9.532.276,3.584,3.464-.042,7.242-2.207,10.376-5.288,7.652-10.429,15.339-17.675,21.524-10.913,9.314-17.246,22.107-22.7,34.893-8.294,19.462-4.431,30.866,13.141,42.8,9.33,6.337,19.073,12.1,28.862,17.722,29.726,17.06,56.6,37.737,77.935,64.631,16.823,21.209,39.293,32.645,63.274,43.337,16.169,7.21,34.307,10.61,48.141,23.107,6.92,6.25,15.876,6.192,24.672,4.3,2.718-.586,5.087-2.17,5.866-4.813.8-2.706-.581-5.2-2.684-7.028-2-1.745-4.431-3.055-6.222-4.976q-8.805-9.453-17.2-19.282a4.2,4.2,0,0,1-.156-3.688c1.033-2.218,3.078-1.767,5-1.143a18.921,18.921,0,0,1,9.379,7.187c7.017,9.629,17.018,16.887,21.733,28.42,1.89,4.621,7.541,4.885,11.959,1.608,4.608-3.418,6.043-10.616,1.711-13.81-9.8-7.224-16.039-17.743-25.088-25.574-2.076-1.8-4.181-3.938-1.287-6.434,2.339-2.016,4.962-.673,7.294.7a39.819,39.819,0,0,1,14.018,13.907c2.817,4.637,6.542,8.4,12.076,9.626a4.469,4.469,0,0,0,3.439-1.068,4.564,4.564,0,0,0,1.277-3.315,16.479,16.479,0,0,0-6.588-11.84c-1.567-1.239-3.369-2.321-4.554-3.865-1.252-1.632-5.142-2.021-2.9-6.155,8.337-.626,13.244,4.824,17.754,10.476a98.453,98.453,0,0,0,16.915,16.878c6.171,4.741,3.135,13.524,7.435,19.278,10.463-4.276,14.663-10.528,11.225-20.813C470.254,453.261,472.1,452.128,473.007,451.306Zm-38.575,1.585c-5.135-.647-6.858,1.438-6.6,2.881.93,5.167,2.658,10.187,3.975,15.291,1.646,6.381,6.214,7.858,11.375,3.6,7.248-5.981,7.136-13.039-.49-17.67A80.132,80.132,0,0,0,434.432,452.891Z"/><path class="b" d="M473.007,451.306c-.912.822-2.753,1.955-2.6,2.421,3.438,10.285-.762,16.537-11.225,20.813-4.3-5.754-1.264-14.537-7.435-19.278a98.453,98.453,0,0,1-16.915-16.878c-4.51-5.652-9.417-11.1-17.754-10.476-2.242,4.134,1.648,4.523,2.9,6.155,1.185,1.544,2.987,2.626,4.554,3.865a16.479,16.479,0,0,1,6.588,11.84,4.564,4.564,0,0,1-1.277,3.315,4.469,4.469,0,0,1-3.439,1.068c-5.534-1.224-9.259-4.989-12.076-9.626a39.819,39.819,0,0,0-14.018-13.907c-2.332-1.375-4.955-2.718-7.294-.7-2.894,2.5-.789,4.637,1.287,6.434,9.049,7.831,15.289,18.35,25.088,25.574,4.332,3.194,2.9,10.392-1.711,13.81-4.418,3.277-10.069,3.013-11.959-1.608-4.715-11.533-14.716-18.791-21.733-28.42a18.921,18.921,0,0,0-9.379-7.187c-1.921-.624-3.966-1.075-5,1.143a4.2,4.2,0,0,0,.156,3.688q8.406,9.808,17.2,19.282c1.791,1.921,4.22,3.231,6.222,4.976,2.1,1.831,3.48,4.322,2.684,7.028-.779,2.643-3.148,4.227-5.866,4.813-8.8,1.9-17.752,1.955-24.672-4.3-13.834-12.5-31.972-15.9-48.141-23.107-23.981-10.692-46.451-22.128-63.274-43.337-21.333-26.894-48.209-47.571-77.935-64.631-9.789-5.618-19.532-11.385-28.862-17.722-17.572-11.937-21.435-23.341-13.141-42.8,5.45-12.786,11.783-25.579,22.7-34.893,7.246-6.185,12.387-13.872,17.675-21.524,2.165-3.134,5.791-6.912,2.207-10.376-1.668-1.613-6.191-.276-9.532-.276-1.336-1.788-.444-3.616.624-5.287,1.941-3.035,2.875-6.9.969-9.414-3.352-4.424-6.893-.089-10.427,1.042-4.851,1.552-9.9,3.9-14.88.17.5-4.833,5.022-6,7.578-8.87,1.784-2,3.767-4.318,2.5-7.061-2.124-4.581-5.336-1.817-8.236-.7-1.86.719-3.787,1.263-5.657,1.957-4.792,1.779-10.718,5.953-14.211.517-2.849-4.433,3.656-7.644,6.2-11.3a15.705,15.705,0,0,0,1.771-3.449,2.212,2.212,0,0,0-.152-1.922c-.852-.8-2.17-2.034-2.949-1.819-3.834,1.058-7.577,2.468-11.307,3.873a27.223,27.223,0,0,1-17.629.925,4.2,4.2,0,0,1-2.566-2.336c-.3-1.038.024-3,.77-3.481,6.7-4.312,13.447-8.573,20.4-12.453,3.444-1.921,7.37-2.986,9.47-7.045-1.692-4.489-5.409-2.375-8.007-1.854-8.439,1.692-16.683,4.524-25.17,5.769-10.309,1.511-16.421-1.028-25.611-8.824,14.441-6.781,31.947-3.3,45.018-14.8-2.675-4.391-6.787-2.3-10.128-2.526-4.644-.317-9.355-.041-13.94-.7a52.865,52.865,0,0,1-11.477-3.245A95.676,95.676,0,0,1,67.361,117.7c-3.284-1.868-7.486-3.042-8.362-8.507,10.382-3.636,20.306,1.036,30.39,1.591,9.971.549,20.153,4.96,34.077.1-16.1-5.694-28.3-10.188-40.629-14.317-12.541-4.2-21.975-12.1-28.844-23.211a3.908,3.908,0,0,1,.122-3.57,3.637,3.637,0,0,1,3.354-.94Q78.48,78.106,99.356,87.67c5.972,2.722,11.688,6.566,20.261,2.873-18.28-12.019-39.863-18.3-52.479-37.038,4.2-2.338,7.176-.9,10.277.418,33.044,14.064,66.061,28.194,99.223,41.972,5.115,2.125,9.155,5.275,13.171,8.759,4.033,3.5,4.9,7.751,2.968,12.593-.983,2.469-2.276,4.813-3.34,7.252-5.778,13.257-5.508,29.735,12.568,41.744,5.487,3.645,11.674,6.292,17.7,9.038a6.232,6.232,0,0,0,7.33-1.389c-.65-2.725-2.872-3.959-4.925-5.5-8.256-6.214-8.613-6.49-4.514-13.944,5.826-10.6,9.045-22.127,13.222-33.326,1.749-4.69,4.506-5.85,9.467-4.152,29.012,9.931,56.883,22.6,84.7,35.4,5.169,2.379,5.921,6.111,5.309,11.379-1.538,13.218-4.26,26.254-6.173,39.4a124.386,124.386,0,0,0,8.057,66.452c11.557,28.275,22.472,56.9,37.855,83.394a120.721,120.721,0,0,0,40.991,42.683c12.394,7.719,23.982,16.745,35.8,25.365a34.867,34.867,0,0,1,10.463,11.906c3.536,6.675,9.73,10.665,15.745,14.779l.428-.288c-4.8-2.048-9.544-4.217-14.406-6.092-2.458-.948-5.4-1.208-6.134,2.12a5.35,5.35,0,0,0,2.158,4.61,167.182,167.182,0,0,0,16.178,6.6c.307.112,1.416-1.977,2.152-3.042ZM219.687,201.53c-3.992,6.249-7.823,12.249-11.656,18.247-7.9,12.351-14.867,25-14.22,40.4.077,1.832-.375,4.475-1.605,5.442-6.16,4.839-7.1,10.4-4.04,17.389,1.187,2.716-1.924,4.447-3.085,6.651-2.489,4.725-.913,7.857,4.643,10.7,1.9.972,3.458,1.047,2.462-1.913-1.339-3.976.341-6.205,4.147-7.245,4.214-1.151,4.359-4.18,3.585-7.7-.967-4.4,2.279-3.581,4.68-3.609,2.446-.03,4.242,3.211,7.316,1.386,0-1.028.452-2.451-.067-3.2-10.108-14.607-9.016-29.847-2.554-45.305,3.305-7.905,7.1-15.606,10.521-23.463C220.763,207.128,222.481,204.812,219.687,201.53Zm17.78-35.916c8.487-8.72,10.279-17.125,13.033-25.05.855-2.462,1.965-5.219-1.718-6.049-2.263-.509-3.16,1.8-3.918,3.556C241.553,145.745,237.034,153.08,237.467,165.614Zm211.76,271.123c.641-.815,1.443-1.391,1.366-1.8-.753-4.027-5.2-7.739-9.655-7.8-.8-.01-2.427,1.753-2.293,2.418.751,3.7,6.048,8.036,9.565,8.1C448.638,437.658,449.079,436.877,449.227,436.737Z"/><path class="b" d="M434.432,452.891a80.132,80.132,0,0,1,8.262,4.1c7.626,4.631,7.738,11.689.49,17.67-5.161,4.258-9.729,2.781-11.375-3.6-1.317-5.1-3.045-10.124-3.975-15.291C427.574,454.329,429.3,452.244,434.432,452.891Z"/><path class="b" d="M473.036,447.725c2.477.958,4.976,1.861,7.426,2.882,8.51,3.544,8.5,3.559,2.8,14.375-1.669-4-3.035-8.144-5.153-11.858-.678-1.189-3.344-1.244-5.1-1.818l.406.325q.027-2.1.051-4.194Z"/><path class="a" d="M219.687,201.53c2.794,3.282,1.076,5.6.127,7.774-3.425,7.857-7.216,15.558-10.521,23.463-6.462,15.458-7.554,30.7,2.554,45.305.519.75.067,2.173.067,3.2-3.074,1.825-4.87-1.416-7.316-1.386-2.4.028-5.647-.793-4.68,3.609.774,3.518.629,6.547-3.585,7.7-3.806,1.04-5.486,3.269-4.147,7.245,1,2.96-.559,2.885-2.462,1.913-5.556-2.84-7.132-5.972-4.643-10.7,1.161-2.2,4.272-3.935,3.085-6.651-3.059-6.993-2.12-12.55,4.04-17.389,1.23-.967,1.682-3.61,1.605-5.442-.647-15.4,6.324-28.045,14.22-40.4C211.864,213.779,215.7,207.779,219.687,201.53Z"/><path class="a" d="M237.467,165.614c-.433-12.534,4.086-19.869,7.4-27.543.758-1.756,1.655-4.065,3.918-3.556,3.683.83,2.573,3.587,1.718,6.049C247.746,148.489,245.954,156.894,237.467,165.614Z"/><path class="a" d="M473.464,447.437q-.026,2.1-.051,4.194c-.737,1.064-1.846,3.153-2.153,3.041a167.182,167.182,0,0,1-16.178-6.6,5.35,5.35,0,0,1-2.158-4.61c.731-3.328,3.676-3.068,6.134-2.12C463.92,443.22,468.669,445.389,473.464,447.437Z"/><path class="a" d="M449.227,436.737c-.148.14-.589.921-1.017.913-3.517-.06-8.814-4.393-9.565-8.1-.134-.665,1.494-2.428,2.293-2.418,4.455.058,8.9,3.77,9.655,7.8C450.67,435.346,449.868,435.922,449.227,436.737Z"/></svg>