<svg xmlns="http://www.w3.org/2000/svg" viewBox="0 0 543.348 543.348"><defs><style>.a{fill:#2d9e54;}.b{fill:#fcfcfb;}</style></defs><path class="a" d="M165.751,122.294c-16.982-4.139-34.431-2.07-51.591-3.865-3.253-.34-6.822.556-9.784-.46-13.677-4.691-27.448-3.775-41.323-1.612A60.472,60.472,0,0,1,41.2,115.6c-3.518-.737-5.828-2.944-5.775-6.9.048-3.561,2.871-4.41,5.392-4.668,11.9-1.214,23.822-2.1,35.732-3.176,19.885-1.8,39.769-3.607,59.64-5.556,1.638-.16,4.352-.278,3.6-3.344-.608-2.5-2.905-2.053-4.614-2.106-17.967-.549-35.941-1.51-53.9-1.316-14.12.153-27.735-3.515-41.714-4.084-1.763-.072-3.878-.836-3.953-3.549a4.813,4.813,0,0,1,2.649-4.845c9.229-4.36,19.295-5.2,29.2-5.751,22.607-1.254,45.268-1.538,67.878-2.752,19.219-1.032,38.4-2.813,57.579-4.952-16.166-3.016-32.4-3.047-48.742-2.939A434.119,434.119,0,0,1,96.332,57.4c-16.067-1.676-32.72.636-51.261-4.366,15.494-9.371,29.909-6.808,44.066-9.789-6.251-4.91-13.318-2.812-20.16-5.2-1.684.044,1.844-3.23,1.129-.664-.072.259.8,1.139,1.206,1.121,14.633-.658,29.261-1.993,43.892-2.014q176.986-.258,353.974-.1h13.346c1.71,5.6-2.136,6.877-4.542,8.45-10.718,7.008-19.442,16.127-27.9,25.553-14.058,15.671-30.987,26.692-50.745,34.267-25.555,9.8-46.443,25.494-58.709,51.144-7.8,16.3-20.24,27.614-38.176,32.774-17.736,5.1-32.48,14.674-42.772,30.7-7.971,12.413-18.506,22.659-30.1,31.817-5.22,4.122-9.909,8.919-15.152,13.009-4.331,3.378-3.4,6.7-.68,10.169,11.133,14.2,24.082,26.621,37.746,38.35,6.321,5.426,6.509,5.675,12.564-2.758,2.874-4,6.724-6.437,10.651-8.815a33.433,33.433,0,0,0,15.549-19.978c.92-3.175,2.761-6.081,3.708-9.251,3.264-10.921,10.791-18.179,20.241-23.687a101.553,101.553,0,0,1,16.028-8.074c12.879-4.694,23.114-12.78,32.528-22.5,5.686-5.869,10.272-12.163,13.2-19.734,1.682-4.343,3.594-8.6,5.158-12.985,7.019-19.674,19.682-34.313,38.029-44.45a126.45,126.45,0,0,0,36.859-30.2c9.033-10.914,16.946-22.185,21.807-35.484,3.693-10.1,9.522-19.023,15.4-27.9a30.318,30.318,0,0,1,6.762-7.15c1.281-.983,3.652-.967,5.422-.7.738.114,1.613,2.039,1.7,3.194.293,3.981.348,7.986.35,11.981q.026,93.969.008,187.937c0,3.332-.062,6.664-.075,9.995-.021,5.314-2.015,8.735-7.854,9.467-8.585,1.075-17.1,2.709-25.68,3.821-5.854.759-11.708,1.219-17.038,5.511,12.634,4.423,25.5,2.271,37.583,5.406a93.6,93.6,0,0,1,9.491,2.646,4.024,4.024,0,0,1,1.871,3.161,3.614,3.614,0,0,1-2.035,2.794c-5.833,1.323-11.711,2.5-17.621,3.417-7.878,1.229-15.8,2.212-23.7,3.255-17.05,2.248-34.1,4.467-51.151,7.075,26.287.2,52.258,3.992,78.356,6.147,5.219.431,10.635.764,15.349,3.714,1.926,1.206,2.138,5.557.338,6.974-3.811,3-8.321,4.191-12.941,4.616-17.761,1.633-35.1,6.949-54.619,5.064,7.4,6.05,14.582,6.169,21.83,6.541a250.227,250.227,0,0,1,43.409,5.912c.8.185,1.492,1.791,1.824,2.862.5,1.624-.327,2.669-1.987,2.827-7.934.754-15.856,1.809-23.808,2.145-14.007.59-27.37,4.105-43.294,7.579,7.647,4.874,14.025,3.329,19.811,4.382,5.889,1.071,11.778,2.151,17.683,3.131,9.844,1.634,19.711,3.134,29.534,4.884a3.437,3.437,0,0,1,1.979,2.662A3.734,3.734,0,0,1,502.845,371c-8.368,2.622-17.062,2.57-25.7,2.561-11.94-.012-23.606,1.473-34.944,6q26.835,2.5,53.669,5.008a29.468,29.468,0,0,1,5.892.938,4.13,4.13,0,0,1,2.264,2.3c.59,1.606-.309,2.574-2,2.763q-25.779,2.893-51.552,5.827c-3.95.456-7.9,1.027-11.78,1.864-.617.133-.981,1.929-1.235,3.01-.1.424.336,1.359.676,1.44a61.307,61.307,0,0,0,7.767,1.541c15.9,1.667,31.811,3.206,47.71,4.873a17.257,17.257,0,0,1,5.7,1.491,4.467,4.467,0,0,1,1.932,3.083c.078.556-1.466,1.915-2.3,1.939-25.3.722-50.608,1.71-75.917,1.829a558.906,558.906,0,0,0-71.176,4.577c21.848,6.13,44.787,4.933,67.478,6.063,27.9,1.389,55.429,5.424,87.2,9.878-22.125,6.169-40.869,2.756-59.151,5.294-18.967,2.633-38.493,1.24-61.379,1.676,9.682,4.812,16.687,4.285,23.362,4.857,27.856,2.386,55.736,4.494,83.605,6.737,1.31.105,2.585.6,3.894.789,1.88.272,2.551,1.16,1.617,2.583-.67,1.021-1.646,2.542-2.558,2.595-7.958.459-15.938.51-23.9.92-36.619,1.887-73.261.879-109.894,1.013-17.318.063-34.635.624-51.95,1.052-3.76.093-7.479.788-7.781,1.064,2.4.344,8.033,1.37,13.716,1.91,5.956.565,11.959.636,17.938.97,19.942,1.113,40.03,1.1,59.788,3.638,31.1,4,62.644.843,93.531,6.846a13.2,13.2,0,0,1,7.1,3.412c-30.082,1.156-60.16,2.455-90.248,3.426-30.569.987-61.155-1.487-91.706.882.962,4.091,5.113,2.268,7.922,3a34.493,34.493,0,0,0,7.92.9c22.643.507,45.319.338,67.923,1.531,35.2,1.857,70.36,4.622,105.535,7.018a3.357,3.357,0,0,1,1.915.475c1.393,1.3,3.324,2.506,2.441,4.856-.406,1.083-1.205,2.685-2.036,2.828a72.364,72.364,0,0,1-11.746,1.241c-20,.116-40,.057-59.995.057q-186.987,0-373.973-.012c-26.352-.005-23.642,2.161-23.664-23.453q-.1-121.959-.022-243.918c0-4.664.22-9.336.026-13.992-.234-5.6,2.811-8.492,7.62-10.216,5.613-2.013,11.216-4.055,18.129-6.558-6.621-6.6-14.964-5.267-21.56-8.229-.977-.439-1.545-2.021-2.067-3.179-.607-1.348.066-2.393,1.633-3.007a73.953,73.953,0,0,1,19.366-4.522c11.9-1.267,23.8-2.714,35.622-4.552,5.746-.894,11.327-2.843,20.956-5.348-22.013-2.219-39.4-6.437-57.285-6.3a26.021,26.021,0,0,1-3.985-.252c-12.134-1.8-18.148-4.778-15.937-7.817,4.287-5.89,10.927-3.764,16.519-4.292,17.234-1.626,34.536-2.518,51.8-3.8,7.225-.538,14.431-1.347,24.965-2.349-11.426-5.12-20.519-4-29.246-4.718-17.9-1.479-35.832-2.644-53.744-4.023a33.724,33.724,0,0,1-7.843-1.4,6.45,6.45,0,0,1-4.477-5.966c-.284-3.95,2.079-6.388,5.59-7A131.982,131.982,0,0,1,56.7,133.041c35.27-1.777,70.382-5.353,105.468-9.218C163.4,123.686,164.558,122.821,165.751,122.294Zm63.079,187.3c3.007,7.756,10.2,11.537,15.978,16.634,1.257,1.11,3.564,2.222,4.725-.374a4.042,4.042,0,0,0-.43-3.545c-5.053-5.845-8.955-12.9-16.508-16.2-9.365-9.3-18.7-18.633-28.178-27.813-.577-.558-2.528-.215-3.462.341-.437.261-.418,2.458.152,3.057C210.149,291.181,216.914,302.954,228.83,309.589Zm-38.553-10.231c-7.77,7.434-17.013,14.318-23.649,23.158-7.15,9.525-18.8,15.119-22.956,27.021-14.333,11.664-25.591,26.426-39.084,38.862-5.8,5.348-7.321,14.7-16.22,16.862-10.109,11.21-22.434,20.132-32.422,31.477-13.427,15.25-17.522,42.664,8.78,57.786,1.725.992,3.51,1.893,5.32,2.718,9.021,4.11,17.783,4.5,26.583-1.015,8.544-5.352,10.8-12.642,8.963-22.228-1.789-9.359,2.01-16.332,9.617-22.385,9.774-7.778,18.672-16.66,27.667-25.4,7.985-7.759,12.655-18.785,23.269-23.861,2.972-10.65,14.354-13.04,20.576-20.942,9.756-12.394,21.967-22.876,33.3-34,6.714-6.587,10.522-6.856,17.015-.61a220.042,220.042,0,0,1,27.461,31.58c4.311,6.11,7.855,12.476,5.759,20.365-1.632,6.137,1.947,10.063,5.667,13.973s6.634,4.55,10.26,1.179c10.715-9.96,21.218-20.149,31.672-30.385,2.755-2.7,2.565-5.84-.11-8.721-4.99-5.375-9.625-11.244-18.236-5.6-5.648,3.7-11.645,1.57-17.266-.607-5.042-1.953-8.841-5.686-12.677-9.463-28.436-28.011-57.038-55.855-85.489-83.851a155.883,155.883,0,0,1-11.933-13.38c-7.463-9.263-12.336-19.133-5.636-31.039a5.821,5.821,0,0,0,.591-1.9c.8-4.913-8.016-16.014-12.628-15.538a9.327,9.327,0,0,0-5.033,2.652c-8.1,7.893-16.029,15.97-24.064,23.935-2.841,2.817-6.187,5.489-5.659,9.956.484,4.1,8.219,10.506,12.925,11.051a28.658,28.658,0,0,0,5.958-.233,20.877,20.877,0,0,1,16.483,5.368c6.538,5.629,13.843,10.359,20.518,15.841C181.2,286.576,187.364,290.832,190.277,299.358Z"/><path class="a" d="M441.052,98.887a121.418,121.418,0,0,1-35.171,29.838c-10.6,5.875-19.539,13.871-28.676,21.585a60.2,60.2,0,0,0-17.619,23.942c-9.456,24.364-26.639,40.406-49.93,51.659-13.644,6.591-26.363,15.332-35.348,28.487-7.057,10.33-12.851,20.428-6.345,33.154a2.4,2.4,0,0,1,.241,1.893c-.988,1.588-1.878,3.641-3.377,4.422-2.984,1.554-5.356-.611-6.282-3.048-2.9-7.637-.386-15.668-.086-24.587-6.84-.565-12.122,3.667-17.971,2.453-3.519-.73-6.516-3.521-5.811-6.564.719-3.1,3.6-4.921,5.832-3.864,12.3,5.826,20.649-.672,27.89-8.958,11.152-12.76,24.269-22.33,39.518-29.821,20.176-9.911,36.223-24.565,44.987-45.995,8.527-20.85,25.77-33.854,43.588-45.38,13.4-8.667,26.5-17.712,39.7-26.641A49.585,49.585,0,0,1,441.052,98.887Z"/><path class="a" d="M254.467,298.807c-.547,2.151-.64,2.754-.854,3.311-.643,1.677-1.6,1.765-3.117.789-9.465-6.072-16.45-14.6-23.16-23.379-.384-.5.578-2.19,1.156-3.186a1.847,1.847,0,0,1,1.711-.383C241.677,280.646,246.335,292.012,254.467,298.807Z"/><path class="b" d="M190.277,299.358c-2.913-8.526-9.077-12.782-14.675-17.378-6.675-5.482-13.98-10.212-20.518-15.841a20.877,20.877,0,0,0-16.483-5.368,28.658,28.658,0,0,1-5.958.233c-4.706-.545-12.441-6.951-12.925-11.051-.528-4.467,2.818-7.139,5.659-9.956,8.035-7.965,15.96-16.042,24.064-23.935a9.327,9.327,0,0,1,5.033-2.652c4.612-.476,13.427,10.625,12.628,15.538a5.821,5.821,0,0,1-.591,1.9c-6.7,11.906-1.827,21.776,5.636,31.039a155.883,155.883,0,0,0,11.933,13.38c28.451,28,57.053,55.84,85.489,83.851,3.836,3.777,7.635,7.51,12.677,9.463,5.621,2.177,11.618,4.306,17.266.607,8.611-5.64,13.246.229,18.236,5.6,2.675,2.881,2.865,6.023.11,8.721C307.4,393.75,296.9,403.939,286.186,413.9c-3.626,3.371-6.541,2.731-10.26-1.179s-7.3-7.836-5.667-13.973c2.1-7.889-1.448-14.255-5.759-20.365a220.042,220.042,0,0,0-27.461-31.58c-6.493-6.246-10.3-5.977-17.015.61-11.336,11.123-23.547,21.605-33.3,34-6.222,7.9-17.6,10.292-20.576,20.942-10.614,5.076-15.284,16.1-23.269,23.861-9,8.74-17.893,17.622-27.667,25.4C107.6,457.667,103.8,464.64,105.592,474c1.833,9.586-.419,16.876-8.963,22.228-8.8,5.511-17.562,5.125-26.583,1.015-1.81-.825-3.6-1.726-5.32-2.718-26.3-15.122-22.207-42.536-8.78-57.786,9.988-11.345,22.313-20.267,32.422-31.477,8.9-2.162,10.418-11.514,16.22-16.862,13.493-12.436,24.751-27.2,39.084-38.862,4.156-11.9,15.806-17.5,22.956-27.021C173.264,313.676,182.507,306.792,190.277,299.358Zm13.244,11.461c-3.936,6.788-11.56,9.018-16,14.436-4.622,5.637-10.149,10.547-14.407,16.014-5.686,7.3-12.952,12.711-18.524,19.665-3.332,4.158-5.621,8.8-10.92,10.819-3.239,1.232-5.19,3.767-7.3,6.455-7.994,10.195-14.992,21.4-27.039,27.73a8.939,8.939,0,0,0-3.842,4.429c-4.849,12.988-17.4,19.046-26.032,28.571C69.978,449.406,68.644,450.394,73,462.862c2.9,8.307,8.866,12.994,16.345,16.33,1.775.791,4.135.614,5.007-1.66a4.241,4.241,0,0,0-.534-3.646c-3.1-3.45-6.871-6.352-9.685-10-6.476-8.4-5.127-14.464,3.623-21.307C95.271,436.7,99.638,427.422,108.9,423.2c1.854-.845,2.175-4.706,3.608-6.914,1.411-2.173,2.95-4.87,5.106-5.839,6.961-3.13,10.616-9.076,15.437-14.437,5.183-5.763,10.68-11.3,15.932-17.108,5.564-6.157,12.418-11.616,18.761-17.314,5.011-4.5,10.044-8.285,12.332-14.993.766-2.248,3.239-4.289,5.427-5.6,4.675-2.8,7.907-6.664,11.175-10.975,5.522-7.285,8.147-7.057,16-.769a18.134,18.134,0,0,1,1.362,1.456c1.646,1.657,3.576,1.812,5.1.176.563-.606.462-2.559-.1-3.363C214.875,321.566,210.664,315.606,203.521,310.819Z"/><path class="b" d="M228.829,309.589c-11.915-6.635-18.68-18.408-27.722-27.9-.57-.6-.589-2.8-.152-3.057.934-.556,2.885-.9,3.462-.341C213.9,287.467,223.23,296.8,232.6,306.1Z"/><path class="b" d="M232.6,306.1c7.553,3.3,11.455,10.359,16.508,16.2a4.042,4.042,0,0,1,.43,3.545c-1.161,2.6-3.468,1.484-4.725.374-5.774-5.1-12.971-8.878-15.979-16.634Z"/><path class="a" d="M203.521,310.819c7.143,4.787,11.354,10.747,15.521,16.7.562.8.663,2.757.1,3.363-1.521,1.636-3.451,1.481-5.1-.176a18.134,18.134,0,0,0-1.362-1.456c-7.858-6.288-10.483-6.516-16,.769-3.268,4.311-6.5,8.173-11.175,10.975-2.188,1.311-4.661,3.352-5.427,5.6-2.288,6.708-7.321,10.492-12.332,14.993-6.343,5.7-13.2,11.157-18.761,17.314-5.252,5.813-10.749,11.345-15.932,17.108-4.821,5.361-8.476,11.307-15.437,14.437-2.156.969-3.7,3.666-5.106,5.839-1.433,2.208-1.754,6.069-3.608,6.914-9.262,4.222-13.629,13.5-21.145,19.378-8.75,6.843-10.1,12.908-3.623,21.307,2.814,3.649,6.582,6.551,9.685,10a4.241,4.241,0,0,1,.534,3.646c-.872,2.274-3.232,2.451-5.007,1.66C81.865,475.856,75.9,471.169,73,462.862c-4.355-12.468-3.021-13.456,6.461-23.924,8.629-9.525,21.183-15.583,26.032-28.571a8.939,8.939,0,0,1,3.842-4.429c12.047-6.325,19.045-17.535,27.039-27.73,2.106-2.688,4.057-5.223,7.3-6.455,5.3-2.016,7.588-6.661,10.92-10.819,5.572-6.954,12.838-12.364,18.524-19.665,4.258-5.467,9.785-10.377,14.407-16.014C191.961,319.837,199.585,317.607,203.521,310.819Z"/></svg>