<svg id="Layer_1" data-name="Layer 1" xmlns="http://www.w3.org/2000/svg" viewBox="0 0 100 116"><path d="M0,33a6.46,6.46,0,0,1,1-4,3.36,3.36,0,0,0,2.11-1.14,1.71,1.71,0,0,0,1.61-1.06h0a1.1,1.1,0,0,0,1-.49A7.72,7.72,0,0,0,9,24.58a1.71,1.71,0,0,0,1.61-1.06h0a8,8,0,0,0,1.22-.43c2.55-1.38,5.09-2.77,7.61-4.19a3.2,3.2,0,0,0,.7-.76,1.29,1.29,0,0,0,1.06-.57,1.72,1.72,0,0,0,.52-.1c2.47-1.35,4.95-2.69,7.4-4.09a6.12,6.12,0,0,0,1.12-1.1c.56-.16,1.21-.1,1.57-.7,1.46-.31,2.52-1.4,3.83-2a19,19,0,0,0,2.52-1.71,1.27,1.27,0,0,0,1.06-.59,1.74,1.74,0,0,0,1.61-1,1.42,1.42,0,0,0,1.07-.58A3.23,3.23,0,0,0,44,4.58,1.17,1.17,0,0,0,45.06,4c.65,0,1.07-.3,1.11-1h0a3.17,3.17,0,0,0,1.72-.43c.81-.47,1.65-.9,2.48-1.34l1,.07a44.66,44.66,0,0,0,5.36,3.1,1.93,1.93,0,0,0,.5.09c1.57,1,3,2.17,4.84,2.66a2.36,2.36,0,0,0,1.17,1q2.66,1.45,5.29,2.94c1.84,1,3.65,2.11,5.49,3.12A4.18,4.18,0,0,0,76,15h0c.25.65.84.86,1.39,1.16,2.87,1.58,5.74,3.16,8.59,4.78,3.84,2.19,7.65,4.44,11.49,6.64.68.39,1.21,1.08,2.09,1.1a3.63,3.63,0,0,0,.1.45q.07,11,.14,21.9c0,.35.07.7.1,1,0,1.59,0,3.17,0,4.76,0,2,0,3.93,0,5.89V68l0,4.79c0,.71-.49,9-.38,11.1a3.22,3.22,0,0,1-1.83,3.46c-1.8.93-3.5,2.06-5.22,3.14-4.79,3-9.86,5.55-14.68,8.53S68,104.85,63,107.75c-3.51,2-7,4.12-10.52,6.18a7.74,7.74,0,0,0-.7.37,2.81,2.81,0,0,1-3.25-.09c-4.26-2.52-8.51-5-12.79-7.54-3.29-1.91-6.6-3.76-9.89-5.67-2.38-1.37-4.73-2.78-7.08-4.17-.16-.09-.29-.22-.45-.29A97.72,97.72,0,0,1,9,91.44Q4.92,89,.79,86.62A4.38,4.38,0,0,0,0,86.38H0M37.25,14.3l0,0a1.7,1.7,0,0,0-.51.06,53.48,53.48,0,0,0-7.37,4c-.27.18-.41.55-.61.83l0,0c-.5.2-.44.69-.59,1.09-.34.87-.65,1.07-1.61.73a2.59,2.59,0,0,0-2.27.2A23.59,23.59,0,0,0,22,22.4c-1.2.87-2.66,1.35-3.73,2.45.28,1.29,1,2.57-.26,3.7-.09.08.12.48.14.73a4.52,4.52,0,0,1,0,1,.67.67,0,0,1-.77.55A1.15,1.15,0,0,1,16.48,29c.13-.2.43-.29.38-.73-.23-.24-.53-.56-.85-.84-1-.87-1.25-.89-2.29-.18-.43.3-.83.63-1.21.93a2,2,0,0,0,.09.57c.8,1.64,1.17,3.18-.83,4.27-.07,0-.1.13-.15.21a1.07,1.07,0,0,0,.2,1.41c.4.33.93.53,1,1.23-.37.61-.75,1.3-1.2,1.94a1.22,1.22,0,0,1-1.63.43l-.72-.31,0,0a2.42,2.42,0,0,1,.42-1.76A1.21,1.21,0,0,0,10.18,35c-.13-.17-.31-.37-.46-.59-.69-1-.62-1.22.65-1.95.15-.08.24-.24.38-.38,0-.69,0-1.39,0-2.09,0-.15-.18-.29-.29-.43a1.54,1.54,0,0,0-.51-.06,4.85,4.85,0,0,0-1,.38c-.76.41-.93.67-.57,1.48a1.78,1.78,0,0,1-.3,2.18c-.44.45-.25,1.22-.92,1.69-.4.05-1,.23-1.36-.25s-.14-1,.2-1.41a2.77,2.77,0,0,0,.43-.66.51.51,0,0,0-.25-.66.73.73,0,0,0-.93.21,1.38,1.38,0,0,0-.19.48c0,1-.06,2,0,2.92a1,1,0,0,0,.22.73c1,.78,1,1.55.13,2.42a1.1,1.1,0,0,0-.29.72,26.34,26.34,0,0,1-.46,3.66,3.84,3.84,0,0,0,.78,3.24,1.19,1.19,0,0,1,0,1.7c-.89.77-.75,1.72-.68,2.68s.57,1.23,1.66,1a5.1,5.1,0,0,1,.76-.15.74.74,0,0,1,.61,1,1.89,1.89,0,0,1-.58.83c-.75.45-1.54.81-2.36,1.23A6.62,6.62,0,0,0,4.91,58a14.43,14.43,0,0,1,1.84.55,1,1,0,0,1,.5,1.12.8.8,0,0,1-.73.65c-.35.06-.71,0-1.06.1-.52.07-.71.44-.73.93,0,.7.2,1,.85,1.1s1.07-.08,1.55.37a6.11,6.11,0,0,0,2.36,3.88A1,1,0,0,1,10,67.77c-.15.54-.47.94-1.14.8C7.54,67,7.14,66.67,6,66.29a.57.57,0,0,0-.46.16c-.1.1-.21.36-.15.45a1.77,1.77,0,0,1-.27,2.4,2,2,0,0,0-.37,1.51c0,1.06,0,2.12,0,3.18,0,.29-.11.67.4.8a19.48,19.48,0,0,1,.35-2.05,1.62,1.62,0,0,1,2.69-.94,3,3,0,0,0,1.87.79.86.86,0,0,1,.48.21,1.13,1.13,0,0,1,.49,1.14.87.87,0,0,1-1,.66,6,6,0,0,1-1.25-.37,1.37,1.37,0,0,0-1.67.41c-.29.32-.71.72-.69,1.07a2.55,2.55,0,0,1-1.65,2.51c0,1.48,0,2.89,0,4.3a2.14,2.14,0,0,0,1.41,2.06c.56.24,1.21.26,1.64.78a9.38,9.38,0,0,0,2.18,1.47c1.31.89,3,1.19,4,2.43.16.18.47.24.69.37a1.63,1.63,0,0,0,1.76.12,2.26,2.26,0,0,1,.74-.26c.78-.13,1.39.06,1.41,1.06a4.61,4.61,0,0,0,0,.53,1.65,1.65,0,0,0,2.52,1.32c.46-.23.75-.79,1.36-.72a1.24,1.24,0,0,1,.85,1.46c-.08.41-.45.77-.21,1.25,2.2,1.56,2.2,1.56,4.78,1a3.74,3.74,0,0,1,.87,1.6A2.38,2.38,0,0,0,32,98.64a3,3,0,0,1,2.27.25l0,0a2.34,2.34,0,0,0,1.62,2.93c.89.34,1.68,1,2.52.74.68-.34.64-.84.81-1.23A2.52,2.52,0,0,1,40.5,100a1.24,1.24,0,0,1,1.44.37.69.69,0,0,1,.07,1c-.45.41-1,.73-1.44,1.13a1.23,1.23,0,0,0,.4,2,4.37,4.37,0,0,0,1,.19,2.74,2.74,0,0,1,1.66.29c.37.64.53,1.58,1.37,2l3.22,1.76c1.77-1.54.59-3.59,1.09-5.36l1.81-1c1.34-.75,2-.66,3,.46a.79.79,0,0,1,.17,1,1,1,0,0,1-1.09.54c-.35-.07-.67-.22-1-.28s-.95.41-.76.82a2.43,2.43,0,0,1-.44,2.66,1.09,1.09,0,0,0,.38,1.62c1.3-.7,2.62-1.39,3.92-2.12a2.57,2.57,0,0,0,1.4-2.11c.1-1,.44-1.1,1.49-.73a1.89,1.89,0,0,0,1.76,0c.6-.36,1.22-.68,1.71-.95.27-.51,0-.82,0-1.16a1.1,1.1,0,0,1,1.23-1.3,3.48,3.48,0,0,1,.75.25c1.31.59,2.17,0,3-1.08-.73-.58-1.64-.89-1.87-1.91.07-.2.15-.45.24-.7.65-1.86,1.06-3.7.23-5.66A6.86,6.86,0,0,1,65,89.6c0-.61.19-1.24-.17-1.81a2.69,2.69,0,0,0-.44-.28c-.24-.11-.51-.16-.74-.28a1,1,0,0,1-.61-.81,1.1,1.1,0,0,1,.77-1,5.26,5.26,0,0,1,1.31-.09,2.19,2.19,0,0,1,2,2.11,4.64,4.64,0,0,1,0,.53c.07,2-.26,4.06.55,6a1.23,1.23,0,0,1,0,.78c-.44,1.43.27,2.72.28,4.19A6.4,6.4,0,0,0,72,96.9l0-3.69,0,0,1.06,0a.94.94,0,0,1,1.09.89,2.45,2.45,0,0,0,.11.78.74.74,0,0,0,.89.39c.74-.18,1.14-.62.9-1.31a1.59,1.59,0,0,1,.3-1.7c.33-.41.56-.9.87-1.32a.88.88,0,0,1,1.37.16,2.79,2.79,0,0,1,.32,1.53.63.63,0,0,0-.2.1s0,.11,0,.17l.26-.25c1.4.13,2.23-.76,3.06-1.61-.16-.36-.36-.48-.64-.4a4.64,4.64,0,0,1-.75.24,1,1,0,0,1-1-.72.73.73,0,0,1,.33-.92,3.17,3.17,0,0,0,1.8-2.12c.13-.43,1.07-.44,1.39,0a2.42,2.42,0,0,1,.5.9,3.15,3.15,0,0,0,1.11,1.88,9.63,9.63,0,0,0,3-1.94c.56-1.51-.41-2.39-.88-3.31.84-1.09,1.34-1.19,1.86-.42a5.76,5.76,0,0,0,1.06,1.5,1.37,1.37,0,0,0,1.46.34A3.85,3.85,0,0,0,93.5,84.3a3.25,3.25,0,0,0-.4-.36,1.39,1.39,0,0,1-.71-2,1.49,1.49,0,0,0-.07-1.27,2.63,2.63,0,0,1-.13-1c0-.35.58-.81.93-.81a1,1,0,0,1,.84.55,3.83,3.83,0,0,1,.23.75c.26.82.51,1.65.94,3.06a37.08,37.08,0,0,0,.17-4.31A2.36,2.36,0,0,0,94,76.77c-.43-.27-1.1-.12-1.33-.88.2-1,.41-2.11.64-3.21,0-.07.12-.12.36-.34s1.24.21,1.94-.53c0-.43.1-1,.1-1.63,0-1.23.14-2.46-.84-3.5a1.47,1.47,0,0,1,0-1.75c.18-.3.43-.56.6-.87a1.85,1.85,0,0,0,.11-1.29c-.06-.38-.54-.61-.8-.36s-.46.52-.69.78c-.51.57-.8.69-1.35.43a8.85,8.85,0,0,1-1.38-.77A1.49,1.49,0,0,1,91,61.16c.13-.38.62-.5,1.38-.32l.87.24c.54-.81,1.59-.9,2.29-1.41a6.55,6.55,0,0,0,.09-.66q0-9.55-.1-19.11a4.12,4.12,0,0,0-.38-1.79,1.32,1.32,0,0,1-.11-1c.72-1.44.36-3,.41-4.44a3.06,3.06,0,0,0-.18-1,1.17,1.17,0,0,0-1.73-.56c-.13.1-.2.29-.34.4-.53.43-1,.5-1.41.17a1,1,0,0,1-.45-1.14,2.12,2.12,0,0,0,.16-1,1.38,1.38,0,0,0-1-.84,10.37,10.37,0,0,1-3.43-1.88c-.26-.24-.84-.13-1.28-.18a.85.85,0,0,0-.09-.22s-.12,0-.18,0l.25.29c0,.71,0,1.39.83,1.76s1.52.85,2.27,1.27c-.08,1.51-.52,1.86-1.66,1.32-.86-.4-1.89-.61-2.06-1.83,0-.18-.39-.31-.58-.48s-.68-.45-.73-.72c-.23-1.23-1.4-2-1.36-3.4a1,1,0,0,0-1.09-.92.41.41,0,0,0-.2.14c-.38.59,0,.92.37,1.34a1.12,1.12,0,0,1-.59,2,5.19,5.19,0,0,1-1,.09l0,0c0-.61.1-1.29-.48-1.71-1.36-1-2.19-1.61-3.57.17-.21.27-.46.52-.71.81a9.21,9.21,0,0,1,.32,1.28,1,1,0,0,1-1,1,.88.88,0,0,1-.9-.78,1.88,1.88,0,0,1,.81-2.08,3.86,3.86,0,0,1-.23-.76c-.15-1-.64-1.64-1.72-1.66a3.87,3.87,0,0,1-2-.72,1.55,1.55,0,0,1-.68-1.61A.84.84,0,0,1,71,20.48c.54.28,1,.65,1.6.9s1.26-.14,1.81.43c.06.19.13.44.21.68.34,1.14.67,1.26,1.59.54s1-.76,2.2.09c.33.23.78.19.87-.09a.77.77,0,0,0-.25-1A3.2,3.2,0,0,0,77,21.36a2.72,2.72,0,0,1-1.83-.28c.18-1.24-1-1.68-2-2.28C72,18,70.69,17.25,69.38,16.52a12.77,12.77,0,0,0-1.93-.86,1.14,1.14,0,0,0-1.23.25c-.23.24,0,.74.45,1.07.22.15.48.24.69.39a1.24,1.24,0,0,1,.36,2,6.44,6.44,0,0,0-1.07,2.25,1.61,1.61,0,0,0,.2.35l.88.58c1,.71,1.15,1.1.65,2.2a4.87,4.87,0,0,1-.5.93,1.16,1.16,0,0,1-1.55.33c-.2-.35-.44-.81-.72-1.25a2.14,2.14,0,0,1-.22-2.47,1.3,1.3,0,0,0-.1-1.26c-.47-1.06-.15-2.29-.71-3.33.74-1.25-.15-2.38-.28-3.56a.74.74,0,0,0-1.23-.44c-.78.76-2,.76-2.66,1.66-.35.45-1,.32-1.49.16a1,1,0,0,1-.74-1,1,1,0,0,1,.6-.81c.32-.12.68-.13,1-.22a1.26,1.26,0,0,0,.53-2.08A2.87,2.87,0,0,0,59.7,11c-1.32-.7-2.64-1.38-4-2.06A1.29,1.29,0,0,0,55,10.67c.29.83.61,1.65.86,2.49a1.81,1.81,0,0,1-.05,1,.85.85,0,0,1-.62.4,1.18,1.18,0,0,1-.67-.31.68.68,0,0,1-.18-.47,3.55,3.55,0,0,0-2.22-3.53A1.12,1.12,0,0,1,52,8.47c.19-.16.5-.18.72-.32a.61.61,0,0,0,.13-.9c-.6-.5-1.2-1-2-.85-.4.34-.33.72-.42,1-.19.67-.54.94-1.1.88-.17,0-.39,0-.52-.08-.8-.59-1.53-.2-2.22.2-.92.52-1.8,1.09-2.8,1.71.41.33.75.57,1.05.85a.91.91,0,0,1,.27,1c-.41,1-.85,1.91-1.34,2.83a.84.84,0,0,1-1.36,0,1.19,1.19,0,0,1-.25-1.23c.19-.48.59-.89.79-1.37a.71.71,0,0,0-.2-1,1,1,0,0,0-.73-.11,18.71,18.71,0,0,0-4.69,2.89C37.28,14.1,37.28,14.22,37.25,14.3Z"/><path d="M42.27,54.91a5,5,0,0,1-.86.21,1.38,1.38,0,0,1-1.6-1,.82.82,0,0,1,0-.26c.32-2.17-.82-3.68-2.27-5.06a2.18,2.18,0,0,1-.34-.4,1.25,1.25,0,0,1,.27-1.45,1.22,1.22,0,0,1,1.45.15c.16.2.21.49.35.7.49.72,1,.61,1.52-.28L41,47c.59-.65,1.6-.05,2.16-.69.37-.51.21-1,.23-1.57a4.6,4.6,0,0,1,.16-1,1,1,0,0,1,1.05-.62,1,1,0,0,1,.74,1c0,.26-.19.49-.24.75a1.34,1.34,0,0,0,.56,1.6,1.72,1.72,0,0,0,2.16-.34,8.39,8.39,0,0,0,.66-1.35c.83-.25,1.59-.48,2.35-.69a1.17,1.17,0,0,1,1.2.35,1,1,0,0,1-.1,1.59,3,3,0,0,1-1,.46,1.83,1.83,0,0,0-1.41,1.06c-.36.76-1.21,1-1.71,1.59a.68.68,0,0,0,.63.72c.51.08,1.07-.12,1.54.26.41.86.85,1.72,1.23,2.6a2.25,2.25,0,0,1,.15,1,1,1,0,0,1-.38.66.8.8,0,0,1-1-.05,1.8,1.8,0,0,1-.62-.82,2.71,2.71,0,0,0-2.86-2.25c-.06,0-.13-.11-.22-.2-.42-.49-.19-1.15-.33-1.74a1.28,1.28,0,0,0-1.1-1,3.57,3.57,0,0,0-1.83.13,6.93,6.93,0,0,1-1,.37c-1.52.38-1.54.41-.6,1.75a2,2,0,0,1,.35,1.23,8.28,8.28,0,0,0,.07,1.32,1.07,1.07,0,0,0,1.38.82,3.44,3.44,0,0,1,.75-.19.89.89,0,0,1,.81.59,2.47,2.47,0,0,1,0,2.06,12.59,12.59,0,0,1-1.42,2.21.85.85,0,0,1-1,.21.77.77,0,0,1-.54-.81,5,5,0,0,1,.27-1.28A2.78,2.78,0,0,0,42.27,54.91Z"/><path d="M16,75.61l.17,1.93c.46.62,1,.63,1.5.86a.92.92,0,0,1,.22,1.37,3.36,3.36,0,0,1-.85.58c-.3.14-.7.12-.83.61.24.72,1.1.7,1.58,1.17a.83.83,0,0,1,.27,1c-.15.37-.47.46-.83.52-.93.17-1.37-.73-2.12-.92-.63.07-.53.62-.68,1a1.35,1.35,0,0,1-.9.9c-.84.24-1.7.44-2.56.62s-1.32-.36-1.22-1.26a3.09,3.09,0,0,1,.31-.85c.65-.42,1.15.13,1.66,0,.66-.22,1.31-.46,2-.7a1.13,1.13,0,0,0-1.28-.81,4.26,4.26,0,0,0-1.27.29A2.56,2.56,0,0,1,9.3,82a16.7,16.7,0,0,0-3.12-.58,4.51,4.51,0,0,1-.12-2.63A4.62,4.62,0,0,1,8,78c.82.29.29,1.16.77,1.64.16-.2.33-.37.47-.57a1.59,1.59,0,0,1,2.09-.61,9.89,9.89,0,0,1,1.85,1,2.25,2.25,0,0,0,1.23.4c.6,0,.93-.25,1-.93a3.64,3.64,0,0,0-.06-.84,8.8,8.8,0,0,1-1.14-.59,1.07,1.07,0,0,1-.32-1.2.78.78,0,0,1,.73-.65,11.65,11.65,0,0,1,1.32,0Z"/><path d="M55.64,72c.45-1.42.08-2.55.12-3.76a6.71,6.71,0,0,1-.93-.46,1.61,1.61,0,0,1-.34-2.27,1,1,0,0,1,.7-.23,8,8,0,0,1,1.19.3.67.67,0,0,0,.2-1,2.26,2.26,0,0,1-.24-1.53,1,1,0,0,1,1.59-.72c.22.15.39.35.6.51s.43.29.65.44a14.25,14.25,0,0,1,.7-1.41.82.82,0,0,1,1.17-.15c.45.33.76,1.21.43,1.36C60.2,63.71,60.15,65.28,59,66a2.57,2.57,0,0,0-1.09,2.3c.06.82-.3,1.54-.3,2.28A4.75,4.75,0,0,1,58,71c.56.68.54,1.43-.09,1.77a5.24,5.24,0,0,1-1.24.38.91.91,0,0,0-.77.62c-.29,1-1.29,1.38-2.05,1.94-.33.24-1.08,0-1.39-.48a1.16,1.16,0,0,1,0-1.46C53.4,73,54.13,71.93,55.64,72Z"/><path d="M60.76,27.39a10.48,10.48,0,0,0,4.49-.51c.25.26.63.47.69.76a4.23,4.23,0,0,0,1.73,2.21c.79,0,.9-.75,1.31-1.16a.92.92,0,0,1,1.21-.11c.51.29.85.94.63,1.32a25.57,25.57,0,0,1-1.56,2.42c-.22.3-.64.21-1,0-.5-.28-.74-1-1.57-1,0,1.13,0,2.18-.09,3.23a1.24,1.24,0,0,1-2.11.88,4.81,4.81,0,0,1-.35-.51c.54-1.44.2-3.07.82-4.44-.47-.85-1-1.16-1.83-.85a5.49,5.49,0,0,1-1.25.39,1.33,1.33,0,0,1-1.5-.89l.38-1.75Z"/><path d="M53,50.33a2.07,2.07,0,0,1,2.21,1.08.94.94,0,0,0,1.57.07,4.22,4.22,0,0,1,2-1.65.93.93,0,0,1,1.15.78A1.87,1.87,0,0,1,59,52.42c-.49.35-1.15.47-1.6.86a8.56,8.56,0,0,0-1.07,1.49c-.36.49-.74.95-1.1,1.4,2,2.87,2,2,0,4.64-.16.21-.33.4-.47.56a1.87,1.87,0,0,1-.58.08c-.84-.11-1.24-.47-1.08-1.14a4.62,4.62,0,0,0,0-2.78c-.29-.79.6-1.16,1.22-1.67a2.73,2.73,0,0,1,.12-2.64,6.6,6.6,0,0,1-1.38-1.36A4.16,4.16,0,0,1,53,50.3Z"/><path d="M40,22.25a2,2,0,0,1,1-1.78,3.85,3.85,0,0,1,2.43-.9.77.77,0,0,1,.75.63c.1.87.13,1.74.19,2.65a4.74,4.74,0,0,1,1.83,2c.35-.45.54-.74.77-1,.76-.84,1.56-.81,2.15.06.3.44.56.9.86,1.32a4.37,4.37,0,0,0,.54.52c0,.13.05.23,0,.3-.16.4-.35.79-.56,1.27a11.17,11.17,0,0,1-3.49.11,1.75,1.75,0,0,1-.62-1.28c-.09-.37-.29-.69-.69-.68-1.22,0-1.37-.85-1.52-1.85L40,22.23Z"/><path d="M23.66,57.17c-.72.3-1.27.58-1.85.77-.77.27-1.23.1-1.7-.72a1.53,1.53,0,0,0-.95-.81,2.7,2.7,0,0,1-.89-.53,1.16,1.16,0,0,1,0-1.47c.61-.5,1.25-1,1.9-1.42A3.8,3.8,0,0,0,22,50.73a9.66,9.66,0,0,0,2.68-.7A1.18,1.18,0,0,1,25,50c.69-.08,1.2.12,1.35.55A1.21,1.21,0,0,1,25.45,52a9,9,0,0,1-1,.18,1.3,1.3,0,0,0-1.12,1,1.84,1.84,0,0,1-2,1.7.89.89,0,0,0-.91.79,1.88,1.88,0,0,0,1.53.2,10.38,10.38,0,0,0,1.46-.37C23.93,56,23.83,56.51,23.66,57.17Z"/><path d="M61.11,38.17a10.78,10.78,0,0,1-.55,1.41,1,1,0,0,1-1.75,0c-.35-.5-.5-1.14-1.19-1.57-.4,0-.93,0-1.45,0a2.68,2.68,0,0,1-1-.25.8.8,0,0,1-.49-.86,1.46,1.46,0,0,1,.4-.66.87.87,0,0,1,1-.23c1.34.87,2.54-.14,3.8-.25.32,0,.52-.45.45-.85,0-.17-.11-.34-.15-.51-.26-1-.15-1.35.74-2a.68.68,0,0,1,.5-.1.57.57,0,0,1,.45.57,4.44,4.44,0,0,1-.1,1A8.42,8.42,0,0,1,61.35,35l1.89,1.88c.71.71.83,1.1.49,1.57s-.75.46-1.57-.05A1.29,1.29,0,0,0,61.11,38.17Z"/><path d="M28.12,70.49c.44,1.19.77,2,1,2.84a1.14,1.14,0,0,1-.35,1.21.72.72,0,0,1-.94.21,3.93,3.93,0,0,1-1.79-2.81,1,1,0,0,1,.81-1.17,2.43,2.43,0,0,0,.53-.31c-.77-1.18.15-2.08.76-2.85-.45-.52-.75-.65-1.13-.53s-.82.33-1.25.42a1.28,1.28,0,0,1-1.24-.82c-.18-.38,0-1.06.39-1.11a3.69,3.69,0,0,0,2.6-1c.21-.25.7-.12,1,.11a13.36,13.36,0,0,1,1.17,1.09c.64.67.78,1.13.17,1.86C29.1,68.49,29.34,69.87,28.12,70.49Z"/><path d="M37.84,59.12c-.74-.17-1,.64-1.79.75a1.64,1.64,0,0,1-1.64-1.78,1.2,1.2,0,0,0-.7-1.05c-.45-.26-.92-.51-1.39-.76a2.15,2.15,0,0,1-.8-1,.86.86,0,0,1,0-1c.28-.37.74-.73,1.12-.5,1.12.68,2.75.85,2.84,2.68,0,.63.15.63,1.46,1.31.91.11,1.49-.93,2.57-.71.24,1.13.52,2.3.72,3.49a1.9,1.9,0,0,1-.25,1,1.21,1.21,0,0,1-1.39.47,1.07,1.07,0,0,1-.75-1.21c.11-.5.5-1,.16-1.49A1.71,1.71,0,0,0,37.84,59.12Z"/><path d="M34.46,92.51,35,90.75c.7-.69,1.48-.28,2.28-.09a10.9,10.9,0,0,0,.56-1.28c.1-.33.06-.7.13-1a1.16,1.16,0,0,1,1-1,1.11,1.11,0,0,1,1,1,7.2,7.2,0,0,1-.09,2.58c-.72.83-1.7.26-2.53.56a3.28,3.28,0,0,0-1.08,2,1.31,1.31,0,0,1-1.33,1.06l-1.32.05a1.81,1.81,0,0,0-1.62.69,1.13,1.13,0,0,1-.67.36,1.11,1.11,0,0,1-1.19-.35,1.06,1.06,0,0,1,.21-1.21C31.56,93.31,32.62,92.12,34.46,92.51Z"/><path d="M23,88.34c.08-.6-.18-1.23.17-1.78a1.43,1.43,0,0,1,1.22-.37c.35,0,.79.1,1-.23.49-.85,1.59-.75,2.15-1.42.72-.88,1.81-1,2.74-1.48a.88.88,0,0,1,1.11.42c.19.53.06,1.34-.34,1.41-1.08.19-1.71,1.26-2.82,1.35-.12,0-.22.25-.33.38-.08.52.32.77.6,1.1s.49.93,1,1.17a2.07,2.07,0,0,1,.62.48,1,1,0,0,1,.13,1.21c-.25.34-1.23.55-1.43.21a5.83,5.83,0,0,0-2-2c-.2-.14-.13-.66-.24-1a.81.81,0,0,0-1.25-.46,3.4,3.4,0,0,1-2.37.94Z"/><path d="M24.89,72.76c-.78,1.5-.78,1.5-.91,3.86-.05.77-.39,1.1-1.2,1.08a4,4,0,0,1-1-.13,1.23,1.23,0,0,1-.63-1.93,22.09,22.09,0,0,1,1.61-1.54,3.21,3.21,0,0,0,.08-1.74c-.62-.57-1.28-1.14-1.91-1.74a4.1,4.1,0,0,1-1.21-2.31,1,1,0,0,1,.53-1.1c.51-.2,1.29,0,1.41.37a4.49,4.49,0,0,0,2,2.72A6.77,6.77,0,0,0,24.89,72.76Z"/><path d="M45.67,69.61a4.69,4.69,0,0,0,2.44.42,1.7,1.7,0,0,1,.78.09.74.74,0,0,1,.47.84.57.57,0,0,1-.47.56c-.78.12-1.59.06-2.35.25a6.84,6.84,0,0,0-3.19,1.75c.19,1,1.32,1.08,1.74,1.81a1,1,0,0,1-.18,1,1.15,1.15,0,0,1-1.62.37c-.59-.38-1.14-.81-1.6-1.14a1.38,1.38,0,0,1,.25-1.39,1.49,1.49,0,0,0,.34-1.67c-.38-1.13-.05-1.71,1.12-1.85A7.33,7.33,0,0,0,45.67,69.61Z"/><path d="M76.44,55.41a2.63,2.63,0,0,1-.58,2A6.3,6.3,0,0,1,73.48,59c-.08,0-.2,0-.26,0-.88-.58-1.68.08-2.52.15a1,1,0,0,1-1.12-.86,1.18,1.18,0,0,1,0-.26,3,3,0,0,0-.82-2.66,1.1,1.1,0,0,1,0-1.46.93.93,0,0,1,1.55.08,5.27,5.27,0,0,1,.29,1c.06.24.12.49.2.78l2.3.83c1-.68,2-1.42,3.34-1.16Z"/><path d="M69.08,65.58a7.69,7.69,0,0,0,.49,2.84,1,1,0,0,1-.49,1.34,1.54,1.54,0,0,1-1.83-.66,3.56,3.56,0,0,1-.25-1c0-.7,0-1.39,0-2.1l-1-.62a2.37,2.37,0,0,1-1.17-2.22c0-.79,0-1.59.09-2.37a1.21,1.21,0,0,1,1.4-.93c.63.13,1.27.81,1,1.31-.74,1.44.07,2.71.29,4.06.39.47,1,.34,1.46.39Z"/><path d="M80.51,35.26c1.36,1.11.92,2.57,1.24,3.79.73,0,.58-1.12,1.41-1s1.44.83,2.18,1.26a1.13,1.13,0,0,1,.35,1.41,1,1,0,0,1-1.27.57,1.29,1.29,0,0,0-1.44.21,2.36,2.36,0,0,1-.62.47,1.11,1.11,0,0,1-1.54-.57,6.41,6.41,0,0,0-1.06-2.06c-.51-.62-.4-2.77,0-3.53C79.9,35.58,80.19,35.48,80.51,35.26Z"/><path d="M30.57,45.12a15.94,15.94,0,0,1-1.44-1.55,1,1,0,0,1,.1-1.23,1.16,1.16,0,0,1,1.21-.27c.09,0,.2,0,.24.09,1.05,1.29,2.28,1,3.58.48a2.18,2.18,0,0,1,.64,0l3,1.34a3.91,3.91,0,0,1,.15.79c0,.51.08,1.09-.56,1.32s-.81-.14-1.11-.49a1.22,1.22,0,0,0-1.45-.31,3.47,3.47,0,0,1-2.79,0A5.78,5.78,0,0,0,30.57,45.12Z"/><path d="M74.41,44.55a7.15,7.15,0,0,1,1,.68,1.12,1.12,0,0,1,.31,1.42,1,1,0,0,1-1.3.57,1.06,1.06,0,0,1-.25-.09,3,3,0,0,0-3.18.59.87.87,0,0,1-1.3-.44c-.45-1-.15-2,.92-1.87,1.22.12,1.9-.76,2.78-1.3-.07-.5-.62-.51-.86-.84a.86.86,0,0,1,0-1.19,11.51,11.51,0,0,1,1-.88c1.11.23,1.59,1.1,2.17,1.66A1.08,1.08,0,0,1,75.26,44,10.12,10.12,0,0,1,74.41,44.55Z"/><path d="M85.2,68.8c.25.14.36.16.4.23.79,1.32,1.69,2.26,3.37,1.24a1.06,1.06,0,0,1,1.22.27,10.56,10.56,0,0,1,1.09,1.13,1.22,1.22,0,0,1,0,1.25.9.9,0,0,1-1.16.31c-.41-.17-.8-.37-1.19-.56a1.08,1.08,0,0,0-1-.18c-.81.43-1.35.21-2.09-.36a4.54,4.54,0,0,0-3-.82.81.81,0,0,1-.91-.76,1.1,1.1,0,0,1,.61-1.08,3.79,3.79,0,0,1,.74-.25Z"/><path d="M76.46,55.44c.15-1.49.15-1.59,1.44-1.6,1.57,0,2-.41,1.48-2.11a7.34,7.34,0,0,1-.29-1.54,2.56,2.56,0,0,1,.2-1,.91.91,0,0,1,1.32-.38c.44.31.94.68,1,1.21a13.35,13.35,0,0,0,.68,2.31c0,.89-.82,1.19-.89,1.77-.22,1.65-1.3,1.82-2.65,1.83a4.08,4.08,0,0,1-2.26-.51Z"/><path d="M32.77,33.68c.86,1,1,2.16,1.89,3a1,1,0,0,1-.1,1.23,1.21,1.21,0,0,1-1.45.19,9.91,9.91,0,0,1-1-1.14c-.76-.15-1,.74-1.65.75a.78.78,0,0,1-.84-.47,1.11,1.11,0,0,1,.83-1.59l.73-.18c.51-.49.49-1.15.74-1.73a6.64,6.64,0,0,0-.43-.65A1.35,1.35,0,0,1,32,30.88a8.31,8.31,0,0,1,1-.46.89.89,0,0,1,1,.14,1.16,1.16,0,0,1,.27,1,1.93,1.93,0,0,1-.6,1.15C33.36,33,33.14,33.24,32.77,33.68Z"/><path d="M38.62,40.71C40.26,40,41.81,40,43,39.06c.46-.85.17-1.76.29-2.62a.88.88,0,0,1,.56-.81,1.09,1.09,0,0,1,1.17.39,3,3,0,0,1,0,3c-.21.35-.65.56-.75,1a2.42,2.42,0,0,1-2,1.88,16.35,16.35,0,0,0-1.92.86,1.27,1.27,0,0,1-1.81-1A5.09,5.09,0,0,1,38.62,40.71Z"/><path d="M39.94,80.89c-1.44,0-2.7-.77-4.13-.73-.39,0-.59-.37-.57-.74a.67.67,0,0,1,.63-.71c1.58,0,3.16-.07,4.73-.08a1.16,1.16,0,0,1,.74.22,6.33,6.33,0,0,0,2.09,1.05A1.2,1.2,0,0,1,43.61,82a7.36,7.36,0,0,1-.93.47c-1,.46-1.4.37-2-.47C40.41,81.68,40.2,81.3,39.94,80.89Z"/><path d="M21.05,37.78c0-2.14-1.29-4.06-.41-6a1.34,1.34,0,0,1,1.51.44,1.63,1.63,0,0,1,.34,1c.08.52-.09,1.16.14,1.57,1.1,1.9,0,3.6-.41,5.33a1.41,1.41,0,0,1-2.15.76,1.2,1.2,0,0,1-.45-1.61,5.74,5.74,0,0,1,.73-.75C20.53,38.24,20.73,38.07,21.05,37.78Z"/><path d="M42.27,63.43c-.38-.72-1-1.18-.87-2a.88.88,0,0,1,1.08-.82A3.05,3.05,0,0,1,45,63.35c-.14.18-.26.5-.46.57a2.32,2.32,0,0,0-1.73,1.71c-.07.27-.46.51-.76.67a1.57,1.57,0,0,0-.69,1c-.5,1.52-1.4,1-2.11.27a.93.93,0,0,1,.23-1.54,1.2,1.2,0,0,1,.48-.2,1.07,1.07,0,0,0,1-1C41,64.16,41.64,63.9,42.27,63.43Z"/><path d="M56.54,43c.14-.3-.08-.59-.19-.92a3.63,3.63,0,0,1-.21-1c0-.66.56-1.31,1.08-1.27a1.15,1.15,0,0,1,.93,1.36,11,11,0,0,1-.39,1.23l.89,1.31a1.9,1.9,0,0,1-.11.53,2,2,0,0,1-.48.62,3.18,3.18,0,0,0-1.41,2.93c.07.64-.59,1-1.35.84a.71.71,0,0,1-.63-.72,2,2,0,0,1,.18-.75c.07-.26.19-.5.24-.75.15-.68-.73-1.25-.17-2C55.36,43.85,56.23,43.83,56.54,43Z"/><path d="M49.79,38.25c.88.55,1.62.23,2.29.41a1.13,1.13,0,0,1,.63.4.79.79,0,0,1-.06,1c-1,.85-1.9,1.85-3.51,1.75-.65-1-1-2.2-2-2.77L47.54,37a2.25,2.25,0,0,1,.08-.52,1.23,1.23,0,0,1,1-.82,1,1,0,0,1,1,.75C49.66,37,49.71,37.61,49.79,38.25Z"/><path d="M16.54,72.93a2.56,2.56,0,0,1,.16-.76,1.22,1.22,0,0,1,1.75-.6c.72.42.76,1.07.13,1.93-.06.07-.11.14-.24.32.37.21.74.39,1.09.61.63.39.84.8.68,1.24a1.28,1.28,0,0,1-1.67.83c-.84-.26-1.65-.59-2.47-.89l0,0c-.19-.65-.7-.87-1.29-1.09-1-.37-1.05-.86-.39-1.73a1.9,1.9,0,0,1,.48-.28l1.65.47.32.22Z"/><path d="M47.32,101.74a5.94,5.94,0,0,0-.32,2.13,1.4,1.4,0,0,1-1.67,1.28c-.56,0-1.09-.69-.79-1.08,1-1.28,1-2.76,1-4.25a1.44,1.44,0,0,1,.88-1.42c.9.3,2.07.27,2.89,1.24a1,1,0,0,1-.3,1.54c-.31.14-.67.17-1,.28A4.89,4.89,0,0,0,47.32,101.74Z"/><path d="M14.33,53.17a3.56,3.56,0,0,1,.42-.62c.29-.31.89-.59.89-.87,0-1,.91-1.77.38-2.77a1.19,1.19,0,0,1,.17-1.23A1,1,0,0,1,17.46,47c.64.24,1.1.89.81,1.44a5.87,5.87,0,0,0-.36,3.09A2.86,2.86,0,0,1,17,53.91C15.56,55.28,15.16,55.2,14.33,53.17Z"/><path d="M61.29,89.6c.31.42.54.69.73,1A1,1,0,0,1,61.81,92a1.12,1.12,0,0,1-1.46,0,9.09,9.09,0,0,0-2-2.11.71.71,0,0,1-.09-1,13.46,13.46,0,0,0,1.19-2.33,1.42,1.42,0,0,1,2.4.06c.36.78.6,1.47,0,2.2A9.27,9.27,0,0,0,61.29,89.6Z"/><path d="M93.57,68.63a6.51,6.51,0,0,1-.3,1,.87.87,0,0,1-1.34.2c-.05-.07-.15-.12-.18-.19a12.66,12.66,0,0,0-3.14-4.12,1.2,1.2,0,0,1,0-1.66,1.16,1.16,0,0,1,1.83-.05c.42.55.8,1.13,1.19,1.71a2.69,2.69,0,0,0,1,1.12C93.45,66.92,93.64,67.58,93.57,68.63Z"/><path d="M26.89,24a2.6,2.6,0,0,1,.7,2.93c-.15.52-.88.89-1.25.52-.87-.85-1.94-.73-3-.8-.53,0-1.06,0-1.59,0-.72,0-1.32-.57-1.26-1.09a1.16,1.16,0,0,1,1.14-.92c.7,0,1.41-.09,2.12-.06A5.74,5.74,0,0,0,26.89,24Z"/><path d="M11.55,48.71A1.13,1.13,0,0,1,12.48,50c-.05.21-.29.53-.47.54a10.7,10.7,0,0,0-2.79.55c-.43.15-.81-.19-1.12-.53a8.71,8.71,0,0,1-1.78-4c-.11-.48.22-.82.62-1A.82.82,0,0,1,8.2,46a7.18,7.18,0,0,1,.1,1,2.14,2.14,0,0,0,1,1.72,1.43,1.43,0,0,0,1.71,0A2.15,2.15,0,0,1,11.55,48.71Z"/><path d="M60.24,24.73c-.1-.91-.7-1.81-.06-2.75a.55.55,0,0,0,0-.5c-.76-1.13.13-2.18.13-3.27a.52.52,0,0,1,.11-.24,1,1,0,0,1,.82-.56A.81.81,0,0,1,62,18c.17.49.07,1.11.33,1.51.94,1.45-.14,2.7-.34,4a1.77,1.77,0,0,1-1.82,1.25Z"/><path d="M26.29,40c-.81.11-.89.87-1.35,1.25a1.19,1.19,0,0,1-1.23.15.86.86,0,0,1-.53-.82,4.61,4.61,0,0,1,0-1.05,1.14,1.14,0,0,1,1-1.08,9.18,9.18,0,0,0,2.53-.7c.73.36,1.45.68,2.13,1.05a.93.93,0,0,1,.49,1.3,1.3,1.3,0,0,1-1.52.74C27.23,40.65,26.89,40,26.29,40Z"/><path d="M88.56,47.37a2.52,2.52,0,0,1,.55,0c.68.15,1.35.34,2,.47s1.29-.55,2-.5a1.8,1.8,0,0,1,.91.44.76.76,0,0,1,0,1.15c-.89.52-1.79,1-2.72,1.49a1.06,1.06,0,0,1-.76,0c-.9-.33-1.79-.69-2.67-1.07a1,1,0,0,1-.7-1,1.12,1.12,0,0,1,.87-.88A2.31,2.31,0,0,1,88.56,47.37Z"/><path d="M91,55.63a7.82,7.82,0,0,1,.83-1,1.37,1.37,0,0,1,2.2.39,5,5,0,0,1,.4,1,1.46,1.46,0,0,1-1.75,1.9,27.07,27.07,0,0,0-3.07-.55c-.77-.09-1.1-1.21-.64-1.92a.88.88,0,0,1,1.13-.33C90.45,55.22,90.72,55.43,91,55.63Z"/><path d="M26.05,80.57c.05-.82.07-1.52.13-2.22a1.26,1.26,0,0,1,.74-1,.86.86,0,0,1,1.26.52,7.11,7.11,0,0,1-.66,4.37,1.64,1.64,0,0,1-.14.22c-.59.82-2.93.77-3.61-.08a.8.8,0,0,1,.31-1.13C24.64,81,25.23,80.84,26.05,80.57Z"/><path d="M34.45,64.16c.38.06.5-.32.74-.56a1.22,1.22,0,0,1,1-.36.92.92,0,0,1,.89.45.85.85,0,0,1-.12,1c-.23.25-.55.56-.84.56a8,8,0,0,0-2.8.61.87.87,0,0,1-1-.32,22.36,22.36,0,0,1-1.43-2.2A1.25,1.25,0,0,1,31,62.06a1.35,1.35,0,0,1,1.46-.26A2.6,2.6,0,0,1,33.79,63C34,63.4,33.93,63.91,34.45,64.16Z"/><path d="M54.47,97.65c1.46-.09,2.78.11,3.57,1.58.15.28.56.4.82.63a2.83,2.83,0,0,1,1,2.08,1.33,1.33,0,0,1-.5,1.15,1.12,1.12,0,0,1-1.34.1c-.11-.29-.25-.7-.41-1.09a3,3,0,0,0-1.63-1.93,2.37,2.37,0,0,1-1.44-2.55Z"/><path d="M60.63,95.23c.44.29.79-.13,1.19-.21a1.26,1.26,0,0,1,1.21.33.75.75,0,0,1,.22.94,2.13,2.13,0,0,1-3.48.66,3.07,3.07,0,0,0-.61-.48c-1-.47-1.07-1.31-1-2.23a1.37,1.37,0,0,1,1.57-1.37c.68.14.93.63.76,1.62C60.47,94.75,60.38,95,60.63,95.23Z"/><path d="M33.13,26.57a1.92,1.92,0,0,1,1-2.16A11.76,11.76,0,0,0,36,23c.62-.2.94.36,1.4.54.14-.06.37-.08.42-.18A2.05,2.05,0,0,1,40,22.25l0,0c0,.51,0,1,0,1.55,0,.8-.37,1.14-1.11,1.1a11.25,11.25,0,0,1-1.25-.21c-.5.84-1.67.52-2.2,1.14a2.58,2.58,0,0,1-2.34.73Z"/><path d="M70.25,73.74a1.74,1.74,0,0,1,1.46.94c.23.75.45,1.51.62,2.28A1,1,0,0,1,72,78.15a5.31,5.31,0,0,0-1.44,1.51,1,1,0,0,1-1,.25.83.83,0,0,1-.78-1.1,1.54,1.54,0,0,1,.24-.46,2.08,2.08,0,0,0,.43-2.65c-.34-.67.06-1.18.35-1.71C69.89,73.86,70.11,73.82,70.25,73.74Z"/><path d="M10.79,57.94c-.67-1.15-1.21-2.06-1.77-3,.1-.2.16-.51.34-.64.74-.55,1.47-.54,1.81.13A5.94,5.94,0,0,0,14.05,57a1,1,0,0,1,.06,1.88.93.93,0,0,1-1.21,0c-.33-.29-.59-.65-1.07-.71S11.15,58,10.79,57.94Z"/><path d="M71.27,35.55c.55.94,1.12,1.92,1.72,2.92a2.29,2.29,0,0,1-.4.67,1.13,1.13,0,0,1-1.81-.22c-.22-.37-.26-.89-.54-1.19A4.88,4.88,0,0,0,68,36.07a1.13,1.13,0,0,1-.44-1.78.9.9,0,0,1,1.36-.21A5.21,5.21,0,0,0,71.27,35.55Z"/><path d="M52.09,34.13l-1.25-.69a5.86,5.86,0,0,0-1.09-3.3c-.23-.31.14-.91.57-1a2.16,2.16,0,0,1,1.29,0c.52.3.54.57.44.82a1.24,1.24,0,0,0,.15,1.46,1.7,1.7,0,0,1,.55.87,3.86,3.86,0,0,0,1,2.36,1.2,1.2,0,0,1-.7,1.7c-.41.15-1-.33-1.14-.87a1.51,1.51,0,0,1,0-.52C51.94,34.67,52,34.41,52.09,34.13Z"/><path d="M50.31,76.64c.28,1,.54,1.78.76,2.62a1,1,0,0,1-.57,1.29,1.06,1.06,0,0,1-1.27-.69,3.6,3.6,0,0,0-2.12-2.53,1.07,1.07,0,0,1-.22-.15,1.31,1.31,0,0,1,0-2.06,1,1,0,0,1,1.21-.05,10.5,10.5,0,0,0,1.09,1.12A4.38,4.38,0,0,0,50.31,76.64Z"/><path d="M52.35,89l1.38-1.9c1-.26,1.68-.15,2.08.75,0,.18,0,.4-.08.51a4.63,4.63,0,0,0-1.44,3.28c0,.73-.65,1.13-1.51,1.15a.94.94,0,0,1-1-1,1.06,1.06,0,0,1,.36-1C53,90.34,52.51,89.66,52.35,89Z"/><path d="M59.65,31.67a2.49,2.49,0,0,1-1.41,1.47,6.27,6.27,0,0,1-2-2.83c-.62-.48-1.37,0-2-.33a1.05,1.05,0,0,1-.64-1.25,1.16,1.16,0,0,1,1.27-.7,4.42,4.42,0,0,1,.69.34c.29.19.59.6.85.57,1.66-.18,2.24,1.06,3,2.14C59.43,31.22,59.5,31.39,59.65,31.67Z"/><path d="M76,65l.77,0a1.57,1.57,0,0,1,1.9,1.32,1.08,1.08,0,0,0,.56.81l0,0a2.7,2.7,0,0,1-.26,1.51,1.12,1.12,0,0,1-1.09.59,25.79,25.79,0,0,1-2.75-.71.87.87,0,0,1-.34-1.31c.27-.35.58-.65.87-1A1.63,1.63,0,0,0,76,65Z"/><path d="M27.94,32c.51.56,1.26.37,1.7.89a1.07,1.07,0,0,1-.11,1.61,2.93,2.93,0,0,1-1.72.61c-.25,0-.62-.08-.7-.24a15.82,15.82,0,0,0-1.29-1.93,1.18,1.18,0,0,1,.06-1.26,21.66,21.66,0,0,1,1.32-2,.8.8,0,0,1,.68-.23.81.81,0,0,1,.44.57,3,3,0,0,1-.09,1A8.15,8.15,0,0,1,27.94,32Z"/><path d="M74.84,39.38c-.59-.14-.9-.34-1-.69-.24-.83-.46-1.67-.65-2.52a1.18,1.18,0,0,1,.75-1.25,3.81,3.81,0,0,1,2.58,0C77.36,37,76.54,38.3,74.84,39.38Z"/><path d="M89.87,35.47c.39.08.65.11.89.18.74.2.93.43.92,1a.92.92,0,0,1-1,1c-.87,0-1.75,0-2.63-.07a.67.67,0,0,1-.6-.74,28.44,28.44,0,0,1,.74-3.29A1,1,0,0,1,89.33,33a.88.88,0,0,1,.74.94A14.16,14.16,0,0,1,89.87,35.47Z"/><path d="M39.21,96.32A15.22,15.22,0,0,1,37.69,96a.92.92,0,0,1-.59-1,1.27,1.27,0,0,1,1.48-.76,1,1,0,0,1,.45.26,2.32,2.32,0,0,0,2.1,1.28.63.63,0,0,1,.47.21,12.74,12.74,0,0,0,2,2,.86.86,0,0,1,.08,1,.92.92,0,0,1-1.16.27,17.39,17.39,0,0,1-1.95-1.3A13.71,13.71,0,0,1,39.21,96.32Z"/><path d="M21.13,85.45a4.34,4.34,0,0,1,.25,1,1.2,1.2,0,0,1-1.09,1.26c-.38.09-.85-.08-.86-.38-.06-1.14-1-2.11-.55-3.44A13.4,13.4,0,0,1,22,83a1.23,1.23,0,0,1,1.15.51A1,1,0,0,1,23,84.73C22.51,85.29,21.64,84.9,21.13,85.45Z"/><path d="M84.53,78.11c-.5-.67-1,0-1.46,0a1,1,0,0,1-1-.73,1.32,1.32,0,0,1,.22-1.48.74.74,0,0,1,.47-.16,2.32,2.32,0,0,1,1,.4,1.51,1.51,0,0,0,1.69.22c.8-.25,1.67.81,1.22,1.46a15.41,15.41,0,0,0-1.3,2.56.8.8,0,0,1-1.15.26.92.92,0,0,1-.35-1.15C84.05,79,84.58,78.67,84.53,78.11Z"/><path d="M64.76,49.44c.22-.91.41-1.84.68-2.75.06-.21.32-.39.53-.53a.84.84,0,0,1,1.27.42,2.91,2.91,0,0,1,.1.77,1.1,1.1,0,0,0,1,1.31.75.75,0,0,1,.59.76,1,1,0,0,1-.64,1,3.74,3.74,0,0,1-2.79,0A1.15,1.15,0,0,1,64.76,49.44Z"/><path d="M13,63c.06-.3-.19-.43-.36-.62a2.14,2.14,0,0,1-.43-.63,1,1,0,0,1,.46-1.14,1,1,0,0,1,.72-.11.91.91,0,0,1,.68,1,5.34,5.34,0,0,1-.28,1c.4.3.75.55,1.08.83a1.44,1.44,0,0,1,.46,1.18c0,.61-.44,1.11-1,.94a2.76,2.76,0,0,0-2.27.07,1,1,0,0,1-1-.22.92.92,0,0,1,0-1.53,3.43,3.43,0,0,1,1-.26C12.54,63.43,12.87,63.37,13,63Z"/><path d="M28.63,51.72c.16.08.37.12.46.24.51.71,1,1.42,1.47,2.17a.94.94,0,0,1-.1,1c-.27.38-.65.71-1.09.5a1.53,1.53,0,0,0-1.89.39.85.85,0,0,1-1.32-.33c-.25-.4-.38-.95.05-1.18a3.41,3.41,0,0,0,1.58-2.27A.81.81,0,0,1,28.63,51.72Z"/><path d="M85.54,32c.51,1,.9,1.66,1.25,2.36a.94.94,0,0,1-.32,1.15,1.4,1.4,0,0,1-1.26,0c-.07,0-.17-.11-.19-.18a2.75,2.75,0,0,0-2.33-1.82c-.84-.21-1.07-.68-1.09-1.56,0-.73.64-1.21,1.22-.82A4.08,4.08,0,0,0,85.54,32Z"/><path d="M67.69,39.07a1.17,1.17,0,0,1,.87.53.78.78,0,0,1,0,1c-.55.77-1.13,1.54-1.73,2.28A1.16,1.16,0,0,1,65,42.71a14.4,14.4,0,0,1-.81-2.19c-.06-.19.11-.63.26-.67C65.53,39.55,66.62,39.32,67.69,39.07Z"/><path d="M65.64,53.93a1.18,1.18,0,0,1-.83,1,1.36,1.36,0,0,1-.78,0,2,2,0,0,0-2.23,0A1.93,1.93,0,0,1,61,55a1,1,0,0,1-1.07-.9A2.15,2.15,0,0,1,61.3,52a1.24,1.24,0,0,1,1.68.24c.52.71,1.3.44,1.92.71A1.08,1.08,0,0,1,65.64,53.93Z"/><path d="M42.16,28.62a5.31,5.31,0,0,1,3.34-.52c.65,0,1,.61.9,1.34a1.15,1.15,0,0,1-1,1.12,12.89,12.89,0,0,0-3.09.66.89.89,0,0,1-1-1.3c.27-.46.57-.89.86-1.33Z"/><path d="M61.44,43.31c.39,0,.65,0,.91.09.56.09,1,.39,1.1,1a3.82,3.82,0,0,0,.84,2.14c.25.32-.06,1-.47,1.35a1.09,1.09,0,0,1-1.4-.27c-.1-.14-.26-.28-.27-.43,0-1-.75-1.49-1.57-1.89a1.77,1.77,0,0,1-.51-.57.85.85,0,0,1,.46-1.26C60.87,43.36,61.22,43.34,61.44,43.31Z"/><path d="M27.8,45.78a1.52,1.52,0,0,1,1.57.75c.29.61.89.81,1.33,1.21a1.16,1.16,0,0,1,0,1.83c-.26.24-.71.45-.92.13C29,48.58,27.86,48.34,26.71,48a1,1,0,0,1-.8-1.17,1.3,1.3,0,0,1,1.1-1A7,7,0,0,1,27.8,45.78Z"/><path d="M75.63,62.13a2.6,2.6,0,0,1-.59-.7,1.12,1.12,0,0,1,.64-1.51,6.25,6.25,0,0,1,1.81-.23c1,.08,2,.63,3,0,.06,0,.17,0,.26,0,.48,0,1,.7.89,1.13a1.15,1.15,0,0,1-.91.85l-.26,0c-.75.14-1.36-1.47-2.2-.17-.75.2-1.51.41-2.27.6A1.63,1.63,0,0,1,75.63,62.13Z"/><path d="M47.53,91.61a6.16,6.16,0,0,1,.15-.68c.3-.92.6-1.83.92-2.74a1.47,1.47,0,0,1,1.81-1.12.68.68,0,0,1,.61.71,17.15,17.15,0,0,1-1.64,4.38.85.85,0,0,1-1.06.52A1.28,1.28,0,0,1,47.53,91.61Z"/><path d="M78.17,74a9.85,9.85,0,0,1-.24,1,.91.91,0,0,1-1.33.34,2.73,2.73,0,0,1-.72-.76,7.29,7.29,0,0,0-1.45-1.86,1.13,1.13,0,0,1-.27-1.43,1.38,1.38,0,0,1,1.7-.15c.52.32,1,.68,1.53,1A1.88,1.88,0,0,1,78.17,74Z"/><path d="M72.07,84c.35.12.6.18.84.28,1.25.57,1.32,1.22.24,2.12-.58.49-1.24.42-1.49-.3a2.85,2.85,0,0,0-1.44-1.76,2.47,2.47,0,0,1-.71-.76A1.24,1.24,0,0,1,70,81.75a1.15,1.15,0,0,1,1.58.5A11.7,11.7,0,0,1,72.07,84Z"/><path d="M48.8,83.54c.11-.22.21-.43.3-.65.25-.62.76-.68,1.31-.6A.83.83,0,0,1,51,83.5c-.13.22-.29.52-.5.58A1.79,1.79,0,0,0,49,85.87c0,.49-.52.64-1,.63a.89.89,0,0,1-.87-.48,13.16,13.16,0,0,1-.55-1.48A1.28,1.28,0,0,1,47.17,83a1,1,0,0,1,1.36.39C48.58,83.43,48.68,83.46,48.8,83.54Z"/><path d="M49,58.73c-.87-.21-1.79-.41-2.7-.68A.88.88,0,0,1,46,56.72a1.88,1.88,0,0,1,1.23-.91,8.17,8.17,0,0,0,2-.57.94.94,0,0,1,1.16,1.23A3.69,3.69,0,0,1,49,58.73Z"/><path d="M28.78,19.16a5.8,5.8,0,0,1,2.32.41l.63-.48c.66-.47,1-.48,1.39-.12a1.24,1.24,0,0,1,.21,1.67c-.39.57-.84,1.09-1.19,1.54a1.92,1.92,0,0,1-1.4-.24c-1.88-.69-1.88-.69-1.93-2.81Z"/><path d="M74,89.35a4.58,4.58,0,0,1,.84-3,1.22,1.22,0,0,1,1.62-.42A1.18,1.18,0,0,1,77,87.7a4.76,4.76,0,0,0-.94,2.41c0,.28-.39.57-.66.77a.84.84,0,0,1-1.26-.48C74.11,90.05,74.08,89.7,74,89.35Z"/><path d="M31,78.63c.49-.82.92-1.06,1.51-.94a1.47,1.47,0,0,1,1,.82,4.4,4.4,0,0,1,.61,2.77c-.09.69-.34,1-.9,1.1-.82.07-1.55-.32-1.61-1A7,7,0,0,0,31,78.63Z"/><path d="M33.1,26.54A6.53,6.53,0,0,1,33,28.87a1.32,1.32,0,0,1-1,.81,1.11,1.11,0,0,1-1.15-.44c-.15-.2-.34-.53-.28-.69a5.13,5.13,0,0,0-.06-3c-.11-.66.43-1.11,1.16-1.06a.86.86,0,0,1,.88.78c.07.51,0,1.08.59,1.33Z"/><path d="M35.06,88.54l-2.16.69a12.88,12.88,0,0,1-1-.91A.81.81,0,0,1,32.14,87a2.63,2.63,0,0,0,1.79-1.66c.06-.19.39-.32.62-.44s.66-.35.94,0a1,1,0,0,1,.24.7c-.08.51-.28,1-.4,1.5S35.17,87.92,35.06,88.54Z"/><path d="M35.89,49.11a7.56,7.56,0,0,0,.53,3,.68.68,0,0,1-.36.89.89.89,0,0,1-1-.09A7.81,7.81,0,0,1,32.92,50c-.34-.7.52-1.67,1.33-1.5A10.36,10.36,0,0,1,35.89,49.11Z"/><path d="M39.2,31.33a1.34,1.34,0,0,1,1.36,1.3,1.24,1.24,0,0,1-1.11,1.25,4.49,4.49,0,0,0-2.9,1c-.31.26-1-.24-1.16-.79s.08-1,.5-1a2.28,2.28,0,0,0,1.9-1.16A1.44,1.44,0,0,1,39.2,31.33Z"/><path d="M62.8,73.9c-.06-1.26.18-2,1-2.39.39-.21.71-.53,1.08-.77a.8.8,0,0,1,1-.06c.45.31.76,1,.51,1.38-.63.94-1.3,1.87-2,2.76a.9.9,0,0,1-1,.26.83.83,0,0,1-.59-.79C62.78,74,62.8,73.76,62.8,73.9Z"/><path d="M48.41,63.7c.59.38,1.12.7,1.62,1a2.27,2.27,0,0,1,.73,3,1,1,0,0,1-1.35.34,6.91,6.91,0,0,1-2-3.38C47.32,64.28,47.76,63.93,48.41,63.7Z"/><path d="M15.88,37.35a2.61,2.61,0,0,1,.74.25c.3.17.62.51.48.85-.39.91-.22,1.9-.52,2.8a1.51,1.51,0,0,1-.71.7c-.28.17-.93-.21-1-.59q-.35-1.11-.63-2.25C13.87,37.84,14.3,37.32,15.88,37.35Z"/><path d="M12.83,72.49c-1.63-.64-1.84-.86-1.48-1.89a9.2,9.2,0,0,0,.37-2.06.77.77,0,0,1,.62-.75,1,1,0,0,1,1,.28,3.87,3.87,0,0,1,1,2.27Z"/><path d="M84.23,65.33c-.44-.88-.85-1.65-1.21-2.45a.86.86,0,0,1,.77-1.12c.7-.06,1.5-.2,1.72.75.18.7.87.83,1.25,1.29a.94.94,0,0,1-.24,1.36A3.23,3.23,0,0,1,84.23,65.33Z"/><path d="M72,93.21c-.49.14-.88.59-1.47.34-.76-.34-.93-.51-1.66-2,.24-.46.5-1,.81-1.52a1.25,1.25,0,0,1,1.13-.52c.61,0,1.07.31,1.09.86,0,1,0,1.91.07,2.87Z"/><path d="M92.27,42a5.31,5.31,0,0,1,0,.8.81.81,0,0,1-.62.76,2.4,2.4,0,0,1-2.88-1.32,1.76,1.76,0,0,1,.16-1.77,1.2,1.2,0,0,1,1.84-.17c.52.58.68,1.47,1.55,1.74Z"/><path d="M37.25,14.3c1.27-.24,2.37.39,3.52.73a1.13,1.13,0,0,1,.62,1.51,1.3,1.3,0,0,1-1.48.79c-.17,0-.32-.13-.49-.18-2-.67-2-.67-2.15-2.88Z"/><path d="M44,90.44c.12.1.5.27.62.54a21.29,21.29,0,0,1,.78,2.46.81.81,0,0,1-.38.9,1.08,1.08,0,0,1-1.23,0,4.67,4.67,0,0,1-1.48-2.09A1.43,1.43,0,0,1,44,90.44Z"/><path d="M73,80.91a1.76,1.76,0,0,1,0-.59,2.14,2.14,0,0,1,3-1.24,5.44,5.44,0,0,1,1.13.63.78.78,0,0,1,.37.9,1.3,1.3,0,0,1-.69.71,9,9,0,0,1-3.35.07C73.32,81.36,73.17,81.05,73,80.91Z"/><path d="M88.6,77.71a6.22,6.22,0,0,1,1.16,0c.23,0,.56.27.58.45a9.76,9.76,0,0,1,0,3.41,1,1,0,0,1-1.48.49,1.79,1.79,0,0,1-.79-2.28A14.87,14.87,0,0,0,88.6,77.71Z"/><path d="M57.26,79.5c-1.06-.39-1.41-.85-1.25-1.56a1.2,1.2,0,0,1,1.09-1,3.59,3.59,0,0,0,2.11-.9A1.06,1.06,0,0,1,60.44,76a1,1,0,0,1,.58.8,1,1,0,0,1-.51.86.47.47,0,0,1-.23.12A3.75,3.75,0,0,0,57.26,79.5Z"/><path d="M21.9,60.86a5.68,5.68,0,0,1,1-.17c.67,0,1.49-.28,1.87.55s-.35,1.1-.65,1.61-.33,1-.57,1.47a.82.82,0,0,1-.88.45,1.11,1.11,0,0,1-.78-.65,1.22,1.22,0,0,1-.1-.24A9.15,9.15,0,0,1,21.9,60.86Z"/><path d="M92.3,42a2.81,2.81,0,0,1,.3-1.53,1.26,1.26,0,0,1,1.63-.38,1.18,1.18,0,0,1,.55,1.56,6.64,6.64,0,0,1-.43.65,2.43,2.43,0,0,0-.19.47c.24.34.72.53.73,1a1.2,1.2,0,0,1-.39.94,1,1,0,0,1-1.21.23.85.85,0,0,1-.41-.9,9.18,9.18,0,0,1,.23-1c.16-.7-.33-.91-.84-1.1Z"/><path d="M45.1,18.49c-.5-.47-.76-.69-1-.94a.94.94,0,0,1,.59-1.6,19.23,19.23,0,0,1,3.13,0c.37,0,.55.38.6.75s-.17,1.06-.48,1.12A6.46,6.46,0,0,0,45.1,18.49Z"/><path d="M15.88,60c0-.46,0-.72,0-1a.94.94,0,0,1,.82-.86,4.6,4.6,0,0,1,1,0,1.27,1.27,0,0,1,1,1.91A7.84,7.84,0,0,1,18,61.4a.94.94,0,0,1-.93.35,1.09,1.09,0,0,1-1-.72A6.05,6.05,0,0,1,15.88,60Z"/><path d="M80.92,78.36a2.18,2.18,0,0,1,.62.36,1.27,1.27,0,0,1,.14,1.7,23.92,23.92,0,0,1-2,2.42.78.78,0,0,1-1,.06.7.7,0,0,1-.34-.91c.63-1.15,1.32-2.27,2-3.39C80.47,78.48,80.7,78.46,80.92,78.36Z"/><path d="M62.43,66c1.28-.35,1.28-.35,2.34.57-.42,1-1.17,1.87-1,3.09.06.49-.56.8-1.19.73a.9.9,0,0,1-.84-1.1c.05-.25.09-.6.26-.72,1-.65.65-1.48.39-2.33C62.35,66.19,62.41,66.1,62.43,66Z"/><path d="M36.82,75a5.31,5.31,0,0,0,1-3.08c0-.48.62-.76,1.25-.64a.94.94,0,0,1,.76.93,1.23,1.23,0,0,1-.52,1.14c-.31.22-.51.51-.31.9a1,1,0,0,1-.44,1.56C38,76.1,37.74,76,36.82,75Z"/><path d="M52.76,21.58a9.06,9.06,0,0,0-3.61.43c-.35.16-.66-.16-.88-.44a.74.74,0,0,1,0-1A3.13,3.13,0,0,1,52,19.75a1.66,1.66,0,0,1,.58.83,4.34,4.34,0,0,1,.13,1Z"/><path d="M36.62,71.05a1.22,1.22,0,0,1-1.22,1.14c-.23,0-.62-.21-.64-.36a5.35,5.35,0,0,0-1.17-2.61c-.1-.12-.07-.34-.1-.51A1,1,0,0,1,35.23,68c.51.91.93,1.86,1.38,2.8A.74.74,0,0,1,36.62,71.05Z"/><path d="M34.46,73.84c-.21.62-.4,1.38-.71,2.08a1.22,1.22,0,0,1-2,0,2.29,2.29,0,0,1,.69-3,1.83,1.83,0,0,1,1-.07C33.93,72.94,34.22,73.28,34.46,73.84Z"/><path d="M80.54,74.61c.14.63.27,1,.33,1.48a1,1,0,0,1-.4.92,1.09,1.09,0,0,1-1.21-.22.9.9,0,0,1-.29-.94.72.72,0,0,1,.1-.24,5.5,5.5,0,0,0,.82-3c0-.55.67-.84,1.19-.57,1,.48,1,1.3.15,2Z"/><path d="M23.92,48.3a8.33,8.33,0,0,0-2.6-.43,1.19,1.19,0,0,1-1.1-.61.87.87,0,0,1,.59-1.4,1.33,1.33,0,0,1,.77.06,4.59,4.59,0,0,1,.79.68,1.92,1.92,0,0,0,.46-.21c.42-.34.85-.68,1.4-.27s.6.93.11,1.84C24.3,48,24.21,48.07,23.92,48.3Z"/><path d="M35.33,19.75c.06-.17.08-.49.24-.64.54-.44,1.11-.84,1.69-1.23.85-.57,1.39-.38,1.85.6a1,1,0,0,1-.35,1.36,5.08,5.08,0,0,1-1.92.83A1.44,1.44,0,0,1,35.33,19.75Z"/><path d="M84.66,45.25a1.61,1.61,0,0,1,1.54,2.5,3.45,3.45,0,0,1-.89.94.83.83,0,0,1-1.14-.28,16.67,16.67,0,0,1-.64-1.71C83.2,45.67,83.54,45.24,84.66,45.25Z"/><path d="M47.48,94.05c1,.41,1.63,1.17,2.63,1.17a7.31,7.31,0,0,1,0,1.25.65.65,0,0,1-.74.57,18.12,18.12,0,0,1-2.29-.54c-.57-.16-.77-.69-.93-1.18a.8.8,0,0,1,.23-.68A7.31,7.31,0,0,1,47.48,94.05Z"/><path d="M42.19,28.59a8.62,8.62,0,0,0-3.77.44A1.07,1.07,0,0,1,38,27.8c0-.23.24-.59.4-.61A4.88,4.88,0,0,0,41,26c1.44.62,1.09,1.69,1.16,2.61Z"/><path d="M65.76,55.54c1.21.18,1.38,1,1.58,1.73a.57.57,0,0,1-.11.48,14.05,14.05,0,0,1-1.89,1.38,1,1,0,0,1-1.18-.32.71.71,0,0,1-.22-.93C64.49,57.1,65.11,56.37,65.76,55.54Z"/><path d="M67.07,80.11a2.11,2.11,0,0,1-.36,1.49c-.33.42-1.17.46-1.34,0-.34-1-.58-2-.83-3,0-.13.11-.34.23-.44a1.41,1.41,0,0,1,2,.42,1.85,1.85,0,0,1,.17.5C67,79.48,67.06,79.92,67.07,80.11Z"/><path d="M52.07,16.09c-.2.73-.51,1-1,1.13s-.82,0-.88-.32a5.53,5.53,0,0,0-1.1-2.57c-.3-.37,0-1,.38-1.38a.83.83,0,0,1,1.15.13c.09.15.25.29.26.44A3.7,3.7,0,0,0,52.07,16.09Z"/><path d="M8.7,41.69l-1.83,3c-1.08-.46-1.31-.74-1.14-1.43.13-.51.31-1,.45-1.5a1.34,1.34,0,0,1,1-1.06C7.93,40.55,8.35,41,8.7,41.69Z"/><path d="M19.5,64a1.45,1.45,0,0,1,.43.28A1.26,1.26,0,0,1,20,65.56a.67.67,0,0,1-.38.34A2.21,2.21,0,0,0,18.24,67a.89.89,0,0,1-.91.42c-.51-.08-.9-.75-.88-1.47,0-.38.16-.78.52-.83a2.79,2.79,0,0,0,2-1.08C19.07,64,19.33,64,19.5,64Z"/><path d="M46.27,11.5a13.59,13.59,0,0,1,.11-1.37.87.87,0,0,1,1-.7c.53,0,1,.23,1,.65a20.64,20.64,0,0,1-.06,2.61,1,1,0,0,1-.91.81,1.07,1.07,0,0,1-1-.77C46.33,12.3,46.31,11.87,46.27,11.5Z"/><path d="M20,45.17a1.19,1.19,0,0,1-.47-1.69,3,3,0,0,1,2.88-1.34c.5.1.65.51.67,1s-.12,1-.6,1A5.85,5.85,0,0,0,20,45.17Z"/><path d="M34.29,98.89c0-.26,0-.52,0-.78a1.39,1.39,0,0,1,1.36-1.31,2.28,2.28,0,0,1,1.74.26.9.9,0,0,1,.13,1.34c-1,.82-2.06,1.25-3.29.46Z"/><path d="M69.1,65.61a4.13,4.13,0,0,1,1.2-3.11c.6-.71,1-.63,1.91.41l-1.15,2.36a3.31,3.31,0,0,1-2,.31Z"/><path d="M75.56,29.91c.85,0,1.34.54,1.15,1.33,0,.16-.12.4-.24.44-.89.3-1.8.58-2.71.81-.38.09-.77-.55-.63-1A2.32,2.32,0,0,1,75.56,29.91Z"/><path d="M28.07,60.09c0,.79,0,1.58,0,2.37a.73.73,0,0,1-.62.74,1,1,0,0,1-1-.31,1.41,1.41,0,0,1-.41-.65A9.19,9.19,0,0,1,26,60.67c0-.91.47-1.19,1.42-.89a5.12,5.12,0,0,1,.71.34Z"/><path d="M13.09,46.39l-1.63-.52,0,0a2.22,2.22,0,0,1,.26-1.52,3.27,3.27,0,0,1,2-1.11.87.87,0,0,1,.66.3.83.83,0,0,1,.11.72c-.45.74-1,1.43-1.48,2.13Z"/><path d="M58.6,83.9a5.28,5.28,0,0,1-.27.79,1.19,1.19,0,0,1-1.58.52,1.34,1.34,0,0,1-.67-1.56,2.87,2.87,0,0,1,.41-.67c.46-.57.95-.78,1.34-.57A1.45,1.45,0,0,1,58.6,83.9Z"/><path d="M15.11,34.25a2.5,2.5,0,0,1,.53-1.68A1,1,0,0,1,17,32.21a1.25,1.25,0,0,1,.64,1.53A2.84,2.84,0,0,1,16.39,35,.88.88,0,0,1,15.11,34.25Z"/><path d="M45.2,87.2c0,.43-.68,1-1.12.9a6.71,6.71,0,0,1-1.43-.55,1,1,0,0,1-.39-1.13,1.33,1.33,0,0,1,1.19-.86,2.19,2.19,0,0,1,1.74,1.38C45.23,87,45.2,87.12,45.2,87.2Z"/><path d="M79.91,27.2a16.5,16.5,0,0,1,1.34,1.17.93.93,0,0,1,.16,1,1.13,1.13,0,0,1-1.09.52A2.14,2.14,0,0,1,79,29.15c-.39-.37-.75-.78-.57-1.35.26-.81,1-.58,1.53-.58Z"/><path d="M39.9,84.26a1.27,1.27,0,0,1-1.16,1.18,1.39,1.39,0,0,1-1.37-1.53.9.9,0,0,1,1-1C39.27,82.93,39.92,83.48,39.9,84.26Z"/><path d="M52.74,21.61a6.81,6.81,0,0,1,.94-.46,1.14,1.14,0,0,1,1,.13,1.5,1.5,0,0,1,.7,1.59.82.82,0,0,1-.64.74,1.56,1.56,0,0,1-1.66-.51,2.31,2.31,0,0,1-.33-1.52Z"/><path d="M21.6,29.17a2,2,0,0,1,.8-1.28.82.82,0,0,1,.72,0A2.07,2.07,0,0,1,24,29.66a1.11,1.11,0,0,1-.71,1,.87.87,0,0,1-.94-.21A1.6,1.6,0,0,1,21.6,29.17Z"/><path d="M16.34,85.26a1.27,1.27,0,0,1,0,2.54,1.36,1.36,0,0,1-1.29-1.4A1.28,1.28,0,0,1,16.34,85.26Z"/><path d="M26.34,91.12a1.2,1.2,0,0,1,.86,1.38,1.49,1.49,0,0,1-2,1,1,1,0,0,1-.44-.58A1.52,1.52,0,0,1,26.34,91.12Z"/><path d="M54.49,97.62a6.78,6.78,0,0,1-1.2.47,1.22,1.22,0,0,1-1.37-.9,1.31,1.31,0,0,1,.69-1.52,1.14,1.14,0,0,1,1.55.48,7.26,7.26,0,0,1,.31,1.5Z"/><path d="M84.42,56.4a2.21,2.21,0,0,1-.75,2.1c-.33.26-.65.58-1.14.35a1.23,1.23,0,0,1-.1-2.12,1.85,1.85,0,0,1,.73-.24c.42-.05.86,0,1.29-.06Z"/><path d="M83.38,82.31a2.59,2.59,0,0,1-.94,2,.9.9,0,0,1-1,.18.86.86,0,0,1-.52-.82C80.87,82.21,81.68,81.74,83.38,82.31Z"/><path d="M68.69,71.65a1.3,1.3,0,0,1,1.9-1.05A.92.92,0,0,1,71,71.93a4.07,4.07,0,0,1-.51.59c-.33.29-.69.55-1.16.24A1.28,1.28,0,0,1,68.69,71.65Z"/><path d="M86.2,53.75a2.75,2.75,0,0,1-.7-.13.74.74,0,0,1-.46-.83,1.42,1.42,0,0,1,2.2-.91,1.11,1.11,0,0,1,.27,1.2.81.81,0,0,1-.73.62A4.33,4.33,0,0,1,86.2,53.75Z"/><path d="M51,73.57c0,.56-.09.88-.41,1.09a1.06,1.06,0,0,1-1.2-.29,1.56,1.56,0,0,1-.22-1.93.86.86,0,0,1,.69-.23A1.34,1.34,0,0,1,51,73.57Z"/><path d="M28.1,60.12c0-.35,0-.69,0-1,0-1.11.88-1.24,1.62-1a1.09,1.09,0,0,1,.82.9,1,1,0,0,1-.7,1c-.59.1-1.19.12-1.79.18Z"/><path d="M53.94,15.81a1.29,1.29,0,0,1,1.31.81,1.27,1.27,0,0,1-.2,1.46.89.89,0,0,1-.7.19,1.43,1.43,0,0,1-1-2.05C53.49,16,53.78,15.92,53.94,15.81Z"/><path d="M79.22,67.12c0-.35,0-.69,0-1a.94.94,0,0,1,.6-1,1.47,1.47,0,0,1,1.46.23.94.94,0,0,1-.09,1.52c-.65.38-1.36.15-2,.28Z"/><path d="M65.58,83.77a1,1,0,0,1,1.1-1.1c.74,0,1.3.44,1.33,1s-.62,1.12-1.47,1.1A.9.9,0,0,1,65.58,83.77Z"/><path d="M60.21,24.71a4.12,4.12,0,0,1,.55,2.68l0,0a3.21,3.21,0,0,1-.76,0c-.86-.19-1.35-.64-1.32-1.28A1.29,1.29,0,0,1,60,24.76l.25,0Z"/><path d="M60.07,58.57a1.28,1.28,0,0,1,1-1.33,1.17,1.17,0,0,1,1.3.65.65.65,0,0,1,0,.73,1.4,1.4,0,0,1-2,.39A1.44,1.44,0,0,1,60.07,58.57Z"/><path d="M54.56,26.28a2,2,0,0,1,.32-.59,1.45,1.45,0,0,1,1.68-.25.74.74,0,0,1,.32.39A1.05,1.05,0,0,1,56.55,27a1.12,1.12,0,0,1-1.19.3A1.14,1.14,0,0,1,54.56,26.28Z"/><path d="M41.16,35.94c0,.26,0,.35,0,.43-.09.68-.71,1.24-1.21,1.11A1.28,1.28,0,0,1,39.14,36a1.19,1.19,0,0,1,1.38-.9A.83.83,0,0,1,41.16,35.94Z"/><path d="M11.69,61.76l-1.07.75a.83.83,0,0,1-1.18,0,1.18,1.18,0,0,1-.16-1.65.9.9,0,0,1,1.37-.15A12.31,12.31,0,0,1,11.69,61.76Z"/><path d="M94.32,34.92c0,.55-.12.87-.46,1a1,1,0,0,1-1-.12,1.16,1.16,0,0,1-.55-1.34,1.08,1.08,0,0,1,.88-.84,1,1,0,0,1,1,.68A1.85,1.85,0,0,1,94.32,34.92Z"/><path d="M86.07,57.57c.51,0,.81.12.93.48a1.38,1.38,0,0,1-.36,1.66.74.74,0,0,1-1,.13,1.2,1.2,0,0,1-.6-1.32A1.22,1.22,0,0,1,86.07,57.57Z"/><path d="M23,88.33c0,.53,0,1-.06,1.58a1.17,1.17,0,0,1-.8,1c-.32.12-.85-.2-1.06-.61a1.2,1.2,0,0,1,.2-1.44c.49-.51,1.14-.37,1.73-.48Z"/><path d="M85.47,84.66c.14.07.44.13.56.3a1.38,1.38,0,0,1-.22,1.88.73.73,0,0,1-1,.14,1.2,1.2,0,0,1-.59-1.33A1.34,1.34,0,0,1,85.47,84.66Z"/><path d="M84.45,56.43a6,6,0,0,1,0-1c.14-.61.65-1,1.08-.93a1.2,1.2,0,0,1,.89.86c.18.53,0,1.27-.32,1.44a1.26,1.26,0,0,1-1.24-.14,4.16,4.16,0,0,0-.48-.22Z"/><path d="M17.82,44.85a.89.89,0,0,1-1,.95,1,1,0,0,1-1.09-1.1.91.91,0,0,1,1-1A1,1,0,0,1,17.82,44.85Z"/><path d="M48.12,32.23A.94.94,0,0,1,47,31.16a.88.88,0,0,1,.94-1,1,1,0,0,1,1.12,1.08A.88.88,0,0,1,48.12,32.23Z"/><path d="M74.66,48.68a1.18,1.18,0,0,1,1.13.91A1.19,1.19,0,0,1,74.93,51a1.13,1.13,0,0,1-1.12-.9A1.22,1.22,0,0,1,74.66,48.68Z"/><path d="M57.06,93.23a1,1,0,1,1-2-.25,1.13,1.13,0,0,1,1-1A1.17,1.17,0,0,1,57.06,93.23Z"/><path d="M76,65a13,13,0,0,1-1.53-.08.68.68,0,0,1-.52-.77A1.18,1.18,0,0,1,75.1,63a.74.74,0,0,1,.79.51A1.7,1.7,0,0,1,76,64c0,.34,0,.68,0,1Z"/><path d="M89.22,52.78c-.06-.83.44-1.28,1.29-1.16a.82.82,0,0,1,.66,1.15,1.94,1.94,0,0,1-.68.74A.82.82,0,0,1,89.22,52.78Z"/><path d="M12,40.59c.74,0,1.09.37,1,1.13a.88.88,0,0,1-.75.89A1.27,1.27,0,0,1,11,41.26C11.05,40.86,11.42,40.6,12,40.59Z"/><path d="M53,50.3a3,3,0,0,1-1.5-.25A1.2,1.2,0,0,1,51,48.7a.84.84,0,0,1,.83-.48c.47,0,.91.08,1,.57A9.69,9.69,0,0,1,53,50.33Z"/><path d="M51.46,69a1.07,1.07,0,0,1,1.06,1.59.77.77,0,0,1-.86.45,1.2,1.2,0,0,1-1-.75A.87.87,0,0,1,51.46,69Z"/><path d="M49.2,60.52a1,1,0,0,1,.68,1.2,1,1,0,0,1-1.12.82.86.86,0,0,1-.89-.76A1.23,1.23,0,0,1,49.2,60.52Z"/><path d="M62.38,81.3a.86.86,0,0,1,.93-.71.94.94,0,0,1,1.1,1.09.9.9,0,0,1-.73.91A1.24,1.24,0,0,1,62.38,81.3Z"/><path d="M44.72,31.79a1,1,0,0,1,1.18,1c0,.55-.22.93-.63,1a1.26,1.26,0,0,1-1.39-1.21A.85.85,0,0,1,44.72,31.79Z"/><path d="M77.78,41.68a1.23,1.23,0,0,1,1.13,1.2c0,.49-.46.84-1.1.81s-1-.53-.92-1.27A.83.83,0,0,1,77.78,41.68Z"/><path d="M20.42,78.8c.6,0,.9.38.9,1s-.38,1.07-.92,1a1.25,1.25,0,0,1-1.12-1.21C19.28,79.11,19.77,78.77,20.42,78.8Z"/><path d="M78.48,51.37c0,.5-.45.84-1.12.81s-.92-.35-.93-1,.23-.92.64-1A1.22,1.22,0,0,1,78.48,51.37Z"/><path d="M79.63,45.12a.85.85,0,0,1,.78-.86,1,1,0,0,1,1.23,1c0,.66-.31,1.09-.84,1.06A1.19,1.19,0,0,1,79.63,45.12Z"/><path d="M7.61,55a1,1,0,0,1,.73,1.2.84.84,0,0,1-.87.77c-.68-.06-1.23-.67-1.07-1.19A1.2,1.2,0,0,1,7.61,55Z"/><path d="M9.27,37.92c-.1.58.07,1.23-.46,1.7a.74.74,0,0,1-.93.2,1.16,1.16,0,0,1-.69-1,.67.67,0,0,1,.55-.76c.51-.08,1-.08,1.55-.11Z"/><path d="M54.82,80.25a1.13,1.13,0,0,1,1,1c.08.52-.31.91-1,.94s-.93-.21-1-.62A1.14,1.14,0,0,1,54.82,80.25Z"/><path d="M34.3,39.8c0-.55.27-.93.68-1a1.16,1.16,0,0,1,1.29,1,1.14,1.14,0,0,1-1.07,1C34.65,40.9,34.3,40.49,34.3,39.8Z"/><path d="M72.06,50.54a1.15,1.15,0,0,1-1,1.07,1.16,1.16,0,0,1-1-1.29c0-.48.57-.77,1.21-.68A.83.83,0,0,1,72.06,50.54Z"/><path d="M78.94,33c0-.66.4-1.05.94-1a1.09,1.09,0,0,1,1,1,1.18,1.18,0,0,1-1.33,1C79.15,34,78.92,33.6,78.94,33Z"/><path d="M13.06,46.42a6.69,6.69,0,0,1,1.27.17.92.92,0,0,1,.7,1,1.08,1.08,0,0,1-.83.88.78.78,0,0,1-1-.51,13,13,0,0,1-.09-1.54Z"/><path d="M58.43,19.4a1.18,1.18,0,0,1-1.27,1c-.42,0-.69-.4-.68-.94s.34-1.1.87-1A1.13,1.13,0,0,1,58.43,19.4Z"/><path d="M61.05,79c.41,0,.69.41.7,1,0,.69-.34,1.11-.88,1.06a1.18,1.18,0,0,1-1.1-1C59.73,79.52,60.39,79,61.05,79Z"/><path d="M71.16,25.73c.15.08.43.14.57.32a1.07,1.07,0,0,1-.51,1.53.86.86,0,0,1-1.12-.37C69.73,26.62,70.22,25.86,71.16,25.73Z"/><path d="M91.35,74.86A1.12,1.12,0,0,1,90.19,76a.69.69,0,0,1-.69-.64,1.13,1.13,0,0,1,1-1.29A1.11,1.11,0,0,1,91.35,74.86Z"/><path d="M11.46,45.87a2.82,2.82,0,0,1-.27,1.49.93.93,0,0,1-.83.5A1.07,1.07,0,0,1,9.53,47a1,1,0,0,1,.47-.85c.45-.33,1-.19,1.49-.25Z"/><path d="M60.06,69.55a1.18,1.18,0,0,1,1.09,1.19.84.84,0,0,1-.86.75,1.21,1.21,0,0,1-1.12-.89A1,1,0,0,1,60.06,69.55Z"/><path d="M44.76,66.43a.72.72,0,0,1,.86.7.69.69,0,0,1-.6.72.76.76,0,0,1-.87-.71A.77.77,0,0,1,44.76,66.43Z"/></svg>