<svg xmlns="http://www.w3.org/2000/svg" viewBox="0 0 400 400"><path d="M82.819,268.616c-3.649-.076-6.7,1.855-9.482,3.647-6.154,3.962-13.207,3.42-19.867,4.52-4.53.748-8.782-1.694-11.46-5.429-4.581-6.389-8.725-13.107-5.627-22.178,7.751,4.991,14.843,11.423,25.154,9.788,4.926-.781,9.293-1.89,12.594-6.011-3.885-2.83-7.924-1.508-11.737-1.653-10.726-.407-15.7-4.1-16.731-14.287-.794-7.864.7-15.565,7.075-21.3.479-.431,1.589-.161,2.865-.248-1.683,4.219-3.694,8.1-4.773,12.218-1.918,7.326,2.044,12.463,9.534,13.275,8.146.883,14.512-2.357,18.647-9.055,3.582-5.8,5.976-12.322,9.261-18.324,11.288-20.623,27.451-34.163,52.138-34.364,10.177-.084,20.508-1.779,30.447,2.559,2.507,1.094,5.805.493,8.738.478,9.8-.05,19.607-.376,29.405-.237,9.658.137,19.594-2.477,28.865,2.659a2.046,2.046,0,0,0,2.517-2.483c-1.68-5.879,4.531-8.162,5.616-12.744l-.306.206c3.669,1.319,6.825.582,8.969-2.729,1.837-2.835,3.416-5.55,2.239-9.511-2.86-9.617-1.492-19.141.752-28.877,1.443-6.26,6.253-11.24,5.942-17.932l-.163.236c2.908-1.133,4.145-3.1,3.092-6.2l-.188.276c6.068-1.136,11.195-4.462,16.532-7.25,1.807-.944,2.307-2.8,1.314-4.788l-.187.306c7.243,1.144,13.5-.456,18.5-6.2,2.94-3.376,6.778-5.375,12.459-6.427-1.764,3.958-3.323,7.21-4.613,10.564-.258.672.354,1.833.832,2.6,1.027,1.654,2.656,1,3.9.5,4.643-1.863,8.073-5.448,11.749-8.661,5.892-5.149,11.73-10.36,17.691-15.426a2.589,2.589,0,0,1,2.459.451c.379.4.184,1.775-.232,2.4a28.562,28.562,0,0,1-2.93,3.275q-8.9,9.741-17.806,19.481c-1.322,1.44-2.743,2.788-4.109,4.188-3.028,3.1-4,6.335-1.816,10.565,4.04,7.806,7.171,16.089,12.869,22.986a32.462,32.462,0,0,1,3.882,6.186c3.335,6.689,1.072,12.412-6.1,15.18a17.511,17.511,0,0,1-7.071,1.416c-3.174-.193-3.765,1.7-5.164,3.814-2.359,3.57-8.94,2.961-9.08-.754-.36-9.583-6.867-14.081-13.132-19.331-4.756-3.984-6.5-9.552-5.994-15.807.21-2.568-.183-5.117-3.72-4.584-3.056.461-3.553,3.067-3.508,5.522.12,6.421,1.256,12.834,4.2,18.443,4.719,8.992,6.755,19.309,14.5,26.905,3.827,3.754,3.744,9.965,3.811,15.287.1,7.765-.383,15.543-.79,23.306-.162,3.094-2.162,5.395-4.222,7.535-2.806,2.912-5.65,2.926-9.145.786-4.123-2.525-5.871-8.14-11.459-8.663-3.562-4.215-8.469-4.169-13.338-4.125-4.82.043-9.648.055-14.449.41A2.386,2.386,0,0,0,250,208.078a3.289,3.289,0,0,0,1.579,2.01,19.516,19.516,0,0,0,5.617,1.221c6.766.2,13.539.19,20.309.259,2.736,3.95,5.347,7.994,8.236,11.829,4.57,6.068,7.922,7.125,15.253,5.045a32.422,32.422,0,0,0,3.987-1.83c4.036-1.773,7.619-.921,10.861,1.908a94.437,94.437,0,0,0,7.784,6.646c8.078,5.623,9.564,13.254,6.411,21.866-1.6,4.365-2.059,7.957-.231,12.523,1.882,4.7-.348,9.631-2.881,13.923-2.364,4.006-8.145,4.129-11.047.4-.3-.386-.552-.809-.853-1.195-5.327-6.821-8.364-13.994-3.814-22.529.891-1.67,1.122-3.684,1.953-5.4a5.928,5.928,0,0,0-1.6-7.822c-3.8-3.291-7.354-4.067-10.633-2-2.463,1.552-4.64,3.553-7,5.274-3.546,2.582-6.9,5.59-10.772,7.529-7.962,3.985-16.176,7.359-24.577.559-.964-.78-2.73-.569-4.124-.817l.174.213c1.321-2.731,1.761-5.471.035-8.366-.492-1.083-1.306-1.293-2.326-.43-5.51,4.66-11.709,5.708-18.915,5.2-12.1-.846-24.218-1.594-36.41-1.383-7.673.133-15.391-2.009-23.08-3.184-3.356-.513-6.677-1.516-10.041-1.657-4.105-.171-8.263,1.289-9.529,5.372-2.123,6.847-7.054,11.531-11.167,16.9a5,5,0,0,0-.654,5.443l.286-.187c-3.291-1.42-5.206.466-7.05,2.8-1.36,1.725.285,2.318,1.007,3.291l.193-.146c-1.116-1.867-2.552-2.162-4.509-1.189-1.972.98-2.592,2.274-1.62,4.273l.194-.262c-.757-.544-1.721-1.707-2.238-1.534-3.886,1.3-6.923,3.6-7.882,7.9-1.591,7.132-3.212,14.257-4.793,21.391-1.248,5.634-.628,10.408,4.691,14.155,7.491,5.277,7.047,14.54,9.961,22.1.223.578-1.669,2.819-2.665,2.881-5.846.362-11.719.421-17.578.3a5.268,5.268,0,0,1-3.781-1.867c-6.26-9.431-11-19.615-7.45-31.074,2.5-8.086,4-15.973,3.087-24.379-.819-7.538-.039-14.6,6.25-20.086,4.711-4.108,4.3-9.456,2.736-14.874a16.847,16.847,0,0,0-.787-2.817c-5.323-10.781-6.823-22.281-6.08-34.6-4.228-.368-5.11,2.883-5.633,5.056-1.5,6.227-1.862,12.666.2,18.862,4.777,14.386-3.006,25.479-9.39,36.968a4.591,4.591,0,0,1-1.068.981c-8.277,7.331-27.976,8.651-37.376,2.541-1.01-.657-1.55-1.462-.926-2.437a2.975,2.975,0,0,1,1.98-1.352c4.4-.064,8.832.357,13.212.052,8.562-.6,16.47-2.719,20.792-11.267,1.051-1.445,2.69-3.048.485-4.583C84.5,264.89,83.735,267.121,82.819,268.616Zm80.147-58.363c-.444,2.818-1.557,7.509,1.047,7.785,4.366.463,3.453-4.758,4.439-7.658a42.688,42.688,0,0,0,1.7-8.456c.265-2.126-.84-3.682-3.14-3.609-2.045.064-3.786,1.176-3.979,3.33C162.773,204.493,162.966,207.382,162.966,210.253ZM316.8,120.242a3.328,3.328,0,0,0-3.056-3.8,2.567,2.567,0,0,0-3.191,1.855c-.351,1.968.7,3.431,2.961,3.827C315.25,122.43,315.973,121.334,316.8,120.242Z"/><path d="M246,169.452c-2.987-2.228-5.4-.207-8.029.951-3.609,1.59-7.448,3.447-9.661-2.013-11.3-3.568-21.1-12.263-34.942-9.373,7.041-5.253,7.036-5.219,14.217-4.031,7.209,1.192,14.19,3.757,21.657,3.44,3.455-.147,6.908-.12,9.531-2.822a3.916,3.916,0,0,0,1.244-2.5,2.526,2.526,0,0,0-1.8-1.694c-2.908-.158-5.834.067-8.75,0-9.283-.216-10.509-.988-17.234-10.457,14.778,5.182,14.778,5.182,26.941-1.842a9.919,9.919,0,0,0,2.381-1.528,3.348,3.348,0,0,0,.988-2.451,2.465,2.465,0,0,0-3.272-1.691,22.923,22.923,0,0,0-3.708,1.931c-2.091-1.4-1.835-3.28-.736-5.028a44.59,44.59,0,0,1,12.294-12.39,4.09,4.09,0,0,0,.99-3.83c-.406-.9-2.352-1.576-3.6-1.55-4.388.091-8.769.526-13.249.838.4-3.286,2.933-2.281,4.485-3,8.278-3.841,17.238-6.175,23.106-14.42,3.13-4.4,9.252-5.167,14.618-5.333,3.586-.111,7.919-1.946,10.532,2.522l.187-.305c-7.557-1.491-12.849,2.864-18.037,7.2-1.576,1.316-1.679,3.3.191,4.842l.188-.276c-2-.665-3.381.012-4.37,1.854-1.038,1.933-.624,3.334,1.278,4.351l.164-.237c-2.185-3.394-4.874-1.069-5.687.474-5.669,10.759-12.522,21.75-8.935,34.422,2.4,8.466,1.922,15.186-3.979,21.594-.318.346.44,1.683.7,2.56Z"/><path d="M142.539,275.587c1.188.972,2.443,1.374,3.868.482a35.887,35.887,0,0,0,12.388-12.2c1.438-2.453,2.211-5.584,5.655-6.377a5.257,5.257,0,0,1,.168,6.528c-6.428,7.8-9.161,18.489-18.8,23.833-2.164,1.2-2.38,3.448-1.624,6.282,1.627,6.1,4.829,11.684,5.307,18.2.349,4.762,4.271,7.728,8.039,9.852,8.636,4.868,12.852,12.822,16.339,21.46,1.477,3.657.149,5.916-3.5,5.754-3.9-.173-7.792-.627-11.693-.7-4.186-.082-7.816-.592-8.625-5.748-.657-4.193-4.939-4.267-7.541-6.251-4.592-3.5-7.669-7.972-6.263-13.844,1.924-8.041.191-15.681-2.179-23.063-1.661-5.173-1.716-10.481-3.039-15.614l-.195.262c4.306,1.228,5.186.786,6.13-3.084l-.193.146c5.785.44,7.222-1.009,6.043-6.1Z"/><path d="M254.452,257.478c-.97,7.3-.3,8.467,3.95,10.243,3.938,1.644,9.98-.946,11.757,3.964,1.159,3.2-.86,7.49-1.191,11.314-.206,2.38.709,4.994.044,7.176-3.385,11.1-.368,22.216-.463,33.31-.029,3.461.55,6.854,4.378,8.5,6.782,2.907,7.393,9.8,9.67,15.5.843,2.111-1.047,3.613-3.208,3.779-3.394.262-6.81.287-10.217.322-3.734.039-6.836-1.094-7.551-5.257-.537-3.127-2.982-4.926-4.488-7.373-3.151-5.117-4.37-9.93-1.5-16.287,4.083-9.054,3.5-18.956.333-28.47-1.395-4.192-3.132-8.42-2.1-12.825a22.245,22.245,0,0,0-2.735-16.849c-3.581-5.752,3.7-3.987,3.5-6.826C254.626,257.691,254.452,257.478,254.452,257.478Z"/></svg>