<svg xmlns="http://www.w3.org/2000/svg" viewBox="0 0 400 400"><path d="M179,206.074c-.474-.128-1.088-.109-1.4-.406-9.9-9.416-9.751-6.352-14.954,3.346-1.329,2.479-.853,4.735,2.062,5.9,13.27,5.317,17.759,3.98,25.191-8.534,4.722-7.951,9.6-15.765,12.5-24.812,2.761-8.607,4.294-17.167,3.418-26-1.107-11.162-1.956-22.33-5.177-33.283-2.387-8.119-7.552-13.6-13.371-18.816-3.558-3.188-7.821-3.408-12.359-1.364a7.441,7.441,0,0,0-4.866,6.572c-.61,5.023,1.406,9.628,1.971,14.571-6.352-4.484-9.364-8.324-11.507-14.506a32.871,32.871,0,0,1-.487-20.276c1.412-4.79,5.032-8.447,10.673-8.745,3.9-.2,7.81-.356,11.706-.222,24.077.83,47.915-1.519,71.726-4.816,13.994-1.937,28.019-1.191,42.742.666-1.882,4.054-4.524,2.484-6.452,2.841s-3.915.237-5.85.517c-2.339.337-4.974-.086-7.152,2.851,10.487,3.051,21.01,3.219,31.435,3.979,6.836.5,13.654.689,20.325,2.775,7.244,2.265,13.472,5.589,17.787,12.126,2.415,3.657,5.664,6.77,8.024,10.457,8.8,13.744,9.155,28.607,4.58,43.685-1.177,3.878-.455,9.166-5.211,11.136-.868-9.1-1.806-18.12-6.287-26.576a46.709,46.709,0,0,0-18.167-18.662c-7.289-4.315-15.007-4.057-22.785-2.473-5.559,1.131-7.052,7.084-2.948,11.381,2,2.093,4.764,3.452,6.8,5.522,11.385,11.583,16.555,24.989,12.167,41.335-3.234.06-3.115-2.356-3.336-3.691-2.4-14.541-12.908-22.693-24.084-29.932-8.358-5.414-17.72-5.039-26.888-1.582a7.39,7.39,0,0,0-5.173,6.536c-.193,2.764,1.644,4.591,3.867,5.714,5.257,2.656,10.223,5.506,14.514,9.765,4.64,4.606,6.752,9.392,4.328,16.564-9.422-7.762-19.712-6.893-30.339-3.812a16.575,16.575,0,0,0-10.274,7.536c-5.343,8.646-6.787,18.289-7.905,28.016a9.525,9.525,0,0,0,3.252,7.862c2.139.765,2.287-.99,2.587-2.149,2.665-10.3,9.907-13.907,19.824-13.774,9.8.131,19.592.286,29.387.227,5-.029,9.608,1.3,14.246,2.944,23.805,8.465,36.171,25.958,35.767,51.4-.171,10.805-1.635,21.564-6.309,31.423-8.328,17.568-22.34,28.195-41.459,31.707-5.745,1.056-11.679,1.156-17.537,1.518a34.936,34.936,0,0,1-18.419-4.12c-5.222-2.683-10.7-4.872-15.928-7.54-3.778-1.927-7.513-4.117-9.114-10.053,10.763,5.227,21.539,5.707,32.086,7.21,6.73.959,8.568-.127,10.732-6.615,4.132-12.384,14.082-15.333,25.3-16.441,1.9-.187,3.867.543,5.815.708,8.5.721,11.808-1.149,14.228-8.987a45.077,45.077,0,0,0,1.334-23.277c-2.162-9.382-7.2-16.709-18.072-18.822-15.425-3-30.2-2.075-44.06,5.44-7.863,4.262-15.328,10.719-17.65,18.9-3.594,12.661-11.894,19.655-22.136,25.89-4.417,2.69-4.97,4.988-3.5,9.937a43.38,43.38,0,0,0,1.756,4.044,16.418,16.418,0,0,1,.959,2.778c.615,2.856-1.1,6.4-3.808,7.1-3.754.975-7.525,2.186-11.542,1.254-13.2-3.062-26.233-1.822-39.256,1.382-3.42.841-6.835.727-6.863,5.607-.039,6.73.718,8.373,5.822,10.254a18.463,18.463,0,0,0,4.314.812c1,.113,1.725.649,1.516,1.87a4.792,4.792,0,0,1-1.353,2.467c-4.205,4.048-9.679,4.361-15.006,4.528-3.673.116-4.13-5.579-7.967-5.372-2.843.154-5.033,3.117-8.261,2.357-7.251-1.707-9.955-3.537-9.611-10.529.121-2.447-.1-4.92.139-7.35.766-7.743,2.979-9.95,11.833-12.253,1.314-.342,3.06-.066,3.458-2.677-2.614-2.236-6.03-1.2-9.1-1.283-6.829-.187-13.737,1.167-20.438-1.212a3.108,3.108,0,0,0-1.422-.334c-4.662.848-9.9.051-13.54,3.982-1.651,1.783,3.612,5.592,10.964,7.662a18.63,18.63,0,0,0,4.374.475c1.406.049,1.893.57,1.423,1.828-.167.446-.26,1.046-.595,1.285-4.11,2.939-8.51,4.589-13.689,3.261-8.633-2.213-13.714-14.735-9.24-22.671,2.006-3.557,6.05-2.746,8.883-4.527,3.053-1.919,3.675-4.252,1.506-7.287a21.26,21.26,0,0,0-1.828-2.29c-4.488-4.745-7.1-4.3-10.957,2.012-.658,1.078-.609,2.881-2.469,2.244-.8-.274-1.431-1.324-1.925-2.149-1.866-3.12-1.521-6.593-1.464-10.018.075-4.532,2.625-7.269,6.6-8.759a9.054,9.054,0,0,1,10.4,3.485c1.713,2.357,2.788,5.2,4.615,7.449,1.57,1.932,3.88,3.025,6.464,1.4a6.4,6.4,0,0,0,1.757-9,5.668,5.668,0,0,0-4.955-2.587c-2.762.086-5.4-.672-5.313-3.445a9.476,9.476,0,0,1,3.4-6.176c6.5-5.244,13.009-3.628,16.807,3.878a57.255,57.255,0,0,1,2.7,6.815c1.6,4.508,1.187,8.093-2.839,11.754-4.67,4.246-3.645,7.042,2.473,8.938,4.183,1.3,8.3,3.036,12.868,2.777a14.968,14.968,0,0,0,8.167-2.908c1.755-1.278,2.285-5.1.943-6.618-.324-.368-.53-.932-.928-1.127-9.851-4.85-14.688-14.025-19.99-22.865-2.511-4.186-5.531-8.063-8.249-12.128-6.582-9.841-5.988-19.384,1.858-28.021q6.9-7.594,14.105-14.911a31.656,31.656,0,0,0,7.349-12.6c3.981-12.3-4.035-24.123-16.847-25.393a3.163,3.163,0,0,0-3.173,3.739c.956,3.142,5.038,5.433,3.313,9.184-2.121,4.612-7.187,5.022-11.317,5.833-5.732,1.125-11.689,1.1-17.551,1.566-5.367.423-10.812.413-16.079,1.376-4.73.864-9.7,1.351-15.977,6.912,2.27-6.867,4.749-9.271,7.985-11.061a47.525,47.525,0,0,1,21.092-5.7c3.863-.186,7.928.592,11.428-1.763a5.187,5.187,0,0,0,1.442-2.238c.483-1.1-.052-1.8-1.369-1.957a57.926,57.926,0,0,0-5.788-.65c-12.74-.245-25.481-.417-38.223-.6-.979-.014-1.962.023-2.94.08-11.019.643-13.039,3.445-11.022,15.139.237,1.373.192,2.8.327,5-8-5.89-9.163-14.206-10.47-22.155a34.886,34.886,0,0,1,4.127-22.774,16.114,16.114,0,0,1,13.155-8.362c5.814-.485,12.112-1.138,17.485.551,6.879,2.164,9.788.768,11.235-6.03.527-2.475,3.214-3.7,5.819-3.664,2.918.035,5.834.448,8.744.759,5.234.559,7.389-1.481,6.334-6.338-1.039-4.785-2.251-9.538-3.552-14.26-1.429-5.188-2.879-10.382-4.63-15.468-1.539-4.469-3.5-8.792-5.639-14.062,9.46,4.245,13.417,12,17.349,19.716,4.046,7.937,5.86,16.594,7.789,25.2a81.132,81.132,0,0,0,2.122,8.5c.856,2.507,5.524,3.7,7.582,1.883,1.78-1.574,3.076-3.686,4.634-5.52,4.6-5.414,10.575-6.934,17.247-5.478,2.791.608,5.6,1.981,5.728,5.662-3.751.573-7.548.882-11.19,1.8-2.526.638-3.946,2.807-3.976,5.523-.031,2.791,1.8,4.472,4.026,5.621,3.8,1.96,7.576,1.569,11.194-.616,5.573-3.366,11.448-5.257,18.115-4.668,8.039.711,10.974,3.437,13.6,13.542-8.094-5.884-10.99-6.73-16.76-5.833-9.853,1.532-11.811,13.85-7.612,19.754,2.007,2.822,4.96,2.791,7.882,2.767,12.043-.1,18.778,6.881,23.029,17.176,1.268,3.07,1.213,3.093-2.584,10.274-1.041-3.034-1.7-6.354-3.257-9.175-2.639-4.772-7.278-6.313-12.507-5.938a6.587,6.587,0,0,0-5.656,4.1c-1.289,2.851-1.349,5.951.559,8.368,1.464,1.854,3.961,2.851,5.794,4.461,4.279,3.761,6.714,8.237,4.758,14.139Zm.616,80.253c-4.569.176-10.458-.35-16.021,1.967a2.744,2.744,0,0,0-1.406,2.16A3.064,3.064,0,0,0,163.9,292.6a61.588,61.588,0,0,0,30.259,1.748c1.061-.191,2.339-1.79,2.649-2.964.579-2.2-1.147-3.451-2.934-4.284C189.633,285.118,185.193,287.185,179.616,286.327ZM296.028,98.56c-2.142.722-4.421,1.36-6.585,2.268-1.383.581-1.522,4.223-.343,5.063,3.831,2.732,7.886,3.425,12.1,1.034a2.957,2.957,0,0,0,1.654-3.581c-.292-.89-.545-2.117-1.212-2.5A43.48,43.48,0,0,0,296.028,98.56ZM244.455,150.6c.569,0,1.058.016,1.546,0,3.595-.144,6.772-2.448,6.213-4.715-.807-3.265-3.3-4.73-6.49-4.86a12.856,12.856,0,0,0-4.265.727,4.478,4.478,0,0,0-3.364,4.285,4.405,4.405,0,0,0,3.568,4.1C242.6,150.383,243.576,150.461,244.455,150.6Zm-143.388-5.127a6.037,6.037,0,0,0-.152-1.4c-1.256-3.545-5.65-5.865-10.485-5.366a2.667,2.667,0,0,0-1.924,1.635c-.307,3.209,1.917,5.2,4.056,7.057a13.89,13.89,0,0,0,3.727,1.983C98.211,150.2,101.08,147.809,101.067,145.474Zm45.7,170.437c-5.492,0-8,3.734-5.458,8.261a46.163,46.163,0,0,0,3.247,4.678,1.979,1.979,0,0,0,3.46-.233,42.178,42.178,0,0,0,2.958-8.053C151.551,318.43,149.1,315.914,146.763,315.911Z"/><path d="M178.841,206.265c1.145-.6,1.672-.276,1.492.973a1.55,1.55,0,0,1-.917.088c-1.9-.49.682.374-.415-1.254Z"/></svg>