<svg xmlns="http://www.w3.org/2000/svg" viewBox="0 0 543.348 543.348"><defs><style>.a{fill:#dfcf06;}.b{fill:#fcfcfb;}</style></defs><path class="a" d="M274.1,34.855q107.952,0,215.9-.021c18.286-.013,17.754-.143,17.752,17.331q-.027,218.843-.035,437.685c-.005,17.485-.161,17.669-17.523,17.675q-218.9.074-437.8.013c-3.328,0-6.664-.055-9.981-.3-3.756-.274-6.145-2.273-6.333-6.187q-.336-6.978-.328-13.973-.024-215.844,0-431.689c0-22.142-1.535-20.521,20.449-20.528Q165.15,34.83,274.1,34.855ZM263.586,58.082c-12.843,10.267-15.34,16.948-10.4,30.295,2.066,5.584,5.292,10.733,7.9,16.124,5.435,11.235,4.149,21.968-2.835,32.064-.987,1.425-3.131,3.02-4.586,2.885a6.007,6.007,0,0,1-4.151-3.573c-5.082-17.241-16.3-28.363-32.779-35.148-9.674-3.982-16.124-11.479-18.677-22.021a3.4,3.4,0,0,0-4.693-2.232c-.943.421-1.693,1.982-1.937,3.15-2.759,13.2,2.211,23.577,12.453,31.489,11.961,9.241,14.832,21.516,12.953,35.592-.326,2.447-.089,5.509-3.34,6.544-3.459,1.1-4.587-1.523-5.776-3.843-7.973-15.555-20.382-24-38.132-24.621-14.227-.494-25.5-6.674-33.321-18.823-.366-.568-2.127-.238-3.766-.368-2.591,14.921,5.328,23.982,16.782,31.059,5.642,3.486,12.019,5.963,17.163,10.034,9.752,7.721,15.565,17.524,13.024,30.611-4.022.295-5.85-1.431-7.764-3.413-8.386-8.68-18.715-11.578-30.7-11.488-15.636.118-31.892,5.172-46.721-4.343-.225-.145-2.4,1.583-2.443,2.5-.5,10.052,9.166,21.175,19.3,21.888,5.953.419,11.993-.394,17.947.021,8.386.585,15.308,4.936,20.654,11,3.708,4.205,7.175,9.357,4.647,17.265-18.017-12.355-34.5-8.516-50.812,1.75-12.772,8.04-26.023,9.838-39.306.869-1.38-.932-2.56-1.314-3.39-.128-.675.965-1.475,2.443-1.193,3.385,4.441,14.81,15.419,22.512,29.8,20.515,5.232-.727,10.258-2.839,15.45-3.994,4.507-1,9.119-2.186,13.68-2.165a27.546,27.546,0,0,1,23.658,12.533,5.406,5.406,0,0,1,.86,3.727c-.461,2.229-2.38,2.757-4.456,2.531a30.368,30.368,0,0,1-3.926-.644c-15.321-3.741-27.4,1.683-37.34,13.168-1.306,1.51-2.369,3.233-3.711,4.708-10.049,11.043-21.461,17.963-37.121,12.328-.794-.285-2.145.977-3.235,1.522,8.58,17.8,27.055,16.218,39.258,8.948,3.429-2.043,6.682-4.382,10-6.613,11.137-7.49,22.556-6.843,34.092-1.094a4.788,4.788,0,0,1,2.488,2.651,3.8,3.8,0,0,1-2.984,4.466c-16.662,3.467-25.838,14.544-32.7,29.369-5.459,11.8-14.653,20.594-28.475,22.808-2.376.381-5.268.092-5.9,3.5,20.465,14.639,27.371,13.919,43.326-4.464,2.179-2.512,4.358-5.043,6.749-7.346,4.428-4.266,9.893-6.686,15.773-8.225,8.166-2.138,11.241-1.2,20.113,6-21.841,14.732-19.23,11.07-25.874,39.226a9.216,9.216,0,0,0-.323,1.971c-.179,14.172-7.107,23.881-19.746,29.763-1.944.905-3.113,2.167-3.145,4.35,22.253,2.119,30.438-2.3,39.59-21.447,2.01-4.205,3.857-8.49,5.907-12.674,3.1-6.32,8.327-10.24,14.788-12.647,2.552-.95,5.037-.21,11.523,3.107a5.626,5.626,0,0,1-.7,1.771,18.743,18.743,0,0,1-2.87,2.692c-10.671,7.825-14.391,18.739-13.967,31.455.133,3.99.508,7.975.836,11.957,1.171,14.219.583,27.944-11.875,38.549,11.237,1.8,12.366,1.579,19.55-2.677,5.3-3.141,9.943-6.866,11.363-13.222,1.447-6.476,2.884-12.975,3.844-19.535,1.427-9.756,5.432-17.856,14.1-22.954,3.8-2.233,8.251-5.992,12.525-2.106,3.516,3.2.86,7.617-.944,11-6.572,12.339-4.459,24.438.408,36.569.5,1.236,1.131,2.417,1.614,3.656,7.861,20.169,7.858,20.17,6.741,37.723,6.162-.755,8.461-5.722,11.22-10.172a21.072,21.072,0,0,0,2.979-13.436c-.612-5.926-2.1-11.756-3.053-17.653a32.669,32.669,0,0,1,2.832-19.475c2.944-6.265,7.233-10.98,16.3-13.126-.879,8.964-1.822,17.3,1.941,25.381,3.874,8.314,11.093,13.152,16.866,19.485,6.933,7.6,12.155,15.868,11.67,26.687-.1,2.106.946,4.178,2.952,4.035a7.487,7.487,0,0,0,4.974-2.908c7.105-10.385,7.257-21.161.7-31.835-2.425-3.947-5.971-7.225-8.262-11.232-5.472-9.569-5.413-19.076,2.014-27.767,1.6-1.876,3.59-4.589,6.613-2.842a7.288,7.288,0,0,1,3.153,4.5c2.882,16.683,12.039,27.718,28.423,32.612,11.025,3.293,17.683,11.2,22.592,21.194,1.7,3.469.788,8.125,5.142,10.779,6.932-6.136,5.5-14.394,5.453-22.185-.037-6.332-2.872-11.453-7.554-15.7-6.87-6.235-14.883-11.305-19.633-19.712-3.848-6.811-5.057-13.675-1.287-20.834a4.1,4.1,0,0,1,2.9-1.993,3.933,3.933,0,0,1,3.1,1.825c4.233,10.833,11.883,17.457,23.4,19.411a109.917,109.917,0,0,0,13.805,1.882c14.981.613,27.593,4.749,33.284,20.448.266.733,2.153,1.5,2.993,1.251a4.636,4.636,0,0,0,2.694-2.562,16.414,16.414,0,0,0,.928-5.857c-.35-10.934-5.934-18.958-14.9-24.525-5.617-3.489-11.9-5.887-17.722-9.07-9-4.915-13.135-12.864-13.319-22.929a4.673,4.673,0,0,1,1.742-3.345c.883-.636,2.958-.981,3.575-.423,15.724,14.218,33.718,13.453,52.586,8.56,5.8-1.5,11.859-1.825,17.456,1.6,3.366,2.057,6.916,3.812,10.386,5.7.343,1.18.621,2.385,1.058,3.529a6.563,6.563,0,0,0,1.091,1.463c.6-.682,1.74-1.414,1.683-2.036a32.516,32.516,0,0,0-1.273-5.215c-2.444-14.187-13.334-18.9-25.284-21.963-4.434-1.138-9.381-.244-13.844-1.317-10.009-2.406-18.751-6.91-22.371-17.577a4.436,4.436,0,0,1,.436-3.658,3.766,3.766,0,0,1,3.453-.938c16.654,8.156,32.686,4.275,47.774-3.6,10.784-5.63,20.88-8.153,32.136-2.364.736.379,2.633-.381,3.244-1.181a4.493,4.493,0,0,0,.586-3.641c-3.2-9.168-10.23-13.532-19.466-14.6-8.678-1-17.285.343-25.748,2.019-8.478,1.679-15.687-.828-22.562-5.308-2.318-1.511-4.428-3.557-3.352-6.374.415-1.085,3.209-1.839,4.884-1.777,15.955.587,29.407-5.4,37.246-18.854s18.645-17.861,32.972-17.182c1.71,2.045-1.913,1.136.69,1.713,1.571.349,2.045-.3,1.156-1.824-1.344-2.3.723.988-1.759.014-.168-1.261.143-3.042-.576-3.7-11.117-10.247-19.57-11.571-32.421-5.112a103.493,103.493,0,0,0-10.326,5.985c-6.7,4.4-14.1,3.59-21.271,2.526-5.683-.843-11.75-2.135-14.3-8.392,1.86-3,4.543-3,7.069-3.453,16.315-2.929,27.2-11.991,33.944-27.393,7.034-16.075,7.7-15.782,24.883-23.068-12.124-8.247-18.924-8.887-28.537-1.707-4.2,3.134-7.75,7.212-11.26,11.159-9.051,10.18-20.169,12.077-32.656,8.4a7.608,7.608,0,0,1-4.46-3.595c-.8-1.851.97-3.36,2.883-4.137,16.073-6.519,23.144-18.5,23.178-35.773.028-14.229,5.909-25.633,19.845-31.581.323-.138.242-1.22.35-1.862-19.935-3.992-28.524-.36-37.331,15.63-3.513,6.379-6.955,12.821-10.9,18.933-4,6.2-10.063,8.323-17.32,7.006-2.018-.366-3.949-1.043-4.227-3.331a4.65,4.65,0,0,1,.945-3.553c9.007-8.014,13.5-18.082,13.24-30.007a76.755,76.755,0,0,0-2.306-17.7c-2.8-10.663-1.191-19.652,7.567-26.9a20.7,20.7,0,0,0,4.013-4.38,4.748,4.748,0,0,0,.711-3.645,3.938,3.938,0,0,0-2.894-1.924C372.974,89.5,361.8,98.2,360.113,112.716c-.612,5.267.107,10.739-.9,15.9-2.37,12.146-7.081,22.984-20.115,27.378-1.631.549-4.3.585-5.337-.378a5.618,5.618,0,0,1-.888-5.27c6.918-12.93,4.663-25.643-.282-38.423-2.158-5.578-4.143-11.223-6.222-16.832-2.654-7.16-2.8-14.2.467-21.289a84.487,84.487,0,0,0,3.18-9.358c1.258-1.472,2.671-3.073.165-4.469-.415-.232-1.795,1.265-2.729,1.963-8.01.976-12.715,6.366-16.767,12.594-3.421,5.258-4.043,11.276-3.445,17.185.593,5.868,2.5,11.591,3.529,17.431,1.9,10.78,1.145,21.065-6.251,29.972-1.862,2.242-4.234,3.652-6.791,2.489-1.28-.582-2.483-3.224-2.321-4.791,1.763-17.1-4.488-31-16.352-42.889a61.294,61.294,0,0,1-6.13-7.779c-5.567-7.771-8.556-16.3-7.376-26.025,1.6-1.341,2.4-2.81.305-4.291C265.7,55.727,264.369,57.293,263.586,58.082ZM277.96,482.766l-.588,1.264,1.1.033Z"/><path class="b" d="M447.355,383.127c-3.467-1.891-7.017-3.646-10.383-5.7-5.6-3.422-11.66-3.1-17.456-1.6-18.868,4.893-36.862,5.658-52.586-8.56-.617-.558-2.692-.213-3.575.423a4.673,4.673,0,0,0-1.742,3.345c.184,10.065,4.324,18.014,13.319,22.929,5.822,3.183,12.1,5.581,17.722,9.07,8.962,5.567,14.546,13.591,14.9,24.525a16.414,16.414,0,0,1-.928,5.857,4.636,4.636,0,0,1-2.694,2.562c-.84.245-2.727-.518-2.993-1.251-5.691-15.7-18.3-19.835-33.284-20.448a109.917,109.917,0,0,1-13.805-1.882c-11.513-1.954-19.163-8.578-23.4-19.411a3.933,3.933,0,0,0-3.1-1.825,4.1,4.1,0,0,0-2.9,1.993c-3.77,7.159-2.561,14.023,1.287,20.834,4.75,8.407,12.763,13.477,19.633,19.712,4.682,4.249,7.517,9.37,7.554,15.7.045,7.791,1.479,16.049-5.453,22.185-4.354-2.654-3.438-7.31-5.142-10.779-4.909-9.994-11.567-17.9-22.592-21.194C303.352,434.72,294.2,423.685,291.313,407a7.288,7.288,0,0,0-3.153-4.5c-3.023-1.747-5.01.966-6.613,2.842-7.427,8.691-7.486,18.2-2.014,27.767,2.291,4.007,5.837,7.285,8.262,11.232,6.556,10.674,6.4,21.45-.7,31.835a7.487,7.487,0,0,1-4.974,2.908c-2.006.143-3.047-1.929-2.952-4.035.485-10.819-4.737-19.083-11.67-26.687-5.773-6.333-12.992-11.171-16.866-19.485-3.763-8.077-2.82-16.417-1.941-25.381-9.064,2.146-13.353,6.861-16.3,13.126a32.669,32.669,0,0,0-2.832,19.475c.952,5.9,2.441,11.727,3.053,17.653a21.072,21.072,0,0,1-2.979,13.436c-2.759,4.45-5.058,9.417-11.22,10.172,1.117-17.553,1.12-17.554-6.741-37.723-.483-1.239-1.118-2.42-1.614-3.656-4.867-12.131-6.98-24.23-.408-36.569,1.8-3.387,4.46-7.807.944-11-4.274-3.886-8.729-.127-12.525,2.106-8.665,5.1-12.67,13.2-14.1,22.954-.96,6.56-2.4,13.059-3.844,19.535-1.42,6.356-6.062,10.081-11.363,13.222-7.184,4.256-8.313,4.48-19.55,2.677,12.458-10.605,13.046-24.33,11.875-38.549-.328-3.982-.7-7.967-.836-11.957-.424-12.716,3.3-23.63,13.967-31.455a18.743,18.743,0,0,0,2.87-2.692,5.626,5.626,0,0,0,.7-1.771c-6.486-3.317-8.971-4.057-11.523-3.107-6.461,2.407-11.69,6.327-14.788,12.647-2.05,4.184-3.9,8.469-5.907,12.674-9.152,19.145-17.337,23.566-39.59,21.447.032-2.183,1.2-3.445,3.145-4.35,12.639-5.882,19.567-15.591,19.746-29.763a9.216,9.216,0,0,1,.323-1.971c6.644-28.156,4.033-24.494,25.874-39.226-8.872-7.206-11.947-8.14-20.113-6-5.88,1.539-11.345,3.959-15.773,8.225-2.391,2.3-4.57,4.834-6.749,7.346-15.955,18.383-22.861,19.1-43.324,4.467.634-3.407,3.526-3.118,5.9-3.5,13.822-2.214,23.016-11.013,28.475-22.808,6.86-14.825,16.036-25.9,32.7-29.369a3.8,3.8,0,0,0,2.984-4.466,4.788,4.788,0,0,0-2.488-2.651c-11.536-5.749-22.955-6.4-34.092,1.094-3.316,2.231-6.569,4.57-10,6.613-12.2,7.27-30.678,8.855-39.259-8.95,1.091-.543,2.442-1.805,3.236-1.52,15.66,5.635,27.072-1.285,37.121-12.328,1.342-1.475,2.405-3.2,3.711-4.708,9.935-11.485,22.019-16.909,37.34-13.168a30.368,30.368,0,0,0,3.926.644c2.076.226,4-.3,4.456-2.531a5.406,5.406,0,0,0-.86-3.727,27.546,27.546,0,0,0-23.658-12.533c-4.561-.021-9.173,1.161-13.68,2.165-5.192,1.155-10.218,3.267-15.45,3.994-14.384,2-25.362-5.705-29.8-20.515-.282-.942.518-2.42,1.193-3.385.83-1.186,2.01-.8,3.39.128,13.283,8.969,26.534,7.171,39.306-.869,16.309-10.266,32.8-14.105,50.812-1.75,2.528-7.908-.939-13.06-4.647-17.265-5.346-6.064-12.268-10.415-20.654-11-5.954-.415-11.994.4-17.947-.021-10.131-.713-19.8-11.836-19.3-21.888.045-.915,2.218-2.643,2.443-2.5C109.1,167.571,125.36,162.517,141,162.4c11.989-.09,22.318,2.808,30.7,11.488,1.914,1.982,3.742,3.708,7.764,3.413,2.541-13.087-3.272-22.89-13.024-30.611-5.144-4.071-11.521-6.548-17.163-10.034C137.823,129.578,129.9,120.517,132.5,105.6c1.639.13,3.4-.2,3.766.368,7.825,12.149,19.094,18.329,33.321,18.823,17.75.617,30.159,9.066,38.132,24.621,1.189,2.32,2.317,4.943,5.776,3.843,3.251-1.035,3.014-4.1,3.34-6.544,1.879-14.076-.992-26.351-12.953-35.592-10.242-7.912-15.212-18.292-12.453-31.489.244-1.168.994-2.729,1.937-3.15a3.4,3.4,0,0,1,4.693,2.232c2.553,10.542,9,18.039,18.677,22.021,16.482,6.785,27.7,17.907,32.779,35.148a6.007,6.007,0,0,0,4.151,3.573c1.455.135,3.6-1.46,4.586-2.885,6.984-10.1,8.27-20.829,2.835-32.064-2.608-5.391-5.834-10.54-7.9-16.124-4.936-13.347-2.439-20.028,10.4-30.295q.982,1.041,1.986,2.063c-1.2,9.7,1.785,18.233,7.352,26a61.294,61.294,0,0,0,6.13,7.779c11.864,11.888,18.115,25.786,16.352,42.889-.162,1.567,1.041,4.209,2.321,4.791,2.557,1.163,4.929-.247,6.791-2.489,7.4-8.907,8.151-19.192,6.251-29.972-1.03-5.84-2.936-11.563-3.529-17.431-.6-5.909.024-11.927,3.445-17.185,4.052-6.228,8.757-11.618,16.767-12.594a32.174,32.174,0,0,0,2.6,2.521,92.831,92.831,0,0,1-3.212,9.343c-3.269,7.085-3.121,14.129-.467,21.289,2.079,5.609,4.064,11.254,6.222,16.832,4.945,12.78,7.2,25.493.282,38.423a5.618,5.618,0,0,0,.888,5.27c1.041.963,3.706.927,5.337.378,13.034-4.394,17.745-15.232,20.115-27.378,1.007-5.16.288-10.632.9-15.9C361.8,98.2,372.974,89.5,387.956,90.873A3.938,3.938,0,0,1,390.85,92.8a4.748,4.748,0,0,1-.711,3.645,20.7,20.7,0,0,1-4.013,4.38c-8.758,7.247-10.37,16.236-7.567,26.9a76.755,76.755,0,0,1,2.306,17.7c.261,11.925-4.233,21.993-13.24,30.007a4.65,4.65,0,0,0-.945,3.553c.278,2.288,2.209,2.965,4.227,3.331,7.257,1.317,13.319-.8,17.32-7.006,3.943-6.112,7.385-12.554,10.9-18.933,8.807-15.99,17.4-19.622,37.331-15.63-.108.642-.027,1.724-.35,1.862-13.936,5.948-19.817,17.352-19.845,31.581-.034,17.272-7.105,29.254-23.178,35.773-1.913.777-3.682,2.286-2.883,4.137a7.608,7.608,0,0,0,4.46,3.595c12.487,3.68,23.6,1.783,32.656-8.4,3.51-3.947,7.064-8.025,11.26-11.159,9.613-7.18,16.413-6.54,28.537,1.707-17.18,7.286-17.849,6.993-24.883,23.068-6.74,15.4-17.629,24.464-33.944,27.393-2.526.453-5.209.45-7.069,3.453,2.547,6.257,8.614,7.549,14.3,8.392,7.168,1.064,14.569,1.879,21.271-2.526a103.493,103.493,0,0,1,10.326-5.985c12.851-6.459,21.3-5.135,32.421,5.112.719.663.408,2.444.576,3.7l-.088.1c-14.326-.679-25.125,3.711-32.971,17.182s-21.291,19.441-37.246,18.854c-1.675-.062-4.469.692-4.884,1.777-1.076,2.817,1.034,4.863,3.352,6.374,6.875,4.48,14.084,6.987,22.562,5.308,8.463-1.676,17.07-3.021,25.748-2.019,9.236,1.067,16.266,5.431,19.466,14.6a4.493,4.493,0,0,1-.586,3.641c-.611.8-2.508,1.56-3.244,1.181-11.256-5.789-21.352-3.266-32.136,2.364-15.088,7.876-31.12,11.757-47.774,3.6a3.766,3.766,0,0,0-3.453.938,4.436,4.436,0,0,0-.436,3.658c3.62,10.667,12.362,15.171,22.371,17.577,4.463,1.073,9.41.179,13.844,1.317,11.95,3.066,22.84,7.776,25.284,21.963Q448.6,381.952,447.355,383.127Z"/><path class="b" d="M449.917,380.866a32.516,32.516,0,0,1,1.273,5.215c.057.622-1.087,1.354-1.683,2.036a6.563,6.563,0,0,1-1.091-1.463c-.437-1.144-.715-2.349-1.059-3.528Q448.6,381.953,449.917,380.866Z"/><path class="b" d="M327.452,61.937c.934-.7,2.314-2.2,2.729-1.963,2.506,1.4,1.093,3-.149,4.477A33.4,33.4,0,0,1,327.452,61.937Z"/><path class="b" d="M263.586,58.082c.783-.789,2.115-2.355,2.267-2.249,2.1,1.481,1.291,2.95-.293,4.3C264.9,59.464,264.241,58.776,263.586,58.082Z"/><path class="b" d="M480.108,262.454c2.482.974.415-2.315,1.759-.014.889,1.524.415,2.173-1.156,1.824-2.6-.577,1.02.332-.691-1.713Z"/><polygon class="b" points="277.96 482.766 278.473 484.063 277.372 484.03 277.96 482.766"/></svg>