<svg xmlns="http://www.w3.org/2000/svg" viewBox="0 0 543.348 543.348"><defs><style>.a{fill:#dfcf06;}.b{fill:#fcfcfb;}</style></defs><path class="a" d="M478.9,188.89c.984,4.851,4.784,7.878,7.533,11.575,30.53,41.055,14.7,96.919-24.981,119.567-.578.33-1.141.689-1.7,1.052-5.092,3.314-13.027,3.63-13.011,12.331,7.293,2.148,12.865-2.3,18.39-5.476,13.559-7.8,23.507-19.349,31.837-32.469,2.72-4.284,3.521-9.973,8.52-12.729,3.746,1.455,2.133,4.564,2.151,6.769.16,19.986-.1,39.979.19,59.963.119,8.168-2.9,14-9.735,18.3-20.062,12.62-41.681,21.015-65.462,21.94-13.876.54-27.927,1.681-41.736-2.148-10.5-2.912-19.539,1.66-28.142,7.093a3.511,3.511,0,0,0,.8,6.229,125.813,125.813,0,0,0,34.429,9.731c32.487,3.891,63.748-.159,93.22-15.1,2.963-1.5,5.991-2.911,9.085-4.113a5.132,5.132,0,0,1,7.219,4.214,37.431,37.431,0,0,1,.2,3.99c0,32.648.07,65.3-.066,97.944-.034,8.2-1.248,9.231-9.219,9.573-4.658.2-9.329.1-13.994.1q-212.935.006-425.871-.028c-25.282-.011-22.776,2.553-22.786-22.067q-.087-213.879-.009-427.757c.007-24.6-2.1-22,22.944-22.007q212.936-.085,425.871-.022c5.331,0,10.665,0,15.993.142,4.935.136,7.039,3.127,7.047,7.745.039,20.624.017,41.248.017,61.375-5.153,2.792-8.563-.061-12.054-1.642-26.564-12.026-54.468-17.631-83.495-15.889-41.411,2.485-77.083,17.8-106.649,47.777C276.492,164.2,260.785,198.727,258.8,239.8c-.414,8.572-3.234,16.982-.92,25.726,2.032,7.683,12.713,13.326,20.283,10.009,1.388-.608,2.634-2.994,2.793-4.669a87.015,87.015,0,0,0,.277-13.839c-5.616-86.5,67.745-153.915,148.32-149.607,25.619,1.369,49.648,8.862,71.2,23.352,4.1,2.754,7,5.787,6.97,11.164-.152,23.981-.15,47.964-.151,71.946,0,1.66-.588,2.713-2.3,2.487a5.235,5.235,0,0,1-3.3-1.537,78.534,78.534,0,0,1-5.372-8.387c-4.256-7.561-8.9-14.768-16.476-19.509-8.968-12.226-20.487-19.789-36.155-19.766.078-2.391-1.485-3.007-3.439-3.045a2.268,2.268,0,0,0-1.513.7c-.734.8-.135,1.484,1.6,1.73,1.2.17,2.426.214,3.64.315ZM179.537,412.964c-16.529,14.846-16.579,14.624-33.524,18.482-10.344,2.356-20.784,4.77-30.032,10.328-1.411.849-3.166,3.436-2.772,4.43.58,1.459,2.858,2.421,4.593,3.184a10.173,10.173,0,0,0,3.949.393c38.66.007,77.337.645,115.97-.389,12.644-.339,25.156-1,37.8.082,10.605.91,21.3.88,31.951,1.116a58.777,58.777,0,0,0,7.933-.734,4.312,4.312,0,0,0,3.75-3.949c.164-1.038-.833-2.565-1.736-3.418-7.27-6.866-16.333-8.557-25.879-8.526-6.8.022-14.474-.039-18.387-5.647-4.931-7.067-11.465-10.807-18.628-14.385-.771-.386-1.391-2.31-1.11-3.222a3.712,3.712,0,0,1,2.709-2.2c27.229.758,52.22-8.955,77.757-16.267,23.31-6.676,43.733-19.48,64.922-30.48,17.494-9.083,29.077-25.108,40.17-41.012,3.271-4.69.875-9.465-4.963-9.694-15.3-.6-30.619-.721-45.932-.954-4.513-.069-7.274,2.311-8.9,6.519-2.224,5.761-5.816,10.659-11.615,13.147-17.1,7.334-33.644,7.574-48.787-4.872-4.62-3.8-9.137-7.747-13.44-11.9-4.07-3.925-8.632-5.992-14.34-5.734-3.99.181-8.009-.24-11.993-.01-21.855,1.263-43.7,4.8-65.555-.158-1.893-.429-3.985.079-5.983.052-17.323-.23-34.647-.417-51.968-.761-7.315-.145-14.608-1.032-21.73,1.751-4.47,1.746-7.619-.2-9.454-4.508a29.409,29.409,0,0,0-2.558-5.384c-15.035-21.594-33.359-24.609-54.566-9.024-2.146,1.576-4.519,3.028-6.192,5.034-12.915,15.48-21.143,32.576-14.51,53.135A60.6,60.6,0,0,0,69.973,378.9c4.366,3.047,8.62,6.408,13.365,8.724,9.589,4.682,13.869,11.989,13.017,22.522-.23,2.844.526,5.67,3.955,5.3,2.427-.264,5.425-1.358,6.9-3.134a17.533,17.533,0,0,0,3.333-16.915A27.124,27.124,0,0,0,100.5,380.853c-9.127-6.672-18.464-13.07-27.394-19.994-17.14-13.292-18.922-37.137-4.264-52.762A28.569,28.569,0,0,1,86.1,298.936c8.426-1.185,14.306,1.934,17.953,9.408,3.762,7.711,2.55,14.923-.129,23.031-9.265,28.044.12,53.736,29.168,65.024,10.515,4.086,21.357,7.328,32.044,10.973C170,409.03,175.536,408.985,179.537,412.964ZM418,192.73c-3.195,6.406-5.709,12.575-9.2,18.132-3.512,5.592-7.855,10.691-12.083,15.8-6.579,7.95-9.625,17.464-11.609,27.209-3.232,15.873,5.452,29.21,21.133,33.2a53.345,53.345,0,0,0,13.771,2.006c20.517-.324,30.578-13.054,33.424-30.265.577-3.488-.281-7.225-2.9-9.093-8.467-6.049-9.551-14.907-11.786-24.115C435.678,212.928,431.48,200.009,418,192.73ZM234.476,286.947c-.274-4.63,2.136-4.687,3.582-5.594,2.3-1.443,4.583-3.024,4.605-5.92.031-4.153-3.621-5.411-6.583-6.362-9.647-3.094-19.606-3.3-29.53-1.645a17.754,17.754,0,0,0-7.026,3.428c-3.1,2.249-3.95,5.231-.737,8.138,1.9,1.715,4.979,2.986,3.064,6.061-.725,1.164-3.311,1.55-5.075,1.618-5.97.231-11.952.111-17.928.216a44.143,44.143,0,0,0-20.914,5.362c-1.5.829-1.763,1.924-.8,3.373.339.509.491,1.389.926,1.544a23.743,23.743,0,0,0,5.7,1.594c34.422,3,68.931,3.9,103.462,3.747,5.183-.023,10.712.575,15.575-2.163,1.051-.592,2.277-1.848,2.371-2.893a4.453,4.453,0,0,0-1.744-3.368c-7.312-5.068-15.636-6.972-24.393-7.11C251.083,286.849,243.126,286.947,234.476,286.947Zm156.29-118.818c-4.75-2.429-8.894-.626-13,1.721-33.49,19.125-53.837,50.291-47.776,95.127,2.666,19.716,12.193,36.45,26.866,50.042,2.345,2.171,5.08,5.1,8.566,2.493,3.911-2.924,1.092-5.712-.989-8.277-1.676-2.067-3.426-4.075-5.037-6.191a100.531,100.531,0,0,1-15.925-29.781c-6.626-20.387-6.348-40.969,3.558-60.148,8.309-16.087,19.6-30.136,36.269-38.825C386.148,172.8,389.475,171.692,390.766,168.129Z"/><path class="b" d="M179.537,412.964c-4-3.979-9.54-3.934-14.4-5.592-10.687-3.645-21.529-6.887-32.044-10.973-29.048-11.288-38.433-36.98-29.168-65.024,2.679-8.108,3.891-15.32.129-23.031-3.647-7.474-9.527-10.593-17.953-9.408A28.569,28.569,0,0,0,68.838,308.1c-14.658,15.625-12.876,39.47,4.264,52.762,8.93,6.924,18.267,13.322,27.394,19.994a27.124,27.124,0,0,1,10.045,14.536,17.533,17.533,0,0,1-3.333,16.915c-1.473,1.776-4.471,2.87-6.9,3.134-3.429.374-4.185-2.452-3.955-5.3.852-10.533-3.428-17.84-13.017-22.522-4.745-2.316-9-5.677-13.365-8.724A60.6,60.6,0,0,1,46.488,347.39c-6.633-20.559,1.595-37.655,14.51-53.135,1.673-2.006,4.046-3.458,6.192-5.034,21.207-15.585,39.531-12.57,54.566,9.024a29.409,29.409,0,0,1,2.558,5.384c1.835,4.312,4.984,6.254,9.454,4.508,7.122-2.783,14.415-1.9,21.73-1.751,17.321.344,34.645.531,51.968.761,2,.027,4.09-.481,5.983-.052,21.854,4.955,43.7,1.421,65.555.158,3.984-.23,8,.191,11.993.01,5.708-.258,10.27,1.809,14.34,5.734,4.3,4.15,8.82,8.1,13.44,11.9,15.143,12.446,31.69,12.206,48.787,4.872,5.8-2.488,9.391-7.386,11.615-13.147,1.624-4.208,4.385-6.588,8.9-6.519,15.313.233,30.632.357,45.932.954,5.838.229,8.234,5,4.963,9.694-11.093,15.9-22.676,31.929-40.17,41.012-21.189,11-41.612,23.8-64.922,30.48-25.537,7.312-50.528,17.025-77.757,16.267a3.712,3.712,0,0,0-2.709,2.2c-.281.912.339,2.836,1.11,3.222,7.163,3.578,13.7,7.318,18.628,14.385,3.913,5.608,11.587,5.669,18.387,5.647,9.546-.031,18.609,1.66,25.879,8.526.9.853,1.9,2.38,1.736,3.418a4.312,4.312,0,0,1-3.75,3.949,58.777,58.777,0,0,1-7.933.734c-10.656-.236-21.346-.206-31.951-1.116-12.643-1.084-25.155-.421-37.8-.082-38.633,1.034-77.31.4-115.97.389a10.173,10.173,0,0,1-3.949-.393c-1.735-.763-4.013-1.725-4.593-3.184-.394-.994,1.361-3.581,2.772-4.43,9.248-5.558,19.688-7.972,30.032-10.328C162.958,427.588,163.008,427.81,179.537,412.964Z"/><path class="b" d="M418,192.73c13.48,7.279,17.678,20.2,20.754,32.872,2.235,9.208,3.319,18.066,11.786,24.115,2.616,1.868,3.474,5.6,2.9,9.093-2.846,17.211-12.907,29.941-33.424,30.265a53.345,53.345,0,0,1-13.771-2.006c-15.681-3.988-24.365-17.325-21.133-33.2,1.984-9.745,5.03-19.259,11.609-27.209,4.228-5.109,8.571-10.208,12.083-15.8C412.291,205.305,414.805,199.136,418,192.73Z"/><path class="b" d="M234.476,286.947c8.65,0,16.607-.1,24.56.026,8.757.138,17.081,2.042,24.393,7.11a4.453,4.453,0,0,1,1.744,3.368c-.094,1.045-1.32,2.3-2.371,2.893-4.863,2.738-10.392,2.14-15.575,2.163-34.531.156-69.04-.742-103.462-3.747a23.743,23.743,0,0,1-5.7-1.594c-.435-.155-.587-1.035-.926-1.544-.967-1.449-.7-2.544.8-3.373a44.143,44.143,0,0,1,20.914-5.362c5.976-.105,11.958.015,17.928-.216,1.764-.068,4.35-.454,5.075-1.618,1.915-3.075-1.167-4.346-3.064-6.061-3.213-2.907-2.367-5.889.737-8.138a17.754,17.754,0,0,1,7.026-3.428c9.924-1.65,19.883-1.449,29.53,1.645,2.962.951,6.614,2.209,6.583,6.362-.022,2.9-2.3,4.477-4.605,5.92C236.612,282.26,234.2,282.317,234.476,286.947Z"/><path class="b" d="M390.766,168.129c-1.291,3.563-4.618,4.674-7.471,6.161-16.666,8.689-27.96,22.738-36.269,38.825-9.906,19.179-10.184,39.761-3.558,60.148a100.531,100.531,0,0,0,15.925,29.781c1.611,2.116,3.361,4.124,5.037,6.191,2.081,2.565,4.9,5.353.989,8.277-3.486,2.607-6.221-.322-8.566-2.493-14.673-13.592-24.2-30.326-26.866-50.042-6.061-44.836,14.286-76,47.776-95.127C381.872,167.5,386.016,165.7,390.766,168.129Z"/><path class="b" d="M478.9,188.89l-34.649-22.021-.283.3c15.667-.023,27.186,7.54,36.154,19.766A13.9,13.9,0,0,0,478.9,188.89Z"/><path class="b" d="M444.251,166.869c-1.214-.1-2.436-.145-3.64-.315-1.731-.246-2.33-.933-1.6-1.73a2.268,2.268,0,0,1,1.513-.7c1.954.038,3.517.654,3.439,3.045Z"/></svg>