<svg xmlns="http://www.w3.org/2000/svg" viewBox="0 0 543.348 543.348"><defs><style>.a{fill:#1f1e15;}.b{fill:#fcfcfb;}</style></defs><path class="a" d="M35.75,271.07q0-106.928.008-213.853c0-5.327.07-10.656.182-15.982.088-4.146,2.749-5.764,6.436-5.982,3.322-.2,6.661-.133,9.993-.133q219.906-.007,439.813-.018c15.958,0,15.607-.3,15.6,14.955q-.039,220.848-.034,441.7a71.2,71.2,0,0,1-.6,11.934c-.247,1.445-2.326,3.218-3.9,3.649-2.5.684-5.279.465-7.94.465q-222.906.024-445.811.014c-1.333,0-2.667.03-4-.023-8.555-.343-9.436-1.07-9.692-8.88-.174-5.324-.062-10.659-.062-15.988Q35.748,377,35.75,271.07Zm292.36-52.738c5.768-3.249,11.659-6.3,17.256-9.822,3.3-2.078,3.376-5.637,1.81-8.847-1.539-3.156-4.463-5.543-7.962-4.957-5.156.863-3.329,3.983-1.816,7.211.376.8-1.844,3.081-3.176,4.366-3.326,3.208-6.826,6.234-10.256,9.333-6.456.044-10.65,3.825-14.241,8.61q-6.338,8.442-12.682,16.879c-5.544,2.513-10.044,6.35-14.36,10.605-10.807,10.654-10.966,10.62-21.487-.539-7.729-8.2-16.632-15.719-22.53-25.1-7.219-11.484-20.27-17.106-26.51-29.21-1.342-2.6-6.4-1.377-8.58,1.531-1.773,2.366-2.145,4.992-.115,7.2,3.5,3.81,9.044,5.546,10.774,11.231,2.257,7.417,8.424,11.336,13.951,16.247,10.365,9.212,19.685,19.646,29.009,29.96,3.765,4.164,3.215,8.905-.757,12.428-10.892,9.659-21.719,19.424-33.077,28.516-14.579,11.669-29.312,23.052-38.327,39.99-2.352,4.419-5.41,7.26-11.029,6.808-4.792-.385-7.014,2.841-7.728,7.315-1,6.269-3.6,12.242-10,13.7-12.717,2.9-20.32,12.132-28.6,20.741q-11.759,12.225-23.472,24.491c-2.723,2.851-6.933,5.613-6.49,9.565,1,8.964-4.484,11.563-11.193,13.654-4.433,1.382-9.576,2.255-10.837,7.582-1.2,5.08-4.527,7.4-8.533,10.164-11.053,7.629-15.835,15.174-20.4,29.51,4.562.476,7.518-2.6,10.573-4.758,8.637-6.1,16.484-13.533,25.67-18.563,5.755-3.152,10.231-6.191,11.412-12.522.989-5.307,3.991-7.987,8.813-9.607a28.3,28.3,0,0,0,10.329-5.768c11.337-10.246,22.944-20.2,34.559-30.134,8.221-7.031,15.54-14.656,18.435-25.48,1.33-4.974,4.341-7.9,9.391-9.192,4.481-1.151,10.489-2.371,11.226-7.135,1.583-10.245,9.88-13.5,16.416-18.872A93.331,93.331,0,0,0,216.551,333.1c13.169-15.993,28.052-30.206,43.713-43.686,7.542-6.492,14.478-7.223,20.61.259,9.739,11.882,21.5,21.738,31.529,33.211,13.5,15.45,30.226,27.792,42.273,44.593a8.455,8.455,0,0,0,4.823,3.359c11.271,1.777,17.489,8.487,20.339,19.2.648,2.432,2.609,4.613,4.268,6.664a347.442,347.442,0,0,0,45.609,47.318c7.29,6.163,18.448,8.77,19.559,20.8a2.073,2.073,0,0,0,1.247,1.48c9.789,1.742,12.267,11.535,18.76,16.751,5.662,4.549,11.489,10.956,20.486,7.98-5.2-15.8-19.627-23.993-26.785-37.5-.8-1.514-3.135-2.637-4.972-3.109-6.525-1.676-9.67-7.145-12.877-11.96-7.1-10.655-16.249-19.3-25.16-28.275s-16.718-19.158-26.305-27.284c-10.067-8.534-21.9-14.936-27.513-27.915-.907-2.1-3.913-3.659-6.288-4.683-7.038-3.035-11.8-8.6-16.437-14.243a453.009,453.009,0,0,0-44.189-46.021c-6.29-5.765-11.739-12.447-17.819-18.978,7.573-8.546,15.038-16.122,18.737-26.28,5.514-3.166,11.139-6.156,16.513-9.543C322.885,231.321,327.164,225.9,328.11,218.332Zm123.151-51.283s-1.184.591-1.172.586c-13.323.4-26.686,1.907-39.872-1.452,18.6-22.007,20.531-15.7-.165-39.311-6.069-6.924-9.449-7.023-16.634-.307-14.061,13.143-27.8,26.636-41.452,40.2-3.218,3.2-6.791,6.46-7.718,11.939,1.235,1.851,2.662,4.063,4.162,6.226,12.61,18.172,12.577,20.853,33.633,5.323l10.1,1.231c-1.63,5.268-.919,10.584.119,15.774,2.712,13.557-1.541,24.405-11.045,34.275-6.31,6.552-13.526,12.618-18.228,22.026,11.444,4.9,23.106,8.278,34.707,6.384,23.068-3.766,44.546-11.353,62.605-27.82,13.64-12.438,22.964-26.97,30.818-43.312,9.776-20.342,10.2-40.521,3.077-61.987-7.566,1.455-11.418,7.351-16.378,11.422-7.151,5.87-13.381,12.946-22.454,16.122C453.17,163.993,451.826,164.924,451.261,167.049Zm-14.131-41.8c3.872-.541,8.146-.116,10.461-4.378,10.195-18.764,26.248-33.232,37.554-51.179,1.267-2.01,4.264-3.84,1.043-6.7-4.2,2.643-9.814,3.144-9.807,10.61.006,6.068-5.1,10.125-9.4,14.4-9.868,9.8-19.091,20.242-28.582,30.418-1.89,2.026-3.275,4.1-1.021,6.715a7.419,7.419,0,0,1-1.972.223c-9.423-1.483-11.558-4.62-6.721-10.562a170.768,170.768,0,0,1,13.71-14.314,34,34,0,0,0,9.137-14.2c-7.67,5.219-13.053,9.078-18.637,12.62-4.658,2.955-8.934,6.195-8.828,12.255.088,5.064-6.95,8.653-2.456,14.61C427.251,133.257,431.89,122.675,437.13,125.245ZM96.431,75.082c-7.859-6.1-15.574-12.4-23.675-18.157-2.13-1.515-4.529-5.271-8.336-2.15,3.773,7.238,8.812,13.342,14.353,19.125,3.088,3.226,6.073,4.529,10.438,2.4,2.307-1.126,5.144-1.167,7.742-1.7A17.263,17.263,0,0,0,102.3,84.856c5.675,5.535,11.559,10.868,17.045,16.583,4.69,4.888,12.4,7.972,10.932,16.893-9.675,4.938-11.955-5.149-17.372-8.713-2.713-1.784-4.489-5-7.211-6.762s-4.686-6.072-9.906-4.077c3.95,5.961,7.2,11.709,11.286,16.786,3.7,4.6,8.154,8.466,14.782,8.833,9.425.524,12.151-3.251,11.226-13.008-.633-6.694-3.388-11.044-8.447-14.823C115.169,89.5,105.882,82.2,96.431,75.082Zm13.913,178.246c11.014,8.836,24.721,6.667,37.359,9.256-10.082-8.7-23.2-9.874-34.8-14.66-3.1-2.514-6.143-5.11-9.318-7.528-22.111-16.837-35.254-39.507-42.041-65.966-2.335-9.1-2.815-18.682-4.143-28.043a76.467,76.467,0,0,0,3.338,52.1C70.843,222.193,85.822,242.28,110.344,253.328ZM306.622,144.477c2.617-8.814-2.579-16.81-2.653-25.349-.058-6.628-4.612-9.2-10.132-10.185-12.478-2.233-25.052-.628-37.58-.323-3.9.094-5.7,3.366-6.314,6.639-1.829,9.709-3.674,19.468-1.83,29.426-2.177-.047-3.407.973-4.228,3.046-2.439,6.164-4.888,12.337-7.707,18.331-1.877,3.989-5.141,5.607-9.816,4.591-4.374-.95-8.061-5-13.085-3.053-.692,12.259,4.89,21.516,13.474,29.5,5.831,5.421,11.342,11.186,17.207,16.566,1.335,1.225,4.123,2.6,5.253,2.015a81.838,81.838,0,0,0,15.067-9.491c2.572-2.167,1.007-6.194.786-9.509-.442-6.632-.193-13.308-.516-19.952-.186-3.823,1.389-8.192-2.025-11.274-3.379-3.048-7.732,0-11.454-1.245a16.468,16.468,0,0,1-3.406-2.217c0-5.838,0-11.77-.028-17.727,3.575-1.485,7.087-7.4,10.875-.667,1.781,3.166,3.823,5,7.451,4.907,11.458-.29,23.282,2.246,33.878-4.8,1.056-.7,3.512.7,5.319,1.126a15.075,15.075,0,0,0,.5,10.991c2.819,6.3-1.4,7.515-6.021,8.49a32.687,32.687,0,0,0-3.951-.5c-7.854-.079-9.429.514-10.038,6.132-1.068,9.862-2.108,19.825-1.809,29.7.217,7.206,6.5,11.174,12.176,14.616,4.337,2.627,7.3-1.3,10.562-3.171,2.292-1.314,4.323-3.077,6.562-4.5,15.026-9.53,20.876-23.661,21.8-41.751-4.2,2.2-7.011,3.993-10.052,5.191-4.6,1.811-7.494-.561-9.381-4.582-1.5-5.973-2.786-12.009-4.639-17.868C310.447,146.228,308.09,145.493,306.622,144.477Zm33.631.2c4.667-1.257,9.22-.172,13.817.571,8.777,1.417,12.9-5.461,18.088-10.377,4.088-3.872,3.19-8.277,1.412-12.864-2.236-5.765-2.8-11.684-.168-17.452,2.423-5.311-.673-7.427-4.866-8.393-12.852-2.96-25.759-5.7-38.683-8.324a25.636,25.636,0,0,0-7.925-.155c-3.66.426-5.985,2.456-6,6.5-.015,6.647-.243,13.3-.047,19.937.056,1.926-1.419,5.6,3.306,4.978.968-5.177,1.711-10.358,2.963-15.414.812-3.279,2.73-6.431,6.3-7.067,10.5-1.869,21.082-2.824,31.543.225.728.212,1.051,2.19,1.318,3.4a1.794,1.794,0,0,1-.895,1.456,55.814,55.814,0,0,1-7.231,2.837c-20.436,5.721-20.786,6.119-22.111,26.743-.127,1.981-.453,3.949-.686,5.923-2.48,3.886-9.25,7.2-5.032,12.278,3.236,3.893,8.007-1.483,12.162-2.389C338.557,146.866,339.349,145.516,340.253,144.682ZM175.953,249.16c-4.279-6.126-8.107-11.286-11.589-16.669-5.129-7.929-10.877-17.125-7.872-25.974,4.2-12.359-2-18.655-9.318-25.721-4.294-4.15-8.4-8.51-12.411-12.934-3.869-4.266-7.963-6.256-14.068-4.6-10.615,2.876-19.576-1.264-27.363-8.311a137.536,137.536,0,0,1-9.878-9.829c-5.344-5.925-10.521-12-15.669-18.1-2.024-2.4-4.817-3.175-6.807-1.3A5.233,5.233,0,0,0,60.627,133c3.29,3.475,6.088,6.95,5.6,12.111-1.312,13.82,3.984,26.155,9.215,38.336,11.922,27.76,29.231,50.639,58.874,61.469C147.181,249.62,160.158,254.371,175.953,249.16Zm27.411,117.412c-5.834,8.738-13.328,13.772-21.722,17.875A6.734,6.734,0,0,0,180.664,396c9.407,6.2,18.833,12.437,28.67,17.908,17.676,9.83,37.054,13.288,56.978,16.2,18.355,2.682,35.7-.855,53.318-3.294,6.954-.964,14.049-3.5,13.517-13.814-.25-4.845,4.779-6.891,8.568-3.4,6.222,5.727,11.63,4.442,17.642.612,3.809-2.427,8.685-3.64,9.981-8.785-4.72-11.382-11.717-20.721-22.882-26.562-6.615-3.461-11.335-8.962-15.779-14.894a192.6,192.6,0,0,0-15.453-18.24,226.793,226.793,0,0,0-18.99-17.553c-5.385-4.432-12.779-1.063-12.8,6-.035,13.214-1.277,26.587,3.185,39.488,1.96,5.666,4.537,7.833,10.041,6.372,10.229-2.716,20.312-5.981,30.458-9.011a3.691,3.691,0,0,1,4.78,2.169,7.1,7.1,0,0,1-.891,5.6c-4.252,5.478-11.132,6.908-16.854,10.147-3.822,2.163-6.144,5.276-5.049,9.74,1.121,4.576,2.762,9.031,8.7,9.359a43.253,43.253,0,0,1,7.822.877c.978.237,1.788,1.735,2.395,2.815a3.585,3.585,0,0,1-1.757,5.048c-10.965,4.37-21.248,10.8-33.6,11.086-35.629.815-68.108-9.395-98.254-27.84a25.056,25.056,0,0,1-4.667-3.7c-2.021-2.036-2.87-4.744-.888-6.994a6.686,6.686,0,0,1,5.233-1.932c7.349,1.28,13.452,5.483,19.5,9.521,3.906,2.609,7.681,5.4,12.453,5.877,3.369.334,6.814-.273,8.432-3.814a6.247,6.247,0,0,0-3.045-8.462A106.049,106.049,0,0,1,203.364,366.572ZM201.622,178.4a62.036,62.036,0,0,0-13.065-20.139c-9.112-9.671-18.651-18.94-28.042-28.348-8.85-8.866-10.555-9.02-19.6-1.428a59.886,59.886,0,0,0-7.05,6.97c-4.048,4.75-4.872,9.75-1.388,14.567,12.494,17.274,26.862,32.809,44.5,45.007,3.527,2.439,7.53,2.217,11.248-.2a34.934,34.934,0,0,0,11.263-11.077A33.013,33.013,0,0,0,201.622,178.4ZM400.646,280.965a47.74,47.74,0,0,1-.327,19.311c-.885,3.585,3.269,6.93,7.809,7.274,3.661.277,6.793-.982,7.6-4.784,1.375-6.49,2.147-13.105,3.411-19.622a11.693,11.693,0,0,1,2.487-5.246c.557-.642,3.136-.609,3.746.067,2.355,2.609,2.561,6.058,2.329,9.4-1.5,21.527-7.022,41.924-18.066,60.557-2.666,4.5-6.653,8.224-10.1,12.249-1.6,1.872-3.6,1.195-5.333.288-2.185-1.14-2.107-3.417-1.306-5.127,4.49-9.587,9.194-19.073,13.743-28.425-1.213-1.341-1.911-2.626-2.989-3.223-8.712-4.824-8.789-4.831-14.68,2.148-5.067,6-9.908,12.211-16.88,15.916,7.169,14.462,18.248,23.211,32.156,29.6A55.41,55.41,0,0,0,416.309,352.7c1.71-4.294,3.495-8.733,6.172-12.437,11.041-15.275,12.406-33.443,15.465-51.024.865-4.973,2.307-11.392-1.686-15.355-4.786-4.749-9.452,1.023-14.276,1.984C414.931,277.27,407.558,277.043,400.646,280.965Zm-69.031-14.358c.636,4.2,1.364,5.716.955,6.8-5.365,14.258,4.232,20.378,14.2,26.2,6.89,4.027,13.848,7.961,20.948,11.6,5.619,2.881,10.34,1.181,12.859-4.941a124.807,124.807,0,0,0,5.309-17.06c1.661-6.6.8-7.7-6.011-9.927-9.447-3.087-19.6-3.9-28.313-9.394-5.887-3.708-6.817-7.659-1.159-12.464a140.326,140.326,0,0,0,20.233-21.942c5.317-6.929,9.313-14.518,8.933-23.7-.065-1.576-.547-2.815-2.171-2.691-.882.067-2.49,1.494-2.383,2.032,1.915,9.654-4.179,14.8-10.921,19.424-5.474,3.754-10.877,7.89-16.9,10.509C334.294,246.667,328.814,255.6,331.615,266.607ZM176.905,118.343c-.358,3.905-2.492,8.75.692,11.471,9.8,8.374,14.441,25.016,32.753,20.531,3.168-.776,7.356,2.455,11.029,3.941,3.525,1.427,6.615.884,8.532-2.411,1.268-2.18,2.767-5.016.446-7.321-6.31-6.265-5.845-14.52-6.837-22.3-2.145-16.814-2.826-17.7-18.454-20.473-1.959-.349-3.951-.512-5.915-.837-5.792-.959-12.331-.484-14.888-7.747-.165-.468-1.092-.67-1.667-.992-2.633-1.472-5.321-.657-7.574.53-2.653,1.4-3.046,3.974-1.5,6.639C176.967,105.287,178.78,111.484,176.905,118.343ZM176.2,331.057c-7.382-3.957-11.244-9.182-14.884-14.6-1.85-2.756-3.435-5.7-5.436-8.34-2.709-3.569-8.227-4.674-12.454-2.567-4.342,2.165-4.746,6.091-3.827,10.211,1.319,5.916,4.245,11.089,7.733,16.024a25.492,25.492,0,0,1,3.3,7.055,4.387,4.387,0,0,1-1.167,3.472c-1.446,1.565-3.737,2.035-5.159.365a98.391,98.391,0,0,1-21.39-41.837c-1.16-4.992-.112-10.534.216-15.805.061-.979,1.371-2.062,2.344-2.765,2.021-1.459,4-.291,5.125,1.164,1.152,1.49,1.289,3.719,2.2,5.453,3.428,6.542,11.52,7.421,15.418,1.241a23.3,23.3,0,0,0,3.666-15.595c-9.944-.861-19.734-1.857-29.546-2.5-4.916-.321-6.279,2.2-7.306,7.184-1.788,8.674,4.251,15.087,5.575,22.867,2.453,14.423,7.967,27.978,14.788,40.895a86.856,86.856,0,0,0,9.027,13.01c1.927,2.434,7.624,2.253,8.857-.357C158.173,345.274,165.3,336.941,176.2,331.057Zm33.977,26.583c11.533,9.94,24.133,16.6,38.641,19.752,13.149,2.862,14.024,2.454,14.442-11.869.288-9.855-.009-19.741.646-29.567.509-7.628-2.942-12.215-8.913-16.162-4.134-2.731-7.413-2.424-10.21,1.192-6.5,8.4-14.392,15.378-22.244,22.411C218.135,347.339,213.31,350.892,210.176,357.64Zm14.61-71.415c-10.521-13.384-12.906-26.118-5.385-40.081,1.69-3.139-1.234-5.937-5.562-5.658-2.562.166-5.094,1.223-7.633,1.2-6.495-.064-11.415-7.579-18.748-4.087-1.064,9.552,10.462,6.589,12.78,12.817.211.565.934.926,1.37,1.424,3.78,4.324,3.188,9.506-1.917,11.279-10.563,3.667-20.619,8.921-32.052,10.036-3.954.385-5.07,3.769-4.078,7.48a39.094,39.094,0,0,0,2.111,5.555c4.833,11,6.754,11.9,18.189,7.964,8.133-2.795,16.162-5.892,24.311-8.637.743-.249,2.406.855,2.947,1.749.594.985.941,2.771.435,3.662-3.451,6.08-10.061,8.29-15.308,12.2a3.742,3.742,0,0,0-.808,3.322c.478,1.541,1.876,1.651,3.338.938C208.534,302.629,214.426,293.392,224.786,286.225Zm54.765,126.481c4.281-.4,8.9-.551,13.406-1.322,3.443-.588,6.122-2.957,6.411-6.53.365-4.518.962-11.5-3.472-12.3-9.64-1.74-18.667-14.148-29.843-2.421-2.1,2.206-7.517,1.238-11.4,1.772-6.617.909-8.735,5.141-5.65,10.883,2.324,4.327,5.552,7.374,10.544,7.954C266.084,411.5,272.646,412.039,279.551,412.706ZM313.9,282.93c3.482-6.991,3.229-14.748,3.425-22.329.039-1.542-1.648-3.866-3.11-4.489-1.322-.563-3.892.183-5.1,1.261-4.442,3.963-8.952,9.25-8.079,14.816C301.867,277.509,306.912,281.824,313.9,282.93ZM214.657,89.451c.773,2.282,2.746,2.516,4.693,2.864,9.461,1.692,13.062,7.512,12.523,16.866-.263,4.565.532,9.211,1.124,13.786.115.886,1.38,1.919,2.349,2.33,1.472.624,2.525-.25,2.725-1.951.692-5.885,1.666-11.76,1.955-17.667.583-11.909-2.089-15.2-14.14-16.884C222.214,88.281,218.1,86.737,214.657,89.451ZM203.379,222.7c-4.771-4-7.8-7.561-11.649-9.505-4.588-2.316-9.822-3.471-14.878-4.709-4.522-1.108-7.359.739-6.593,3.889.75,3.079,1.437,7.335,5.536,6.674,5.385-.869,10.239-1.3,14.955,2.038C193.391,222.954,196.254,224.741,203.379,222.7Zm56.113,3.437c-.975,4.374,1.881,6.5,4.213,8.659,6.932,6.432,9.282,6.334,16.685-.31,2.021-1.814,3.681-3.97,2.366-6.829-1.183-2.574-3.607-3.81-6.3-4.245C270.406,222.437,264.773,223.934,259.492,226.136ZM367.208,333.689c-.483-1.205-.644-2.758-1.5-3.555-3.892-3.605-7.878-7.129-12.062-10.384-1.317-1.025-3.593-2.618-4.91.125-.43.9.06,2.678.746,3.593,3.6,4.8,7.431,9.453,12.975,12.128.928.448,2.458-.167,3.641-.521C366.56,334.936,366.84,334.17,367.208,333.689Zm-93.451-30.763c-.137-.1-1.552-1.9-3.167-2.1s-3.523,1.031-5.151,1.914c-2.913,1.58-6.5,3.953-4.892,7.182.76,1.527,5.973,1.3,9.089,1.007,1.637-.152,3.06-2.21,4.659-3.291C275.731,306.665,275.975,305.624,273.757,302.926Zm-40.629-27.037c4.344-4.047,6.616-6.232,8.968-8.327,1.227-1.093,1.47-2.071.673-3.265-2.244-3.366-5.468-6.7-9.182-6.219-3.77.483-2.436,5.083-2.377,7.972C231.262,268.587,232.148,271.107,233.128,275.889Z"/><path class="b" d="M300.159,244.779c-3.7,10.158-11.164,17.734-18.737,26.28,6.08,6.531,11.529,13.213,17.819,18.978a453.009,453.009,0,0,1,44.189,46.021c4.641,5.643,9.4,11.208,16.437,14.243,2.375,1.024,5.381,2.585,6.288,4.683,5.614,12.979,17.446,19.381,27.513,27.915,9.587,8.126,17.4,18.315,26.305,27.284s18.064,17.62,25.16,28.275c3.207,4.815,6.352,10.284,12.877,11.96,1.837.472,4.17,1.595,4.972,3.109,7.158,13.511,21.584,21.7,26.785,37.5-9,2.976-14.824-3.431-20.486-7.98-6.493-5.216-8.971-15.009-18.76-16.751a2.073,2.073,0,0,1-1.247-1.48c-1.111-12.031-12.269-14.638-19.559-20.8A347.442,347.442,0,0,1,384.106,396.7c-1.659-2.051-3.62-4.232-4.268-6.664-2.85-10.712-9.068-17.422-20.339-19.2a8.455,8.455,0,0,1-4.823-3.359c-12.047-16.8-28.775-29.143-42.273-44.593-10.024-11.473-21.79-21.329-31.529-33.211-6.132-7.482-13.068-6.751-20.61-.259C244.6,302.9,229.72,317.109,216.551,333.1a93.331,93.331,0,0,1-12.982,12.359c-6.536,5.375-14.833,8.627-16.416,18.872-.737,4.764-6.745,5.984-11.226,7.135-5.05,1.3-8.061,4.218-9.391,9.192-2.9,10.824-10.214,18.449-18.435,25.48-11.615,9.935-23.222,19.888-34.559,30.134a28.3,28.3,0,0,1-10.329,5.768c-4.822,1.62-7.824,4.3-8.813,9.607-1.181,6.331-5.657,9.37-11.412,12.522-9.186,5.03-17.033,12.463-25.67,18.563-3.055,2.159-6.011,5.234-10.573,4.758,4.566-14.336,9.348-21.881,20.4-29.51,4.006-2.765,7.331-5.084,8.533-10.164,1.261-5.327,6.4-6.2,10.837-7.582,6.709-2.091,12.2-4.69,11.193-13.654-.443-3.952,3.767-6.714,6.49-9.565q11.712-12.268,23.472-24.491c8.281-8.609,15.884-17.845,28.6-20.741,6.4-1.457,9.006-7.43,10-13.7.714-4.474,2.936-7.7,7.728-7.315,5.619.452,8.677-2.389,11.029-6.808,9.015-16.938,23.748-28.321,38.327-39.99,11.358-9.092,22.185-18.857,33.077-28.516,3.972-3.523,4.522-8.264.757-12.428-9.324-10.314-18.644-20.748-29.009-29.96-5.527-4.911-11.694-8.83-13.951-16.247-1.73-5.685-7.27-7.421-10.774-11.231-2.03-2.207-1.658-4.833.115-7.2,2.179-2.908,7.238-4.133,8.58-1.531,6.24,12.1,19.291,17.726,26.51,29.21,5.9,9.381,14.8,16.9,22.53,25.1,10.521,11.159,10.68,11.193,21.487.539,4.316-4.255,8.816-8.092,14.359-10.6Q298.6,242.943,300.159,244.779Z"/><path class="b" d="M455.368,164.371c9.073-3.176,15.3-10.252,22.454-16.122,4.96-4.071,8.812-9.967,16.378-11.422,7.128,21.466,6.7,41.645-3.077,61.987-7.854,16.342-17.178,30.874-30.818,43.312-18.059,16.467-39.537,24.054-62.605,27.82-11.6,1.894-23.263-1.483-34.707-6.384,4.7-9.408,11.918-15.474,18.228-22.026,9.5-9.87,13.757-20.718,11.045-34.275-1.038-5.19-1.749-10.506-.124-15.767,4.131-3.1,8.907-5.641,12.269-9.434,7.459-8.415,15.74-12.54,27.374-10.421,6.136,1.118,13.147,1.594,18.292-4l1.179-.589C453.5,167.5,454.681,166.315,455.368,164.371ZM384.99,264.54c11.106-1.455,22.2-3.063,33.327-4.293,4.86-.537,8.826-2.888,12.688-5.331,22.978-14.541,39.987-34.458,51.811-58.807a95.045,95.045,0,0,0,8.662-32.449,28.48,28.48,0,0,0-.3-7.894c-.354-1.913-1.815-3.555-4.146-3.039-1.182.262-2.906.983-3.183,1.871a44.928,44.928,0,0,0-1.3,7.731c-1.252,9.884-2.786,19.687-7.711,28.578-20.566,37.131-51.466,59.487-93.767,65.528-4.863.694-7.87,2.981-6.693,5.035,1.643,2.867,4.308,2.092,6.678,2.487C382.364,264.176,383.679,264.343,384.99,264.54Z"/><path class="b" d="M175.953,249.16c-15.8,5.211-28.772.46-41.639-4.241-29.643-10.83-46.952-33.709-58.874-61.469-5.231-12.181-10.527-24.516-9.215-38.336.49-5.161-2.308-8.636-5.6-12.111a5.233,5.233,0,0,1,.351-7.282c1.99-1.874,4.783-1.1,6.807,1.3,5.148,6.1,10.325,12.174,15.669,18.1a137.536,137.536,0,0,0,9.878,9.829c7.787,7.047,16.748,11.187,27.363,8.311,6.105-1.655,10.2.335,14.068,4.6,4.014,4.424,8.117,8.784,12.411,12.934,7.313,7.066,13.513,13.362,9.318,25.721-3,8.849,2.743,18.045,7.872,25.974C167.846,237.874,171.674,243.034,175.953,249.16Z"/><path class="b" d="M203.364,366.572a106.049,106.049,0,0,0,28.065,19.949,6.247,6.247,0,0,1,3.045,8.462c-1.618,3.541-5.063,4.148-8.432,3.814-4.772-.472-8.547-3.268-12.453-5.877-6.048-4.038-12.151-8.241-19.5-9.521a6.686,6.686,0,0,0-5.233,1.932c-1.982,2.25-1.133,4.958.888,6.994a25.056,25.056,0,0,0,4.667,3.7c30.146,18.445,62.625,28.655,98.254,27.84,12.357-.282,22.64-6.716,33.6-11.086a3.585,3.585,0,0,0,1.757-5.048c-.607-1.08-1.417-2.578-2.395-2.815a43.253,43.253,0,0,0-7.822-.877c-5.941-.328-7.582-4.783-8.7-9.359-1.1-4.464,1.227-7.577,5.049-9.74,5.722-3.239,12.6-4.669,16.854-10.147a7.1,7.1,0,0,0,.891-5.6,3.691,3.691,0,0,0-4.78-2.169c-10.146,3.03-20.229,6.295-30.458,9.011-5.5,1.461-8.081-.706-10.041-6.372-4.462-12.9-3.22-26.274-3.185-39.488.018-7.062,7.412-10.431,12.8-6a226.793,226.793,0,0,1,18.99,17.553,192.6,192.6,0,0,1,15.453,18.24c4.444,5.932,9.164,11.433,15.779,14.894,11.165,5.841,18.162,15.18,22.882,26.562-1.3,5.145-6.172,6.358-9.981,8.785-6.012,3.83-11.42,5.115-17.642-.612-3.789-3.487-8.818-1.441-8.568,3.4.532,10.316-6.563,12.85-13.517,13.814-17.618,2.439-34.963,5.976-53.318,3.294-19.924-2.91-39.3-6.368-56.978-16.2C199.5,408.44,190.071,402.2,180.664,396a6.734,6.734,0,0,1,.978-11.556C190.036,380.344,197.53,375.31,203.364,366.572ZM345.6,403.531c4.779.772,7.836-1.77,10.939-4.169,2.622-2.028,2.225-4.683.575-6.772-1-1.267-3.371-2.513-4.779-2.2-4.593,1.016-8.486,3.468-10.049,8.3a4.336,4.336,0,0,0,.326,3.488C343.305,403.041,344.855,403.225,345.6,403.531Z"/><path class="b" d="M382.043,190.256c-21.056,15.53-21.023,12.849-33.633-5.323-1.5-2.163-2.927-4.375-4.162-6.226.927-5.479,4.5-8.741,7.718-11.939,13.655-13.567,27.391-27.06,41.452-40.2,7.185-6.716,10.565-6.617,16.634.307,20.7,23.613,18.768,17.3.182,39.291A106.3,106.3,0,0,0,382.043,190.256Z"/><path class="b" d="M201.622,178.4a33.013,33.013,0,0,1-2.128,5.356,34.934,34.934,0,0,1-11.263,11.077c-3.718,2.413-7.721,2.635-11.248.2-17.642-12.2-32.01-27.733-44.5-45.007-3.484-4.817-2.66-9.817,1.388-14.567a59.886,59.886,0,0,1,7.05-6.97c9.043-7.592,10.748-7.438,19.6,1.428,9.391,9.408,18.93,18.677,28.042,28.348A62.036,62.036,0,0,1,201.622,178.4Z"/><path class="b" d="M400.646,280.965c6.912-3.922,14.285-3.695,21.338-5.1,4.824-.961,9.49-6.733,14.276-1.984,3.993,3.963,2.551,10.382,1.686,15.355-3.059,17.581-4.424,35.749-15.465,51.024-2.677,3.7-4.462,8.143-6.172,12.437a55.41,55.41,0,0,1-12.062,18.645c-13.908-6.385-24.987-15.134-32.156-29.6,6.972-3.7,11.813-9.912,16.88-15.916,5.891-6.979,5.968-6.972,14.68-2.148,1.078.6,1.776,1.882,2.989,3.223-4.549,9.352-9.253,18.838-13.743,28.425-.8,1.71-.879,3.987,1.306,5.127,1.735.907,3.729,1.584,5.333-.288,3.445-4.025,7.432-7.75,10.1-12.249,11.044-18.633,16.565-39.03,18.066-60.557.232-3.339.026-6.788-2.329-9.4-.61-.676-3.189-.709-3.746-.067a11.693,11.693,0,0,0-2.487,5.246c-1.264,6.517-2.036,13.132-3.411,19.622-.806,3.8-3.938,5.061-7.6,4.784-4.54-.344-8.694-3.689-7.809-7.274A47.74,47.74,0,0,0,400.646,280.965Z"/><path class="b" d="M331.615,266.607c-2.8-11.008,2.679-19.94,15.579-25.551,6.021-2.619,11.424-6.755,16.9-10.509,6.742-4.624,12.836-9.77,10.921-19.424-.107-.538,1.5-1.965,2.383-2.032,1.624-.124,2.106,1.115,2.171,2.691.38,9.187-3.616,16.776-8.933,23.7A140.326,140.326,0,0,1,350.4,257.429c-5.658,4.805-4.728,8.756,1.159,12.464,8.712,5.49,18.866,6.307,28.313,9.394,6.807,2.225,7.672,3.328,6.011,9.927a124.807,124.807,0,0,1-5.309,17.06c-2.519,6.122-7.24,7.822-12.859,4.941-7.1-3.64-14.058-7.574-20.948-11.6-9.966-5.825-19.563-11.945-14.2-26.2C332.979,272.323,332.251,270.808,331.615,266.607Z"/><path class="b" d="M176.905,118.343c1.875-6.859.062-13.056-3.379-18.972-1.55-2.665-1.157-5.24,1.5-6.639,2.253-1.187,4.941-2,7.574-.53.575.322,1.5.524,1.667.992,2.557,7.263,9.1,6.788,14.888,7.747,1.964.325,3.956.488,5.915.837,15.628,2.777,16.309,3.659,18.454,20.473.992,7.783.527,16.038,6.837,22.3,2.321,2.305.822,5.141-.446,7.321-1.917,3.295-5.007,3.838-8.532,2.411-3.673-1.486-7.861-4.717-11.029-3.941-18.312,4.485-22.957-12.157-32.753-20.531C174.413,127.093,176.547,122.248,176.905,118.343Z"/><path class="b" d="M330.39,137.2c.233-1.974.559-3.942.686-5.923,1.325-20.624,1.675-21.022,22.111-26.743a55.814,55.814,0,0,0,7.231-2.837,1.794,1.794,0,0,0,.895-1.456c-.267-1.211-.59-3.189-1.318-3.4-10.461-3.049-21.044-2.094-31.543-.225-3.567.636-5.485,3.788-6.3,7.067-1.252,5.056-1.995,10.237-2.963,15.414-4.725.62-3.25-3.052-3.306-4.978-.2-6.64.032-13.29.047-19.937.01-4.04,2.335-6.07,6-6.5a25.636,25.636,0,0,1,7.925.155c12.924,2.628,25.831,5.364,38.683,8.324,4.193.966,7.289,3.082,4.866,8.393-2.63,5.768-2.068,11.687.168,17.452,1.778,4.587,2.676,8.992-1.412,12.864-5.19,4.916-9.311,11.794-18.088,10.377-4.6-.743-9.15-1.828-13.773-.579C331.977,144.919,331.977,144.919,330.39,137.2Z"/><path class="b" d="M176.2,331.057c-10.9,5.884-18.026,14.217-22.919,24.575-1.233,2.61-6.93,2.791-8.857.357a86.856,86.856,0,0,1-9.027-13.01c-6.821-12.917-12.335-26.472-14.788-40.895-1.324-7.78-7.363-14.193-5.575-22.867,1.027-4.982,2.39-7.5,7.306-7.184,9.812.641,19.6,1.637,29.546,2.5a23.3,23.3,0,0,1-3.666,15.595c-3.9,6.18-11.99,5.3-15.418-1.241-.908-1.734-1.045-3.963-2.2-5.453-1.126-1.455-3.1-2.623-5.125-1.164-.973.7-2.283,1.786-2.344,2.765-.328,5.271-1.376,10.813-.216,15.805a98.391,98.391,0,0,0,21.39,41.837c1.422,1.67,3.713,1.2,5.159-.365a4.387,4.387,0,0,0,1.167-3.472,25.492,25.492,0,0,0-3.3-7.055c-3.488-4.935-6.414-10.108-7.733-16.024-.919-4.12-.515-8.046,3.827-10.211,4.227-2.107,9.745-1,12.454,2.567,2,2.637,3.586,5.584,5.436,8.34C164.955,321.875,168.817,327.1,176.2,331.057Z"/><path class="b" d="M210.176,357.64c3.134-6.748,7.959-10.3,12.362-14.243,7.852-7.033,15.744-14.009,22.244-22.411,2.8-3.616,6.076-3.923,10.21-1.192,5.971,3.947,9.422,8.534,8.913,16.162-.655,9.826-.358,19.712-.646,29.567-.418,14.323-1.293,14.731-14.442,11.869C234.309,374.235,221.709,367.58,210.176,357.64Z"/><path class="b" d="M247.663,144.287v17.7a16.468,16.468,0,0,0,3.406,2.217c3.722,1.242,8.075-1.8,11.454,1.245,3.414,3.082,1.839,7.451,2.025,11.274.323,6.644.074,13.32.516,19.952.221,3.315,1.786,7.342-.786,9.509a81.838,81.838,0,0,1-15.067,9.491c-1.13.589-3.918-.79-5.253-2.015-5.865-5.38-11.376-11.145-17.207-16.566-8.584-7.979-14.166-17.236-13.474-29.5,5.024-1.946,8.711,2.1,13.085,3.053,4.675,1.016,7.939-.6,9.816-4.591,2.819-5.994,5.268-12.167,7.707-18.331.821-2.073,2.051-3.093,4.228-3.046Z"/><path class="b" d="M224.786,286.225c-10.36,7.167-16.252,16.4-26.01,21.159-1.462.713-2.86.6-3.338-.938a3.742,3.742,0,0,1,.808-3.322c5.247-3.908,11.857-6.118,15.308-12.2.506-.891.159-2.677-.435-3.662-.541-.894-2.2-2-2.947-1.749-8.149,2.745-16.178,5.842-24.311,8.637-11.435,3.931-13.356,3.037-18.189-7.964a39.094,39.094,0,0,1-2.111-5.555c-.992-3.711.124-7.095,4.078-7.48,11.433-1.115,21.489-6.369,32.052-10.036,5.1-1.773,5.7-6.955,1.917-11.279-.436-.5-1.159-.859-1.37-1.424-2.318-6.228-13.844-3.265-12.78-12.817,7.333-3.492,12.253,4.023,18.748,4.087,2.539.025,5.071-1.032,7.633-1.2,4.328-.279,7.252,2.519,5.562,5.658C211.88,260.107,214.265,272.841,224.786,286.225Z"/><path class="b" d="M315.5,165.409c1.9,4.055,4.789,6.427,9.391,4.616,3.041-1.2,5.848-2.989,10.052-5.191-.928,18.09-6.778,32.221-21.8,41.751-2.239,1.419-4.27,3.182-6.562,4.5-3.259,1.868-6.225,5.8-10.562,3.171-5.681-3.442-11.959-7.41-12.176-14.616-.3-9.879.741-19.842,1.809-29.7.609-5.618,2.184-6.211,10.038-6.132a32.676,32.676,0,0,1,3.946.5c2.51,2.715,5.5,2.633,8.6,1.33A8.791,8.791,0,0,1,315.5,165.409Z"/><path class="b" d="M248.113,144.685c-1.844-9.958,0-19.717,1.83-29.426.617-3.273,2.411-6.545,6.314-6.639,12.528-.305,25.1-1.91,37.58.323,5.52.988,10.074,3.557,10.132,10.185.074,8.539,5.27,16.535,2.658,25.345.006,0-.917-.6-.917-.6l-.552.947c-1.807-.426-4.263-1.828-5.319-1.126-10.6,7.049-22.42,4.513-33.878,4.8-3.628.092-5.67-1.741-7.451-4.907-3.788-6.73-7.3-.818-10.861.68Zm31.5-12.891v-.158c5.241,0,10.488.133,15.721-.066a3.153,3.153,0,0,0,3.262-3.744,5.385,5.385,0,0,0-1.736-3.282c-8.1-6.11-17.47-4.369-26.568-3.959-4.692.212-9.17,1.44-11.666,5.932-1.194,2.149,4.5,4.932,11.153,5.25C273.053,131.924,276.338,131.794,279.616,131.794Z"/><path class="b" d="M110.344,253.328c-24.522-11.048-39.5-31.135-49.6-54.838a76.467,76.467,0,0,1-3.338-52.1c1.328,9.361,1.808,18.939,4.143,28.043,6.787,26.459,19.93,49.129,42.041,65.966,3.175,2.418,6.215,5.014,9.313,7.524Q111.616,250.62,110.344,253.328Z"/><path class="b" d="M279.551,412.706c-6.9-.667-13.467-1.2-20-1.963-4.992-.58-8.22-3.627-10.544-7.954-3.085-5.742-.967-9.974,5.65-10.883,3.882-.534,9.3.434,11.4-1.772,11.176-11.727,20.2.681,29.843,2.421,4.434.8,3.837,7.781,3.472,12.3-.289,3.573-2.968,5.942-6.411,6.53C288.447,412.155,283.832,412.311,279.551,412.706Z"/><path class="b" d="M96.522,74.989c9.36,7.207,18.647,14.51,28.11,21.579,5.059,3.779,7.814,8.129,8.447,14.823.925,9.757-1.8,13.532-11.226,13.008-6.628-.367-11.082-4.235-14.782-8.833-4.085-5.077-7.336-10.825-11.286-16.786,5.22-2,7.177,2.31,9.906,4.077s4.5,4.978,7.211,6.762c5.417,3.564,7.7,13.651,17.372,8.713,1.472-8.921-6.242-12-10.932-16.893-5.486-5.715-11.37-11.048-17.045-16.583A17.263,17.263,0,0,1,96.953,74.6Z"/><path class="b" d="M437.453,125.129c-2.334-2.608-.949-4.682.941-6.708C447.885,108.245,457.108,97.8,466.976,88c4.308-4.277,9.411-8.334,9.4-14.4-.007-7.466,5.61-7.967,9.807-10.61,3.221,2.857.224,4.687-1.043,6.7-11.306,17.947-27.359,32.415-37.554,51.179-2.315,4.262-6.589,3.837-10.461,4.378Z"/><path class="b" d="M382.043,190.256a106.3,106.3,0,0,1,28.191-24.093c13.169,3.379,26.532,1.87,39.849,1.475-5.151,5.595-12.162,5.119-18.3,4-11.634-2.119-19.915,2.006-27.374,10.421-3.362,3.793-8.138,6.332-12.269,9.434Q387.1,190.868,382.043,190.256Z"/><path class="b" d="M437.13,125.245c-5.24-2.57-9.879,8.012-15.524.528-4.494-5.957,2.544-9.546,2.456-14.61-.106-6.06,4.17-9.3,8.828-12.255,5.584-3.542,10.967-7.4,18.637-12.62a34,34,0,0,1-9.137,14.2A170.768,170.768,0,0,0,428.68,114.8c-4.837,5.942-2.7,9.079,6.721,10.562a7.737,7.737,0,0,0,2.012-.227A2.549,2.549,0,0,1,437.13,125.245Z"/><path class="b" d="M313.9,282.93c-6.985-1.106-12.03-5.421-12.865-10.741-.873-5.566,3.637-10.853,8.079-14.816,1.209-1.078,3.779-1.824,5.1-1.261,1.462.623,3.149,2.947,3.11,4.489C317.126,268.182,317.379,275.939,313.9,282.93Z"/><path class="b" d="M328.11,218.332c-.946,7.572-5.225,12.989-11.438,16.9-5.374,3.387-11,6.377-16.513,9.543q-1.558-1.837-3.117-3.673,6.342-8.442,12.683-16.88c3.591-4.785,7.785-8.566,14.233-8.608Q326.026,216.976,328.11,218.332Z"/><path class="b" d="M214.657,89.451c3.444-2.714,7.557-1.17,11.229-.656,12.051,1.687,14.723,4.975,14.14,16.884-.289,5.907-1.263,11.782-1.955,17.667-.2,1.7-1.253,2.575-2.725,1.951-.969-.411-2.234-1.444-2.349-2.33-.592-4.575-1.387-9.221-1.124-13.786.539-9.354-3.062-15.174-12.523-16.866C217.4,91.967,215.43,91.733,214.657,89.451Z"/><path class="b" d="M203.379,222.7c-7.125,2.042-9.988.255-12.629-1.613-4.716-3.337-9.57-2.907-14.955-2.038-4.1.661-4.786-3.595-5.536-6.674-.766-3.15,2.071-5,6.593-3.889,5.056,1.238,10.29,2.393,14.878,4.709C195.578,215.138,198.608,218.7,203.379,222.7Z"/><path class="b" d="M259.492,226.136c5.281-2.2,10.914-3.7,16.959-2.725,2.7.435,5.122,1.671,6.3,4.245,1.315,2.859-.345,5.015-2.366,6.829-7.4,6.644-9.753,6.742-16.685.31C261.373,232.631,258.517,230.51,259.492,226.136Z"/><path class="b" d="M96.953,74.6c-2.6.53-5.435.571-7.742,1.7-4.365,2.128-7.35.825-10.438-2.4-5.541-5.783-10.58-11.887-14.353-19.125,3.807-3.121,6.206.635,8.336,2.15,8.1,5.758,15.816,12.059,23.72,18.111C96.522,74.989,96.953,74.6,96.953,74.6Z"/><path class="b" d="M110.344,253.328q1.275-2.706,2.556-5.408c11.607,4.79,24.721,5.96,34.8,14.664C135.065,260,121.358,262.164,110.344,253.328Z"/><path class="b" d="M328.11,218.332q-2.079-1.356-4.152-2.714c3.438-3.1,6.938-6.127,10.264-9.335,1.332-1.285,3.552-3.566,3.176-4.366-1.513-3.228-3.34-6.348,1.816-7.211,3.5-.586,6.423,1.8,7.962,4.957,1.566,3.21,1.494,6.769-1.81,8.847C339.769,212.031,333.878,215.083,328.11,218.332Z"/><path class="b" d="M305.158,144.824l.552-.947s.923.592.917.6c1.463,1.02,3.82,1.755,4.246,3.1,1.853,5.859,3.144,11.9,4.634,17.851a8.736,8.736,0,0,0-7.275.208c-3.1,1.3-6.088,1.385-8.6-1.33,4.624-.974,8.845-2.186,6.026-8.489A15.075,15.075,0,0,1,305.158,144.824Z"/><path class="b" d="M367.207,333.689c-.367.481-.647,1.247-1.113,1.386-1.183.354-2.713.969-3.641.521-5.544-2.675-9.379-7.327-12.975-12.128-.686-.915-1.176-2.7-.746-3.593,1.317-2.743,3.593-1.15,4.91-.125,4.184,3.255,8.17,6.779,12.062,10.384C366.564,330.931,366.725,332.484,367.207,333.689Z"/><path class="b" d="M273.757,302.926c2.218,2.7,1.974,3.739.538,4.709-1.6,1.081-3.022,3.139-4.659,3.291-3.116.288-8.329.52-9.089-1.007-1.606-3.229,1.979-5.6,4.892-7.182,1.628-.883,3.532-2.117,5.151-1.914S273.62,302.825,273.757,302.926Z"/><path class="b" d="M233.128,275.889c-.98-4.782-1.866-7.3-1.918-9.839-.059-2.889-1.393-7.489,2.377-7.972,3.714-.478,6.938,2.853,9.182,6.219.8,1.194.554,2.172-.673,3.265C239.744,269.657,237.472,271.842,233.128,275.889Z"/><path class="b" d="M330.39,137.2c1.587,7.716,1.587,7.716,9.907,7.471-.948.842-1.74,2.192-2.777,2.418-4.155.906-8.926,6.282-12.162,2.389C321.14,144.4,327.91,141.089,330.39,137.2Z"/><path class="b" d="M455.368,164.371c-.687,1.944-1.871,3.126-4.112,2.68C451.826,164.924,453.17,163.993,455.368,164.371Z"/><path class="a" d="M384.99,264.537c-1.311-.194-2.626-.361-3.932-.58-2.37-.395-5.035.38-6.678-2.487-1.177-2.054,1.83-4.341,6.693-5.035,42.3-6.041,73.2-28.4,93.767-65.528,4.925-8.891,6.459-18.694,7.711-28.578a44.928,44.928,0,0,1,1.3-7.731c.277-.888,2-1.609,3.183-1.871,2.331-.516,3.792,1.126,4.146,3.039a28.48,28.48,0,0,1,.3,7.894,95.045,95.045,0,0,1-8.662,32.449c-11.824,24.349-28.833,44.266-51.811,58.807-3.862,2.443-7.828,4.794-12.688,5.331C407.186,261.477,396.1,263.085,384.99,264.537Z"/><path class="a" d="M345.6,403.531c-.747-.306-2.3-.49-2.988-1.357a4.336,4.336,0,0,1-.326-3.488c1.563-4.83,5.456-7.282,10.049-8.3,1.408-.311,3.779.935,4.779,2.2,1.65,2.089,2.047,4.744-.575,6.772C353.438,401.761,350.381,404.3,345.6,403.531Z"/><path class="a" d="M279.616,131.794c-3.278,0-6.563.13-9.834-.027-6.654-.318-12.347-3.1-11.153-5.25,2.5-4.492,6.974-5.72,11.666-5.932,9.1-.41,18.467-2.151,26.568,3.959a5.385,5.385,0,0,1,1.736,3.282,3.153,3.153,0,0,1-3.262,3.744c-5.233.2-10.48.066-15.721.066Z"/></svg>