<svg xmlns="http://www.w3.org/2000/svg" viewBox="0 0 543.348 543.348"><defs><style>.a{fill:#dfcf06;}.b{fill:#fcfcfb;}</style></defs><path class="a" d="M271.325,507.225q-105.955,0-211.91,0c-4.665,0-9.334.11-13.994-.045-10.035-.334-10.716-1.1-11.014-12.02-.108-3.994-.029-7.993-.029-11.991q0-211.854.024-423.709c.01-27.528-2.588-24.059,24.977-24.078q212.91-.144,425.82-.017c24.754.01,23.028-2.689,23.031,22.061q.024,213.852-.011,427.706c-.007,24.268,2.274,22.061-22.985,22.078Q378.28,507.281,271.325,507.225Zm-46.47-205.236c7.327-2.481,13.17-7.426,18.458-13.273,10.287-11.374,15.726-24.184,13.723-39.986-2.9-22.889-11.472-43.422-23.15-63.129-24.041-40.571-75.183-57.477-120.124-45.277-33.77,9.167-55.943,32.206-67.74,65.073-7.624,21.241-6.317,43.182-4.354,65.065a100.47,100.47,0,0,0,17.063,48.461c23.529,34.307,55.788,57,95.982,67.024,37.831,9.436,76.442,10.508,114.963,4.078,15.716-2.624,31.11-7.154,44.786-15.909,51.336-32.861,91.877-76.314,124.861-127.2,8.754-13.506,19.2-25.337,33.154-33.966,27.972-17.294,38.088-57.673,21.7-86.169-10.793-18.77-25.046-34.343-43.956-45.325-3.444-2-6.921-3.958-10.274-6.1-43.015-27.542-90.277-33.491-139.825-27.225C286.7,49.82,274.508,55.3,263.763,63.5c-14.676,11.2-22.253,25.888-21.958,44.736.28,17.855,5.733,33.879,14.94,48.9,3.822,6.234,8.7,12.153,11,18.927,8.1,23.856,8.848,48.785,3.439,72.92-10.7,47.723-61.807,82.455-110.348,73.189-5.878-1.122-11.808-2.1-17.573-3.667-40.721-11.052-63.22-44.9-57.475-83.9,4.743-32.193,19.667-49.471,55.717-51.6,29.974-1.771,52.886,11.973,67.814,37.582a111.761,111.761,0,0,1,14.8,70.9C223.737,294.684,221.882,297.8,224.855,301.989Zm-12.877,101.09c-6.012-1.221-11.177-2.384-16.385-3.3-10.339-1.825-19.438-.117-27.665,7.4-13.488,12.329-29.64,20.073-47.263,24.879-5.1,1.392-10.473,2.778-14.834,5.558-3,1.911-3.811,7.978-6.762,9.083-5.662,2.12-5.345-6.587-10.169-7.662-11.589-2.583-23.069-5.686-34.707-8-5.083-1.01-11.006,3.273-11.991,8.511-3.382,17.975.161,34.5,12.223,48.541,3.531,4.109,8.681,6.349,14.389,3.977a8.8,8.8,0,0,0,4.4-3.658c.794-1.632-.106-3.26-2.272-4.449-14.545-7.988-14.6-22.429-15.376-36.274-.172-3.051,1.244-7.35,5.033-7.657,4.7-.382,4.111,4.016,4.388,7.154.35,3.977.14,8.066,1,11.92,1.881,8.394,4.239,16.7,11.641,22.033,5.807-1.992,9.419-5.993,13.085-9.688,7.432-7.489,14.143-11.079,23.775-11.939a39.784,39.784,0,0,0,5.922-.889c35.155-8.628,63.955-28.484,90.911-51.565C211.7,406.727,211.557,405.792,211.978,403.079Z"/><path class="b" d="M224.855,301.989c-2.973-4.185-1.118-7.3-.736-10.5a111.761,111.761,0,0,0-14.8-70.9c-14.928-25.609-37.84-39.353-67.814-37.582-36.05,2.13-50.974,19.408-55.717,51.6-5.745,38.992,16.754,72.843,57.475,83.9,5.765,1.565,11.7,2.545,17.573,3.667,48.541,9.266,99.651-25.466,110.348-73.189,5.409-24.135,4.665-49.064-3.439-72.92-2.3-6.774-7.18-12.693-11-18.927-9.207-15.018-14.66-31.042-14.94-48.9-.3-18.848,7.282-33.537,21.958-44.736,10.745-8.2,22.935-13.678,36.361-15.376,49.548-6.266,96.81-.317,139.825,27.225,3.353,2.146,6.83,4.1,10.274,6.1,18.91,10.982,33.163,26.555,43.956,45.325,16.386,28.5,6.27,68.875-21.7,86.169-13.956,8.629-24.4,20.46-33.154,33.966-32.984,50.891-73.525,94.344-124.861,127.2-13.676,8.755-29.07,13.285-44.786,15.909-38.521,6.43-77.132,5.358-114.963-4.078-40.194-10.026-72.453-32.717-95.982-67.024a100.47,100.47,0,0,1-17.063-48.461c-1.963-21.883-3.27-43.824,4.354-65.065,11.8-32.867,33.97-55.906,67.74-65.073,44.941-12.2,96.083,4.706,120.124,45.277,11.678,19.707,20.249,40.24,23.15,63.129,2,15.8-3.436,28.612-13.723,39.986C238.025,294.563,232.182,299.508,224.855,301.989ZM441.2,99.183c-.575-1.247-.711-4.573-2.531-.871-.452.921,1.57,1.611,2.842.488-1.433,2.562-1.389,5.1.521,7.341,3.017,3.547,6.18,6.969,9.269,10.455a54.287,54.287,0,0,1,13.035,26.559c.43,2.345-.017,6.529-1.351,7.166-2.613,1.247-4.479-1.371-5.455-4.106-5.489-15.366-16.557-25.428-30.992-32.174-2.489-1.163-5.2-4.285-8.042.051,5.825,6.478,12.079,12.53,17.178,19.435,3.181,4.307,7.01,9.436,3.417,16.689-5.905-5.618-8.89-12.59-14.9-17.027-28.132-20.776-59.517-28.554-94.009-23.879-6.511.882-12.836,3.363-19.568,1.073,1.952-4.275,5.923-5.517,9.639-6.643,28.964-8.774,57.647-2.469,88.024,3.4-2.579-3.267-3.445-5.431-4.987-6.152-13.967-6.527-28.981-9.513-43.981-12.475-20.482-4.044-40.682-1.269-64.3,4.856,10.009-12.547,20.672-16.078,31.635-17.688a177.894,177.894,0,0,1,31.856-1.393c12.287.424,24.53,2.121,36.978,3.283-.763-3.591-2.821-5.057-5.418-6.062-25.488-9.867-51.853-11.908-78.558-7.438-12.752,2.135-23.625,9-31.8,19.3-9.457,11.912-12.082,25.06-5.511,39.221,4.787,10.317,10.769,19.813,19.365,27.6,12.436,11.26,26.383,20.1,41.155,27.944,29.076,15.431,60.046,20.727,92.541,17.984,16.5-1.392,30.48-8.3,42.056-20.35,8.559-8.913,11.29-19.178,9.282-31.094C474.831,122.337,460.537,108.7,441.2,99.183ZM287.9,188.459c4.241,11.442,13.628,17.7,22.9,24.04,25.556,17.475,54.986,22.7,84.839,25.146,14.431,1.181,29.074-1.517,42.922-6.718,1.587-.6,1.941-1.672.947-3.163-.319-.478-.845-1.151-1.288-1.159-3.27-.061-6.551-.112-9.814.08-49.046,2.89-95.084-5.581-135.466-35.633A33.532,33.532,0,0,0,287.9,188.459Zm60.194,59.374c-.251,3.141,1.88,4.649,4.218,5.84,16.317,8.309,33.811,10.6,51.857,10.048,5.474-.166,8.066-3.6,9.971-8.17,1.878-4.5-.52-8.461-5.317-7.372-19.106,4.337-38,2.622-56.914-1.006C350.714,246.945,349.352,247.6,348.093,247.833Zm-9.7,20.782c16.214,9.536,31.332,13.214,46.642,16.027,7.336,1.348,9.894-1.413,14.069-12.916-9.979-.285-19.721-.622-29.465-.823C360.243,270.708,351.187,265.71,338.393,268.615Zm-1.975,15.6c-.239,1.812-.594,2.581-.35,2.928,8.189,11.618,21.144,15.059,33.6,19.163,4.214,1.389,7.712-1.323,10.375-4.442,1.227-1.436,2.618-3.578,2.411-5.206-.359-2.823-2.681-3.8-5.76-3.878C362.849,292.448,349.673,288.244,336.418,284.215ZM321.982,304c7.042,12.461,17.414,17.294,29.509,19.326a11.828,11.828,0,0,0,12.184-4.8A9.283,9.283,0,0,0,365,315c.605-2.84-1.915-3.58-3.533-3.63C348.368,310.975,336.109,305.765,321.982,304Zm-9.994,18.892c5.033,9.7,10.357,14.969,17.789,18.158,3.145,1.349,6.355,1.906,9.214-.193a9.028,9.028,0,0,0,3.173-4.606,3.839,3.839,0,0,0-2.81-4.446C331.473,329.134,323.534,326.633,311.988,322.894Zm-15.714,10.558c5.619,10.735,10.486,16.076,17.713,19.276,4.475,1.982,7.507.672,9.1-4.169ZM284.52,353.2c3.833,6.471,8.16,11.439,15.916,12.335.954.11,2.484-1.12,3.017-2.119.46-.861.325-2.8-.322-3.352-1.987-1.689-4.178-3.521-6.6-4.222C292.989,354.82,290.373,350.574,284.52,353.2Zm-3.557,19.572c-.074-3.042-2.4-4.326-4.584-5.566-1.553-.882-3.446-2.052-5.084-.456-.685.667-1.113,2.569-.663,3.259,1.745,2.672,3.873,5.252,7.6,4.68C279.208,374.541,280.04,373.45,280.963,372.774Z"/><path class="b" d="M211.978,403.079c-.421,2.713-.278,3.648-.658,3.972-26.956,23.081-55.756,42.937-90.911,51.565a39.784,39.784,0,0,1-5.922.889c-9.632.86-16.343,4.45-23.775,11.939-3.666,3.695-7.278,7.7-13.085,9.688-7.4-5.335-9.76-13.639-11.641-22.033-.864-3.854-.654-7.943-1-11.92-.277-3.138.31-7.536-4.388-7.154-3.789.307-5.2,4.606-5.033,7.657.776,13.845.831,28.286,15.376,36.274,2.166,1.189,3.066,2.817,2.272,4.449a8.8,8.8,0,0,1-4.4,3.658c-5.708,2.372-10.858.132-14.389-3.977C42.363,474.049,38.82,457.52,42.2,439.545c.985-5.238,6.908-9.521,11.991-8.511,11.638,2.314,23.118,5.417,34.707,8,4.824,1.075,4.507,9.782,10.169,7.662,2.951-1.105,3.763-7.172,6.762-9.083,4.361-2.78,9.733-4.166,14.834-5.558,17.623-4.806,33.775-12.55,47.263-24.879,8.227-7.518,17.326-9.226,27.665-7.4C200.8,400.7,205.966,401.858,211.978,403.079Z"/><path class="a" d="M441.2,99.183c19.335,9.517,33.629,23.154,37.394,45.487,2.008,11.916-.723,22.181-9.282,31.094-11.576,12.055-25.56,18.958-42.056,20.35-32.5,2.743-63.465-2.553-92.541-17.984-14.772-7.839-28.719-16.684-41.155-27.944-8.6-7.783-14.578-17.279-19.365-27.6-6.571-14.161-3.946-27.309,5.511-39.221,8.174-10.294,19.047-17.16,31.8-19.3,26.7-4.47,53.07-2.429,78.558,7.438,2.6,1,4.655,2.471,5.418,6.062-12.448-1.162-24.691-2.859-36.978-3.283a177.894,177.894,0,0,0-31.856,1.393c-10.963,1.61-21.626,5.141-31.635,17.688,23.619-6.125,43.819-8.9,64.3-4.856,15,2.962,30.014,5.948,43.981,12.475,1.542.721,2.408,2.885,4.987,6.152-30.377-5.872-59.06-12.177-88.024-3.4-3.716,1.126-7.687,2.368-9.639,6.643,6.732,2.29,13.057-.191,19.568-1.073,34.492-4.675,65.877,3.1,94.009,23.879,6.006,4.437,8.991,11.409,14.9,17.027,3.593-7.253-.236-12.382-3.417-16.689-5.1-6.9-11.353-12.957-17.178-19.435,2.842-4.336,5.553-1.214,8.042-.051,14.435,6.746,25.5,16.808,30.992,32.174.976,2.735,2.842,5.353,5.455,4.106,1.334-.637,1.781-4.821,1.351-7.166A54.287,54.287,0,0,0,451.3,116.6c-3.089-3.486-6.252-6.908-9.269-10.455-1.91-2.245-1.954-4.779-.521-7.341ZM409.38,142.9c.683.678.023,4.093,2.454,1.2l-2.75-.852c.786-4.888-2.769-7.169-6.012-9.264-15.961-10.312-33.489-11.987-56.36-9.459,14.076,2.821,23.9,4.035,33.23,6.864C389.993,134.44,399.585,139,409.38,142.9Z"/><path class="a" d="M287.9,188.459a33.532,33.532,0,0,1,5.036,2.593c40.382,30.052,86.42,38.523,135.466,35.633,3.263-.192,6.544-.141,9.814-.08.443.008.969.681,1.288,1.159.994,1.491.64,2.567-.947,3.163-13.848,5.2-28.491,7.9-42.922,6.718-29.853-2.444-59.283-7.671-84.839-25.146C301.527,206.161,292.14,199.9,287.9,188.459Z"/><path class="a" d="M348.093,247.833c1.259-.238,2.621-.888,3.815-.66,18.918,3.628,37.808,5.343,56.914,1.006,4.8-1.089,7.195,2.873,5.317,7.372-1.905,4.566-4.5,8-9.971,8.17-18.046.55-35.54-1.739-51.857-10.048C349.973,252.482,347.842,250.974,348.093,247.833Z"/><path class="a" d="M338.393,268.615c12.794-2.905,21.85,2.093,31.246,2.288,9.744.2,19.486.538,29.465.823-4.175,11.5-6.733,14.264-14.069,12.916C369.725,281.829,354.607,278.151,338.393,268.615Z"/><path class="a" d="M336.418,284.215c13.255,4.029,26.431,8.233,40.271,8.565,3.079.074,5.4,1.055,5.76,3.878.207,1.628-1.184,3.77-2.411,5.206-2.663,3.119-6.161,5.831-10.375,4.442-12.451-4.1-25.406-7.545-33.6-19.163C335.824,286.8,336.179,286.027,336.418,284.215Z"/><path class="a" d="M321.982,304c14.127,1.763,26.386,6.973,39.488,7.369,1.618.05,4.138.79,3.533,3.63a9.283,9.283,0,0,1-1.328,3.528,11.828,11.828,0,0,1-12.184,4.8C339.4,321.3,329.024,316.463,321.982,304Z"/><path class="a" d="M311.988,322.894c11.546,3.739,19.485,6.24,27.366,8.913a3.839,3.839,0,0,1,2.81,4.446,9.028,9.028,0,0,1-3.173,4.606c-2.859,2.1-6.069,1.542-9.214.193C322.345,337.863,317.021,332.6,311.988,322.894Z"/><path class="a" d="M296.274,333.452l26.812,15.107c-1.592,4.841-4.624,6.151-9.1,4.169C306.76,349.528,301.893,344.187,296.274,333.452Z"/><path class="a" d="M284.52,353.2c5.853-2.628,8.469,1.618,12.01,2.642,2.423.7,4.614,2.533,6.6,4.222.647.55.782,2.491.322,3.352-.533,1-2.063,2.229-3.017,2.119C292.68,364.641,288.353,359.673,284.52,353.2Z"/><path class="a" d="M280.963,372.774c-.923.676-1.755,1.767-2.733,1.917-3.725.572-5.853-2.008-7.6-4.68-.45-.69-.022-2.592.663-3.259,1.638-1.6,3.531-.426,5.084.456C278.56,368.448,280.889,369.732,280.963,372.774Z"/><path class="a" d="M441.513,98.8c-1.272,1.123-3.294.433-2.842-.488,1.82-3.7,1.956-.376,2.531.871Z"/><path class="b" d="M409.377,142.9c-9.792-3.9-19.384-8.463-29.435-11.511-9.332-2.829-19.154-4.043-33.23-6.864,22.871-2.528,40.4-.853,56.36,9.459,3.243,2.095,6.8,4.376,6.012,9.264Z"/><path class="b" d="M409.084,143.251l2.75.852c-2.431,2.891-1.771-.524-2.455-1.2Z"/></svg>