<svg xmlns="http://www.w3.org/2000/svg" viewBox="0 0 543.348 543.348"><defs><style>.a{fill:#df271f;}.b{fill:#fcfcfb;}</style></defs><path class="a" d="M269.606,459.976c-50.383-2.645-86.831-19.5-119.125-47.3-25.024-21.542-39.869-49.442-52.033-79.067-5.563-13.548-6.972-28.332-7.274-43.02-.273-13.285-1.286-26.035-6.058-39.015-5.056-13.754-5.955-28.9,6.882-40.751,7.624-7.038,9.537-17.388,14.14-26.139,19.342-36.774,48.488-63.113,85.926-79.751,14.328-6.367,30.225-9.432,46.237-11.386,27.328-3.335,54.42-.673,81.518,1.307,15.928,1.165,31.461,5.177,44.433,15.675,4.7,3.8,10.354,5.8,15.953,8,8.807,3.461,16.15,8.733,21.171,17.294,7.087,12.088,18.335,20.827,26.7,32.109C442,186.7,450.134,207.907,454.058,229.947c4.032,22.645,5.8,45.886,2.353,69.381-2.929,19.946-7.286,38.959-15.913,57.248a127.458,127.458,0,0,1-21.222,31.13c-10.686,11.841-21.7,23.386-32.28,35.323-8.651,9.766-18.628,16.63-31.782,19.152-10.383,1.991-20.419,5.536-30.489,8.987C304.536,458.086,283.739,462.37,269.606,459.976ZM403.313,197.76c4.818.68,5.821,4.885,7.29,8.351A70.738,70.738,0,0,1,414.13,217.5c1.061,4.51,1.644,9.13,2.581,13.672.74,3.585-1.677,7.653,1.873,11.2,3.9-4.142-.42-8.393.522-12.542,2.456-10.815-.8-21.111-4.814-31a280.615,280.615,0,0,1-11.932-35.84c-2.115-8.236-6.052-16.209-10.327-23.636-5.228-9.081-12.793-15.327-24.471-13.092l.287.384c-6.336-4.716-12.351-9.958-19.068-14.049-19.083-11.622-39.644-16.828-60.521,1.754C273.155,127.792,255.408,134,235.3,134c-10.972,0-20.789,3.512-29.958,9.57-6.626,4.378-13.855,7.834-20.711,11.878-4.447,2.623-10.1,3.789-12.36,9.776,2.1.122,4.248.849,5.918.248,13.885-4.993,28.029-8.25,42.906-7.64a18.414,18.414,0,0,0,5.932-.739c15.144-4.535,30.164-3.962,45.271.359,2.543.727,6.134,2.25,8.478-1.7a48.129,48.129,0,0,1-3.583-4.736c-.926-1.579-1.958-4.862.541-4.477,7.581,1.165,9.907-8.109,17.805-8.123-2.524,13.549,2.056,24.129,12.25,32.078,5.341,4.165,6.925,9.356,6.528,15.709-.208,3.316.027,6.658-.033,9.986-.349,19.572,1.262,38.566,14.717,54.464,1.887,2.231,3.543,5.313-.209,8.4-2.912-3.785-6.345-7.14-8.443-11.186-6.3-12.145-17.49-13.881-28.863-12.715-12.945,1.329-25.677,4.729-38.645,7.256,1.43,6.3,8.23,4.6,10.363,8.984,2.009,4.129,4.558,8,6.87,11.975,1.093,2.1,1.981,5.241,5.127,3.044,3-2.094.138-4.3-.747-6.379-1.044-3.006-3.481-6.405.627-8.682,3.719-2.062,6.568.665,8.056,3.537a151.72,151.72,0,0,1,6.94,16.46c.308.818-.587,2.63-1.444,3.195s-2.935.694-3.516.09c-5.1-5.307-10.382-7.839-16.512-1.7-5.993-8.022-6.476-19.941-18.443-22.374-2.2-6.916-7.139-6.469-12.634-4.756A231.16,231.16,0,0,0,190.3,266.957c-8.025,4.656-16.363,8.817-24.78,12.728-2.863,1.331-6.391,1.569-9.632,1.653-2.866.073-4.832-2.138-6.007-4.574-1.342-2.78-.105-5.178,2.2-6.833a31.009,31.009,0,0,1,6.819-4c10.568-4.01,21.122-8.1,31.868-11.585,13.908-4.508,28.007-8.424,42-12.691,3.6-1.1,3.436-3.186-.3-6.777-1.312-1.263-3.512-2.659-3.52-4-.018-2.96,2.485-4.062,5.306-4.776,11-2.786,12.5-4.6,13.629-13.334.749-5.79-2.2-11.747.673-17.137a4.319,4.319,0,0,1,5,2.66c2.741,5.937.623,13.086,5.06,18.843,1.706,2.215-.809,4.986-3.138,6.463-6.027,3.822-12.438,7.159-17.041,13.79,11.129,2.5,20.7-1.576,30.531-2.43,9.489-.824,17.746-5.386,26.209-9.246,3.821-1.742,6.894-4.493,7.606-8.636,2.528-14.7,4.047-28.859-9.627-40.28-4.713-3.936-9.125-7.533-14.865-9.23-5.067-1.5-10.4-2.081-15.469-3.583-12.533-3.717-24.328-2.375-36.6,3.774,9.882,14.418,14.626,29.194,11.634,49.219-7.4-13.472-10.713-5.083-14.849-.118a10.678,10.678,0,0,1-2.944,2.676c-1.56.833-3.737,2.177-4.94,1.659-2.313-1-1.221-3.228-.034-4.775,1.619-2.11,3.6-3.95,5.147-6.109,4.651-6.5,5.344-13.41,1.828-20.679-2.819-5.825-7.555-11.089-4.943-18.524.258-.733-2.258-3.088-3.864-3.7a20.625,20.625,0,0,0-13.767.112c-21.452,6.926-42.877,13.952-64.144,21.421-4.909,1.724-9.379,5.02-13.661,8.13-6.462,4.691-12.5,9.961-18.863,14.792-14.214,10.787-16.163,16.857-11.5,34.181,1.851,6.868,5.067,12.085,11.956,14.779,4.324,1.691,8.763,3.418,12.6,5.962,9.676,6.418,14.395,15.256,12.323,27.27-1.039,6.027-3.643,11.242-6.1,16.731-7.965,17.8-2.2,34.827,13.974,41.786,4.134,1.779,9.178,2.951,13.546,2.39,11.511-1.478,20.38,4.114,29.645,9.176a13.782,13.782,0,0,1,7.63,13.028c-.053,4.628-1.121,9.237-1.335,13.872-.4,8.663,3.281,15.458,10.327,20.381a38.249,38.249,0,0,0,24.477,6.9c15.275-.723,27.354,4.085,33.35,19.628,3.212,8.325,10.149,11.736,18.854,12.406,12.224.943,23.85-1.425,35.245-5.518,13.7-4.922,27.267-9.6,41.926-11.992,20.758-3.387,36.8-14.945,43.861-36.1.237-.712-1.183-1.976-1.83-2.982l-.354.379c1.134.423,2.968,1.518,3.3,1.173,12.006-12.52,12.584-35.763,1.464-49.443-3.236-3.98-7.565-5.666-12.4-4.4a46.391,46.391,0,0,0-10.82,4.75c-4.6,2.6-8.731,6.135-14.153,6.965a4.7,4.7,0,0,1-3.612-.88c-1.5-1.573-.95-3.738.325-5.149a29.106,29.106,0,0,1,5.925-5.034c6.165-3.909,12.476-7.587,18.72-11.372,2.9-1.756,5.328-3.951,6.378-7.307,3.187-10.193-4.148-28.652-14.455-32.21a127.643,127.643,0,0,1-26.7-12.919c-3.121-1.968-5.854.007-6.345,4.415-.283,2.546-.051,5.154-.4,7.687a1.93,1.93,0,0,1-2.864,1.656c-1.147-.493-2.738-.885-3.237-1.806-3.1-5.727-.6-11.453.386-17.163.288-1.666,1.36-2.128,3-1.869,4.442.7,9.08-2.091,13.446,1.231,10.484,7.973,22.91,6.613,34.618,5.478,14.336-1.388,26.566-7.283,31.287-23.069-6.63-2.656-12.459.064-18.095.841-11.125,1.534-22.066,4.455-33.046,6.968-9.775,2.236-16.5.153-19.748-8.09-3.845-9.745-8.157-19.581-8.007-30.509,3.416-.16,5.535,1.2,6.7,3.652,2.556,5.39,4.967,10.853,7.3,16.343,4.884,11.485,6.766,12.964,17.552,9.741a133.775,133.775,0,0,1,23.373-4.644,74.806,74.806,0,0,0,11.6-2.636c5.044-1.416,7.7-4.907,7.987-10.151.368-6.743.23-13.009-5.882-18.008-3.546-2.9-8.575-6.177-5.876-12.487C404,204.96,400.409,199.7,403.313,197.76Zm7.732,164.609c2.728-1.775,4.247-2.216,4.789-3.2,12.659-22.879,15.234-47.442,11.392-72.848-.855-5.654-2.078-12.556-8.04-14.882-4.979-1.943-7.143,4.794-11.164,6.764-4.135,2.026-8.157,4.3-12.124,6.645-3.117,1.84-5.013,4.845-3.689,8.293,3.792,9.879,8.5,19.651,6.692,30.539-1.96,11.834,8.906,18.895,10.049,29.455C409.22,355.632,410.048,358.066,411.045,362.369Z"/><path class="a" d="M378.563,489.166c.394-8.766.5-16.085,1.129-23.361a72.84,72.84,0,0,1,2.458-13.641c2.037-7.153,6.955-11.035,14.573-11.376,8.046-.36,15.979.025,23.619,2.857,11.833,4.386,23.674,8.628,34.318,15.759,9.887,6.624,20.262,12.52,30.222,18.614,4.641-4.467,2.056-8.144.331-11.414-5.583-10.58-11.973-20.758-17.129-31.533s-9.576-21.9-9.545-34.294c.029-11.4,5.349-18.891,15.66-23.052,3.693-1.491,7.551-2.6,11.38-3.722,25.735-7.56,22.043-4.692,22.142,15.687.163,33.282.062,66.566.024,99.849-.006,4.645-.1,9.305-.5,13.928a5.311,5.311,0,0,1-5.223,4.977c-3.307.3-6.642.388-9.965.389q-87.891.031-175.781.007c-2.662,0-5.335.008-7.984-.21-3.665-.3-6.018-3.541-4.99-6.849a71.177,71.177,0,0,1,11.978-22.839c7.838-9.991,21.958-12.7,34.354-6.62,5.9,2.9,11.169,7.132,16.6,10.933C369.421,485.484,372.194,488.4,378.563,489.166Z"/><path class="a" d="M482.946,144.423c-1.655-1.047-2.578-1.971-3.672-2.272-16.981-4.671-19.63-8.6-15.206-25.04,1.711-6.36,4.83-12.361,7.517-18.433S477.346,86.7,479.974,80.6c.671-1.559,1.669-3.908-.827-5.116a5.868,5.868,0,0,0-3.695-.631,83.478,83.478,0,0,0-9.414,3.229c-8.636,3.479-17.164,7.236-25.863,10.546A77.236,77.236,0,0,1,424.9,93.145c-11.9,1.864-18.862-3.017-22.7-14.291-4.566-13.423-1.521-26.335,2.091-39.213.437-1.558,2.515-3.066,4.181-3.758,1.754-.729,3.927-.591,5.918-.593,28-.021,55.994-.1,83.99.07,7.7.046,9.209,1.64,9.286,9.57.191,19.991.095,39.985.092,59.978,0,31.988.047,63.976-.1,95.964-.034,7.659-2.518,9.734-9.478,8.8a52.213,52.213,0,0,1-7.758-1.7c-20.117-5.916-29.082-15.984-19.161-43.128C473.929,157.573,479,151.181,482.946,144.423Z"/><path class="a" d="M35.787,112.776c0-22.657-.115-45.314.062-67.969.062-7.981,1.454-9.382,9.442-9.445,21.993-.174,43.989-.068,65.984-.01,4.412.011,7.67,1.72,8.424,6.586,1.215,7.836,4.377,15.327,3.08,23.6C120.406,80.673,111.9,88.03,96.643,86.321c-7.182-.8-14.156-3.41-21.246-5.105a3.482,3.482,0,0,0-4.3,4.468,224.192,224.192,0,0,1,10.054,34.343c1.753,8.615,1.1,15.964-6.491,21.3-5.169,3.633-4.193,7.621-1.478,12.03,1.045,1.7,1.96,3.48,3.05,5.148,6.736,10.311-1.02,22.8-10.833,25.318a113.281,113.281,0,0,1-11.626,2.56c-21.289,3.12-17.935-1.089-18.006-15.632-.1-19.325-.024-38.65-.024-57.974Z"/><path class="a" d="M94.707,457.929c7.335-3.611,14.808-7.73,22.621-11.048,16.352-6.941,28.1-1.755,34.682,15.149,5.192,13.333,4.328,27.405,4.254,41.318a5.011,5.011,0,0,1-4.925,5.208c-1.986.139-3.979.273-5.969.274q-47.892.027-95.784.011-2.992,0-5.985-.092c-4.63-.14-7.55-2.245-7.712-7.129-.153-4.65-.135-9.308-.14-13.962-.015-14.6-.006-29.205-.006-43.623,11.593-7.591,24.182-9.644,36.506-11.725,11.693-1.974,20.5,2.951,19.6,15.675-.183,2.577.494,5.227.9,7.824C92.824,456.281,93.5,456.659,94.707,457.929Z"/><path class="a" d="M216.908,35.3q31.859,0,63.719.016c1.989,0,4.088.379,4.488,2.723a5.609,5.609,0,0,1-.95,3.65A48.065,48.065,0,0,1,268.281,56.52c-9.929,5.791-20.319,5.3-30.09-.791-3.906-2.436-7.21-5.819-10.926-8.587a5.118,5.118,0,0,0-7.15.653,43.092,43.092,0,0,0-5.872,7.981c-2.383,4.142-5.767,7.188-9.451,10.054-8.493,6.606-17.277,8.329-27.813,4.278-14.622-5.622-23.228-17.038-31.333-29.262-1.469-2.215.545-5.306,3.572-5.352,11.279-.171,22.559-.208,33.839-.243s22.567-.008,33.851-.008Z"/><path class="a" d="M238.841,508.7c-12.627,0-25.256.082-37.882-.049-3.774-.039-6.129-3.8-4.287-6.8,8.592-13.986,19.147-25.184,36.643-27.833,15.415-2.334,27.285,3.827,37.453,14.242,3.643,3.732,6.189,8.6,8.921,13.137,2.6,4.326.613,7.312-4.957,7.37-11.962.124-23.927.038-35.891.038Z"/><path class="a" d="M349.345,35.44c11.947,0,23.895-.043,35.842.035,2.611.017,4.268,3.781,2.468,5.758-10.729,11.787-21.6,23.567-36,30.943-13.414,6.869-24.292,3.307-31.861-9.934-3.615-6.324-6.693-12.967-9.78-19.575-2.129-4.557-.2-7.216,5.471-7.3,11.285-.164,22.573-.049,33.861-.049Z"/><path class="a" d="M507.033,260.162c1.325,32.447.466,60.026.788,89.005-15.132-3.62-27.171-9.922-32.878-23.473-6.258-14.861-.92-28.888,8.033-40.957C488.791,276.9,496.668,270.588,507.033,260.162Z"/><path class="a" d="M61.959,357.065c-2.294,18.584-8.257,35.947-21.017,50.441a3.6,3.6,0,0,1-3.383.353,3.947,3.947,0,0,1-1.621-3c-.087-22.62-.141-45.241-.005-67.861.033-5.629,4.115-7.613,9.442-5.426C56.733,336.232,60.552,345.706,61.959,357.065Z"/><path class="a" d="M63.687,245.478c.016,6.827-1.432,11.981-5.119,15.954-5.354,5.77-11.13,11.161-16.9,16.527-2.121,1.972-5.664.524-5.674-2.2-.065-19.1,0-38.195-.06-57.292-.008-2.836,2.584-3.705,3.748-3.075a52.531,52.531,0,0,1,23.48,25.588C63.92,242.693,63.627,244.867,63.687,245.478Z"/><path class="b" d="M270.075,263.372c-2.311-3.981-4.86-7.847-6.869-11.976-2.133-4.384-8.933-2.683-10.363-8.984,12.968-2.527,25.7-5.927,38.645-7.256,11.373-1.166,22.564.57,28.863,12.715,2.1,4.046,5.531,7.4,8.443,11.186,3.752-3.09,2.1-6.172.209-8.4-13.455-15.9-15.066-34.892-14.717-54.464.06-3.328-.175-6.67.033-9.986.4-6.353-1.187-11.544-6.528-15.709-10.194-7.949-14.774-18.529-12.25-32.078-7.9.014-10.224,9.288-17.805,8.123-2.5-.385-1.467,2.9-.541,4.477a48.129,48.129,0,0,0,3.583,4.736c-2.344,3.951-5.935,2.428-8.478,1.7-15.107-4.321-30.127-4.894-45.271-.359a18.414,18.414,0,0,1-5.932.739c-14.877-.61-29.021,2.647-42.906,7.64-1.67.6-3.819-.126-5.918-.248,2.262-5.987,7.913-7.153,12.36-9.776,6.856-4.044,14.085-7.5,20.711-11.878C214.513,137.514,224.33,134,235.3,134c20.106,0,37.853-6.21,52.958-19.654,20.877-18.582,41.438-13.376,60.521-1.754,6.717,4.091,12.732,9.333,19.062,14.041-7.853-3.123-15.474-3.214-27.187,2.5,11.287,1.279,18.213,2.242,25.217.342.8-.216,1.137-2.108,1.689-3.223,11.678-2.235,19.243,4.011,24.471,13.092,4.275,7.427,8.212,15.4,10.327,23.636a280.615,280.615,0,0,0,11.932,35.84c4.016,9.891,7.27,20.187,4.814,31-.942,4.149,3.376,8.4-.522,12.542-3.55-3.549-1.133-7.617-1.873-11.2-.937-4.542-1.52-9.162-2.581-13.672a70.738,70.738,0,0,0-3.527-11.386c-1.469-3.466-2.472-7.671-7.29-8.351l.269.429c1.467-2.726.32-5.138-1.725-6.579-1.216-.855-3.44-.279-5.211-.347a28.827,28.827,0,0,0,.892,3.552,31.728,31.728,0,0,0,1.742,3.371l.316-.366c-1.895-.043-4.248.624-5.608-.251-6.916-4.448-14.277-4.347-21.889-2.978l.376.255c2.875-4.958,7.515-4.509,12.229-4.112,2.224.187,5.319,1.467,5.217-3.791-8-4.707-16.609-6.665-25.952-2.991-10.266,4.037-18.08,10.677-22.1,21.316-2.154,5.7-.8,6.848,6.218,7.282,6.023.373,10.877-.44,16.216-4,9.264-6.176,19.7-7.49,29.951-1.432,2.277,1.346,3.642-.247,5.357-.916l-.469-.311c-2.7,6.308,2.33,9.585,5.876,12.485,6.112,5,6.25,11.265,5.882,18.008-.287,5.244-2.943,8.735-7.987,10.151a74.806,74.806,0,0,1-11.6,2.636,133.775,133.775,0,0,0-23.373,4.644c-10.786,3.223-12.668,1.744-17.552-9.741-2.334-5.49-4.745-10.953-7.3-16.343-1.163-2.45-3.282-3.812-6.7-3.652-.15,10.928,4.162,20.764,8.007,30.509,3.252,8.243,9.973,10.326,19.748,8.09,10.98-2.513,21.921-5.434,33.046-6.968,5.636-.777,11.465-3.5,18.095-.841-4.721,15.786-16.951,21.681-31.287,23.069-11.708,1.135-24.134,2.5-34.618-5.478-4.366-3.322-9-.532-13.446-1.231-1.643-.259-2.715.2-3,1.869-.987,5.71-3.485,11.436-.386,17.163.5.921,2.09,1.313,3.237,1.806a1.93,1.93,0,0,0,2.864-1.656c.348-2.533.116-5.141.4-7.687.491-4.408,3.224-6.383,6.345-4.415a127.643,127.643,0,0,0,26.7,12.919c10.307,3.558,17.642,22.017,14.455,32.21-1.05,3.356-3.482,5.551-6.378,7.307-6.244,3.785-12.555,7.463-18.72,11.372a29.106,29.106,0,0,0-5.925,5.034c-1.275,1.411-1.825,3.576-.325,5.149a4.7,4.7,0,0,0,3.612.88c5.422-.83,9.553-4.364,14.153-6.965a46.391,46.391,0,0,1,10.82-4.75c4.836-1.268,9.165.418,12.4,4.4,11.12,13.68,10.542,36.923-1.464,49.443-.331.345-2.165-.75-3.3-1.171-1-6.489-2.1-12.966-2.963-19.475a22.422,22.422,0,0,0-10.194-16.354c-2.121-1.418-4.368-3.066-7.331-2.282-5.207,1.378-10.156,3.179-13.588,7.658-1.9,2.477-1.69,4.96.723,6.848,2.076,1.623,4.811,2.479,6.693,4.264,9.1,8.634,9.954,18.459,2.626,28.444a43.628,43.628,0,0,1-20.536,15.118c-7.454,2.754-15.052,5.163-22.691,7.357-10.167,2.921-20.441,5.465-30.656,8.216-3.509.945-7.069,1.924-8.112,7.686,19.322-4.926,37.881-9.484,56.34-14.419,15.38-4.111,27.99-12.5,35.384-26.874,3.506-6.813,8.811-6.57,14.662-6.568.647,1.006,2.067,2.27,1.83,2.982-7.057,21.154-23.1,32.712-43.861,36.1-14.659,2.393-28.222,7.07-41.926,11.992-11.4,4.093-23.021,6.461-35.245,5.518-8.705-.67-15.642-4.081-18.854-12.406-6-15.543-18.075-20.351-33.35-19.628a38.249,38.249,0,0,1-24.477-6.9c-7.046-4.923-10.727-11.718-10.327-20.381.214-4.635,1.282-9.244,1.335-13.872a13.782,13.782,0,0,0-7.63-13.028c-9.265-5.062-18.134-10.654-29.645-9.176-4.368.561-9.412-.611-13.546-2.39-16.174-6.959-21.939-23.984-13.974-41.786,2.456-5.489,5.06-10.7,6.1-16.731,2.072-12.014-2.647-20.852-12.323-27.27-3.835-2.544-8.274-4.271-12.6-5.962-6.889-2.694-10.1-7.911-11.956-14.779-4.667-17.324-2.718-23.394,11.5-34.181,6.365-4.831,12.4-10.1,18.863-14.792,4.282-3.11,8.752-6.406,13.661-8.13,21.267-7.469,42.692-14.5,64.144-21.421a20.625,20.625,0,0,1,13.767-.112c1.606.616,4.122,2.971,3.864,3.7-2.612,7.435,2.124,12.7,4.943,18.524,3.516,7.269,2.823,14.183-1.828,20.679-1.545,2.159-3.528,4-5.147,6.109-1.187,1.547-2.279,3.777.034,4.775,1.2.518,3.38-.826,4.94-1.659A10.678,10.678,0,0,0,223,216.856c4.136-4.965,7.45-13.354,14.849.118,2.992-20.025-1.752-34.8-11.634-49.219,12.272-6.149,24.067-7.491,36.6-3.774,5.065,1.5,10.4,2.085,15.469,3.583,5.74,1.7,10.152,5.294,14.865,9.23,13.674,11.421,12.155,25.58,9.627,40.28-.712,4.143-3.785,6.894-7.606,8.636-8.463,3.86-16.72,8.422-26.209,9.246-9.832.854-19.4,4.934-30.531,2.43,4.6-6.631,11.014-9.968,17.041-13.79,2.329-1.477,4.844-4.248,3.138-6.463-4.437-5.757-2.319-12.906-5.06-18.843a4.319,4.319,0,0,0-5-2.66c-2.868,5.39.076,11.347-.673,17.137-1.128,8.73-2.626,10.548-13.629,13.334-2.821.714-5.324,1.816-5.306,4.776.008,1.346,2.208,2.742,3.52,4,3.731,3.591,3.893,5.679.3,6.777-13.988,4.267-28.087,8.183-41.995,12.691-10.746,3.483-21.3,7.575-31.868,11.585a31.009,31.009,0,0,0-6.819,4c-2.309,1.655-3.546,4.053-2.2,6.833,1.175,2.436,3.141,4.647,6.007,4.574,3.241-.084,6.769-.322,9.632-1.653,8.417-3.911,16.755-8.072,24.78-12.728a231.16,231.16,0,0,1,47.234-21.152c5.5-1.713,10.429-2.16,12.634,4.756,11.967,2.433,12.45,14.352,18.443,22.374,6.13-6.138,11.409-3.606,16.512,1.7.581.6,2.651.479,3.516-.09s1.752-2.377,1.444-3.195a151.72,151.72,0,0,0-6.94-16.46c-1.488-2.872-4.337-5.6-8.056-3.537-4.108,2.277-1.671,5.676-.627,8.682Zm77.139,46.18c6.063,2.014,6.779,7.445,8.061,12.543,1.256,4.995-1.918,10.435,2.7,17,1.22-2.092,2.538-3.661,3.125-5.467,5.5-16.922-.755-31.438-16.9-39.8-1.628-.843-2.614-.885-3.133.856a9.99,9.99,0,0,0-.607,3.785c.544,4.891,6.918,6.247,7.093,11.452-7.875,3.832-8,3.889-6.872,8.223,1.554,5.967,3.281,11.889,4.95,17.887,4.051-1.477,4.948-4.4,4.459-7.911C349.23,321.914,344.944,316.245,347.214,309.552Zm-15.81,52.67c-5.888-3.708,5.151-7.24-.4-11.354a149.544,149.544,0,0,1-40.205,19.9q-25.342,8.41-50.548,17.231c-5.518,1.932-11.12,3.93-15.488,8.112-.319.305-.188,1.367.075,1.911.243.5,1.022,1.171,1.435,1.091a44.547,44.547,0,0,0,7.425-1.82c9.686-3.7,19.038-8.641,29.935-7.461,4.659,2.767.392,5.352-.128,8.044-1.172,6.064,1.533,9.457,6.818,8.626a23.147,23.147,0,0,0,5.765-1.22,329.964,329.964,0,0,0,61.621-35.318c2.012-1.476,3.357-3.861,4.9-5.69C339.11,359.586,334.837,363.955,331.4,362.222Zm-97.6-50.54c-3.886,1.32-5.81,1.725-7.5,2.587a203.624,203.624,0,0,1-54.228,18.672c-7.8,1.5-15.543,3.285-23.291,5.032-1.736.392-4.147.4-3.9,3.161.224,2.552,2.187,2.928,4.217,2.584,26.185-4.445,51.872-10.611,75.99-22.153C228.685,319.841,232.343,318.211,233.8,311.682Zm35.723,13.6c-1.256-.163-2.632-.787-3.615-.4-18.287,7.129-36.584,14.239-54.715,21.749-2.785,1.154-5,4.068-7.033,6.537-1.844,2.241,1.17,7.594,4.1,7.372a20.264,20.264,0,0,0,7.463-1.624c10.561-5.315,21.314-10.441,30.158-18.484,4.008-3.645,8.1-6.335,13.568-7.42C263.731,332.156,268.531,330.94,269.523,325.28Zm-147.6-72.324c2.319,1.673,4.937,1.688,7.5,1.028,19.833-5.111,39.612-10.439,59.486-15.386a58.839,58.839,0,0,0,21.217-10.5c.939-.7,2.033-2.662,1.686-3.34-.983-1.921-2.9-1.783-4.707-.755-14.552,8.263-29.78,13.977-46.705,15.805-10.445,1.128-20.629,4.893-30.847,7.769C126.548,248.419,122.964,249.074,121.923,252.956ZM387.875,149.594c-3.373-5.107-4.975-7.96-7-10.477-2.159-2.689-4.367-5.082-7.119-.021-2.335,4.293-7.073,2.691-10.764,2.64-8.279-.115-15.764,1.852-22.222,7.045-1.14.916-3.7,2.183-1.546,4.305a3.781,3.781,0,0,0,3.543.5C356.09,145.4,370.338,146.285,387.875,149.594Zm-74.44,11.433c1.165-.476,2.747-.623,3.428-1.483,4.456-5.629,8.858-11.314,12.981-17.189,1.878-2.676,3.218-5.9.508-8.948-1.9-2.136-7.733-.488-10.017,2.974a53.164,53.164,0,0,0-8.521,21.665C311.683,158.942,312.858,160.029,313.435,161.027Z"/><path class="b" d="M411.045,362.369c-1-4.3-1.825-6.737-2.1-9.231-1.143-10.56-12.009-17.621-10.049-29.455,1.8-10.888-2.9-20.66-6.692-30.539-1.324-3.448.572-6.453,3.689-8.293,3.967-2.342,7.989-4.619,12.124-6.645,4.021-1.97,6.185-8.707,11.164-6.764,5.962,2.326,7.185,9.228,8.04,14.882,3.842,25.406,1.267,49.969-11.392,72.848C415.292,360.153,413.773,360.594,411.045,362.369Z"/><path class="b" d="M403.313,197.76c-2.9,1.935.687,7.2-4.172,8.132l.47.312-.015-8.384-.316.366a2.971,2.971,0,0,0,4.3,0Z"/><path class="b" d="M274.456,260.036c.885,2.08,3.744,4.285.747,6.379-3.146,2.2-4.034-.943-5.128-3.043Z"/><path class="a" d="M391.771,393.756c-5.851,0-11.156-.245-14.662,6.568-7.394,14.37-20,22.763-35.384,26.874-18.459,4.935-37.018,9.493-56.34,14.419,1.043-5.762,4.6-6.741,8.112-7.686,10.215-2.751,20.489-5.295,30.656-8.216,7.639-2.194,15.237-4.6,22.691-7.357A43.628,43.628,0,0,0,367.38,403.24c7.328-9.985,6.479-19.81-2.626-28.444-1.882-1.785-4.617-2.641-6.693-4.264-2.413-1.888-2.621-4.371-.723-6.848,3.432-4.479,8.381-6.28,13.588-7.658,2.963-.784,5.21.864,7.331,2.282a22.422,22.422,0,0,1,10.194,16.354c.866,6.509,1.964,12.986,2.963,19.475Zm-16.9-19.223a13.692,13.692,0,0,0,1.615,1.1c.248.126.643-.041.972-.076l-2.977-.592c.075-1.829.443-3.717.093-5.461-.16-.8-1.671-1.7-2.681-1.859-1.187-.192-1.548,1.084-.57,2.523A48.7,48.7,0,0,0,374.874,374.533Z"/><path class="a" d="M331.407,362.22c3.43,1.735,7.7-2.634,11.2,2.057-1.541,1.829-2.886,4.214-4.9,5.69a329.964,329.964,0,0,1-61.621,35.318,23.147,23.147,0,0,1-5.765,1.22c-5.285.831-7.99-2.562-6.818-8.626.52-2.692,4.787-5.277.128-8.044l-.382.2c4.417,3.97,8.323,2.676,12.389-4.106l-.415.158c5.957,2.376,9.884,1.064,12.33-4.117l-.2.1c8.5,3.157,14.764-.969,20.576-6.4.24-.224-.209-1.183-.336-1.8l-.361.206c4.387,3.1,7,1.808,8.372-4.146l-.376.15c5.97,2.983,9.687,1.745,12.367-4.117l-.285.189c4.295,1.441,4.834-.884,4.3-4.285Z"/><path class="a" d="M399.6,197.82l.015,8.384c-1.716.669-3.081,2.262-5.358.916-10.246-6.058-20.687-4.744-29.951,1.432-5.339,3.558-10.193,4.371-16.216,4-7.02-.434-8.372-1.581-6.218-7.282,4.021-10.639,11.835-17.279,22.1-21.316,9.343-3.674,17.956-1.716,25.952,2.991.1,5.258-2.993,3.978-5.217,3.791-4.714-.4-9.354-.846-12.255,4.095-4.836,1.061-11.34-2.474-14.343,6.042l13.993-6.28c7.612-1.369,14.973-1.47,21.889,2.978C395.348,198.444,397.7,197.777,399.6,197.82Z"/><path class="a" d="M263.633,389.835c-10.9-1.18-20.249,3.765-29.935,7.461a44.547,44.547,0,0,1-7.425,1.82c-.413.08-1.192-.59-1.435-1.091-.263-.544-.394-1.606-.075-1.911,4.368-4.182,9.97-6.18,15.488-8.112q25.2-8.824,50.548-17.231A149.544,149.544,0,0,0,331,350.868c5.551,4.114-5.488,7.646.4,11.353l.2-.362c-1.513-.182-2.729-1.745-4.613-.048-2.162,1.948.166,2.923.312,4.333l.285-.19c-4.124-2.807-9.159-1.13-12.367,4.118l.376-.15c-4.317-2.253-6.323-1.259-8.372,4.146l.361-.206a27.841,27.841,0,0,0-18.925,2.207c-2.669,1.246-3.657,3.387-1.315,6l.2-.1c-4.52-4.2-8.861-2.752-12.33,4.118l.415-.159c-5.1-2.107-9.18-.755-12.389,4.107Z"/><path class="a" d="M233.8,311.682c-1.457,6.529-5.115,8.159-8.716,9.883-24.118,11.542-49.805,17.708-75.99,22.153-2.03.344-3.993-.032-4.217-2.584-.244-2.762,2.167-2.769,3.9-3.161,7.748-1.747,15.493-3.53,23.291-5.032A203.624,203.624,0,0,0,226.3,314.269C227.99,313.407,229.914,313,233.8,311.682Z"/><path class="a" d="M269.523,325.28c-.992,5.66-5.792,6.876-10.073,7.726-5.465,1.085-9.56,3.775-13.568,7.42-8.844,8.043-19.6,13.169-30.158,18.484a20.264,20.264,0,0,1-7.463,1.624c-2.931.222-5.945-5.131-4.1-7.372,2.031-2.469,4.248-5.383,7.033-6.537,18.131-7.51,36.428-14.62,54.715-21.749C266.891,324.493,268.267,325.117,269.523,325.28Z"/><path class="a" d="M121.919,252.961c1.045-3.887,4.629-4.542,7.633-5.387,10.218-2.876,20.4-6.641,30.847-7.769,16.925-1.828,32.153-7.542,46.705-15.805,1.81-1.028,3.724-1.166,4.707.755.347.678-.747,2.636-1.686,3.34a58.839,58.839,0,0,1-21.217,10.5c-19.874,4.947-39.653,10.275-59.486,15.386A8.61,8.61,0,0,1,121.919,252.961Z"/><path class="a" d="M387.875,149.594c-17.537-3.309-31.785-4.194-45.1,3.994a3.781,3.781,0,0,1-3.543-.5c-2.155-2.122.406-3.389,1.546-4.305,6.458-5.193,13.943-7.16,22.222-7.045,3.691.051,8.429,1.653,10.764-2.64,2.752-5.061,4.96-2.668,7.119.021C382.9,141.634,384.5,144.487,387.875,149.594Z"/><path class="a" d="M347.547,309.9c-.166-5.19-6.54-6.546-7.084-11.437a9.99,9.99,0,0,1,.607-3.785c.519-1.741,1.5-1.7,3.133-.856,16.143,8.364,22.4,22.88,16.9,39.8-.587,1.806-1.9,3.375-3.125,5.467-4.619-6.562-1.445-12-2.7-17-1.282-5.1-2-10.529-8.061-12.543Z"/><path class="a" d="M313.431,161.027c-.573-1-1.748-2.085-1.617-2.981a53.164,53.164,0,0,1,8.521-21.665c2.284-3.462,8.116-5.11,10.017-2.974,2.71,3.044,1.37,6.272-.508,8.948-4.123,5.875-8.525,11.56-12.981,17.189C316.182,160.4,314.6,160.551,313.431,161.027Z"/><path class="a" d="M347.214,309.552c-2.27,6.693,2.016,12.362,2.879,18.563.489,3.513-.408,6.434-4.459,7.911-1.669-6-3.4-11.92-4.95-17.887-1.129-4.334-1-4.391,6.868-8.231C347.547,309.9,347.214,309.552,347.214,309.552Z"/><path class="a" d="M367.562,126.259c-.552,1.115-.893,3.007-1.689,3.223-7,1.9-13.93.937-25.217-.342,11.713-5.719,19.334-5.628,27.187-2.5Z"/><path class="a" d="M403.582,198.189a2.971,2.971,0,0,1-4.3,0,31.728,31.728,0,0,1-1.742-3.371,28.827,28.827,0,0,1-.892-3.552c1.771.068,4-.508,5.211.347C403.9,193.051,405.049,195.463,403.582,198.189Z"/><path class="b" d="M374.831,374.585c-1.178-1.466-2.452-2.866-3.5-4.417-.978-1.439-.617-2.715.57-2.523,1.01.162,2.521,1.06,2.681,1.859.35,1.744-.018,3.632-.093,5.461Z"/><path class="b" d="M374.484,374.965l2.977.593c-.329.034-.724.2-.972.075-.576-.292-1.081-.724-1.637-1.074C374.831,374.585,374.484,374.965,374.484,374.965Z"/><path class="b" d="M287.352,382.064c-2.342-2.608-1.354-4.749,1.315-6a27.841,27.841,0,0,1,18.925-2.207c.127.617.576,1.576.336,1.8C302.116,381.1,295.852,385.221,287.352,382.064Z"/><path class="b" d="M315.227,370.072c3.208-5.248,8.243-6.925,12.367-4.118C324.914,371.817,321.2,373.055,315.227,370.072Z"/><path class="b" d="M275.225,386.086c3.469-6.87,7.81-8.32,12.33-4.118C285.109,387.15,281.182,388.462,275.225,386.086Z"/><path class="b" d="M263.251,390.034c3.209-4.862,7.287-6.214,12.389-4.107C271.574,392.71,267.668,394,263.251,390.034Z"/><path class="b" d="M307.231,374.068c2.049-5.4,4.055-6.4,8.372-4.146C314.235,375.876,311.618,377.172,307.231,374.068Z"/><path class="b" d="M327.309,366.144c-.146-1.41-2.474-2.385-.312-4.333,1.884-1.7,3.1-.134,4.613.048C332.143,365.26,331.6,367.585,327.309,366.144Z"/><path class="b" d="M372.1,194.591l-13.993,6.28c3-8.516,9.507-4.981,14.343-6.042Z"/></svg>