<svg xmlns="http://www.w3.org/2000/svg" viewBox="0 0 543.348 543.348"><defs><style>.a{fill:#dfcf06;}.b{fill:#fcfcfb;}</style></defs><path class="a" d="M274.691,35.337q107.964,0,215.929-.021c18.294-.014,17.763-.143,17.761,17.326q-.027,218.87-.018,437.739c0,3.329-.063,6.66-.206,9.986-.161,3.79-2.079,6.254-5.958,6.5-4.646.3-9.315.341-13.974.341q-215.928.024-431.858,0c-4.662,0-9.326-.068-13.985-.245-3.774-.143-6.243-2.053-6.431-5.976-.256-5.317-.335-10.647-.336-15.972q-.024-213.873-.006-427.746c0-23.948-1.488-21.911,21.154-21.924Q165.728,35.289,274.691,35.337ZM168.708,110.89c2.85,2.411.636,6.043,2.117,8.783.97,1.8,2.515,3.341,4.407,2.128a6.4,6.4,0,0,0,2.438-4.446c.421-6.965-6.411-3.688-9.209-6.224-1.8-6.265,2.175-9.881,6.31-13.241,2.726-2.215,6.126-2.956,9.249-1.111a5.8,5.8,0,0,1,2.54,6.889c-1.83,6.836-1.3,13.28,3.839,18.59,5.091,5.262,11.4,6.388,18.349,4.582.63,2.123,2.344,2.519,4.241,2.844,1.59.272,3.068-.339,2.577-1.4-1.1-2.388.856.652-1.725-.014-1.772-.457-3.583-.761-5.376-1.133-.716-3.033-5.386-4.192-3.919-8.26,3.973-2.958,7.693-.014,11.3.83a120.135,120.135,0,0,0,27.684,3.221c22.622-.025,45.244.094,67.865,0,11.394-.047,19.77-5.579,23.573-15.105,2.387-5.978.972-9.6-5.012-12.944-3.65-2.039-9.653-1.3-9.437-7.938,2.559-.367,5.131-.663,7.675-1.115,7.983-1.421,9.863-5.808,5.909-12.361-5.9-9.786-15.586-11.534-25.6-12.472-1.332-.125-3.214,2.015-4.28,3.507a51.563,51.563,0,0,0-3.533,6.731c-9.974-9.72-17.152-14-28.394-14.645-12.84-.738-25.425.1-31.151,14.94-.615,1.594-2.725,2.611-4.141,3.9q-.915-1.1-1.766-2.255c.429-1.923,1.018-3.826,1.257-5.772.537-4.386-.545-7.78-5.735-8.267-11.52-1.084-20.455,3.473-26.914,12.8-3.463,5-1.879,10.2,3.616,13.134,2.761,1.474,6.672.37,9.083,4.64-14.065,2.426-17.164,11.606-14.535,24.072.086.408-.76,1.012-1.171,1.523-3.853-.878-5.387-3.977-5.7-7.255a105.883,105.883,0,0,1,.055-13.819c.242-6.6.355-13.144-3.343-18.881-1.821.226-3.357-.01-4.376.607-19.665,11.908-35.873,27.284-47.018,47.6-.489.892.273,2.47.451,3.726a3.823,3.823,0,0,0-1.611-.039c-.3.134-.34.837-.5,1.285l1.792-1.623C152.636,126.25,160.22,117.78,168.708,110.89Zm203.943,4.037c2.661-2.545,4.663-.863,6.075,1.308,5.257,8.08,12.938,12.383,22.015,14.66.657,1.955,1.18,2.239,1.4.826a10.688,10.688,0,0,0-1.676-.522c1.277-3.43.219-6.459-1.6-9.364C388.512,105.316,374.952,91.86,359,80.848c-3.635-2.508-7.562-5.576-12.909-4.269-2.374,5.4-2.678,10.977-2.488,17,.8,25.352-8.576,35.27-33.217,36.309-19.563.825-39.122,1.758-58.682,2.643,11.3,1.388,22.527,2.108,33.768,2.452,15.874.485,31.627-.471,47.155-4.258,16.415-4,19.424-8.126,18.382-26.424-.037-.652-.225-1.3-.238-1.948-.087-4.5,4.086-7.041,8.155-4.974,6.63,3.367,12.465,7.638,15.564,14.674.3.683-1.017,2.079-1.586,3.142a50.9,50.9,0,0,0-5.7-.011c-2.689.281-5.254,1.155-5.133,4.489a3.858,3.858,0,0,0,2.127,2.736c2.63,1,5.289.451,6.816-2.015C371.977,118.83,372.132,116.766,372.651,114.927ZM184.2,206.981c10.461-2.616,20.834,3.69,31.978,5.043a43.957,43.957,0,0,1,23.478,10.183c6.715,5.683,14.776,8.885,22.3,13.048,6.272,3.469,12.427,3.662,18.355-1.64,13.713-12.263,30.225-18.417,48.011-22.475,24.09-5.5,47.32-6.095,69.737,6.2,6.406,3.514,9.579,1.655,11.236-5.543,4.51-19.594.156-37.927-6.523-56.469-6.81-18.9-25.319-29.877-46.319-22.759a190.347,190.347,0,0,1-90.334,8.148,72.333,72.333,0,0,0-7.957-.228c-11.955-.433-23.914-.77-35.861-1.36a126.847,126.847,0,0,1-42.7-9.143c-13.268-5.492-25.577-2.543-34.437,8.035-17.141,20.467-20.97,43.962-11.853,69.225,2.258,6.259,5.9,8.02,12.471,6.232C157.982,210.159,170.076,206.448,184.2,206.981Zm-62.152,8.384c-.254,20.229-.423,38.757-.734,57.284-.579,34.568.591,69,6.728,103.146,5.4,30.021,19.019,55.18,43.468,73.764,33.208,25.241,71.364,34.35,112.48,33.736a117.853,117.853,0,0,0,42.873-8.239c17.27-6.991,34.645-14.14,46.65-29.534,19.482-24.979,34.043-52.273,39.43-83.9,5.943-34.881,5.522-70.083,4.98-105.245-.14-9.132,2.111-18.577-1.639-27.532-13.548,1.6-13.749,1.908-25.617-5.873-9.31-6.1-19.2-8.287-30.2-8.388-26.849-.247-51.266,7.168-72.669,23.083-11.129,8.275-21.492,9.169-32.99,1.977-4.5-2.818-9.36-5.126-13.65-8.227-15.611-11.283-33.437-15.626-52.2-16.547-13.306-.653-26.58-.655-38.894,6.355-7.764,4.419-15.371,3.091-21.694-3.742C127.639,216.692,126.073,216.667,122.05,215.365Z"/><path class="b" d="M184.2,206.981c-14.126-.533-26.22,3.178-38.412,6.5-6.569,1.788-10.213.027-12.471-6.232-9.117-25.263-5.288-48.758,11.853-69.225,8.86-10.578,21.169-13.527,34.437-8.035a126.847,126.847,0,0,0,42.7,9.143c11.947.59,23.906.927,35.861,1.36a72.333,72.333,0,0,1,7.957.228,190.347,190.347,0,0,0,90.334-8.148c21-7.118,39.509,3.854,46.319,22.759,6.679,18.542,11.033,36.875,6.523,56.469-1.657,7.2-4.83,9.057-11.236,5.543-22.417-12.3-45.647-11.7-69.737-6.2-17.786,4.058-34.3,10.212-48.011,22.475-5.928,5.3-12.083,5.109-18.355,1.64-7.527-4.163-15.588-7.365-22.3-13.048a43.957,43.957,0,0,0-23.478-10.183C205.036,210.671,194.663,204.365,184.2,206.981Z"/><path class="b" d="M122.05,215.365c4.023,1.3,5.589,1.327,6.325,2.122,6.323,6.833,13.93,8.161,21.694,3.742,12.314-7.01,25.588-7.008,38.894-6.355,18.759.921,36.585,5.264,52.2,16.547,4.29,3.1,9.146,5.409,13.65,8.227,11.5,7.192,21.861,6.3,32.99-1.977,21.4-15.915,45.82-23.33,72.669-23.083,11,.1,20.891,2.283,30.2,8.388,11.868,7.781,12.069,7.474,25.617,5.873,3.75,8.955,1.5,18.4,1.639,27.532.542,35.162.963,70.364-4.98,105.245-5.387,31.623-19.948,58.917-39.43,83.9-12,15.394-29.38,22.543-46.65,29.534a117.853,117.853,0,0,1-42.873,8.239c-41.116.614-79.272-8.5-112.48-33.736-24.449-18.584-38.072-43.743-43.468-73.764-6.137-34.147-7.307-68.578-6.728-103.146C121.627,254.122,121.8,235.594,122.05,215.365ZM286.4,265.152c-2.69,3.027-4.9,6.29-5.032,10.532-.626,20.571-1.695,41.14-1.761,61.713-.114,35.127,4.1,70.3-1.98,105.352-1.519,8.763,4.614,15.437,13.5,16.246a27.32,27.32,0,0,0,7.944-.152c35.135-7.359,64.939-23.017,83.716-55.1,6.758-11.55,10.411-24.294,13.019-37.438,6.791-34.22,5.79-68.739,4.451-103.272-.176-4.545-1.836-9.023-2.7-13.551-2-10.456-9-15.889-18.7-18.424-14.3-3.739-28.579-6.078-42.988-.015-5.446,2.292-11.445,3.263-16.912,5.516-11.051,4.554-21.943,9.532-27.279,21.45C288.463,259.316,287.6,262.359,286.4,265.152Zm-35.726-.446-3.687-3.863c.03-7.393-6.031-10.153-10.965-12.911-8.664-4.843-17.928-8.611-26.937-12.836-12.382-5.807-25.467-7.3-38.926-6.147-21.89,1.877-32.615,12.909-33.043,34.637-.38,19.284-.063,38.58-.232,57.87-.258,29.235,6.7,56.5,21.592,81.741,16.691,28.292,40.219,47.328,72.8,54.221,5.913,1.251,11.837,1.822,17.619-.847,3.864-1.783,6.7-4.381,7.1-8.8.306-3.3.245-6.637.352-9.957,1.749-54.418-1.666-108.9,2.077-163.3C258.811,268.954,255.874,265.908,250.67,264.706Z"/><path class="b" d="M237,75.42c1.416-1.285,3.526-2.3,4.141-3.9,5.726-14.836,18.311-15.678,31.151-14.94,11.242.647,18.42,4.925,28.394,14.645l-.183-.31c-.109,3.028.339,5.486,4.374,4.285l-.321-.37c.377,8.006.558,8.188,8.287,8.356l-.354-.25c1.813,5.2,3.468,6.035,8.354,4.2l-.332-.2c-.217,6.638,5.786,5.9,9.436,7.937,5.984,3.343,7.4,6.966,5.012,12.944-3.8,9.526-12.179,15.058-23.573,15.105-22.621.095-45.243-.024-67.865,0a120.135,120.135,0,0,1-27.684-3.221c-3.6-.844-7.322-3.788-11.3-.83l.252.317c1.237-5.444,1.178-5.5-4.263-4.261l.305.366c.411-.512,1.257-1.116,1.171-1.524-2.629-12.466.47-21.646,14.535-24.072-2.411-4.27-6.322-3.166-9.083-4.64-5.495-2.935-7.079-8.131-3.616-13.134,6.459-9.329,15.394-13.886,26.914-12.8,5.19.487,6.272,3.881,5.735,8.267-.239,1.946-.828,3.849-1.246,5.784-3.046,2.165-6.14,4.267-9.145,6.489-1.393,1.03-1.409,2.3-.049,2.882a5.315,5.315,0,0,0,3.368.424C233.187,81.783,236.068,79.53,237,75.42Z"/><path class="b" d="M400.738,130.9c-9.074-2.278-16.755-6.581-22.012-14.661-1.412-2.171-3.414-3.853-6.075-1.308l.252.267c.566-1.064,1.884-2.46,1.583-3.143-3.1-7.036-8.934-11.307-15.564-14.674-4.069-2.067-8.242.477-8.155,4.974.013.651.2,1.3.238,1.948,1.042,18.3-1.967,22.421-18.382,26.424-15.528,3.787-31.281,4.743-47.155,4.258-11.241-.344-22.471-1.064-33.768-2.452,19.56-.885,39.119-1.818,58.682-2.643,24.641-1.039,34.018-10.957,33.217-36.309-.19-6.021.114-11.6,2.488-17,5.347-1.307,9.274,1.761,12.909,4.269,15.956,11.012,29.516,24.468,39.864,40.987,1.819,2.905,2.877,5.934,1.6,9.364Z"/><path class="b" d="M208.746,126.838c-6.95,1.808-13.256.682-18.347-4.58-5.138-5.31-5.669-11.754-3.839-18.59a5.8,5.8,0,0,0-2.54-6.889c-3.123-1.845-6.523-1.1-9.249,1.111-4.135,3.36-8.11,6.976-6.31,13.241l.243-.241c-8.484,6.89-16.068,15.36-28.11,16l.317.38c-.179-1.259-.941-2.837-.452-3.729,11.145-20.311,27.353-35.687,47.018-47.595,1.019-.617,2.555-.381,4.376-.607,3.7,5.737,3.585,12.278,3.343,18.881a105.883,105.883,0,0,0-.055,13.819c.311,3.278,1.845,6.377,5.7,7.255l-.305-.365q-.8,5.066,4.263,4.261l-.252-.317c-1.466,4.068,3.2,5.227,3.92,8.26Z"/><path class="b" d="M300.69,71.229a51.563,51.563,0,0,1,3.533-6.731c1.066-1.492,2.948-3.632,4.28-3.507,10.009.938,19.691,2.686,25.6,12.472,3.954,6.553,2.074,10.94-5.909,12.361-2.544.452-5.116.748-7.674,1.115l.332.2c-.845-5.255-4.3-5.321-8.354-4.2l.354.25c-.152-5.372-4.907-6.183-8.287-8.356l.321.37c-.536-2.369-.386-5.438-4.374-4.285Z"/><path class="b" d="M168.461,111.131c2.8,2.536,9.63-.741,9.209,6.224a6.4,6.4,0,0,1-2.438,4.446c-1.892,1.213-3.437-.333-4.407-2.128-1.481-2.74.733-6.372-2.119-8.783Z"/><path class="b" d="M372.651,114.927c-.519,1.839-.674,3.9-1.641,5.465-1.527,2.466-4.186,3.017-6.816,2.015a3.858,3.858,0,0,1-2.127-2.736c-.121-3.334,2.444-4.208,5.133-4.489a50.677,50.677,0,0,1,5.7.012Z"/><path class="b" d="M208.465,127.136c1.793.372,3.6.676,5.376,1.133,2.581.666.621-2.374,1.725.014.491,1.062-.987,1.673-2.577,1.4-1.9-.325-3.611-.721-4.242-2.845Z"/><path class="b" d="M140.594,126.893l-1.792,1.623c.157-.448.2-1.151.5-1.285a3.8,3.8,0,0,1,1.612.041Z"/><path class="b" d="M400.46,131.2a10.688,10.688,0,0,1,1.676.522c-.215,1.413-.738,1.129-1.4-.825Z"/><path class="a" d="M250.67,264.706c5.2,1.2,8.141,4.248,7.758,9.811-3.743,54.394-.328,108.878-2.077,163.3-.107,3.32-.046,6.656-.352,9.957-.408,4.42-3.24,7.018-7.1,8.8-5.782,2.669-11.706,2.1-17.619.847-32.585-6.893-56.113-25.929-72.8-54.221-14.89-25.24-21.85-52.506-21.592-81.741.169-19.29-.148-38.586.232-57.87.428-21.728,11.153-32.76,33.043-34.637,13.459-1.155,26.544.34,38.926,6.147,9.009,4.225,18.273,7.993,26.937,12.836,4.934,2.758,11,5.518,10.969,12.916-9.988,1.448-10.108,1.445-10.225,8.053-.34,19.26-.678,38.519-.827,57.781-.2,25.881.963,51.764-1.1,77.645-.682,8.54.466,17.251,1.087,25.861a31.117,31.117,0,0,0,2.216,9.605c.624,1.5,2.794,2.848,4.506,3.258,2.019.484,3.4-1.237,3.867-3.245a19.743,19.743,0,0,0,.465-3.949c.667-25.9,1.384-51.789,1.935-77.686C249.572,327.018,250.09,295.861,250.67,264.706ZM207.134,436.493c1.038,1.244,2.342,2.845,3.862,1.332,1.44-1.433.269-2.938-1.228-3.93.017-19.832,1.085-39.63,1.811-59.424,1.186-32.318.041-64.754,1.348-97.13.294-7.285.56-14.58.5-21.868a16.813,16.813,0,0,0-1.794-7.488c-.827-1.562-3.023-3.22-4.666-3.282-1.438-.054-3.861,1.805-4.266,3.26a47.46,47.46,0,0,0-1.675,11.648c-.538,25.766-.869,51.536-1.348,77.3-.1,5.29.177,10.737-.981,15.824-2.107,9.258-1.557,18.526-.869,27.711.792,10.561,2.184,21.034,2.2,31.7C200.049,420.713,201.6,429.312,207.134,436.493Zm21.845,7.393c0-18.574.072-33.866-.02-49.158-.1-16.557,3.309-33.1,1.507-49.568-1.826-16.686-.671-33.18.332-49.74.6-9.946,1.928-19.846,2.609-29.789a25.151,25.151,0,0,0-1.04-9.758c-1.181-3.394-4.558-4.858-8.092-4.448-3.835.444-6.247,3.524-5.517,6.895,2.318,10.7-.069,20.854-1.342,31.392-1.666,13.785-.543,27.908-.612,41.885-.141,28.629-.174,57.258-.472,85.886C216.231,427.146,218.237,435.568,228.979,443.886Zm-36.307-17.855c0-20.13-.544-37.94.112-55.706,1.37-37.083-1.077-74.271,3.115-111.27.678-5.981,1.059-12.04-2.394-17.355-.9-1.383-3.05-2.191-4.791-2.732a3.549,3.549,0,0,0-4.44,2.885c-1.162,8.466-4.034,16.49-3.792,25.4.668,24.532.088,49.1.023,73.651q-.081,29.847-.1,59.695C180.41,410.227,184.049,418.088,192.672,426.031Zm-20.49-20.347c1.172-10.01,2.857-17.3,1.909-25.533a156.429,156.429,0,0,1,.274-33.6c3.391-33.062.322-66.2,1.862-99.269a11.29,11.29,0,0,0-1-5.738c-.843-1.527-2.7-3.269-4.253-3.409a5.6,5.6,0,0,0-4.553,2.69,29.082,29.082,0,0,0-1.986,9.563c-.461,11.922-.666,23.856-.868,35.787-.245,14.465.839,29.081-.892,43.36-2.1,17.315-.986,34.429.151,51.563C163.338,388.828,164.674,396.978,172.182,405.684ZM155.62,368.578c.679-40.459,1.331-78.846,1.935-117.234a22.219,22.219,0,0,0-.69-3.867c-.275-1.64-1.153-2.52-2.612-2.235-1.2.234-2.768.445-3.434,1.266-4.869,6-5.558,13.362-5.677,20.614-.314,19.2-.276,38.4-.313,57.6-.026,13.324,3.53,26.17,5.522,39.221C150.494,364.883,152.143,365.592,155.62,368.578Z"/><path class="a" d="M291.661,257.992c5.348-11.905,16.24-16.883,27.291-21.437,5.467-2.253,11.466-3.224,16.912-5.516,14.409-6.063,28.687-3.724,42.988.015,9.7,2.535,16.7,7.968,18.7,18.424.867,4.528,2.527,9.006,2.7,13.551,1.339,34.533,2.34,69.052-4.451,103.272-2.608,13.144-6.261,25.888-13.019,37.438-18.777,32.087-48.581,47.745-83.716,55.1a27.32,27.32,0,0,1-7.944.152c-8.884-.809-15.017-7.483-13.5-16.246,6.076-35.055,1.866-70.225,1.98-105.352.066-20.573,1.135-41.142,1.761-61.713.129-4.242,2.342-7.505,5.032-10.532q1.512,1.265,3.067,2.474c-.584,8.613-1.674,17.226-1.665,25.837.044,45.816.354,91.631.6,137.446.026,4.638.225,9.276.413,13.911.069,1.7,1.03,2.6,2.472,2.239,1.2-.3,2.759-.676,3.366-1.562,4.68-6.822,6.105-14.673,6.267-22.717.361-17.919.64-35.844.637-53.767,0-34.54-.239-69.081-.354-103.622-.019-5.7-3.976-5.906-8.1-5.964Q292.379,258.715,291.661,257.992Zm34.76,178.432c1.934-1.108,4.512-1.683,5.062-3.064,1.949-4.893,4.058-9.977,4.569-15.14,1.895-19.119,4.762-38.334,4.345-57.449-.783-35.827.405-71.61.347-107.411a72.14,72.14,0,0,0-.388-9.906c-.262-1.868-1.524-3.8-3.869-3.693-1.879.087-4.055.246-5.531,1.228-3.606,2.4-4.588,6.695-4.867,10.47-.83,11.228-1.4,22.514-1.267,33.768.594,48.309,2.542,96.607.74,144.929C325.491,432.075,326.074,434.018,326.421,436.424Zm-6.1-98.447q0-39.768-.027-79.537a65.047,65.047,0,0,0-.633-7.9c-.259-2.08-4.734-3.391-6.431-1.921-5.964,5.163-7.728,11.98-7.536,19.511.606,23.771,1.894,47.545,1.709,71.309-.247,31.776,2.525,63.65-2.3,95.324a51.156,51.156,0,0,0-.247,5.962,6.511,6.511,0,0,0,.007,1.982c.528,1.789.718,4.073,3.452,3.733a6.732,6.732,0,0,0,3.6-1.166c6.324-5.886,7.3-13.69,7.9-21.786C321.9,394.99,320.1,366.48,320.324,337.977Zm22.12,90.238c8.095-5.2,8.119-5.2,9.528-8.951,4.515-12.033,4.8-24.57,4.968-37.241.547-40.416-1.135-80.869,2.229-121.253.592-7.114-1.148-14.437-1.972-21.646-.257-2.25-4.292-3.135-6.508-1.7-2.945,1.9-4.954,4.3-4.993,7.993-.263,24.527-.829,49.054-.731,73.58.113,28.54,1.124,57.066-.659,85.612C343.815,412.463,340.092,420.1,342.444,428.215ZM364.269,323.4c-.147,2.232-.431,4.884-.479,7.54-.452,24.554-.888,49.109-1.181,73.666-.011.852,1.4,2.216,2.358,2.447a3.918,3.918,0,0,0,3.274-1.085c4.615-5.517,4.342-12.369,4.747-18.976,1.425-23.207-.679-46.534,2.48-69.7.523-3.841-.609-7.893-.839-11.855-.191-3.289-.82-6.728-.151-9.865,3.243-15.208.17-30.565,1.343-45.818.235-3.065-1.392-6.369-2.584-9.395a4.056,4.056,0,0,0-3.247-1.945c-1.838.121-4.155.506-4.557,2.952a62.465,62.465,0,0,0-1.114,9.779C364.226,275.083,364.269,299.028,364.269,323.4Zm18.423,52.936c1.555-4.831,2.188-7.235,3.092-9.532,3.481-8.844,2.752-18.331,4.258-27.477,4.458-27.075,2.156-54.305,1.287-81.488a12.678,12.678,0,0,0-3.69-8.941c-.47-.459-1.185-1.237-1.557-1.122-1.19.369-3.014.872-3.258,1.711A30.692,30.692,0,0,0,381.7,257.3c-.44,19.242-1.4,38.5-.968,57.726C381.163,334.51,378.53,354.108,382.692,376.332Z"/><path class="a" d="M286.4,265.152c1.2-2.793,2.067-5.836,5.271-7.154.472.476.954.954,1.438,1.428.088,3.31-.215,6.449-3.642,8.2Q287.907,266.417,286.4,265.152Z"/><path class="a" d="M237,75.42c-.936,4.11-3.817,6.363-7.581,7.552a5.315,5.315,0,0,1-3.368-.424c-1.36-.586-1.344-1.852.049-2.882,3-2.222,6.1-4.324,9.145-6.489C235.805,73.933,236.394,74.684,237,75.42Z"/><path class="a" d="M304.56,74.834c3.38,2.173,8.135,2.984,8.287,8.356C305.118,83.022,304.937,82.84,304.56,74.834Z"/><path class="a" d="M312.493,82.94c4.052-1.121,7.509-1.055,8.354,4.2C315.961,88.975,314.306,88.143,312.493,82.94Z"/><path class="a" d="M300.507,70.919c3.988-1.153,3.838,1.916,4.374,4.285C300.846,76.405,300.4,73.947,300.507,70.919Z"/><path class="a" d="M204.8,119.193q-5.068.806-4.263-4.261C205.975,113.69,206.034,113.749,204.8,119.193Z"/><path class="b" d="M228.979,443.886c-10.742-8.318-12.748-16.74-12.647-26.4.3-28.628.331-57.257.472-85.886.069-13.977-1.054-28.1.612-41.885,1.273-10.538,3.66-20.695,1.342-31.392-.73-3.371,1.682-6.451,5.517-6.895,3.534-.41,6.911,1.054,8.092,4.448a25.151,25.151,0,0,1,1.04,9.758c-.681,9.943-2.006,19.843-2.609,29.789-1,16.56-2.158,33.054-.332,49.74,1.8,16.466-1.605,33.011-1.507,49.568C229.051,410.02,228.979,425.312,228.979,443.886Z"/><path class="b" d="M192.672,426.031c-8.623-7.943-12.262-15.8-12.267-25.429q-.016-29.847.1-59.695c.065-24.553.645-49.119-.023-73.651-.242-8.913,2.63-16.937,3.792-25.4a3.549,3.549,0,0,1,4.44-2.885c1.741.541,3.892,1.349,4.791,2.732,3.453,5.315,3.072,11.374,2.394,17.355-4.192,37-1.745,74.187-3.115,111.27C192.128,388.091,192.672,405.9,192.672,426.031Z"/><path class="b" d="M207.119,436.51c-5.518-7.2-7.07-15.8-7.086-24.365-.021-10.662-1.413-21.135-2.2-31.7-.688-9.185-1.238-18.453.869-27.711,1.158-5.087.882-10.534.981-15.824.479-25.767.81-51.537,1.348-77.3a47.46,47.46,0,0,1,1.675-11.648c.405-1.455,2.828-3.314,4.266-3.26,1.643.062,3.839,1.72,4.666,3.282a16.813,16.813,0,0,1,1.794,7.488c.06,7.288-.206,14.583-.5,21.868-1.307,32.376-.162,64.812-1.348,97.13-.726,19.794-1.794,39.592-1.811,59.424Q208.436,435.194,207.119,436.51Z"/><path class="b" d="M250.67,264.706c-.58,31.155-1.1,62.312-1.761,93.465-.551,25.9-1.268,51.791-1.935,77.686a19.743,19.743,0,0,1-.465,3.949c-.468,2.008-1.848,3.729-3.867,3.245-1.712-.41-3.882-1.762-4.506-3.258a31.117,31.117,0,0,1-2.216-9.605c-.621-8.61-1.769-17.321-1.087-25.861,2.065-25.881.9-51.764,1.1-77.645.149-19.262.487-38.521.827-57.781.117-6.608.237-6.605,10.225-8.053Z"/><path class="b" d="M172.182,405.684c-7.508-8.706-8.844-16.856-9.357-24.59-1.137-17.134-2.25-34.248-.151-51.563,1.731-14.279.647-28.895.892-43.36.2-11.931.407-23.865.868-35.787a29.082,29.082,0,0,1,1.986-9.563,5.6,5.6,0,0,1,4.553-2.69c1.55.14,3.41,1.882,4.253,3.409a11.29,11.29,0,0,1,1,5.738c-1.54,33.068,1.529,66.207-1.862,99.269a156.429,156.429,0,0,0-.274,33.6C175.039,388.381,173.354,395.674,172.182,405.684Z"/><path class="b" d="M155.62,368.578c-3.477-2.986-5.126-3.695-5.269-4.633-1.992-13.051-5.548-25.9-5.522-39.221.037-19.2,0-38.4.313-57.6.119-7.252.808-14.611,5.677-20.614.666-.821,2.234-1.032,3.434-1.266,1.459-.285,2.337.595,2.612,2.235a22.219,22.219,0,0,1,.69,3.867C156.951,289.732,156.3,328.119,155.62,368.578Z"/><path class="b" d="M209.768,433.9c1.5.992,2.668,2.5,1.228,3.93-1.52,1.513-2.824-.088-3.87-1.323C208,435.633,208.88,434.761,209.768,433.9Z"/><path class="b" d="M326.421,436.424c-.347-2.406-.93-4.349-.859-6.268,1.8-48.322-.146-96.62-.74-144.929-.138-11.254.437-22.54,1.267-33.768.279-3.775,1.261-8.072,4.867-10.47,1.476-.982,3.652-1.141,5.531-1.228,2.345-.11,3.607,1.825,3.869,3.693a72.14,72.14,0,0,1,.388,9.906c.058,35.8-1.13,71.584-.347,107.411.417,19.115-2.45,38.33-4.345,57.449-.511,5.163-2.62,10.247-4.569,15.14C330.933,434.741,328.355,435.316,326.421,436.424Z"/><path class="b" d="M320.324,337.977c-.224,28.5,1.572,57.013-.51,85.512-.592,8.1-1.571,15.9-7.9,21.786a6.732,6.732,0,0,1-3.6,1.166c-2.734.34-2.924-1.944-3.452-3.733a6.511,6.511,0,0,1-.007-1.982,51.156,51.156,0,0,1,.247-5.962c4.823-31.674,2.051-63.548,2.3-95.324.185-23.764-1.1-47.538-1.709-71.309-.192-7.531,1.572-14.348,7.536-19.511,1.7-1.47,6.172-.159,6.431,1.921a65.047,65.047,0,0,1,.633,7.9Q320.364,298.209,320.324,337.977Z"/><path class="b" d="M342.444,428.215c-2.352-8.117,1.371-15.752,1.862-23.61,1.783-28.546.772-57.072.659-85.612-.1-24.526.468-49.053.731-73.58.039-3.7,2.048-6.091,4.993-7.993,2.216-1.431,6.251-.546,6.508,1.7.824,7.209,2.564,14.532,1.972,21.646-3.364,40.384-1.682,80.837-2.229,121.253-.171,12.671-.453,25.208-4.968,37.241C350.563,423.019,350.539,423.01,342.444,428.215Z"/><path class="b" d="M289.463,267.626c3.427-1.751,3.73-4.89,3.642-8.2,4.121.059,8.078.265,8.1,5.965.115,34.541.349,69.082.354,103.622,0,17.923-.276,35.848-.637,53.767-.162,8.044-1.587,15.9-6.267,22.717-.607.886-2.168,1.261-3.366,1.562-1.442.365-2.4-.537-2.472-2.239-.188-4.635-.387-9.273-.413-13.911-.249-45.815-.559-91.63-.6-137.446C287.789,284.852,288.879,276.239,289.463,267.626Z"/><path class="b" d="M364.269,323.4c0-24.368-.043-48.313.05-72.257a62.465,62.465,0,0,1,1.114-9.779c.4-2.446,2.719-2.831,4.557-2.952a4.056,4.056,0,0,1,3.247,1.945c1.192,3.026,2.819,6.33,2.584,9.395-1.173,15.253,1.9,30.61-1.343,45.818-.669,3.137-.04,6.576.151,9.865.23,3.962,1.362,8.014.839,11.855-3.159,23.168-1.055,46.5-2.48,69.7-.4,6.607-.132,13.459-4.747,18.976a3.918,3.918,0,0,1-3.274,1.085c-.962-.231-2.369-1.595-2.358-2.447.293-24.557.729-49.112,1.181-73.666C363.838,328.28,364.122,325.628,364.269,323.4Z"/><path class="b" d="M382.692,376.332c-4.162-22.224-1.529-41.822-1.963-61.306-.429-19.226.528-38.484.968-57.726a30.692,30.692,0,0,1,1.127-7.817c.244-.839,2.068-1.342,3.258-1.711.372-.115,1.087.663,1.557,1.122a12.678,12.678,0,0,1,3.69,8.941c.869,27.183,3.171,54.413-1.287,81.488-1.506,9.146-.777,18.633-4.258,27.477C384.88,369.1,384.247,371.5,382.692,376.332Z"/></svg>