<svg xmlns="http://www.w3.org/2000/svg" viewBox="0 0 543.348 543.348"><defs><style>.a{fill:#df271f;}.b{fill:#fcfcfb;}</style></defs><path class="a" d="M36.971,272q0-105.888.007-211.778,0-7.989.171-15.977c.081-3.894,2.137-6.1,6.047-6.209,5.99-.166,11.984-.22,17.977-.221q143.888-.018,287.775-.009,68.946,0,137.892,0c4.663,0,9.331-.1,13.988.077,7.732.294,8.492,1.171,8.764,9.751.127,3.991.05,7.99.05,11.986q0,213.776-.035,427.553c-.013,25.292,2.806,22.5-22.167,22.512q-213.833.1-427.666.03c-4.663,0-9.331.106-13.987-.075-7-.27-8.407-1.5-8.688-7.885-.234-5.318-.124-10.653-.124-15.981Q36.966,378.885,36.971,272ZM274.6,479.105h29.815c27.276,0,54.553.1,81.829-.049,11.976-.063,23.949-.614,35.924-.954,4.69-.133,7.212-2.356,7.458-7.244.418-8.322-1.24-10.511-9.577-11.634-3.3-.444-6.62-.7-9.939-.939-4.34-.307-7.253-2.107-9.051-6.4-5.239-12.5-7.918-25.327-6.451-38.915,1.142-10.57,2.012-21.171,3.241-31.73.858-7.368,1.276-14.961-1.282-21.749-3.373-8.949-1.865-16.876,1.927-24.876a21.629,21.629,0,0,0,.171-19.277c-5.287-11.246-5.293-23.137-5.1-35.165.268-16.64.49-33.243,6.416-49.139.689-1.848.858-3.883,1.39-5.8,2.717-9.776-5.367-17.917-4.49-26.981s5.888-17.594,3.088-27.26c-4.75-16.4-1.979-32.975-.531-49.474.65-7.416,3.974-14,7.5-20.439,2.148-3.919,5.125-4.929,9.77-4.825,8.8.2,9.925-1.556,9.659-10.3-.2-6.715-1.711-8.632-7.826-8.866-29.912-1.144-59.821-2.723-89.744-3.111-40.575-.527-81.164-.148-121.747-.084q-37.9.058-75.8.365c-5.018.039-6.98,2.507-6.8,7.475.2,5.318,2.293,8.9,8.082,9.231,4.765.274,9.661.906,12.5,5.056,5.6,8.175,11.635,16.169,11.249,27.063-.234,6.613.923,13.264,1.131,19.908.355,11.306.661,22.655-4.741,33.15-1.567,3.045-3.032,6.54-1.468,9.53,4.711,9.007,3.6,17.534.176,26.655-1.248,3.327.357,7.791.885,11.706,2.664,19.756,5.167,39.393,2.639,59.517-1.4,11.155-1.322,22.238-5.3,33.193-3.451,9.5-1.945,19.684,3.291,28.829-3.257,10.169-5.216,20.2-2.468,31.1,4.6,18.253,1.967,36.989,2.175,55.528a10.833,10.833,0,0,1-.254,1.977c-1.409,8.02-5.317,15.139-9.806,21.543-3.342,4.767-10,1.855-15.1,2.8-5.414,1-7.355,4.436-7.106,12.283.188,5.912,2.069,8.034,8.687,8.087q34.923.278,69.848.088C224.123,478.82,249.379,477.732,274.6,479.105Z"/><path class="b" d="M274.6,479.105c-25.22-1.373-50.476-.285-75.726-.122q-34.921.225-69.848-.088c-6.618-.053-8.5-2.175-8.687-8.087-.249-7.847,1.692-11.286,7.106-12.283,5.1-.941,11.758,1.971,15.1-2.8,4.489-6.4,8.4-13.523,9.806-21.543a10.833,10.833,0,0,0,.254-1.977c-.208-18.539,2.426-37.275-2.175-55.528-2.748-10.9-.789-20.931,2.468-31.1-5.236-9.145-6.742-19.334-3.291-28.829,3.98-10.955,3.9-22.038,5.3-33.193,2.528-20.124.025-39.761-2.639-59.517-.528-3.915-2.133-8.379-.885-11.706,3.42-9.121,4.535-17.648-.176-26.655-1.564-2.99-.1-6.485,1.468-9.53,5.4-10.5,5.1-21.844,4.741-33.15-.208-6.644-1.365-13.3-1.131-19.908.386-10.894-5.65-18.888-11.249-27.063-2.842-4.15-7.738-4.782-12.5-5.056-5.789-.332-7.887-3.913-8.082-9.231-.183-4.968,1.779-7.436,6.8-7.475q37.9-.294,75.8-.365c40.583-.064,81.172-.443,121.747.084,29.923.388,59.832,1.967,89.744,3.111,6.115.234,7.622,2.151,7.826,8.866.266,8.739-.859,10.491-9.659,10.3-4.645-.1-7.622.906-9.77,4.825-3.529,6.441-6.853,13.023-7.5,20.439-1.448,16.5-4.219,33.077.531,49.474,2.8,9.666-2.21,18.194-3.088,27.26s7.207,17.2,4.49,26.981c-.532,1.914-.7,3.949-1.39,5.8-5.926,15.9-6.148,32.5-6.416,49.139-.194,12.028-.188,23.919,5.1,35.165a21.629,21.629,0,0,1-.171,19.277c-3.792,8-5.3,15.927-1.927,24.876,2.558,6.788,2.14,14.381,1.282,21.749-1.229,10.559-2.1,21.16-3.241,31.73-1.467,13.588,1.212,26.413,6.451,38.915,1.8,4.291,4.711,6.091,9.051,6.4,3.319.236,6.643.5,9.939.939,8.337,1.123,10,3.312,9.577,11.634-.246,4.888-2.768,7.111-7.458,7.244-11.975.34-23.948.891-35.924.954-27.276.145-54.553.048-81.829.049Zm.673-383.88c-21.966,0-43.932-.071-65.9.025-14.374.063-20.2,4.224-24.548,17.768a62.779,62.779,0,0,0-2.654,13.676c-1.319,15.239-2.734,30.441,1.321,45.636,1.689,6.329,3.936,14.2.032,19.5-6.616,8.985-5.928,16.561-.407,25.215,2.8,4.393.39,9.317-.93,13.553-5.281,16.943-4.515,34.352-3.324,51.485.867,12.475-1.537,25.517,3.583,37.433,2.907,6.766,3.263,12.668-.789,18.828-2.363,3.592-2.756,7.382-.454,11.217,4.509,7.512,3.684,15.131,1.022,23.072a51.039,51.039,0,0,0-2.6,23.539A120.571,120.571,0,0,1,180,420.11c-.67,10.281,2.2,19.553,5.691,28.983,2.468,6.67,6.387,9.3,13.347,9.273,15.314-.066,30.63.524,45.946.573,33.265.106,66.531.053,99.8.02a75.249,75.249,0,0,0,7.973-.554c2.781-.3,5.565-1.515,6.407-4.078,3.078-9.371,9.976-17.413,9.748-27.927-.316-14.6,1.115-29.215-2.435-43.745-2.687-11-3.519-22.407,1.15-33.254,1.8-4.184,1.279-7.5-1.073-11.14-5.514-8.544-5.574-17.369-1.4-26.606a27.49,27.49,0,0,0,2.8-11.508c-.59-23.2,3.765-46.565-2.454-69.617-2.1-7.79-2.732-15.939,2.279-23.111,3.524-5.045,3.039-9.934.59-15.042-3.616-7.542-3.2-14.654-1.024-23,4.732-18.136,4.14-37,1.333-55.435-2.057-13.512-9.442-18.619-23.448-18.687C321.912,95.143,298.592,95.225,275.272,95.225Z"/><path class="a" d="M275.272,95.225c23.32,0,46.64-.082,69.958.031,14.006.068,21.391,5.175,23.448,18.687,2.807,18.435,3.4,37.3-1.333,55.435-2.177,8.345-2.592,15.457,1.024,23,2.449,5.108,2.934,10-.59,15.042-5.011,7.172-4.381,15.321-2.279,23.111,6.219,23.052,1.864,46.413,2.454,69.617a27.49,27.49,0,0,1-2.8,11.508c-4.175,9.237-4.115,18.062,1.4,26.606,2.352,3.645,2.873,6.956,1.073,11.14-4.669,10.847-3.837,22.257-1.15,33.254,3.55,14.53,2.119,29.143,2.435,43.745.228,10.514-6.67,18.556-9.748,27.927-.842,2.563-3.626,3.779-6.407,4.078a75.249,75.249,0,0,1-7.973.554c-33.266.033-66.532.086-99.8-.02-15.316-.049-30.632-.639-45.946-.573-6.96.03-10.879-2.6-13.347-9.273-3.49-9.43-6.361-18.7-5.691-28.983a120.571,120.571,0,0,0-.375-23.936,51.039,51.039,0,0,1,2.6-23.539c2.662-7.941,3.487-15.56-1.022-23.072-2.3-3.835-1.909-7.625.454-11.217,4.052-6.16,3.7-12.062.789-18.828-5.12-11.916-2.716-24.958-3.583-37.433-1.191-17.133-1.957-34.542,3.324-51.485,1.32-4.236,3.732-9.16.93-13.553-5.521-8.654-6.209-16.23.407-25.215,3.9-5.3,1.657-13.173-.032-19.5-4.055-15.2-2.64-30.4-1.321-45.636a62.779,62.779,0,0,1,2.654-13.676c4.348-13.544,10.174-17.7,24.548-17.768C231.34,95.154,253.306,95.225,275.272,95.225ZM236.9,370.321c3.844-8.183,12.128-12.062,17.953-18.355,6.669-7.207,10.649-14.844,10.214-24.987-.74-17.294-1.312-34.627-.988-51.925.325-17.333-11-25.978-23.347-34.269-.431-.29-1.579-.335-1.718-.1-.617,1.053-1.676,2.553-1.327,3.339a48.174,48.174,0,0,0,4.8,8.562c3.875,5.4,8.193,10.493,12.01,15.934,4.265,6.078,3.8,12.355.351,18.81-4.185,7.834-10.527,13.8-16.941,19.543-14.3,12.806-23.257,28.646-29.925,46.481-6.4,17.111-9.047,34.753-10.107,52.645-.783,13.212-2.063,26.611,1.158,39.791.393,1.608,1.232,2.458,2.812,1.68a3.634,3.634,0,0,0,1.909-2.588c-.908-14.011.991-27.866,2.415-41.721.607-5.9,1.706-12.191,7.236-15.847,8.258-5.459,14.334-13.895,23.965-17.439.605.984,1.92,2.625,1.708,2.854-3.572,3.861-6.711,8.775-11.173,11.034-12.416,6.285-15.516,16.977-16.329,29.368-.474,7.24-1.466,14.451-1.8,21.695a35.3,35.3,0,0,0,1.235,9.753c.824,3.409,3.083,5.9,6.805,6.179,12.5.941,25.007,2.5,37.5,2.419,20.479-.133,40.953-1.324,61.425-2.165,5.282-.217,10.568-.642,15.818-1.26a5.074,5.074,0,0,0,4.671-5.384c-.285-17.608,3.434-35.977-9.4-51.345-.386-.462.789-2.228,1.235-3.384,7.719,2.313,12.279,6.89,13,15.473,1,11.9,3.932,23.622,3.25,35.684-.151,2.672.027,5.242,2.695,7.173.415-1.99,1.181-3.9,1.154-5.806a628.831,628.831,0,0,0-6.217-77.551c-1.7-12.271-6.127-22.975-12.554-33.238-7.8-12.451-17.289-23.579-26.432-35.009-10.6-13.253-10.737-22.267-.51-35.683,7.258-9.522,15.225-18.5,22.87-27.731,14.943-18.033,23.395-38.517,23.589-62.158.126-15.316.584-30.633.477-45.947-.119-17.027,4.842-22.27-22.237-22.517-37.3-.342-74.541.045-111.794,2.413-15.153.963-15.524,1.689-15.408,16,.027,3.323-.525,6.663-.348,9.97,1.2,22.507-1.241,45.1,3.885,67.562,2.993,13.114,9.293,23.244,18.554,32.142,1.87,1.8,4.4,3.056,6.915.543,1.8-1.8.775-3.805-.07-5.349a47.95,47.95,0,0,0-5.577-8.243C213.683,205.01,212.2,189.6,209.91,174.5c-.376-2.477.536-5.28,1.34-7.774,1.133-3.517,3.822-5.508,7.568-4.939a34.286,34.286,0,0,1,7.537,2.439c15.637,6.342,32.309,7.811,48.772,9.267,19.455,1.719,38.413-1.8,56.509-9.606,7.1-3.06,9.681-.825,9.122,6.932-2.121,29.411-15.322,53.229-36.864,72.783-.28.255-1.916-.983-2.92-1.524,1.342-6.242,6.32-9.954,10.156-14.426a107.753,107.753,0,0,0,16.286-24.92c4.119-8.914,7.361-18.149,5.1-28.067a16.29,16.29,0,0,0-3.086-.316,62.138,62.138,0,0,0-7.779,1.568c-27.453,8.584-55.123,6.731-82.894,1.972-6.856-1.175-15.183-8.291-20.183-1.4-3.889,5.355,1.53,13.93,3.058,20.985,1.412,6.524,5.173,12.145,9.316,17.419,7.8,9.93,15.34,20.115,25.367,27.992,11.37,8.932,15.871,20.852,15.851,34.9-.021,13.962-.5,27.947.123,41.882.839,18.814-5.765,33.689-21.117,44.637-3.779,2.7-7.526,5.447-11.443,7.928C239.34,372.474,237.864,371,236.9,370.321Zm-1.013-132.85c.534-.534.979-.978,1.423-1.423a12.533,12.533,0,0,0-2.685-1.25c-.33-.073-.871.806-1.315,1.25Z"/><path class="b" d="M329.062,389.638c-.447,1.158-1.622,2.924-1.236,3.386,12.837,15.368,9.118,33.737,9.4,51.345a5.074,5.074,0,0,1-4.671,5.384c-5.25.618-10.536,1.043-15.818,1.26-20.472.841-40.946,2.032-61.425,2.165-12.5.081-25.008-1.478-37.5-2.419-3.722-.28-5.981-2.77-6.805-6.179a35.3,35.3,0,0,1-1.235-9.753c.336-7.244,1.328-14.455,1.8-21.695.813-12.391,3.913-23.083,16.329-29.368,4.462-2.259,7.6-7.173,11.173-11.034.212-.229-1.1-1.87-1.708-2.854l-.474.448c.971.676,2.447,2.15,2.833,1.906,3.917-2.481,7.664-5.232,11.443-7.928,15.352-10.948,21.956-25.823,21.117-44.637-.622-13.935-.144-27.92-.123-41.882.02-14.049-4.481-25.969-15.851-34.9-10.027-7.877-17.567-18.062-25.367-27.992-4.143-5.274-7.9-10.895-9.316-17.419-1.528-7.055-6.947-15.63-3.058-20.985,5-6.887,13.327.229,20.183,1.4,27.771,4.759,55.441,6.612,82.894-1.972a62.138,62.138,0,0,1,7.779-1.568,16.29,16.29,0,0,1,3.086.316c2.264,9.918-.978,19.153-5.1,28.067a107.753,107.753,0,0,1-16.286,24.92c-3.836,4.472-8.814,8.184-10.156,14.426l.4-.284c-14.674,7.717-19.531,21.309-20.194,36.4-.788,17.941-.674,35.964.036,53.913.522,13.2,6.559,24.193,17.548,32.011.3.21,1.826-1.319,2.78-2.036l-.3-.324c-2.754,3.892-2.015,5.419,4.112,8.507l-.3-.362c1.7,6.516,5.794,10.649,12.331,12.338l-.334-.3c1.073,4.609,4.72,6.914,8.246,9.407,2.165,1.531,3.088-.022,4.244-1.285Z"/><path class="b" d="M300.974,242.079c1,.541,2.64,1.779,2.92,1.524,21.542-19.554,34.743-43.372,36.864-72.783.559-7.757-2.024-9.992-9.122-6.932-18.1,7.8-37.054,11.325-56.509,9.606-16.463-1.456-33.135-2.925-48.772-9.267a34.286,34.286,0,0,0-7.537-2.439c-3.746-.569-6.435,1.422-7.568,4.939-.8,2.494-1.716,5.3-1.34,7.774,2.292,15.1,3.773,30.509,14.393,42.867a47.95,47.95,0,0,1,5.577,8.243c.845,1.544,1.865,3.552.07,5.349-2.512,2.513-5.045,1.254-6.915-.543-9.261-8.9-15.561-19.028-18.554-32.142-5.126-22.466-2.681-45.055-3.885-67.562-.177-3.307.375-6.647.348-9.97-.116-14.311.255-15.037,15.408-16,37.253-2.368,74.5-2.755,111.794-2.413,27.079.247,22.118,5.49,22.237,22.517.107,15.314-.351,30.631-.477,45.947-.194,23.641-8.646,44.125-23.589,62.158-7.645,9.227-15.612,18.209-22.87,27.731-10.227,13.416-10.091,22.43.51,35.683,9.143,11.43,18.635,22.558,26.432,35.009,6.427,10.263,10.852,20.967,12.554,33.238a628.831,628.831,0,0,1,6.217,77.551c.027,1.9-.739,3.816-1.154,5.806-2.668-1.931-2.846-4.5-2.695-7.173.682-12.062-2.251-23.786-3.25-35.684-.721-8.583-5.281-13.16-13-15.474l.488.424c-1.368-5.272-5.578-7.829-9.957-10.091-.4-.206-1.668,1.272-2.533,1.968l.335.3c.637-.988,2-2.652,1.8-2.862-3.531-3.782-7.2-7.449-11.029-10.925-.328-.3-2.039.93-3.107,1.448l.3.362c2.476-3.761,1.743-5.277-4.113-8.507l.3.324a90.257,90.257,0,0,0-4.94-8.437c-7.374-10.046-10.815-20.733-8.913-33.541,1.352-9.1,1.008-18.591.327-27.827-1.277-17.327,1.711-33.007,14.432-45.8,1.994-2,.183-3.324-1.076-4.681Z"/><path class="b" d="M237.367,369.876c-9.631,3.544-15.707,11.98-23.965,17.439-5.53,3.656-6.629,9.946-7.236,15.847-1.424,13.855-3.323,27.71-2.415,41.721a3.634,3.634,0,0,1-1.909,2.588c-1.58.778-2.419-.072-2.812-1.68-3.221-13.18-1.941-26.579-1.158-39.791,1.06-17.892,3.709-35.534,10.107-52.645,6.668-17.835,15.625-33.675,29.925-46.481,6.414-5.745,12.756-11.709,16.941-19.543,3.448-6.455,3.914-12.732-.351-18.81-3.817-5.441-8.135-10.53-12.01-15.934a48.174,48.174,0,0,1-4.8-8.562c-.349-.786.71-2.286,1.327-3.339.139-.236,1.287-.191,1.718.1,12.346,8.291,23.672,16.936,23.347,34.269-.324,17.3.248,34.631.988,51.925.435,10.143-3.545,17.78-10.214,24.987-5.825,6.293-14.109,10.172-17.956,18.357Z"/><path class="b" d="M235.886,237.471l-2.577-1.423c.444-.444.985-1.323,1.315-1.25a12.533,12.533,0,0,1,2.685,1.25C236.865,236.493,236.42,236.937,235.886,237.471Z"/><path class="a" d="M301.378,241.8c1.259,1.357,3.07,2.677,1.076,4.681-12.721,12.79-15.709,28.47-14.432,45.8.681,9.236,1.025,18.726-.327,27.827-1.9,12.808,1.539,23.5,8.913,33.541a90.257,90.257,0,0,1,4.94,8.437c-.954.717-2.485,2.246-2.78,2.036C287.779,356.3,281.742,345.3,281.22,332.1c-.71-17.949-.824-35.972-.036-53.913C281.847,263.1,286.7,249.512,301.378,241.8Z"/><path class="a" d="M305.063,369.9c1.068-.518,2.779-1.745,3.107-1.448,3.832,3.476,7.5,7.143,11.029,10.925.2.21-1.167,1.874-1.8,2.862C310.857,380.548,306.767,376.415,305.063,369.9Z"/><path class="a" d="M317.06,381.94c.865-.7,2.134-2.174,2.533-1.968,4.379,2.262,8.589,4.819,9.957,10.091-1.156,1.262-2.079,2.815-4.244,1.284C321.78,388.854,318.133,386.549,317.06,381.94Z"/><path class="a" d="M301.253,361.754c5.856,3.23,6.589,4.746,4.113,8.507C299.238,367.173,298.5,365.646,301.253,361.754Z"/></svg>