<svg xmlns="http://www.w3.org/2000/svg" viewBox="0 0 543.348 543.348"><defs><style>.a{fill:#077ec6;}.b{fill:#fcfcfb;}</style></defs><path class="a" d="M248.021,37.023c-3.125,4.113-3.755,5.343-4.729,6.165C223.677,59.736,222.5,78.8,239.964,97.851c.449.49.973.91,1.464,1.361,1.918,1.761,4.537,3.256,3.853,6.4-1.014,4.661-5.03,2.949-7.992,3.458-9.236,1.588-10.663,2.72-10.634,11a235.016,235.016,0,0,0,1.4,23.863c1.057,9.978,1.3,9.909,11.4,11.723,2.54.456,5.431.707,7.417,2.107,3.1,2.182,4.444,6.723,9.221,6.727,11.305.011,22.612.164,33.912-.06a7.211,7.211,0,0,0,5.021-2.791c2.91-4.252,6.76-5.861,11.729-6.367,4.817-.49,6.373-4.162,6.217-8.621-.187-5.322-1.036-10.694-.561-15.951,1.021-11.281,1.441-21.843-13.728-22.735,2-6.331,6.213-7.683,8.98-10.463,12.916-12.981,13.567-28.832,1.452-42.693a56.989,56.989,0,0,0-10.324-9.354c-3.627-2.509-8.831-2.472-11.5-6.356.054-1.871.956-2.026,2.719-2.025q99.991.043,199.983-.021c17.967.009,18.159.153,18.165,17.176q.079,218.925.021,437.85c0,3.329-.114,6.659-.25,9.986-.158,3.89-2.377,6.164-6.087,6.6a86.286,86.286,0,0,1-9.986.28q-93.993.02-187.986-.009c-3.32,0-6.64-.329-9.962-.388-1.747-.031-2.751-.732-2.432-2.359a5.4,5.4,0,0,1,1.574-3.153,52.575,52.575,0,0,1,8.371-5.375c18-8.636,35.987-17.33,54.16-25.6,26.247-11.949,50.871-26.344,70.6-47.718,12.18-13.2,24.671-26.175,35.026-40.993,5.782-8.274,8.613-7.616,13.031,2.28,1.626,3.643,2.989,7.42,4.836,10.945,1.966,3.747,7.609,3.479,9.825-.192,4.236-7.017,6.157-15.022,7.02-22.781,2.352-21.142,6.209-42.215,5.026-63.65-.11-1.995.291-4.11-.241-5.971-1.376-4.821-.415-11.744-6.754-13-5.106-1.015-7.583,4.668-10.514,8.067-15.789,18.307-34.469,33.206-54.289,46.83a45.988,45.988,0,0,0-7.214,6.693c-1.37,1.464.7,5.843,2.682,6.568,5.288,1.936,10.543.338,15.818.1,3.356-.154,6.84-.033,8.322,3.712,1.342,3.391.09,6.531-2.023,9.278a90.033,90.033,0,0,1-18.2,18.4c-7.543,5.483-15.114,10.954-22.344,16.834-23.963,19.489-52.031,29.2-81.88,34.657-11.91,2.179-22.736,1.438-28.4-11.921-1.659-3.917-5.232-5.57-9.713-5.611-8.657-.077-17.309-.68-25.967-.776-4.731-.052-9.24.848-12.318,5.192-9.368,13.224-23.419,12.451-36.334,9.774-40.954-8.489-75.729-28.634-103.841-59.674-5.281-5.831-8.974-13.136-13.156-19.912-2.584-4.184-.362-8.405,4.4-8.144,6.621.363,13.2,1.471,19.81,2.084,3.569.331,6.785-.89,8.085-4.4,1.325-3.582-.7-6.343-3.536-8.412-2.686-1.962-5.49-3.764-8.242-5.636-4.952-3.37-10-6.613-14.84-10.132a182.054,182.054,0,0,1-34.508-33.009,98.455,98.455,0,0,0-12.414-12.9c-5.05-4.313-11.172-1.8-11.382,4.63-.391,11.98-1.136,24.062-.062,35.95,1.852,20.5,4.926,40.885,7.652,61.3a27.52,27.52,0,0,0,2.608,7.479,6.576,6.576,0,0,0,6.2,4.213c3.968-.023,5.995-2.542,6.57-6.109.847-5.255,1.132-10.609,2.145-15.825.34-1.749,1.908-4.07,3.407-4.532,1.237-.381,3.93,1.183,4.727,2.592,6.3,11.138,15.084,20.287,23.253,29.95,18.227,21.562,39.89,38.371,64.077,53.282,25.535,15.742,53.5,27.078,77.833,44.742,3.219,2.337,6.386,4.744,9.605,7.08,1.368.993,1.789,2.226.694,3.417a5.964,5.964,0,0,1-3.035,1.844,33.811,33.811,0,0,1-5.971.3q-96.991.016-193.985-.014a47.55,47.55,0,0,1-7.93-.579,5.578,5.578,0,0,1-4.906-5.378c-.314-4.647-.393-9.316-.393-13.976Q34.413,273.06,34.4,57.133c-.007-21.1-.013-20.127,19.315-20.119q90.993.038,181.986.009Zm38.326,251.124c-.883-34.558-3.267-69.085-1.979-103.667.318-8.537-1.836-10.521-10.067-11.416-13.081-1.422-15.343.487-15.813,13.382-.048,1.329-.007,2.661-.022,3.991q-1.085,97.707-2.158,195.413c-.109,10.162,2.265,12.581,12.848,13.316,2.648.184,5.319.056,7.979.023,7.687-.094,9.2-1.59,9.2-9.3Q286.364,339.018,286.347,288.147ZM217.791,115.683c-5.045,11.716-4.591,23.526-3.263,35.326a1.918,1.918,0,0,0,2.941,1.691c1.027-.495,2.606-1.559,2.567-2.295C219.419,138.824,218.58,127.255,217.791,115.683Zm104.019,1.923c0,10.084-.042,19.79.038,29.5.015,1.767-.008,4.12,2.465,4.263,2.294.133,3.219-1.572,3.123-3.794-.312-7.172-.455-14.357-1-21.511C326.212,123.045,326.605,119.39,321.81,117.606Zm-116.6,34.24c0-5.748.134-11.5-.036-17.241-.178-6.013-.647-12.017-.988-18.025C196.339,128.3,199.782,139.878,205.214,151.846Zm131.946.741c6.213-1.963,6.129-6.684,5.819-9.941-.9-9.407,1.212-19.348-4.521-31.52C336.588,127.04,335.206,139.537,337.16,152.587ZM288.041,414.1c-12.521-3.915-23.294-1.726-34.066.01C264.745,414.845,275.512,417.8,288.041,414.1Z"/><path class="a" d="M273.378,100.432C259.889,99.78,249.73,95.711,242.352,86c-6.358-8.369-6.277-16.687-1.115-25.882,6.286-11.2,23.23-19.03,36.168-14,3.088,1.2,6.426,1.781,9.462,3.082,11.71,5.017,18.075,13.861,17.547,24.023-.693,13.35-7.593,22.114-20.843,25.817C279.793,100.09,275.73,100.129,273.378,100.432Z"/><path class="b" d="M286.347,288.147q0,50.871-.007,101.742c0,7.71-1.518,9.206-9.2,9.3-2.66.033-5.331.161-7.979-.023-10.583-.735-12.957-3.154-12.848-13.316q1.046-97.707,2.158-195.413c.015-1.33-.026-2.662.022-3.991.47-12.9,2.732-14.8,15.813-13.382,8.231.9,10.385,2.879,10.067,11.416C283.08,219.062,285.464,253.589,286.347,288.147Z"/><path class="b" d="M217.791,115.683c.789,11.572,1.628,23.141,2.245,34.722.039.736-1.54,1.8-2.567,2.295a1.918,1.918,0,0,1-2.941-1.691C213.2,139.209,212.746,127.4,217.791,115.683Z"/><path class="b" d="M321.81,117.606c4.8,1.784,4.4,5.439,4.63,8.454.541,7.154.684,14.339,1,21.511.1,2.222-.829,3.927-3.123,3.794-2.473-.143-2.45-2.5-2.465-4.263C321.768,137.4,321.81,127.69,321.81,117.606Z"/><path class="b" d="M205.214,151.846c-5.432-11.968-8.875-23.55-1.024-35.266.341,6.008.81,12.012.988,18.025C205.348,140.347,205.214,146.1,205.214,151.846Z"/><path class="b" d="M337.16,152.587c-1.954-13.05-.572-25.547,1.3-41.461,5.733,12.172,3.624,22.113,4.521,31.52C343.289,145.9,343.373,150.624,337.16,152.587Z"/><path class="b" d="M288.041,414.1c-12.529,3.7-23.3.747-34.066.01C264.747,412.372,275.52,410.183,288.041,414.1Z"/></svg>