<svg xmlns="http://www.w3.org/2000/svg" viewBox="0 0 543.348 543.348"><defs><style>.a{fill:#077ec6;}.b{fill:#fcfcfb;}</style></defs><path class="a" d="M317.955,318.693c7.664-4,15.148-7.751,24.441-7.154,8.269.532,13.491,4.082,17.782,10.807,2.431,3.809,1.364,9.151,6.1,12.27,9.174-4.149,15.726-11.891,23.364-18.2,4.608-3.8,9.011-8,14.083-11.064,7.388-4.464,15.443-4.644,22.594.551,7.362,5.347,8.312,12.99,6.261,21.49-2.525,10.462-8.16,19.537-12.925,28.328,2.432,4.192,4.822,2.916,6.981,1.41,7.1-4.952,14.033-10.144,21.193-15,5.871-3.987,11.173-3.114,15.846,2.3,5.082,5.892,6.684,13.058,6.077,20.475a50.252,50.252,0,0,1-3.585,15.514c-8.932,20.809-18.313,41.468-31.507,60.005-4.195,5.894-9.734,10.889-14.973,15.97-9.523,9.238-19.282,18.233-31.768,29.989,11.606-3,17.227-8.47,23.257-13.21,6.276-4.934,12.033-10.763,18.887-14.68,18.312-10.468,32.225-25.658,45.95-41.064,13.46-15.109,21.585-33.321,28.939-52.2,4.2.235,2.482,3.934,2.492,5.623.241,42.648.26,85.3.288,127.947a34.877,34.877,0,0,1-.459,5.946,5.564,5.564,0,0,1-5.305,4.966c-4.644.341-9.313.449-13.972.45q-215.976.031-431.951.032c-22.445,0-20.255.518-20.286-20.9-.057-39.967-.016-79.934-.016-124.462,5.7,13.45,10.209,22.73,13.622,32.395,7.654,21.671,23.93,36.659,40.067,51.442,8.743,8.009,19.58,13.754,29.583,20.353a27.236,27.236,0,0,0,7.256,3.087,4.213,4.213,0,0,0,3.513-.829c.619-.593.822-2.674.293-3.246-4.517-4.881-9.318-9.5-13.893-14.323C96.694,433.151,81.425,410.1,73.948,382.391a60.388,60.388,0,0,1,1.465-37.314c4.694-12.83,15.629-16.334,27.164-8.963a41.236,41.236,0,0,1,12.517,12.721c1.772,2.76,3.435,5.826,7.569,5.375,1.9-5.429-.9-10.283-1.982-15.414-1.935-9.141-3.274-18.333-1.407-27.748A18.97,18.97,0,0,1,126.4,299.49c5-4.023,8.778-4.323,14.674-1.263a37.446,37.446,0,0,1,13.256,11.9c7.712,10.829,15.339,21.718,23.086,32.522,1.074,1.5,1.956,3.656,5.762,2.8.384-5.865.924-12.16,1.18-18.467.356-8.8,8.485-14.938,18.424-12.566,14.5,3.461,25.021,11.847,33.663,23.35,6.066,8.072,10.163,17.235,13.814,26.494,6.338,16.074,12.015,32.408,17.939,48.645.928,2.545,1.907,4.957,5.34,5.584,3.671-6.951,4.6-14.752,6.534-22.306,2.135-8.356,5.225-16.476,8.066-24.641,2.546-7.313,7.039-14.08,7.515-23.285-10.187,6.421-9.178,18.8-19.349,25.954,1.414-11.889,5.339-20.864,9.907-29.567,4.332-8.25,8.717-16.5,13.636-24.408a66.661,66.661,0,0,0,10.415-35.881c.012-11.579,0-23.158,0-37.426,2.464,4.7,4.557,6.931,4.721,9.292,1.34,19.226,3.852,38.526-1.73,57.553a9.263,9.263,0,0,0-1.109,1.585c-1.006,2.373-2.5,5.543.059,6.97C314.722,323.739,316.4,320.585,317.955,318.693Z"/><path class="a" d="M506.464,288.393c-3.222-22.275-5.128-40.763-8.727-58.915-4-20.19-9.386-40.116-14.476-60.078-3.942-15.46-8.742-30.707-12.455-46.218-3.642-15.219-12.737-26.079-25.183-34.694-17.586-12.173-37.337-20.438-55.957-30.744-7.183-3.976-12.613-.745-15.629,8.578-.859,2.657-1.535,4.712-3.955,6.282-11.112,7.212-16.062,18.6-19.412,31.543q8.508-7.556,17.021-15.106c2.992-2.638,5.831-5.522,9.116-7.736,3.678-2.477,8.287-2.511,10.825,1.108,7.619,10.864,15.6,21.56,20.941,33.857,2.88,6.628,1.459,13.021-.772,19.441-6.611,19.027-17.173,35.95-28.009,52.728-1.081,1.674-2.591,3.086-3.579,4.805-12.707,22.125-33.967,27.9-57.186,30.594-8.39.972-14.265-1.174-18.272-8.6a21.262,21.262,0,0,0-3.207-3.75c-3.972.234-4.461,3.415-6.238,5.221-1.911,1.941-4.552,4.158-6.675,1.466-7.08-8.972-15.155-5.64-23.459-2.764-5.939,2.057-8.7.109-8.481-5.57.5-12.79,7.468-17.956,17.093-16.937a26.022,26.022,0,0,0,3.972.378c9.8-.485,16.877,2.722,18.856,13.334a3.3,3.3,0,0,0,4.441,2.571c2.369-.968,5.364-2.8,4.951-5.641a42.8,42.8,0,0,0-3.845-13.147c-3.116-6.115-2.251-11.4.966-17,2.645-4.609,4.864-9.471,7.133-14.286a45.879,45.879,0,0,0,1.411-36.889c-1.989-5.332-2.242-13.607-9.46-13.335-5.353.2-6.647,7.555-8.179,12.592-.946,3.109-2.311,6.694-1.594,9.6,2.814,11.422-1.6,22.479-.992,33.748.194,3.615-1.932,6.26-5.878,6.755-19.389,2.433-23.669-1.245-23.14-20.843a75.366,75.366,0,0,1,2.73-17.7c2.307-8.423-.385-15.722-3.687-23.057a4.108,4.108,0,0,0-6.526-1.136c-15.5,16.978-18.371,36.293-10.355,57.452,1.4,3.7,3.888,6.973,5.648,10.553a16.565,16.565,0,0,1-.062,15.366c-2.792,5.675-8.523,10.971-2.77,17.987a24.425,24.425,0,0,1-11.568,15.447c-1.327.778-3.843-.072-5.677-.621-12.1-3.623-24.244-7.147-36.218-11.163a34.642,34.642,0,0,1-16.379-11.058c-8.251-10.345-17.889-19.547-23.048-32.323-3.2-7.937-8.948-14.807-12.967-22.463-11.683-22.254-7.353-48.444,10.588-66.014,5.592-5.476,9.45-6.229,15.811-1.663,6.206,4.455,11.82,9.732,19.348,16.032a29.9,29.9,0,0,0-7.762-19.69c-3.882-4.52-8.226-8.527-10.7-14.241-2.429-5.61-7.778-6.751-13.432-6.627a27.564,27.564,0,0,0-15.146,4.571C117.1,73.641,98.036,87.04,79.288,100.861c-8.958,6.6-13.075,16.773-15.914,27.128-6.688,24.39-11.34,49.226-15.643,74.14-2.716,15.722-5.064,31.437-5.833,47.4a14.844,14.844,0,0,1-4.611,10.691c-2.595-2.56-1.444-5.786-1.448-8.541q-.159-97.959-.079-195.918a108.511,108.511,0,0,1,.459-11.968,5.506,5.506,0,0,1,5.277-5c4.633-.386,9.3-.526,13.951-.527q215.967-.038,431.935-.009c22.024,0,20.365-1.374,20.375,20.663q.043,93.96-.045,187.922C507.688,259.381,506.98,271.922,506.464,288.393Z"/><path class="a" d="M263.4,372.852c-5.7-1.821-6.049-7.046-7.781-11-5.849-13.339-12.35-26.209-20.707-38.251-8.514-12.267-11.485-26.518-11.531-41.345-.016-5.286.25-10.574.454-15.859s2.255-8.69,4.133-6.888c2.153,2.067,1.922,4.523,1.731,7.178-1.632,22.708,5.158,42.916,18.216,61.305A177.6,177.6,0,0,1,259.8,346.243C264.232,354.476,266.8,363.262,263.4,372.852Z"/><path class="b" d="M317.955,318.693c-1.558,1.892-3.233,5.046-5.747,3.643-2.556-1.427-1.065-4.6-.059-6.97a9.263,9.263,0,0,1,1.109-1.585Q315.6,316.235,317.955,318.693Z"/></svg>