<svg xmlns="http://www.w3.org/2000/svg" viewBox="0 0 543.348 543.348"><defs><style>.a{fill:#2d9e54;}.b{fill:#fcfcfb;}</style></defs><path class="a" d="M294.712,508.191c4.736-3.561,6.1-5.015,7.784-5.791,33.317-15.38,46.754-43.546,50.253-78.059.4-3.954,0-7.985.122-11.975a3.566,3.566,0,0,1,5.643-2.739c8.937,5.91,18.175,11.078,28.862,13.079,13.5,2.527,26.548,1.887,38.384-6.039,10.219-6.843,15.279-15.872,13.894-28.755-2.638-24.53-12.936-46.073-25.554-66.525a524.123,524.123,0,0,0-68.479-88.05c-11.528-12-22.1-24.911-34.678-35.9a34.3,34.3,0,0,0-6.288-4.782c-1.8-.944-4.06-.38-4.276,2.112a25.288,25.288,0,0,0,.431,7.941c7.276,30.449,19.426,59.047,32.506,88.153,1.543-1.938,2.559-2.678,2.814-3.623,1.469-5.435-.625-13.413,6.9-14.819,5.679-1.061,9.012,5.229,12.03,9.306,14.639,19.776,30.92,38.4,42.506,60.356,5.3,10.05,10.58,20.1,12.956,31.251,2.9,13.595-5.195,21.989-19.089,20.285-6.715-.824-12.764-3.708-18.605-6.88-4.669-2.535-9.007-5.67-13.575-8.4-3.605-2.155-7.419-3.264-10.975.022-3.3,3.049-6.747,5.479-5.53,11.518,1.4,6.957.5,7.139-6.758,5.994-9.309-1.468-12.587.953-12.458,9.588.06,3.98.845,7.944,1.054,11.928.925,17.626-5.54,32.63-16.993,45.566-7.265,8.206-16.319,12.9-27.574,14.482-28.108,3.959-52.81-2.8-74.015-21.591-16.431-14.559-33.624-28.387-46.889-46.168-2.913-3.905-1.14-7.823,3.936-8.246,7.633-.634,15.3-.884,22.795-1.289.291-4.811-2.951-5.418-5.016-6.5-9.43-4.92-18.888-9.839-28.614-14.127-20.422-9-41.019-17.615-64.889-27.816,4.337,8.087,6.424,13.5,9.778,17.959,12,15.956,24.623,31.442,36.642,47.384a328.305,328.305,0,0,0,41.644,45.74c14.693,13.31,29.957,26.432,49.138,33.614,6.788,2.541,13.167,6.179,19.684,9.414.289.143.094,1.264.128,2.014-4.089,2.84-8.792,1.66-13.215,1.666q-89.971.133-179.944.055c-2.665,0-5.331-.065-8-.1-4.612-.056-7.561-1.924-7.626-6.962-.034-2.664-.132-5.328-.132-7.991q-.011-220.872,0-441.743c0-3.328.052-6.661.251-9.981.23-3.851,2.391-6,6.257-6.146,4.659-.172,9.323-.233,13.985-.233q215.934-.017,431.866-.006c22.025,0,20.237-1.385,20.241,20.71q.032,215.874,0,431.75c0,4.662-.079,9.324-.209,13.984-.109,3.889-2.282,6.041-6.065,6.418-2.643.263-5.317.289-7.978.289q-93.971.014-187.941-.043C303.345,509.5,300.851,508.935,294.712,508.191ZM48.519,84.57c-1.324,23.951,15.069,43.639,38.722,44.108,16.073.319,27.252,7.085,38.065,18.192,18.65,19.156,33.835,41.03,50.353,61.792,28.557,35.893,56.45,72.3,86.781,106.746,12.594,14.3,10.571,16.432,27.924,2.644,2.082-1.655,4.106-3.386,6.125-5.118,3.025-2.593,3.375-5.677.913-8.677-12.651-15.418-24.715-31.394-38.294-45.955-17.713-18.994-35.183-38.079-50.078-59.415a99.609,99.609,0,0,0-10.158-12.2c-20.431-21.079-38.451-44.062-54.906-68.335-4.6-6.79-7.854-13.816-7.684-22.2.094-4.653-.3-9.316-.219-13.97.452-27.435-24.414-42.8-47.144-39.736C64.541,45.734,50.425,59.266,48.519,84.57ZM364.29,129.162c-1.747,6.733-.364,12.621,1.722,17.836,11.538,28.849,16.381,60.151,31.541,88.092,5.064-4.131,5.042-9.565,6.558-14.394,1.783-5.682,7.044-7.033,10.406-2.546,10.348,13.811,20.988,27.457,30.415,41.886A142.642,142.642,0,0,1,462.518,300c5.746,20.676,2.822,39.433-13.938,54.5-1.483,1.332-3.14,2.487-4.52,3.915-1.874,1.938-3.336,4.152-2.658,7.086,1.341,5.806,2.587,11.636,4.1,17.4.827,3.143,4.836,4.7,8.048,3.443,25.083-9.788,43.209-38.083,40.668-64.831-1.314-13.839-3.4-27.679-9.326-40.574-8.045-17.515-16.573-34.644-28.2-50.248-23.494-31.52-50.364-60.029-77.242-88.555C375.073,137.484,371.281,131.931,364.29,129.162ZM152.67,309.937c8.578,10.141,14.407,17.173,20.387,24.073,13.916,16.057,28.386,31.662,41.749,48.163,19.374,23.926,41.973,44.6,65.368,64.2,16.03,13.43,24.869,15.64,34.726-10.235,1.817-4.77.764-7.251-4.655-8.894-16.358-4.96-29.67-14.607-41.848-26.172-8.2-7.786-16.275-15.716-24.769-23.168-6.408-5.623-12.315-12.125-21.537-13.675-3.571-.6-8.926-1.916-7.415-6.794.926-2.991,5.982-1.606,9.162-.972,4.545.905,8.968,2.416,13.512,3.322,2.954.589,6.115,2.343,10.458-1.567C217.627,341.336,189.22,322.648,152.67,309.937Zm162.716,83.829c2.1.151,4.963-1.516,7.626-3.544,8.947-6.811,17.92-13.591,26.733-20.573a49.063,49.063,0,0,0,6.919-7.126c3.7-4.432,3.829-8.25.144-12.4q-15.829-17.819-31.934-35.389a39.735,39.735,0,0,0-5.976-5.217c-2.961-2.159-6.457-2.4-9.244-.164-10.839,8.7-21.608,17.493-32.118,26.581-5.872,5.077-6.219,7.211-1.72,13.493,9.638,13.456,19.7,26.61,29.664,39.83C307.545,392,310.371,393.68,315.386,393.766Zm41.328,68.388c12.533-1.628,16.869-10.717,20.861-19.832s-.289-16.513-10.62-19.307c-2.248-.608-4.2.328-4.589,2.328C360,437.36,354.652,449,356.714,462.154ZM403.6,378.829c-.431-1.968-.986-4.276-3.233-4.442-10.82-.8-20.553-4.714-30.031-9.657-2.461-1.283-5.216-1.184-6.589,2.011a4.775,4.775,0,0,0,1.018,5.472c8.21,8.412,18.677,12.513,29.833,14.97C399.077,388.169,403.994,383.206,403.6,378.829Z"/><path class="b" d="M48.519,84.57c1.906-25.3,16.022-38.836,40.4-42.125,22.73-3.067,47.6,12.3,47.144,39.736-.076,4.654.313,9.317.219,13.97-.17,8.381,3.081,15.407,7.684,22.2,16.455,24.273,34.475,47.256,54.906,68.335a99.609,99.609,0,0,1,10.158,12.2c14.9,21.336,32.365,40.421,50.078,59.415,13.579,14.561,25.643,30.537,38.294,45.955,2.462,3,2.112,6.084-.913,8.677-2.019,1.732-4.043,3.463-6.125,5.118-17.353,13.788-15.33,11.658-27.924-2.644-30.331-34.444-58.224-70.853-86.781-106.746-16.518-20.762-31.7-42.636-50.353-61.792C114.493,135.763,103.314,129,87.241,128.678,63.588,128.209,47.2,108.521,48.519,84.57ZM90.055,59.8C77.532,59.506,67,70.452,66.393,84.38c-.659,15.19,9.937,26.287,25.655,26.869,13.064.484,23.669-10.167,23.924-24.025A26.834,26.834,0,0,0,90.055,59.8Z"/><path class="b" d="M364.29,129.162c6.991,2.769,10.783,8.322,15.159,12.966,26.878,28.526,53.748,57.035,77.242,88.555,11.631,15.6,20.159,32.733,28.2,50.248,5.922,12.9,8.012,26.735,9.326,40.574,2.541,26.748-15.585,55.043-40.668,64.831-3.212,1.253-7.221-.3-8.048-3.443-1.516-5.76-2.762-11.59-4.1-17.4-.678-2.934.784-5.148,2.658-7.086,1.38-1.428,3.037-2.583,4.52-3.915,16.76-15.062,19.684-33.819,13.938-54.495a142.642,142.642,0,0,0-17.586-39.965c-9.427-14.429-20.067-28.075-30.415-41.886-3.362-4.487-8.623-3.136-10.406,2.546-1.516,4.829-1.494,10.263-6.558,14.394-15.16-27.941-20-59.243-31.541-88.092C363.926,141.783,362.543,135.9,364.29,129.162Z"/><path class="b" d="M152.67,309.937c36.55,12.711,64.957,31.4,95.138,48.285-4.343,3.91-7.5,2.156-10.458,1.567-4.544-.906-8.967-2.417-13.512-3.322-3.18-.634-8.236-2.019-9.162.972-1.511,4.878,3.844,6.194,7.415,6.794,9.222,1.55,15.129,8.052,21.537,13.675,8.494,7.452,16.571,15.382,24.769,23.168,12.178,11.565,25.49,21.212,41.848,26.172,5.419,1.643,6.472,4.124,4.655,8.894-9.857,25.875-18.7,23.665-34.726,10.235-23.395-19.6-45.994-40.278-65.368-64.2-13.363-16.5-27.833-32.106-41.749-48.163C167.077,327.11,161.248,320.078,152.67,309.937Z"/><path class="b" d="M315.386,393.766c-5.015-.086-7.841-1.768-9.906-4.508-9.965-13.22-20.026-26.374-29.664-39.83-4.5-6.282-4.152-8.416,1.72-13.493,10.51-9.088,21.279-17.885,32.118-26.581,2.787-2.236,6.283-2,9.244.164a39.735,39.735,0,0,1,5.976,5.217q16.06,17.608,31.934,35.389c3.685,4.149,3.558,7.967-.144,12.4a49.063,49.063,0,0,1-6.919,7.126c-8.813,6.982-17.786,13.762-26.733,20.573C320.349,392.25,317.489,393.917,315.386,393.766Z"/><path class="b" d="M356.714,462.154C354.652,449,360,437.36,362.366,425.343c.393-2,2.341-2.936,4.589-2.328,10.331,2.794,14.609,10.2,10.62,19.307S369.247,460.526,356.714,462.154Z"/><path class="b" d="M403.6,378.827c.392,4.379-4.525,9.342-9.006,8.356-11.156-2.457-21.623-6.558-29.833-14.97a4.775,4.775,0,0,1-1.018-5.472c1.373-3.195,4.128-3.294,6.589-2.011,9.478,4.943,19.211,8.857,30.031,9.657C402.612,374.553,403.167,376.861,403.6,378.827Z"/><path class="a" d="M90.055,59.8a26.834,26.834,0,0,1,25.917,27.426c-.255,13.858-10.86,24.509-23.924,24.025C76.33,110.667,65.734,99.57,66.393,84.38,67,70.452,77.532,59.506,90.055,59.8Z"/></svg>