<svg xmlns="http://www.w3.org/2000/svg" viewBox="0 0 543.348 543.348"><defs><style>.a{fill:#2d9e54;}</style></defs><path class="a" d="M290,80.469c-14.628,4.281-29.492,6.065-44.15,8.788-30.152,5.6-59.845,12.691-86.885,27.943-4.623,2.608-9.064,5.558-13.444,8.562A3.85,3.85,0,0,0,144.093,129c.6,2.2,2.595,2.652,4.544,1.8,34.488-15.09,71.114-21.266,108.048-26.511,17.219-2.446,34.368-4.1,51.752-3.29,2.571.119,6.041.245,7.642-1.219,10.491-9.6,21.856-4.351,32.032-1.069,37.383,12.055,66.4,35.814,89.459,67.217a21.666,21.666,0,0,1,2.05,3.426c12.144,25.3,21.755,51.407,24.587,79.547,1.464,14.553.872,29.127.125,43.75-1.548,30.292-12.617,56.863-29.929,81.2a60.754,60.754,0,0,1-9.255,10.42c-23.62,20.739-48.81,38.907-78.3,50.867-30.975,12.564-63.029,16.514-95.857,13.2a214.433,214.433,0,0,1-50.4-11.74,198.053,198.053,0,0,1-61.969-35.581c-10.13-8.567-22.063-15.036-30.2-25.925-17.24-23.066-31.885-47.477-39.149-75.691a73.108,73.108,0,0,1-2.448-11.7C63.1,244.926,68.4,204.038,91.976,166.874c13.068-20.6,30.629-36.566,50.51-50.23,4.925-3.385,10.128-6.368,15.221-9.507,4.892-3.016,11.3-3.523,17.1-10.311-28.744,1.461-53.171,7.161-73.714,25.12-7.267,6.354-12.8,15.635-24.477,15.619-1.9,0-4.28,3.022-5.62,5.16-3.175,5.067-5.792,10.48-8.763,15.679-1.977,3.46-3.406,8.576-6.409,9.871-12.182,5.251-12.816,15.782-13.966,26.429-.281,2.6-.887,5.222-4.213,6.427-3.277.418-1.933-2.634-1.937-3.991q-.18-71.95-.107-143.9c0-3.325.105-6.656.318-9.975.253-3.942,2.715-5.973,6.423-6.193,4.651-.274,9.325-.192,13.989-.193q215.91-.011,431.821,0c21.873,0,20.136-1.841,20.161,20.763q.074,66.954-.028,133.909c-.011,6.348.917,12.874-1.33,18.966-1.537-.138-2.655.017-2.8-.287-5.66-11.982-11.3-23.972-16.729-36.06-.762-1.7-1.313-4.659-.41-5.744,5.665-6.8,1.135-10.642-3.612-14.726-9.079-7.811-18.413-15.374-26.982-23.716-5.848-5.693-14.573-11.182-7.229-21.768.5-.727-1.007-3.811-2.318-4.657A129.1,129.1,0,0,0,434.647,97c-7.732-3.876-15.583-7.523-23.222-11.571-3.48-1.844-8.411-3.747-9.515-6.777-4.013-11.018-13.342-11.5-22.3-12.87-13.817-2.111-27.712-3.719-41.522-5.868-2.985-.464-7.419-1.511-5.792-6.045,2.333-6.5-.2-8.143-6.142-8.376-20.659-.813-41.219-.865-61.819,1.982-23.051,3.185-46.454,3.715-69.233,9.058a5.988,5.988,0,0,1-1.983.212c-25.922-2.93-47.392,11.3-70.667,18.479-5.677,1.752-10.938,4.863-13.828,10.755-1.765,3.6.222,9.192,4.08,9.543,8.607.783,17.147.993,25.8-.845,19.512-4.143,39.158-7.655,58.752-11.409a357.244,357.244,0,0,1,91.411-5.255C288.948,78.028,289.173,78.907,290,80.469Z"/><path class="a" d="M124.626,476.377c7.948,5.248,17.315,6.268,26.3,8.394,7.759,1.837,15.6,3.305,23.366,5.137,3.189.752,7.546,1.373,8.294,4.694,1.873,8.318,8.119,7.526,13.9,7.609,10.528.151,20.935.838,30.8,3.265,1.192,4.621-1.933,2.964-3.089,3.5-1.112.521-2.612.261-3.941.262q-85.845.055-171.689.094c-1.33,0-2.664.015-3.991-.065-6.669-.406-8.426-1.992-8.882-8.037-.1-1.324-.085-2.66-.085-3.99q0-71.755,0-143.546c5.01-.706,5.762,2.931,7.026,5.756,2.435,5.44,4.722,10.948,7,16.455,2.033,4.9,8.655,9.876-.6,14.622-1.824.936-.01,3.493,1.355,4.684,9.5,8.292,19.183,16.375,28.588,24.77,4.36,3.892,9.257,7.492,6.668,15.086-1.585,4.649,3.167,6.9,6.464,8.844,10.84,6.378,21.886,12.4,32.784,18.684,5.8,3.341,5.735,4.175.206,11.858A5.992,5.992,0,0,0,124.626,476.377Z"/><path class="a" d="M507.447,352.717c.289,4.587.821,9.173.828,13.76q.1,63.8.032,127.6c0,3.311-.19,6.631-.486,9.93-.271,3.016-2.24,4.659-5.122,4.98a71.844,71.844,0,0,1-7.959.342q-78.772.021-157.546-.029c-3.306,0-6.611-.421-10.05-.655.728-1.283,1.091-2.958,1.922-3.236,15.074-5.056,30.719-8.406,45.089-15.577,2.932-1.464,6.686-2.063,9.293.741,4.36,4.687,8.348,2.893,12.12-.337q14.352-12.292,28.417-24.919c6.425-5.762,12.57-11.836,18.96-17.638,2.563-2.327,6.226-4.1,9.046-1.957,5.13,3.9,7.96,2.091,11.061-2.357,3.479-4.991,5.595-10.5,7.555-16.17,2.6-7.519,5.291-15.013,8.218-22.409,1.472-3.721,3.688-8.09,8.156-7.619,9.826,1.037,10.875-5.183,11.291-12.183A76.451,76.451,0,0,1,507.447,352.717Z"/><path class="a" d="M200.2,60.747c3.284,0,6.581-.157,9.845.1a3.369,3.369,0,0,1,.1,6.664,89.778,89.778,0,0,1-34.976,4.141,3.8,3.8,0,0,1-3.813-3.7c.013-2.2,1.813-3.087,3.62-3.749C183.127,61.214,191.618,60.542,200.2,60.747Z"/></svg>