<svg xmlns="http://www.w3.org/2000/svg" viewBox="0 0 543.348 543.348"><defs><style>.a{fill:#dfcf06;}.b{fill:#fcfcfb;}</style></defs><path class="a" d="M35.873,271.424q0-107.953-.013-215.9c-.01-21.594-.64-20.179,18.969-20.18q216.962-.007,433.923,0c2.666,0,5.335-.059,8,.039,9.9.365,10.739,1.24,11.088,11.941.13,4,.043,8,.043,11.994q0,211.907-.042,423.813c-.018,27.33,3.121,24.037-24.83,24.056q-210.961.146-421.925.042c-5.332,0-10.671.125-16-.1-7.6-.324-8.835-1.672-9.129-9.8-.192-5.325-.085-10.661-.085-15.992Q35.869,376.378,35.873,271.424ZM301.493,154.13a21.434,21.434,0,0,1,1.987,1.455c1.161,4.391-2.163,9.766,2.026,13.286a78.954,78.954,0,0,0,13.3,8.616c2.986,1.617,5.43-.7,6.023-3.249,1.536-6.586.906-12.5-3.344-18.736-7.286-10.684-6.1-16.387,2.5-25.832a22.76,22.76,0,0,0,2.713-2.866,8.016,8.016,0,0,0-.136-9.355c-1.867-2.528-4.536-1.328-7.015-.112-9.181,4.5-9.206,4.452-17.784,14.8-3.031-.127-4.123-2.779-5.746-4.611-9.686-10.936-22.25-13.864-36.111-12.977a26.985,26.985,0,0,0-25.219,23.865c-1.853,14.617,2.556,26.1,15.507,33.894,2.734,1.645,6.338,2.181,7.831,5.569-2.256,1.987-4.978.99-7.543,1.238-6.679.645-6.823.824-3.378,8.109.918,1.941,1.805,3.51-.473,4.436-3.651,1.484-7.428,3.019-11.286,3.55-5.846.8-7.984,3.949-7.775,9.417.244,6.409-2.323,14.284,5.45,17.614,7.65,3.276,9.04,9.006,9.113,15.949.174,16.62.242,33.242.38,49.863q.3,35.894.623,71.786c.04,5.224,1.15,10.841-4.786,14.085-3.254,1.778-3.394,5.474-4.933,8.309-2.1,3.873-5.289,5.436-9.761,5.392-23.922-.238-47.847-.274-71.77-.435a61.9,61.9,0,0,1-7.948-.628c-7.787-1.065-13.54-4.659-16.547-12.407-2.09-5.387-3.174-11.551-8.81-14.916-.182-1.753-.316-3.513-.577-5.253-.068-.455-.53-.851-.811-1.274-.522.925-1.486,1.856-1.473,2.774a3.346,3.346,0,0,0,3.165,3.482c-.637,3.885.013,8.888-2.185,11.416-4.287,4.932-4.623,10.946-6.71,16.406-4.807,12.58-3.12,14.8,10.773,15.049,8.652.158,17.31-.061,25.965-.082,20.6-.05,41.2-.4,61.79-.006,13.184.254,26.506,2.979,38.328-5.779,1.429-1.059,3.815-1.081,5.77-1.132,8.65-.231,17.3-.314,25.956-.414a14.937,14.937,0,0,1,10.931,4.059c4.183,4,9.2,4.517,14.751,4.463,26.628-.257,53.259-.2,79.889-.28,9.972-.03,19.95.061,29.912-.3a50.361,50.361,0,0,0,11.68-2.155c5.948-1.676,8.36-8.472,3.611-12.131-12.985-10-12.29-21.776-7.377-35.458,2.511-6.993,5.214-13.4,9.918-19.258,6.566-8.179,10.136-18.246,5.228-27.883-6.055-11.89-3.313-22.971-1.093-34.7,2.033-10.734.3-20.384-8.388-28.734-8.935-8.588-18.6-16.586-24.223-28.455-3.76-7.937-14.571-11.6-22.2-9.586-22.278,5.892-44.646,3.331-67.007.895-3.27-.356-6.99-.727-9.576-2.466-9.212-6.195-19.638-7.428-30.507-7.794,1.584-3.736,4.428-2.977,6.714-3.651,7.438-2.193,10.453-5.107,8.752-8.31-2.5-4.718-6.99-2.093-10.619-2.725-.947-.165-1.713-1.361-2.586-2.1C292.361,169.229,292.361,169.229,301.493,154.13ZM172.817,366.8c.323-4.683-3.036-8.921-1.123-13.668a6.857,6.857,0,0,1,5.84-4.582c3.011-.375,5.1,1.446,6.429,3.8a10.808,10.808,0,0,1,.989,9.553c-1.722,4.314.339,6.133,4.237,6.607,4.452.54,5.375-.812,5.679-7.272.155-3.3.115-6.692.975-9.82.387-1.408,2.732-3.1,4.24-3.155,1.623-.055,3.7,1.316,4.892,2.669,4.249,4.814-.268,11.685,3.791,17.19l15.6-2.169c-.091-.56-.183-1.119-.372-2.272a42.387,42.387,0,0,1-5.049-.546c-7.516-1.679-9.361-7.044-4.2-12.526,1.9-2.018,4.654-3.064,6.883-.634,1.724,1.878,2.731,4.416,4.038,6.672.856,1.477,2,2.05,3.041,1.165.876-.749,1.941-1.9,1.979-2.913,1.076-28.488,2.319-56.976,2.871-85.476.233-12.035-6.508-18.65-18.38-18.459-18,.29-35.678,2.888-51.985,11.3-19.76,10.19-31.684,25.793-32.821,48.507-.464,9.272-.6,18.583-.354,27.862.272,10.176.54,10.167,12.275,10.7.636.029,1.51-.124,1.869.224,4.545,4.4,8.508,4.785,13.245-.282,1.673-1.79,4.9.589,6.6,2.782a8.543,8.543,0,0,1,1.825,7.4,4.543,4.543,0,0,1-6.164,3.307c-6.762-2.363-12.8-2.485-19.224,4.042ZM273.429,479.175c42.836-.757,86.746-1.528,130.656-2.315,4.662-.084,9.336-.084,13.981-.436,6.683-.506,8.92-2.678,8.971-8.14.06-6.406-2.582-9.046-9.98-9.449-4.652-.254-9.331-.2-13.992-.077-20.585.555-41.339-.239-61.706,2.19-20.445,2.439-41.172-.452-61.5,5-7.933,2.127-17.5.936-25.67-1.208-14.422-3.781-28.858-3.989-43.482-3.832-11.245.12-22.493.052-33.74-.025-17.869-.123-35.737-.4-53.606-.437a7.733,7.733,0,0,0-7.8,7.491c-.382,5.483,2.268,9.731,7,10.428a82.974,82.974,0,0,0,11.94.778C180.451,479.193,226.405,479.175,273.429,479.175Zm-36.276-24.292a33.067,33.067,0,0,1-6.167-22.91,130.128,130.128,0,0,0,.094-13.925c-.291-7.927-1.671-9.381-9.125-9.762-3.971-.2-8.052-.65-11.923-.012-15.83,2.614-31.743,1.845-47.652,1.8-11.93-.035-23.864.022-35.789.332-5.424.141-19.087,10.172-19.485,14.527-.7,7.663-1.607,14.484,5.891,21.343,6.657,6.089,13.042,8.52,21.076,8.554C167.205,454.962,200.337,454.883,237.153,454.883Zm64.12-1.606c1.837.689,3.067,1.571,4.274,1.542,34.428-.846,68.853-1.889,103.284-2.623,7.332-.156,11.869-4.721,17.292-8.429,3.455-2.362,7-4.318,7.031-8.685.032-5.21.357-11.211-3.666-14.971-5.5-5.142-10.229-10.518-19.929-10.379-29.756.427-59.614,2.221-89.321-1.636a60.737,60.737,0,0,0-7.954-.188c-8.887.021-9.43.394-9.084,8.6C303.722,428.885,303.606,441.219,301.273,453.277ZM115.491,344.2c-1.012-12.933-1.4-24.206-2.9-35.332a115.473,115.473,0,0,1,.834-35.582c5.654-32.645,25.912-51.885,58.9-54.267,7.916-.572,15.92.2,23.878.051,7.274-.132,14.561-.459,21.791-1.2,1.4-.144,3.274-2.415,3.678-4.02a5.7,5.7,0,0,0-2.976-6.663c-3.648-2.027-7.484-1.9-11.54-1.832-19.085.3-38.117,3.887-57.315-.459-6.458-1.462-12.37,3.96-18.311,6.817-3.377,1.624-3.921,4.772-5.107,7.928-3.29,8.756-8.2,15.857-17.242,20.519-11.881,6.126-14.346,16.5-9.172,29.462.946,2.371,2.053,5.136,1.677,7.5-1.438,9.023.1,18.414-4.048,27.14-3.811,8.018-1.253,15.545,3.8,22.21,1.958,2.584,4.788,4.492,7.1,6.825C111.256,336.028,109.09,341.236,115.491,344.2Zm152.7,107.767v-.075c3.313,0,6.648.241,9.936-.045,11-.957,16.592-6.95,16.908-17.958.076-2.643.355-5.425-.307-7.918-2.606-9.819-6.64-19.4-17.093-22.6-14.307-4.376-26.415.059-32.871,10.825-8.492,14.164-5.881,38.743,19.451,37.774C265.539,451.925,266.866,451.969,268.192,451.969Zm-60.53-273.957c6.67-4.192,12.069-7.869,17.743-11.057,4.035-2.268,5.778-5.405,5-9.77-1.176-6.559-2.1-13.043-.69-19.72,1.463-6.914-1.711-11.269-8.038-14.035a62.621,62.621,0,0,1-10.245-6.019c-5.661-3.9-8.154-1.69-9.546,4.2-.745,3.16-3.358,3.784-6.063,2.35-5.374-2.849-8.856-.212-11.668,3.918-8.293,12.18-5.849,27.215,6.242,37.322,1.99,1.663,5.21,2.08,6.5-1.306,1.658-4.336,2.617-8.934,8.245-10.045,1.985-.392,4-1.014,5.391.638a3.564,3.564,0,0,1-.182,3.486C204.927,163.3,204,169.318,207.662,178.012ZM295.12,91.547c-.844-3.228-2.436-4.1-4.474-4.357-4.051-.516-8.405-.567-10.607,3.3-3.906,6.86-9.944,4.906-15.692,4.753-5.473-.145-10.47-.974-13.015-6.835-2.3-5.3-6.982-5.29-11.73-4.733-3.188.374-4.841,2.368-3.526,5.314,5.246,11.748,11.008,22.338,27.42,18.044,6.249-1.635,13.02.41,19.36,2.575,1.515.517,4.41-.056,5.311-1.2C292.263,103.221,295.009,97.335,295.12,91.547Zm-8-18.533c-.633-1.4-.949-3.682-2.256-4.737-9.449-7.627-20.048-9.365-31.518-5.3-5.063,1.792-11.209,3.961-10.951,9.868.188,4.284,6.35,3.3,10.062,4.237,4.354,1.1,5.258,5.554,7.812,8.416,2.171,2.434,6.874,4.3,8.812,1.614,4.435-6.159,10.232-9.477,17-11.864C286.51,75.093,286.639,74.094,287.118,73.014Zm60.3,69.352c-.587-5.157-.206-10.644-3.649-15.156-1.138-1.492-2.148-3.675-4.624-2.966-1.149.328-3.022,1.29-3.026,1.972-.036,8-8.891,9.895-10.994,15.527-2.7,7.234,8.875,10.959,7.218,19.246-.535,2.677,1.859,5.644,4.581,5.272,2.138-.292,4.471-2.7,5.79-4.759C346.388,155.759,347.427,149.192,347.418,142.366Z"/><path class="b" d="M301.493,154.13c-9.132,15.1-9.132,15.1-25.112,23.723.873.742,1.639,1.938,2.586,2.1,3.629.632,8.115-1.993,10.619,2.725,1.7,3.2-1.314,6.117-8.752,8.31-2.286.674-5.13-.085-6.714,3.651,10.869.366,21.3,1.6,30.507,7.794,2.586,1.739,6.306,2.11,9.576,2.466,22.361,2.436,44.729,5,67.007-.895,7.626-2.017,18.437,1.649,22.2,9.586,5.624,11.869,15.288,19.867,24.223,28.455,8.688,8.35,10.421,18,8.388,28.734-2.22,11.727-4.962,22.808,1.093,34.7,4.908,9.637,1.338,19.7-5.228,27.883-4.7,5.86-7.407,12.265-9.918,19.258-4.913,13.682-5.608,25.453,7.377,35.458,4.749,3.659,2.337,10.455-3.611,12.131a50.361,50.361,0,0,1-11.68,2.155c-9.962.36-19.94.269-29.912.3-26.63.081-53.261.023-79.889.28-5.551.054-10.568-.46-14.751-4.463a14.937,14.937,0,0,0-10.931-4.059c-8.652.1-17.306.183-25.956.414-1.955.051-4.341.073-5.77,1.132-11.822,8.758-25.144,6.033-38.328,5.779-20.589-.4-41.193-.044-61.79.006-8.655.021-17.313.24-25.965.082-13.893-.254-15.58-2.469-10.773-15.049,2.087-5.46,2.423-11.474,6.71-16.406,2.2-2.528,1.548-7.531,2.185-11.416l-.308.275c5.64,3.361,6.724,9.525,8.814,14.912,3.007,7.748,8.76,11.342,16.547,12.407a61.9,61.9,0,0,0,7.948.628c23.923.161,47.848.2,71.77.435,4.472.044,7.658-1.519,9.761-5.392,1.539-2.835,1.679-6.531,4.933-8.309,5.936-3.244,4.826-8.861,4.786-14.085q-.279-35.892-.623-71.786c-.138-16.621-.206-33.243-.38-49.863-.073-6.943-1.463-12.673-9.113-15.949-7.773-3.33-5.206-11.2-5.45-17.614-.209-5.468,1.929-8.614,7.775-9.417,3.858-.531,7.635-2.066,11.286-3.55,2.278-.926,1.391-2.5.473-4.436-3.445-7.285-3.3-7.464,3.378-8.109,2.565-.248,5.287.749,7.543-1.238-1.493-3.388-5.1-3.924-7.831-5.569-12.951-7.8-17.36-19.277-15.507-33.894A26.985,26.985,0,0,1,259.9,114.545c13.861-.887,26.425,2.041,36.111,12.977,1.623,1.832,2.715,4.484,5.746,4.611,8.578-10.344,8.6-10.292,17.784-14.8,2.479-1.216,5.148-2.416,7.015.112a8.016,8.016,0,0,1,.136,9.355,22.76,22.76,0,0,1-2.713,2.866c-8.6,9.445-9.783,15.148-2.5,25.832,4.25,6.235,4.88,12.15,3.344,18.736-.593,2.545-3.037,4.866-6.023,3.249a78.954,78.954,0,0,1-13.3-8.616c-4.189-3.52-.865-8.9-2.03-13.29,3.836-3.564,4.979-7.453,1.345-11.838-.28-.338-1.244-.6-1.482-.406C299.651,146.381,300.589,150.266,301.493,154.13ZM250.944,155.2l-.334-.337c-.456.485-1.393,1.111-1.3,1.435,2.806,9.554,11.421,15.658,19.876,14.189,14.618-2.539,21.876-11.562,21.547-26.424-.245-11.107-4.972-19.229-15.458-23.306-9.6-3.732-18.6-1.873-25.77,5.337-7.768,7.811-9.174,17.42-4.961,27.578C245.69,156.426,248.238,157.067,250.944,155.2ZM350.15,387.72l0-1.806c13.3,0,26.594.173,39.886-.062,8.8-.155,14.935-4.065,17.782-13.054,9.275-29.281,15.861-58.949,15.24-89.914-.2-10.139-1.8-20.153-5.907-29.137-9.46-20.675-24.963-34.5-48.74-35.508-17.871-.76-35.8-.195-53.7-.072-2.6.018-6.039-.039-7.643,1.473-7.748,7.307-20.171,12.039-16.028,26.621a20.094,20.094,0,0,1,.286,5.962c-.5,16.473,1.972,32.822.148,49.482-1.2,10.93-3.446,22.874.529,33.58a36.88,36.88,0,0,1,.952,23.26c-1.029,3.95-1.627,7.8-.01,11.7,5.569,13.433,12.292,17.672,27.3,17.5C330.208,387.626,340.18,387.72,350.15,387.72Zm-62.963-71.341c.2-26.693-2.589-19.559-22.536-21.032a23.964,23.964,0,0,0-5.955.435c-5.79,1.052-9.358,5.281-9.042,11.156.285,5.294.87,10.593,1.681,15.834.933,6.029,2.819,7.811,9.213,8.265,6.588.469,13.186,1.608,19.827-.3,4.451-1.278,6.757-3.784,6.809-8.373C287.206,320.369,287.187,318.374,287.187,316.379ZM243.5,203.269c-.531,6.731,3.2,11.01,3.042,16.557-.182,6.241,3.961,9.1,10.2,9.218,6.615.123,12.93-2.095,19.71-1.941,7.289.166,10.945-4.733,9.287-16.123-1.047-7.193-1.072-7.647-10.476-7.7C264.659,203.225,254.055,203.269,243.5,203.269Zm38.814,37.5c-9.387-3.883-18.768-1.225-27.885-2.04a5.649,5.649,0,0,0-5.667,4.7c-1.132,6.48-2.182,13.068.35,19.5,1.874,4.759,5.444,7.677,10.57,7.49a159.231,159.231,0,0,0,19.562-1.867c4.43-.715,6.825-3.911,6.166-8.591C284.494,253.5,283.337,247.072,282.309,240.769Zm11.358,144.465c-17.828-4.09-31.64-5.086-45.668-3.18-.653.088-1.549,2.094-1.426,3.1.111.906,1.451,2.365,2.268,2.378C262.369,387.732,276,389.727,293.667,385.234Zm-43.984-17.39c1.579,1.735,2.355,3.394,3.284,3.484,8.516.827,17.051,1.536,25.6,1.883,1.709.071,3.524-1.484,5.211-2.43.521-.293,1.2-1.174,1.08-1.577-.334-1.15-1.1-3.165-1.587-3.135C272.305,366.751,261.065,364.135,249.683,367.844Z"/><path class="b" d="M172.817,366.8H140.441c6.425-6.527,12.462-6.405,19.224-4.042a4.543,4.543,0,0,0,6.164-3.307,8.543,8.543,0,0,0-1.825-7.4c-1.7-2.193-4.926-4.572-6.6-2.782-4.737,5.067-8.7,4.686-13.245.282-.359-.348-1.233-.195-1.869-.224-11.735-.529-12-.52-12.275-10.7-.247-9.279-.11-18.59.354-27.862,1.137-22.714,13.061-38.317,32.821-48.507,16.307-8.408,33.98-11.006,51.985-11.3,11.872-.191,18.613,6.424,18.38,18.459-.552,28.5-1.8,56.988-2.871,85.476-.038,1.01-1.1,2.164-1.979,2.913-1.037.885-2.185.312-3.041-1.165-1.307-2.256-2.314-4.794-4.038-6.672-2.229-2.43-4.982-1.384-6.883.634-5.164,5.482-3.319,10.847,4.2,12.526a42.387,42.387,0,0,0,5.049.546c.189,1.153.281,1.712.372,2.272l-15.6,2.169c-4.059-5.505.458-12.376-3.791-17.19-1.193-1.353-3.269-2.724-4.892-2.669-1.508.051-3.853,1.747-4.24,3.155-.86,3.128-.82,6.524-.975,9.82-.3,6.46-1.227,7.812-5.679,7.272-3.9-.474-5.959-2.293-4.237-6.607a10.808,10.808,0,0,0-.989-9.553c-1.332-2.353-3.418-4.174-6.429-3.8a6.857,6.857,0,0,0-5.84,4.582C169.781,357.877,173.14,362.115,172.817,366.8Zm32.373-49.555c-.111-3.213-1.478-6.235-4.106-6.293-3.07-.069-3.595,3.286-3.661,6.027-.067,2.776.435,6,3.64,5.914C203.9,322.812,204.981,319.753,205.19,317.243Zm.121,19.148c.284-2.637-1.088-4.038-3.091-4.259-3.891-.428-5.757,2.1-6.231,5.536a3.646,3.646,0,0,0,3.272,4.028C203.493,342.422,204.486,339.234,205.311,336.391Zm-60.485,1.685c-.158-3.112-.865-6.187-4.8-6.451-2.137-.144-3.291,1.822-3.481,3.749-.343,3.477,1.093,6.175,4.8,6.571C143.559,342.182,144.358,340.149,144.826,338.076Zm16.123-22.633c-1.377-1.262,1.017-5.674-3.043-5.337-2.982.248-3.046,3.834-2.987,6.371.042,1.847.6,4.182,3.133,3.924C160.316,320.169,160.886,318.122,160.949,315.443Zm21.482-.875c.018-4.042-1.207-5.806-3.337-4.744a6.152,6.152,0,0,0-3.76,6.074c.075,2.945,2.616,6.035,4.433,5.11C182.455,319.639,182.412,317.076,182.431,314.568ZM222.7,336.236c.078-2.261-.826-4.191-2.856-4.525-3.207-.528-4.987,1.725-4.915,4.578.04,1.606,1.478,4.318,2.652,4.533C220.656,341.385,222,338.818,222.7,336.236Zm-42.547,5.342c2.011-.529,2.826-2.754,2.542-5.583-.26-2.581-3.774-5.16-5.423-3.862-2.119,1.669-3.465,4.006-2.385,6.83C175.568,340.752,176.573,342.55,180.15,341.578ZM162.8,336.612c-.26-4.082-2.319-5.641-5.059-4.9-2.78.754-3.112,3.506-2.845,6.2.308,3.1,2.167,4.866,4.955,4.06C162.544,341.194,163.022,338.4,162.8,336.612Zm57.185-19.744c-.326-2.086-1-4.029-3.407-3.767-.515.056-1.184,2.252-1.1,3.409.124,1.626-.113,4.3,2.853,3.393C219.147,319.655,219.482,317.859,219.987,316.868Zm-76.416-3.031c-.712-2.04-.956-4.61-3.041-3.844-1.085.4-1.6,3.263-1.73,5.058-.111,1.593.429,4.183,2.614,3.385C142.62,318,142.975,315.227,143.571,313.837Z"/><path class="b" d="M273.429,479.175c-47.024,0-92.978.018-138.931-.032a82.974,82.974,0,0,1-11.94-.778c-4.73-.7-7.38-4.945-7-10.428a7.733,7.733,0,0,1,7.8-7.491c17.869.034,35.737.314,53.606.437,11.247.077,22.5.145,33.74.025,14.624-.157,29.06.051,43.482,3.832,8.174,2.144,17.737,3.335,25.67,1.208,20.333-5.452,41.06-2.561,61.505-5,20.367-2.429,41.121-1.635,61.706-2.19,4.661-.126,9.34-.177,13.992.077,7.4.4,10.04,3.043,9.98,9.449-.051,5.462-2.288,7.634-8.971,8.14-4.645.352-9.319.352-13.981.436C360.175,477.647,316.265,478.418,273.429,479.175Z"/><path class="b" d="M237.153,454.883c-36.816,0-69.948.079-103.08-.056-8.034-.034-14.419-2.465-21.076-8.554-7.5-6.859-6.592-13.68-5.891-21.343.4-4.355,14.061-14.386,19.485-14.527,11.925-.31,23.859-.367,35.789-.332,15.909.048,31.822.817,47.652-1.8,3.871-.638,7.952-.191,11.923.012,7.454.381,8.834,1.835,9.125,9.762a130.128,130.128,0,0,1-.094,13.925A33.067,33.067,0,0,0,237.153,454.883ZM194,415.637v.325c-3.309-.2-6.617-.565-9.927-.587-7.659-.05-9.761,1.627-10.035,8.921-.957,25.409-.868,22.766,20.006,22.593,1.324-.011,2.651.169,3.976.146,12.517-.211,13.493-1.2,13.252-13.743-.076-3.971-.123-7.963-.57-11.9-.432-3.8-3.015-5.643-6.763-5.737C200.629,415.571,197.314,415.637,194,415.637Zm-39.149,17.652c-.758-14.787-1.935-15.92-15.844-14.974-1.3.089-2.59.317-3.887.466-8.053.928-8.668,1.568-9.109,9.5-1.045,18.784.716,20.613,19,19.7a38.455,38.455,0,0,0,3.9-.342c3.717-.571,5.68-2.868,5.912-6.529C154.985,438.513,154.852,435.9,154.852,433.289Z"/><path class="b" d="M301.273,453.277c2.333-12.058,2.449-24.392,1.927-36.767-.346-8.208.2-8.581,9.084-8.6a60.737,60.737,0,0,1,7.954.188c29.707,3.857,59.565,2.063,89.321,1.636,9.7-.139,14.43,5.237,19.929,10.379,4.023,3.76,3.7,9.761,3.666,14.971-.026,4.367-3.576,6.323-7.031,8.685-5.423,3.708-9.96,8.273-17.292,8.429-34.431.734-68.856,1.777-103.284,2.623C304.34,454.848,303.11,453.966,301.273,453.277Zm41.48-5.881v.084c4.587,0,9.185.189,13.76-.054,4.6-.243,6.866-2.851,7.018-7.584.68-21.2-1.578-23.691-22.664-24.5-17.813-.687-19.492.908-19.141,18.182.257,12.7,1.07,13.567,13.148,13.865C337.5,447.45,340.126,447.4,342.753,447.4Zm54.887-32.57v-.1c-1.991,0-3.986-.088-5.971.015-7.687.4-9.9,2.323-9.732,9.213a145.735,145.735,0,0,0,1.38,15.836c.624,4.627,3.724,6.77,8.3,6.714,19.955-.242,24.384,2.515,20.294-21.21-.336-1.951-.328-3.966-.725-5.9-.607-2.959-2.731-4.373-5.6-4.54C402.948,414.7,400.29,414.826,397.64,414.826Z"/><path class="b" d="M115.491,344.2c-6.4-2.966-4.235-8.174-6.948-10.907-2.316-2.333-5.146-4.241-7.1-6.825-5.049-6.665-7.607-14.192-3.8-22.21,4.146-8.726,2.61-18.117,4.048-27.14.376-2.36-.731-5.125-1.677-7.5-5.174-12.96-2.709-23.336,9.172-29.462,9.041-4.662,13.952-11.763,17.242-20.519,1.186-3.156,1.73-6.3,5.107-7.928,5.941-2.857,11.853-8.279,18.311-6.817,19.2,4.346,38.23.759,57.315.459,4.056-.064,7.892-.195,11.54,1.832a5.7,5.7,0,0,1,2.976,6.663c-.4,1.6-2.277,3.876-3.678,4.02-7.23.741-14.517,1.068-21.791,1.2-7.958.145-15.962-.623-23.878-.051-32.989,2.382-53.247,21.622-58.9,54.267a115.473,115.473,0,0,0-.834,35.582C114.088,320,114.479,331.269,115.491,344.2Z"/><path class="b" d="M268.192,451.969c-1.326,0-2.653-.044-3.976.006-25.332.969-27.943-23.61-19.451-37.774,6.456-10.766,18.564-15.2,32.871-10.825,10.453,3.2,14.487,12.778,17.093,22.6.662,2.493.383,5.275.307,7.918-.316,11.008-5.91,17-16.908,17.958-3.288.286-6.623.045-9.936.045Z"/><path class="b" d="M207.662,178.012c-3.667-8.694-2.735-14.714,2.688-20.033a3.564,3.564,0,0,0,.182-3.486c-1.4-1.652-3.406-1.03-5.391-.638-5.628,1.111-6.587,5.709-8.245,10.045-1.294,3.386-4.514,2.969-6.5,1.306-12.091-10.107-14.535-25.142-6.242-37.322,2.812-4.13,6.294-6.767,11.668-3.918,2.7,1.434,5.318.81,6.063-2.35,1.392-5.895,3.885-8.106,9.546-4.2a62.621,62.621,0,0,0,10.245,6.019c6.327,2.766,9.5,7.121,8.038,14.035-1.414,6.677-.486,13.161.69,19.72.783,4.365-.96,7.5-5,9.77C219.731,170.143,214.332,173.82,207.662,178.012Zm4.253-38.2c-.213-1.22.008-2.992-.716-3.562-2.972-2.339-6.245-4.293-9.38-6.426-1.487-1.012-2.5-.735-3.014.987-.346,1.153-1.04,2.438-.8,3.491,1.383,6.167,7.491,6.056,11.759,8.354A20.991,20.991,0,0,0,211.915,139.811Zm.326,10.513c.44-.4,1.193-.762,1.233-1.2s-.631-.932-.991-1.4q-.692.918-1.384,1.835Z"/><path class="b" d="M295.12,91.547c-.111,5.788-2.857,11.674-6.953,16.864-.9,1.142-3.8,1.715-5.311,1.2-6.34-2.165-13.111-4.21-19.36-2.575-16.412,4.294-22.174-6.3-27.42-18.044-1.315-2.946.338-4.94,3.526-5.314,4.748-.557,9.429-.567,11.73,4.733,2.545,5.861,7.542,6.69,13.015,6.835,5.748.153,11.786,2.107,15.692-4.753,2.2-3.868,6.556-3.817,10.607-3.3C292.684,87.45,294.276,88.319,295.12,91.547Z"/><path class="b" d="M287.118,73.014c-.479,1.08-.608,2.079-1.036,2.23-6.771,2.387-12.568,5.7-17,11.864-1.938,2.69-6.641.82-8.812-1.614-2.554-2.862-3.458-7.314-7.812-8.416-3.712-.94-9.874.047-10.062-4.237-.258-5.907,5.888-8.076,10.951-9.868,11.47-4.061,22.069-2.323,31.518,5.3C286.169,69.332,286.485,71.614,287.118,73.014Z"/><path class="b" d="M347.418,142.366c.009,6.826-1.03,13.393-4.7,19.136-1.319,2.06-3.652,4.467-5.79,4.759-2.722.372-5.116-2.595-4.581-5.272,1.657-8.287-9.92-12.012-7.218-19.246,2.1-5.632,10.958-7.53,10.994-15.527,0-.682,1.877-1.644,3.026-1.972,2.476-.709,3.486,1.474,4.624,2.966C347.212,131.722,346.831,137.209,347.418,142.366Z"/><path class="b" d="M118.881,358.964a3.346,3.346,0,0,1-3.165-3.482c-.013-.918.951-1.849,1.473-2.774.281.423.743.819.811,1.274.261,1.74.395,3.5.575,5.255Z"/><path class="a" d="M350.15,387.72c-9.97,0-19.942-.094-29.911.022-15.008.174-21.731-4.065-27.3-17.5-1.617-3.9-1.019-7.749.01-11.7a36.88,36.88,0,0,0-.952-23.26c-3.975-10.706-1.726-22.65-.529-33.58,1.824-16.66-.644-33.009-.148-49.482a20.094,20.094,0,0,0-.286-5.962c-4.143-14.582,8.28-19.314,16.028-26.621,1.6-1.512,5.045-1.455,7.643-1.473,17.9-.123,35.832-.688,53.7.072,23.777,1.012,39.28,14.833,48.74,35.508,4.11,8.984,5.7,19,5.907,29.137.621,30.965-5.965,60.633-15.24,89.914-2.847,8.989-8.978,12.9-17.782,13.054-13.292.235-26.59.062-39.886.062ZM301.8,309.6h-.118c0,2.657-.03,5.315,0,7.972.141,10.609.537,21.223.36,31.827a24.166,24.166,0,0,0,5.022,14.793c2.713,3.79,7.625,1.025,11.069,2.617,8.407,3.887,17-.881,25.492.933,2.288.489,5.314-1.355,2.543-4.9a4.784,4.784,0,0,1-1.117-1.629c-1.237-5.829.906-9.933,5.425-10.546,3.6-.488,6.512,2.691,7.025,7.9.125,1.27-.419,2.592-.437,3.893-.078,5.658,2.009,8.424,5.87,6.81,7.951-3.323,15.711-1.117,23.539-.632,9.875.61,12.067-.294,14-9.439,4.764-22.534,3.211-44.687-3.948-66.707-4.891-15.046-14.852-25.389-28.389-31.687a83.527,83.527,0,0,0-56.13-5.448c-7.649,1.868-9.932,4.5-10.12,12.461C301.565,281.736,301.8,295.668,301.8,309.6Z"/><path class="a" d="M250.944,155.2c-2.706,1.87-5.254,1.229-6.4-1.528-4.213-10.158-2.807-19.767,4.961-27.578,7.168-7.21,16.172-9.069,25.77-5.337,10.486,4.077,15.213,12.2,15.458,23.306.329,14.862-6.929,23.885-21.547,26.424-8.455,1.469-17.07-4.635-19.876-14.189-.095-.324.842-.95,1.3-1.435,4.348,1.476,8.64,3.15,13.057,4.373a13.759,13.759,0,0,0,13.1-2.671c5.927-4.879,7.75-11.762,4.988-19.784-2.4-6.983-7.639-10.425-15.35-10.094-7.5.321-14.773,5.574-15.82,12.7C249.831,144.526,250.764,149.917,250.944,155.2Z"/><path class="a" d="M287.187,316.379c0,2,.019,3.99,0,5.985-.052,4.589-2.358,7.1-6.809,8.373-6.641,1.908-13.239.769-19.827.3-6.394-.454-8.28-2.236-9.213-8.265-.811-5.241-1.4-10.54-1.681-15.834-.316-5.875,3.252-10.1,9.042-11.156a23.964,23.964,0,0,1,5.955-.435C284.6,296.82,287.392,289.686,287.187,316.379ZM268.263,304.1c-1.542,0-2.2-.011-2.855,0-7.463.148-10.52,2.753-10.106,8.611.438,6.219,3.988,9.838,9.932,9.635,3.249-.111,6.71-.283,9.657-1.469,4.235-1.7,4.908-5.74,4.294-9.9-.509-3.447-1.864-6.278-5.916-6.589C271.309,304.234,269.344,304.158,268.263,304.1Z"/><path class="a" d="M243.5,203.269c10.56,0,21.164-.044,31.767.013,9.4.051,9.429.5,10.476,7.7,1.658,11.39-2,16.289-9.287,16.123-6.78-.154-13.1,2.064-19.71,1.941-6.243-.116-10.386-2.977-10.2-9.218C246.7,214.279,242.964,210,243.5,203.269Zm24.636,20.579a31.241,31.241,0,0,0,5.679-.586,5.723,5.723,0,0,0,4.574-5.693c.1-3.765-2.251-3.52-5.111-3.789-4.514-.425-8.9-2.065-13.417-2.66-2.757-.364-5.1.941-5.48,4.237a5.607,5.607,0,0,0,3.791,6.263C261.256,222.743,264.624,223.1,268.131,223.848Z"/><path class="a" d="M282.309,240.769c1.028,6.3,2.185,12.733,3.1,19.2.659,4.68-1.736,7.876-6.166,8.591a159.231,159.231,0,0,1-19.562,1.867c-5.126.187-8.7-2.731-10.57-7.49-2.532-6.433-1.482-13.021-.35-19.5a5.649,5.649,0,0,1,5.667-4.7C263.541,239.544,272.922,236.886,282.309,240.769ZM268.548,243.5c-9.957.311-14.281,3.449-13.788,9.993.435,5.772,3.912,8.174,13.015,8.947,1.306.111,2.76.473,3.9.057a11.107,11.107,0,0,0,4.786-2.878c2.657-3.262,3.115-10.475,1-13.016C275.185,243.856,271.916,243.418,268.548,243.5Z"/><path class="a" d="M293.667,385.234c-17.671,4.493-31.3,2.5-44.826,2.294-.817-.013-2.157-1.472-2.268-2.378-.123-1,.773-3.008,1.426-3.1C262.027,380.148,275.839,381.144,293.667,385.234Z"/><path class="a" d="M249.683,367.844c11.382-3.709,22.622-1.093,33.584-1.775.489-.03,1.253,1.985,1.587,3.135.116.4-.559,1.284-1.08,1.577-1.687.946-3.5,2.5-5.211,2.43-8.545-.347-17.08-1.056-25.6-1.883C252.038,371.238,251.262,369.579,249.683,367.844Z"/><path class="a" d="M301.493,154.13c-.9-3.864-1.842-7.749,1.846-10.793.238-.2,1.2.068,1.482.406,3.634,4.385,2.491,8.274-1.345,11.838A21.534,21.534,0,0,0,301.493,154.13Z"/><path class="a" d="M205.19,317.243c-.209,2.51-1.291,5.569-4.127,5.648-3.2.089-3.707-3.138-3.64-5.914.066-2.741.591-6.1,3.661-6.027C203.712,311.008,205.079,314.03,205.19,317.243Z"/><path class="a" d="M205.311,336.391c-.825,2.843-1.818,6.031-6.05,5.305a3.646,3.646,0,0,1-3.272-4.028c.474-3.432,2.34-5.964,6.231-5.536C204.223,332.353,205.6,333.754,205.311,336.391Z"/><path class="a" d="M144.826,338.076c-.468,2.073-1.267,4.106-3.478,3.869-3.709-.4-5.145-3.094-4.8-6.571.19-1.927,1.344-3.893,3.481-3.749C143.961,331.889,144.668,334.964,144.826,338.076Z"/><path class="a" d="M160.949,315.443c-.063,2.679-.633,4.726-2.9,4.958-2.533.258-3.091-2.077-3.133-3.924-.059-2.537,0-6.123,2.987-6.371C161.966,309.769,159.572,314.181,160.949,315.443Z"/><path class="a" d="M182.434,314.569c-.022,2.507.021,5.07-2.667,6.439-1.817.925-4.358-2.165-4.433-5.11a6.152,6.152,0,0,1,3.76-6.074C181.224,308.762,182.449,310.526,182.434,314.569Z"/><path class="a" d="M222.7,336.236c-.695,2.582-2.041,5.149-5.119,4.586-1.174-.215-2.612-2.927-2.652-4.533-.072-2.853,1.708-5.106,4.915-4.578C221.871,332.045,222.775,333.975,222.7,336.236Z"/><path class="a" d="M180.15,341.578c-3.577.972-4.582-.826-5.266-2.615-1.08-2.824.266-5.161,2.385-6.83,1.649-1.3,5.163,1.281,5.423,3.862C182.976,338.824,182.161,341.049,180.15,341.578Z"/><path class="a" d="M162.8,336.612c.22,1.787-.258,4.582-2.949,5.36-2.788.806-4.647-.959-4.955-4.06-.267-2.693.065-5.445,2.845-6.2C160.483,330.971,162.542,332.53,162.8,336.612Z"/><path class="a" d="M219.987,316.868c-.5.991-.84,2.787-1.65,3.035-2.966.908-2.729-1.767-2.853-3.393-.088-1.157.581-3.353,1.1-3.409C218.987,312.839,219.661,314.782,219.987,316.868Z"/><path class="a" d="M143.571,313.837c-.6,1.39-.951,4.159-2.157,4.6-2.185.8-2.725-1.792-2.614-3.385.125-1.8.645-4.66,1.73-5.058C142.615,309.227,142.859,311.8,143.571,313.837Z"/><path class="a" d="M194,415.637c3.313,0,6.628-.066,9.938.017,3.748.094,6.331,1.935,6.763,5.737.447,3.938.494,7.93.57,11.9.241,12.54-.735,13.532-13.252,13.743-1.325.023-2.652-.157-3.976-.146-20.874.173-20.963,2.816-20.006-22.593.274-7.294,2.376-8.971,10.035-8.921,3.31.022,6.618.382,9.927.587Zm-4.462,6.389c-1.957.089-3.275.134-4.592.212-4.3.254-6.545,3.943-5.355,8.45,1.11,4.2,3.381,7.2,7.9,7.617,5.28.492,10.645.9,14.2-4.416,2.182-3.259.61-8.892-3.079-9.974C195.462,422.99,192.166,422.555,189.539,422.026Z"/><path class="a" d="M154.852,433.289c0,2.608.133,5.224-.032,7.821-.232,3.661-2.195,5.958-5.912,6.529a38.455,38.455,0,0,1-3.9.342c-18.282.911-20.043-.918-19-19.7.441-7.93,1.056-8.57,9.109-9.5,1.3-.149,2.587-.377,3.887-.466C152.917,417.369,154.094,418.5,154.852,433.289Zm-15.411-9.1c-4.924.1-8.187,2.579-8.256,6.282-.081,4.386,4.11,7.848,9.361,7.733a7.1,7.1,0,0,0,6.956-7.656C147.286,426.411,144.35,424.1,139.441,424.191Z"/><path class="a" d="M342.753,447.4c-2.627,0-5.255.054-7.879-.011-12.078-.3-12.891-1.167-13.148-13.865-.351-17.274,1.328-18.869,19.141-18.182,21.086.813,23.344,3.3,22.664,24.5-.152,4.733-2.422,7.341-7.018,7.584-4.575.243-9.173.054-13.76.054Zm-4-8.87c1.092-.065,3.049-.09,4.98-.325a35.835,35.835,0,0,0,5.74-1.066c3.479-1.015,5.436-3.363,5.349-7.1-.084-3.62-1.809-6.2-5.347-7.175a84.52,84.52,0,0,0-11.354-2.611c-5.288-.7-8.85,2.68-8.764,7.76C329.479,435.15,332.119,438.4,338.755,438.526Z"/><path class="a" d="M397.64,414.826c2.65,0,5.308-.123,7.949.033,2.865.167,4.989,1.581,5.6,4.54.4,1.934.389,3.949.725,5.9,4.09,23.725-.339,20.968-20.294,21.21-4.575.056-7.675-2.087-8.3-6.714a145.735,145.735,0,0,1-1.38-15.836c-.171-6.89,2.045-8.815,9.732-9.213,1.985-.1,3.98-.015,5.971-.015Zm8.1,10.924c-.266-2.506-3.55-5.469-8.68-5.343-4.113.1-6.578,3.25-6.3,8.042.291,4.954,3.711,7.279,9.689,6.451C404.091,434.4,406.355,432.541,405.736,425.75Z"/><path class="a" d="M211.915,139.811a20.991,20.991,0,0,1-2.154,2.844c-4.268-2.3-10.376-2.187-11.759-8.354-.237-1.053.457-2.338.8-3.491.517-1.722,1.527-2,3.014-.987,3.135,2.133,6.408,4.087,9.38,6.426C211.923,136.819,211.7,138.591,211.915,139.811Z"/><path class="a" d="M212.241,150.324l-1.142-.763q.693-.917,1.384-1.835c.36.471,1.032.97.991,1.4S212.681,149.928,212.241,150.324Z"/><path class="b" d="M301.8,309.6c0-13.927-.237-27.859.091-41.778.188-7.966,2.471-10.593,10.12-12.461a83.527,83.527,0,0,1,56.13,5.448c13.537,6.3,23.5,16.641,28.389,31.687,7.159,22.02,8.712,44.173,3.948,66.707-1.933,9.145-4.125,10.049-14,9.439-7.828-.485-15.588-2.691-23.539.632-3.861,1.614-5.948-1.152-5.87-6.81.018-1.3.562-2.623.437-3.893-.513-5.214-3.424-8.393-7.025-7.9-4.519.613-6.662,4.717-5.425,10.546a4.784,4.784,0,0,0,1.117,1.629c2.771,3.546-.255,5.39-2.543,4.9-8.487-1.814-17.085,2.954-25.492-.933-3.444-1.592-8.356,1.173-11.069-2.617a24.166,24.166,0,0,1-5.022-14.793c.177-10.6-.219-21.218-.36-31.827-.035-2.657,0-5.315,0-7.972Zm8.906,46.12c.286,5.982,2.019,7.981,4.879,7.9,2.557-.078,4.992-1.368,5.582-4.433.122-.636.448-1.4.231-1.91-2.537-6.014-1.362-12.042-.268-18.1a2.734,2.734,0,0,0-.649-1.706c-.363-.523-.941-1.287-1.406-1.274a16.111,16.111,0,0,0-3.343.677C317.348,344.889,311.175,351.144,310.708,355.715Zm1.847-43.541c0,4.2-.121,5.512.028,6.788.241,2.075,1.426,3.59,3.564,3.667,2.272.083,3.42-1.555,3.681-3.619a12.128,12.128,0,0,0-.289-3.823c-.542-2.719-1.882-5.1-4.991-4.66C312.284,310.847,312.523,313.248,312.555,312.174Zm66.212,44.688c-.113-4.5-2.485-6.364-6.122-6.439-4.149-.086-6.733,3.347-6.259,7.959.451,4.394,3.683,4.727,7.057,4.475C377.4,362.561,379.012,360.154,378.767,356.862Zm-39.631,1.761c.418-3.813-2.209-8.107-5.7-7.922A5.482,5.482,0,0,0,328,355.2c-.918,4.265,1.478,7.971,5.732,8.229C336.434,363.593,338.656,362.409,339.136,358.623Zm33.238-54.105c-2.275,6.2-2.261,10.635-1.053,15.023a3.373,3.373,0,0,0,2.585,1.9c1.015-.012,2.719-.946,2.91-1.764C378.016,314.553,377.443,309.745,372.374,304.518Zm6.287,33.068c-.207-3.482-3.325-6.459-6.178-5.912-3.206.613-3.9,3.255-4.167,5.777a5.1,5.1,0,0,0,6.027,5.622C377.481,342.573,378.37,340.319,378.661,337.586Zm-21.175,1.671c-.632-3.2-1.893-6.21-5.723-6.569-2.492-.233-5.532,4.85-4.684,7.62.879,2.87,3.378,3.906,6.034,4.117C356.579,344.7,357.371,342.246,357.486,339.257Zm32.331,23.732c1.144-.465,2.688-.608,3.361-1.449,2.631-3.291,2.451-6.971.4-10.454-1.371-2.333-3.414-1.037-4.753.009-3.5,2.736-3.378,6.522-2.024,10.243C387.1,362.147,388.774,362.453,389.817,362.989Zm4.962-24.814c-.587-1.845.761-5.31-3.153-5.134-1.992.089-3.143,1.936-3.417,3.986-.373,2.8.18,5.227,3.576,5.248C394.018,342.288,394.783,340.5,394.779,338.175Zm-44.768-19.3c2.663.492,3.7-1.172,4.247-2.977a5.838,5.838,0,0,0-2.468-6.655,2.515,2.515,0,0,0-4.1,1.761C347.239,313.917,346.274,317.321,350.011,318.877Zm-18.679-5.12c-2.554,1.624-3.32,3.963-1.939,6.555.458.861,2.557,1.779,3.253,1.416,2.7-1.409,2.88-3.889,1.818-6.578C333.83,313.547,332.846,313.06,331.332,313.757Z"/><path class="b" d="M250.944,155.2c-.18-5.28-1.113-10.671-.358-15.814,1.047-7.125,8.324-12.378,15.82-12.7,7.711-.331,12.945,3.111,15.35,10.094,2.762,8.022.939,14.905-4.988,19.784a13.759,13.759,0,0,1-13.1,2.671c-4.417-1.223-8.709-2.9-13.057-4.373Z"/><path class="b" d="M268.263,304.1c1.081.061,3.046.137,5.006.288,4.052.311,5.407,3.142,5.916,6.589.614,4.162-.059,8.2-4.294,9.9-2.947,1.186-6.408,1.358-9.657,1.469-5.944.2-9.494-3.416-9.932-9.635-.414-5.858,2.643-8.463,10.106-8.611C266.064,304.086,266.721,304.1,268.263,304.1Z"/><path class="b" d="M268.131,223.848c-3.507-.745-6.875-1.105-9.964-2.228a5.607,5.607,0,0,1-3.791-6.263c.379-3.3,2.723-4.6,5.48-4.237,4.513.595,8.9,2.235,13.417,2.66,2.86.269,5.21.024,5.111,3.789a5.723,5.723,0,0,1-4.574,5.693A31.241,31.241,0,0,1,268.131,223.848Z"/><path class="b" d="M268.548,243.5c3.368-.086,6.637.352,8.921,3.1,2.11,2.541,1.652,9.754-1,13.016a11.107,11.107,0,0,1-4.786,2.878c-1.143.416-2.6.054-3.9-.057-9.1-.773-12.58-3.175-13.015-8.947C254.267,246.953,258.591,243.815,268.548,243.5Z"/><path class="b" d="M189.539,422.026c2.627.529,5.923.964,9.077,1.889,3.689,1.082,5.261,6.715,3.079,9.974-3.557,5.312-8.922,4.908-14.2,4.416-4.52-.42-6.791-3.413-7.9-7.617-1.19-4.507,1.058-8.2,5.355-8.45C186.264,422.16,187.582,422.115,189.539,422.026Z"/><path class="b" d="M139.441,424.191c4.909-.1,7.845,2.22,8.061,6.359a7.1,7.1,0,0,1-6.956,7.656c-5.251.115-9.442-3.347-9.361-7.733C131.254,426.77,134.517,424.288,139.441,424.191Z"/><path class="b" d="M338.755,438.526c-6.636-.131-9.276-3.376-9.4-10.515-.086-5.08,3.476-8.456,8.764-7.76a84.52,84.52,0,0,1,11.354,2.611c3.538.977,5.263,3.555,5.347,7.175.087,3.735-1.87,6.083-5.349,7.1a35.835,35.835,0,0,1-5.74,1.066C341.8,438.436,339.847,438.461,338.755,438.526Z"/><path class="b" d="M405.736,425.75c.619,6.791-1.645,8.645-5.288,9.15-5.978.828-9.4-1.5-9.689-6.451-.281-4.792,2.184-7.94,6.3-8.042C402.186,420.281,405.47,423.244,405.736,425.75Z"/><path class="a" d="M310.708,355.715c.467-4.571,6.64-10.826,5.026-18.848a16.111,16.111,0,0,1,3.343-.677c.465-.013,1.043.751,1.406,1.274a2.734,2.734,0,0,1,.649,1.706c-1.094,6.055-2.269,12.083.268,18.1.217.514-.109,1.274-.231,1.91-.59,3.065-3.025,4.355-5.582,4.433C312.727,363.7,310.994,361.7,310.708,355.715Z"/><path class="a" d="M312.555,312.174c-.032,1.074-.271-1.327,1.993-1.647,3.109-.438,4.449,1.941,4.991,4.66a12.128,12.128,0,0,1,.289,3.823c-.261,2.064-1.409,3.7-3.681,3.619-2.138-.077-3.323-1.592-3.564-3.667C312.434,317.686,312.555,316.378,312.555,312.174Z"/><path class="a" d="M378.767,356.862c.245,3.292-1.365,5.7-5.324,6-3.374.252-6.606-.081-7.057-4.475-.474-4.612,2.11-8.045,6.259-7.959C376.282,350.5,378.654,352.367,378.767,356.862Z"/><path class="a" d="M339.136,358.623c-.48,3.786-2.7,4.97-5.4,4.806-4.254-.258-6.65-3.964-5.732-8.229a5.482,5.482,0,0,1,5.436-4.5C336.927,350.516,339.554,354.81,339.136,358.623Z"/><path class="a" d="M372.374,304.518c5.069,5.227,5.642,10.035,4.442,15.158-.191.818-1.895,1.752-2.91,1.764a3.373,3.373,0,0,1-2.585-1.9C370.113,315.153,370.1,310.714,372.374,304.518Z"/><path class="a" d="M378.664,337.589c-.294,2.73-1.183,4.984-4.321,5.484a5.1,5.1,0,0,1-6.027-5.622c.263-2.522.961-5.164,4.167-5.777C375.336,331.127,378.454,334.1,378.664,337.589Z"/><path class="a" d="M357.486,339.257c-.115,2.989-.907,5.444-4.373,5.168-2.656-.211-5.155-1.247-6.034-4.117-.848-2.77,2.192-7.853,4.684-7.62C355.593,333.047,356.854,336.056,357.486,339.257Z"/><path class="a" d="M389.815,362.989c-1.041-.536-2.716-.842-3.01-1.651-1.354-3.721-1.478-7.507,2.024-10.243,1.339-1.046,3.382-2.342,4.753-.009,2.047,3.483,2.227,7.163-.4,10.454C392.505,362.381,390.961,362.524,389.815,362.989Z"/><path class="a" d="M394.779,338.175c0,2.32-.761,4.113-2.994,4.1-3.4-.021-3.949-2.452-3.576-5.248.274-2.05,1.425-3.9,3.417-3.986C395.54,332.865,394.192,336.33,394.779,338.175Z"/><path class="a" d="M350.011,318.877c-3.737-1.556-2.772-4.96-2.324-7.871a2.515,2.515,0,0,1,4.1-1.761,5.838,5.838,0,0,1,2.468,6.655C353.71,317.705,352.674,319.369,350.011,318.877Z"/><path class="a" d="M331.333,313.757c1.513-.7,2.5-.21,3.131,1.393,1.062,2.689.887,5.169-1.818,6.578-.7.363-2.8-.555-3.253-1.416C328.012,317.72,328.778,315.381,331.333,313.757Z"/></svg>