<svg xmlns="http://www.w3.org/2000/svg" viewBox="0 0 543.348 543.348"><defs><style>.a{fill:#1f1e15;}.b{fill:#fcfcfb;}</style></defs><path class="a" d="M269.98,507.337q-105.972,0-211.944,0c-5.331,0-10.662-.057-15.993-.114-3.88-.041-6.2-1.931-6.357-5.886-.186-4.656-.21-9.32-.21-13.982q-.015-215.884.011-431.77A144.56,144.56,0,0,1,36.1,39.637c.161-1.436,2.245-3.477,3.741-3.778,3.216-.649,6.625-.421,9.954-.422q221.942-.018,443.882-.007c2.666,0,5.334-.02,8,.1,3.706.171,6.345,1.7,6.483,5.833q.2,5.99.2,11.985.015,217.884.007,435.768c0,19.493,1.355,18.217-18.438,18.217ZM141.2,159.233l-4.863.538a28.087,28.087,0,0,0-2.683-4.741c-.584-.7-2.012-.7-3.059-1.02-.04,1.108-.56,2.62-.03,3.249a56.3,56.3,0,0,0,5.4,5.074c2.366,1.5,4,5.417,7.374,3.621,2.5-1.33,1.637-4.241.433-6.543l.453-6.227c3.772,1.452,3.792-1.765,4.981-3.819,4.823-8.333,5.067-15.985-2.615-22.915-6.219-5.609-8.023-13.318-9.935-21.068-1.055-4.276-.257-6.488,3.127-9.879,6.665-6.68,6.572-14.076,1.882-21.337-3.616-5.595-8.569-9.876-13.834-13.835-1.707-2.526-3.707-4.577-7.094-4.387-4.491-.118-9.084-.892-13.448-.208-7.232,1.134-10.138,5.218-10.958,13.33-.547,5.406-1.168,10.8-1.892,17.462l6.725-5.59,6.8.605c1.94,6.764-.079,11.527-6.733,14.441-6.188,2.71-12.5,4.5-19.279,4.086a25.74,25.74,0,0,0-16.8,5.2C53.515,113.7,50.341,124.628,60.09,135.6c1.319,1.486,2.609,3,3.955,4.46,14.631,15.884,17.535,15.852,32.67-.344a6.974,6.974,0,0,0,1.237-1.554c1.045-2.117,5.349-1.886,4.05-5.7-.549-1.612-7.1-1.649-9.122.24-1.924,1.8-3.248,4.309-5.315,5.875-9.136,6.919-18.944,4.481-24.735-5.864-1.379-2.462-2.213-4.914.093-7.134,3.311-3.188,5.85-1.218,8.086,1.582.821,1.028,1.338,2.382,2.325,3.177,2.992,2.411,5.97,2.6,8.419-.844,1.914-2.7,3.67-5.509,5.593-8.2,1.686-2.358,3.988-3,6.89-2.617,8.519,1.121,17.4-2.676,23.748-9.9,1.648-1.877,6.143-1.194,6.355,1.2a30.394,30.394,0,0,0,9.028,19.34c2.86,2.886,1.615,5.843.237,8.937-1.266,2.84.328,4.936,2.313,6.876,2.373,2.318,4.612,4.773,6.874,7.151Q142,155.756,141.2,159.233ZM384.39,411.744c.355,1.928,1.451,3.92,3.349,3.468,2.758-.656,1.267-2.75.48-4.3a9.214,9.214,0,0,0-1.176-1.489c-1.789-3.529-3.559-7.066-5.372-10.582-1.4-2.711-5.412-4.207-3.87-8.272.885-2.33,6.787-1.152,10.383,2.536,6.03,6.184,12.07,12.419,16.121,20.193,2.872,5.511.8,8.677-6.393,9.891-1.211.2-2.427.382-3.641.572,1.993,7.229,2.237,14.331-1.011,21.364-.335.725.776,2.955,1.642,3.257,4.883,1.692,6.487,6.336,9.536,9.7,5.707,6.305,13.959,4.572,17.624-3.151,2.1-4.428,2.068-8.9,1.848-13.614-.115-2.466.859-4.639,3.664-6.352,9.5-5.8,17.134-13.751,23.525-22.866,2.31-3.3,4.732-6.531,8.776-7.756a4.367,4.367,0,0,1,3.59.595c.817.725,1.53,2.635,1.134,3.494-3.277,7.106-7.126,14.065-1.567,21.88,5.161.771,8.572-2.878,12.335-5.348a6.434,6.434,0,0,0,2.9-6.9c-1.793-8.6-4.141-17.271-12-22.165-7.588-4.728-15.6-5.959-24.449-1.006-8.752,4.9-17.919,3.623-26.2-2.669-6.837-5.191-13.95-10.019-21.064-15.1-2.4,1.614-2.5,7.981-8.45,4.241-7.427-4.665-13.3-10.859-19.39-17.019-3.836-3.883-6.312-10.121-13.816-10.612-1.532,5.493-2.935,10.595-4.381,15.683-.974,3.426-.77,6.932,1.8,9.3C361.947,389.457,371.218,402.619,384.39,411.744ZM244.254,371.462l.2.259c.606-5.95,1.309-11.893,1.682-17.857.041-.659-1.74-1.9-2.776-2.026a4,4,0,0,0-3.215,1.372c-.609.891-.459,2.42-.363,3.649.293,3.762,2.284,8-2.791,10.2-3.418,1.486-5.614-1.056-7.644-9.155-.16-.638-.08-1.335-.211-1.984-.668-3.32-1.922-3.385-5.189-2.156-6.8,2.556-11.054.9-12.488-4.441-1.363-5.077-3.665-11.136-2.079-15.5,2.833-7.8,1.194-14.075-2.771-20.127-2.635-4.021.49-11.424-8.156-12.5,2.809,11.365,2.21,22.354-.567,33.482-3.431,13.745-.934,26.33,9.661,36.754,9.474,9.321,18.643,18.955,27.853,28.539a11.629,11.629,0,0,0,8.822,3.846c5.977-.031,12.023.39,17.911-.371a33.763,33.763,0,0,1,13.724.794c14.024,3.84,26.095,1.029,35.284-11.068,5.227-6.883,10.433-13.83,16.228-20.223,12.664-13.973,11.375-28.665,3.279-44.97-1.114,5.443-2.932,9.956-2.78,14.4.468,13.691-9.428,19.184-18.87,25.066-1.759,1.1-4.209-.376-4.681-2.256-.447-1.781.745-3.91.687-5.871a29.876,29.876,0,0,0-1.224-5.642c-1.309,1.225-3.714,2.427-3.741,3.679-.121,5.706-2.735,10.132-6,14.421-1.554,2.039.017,5.8-3.01,6.846-4.843,1.675-4.079-4.016-6.2-5.232-5-2.87-5.095-7.273-5.856-11.838-.126-.752-1.991-1.431-3.159-1.734-1.314-.341-2.127.671-2.162,2.371-.013.66.187,1.321.207,1.985.109,3.454-.177,6.8-4.465,7.532-4.516.769-5.261-2.5-6.2-5.859-.819-2.922-1.277-6.428-5.3-7.114C255.83,371.912,255.83,371.912,244.254,371.462Zm120.891-230.9c-2.611-4.627-5.24-9.244-7.832-13.881-16.469-29.468-43.706-36.656-74.674-35.936-4.438.1-9.021,6.622-8.307,11.708a15.224,15.224,0,0,0,2.778,7.271c4.364,5.353,6.256,10.26-.332,15.2,3.116,9.007-4.963,16.124-4.19,24.765.212,2.365,1.327,5.854-3.009,5.434-1.661-.16-3.6-1.677-4.662-3.124-5.116-6.939-5.08-9.257-.158-15.878,1.58-2.124,3.461-4.024,5.15-6.071,6.151-7.453,2.719-16.954-6.877-18.786-2.72-.518-6.25,2.525-8.515-2.509,2.374-3.679,4.991-7.482,7.343-11.442,3.4-5.723,1.85-8.438-4.737-9.046-15.83-1.46-29.885,4.152-44.192,9.937-20.73,8.384-32.186,24.825-41.182,43.865-1.163,2.463-2.016,5.752.087,7.457,7.363,5.971,3.7,15.088,6.962,22.162,3.9,8.461,3.485,16.816-1.521,24.755-5.218,8.275-3.25,16.422.17,24.6a3.322,3.322,0,0,0,6.063.055c6.431-14.091,17.839-18.869,32.421-17.726,6.647.521,13.257,1.777,19.182,4.984,2.193,1.188,5.438,3.642,5.331,5.336-.583,9.244,4.273,6.1,8.5,4.1,4.353-2.064,7.848-.1,11.021,2.25,1.311.972,2.73,3.985,2.17,4.95-5.161,8.887-7.443,20.654-20.137,22.64a31.118,31.118,0,0,0-14.368,6.513c-6.14,4.753-13.469,5.486-20.542,7.045-6.405,1.411-11.44-1.116-15.526-6.283-3.39-4.287-3.334-11.137-9.545-13.553-1.719,3.369-3.2,6.339-4.74,9.28-6.532,12.49-3.164,22.572,6.591,32.043,4.467,4.337,8.344,5.235,14.144,4,12.2-2.6,14.813-1.021,20.554,9.238a24.306,24.306,0,0,1,2.845,13.4c-.183,4.487-2.139,9.171.445,12.834,3.126.862,5.841,1.177,8.127,2.338,4.02,2.041,7.779,4.6,12.235,7.294,1.218-2.189,2.424-4.367,3.643-6.54,1.627-2.9,3.193-5.837,4.91-8.684,3.117-5.167,4.819-5.988,8.809-1.618,4.185,4.584,8.677,5.583,14.2,5.067,3.951-.37,7.924-1.126,11.853-.948,3.79.172,5.962,2.824,5.544,6.7-.275,2.549-1.881,5.036-1.794,7.513.052,1.481,1.985,3.234,3.489,4.248,2.473,1.669,3.71-.691,4.115-2.375.769-3.192.49-6.672,1.486-9.762.46-1.426,2.89-3.059,4.436-3.069,1.681-.012,3.629,1.5,4.96,2.844.758.765.647,2.516.694,3.832.091,2.6-.464,6.147,2.4,6.821,3.567.841,6.073-1.816,7.365-5.263a59.381,59.381,0,0,0,2.19-5.559c1.278-4.86,2.678-9.237,9.335-6.794.487.179,2.11-1.247,2.363-2.159a9.708,9.708,0,0,0-6.738-12.146c-6.2-1.967-7.155-3.944-4.256-8.042,3.892-5.5,8.694-6.615,15.484-6.062,17.621,1.435,30.327-15.6,23.334-31.472a100.593,100.593,0,0,1-5.169-15.911c-4.612,14.092-15.819,17.871-27.864,20.359-3.462.714-5.587-.133-7.415-4.121-3.8-8.291-8.224-15.8-20.3-13.74-14.458,2.465-15.849.931-21.837-13.167-1.513-3.565-2.854-7.2-4.2-10.614,6.967-2.213,14.407-3.461,20.677-6.863,7.181-3.9,16.4.356,22.4-6.564,15.884-4.974,29.267.835,36.414,15.53,1.329,2.733-.187,7.937,4.153,7.92,5.383-.022,3.931-5.814,5.222-9.089,2.409-6.11-.188-12.128-2.889-17.154a25.288,25.288,0,0,1-2.43-17.318c1.545-8.415,3.854-16.689,5.837-25.024,3.8,2.223,5.233,5.464,5.262,9.914.06,9.3.314,18.627,1.1,27.891.316,3.743,1.239,8.055,6.25,9.015.619-1.147,1.693-2.239,1.756-3.387.927-16.728-2.337-33.149-4.594-49.562C371.69,151.125,370.836,144.305,365.145,140.558Zm-231.6,310.549c.487-9.05-2.707-15.144-11.046-19.249-7.512-3.7-8.511-9.919-3.753-15.723a42.112,42.112,0,0,1,4.408-4.029c8.817-8.059,17.537-16.226,26.468-24.156,8.446-7.5,17.043-14.832,25.7-22.083,5.717-4.785,7.288-10.843,6.209-17.875-.464-3.017-2.686-4.1-5.351-5.011-4.367-1.5-7.629.009-10.845,2.835-7.979,7.012-16.073,13.894-24.152,20.793-1.479,1.263-3.55,2.879-2.138,4.61,5.364,6.576.9,8.815-4.243,11.586-12.823,6.908-25.329,14.411-38.229,21.167-6.555,3.432-10.182,1.254-12.837-6.334-3.466-9.909-11.76-12.745-19.575-6.422a65.414,65.414,0,0,0-9.93,9.758c-10.416,13-6.657,28.857,8.277,35.845,4.806,2.249,9.6,4.524,14.511,6.529.855.35,3.244-.726,3.219-.912-.254-1.857-.313-4.7-1.467-5.313-5.8-3.088-12.01-5.411-17.886-8.377-3.1-1.564-5.9-5.047-4.557-8.023,2.306-5.1,5.161-.539,7.447.954,4.313,2.817,8.754,2.223,13.421,1.35,8.986-1.681,15.709,3.224,16.166,15.186.15,3.946-.455,7.925-.235,11.862.189,3.363,4.262,6.413,7.132,4.887C110.855,449.33,122.225,451.428,133.548,451.107ZM486.88,94.961c-2.853-9.666-7.1-11.845-13.169-10.717-1.924.358-3.682,1.613-5.606,1.967-14.6,2.684-27.566,1.476-35.594-13.656-1.711-3.225-5.483-5.667-8.8-7.649a12.248,12.248,0,0,0-11.535-.489c-7.318,3.521-12.681,8.986-16.7,16.352-3.49,6.4-1.305,11.414,1.2,16.861,5.2,11.307,4.658,21.733-4.33,31.142a46,46,0,0,0-5.69,8.115,4.85,4.85,0,0,0-.577,3.725,18.741,18.741,0,0,0,3.208,4.735c1.043,1.263,2.064.85,3.27-.43,5.445-5.779,11.293-11.2,16.434-17.236,5.619-6.594,10.81-10.915,20.248-5.792,5.646,3.064,9.608-.107,11.209-6.85,1.362-5.735,2.309-11.569,3.677-17.3.668-2.8,3.227-5.346,5.631-4.64C461.532,96.553,473.083,88.352,486.88,94.961Zm-17.132,33.094c5.047,2.655,7.834-6.406,15.018-4.842,6.025,1.312,8.751-5.342,4.513-10.1a44.256,44.256,0,0,1-5.694-7.879c-2.5-4.42-6.847-5.877-11.942-5.6-7.146.39-12.761,3.946-17.357,8.828-6.164,6.546-2.729,16.519,6.048,18.442C462.921,127.47,465.611,127.566,469.748,128.055ZM399.426,466.818c2.754,9.329,10.27,11.457,17.879,13.668,12.678,3.685,18,.755,22.092-11.771,2.606-7.979.572-15.888,1.512-26.46-5.216,9.034-8.215,16.226-13.963,21.77s-11.868,7.972-19.607,5.494C404.841,468.72,402.373,467.827,399.426,466.818ZM133.64,456.747c-5.256,1.254-9.707,4.312-15.091,3.333-4-.727-7.861.652-11.315,2.929-6.822,4.5-13.512,4.683-20.163-.5a2.032,2.032,0,0,0-3.274,1.175,5.734,5.734,0,0,0,.341,3.716,15.482,15.482,0,0,0,3.351,4.805c8.121,7.189,17.59,9.16,27.794,5.806C125.133,474.773,132.919,469.252,133.64,456.747ZM412.847,152.8c-9.374-3.613-15.581-1.64-19.161,6.314-.678,1.505-.3,3.89.4,5.52,1.11,2.583,3.422,1.461,4.821.317C403.452,161.236,407.781,157.257,412.847,152.8ZM168.07,166.276c-5.55,4.41-5.91,9.56-6,14.405-.109,6.14-1.65,12.894,5.31,19.138.936-7.82,2.026-14.084,2.313-20.385C169.871,175.621,168.8,171.75,168.07,166.276ZM279.175,338.868c2.84-.775,3.879-2.911,3.487-5.686-.716-5.061-3.8-8.058-6.959-6.936-3.766,1.336-4.254,4.523-3.611,7.738C272.8,337.533,275.426,339.115,279.175,338.868ZM374.3,222.525c-7.313,5.1-6.032,12.408-5.951,19.225a3.138,3.138,0,0,0,2.358,2.023,3.841,3.841,0,0,0,2.693-2.156C375.235,235.588,377.708,229.522,374.3,222.525ZM261.773,330.73c-.205-2.519-1.657-3.935-3.824-4.035a5.152,5.152,0,0,0-5.393,6.335c.44,2.559,1.391,5.468,4.709,4.927C261.336,337.291,261.533,333.694,261.773,330.73Zm192.7-195.549c.324-2.085-3.721-6.028-6.562-5.681-1.58.193-3.067,1.862-4.407,3.074-.9.816-.407,2.018,1.183,2.555a40.761,40.761,0,0,0,7.27,1.894C452.7,137.128,453.632,135.839,454.472,135.181ZM168.191,220.628c-5.392,4.5-3.829,9.614-3.4,14.68.153,1.8.88,2.807,2.485,2.05a3.8,3.8,0,0,0,1.461-2.977C168.7,229.8,168.4,225.212,168.191,220.628Zm124.4,133.361c-.834-.69-1.662-1.949-2.5-1.956-1.991-.019-3.762.986-3.114,3.387a3.513,3.513,0,0,0,2.457,2.1C291.708,357.72,292.439,355.994,292.59,353.989ZM120.355,146.736c.864-2.686-.842-3.669-2.572-4.228-.979-.317-2.8-.185-3.258.451-1.276,1.787-.273,3.462,1.419,4.468S119.335,148.357,120.355,146.736Zm11.727,273.657,1.868-3.027c-.55-.29-1.324-.966-1.61-.8-.95.551-2.282,1.3-2.447,2.163C129.573,420.406,130.629,421.023,132.082,420.393ZM469.93,143.134l3.354-1.467c-1.655-.707-3.262-1.73-4.986-2-.967-.149-2.126.957-3.2,1.5C466.142,143.164,467.957,143.292,469.93,143.134ZM168.368,385.969c1.93-.465,3.3-1.534,3.456-3.609.035-.449-.585-.947-.9-1.422a22.332,22.332,0,0,0-3.839,2.8C166.213,384.689,166.9,385.668,168.368,385.969Zm190.037-93.2a15.773,15.773,0,0,0-1.22,2.871c-.07.3.777.816,1.2,1.233l2.065-2.27C359.776,293.991,359.1,293.379,358.405,292.769Z"/><path class="b" d="M362.646,162.542c-1.983,8.335-4.292,16.609-5.837,25.024a25.288,25.288,0,0,0,2.43,17.318c2.7,5.026,5.3,11.044,2.889,17.154-1.291,3.275.161,9.067-5.222,9.089-4.34.017-2.824-5.187-4.153-7.92-7.147-14.695-20.53-20.5-36.414-15.53-6,6.92-15.223,2.669-22.4,6.564-6.27,3.4-13.71,4.65-20.677,6.863,1.345,3.411,2.686,7.049,4.2,10.614,5.988,14.1,7.379,15.632,21.837,13.167,12.071-2.059,16.493,5.449,20.3,13.74,1.828,3.988,3.953,4.835,7.415,4.121,12.045-2.488,23.252-6.267,27.864-20.359a100.593,100.593,0,0,0,5.169,15.911c6.993,15.867-5.713,32.907-23.334,31.472-6.79-.553-11.592.558-15.484,6.062-2.9,4.1-1.941,6.075,4.256,8.042a9.708,9.708,0,0,1,6.738,12.146c-.253.912-1.876,2.338-2.363,2.159-6.657-2.443-8.057,1.934-9.335,6.794a59.381,59.381,0,0,1-2.19,5.559c-1.292,3.447-3.8,6.1-7.365,5.263-2.86-.674-2.305-4.223-2.4-6.821-.047-1.316.064-3.067-.694-3.832-1.331-1.343-3.279-2.856-4.96-2.844-1.546.01-3.976,1.643-4.436,3.069-1,3.09-.717,6.57-1.486,9.762-.4,1.684-1.642,4.044-4.115,2.375-1.5-1.014-3.437-2.767-3.489-4.248-.087-2.477,1.519-4.964,1.794-7.513.418-3.876-1.754-6.528-5.544-6.7-3.929-.178-7.9.578-11.853.948-5.52.516-10.012-.483-14.2-5.067-3.99-4.37-5.692-3.549-8.809,1.618-1.717,2.847-3.283,5.784-4.91,8.684-1.219,2.173-2.425,4.351-3.643,6.54-4.456-2.7-8.215-5.253-12.235-7.294-2.286-1.161-5-1.476-8.127-2.338-2.584-3.663-.628-8.347-.445-12.834a24.306,24.306,0,0,0-2.845-13.4c-5.741-10.259-8.35-11.838-20.554-9.238-5.8,1.236-9.677.338-14.144-4-9.755-9.471-13.123-19.553-6.591-32.043,1.538-2.941,3.021-5.911,4.74-9.28,6.211,2.416,6.155,9.266,9.545,13.553,4.086,5.167,9.121,7.694,15.526,6.283,7.073-1.559,14.4-2.292,20.542-7.045A31.118,31.118,0,0,1,242,247.621c12.694-1.986,14.976-13.753,20.137-22.64.56-.965-.859-3.978-2.17-4.95-3.173-2.353-6.668-4.314-11.021-2.25-4.231,2.006-9.087,5.148-8.5-4.1.107-1.694-3.138-4.148-5.331-5.336-5.925-3.207-12.535-4.463-19.182-4.984-14.582-1.143-25.99,3.635-32.421,17.726a3.322,3.322,0,0,1-6.063-.055c-3.42-8.175-5.388-16.322-.17-24.6,5.006-7.939,5.422-16.294,1.521-24.755-3.261-7.074.4-16.191-6.962-22.162-2.1-1.7-1.25-4.994-.087-7.457,9-19.04,20.452-35.481,41.182-43.865,14.307-5.785,28.362-11.4,44.192-9.937,6.587.608,8.137,3.323,4.737,9.046-2.352,3.96-4.969,7.763-7.343,11.442,2.265,5.034,5.8,1.991,8.515,2.509,9.6,1.832,13.028,11.333,6.877,18.786-1.689,2.047-3.57,3.947-5.15,6.071-4.922,6.621-4.958,8.939.158,15.878,1.067,1.447,3,2.964,4.662,3.124,4.336.42,3.221-3.069,3.009-5.434-.773-8.641,7.306-15.758,4.19-24.765,6.588-4.94,4.7-9.847.332-15.2a15.224,15.224,0,0,1-2.778-7.271c-.714-5.086,3.869-11.6,8.307-11.708,30.968-.72,58.2,6.468,74.674,35.936,2.592,4.637,5.221,9.254,7.827,13.867-.084,4.5,5.405,9.98-3.3,13.038C359.311,154.471,361.148,159.551,362.646,162.542Zm-99.44,89.89c-2.366,2.775-4.775,5.035-6.5,7.732-5.292,8.275-6.479,17.155-2.561,26.314.993,2.32,3.4,5.509,5.791,4.224,7.25-3.9,16.666-3.516,21.986-11.282,3.48-5.08,4.431-10.623,1.875-14.687-2.526-4.019-7.215-4.358-15.52-1.154a14.18,14.18,0,0,1-2.062.423C265.249,260.29,264.279,256.559,263.206,252.432Zm19.785-53.241c4,.671,9.466-2.976,11.41-7.948a3.35,3.35,0,0,0-1.442-2.958c-4.687-1.65-6.264,3.022-9.187,4.956a5.168,5.168,0,0,0-2.027,3.067C281.588,197.164,282.533,198.224,282.991,199.191Zm40.976-13.213c-.21-1.377-1.092-1.915-2.612-1.5-.6.164-1.507.375-1.668.8-.552,1.448.133,2.721,1.618,2.624C322.231,187.839,323.085,186.659,323.967,185.978Zm22.911-11.764c.6.97.991,2.235,1.848,2.84,1.291.912,2.411.27,2.93-1.258.689-2.028.262-3.582-2.119-3.47C348.624,172.369,347.764,173.546,346.878,174.214Zm-143.582,6.1c-.76-1.928-1.937-3.84-4.132-3.559s-2.823,2.492-2.191,4.332c.695,2.027,2.641,2.634,4.7,2.07C203.32,182.705,203.832,181.642,203.3,180.313ZM222.717,187c1.49-.237,2.041-1.092,1.426-2.464a1.857,1.857,0,0,0-1.264-1.009,1.88,1.88,0,0,0-1.34.906C220.792,185.73,221.255,186.626,222.717,187Z"/><path class="b" d="M244.254,371.462c11.576.45,11.576.45,13.634-12.728,4.021.686,4.479,4.192,5.3,7.114.941,3.36,1.686,6.628,6.2,5.859,4.288-.73,4.574-4.078,4.465-7.532-.02-.664-.22-1.325-.207-1.985.035-1.7.848-2.712,2.162-2.371,1.168.3,3.033.982,3.159,1.734.761,4.565.851,8.968,5.856,11.838,2.12,1.216,1.356,6.907,6.2,5.232,3.027-1.047,1.456-4.807,3.01-6.846,3.268-4.289,5.882-8.715,6-14.421.027-1.252,2.432-2.454,3.741-3.679A29.876,29.876,0,0,1,305,359.319c.058,1.961-1.134,4.09-.687,5.871.472,1.88,2.922,3.352,4.681,2.256,9.442-5.882,19.338-11.375,18.87-25.066-.152-4.445,1.666-8.958,2.78-14.4,8.1,16.305,9.385,31-3.279,44.97-5.8,6.393-11,13.34-16.228,20.223-9.189,12.1-21.26,14.908-35.284,11.068a33.763,33.763,0,0,0-13.724-.794c-5.888.761-11.934.34-17.911.371a11.629,11.629,0,0,1-8.822-3.846c-9.21-9.584-18.379-19.218-27.853-28.539-10.595-10.424-13.092-23.009-9.661-36.754,2.777-11.128,3.376-22.117.567-33.482,8.646,1.079,5.521,8.482,8.156,12.5,3.965,6.052,5.6,12.327,2.771,20.127-1.586,4.364.716,10.423,2.079,15.5,1.434,5.341,5.693,7,12.488,4.441,3.267-1.229,4.521-1.164,5.189,2.156.131.649.051,1.346.211,1.984,2.03,8.1,4.226,10.641,7.644,9.155,5.075-2.207,3.084-6.441,2.791-10.2-.1-1.229-.246-2.758.363-3.649a4,4,0,0,1,3.215-1.372c1.036.121,2.817,1.367,2.776,2.026-.373,5.964-1.076,11.907-1.676,17.855-2.362-.165-5.219-2.064-6.727,1.248-1.326,2.916.419,4.85,3.041,5.776C244.282,379.983,245.367,377.677,244.254,371.462Zm22.82,3.518c-5.752.057-9.06,1.5-9.966,3.509-1.9,4.23,2.943,5.156,3.828,8.009.776,2.5,1.629,5.027,4.271,6.151a5.409,5.409,0,0,0,3.558.488c3.514-1.319,8.5-11.475,7.158-14.519a4.772,4.772,0,0,0-2.674-2.342A53.3,53.3,0,0,0,267.074,374.98Z"/><path class="b" d="M133.548,451.107c-11.323.321-22.693-1.777-33.282,3.855-2.87,1.526-6.943-1.524-7.132-4.887-.22-3.937.385-7.916.235-11.862-.457-11.962-7.18-16.867-16.166-15.186-4.667.873-9.108,1.467-13.421-1.35-2.286-1.493-5.141-6.056-7.447-.954-1.344,2.976,1.454,6.459,4.557,8.023,5.876,2.966,12.083,5.289,17.886,8.377,1.154.614,1.213,3.456,1.467,5.313.025.186-2.364,1.262-3.219.912-4.907-2-9.7-4.28-14.511-6.529-14.934-6.988-18.693-22.846-8.277-35.845a65.414,65.414,0,0,1,9.93-9.758c7.815-6.323,16.109-3.487,19.575,6.422,2.655,7.588,6.282,9.766,12.837,6.334,12.9-6.756,25.406-14.259,38.229-21.167,5.144-2.771,9.607-5.01,4.243-11.586-1.412-1.731.659-3.347,2.138-4.61,8.079-6.9,16.173-13.781,24.152-20.793,3.216-2.826,6.478-4.33,10.845-2.835,2.665.912,4.887,1.994,5.351,5.011,1.079,7.032-.492,13.09-6.209,17.875-8.661,7.251-17.258,14.584-25.7,22.083-8.931,7.93-17.651,16.1-26.468,24.156a42.112,42.112,0,0,0-4.408,4.029c-4.758,5.8-3.759,12.026,3.753,15.723C130.841,435.963,134.035,442.057,133.548,451.107Z"/><path class="b" d="M384.39,411.744c-13.172-9.125-22.443-22.287-34.071-33.017-2.572-2.372-2.776-5.878-1.8-9.3,1.446-5.088,2.849-10.19,4.381-15.683,7.5.491,9.98,6.729,13.816,10.612,6.086,6.16,11.963,12.354,19.39,17.019,5.953,3.74,6.054-2.627,8.45-4.241,7.114,5.078,14.227,9.906,21.064,15.1,8.285,6.292,17.452,7.567,26.2,2.669,8.852-4.953,16.861-3.722,24.449,1.006,7.854,4.894,10.2,13.566,12,22.165a6.434,6.434,0,0,1-2.9,6.9c-3.763,2.47-7.174,6.119-12.335,5.348-5.559-7.815-1.71-14.774,1.567-21.88.4-.859-.317-2.769-1.134-3.494a4.367,4.367,0,0,0-3.59-.595c-4.044,1.225-6.466,4.46-8.776,7.756-6.391,9.115-14.021,17.063-23.525,22.866-2.805,1.713-3.779,3.886-3.664,6.352.22,4.711.254,9.186-1.848,13.614-3.665,7.723-11.917,9.456-17.624,3.151-3.049-3.367-4.653-8.011-9.536-9.7-.866-.3-1.977-2.532-1.642-3.257,3.248-7.033,3-14.135,1.011-21.364,1.214-.19,2.43-.368,3.641-.572,7.189-1.214,9.265-4.38,6.393-9.891-4.051-7.774-10.091-14.009-16.121-20.193-3.6-3.688-9.5-4.866-10.383-2.536-1.542,4.065,2.473,5.561,3.87,8.272,1.813,3.516,3.583,7.053,5.372,10.582A24.9,24.9,0,0,0,384.39,411.744Zm33.384,7.329c-3.275-.176-6.805,3.8-6.907,7.78-.1,3.773,3.416,7.7,6.953,7.78,3.633.078,6.967-3.669,6.893-7.747S421.5,419.273,417.774,419.073Zm-49.288-39.436c-.8.753-2.17,1.434-2.329,2.33-.4,2.261,3.541,5.326,5.116,4.075a4.34,4.34,0,0,0,1.149-3.456C372.149,380.583,371.021,379.016,368.486,379.637Z"/><path class="b" d="M142.826,152.3c-2.3-2.395-4.536-4.85-6.909-7.168-1.985-1.94-3.579-4.036-2.313-6.876,1.378-3.094,2.623-6.051-.237-8.937a30.394,30.394,0,0,1-9.028-19.34c-.212-2.392-4.707-3.075-6.355-1.2-6.346,7.226-15.229,11.023-23.748,9.9-2.9-.382-5.2.259-6.89,2.617-1.923,2.691-3.679,5.5-5.593,8.2-2.449,3.449-5.427,3.255-8.419.844-.987-.8-1.5-2.149-2.325-3.177-2.236-2.8-4.775-4.77-8.086-1.582-2.306,2.22-1.472,4.672-.093,7.134,5.791,10.345,15.6,12.783,24.735,5.864,2.067-1.566,3.391-4.075,5.315-5.875,2.018-1.889,8.573-1.852,9.122-.24,1.3,3.813-3,3.582-4.05,5.7a6.974,6.974,0,0,1-1.237,1.554c-15.135,16.2-18.039,16.228-32.67.344-1.346-1.462-2.636-2.974-3.955-4.46-9.749-10.973-6.575-21.9,5.057-30.328a25.74,25.74,0,0,1,16.8-5.2c6.781.415,13.091-1.376,19.279-4.086,6.654-2.914,8.673-7.677,6.738-14.412,1.435-5.47,4.588-9.688,10.528-9.645,8.532.062,9.1-5.432,9.339-11.6,5.265,3.959,10.218,8.24,13.834,13.835,4.69,7.261,4.783,14.657-1.882,21.337-3.384,3.391-4.182,5.6-3.127,9.879,1.912,7.75,3.716,15.459,9.935,21.068,7.682,6.93,7.438,14.582,2.615,22.915-1.189,2.054-1.209,5.271-4.977,3.824,0,0-.267-1.23-.267-1.23ZM126.081,103.83c1.752,3.539,4.812,3.524,8.07,2.417,3.069-1.042,6.127-2.278,5.853-6.425-.19-2.867-4.183-5.207-7.428-4.379C128.584,96.461,125.281,100.614,126.081,103.83Z"/><path class="b" d="M486.88,94.961c-13.8-6.609-25.348,1.592-37.12-1.865-2.4-.706-4.963,1.837-5.631,4.64-1.368,5.734-2.315,11.568-3.677,17.3-1.6,6.743-5.563,9.914-11.209,6.85-9.438-5.123-14.629-.8-20.248,5.792-5.141,6.032-10.989,11.457-16.434,17.236-1.206,1.28-2.227,1.693-3.27.43a18.741,18.741,0,0,1-3.208-4.735,4.85,4.85,0,0,1,.577-3.725,46,46,0,0,1,5.69-8.115c8.988-9.409,9.53-19.835,4.33-31.142-2.5-5.447-4.69-10.461-1.2-16.861,4.018-7.366,9.381-12.831,16.7-16.352a12.248,12.248,0,0,1,11.535.489c3.314,1.982,7.086,4.424,8.8,7.649,8.028,15.132,21,16.34,35.594,13.656,1.924-.354,3.682-1.609,5.606-1.967C479.776,83.116,484.027,85.3,486.88,94.961Zm-61.048,5.012c.473-2.869-.427-6.338-1.953-6.9a8.065,8.065,0,0,0-7.389.805c-9.253,5.872-9.787,13.613-1.383,20.237,3.455,2.723,8.442,1.419,9.227-2.607C425.073,107.708,425.351,103.821,425.832,99.973Z"/><path class="b" d="M469.748,128.055c-4.137-.489-6.827-.585-9.414-1.152-8.777-1.923-12.212-11.9-6.048-18.442,4.6-4.882,10.211-8.438,17.357-8.828,5.1-.278,9.447,1.179,11.942,5.6a44.256,44.256,0,0,0,5.694,7.879c4.238,4.76,1.512,11.414-4.513,10.1C477.582,121.649,474.8,130.71,469.748,128.055Z"/><path class="b" d="M399.426,466.818c2.947,1.009,5.415,1.9,7.913,2.7,7.739,2.478,13.869.043,19.607-5.494s8.747-12.736,13.963-21.77c-.94,10.572,1.094,18.481-1.512,26.46-4.091,12.526-9.414,15.456-22.092,11.771C409.7,478.275,402.18,476.147,399.426,466.818Z"/><path class="b" d="M133.64,456.747c-.721,12.5-8.507,18.026-18.357,21.265-10.2,3.354-19.673,1.383-27.794-5.806a15.482,15.482,0,0,1-3.351-4.805,5.734,5.734,0,0,1-.341-3.716,2.032,2.032,0,0,1,3.274-1.175c6.651,5.182,13.341,5,20.163.5,3.454-2.277,7.312-3.656,11.315-2.929C123.933,461.059,128.384,458,133.64,456.747Z"/><path class="b" d="M362.646,162.542c-1.5-2.991-3.335-8.071-.808-8.96,8.707-3.058,3.218-8.537,3.3-13.038,5.7,3.761,6.55,10.581,7.277,15.869,2.257,16.413,5.521,32.834,4.594,49.562-.063,1.148-1.137,2.24-1.756,3.387-5.011-.96-5.934-5.272-6.25-9.015-.783-9.264-1.037-18.588-1.1-27.891C367.879,168.006,366.445,164.765,362.646,162.542Z"/><path class="b" d="M127.836,60.331c-.235,6.164-.807,11.658-9.339,11.6-5.94-.043-9.093,4.175-10.528,9.645-2.27-.231-4.535-.432-6.815-.613-1.736-13.2,4.335-20.348,17.251-22.355.895-.14,1.563-1.74,2.337-2.66C124.129,55.754,126.129,57.805,127.836,60.331Z"/><path class="b" d="M120.742,55.944c-.774.92-1.442,2.52-2.337,2.66-12.916,2.007-18.987,9.15-17.251,22.355-1.926,1.593-3.867,3.206-6.71,5.569.724-6.659,1.345-12.056,1.892-17.462.82-8.112,3.726-12.2,10.958-13.33C111.658,55.052,116.251,55.826,120.742,55.944Z"/><path class="b" d="M412.847,152.8c-5.066,4.454-9.395,8.433-13.939,12.151-1.4,1.144-3.711,2.266-4.821-.317-.7-1.63-1.079-4.015-.4-5.52C397.266,151.163,403.473,149.19,412.847,152.8Z"/><path class="b" d="M168.07,166.276c.729,5.474,1.8,9.345,1.627,13.158-.287,6.3-1.377,12.565-2.313,20.385-6.96-6.244-5.419-13-5.31-19.138C162.16,175.836,162.52,170.686,168.07,166.276Z"/><path class="b" d="M279.175,338.868c-3.749.247-6.373-1.335-7.083-4.884-.643-3.215-.155-6.4,3.611-7.738,3.16-1.122,6.243,1.875,6.959,6.936C283.054,335.957,282.015,338.093,279.175,338.868Z"/><path class="b" d="M374.3,222.525c3.4,7,.931,13.063-.9,19.092a3.841,3.841,0,0,1-2.693,2.156,3.138,3.138,0,0,1-2.358-2.023C368.272,234.933,366.991,227.629,374.3,222.525Z"/><path class="b" d="M261.773,330.73c-.24,2.964-.437,6.561-4.508,7.227-3.318.541-4.269-2.368-4.709-4.927a5.152,5.152,0,0,1,5.393-6.335C260.116,326.8,261.568,328.211,261.773,330.73Z"/><path class="b" d="M454.475,135.185c-.843.654-1.78,1.943-2.519,1.838a40.761,40.761,0,0,1-7.27-1.894c-1.59-.537-2.085-1.739-1.183-2.555,1.34-1.212,2.827-2.881,4.407-3.074C450.751,129.153,454.8,133.1,454.475,135.185Z"/><path class="b" d="M168.191,220.628c.207,4.584.51,9.167.547,13.753a3.8,3.8,0,0,1-1.461,2.977c-1.6.757-2.332-.255-2.485-2.05C164.362,230.242,162.8,225.125,168.191,220.628Z"/><path class="b" d="M292.586,353.988c-.147,2.006-.878,3.732-3.155,3.534a3.513,3.513,0,0,1-2.457-2.1c-.648-2.4,1.123-3.406,3.114-3.387C290.928,352.04,291.756,353.3,292.586,353.988Z"/><path class="b" d="M120.355,146.736c-1.02,1.621-2.714,1.7-4.411.691s-2.7-2.681-1.419-4.468c.454-.636,2.279-.768,3.258-.451C119.513,143.067,121.219,144.05,120.355,146.736Z"/><path class="b" d="M135.97,162.333a56.3,56.3,0,0,1-5.4-5.074c-.53-.629-.01-2.141.03-3.249,1.047.318,2.475.318,3.059,1.02a28.338,28.338,0,0,1,2.686,4.74A1.635,1.635,0,0,1,135.97,162.333Z"/><path class="b" d="M135.97,162.333a1.635,1.635,0,0,0,.372-2.563l4.853-.536c-.008,0,1.243.74,1.243.74l1.339-.563c1.2,2.3,2.066,5.213-.433,6.543C139.968,167.75,138.336,163.828,135.97,162.333Z"/><path class="b" d="M132.08,420.392c-1.451.631-2.507.014-2.187-1.663.165-.866,1.5-1.612,2.447-2.163.286-.166,1.06.51,1.61.8Q133.016,418.88,132.08,420.392Z"/><path class="b" d="M469.93,143.134c-1.973.158-3.788.03-4.831-1.965,1.073-.54,2.232-1.646,3.2-1.5,1.724.265,3.331,1.288,4.986,2Z"/><path class="b" d="M168.373,385.973c-1.474-.305-2.16-1.284-1.291-2.238a22.332,22.332,0,0,1,3.839-2.8c.318.475.938.973.9,1.422C171.665,384.435,170.3,385.5,168.373,385.973Z"/><path class="b" d="M143.777,159.411l-1.339.563s-1.251-.74-1.243-.74c.537-2.319,1.067-4.637,1.614-6.946.017.008,1.158-.329,1.158-.329s.272,1.234.267,1.23Q144,156.3,143.777,159.411Z"/><path class="b" d="M358.412,292.768q1.027.917,2.043,1.835l-2.065,2.27c-.428-.417-1.275-.929-1.2-1.233A15.367,15.367,0,0,1,358.412,292.768Z"/><path class="b" d="M387.043,409.422a9.214,9.214,0,0,1,1.176,1.489c.787,1.551,2.278,3.645-.48,4.3-1.9.452-2.994-1.54-3.349-3.468A24.9,24.9,0,0,1,387.043,409.422Z"/><path class="a" d="M263.206,252.432c1.073,4.127,2.043,7.858,3.009,11.57a14.18,14.18,0,0,0,2.062-.423c8.305-3.2,12.994-2.865,15.52,1.154,2.556,4.064,1.6,9.607-1.875,14.687-5.32,7.766-14.736,7.382-21.986,11.282-2.387,1.285-4.8-1.9-5.791-4.224-3.918-9.159-2.731-18.039,2.561-26.314C258.431,257.467,260.84,255.207,263.206,252.432Z"/><path class="b" d="M282.989,199.192c-.456-.968-1.4-2.028-1.244-2.884a5.168,5.168,0,0,1,2.027-3.067c2.923-1.934,4.5-6.606,9.187-4.956a3.35,3.35,0,0,1,1.442,2.958C292.457,196.215,286.988,199.862,282.989,199.192Z"/><path class="b" d="M323.969,185.98c-.884.679-1.738,1.859-2.664,1.919-1.485.1-2.17-1.176-1.618-2.624.161-.421,1.065-.632,1.668-.8C322.875,184.063,323.757,184.6,323.969,185.98Z"/><path class="b" d="M346.879,174.211c.885-.665,1.745-1.842,2.658-1.885,2.381-.112,2.808,1.442,2.119,3.47-.519,1.528-1.639,2.17-2.93,1.258C347.869,176.449,347.478,175.184,346.879,174.211Z"/><path class="b" d="M203.3,180.309c.532,1.333.02,2.4-1.624,2.847-2.062.564-4.008-.043-4.7-2.07-.632-1.84-.019-4.05,2.191-4.332S202.536,178.385,203.3,180.309Z"/><path class="a" d="M222.717,187c-1.462-.37-1.925-1.266-1.178-2.567a1.88,1.88,0,0,1,1.34-.906,1.857,1.857,0,0,1,1.264,1.009C224.758,185.9,224.207,186.759,222.717,187Z"/><path class="a" d="M267.074,374.98a53.3,53.3,0,0,1,6.175,1.3,4.772,4.772,0,0,1,2.674,2.342c1.339,3.044-3.644,13.2-7.158,14.519a5.409,5.409,0,0,1-3.558-.488c-2.642-1.124-3.5-3.652-4.271-6.151-.885-2.853-5.732-3.779-3.828-8.009C258.014,376.477,261.322,375.037,267.074,374.98Z"/><path class="b" d="M244.254,371.462c1.113,6.215.028,8.521-3.484,7.281-2.622-.926-4.367-2.86-3.041-5.776,1.508-3.312,4.365-1.413,6.727-1.248C244.45,371.721,244.254,371.462,244.254,371.462Z"/><path class="a" d="M417.774,419.073c3.726.2,6.865,3.735,6.939,7.813s-3.26,7.825-6.893,7.747c-3.537-.076-7.05-4.007-6.953-7.78C410.969,422.873,414.5,418.9,417.774,419.073Z"/><path class="a" d="M368.486,379.637c2.535-.621,3.663.946,3.936,2.949a4.34,4.34,0,0,1-1.149,3.456c-1.575,1.251-5.514-1.814-5.116-4.075C366.316,381.071,367.691,380.39,368.486,379.637Z"/><path class="a" d="M126.081,103.83c-.8-3.216,2.5-7.369,6.495-8.387,3.245-.828,7.238,1.512,7.428,4.379.274,4.147-2.784,5.383-5.853,6.425C130.893,107.354,127.833,107.369,126.081,103.83Z"/><path class="a" d="M425.832,99.973c-.481,3.848-.759,7.735-1.5,11.533-.785,4.026-5.772,5.33-9.227,2.607-8.4-6.624-7.87-14.365,1.383-20.237a8.065,8.065,0,0,1,7.389-.805C425.405,93.635,426.305,97.1,425.832,99.973Z"/></svg>