<svg xmlns="http://www.w3.org/2000/svg" viewBox="0 0 543.348 543.348"><defs><style>.a{fill:#077ec6;}.b{fill:#fcfcfb;}</style></defs><path class="a" d="M105.84,404.059c-4.755-.133-8.567.345-11.805,5.229-5.247,7.913-5.954,7.806-14.313,4.263-7.926-3.359-15.566-7.395-24.55-11.72-4.531,11.314-9.341,22.487-13.466,33.907-3.007,8.324.8,12.906,9.437,12.226a14.8,14.8,0,0,0,5.754-1.342,12.185,12.185,0,0,0,3.784-4.036c.128-.187-1.535-1.96-2.615-2.534-2.9-1.543-6.221-2.566-6.2-6.74,2.908-2.255,6.229-1.438,9.429-1.27,9.223.484,9.222.511,11.786,10.974,23.922,0,47.845.082,71.765-.1,3.2-.024,6.475-1.134,9.558-2.195,5.317-1.831,10.312-1.805,15.429.791,2.928,1.486,6.166,2.934,9.348,3.146,2.141.143,1.908-4.75,5.275-4.5,3.161.237,6.795-.748,8.73,2.966.893,1.715,1.607,3.927,3.7,1.33.717-.888.755-2.6.571-3.859a5.536,5.536,0,0,0-1.672-3.258c-1.936-1.6-5.368-2.373-3.953-5.775a14.055,14.055,0,0,1,4.685-6.1c4.271-2.863,9.349-.195,9.914,4.841.292,2.6.186,5.245.605,7.814,1.094,6.706,5.3,8.493,10.938,4.3,1.886-1.4,2.6-5.346,5.617-4.223,7.765,2.893,15.754-.053,23.515,1.576,7.049,1.479,14.038,3.165,21.156-.575,2-1.053,5.656-.793,7.685.374,5.841,3.357,11.441,1.453,17.2.471,2.622-.447,5.71-1.578,7.871-.68,6.673,2.773,12.2,2.053,17.319-3.083.818-.821,2.485-.791,3.755-1.17,2.868-.859,3.746,1.2,3.27,3.071-.987,3.867-.769,6.376,4.049,6.188,3.074-.121,5.055-1.812,5.448-4.718a64.641,64.641,0,0,0,.371-9.736c-.057-3.3,1.9-4.832,4.659-5.336a8.464,8.464,0,0,1,8.825,3.229c1.742,2.317,2.291,5.051.554,7.345-1.493,1.972-4.331,3.006-5.561,5.061-.6,1.01.85,3.551,1.866,5.069.359.537,2.924.54,3.23.031,4.9-8.12,8.458-6.757,14.763-.326,5.113,5.215,13.824,4.076,20.988,1.893,13.413-4.086,26.7-8.258,41.009-4.922,4.439,1.035,7.311-2.412,10.578-4.532,1.667-1.081,3.508-2.105,5.255-.742,2.317,1.807,2.5,4.58,2.118,7.283-.357,2.5-4.672,2.917-3.461,6.288a2.118,2.118,0,0,0,1.327.95c.6.174,1.792.252,1.855.07a96.158,96.158,0,0,0,3.24-10.306c1.782-8,5.557-10.78,11.749-6.611,8.286,5.581,17.048,5.626,26.107,6.233.275-4.027-1.61-5.629-3.965-7.038-2.562-1.534-7.212-1.606-5.9-6.281,1.033-3.679,5.127-3.733,8.082-4.894,6.893-2.708,13.069.186,18.99,3.191a8.679,8.679,0,0,1,4.928,8.039c.117,22.591.326,45.181.453,67.772.027,4.774-2.4,7.36-7.277,7.419-5.33.064-10.661.138-15.991.139q-212.931.011-425.86,0c-25.048,0-22.762,1.741-22.725-22.441.109-72.616.473-145.232.475-217.849q0-106.926-.528-213.854c-.063-18.043.3-17.806,17.466-17.8q218.928.061,437.856.024c2,0,4-.045,6,.02,10.28.332,10.675.739,11.015,11.873.1,3.328.025,6.662.025,9.994q0,141.915-.131,283.83c-.023,9.772,2.125,19.819-3.119,29.354-2.836,5.157,3.481,9.664,3.119,15.1-.282,4.228-.677,8.333-5.954,8.658-7.752.477-13.577,5.12-20.025,8.479-6.484,3.379-12.881,6.983-19.58,9.876-6.759,2.919-7.1,2.734-13.46-5.865-2.805-3.791-6.4-4.31-10.436-4.5l.4.331c-10.193-16.093-9.679-19.053,4.9-28.226a65.433,65.433,0,0,0,6.716-4.3c7.693-6.281,16.5-8.185,26.171-7.19,6.582.678,13.2,1.057,19.761,1.891,5.308.675,7.122-.672,6.317-5.757-1.02-6.44-2.4-12.83-3.813-19.2-1.888-8.541-2.952-9.506-12.06-9.877-5.3-.215-10.622.082-15.924.359-3,.157-4.533,2.089-5.057,5.02-1.4,7.807.8,10.975,8.5,11.843,1.96.221,3.959.1,5.94.139,1.6.033,2.749,1.039,2.2,2.566a12.692,12.692,0,0,1-3.106,4.689c-1.623,1.563-3.552.455-5.47.014-12.479-2.869-25.049-1.523-37.578-.388-4.72.428-5.619,2.477-2.992,8.113,1.288,2.763,2.5,4.7-1.415,5.466-2.575.5-5.317.122-7.918.548-6.049.991-7.8,3.339-7.125,9.5.213,1.953,1.12,3.821,1.562,5.761.936,4.123-.921,5.926-5,6.468-7.215.96-8.682,7.255-11.084,12.6l.492-.285c-9.581,1.117-19.144,2.439-28.749,3.283-6.818.6-14.078,2.812-19.838-3.315,7.547-1.212,11.369-10.388,20-9.377.381.044.982-.774,1.291-1.3,1.924-3.282-.663-8.828-5.345-11.543-4.286-2.486-10.065-.819-11.311,3.7-1.715,6.216-2.87,12.586-4.266,18.891-1.083-.591-3.032-1.077-3.117-1.788-.928-7.7-6.107-7.289-11.668-6.476-3.525.516-4.321,2.348-2.818,5.377.9,1.824,1.459,3.757-.41,5.079-1.765,1.249-4.382.953-5.235-.771-2.522-5.1-4.848-6.477-10.4-2.989-5.975,3.754-18.224,3.187-24.108-.5-15.485-9.691-31.78-7.249-47.679-2.725a63.383,63.383,0,0,1-16.539,2.411c-5.408.131-12.724-3.513-16.435,5.233-.759,1.787-7.507,1.746-11.366,1.338-5.783-.613-12.884,1.283-17.045-3.251-6.562-7.151-7.894,4.027-12.879,2.651-5.719-1.58-11.8-1.982-17.757-2.483-1.765-.148-4.286.579-5.308,1.839-1.188,1.463-.283,3.656,1.521,4.978a35.9,35.9,0,0,1,3.07,2.548c2.04,1.876,3.584,3.936,1.856,6.835-1.542,2.588-4.195,3.274-6.812,3.142A67.549,67.549,0,0,1,139,423.2c-10.34-2.411-20.635-5.026-30.894-7.762-6.186-1.651-6.361-2.837-2.558-11.709,10.991,1.984,21.494-5.56,32.637-1.669.966.337,2.844-.418,3.612-1.278,5.025-5.622,11.831-5.032,18.362-5.9,3.522-.47,5.713-3.235,5.337-7.133-.318-3.3-.976-6.561-1.379-9.852-.727-5.928-4.383-9.672-9.978-9.282-5.274.369-10.509,1.385-15.743,2.229-7.542,1.216-8.75,2.682-8.511,10.347.062,1.977.761,3.949.711,5.912-.094,3.654-1.06,6.535-5.838,4.864-8.656-3.026-13.675.983-16.756,8.761A19.755,19.755,0,0,1,105.84,404.059Zm-11.595-7.793c-4.88-.135-9.83,1.45-14.327-2.553-2.914-2.594-6.971-2.566-10.59-.364,2.158,6.817,13.454,2.24,13.79,11.11.079,2.069.88,2.772,2.082,1.105,2.548-3.535,8.943-3.545,8.684-9.542,3.483-1.6,7.014-3.1,10.381-4.915.381-.205.221-2.839-.345-3.15C99.285,385.415,94.5,389.6,94.245,396.266ZM390.111,208.329c-1.837-3.373-5.164-5.335-8.034-2.923-6.934,5.829-16.423,8.7-20.749,17.5.177,3.559,2.186,6.171,4.151,8.885,7.941,10.964,11.162,11.823,22.941,5.833,15.556-7.911,16.095-10.718,4.832-24.813-1.241-1.552-2.335-3.221-3.5-4.835,3.9.326,7.816.961,11.7.837a7.18,7.18,0,0,0,4.967-2.629c1.876-2.643.431-12.744-2.064-14.76-3.071-2.481-6.748-4.676-10.827-3.156-3.528,1.314-3.745,5-3.786,8.251C389.7,200.452,389.976,204.391,390.111,208.329Zm-236.078-4.282c-.1-1.948-.177-3.9-.3-5.842-.4-6.2-2.981-10.534-6.52-10.172-4.657.476-9.683,1.717-10.986,6.827-1.035,4.061-4.154,9.16.275,12.716,4.039,3.244,8.677,1.735,12.77-1.14a50.792,50.792,0,0,1,5.127-2.816c-1.752,5.9-6.163,10.036-9.733,14.742-5.539,7.3-4.842,10.929,2.94,15.571,3.392,2.023,6.692,4.535,10.389,5.641,7.63,2.285,10.78,3.62,16.814-4.912,8.007-11.324,8.28-11.13-1.225-22.786,10.361,3.47,17.252,9.252,16.06,21.6-.771,7.985-2.53,11.824-11.314,13.386-6.67,1.186-11.668.852-17.906-2.239-9.417-4.667-19.883-7.255-29.968-10.526-4.4-1.428-7.284.716-9.9,4.391-5.965,8.39-2.8,18.168-4.685,27.158-1.473,7.044,2.881,11.9,8.529,14.2a70.841,70.841,0,0,0,31.255,4.844c3.7-.228,6.246-2.257,7-5.934,1.56-7.658,2.935-15.352,4.3-22.582,5.247-1.455,8.678,1.305,12.414,2.339,9.15,2.531,11.163,5.634,9.774,13.871a18.178,18.178,0,0,1-1.886,5.651c-2.815,5.125.351,8.826,2.66,12.82,1.552,2.685,3.635,4.077,6.225,1.811,5-4.378,10.275-8.775,6.212-16.746-.842-1.651-.565-3.915-.647-5.9-.3-7.327,1.642-9.708,8.589-10.677,13.156-1.835,16.89,1.862,15.446,15.438a18.905,18.905,0,0,1-1.407,5.763c-3.078,6.77,3.382,9.3,5.91,13.521a2.892,2.892,0,0,0,4.913.114c2.893-4.031,8.683-7.2,5.44-13.585a15,15,0,0,1-1.652-9.607,49.47,49.47,0,0,1,1.681-7.733,8.74,8.74,0,0,1,7.3-5.948c14.511-2.513,20.216,2.864,17.963,17.125a16.979,16.979,0,0,1-1.907,5.621c-3.752,6.618,1.684,9.663,5.192,13.272,1.213,1.249,3.327,2.078,5.009-.244,2.311-3.19,5.567-5.992,4.374-10.53a50.178,50.178,0,0,1-1.529-17.806c.276-2.837,1.512-5.26,4.026-6.427,11.968-5.557,21.1.069,21.357,13.151a55.941,55.941,0,0,1-.849,9.858c-.7,4.378,1.238,7.654,3.692,10.936,1.866,2.5,4.072,3.606,6.463,1.376,3.347-3.122,7.051-6.247,6.382-11.69-.406-3.3-.834-6.621-.93-9.941-.335-11.609,2.673-14.3,14.069-12.8a38.035,38.035,0,0,1,3.915.743c4.639,1.119,6.551,4.452,6.249,8.829a34.6,34.6,0,0,1-2.127,9.583,8.066,8.066,0,0,0,1.765,9.078c2.238,2.452,4.419,4.955,6.907,7.752,7.387-6.206,10.178-12.341,5.781-22.346-3.436-7.818-.313-11.029,8.359-14.266,1.238-.462,2.6-.623,3.808-1.133,2.713-1.143,4.176-3.195,3.68-6.206-.342-2.076-1.646-3.84-3.776-3.873-10.692-.167-13.536-6.569-12.937-15.838.333-5.16,1.155-10.487-5.519-12.612-.324-.1-.662-1.191-.483-1.595.238-.538,1.058-1.285,1.488-1.2,13.167,2.508,19.879-8.846,29.539-13.787,7.561-3.868,9.527-10.548,7.789-18.549,16.2,6.553,32.632.322,48.947.74,3.4.087,6.1-3.405,6.355-6.786a160.669,160.669,0,0,0,.276-21.808,7.834,7.834,0,0,0-9.563-7.452,84.826,84.826,0,0,1-35.233-.124c-6.715-1.471-10.74,1.442-10.957,7.906-.31,9.279.291,18.588.5,27.884-7.418-1.307-13.027-5.031-16.146-12.089,12.5.108,13.285-.557,12.84-10.823-.4-9.312-3.3-12.578-13.384-13.077-11.19-.553-22.421-.348-33.634-.333-1.883,0-4.4.558-4.1,2.992a6.316,6.316,0,0,0,3.234,4.241c7.669,3.311,14.079,9.372,23.6,8.762a11.153,11.153,0,0,1,11.867,8.634,36.427,36.427,0,0,1-5.756-1.28c-9.642-3.811-9.763-3.968-14.842,2.566-4.865,6.26-9.335,12.825-14.1,19.166-3.411,4.54-2.947,8.356,1.329,12.1,1.6,1.4,4.621,2.517,2.719,6.307-4.393-.748-8.839-1.973-13.328-2.155-6.212-.251-9.153-3.442-11.726-8.812-2.968-6.2-9.8-5.736-12.4,1.283-2.02,5.456-4.8,7.564-9.949,7.269-4.574-.262-9.12-1.022-13.319-1.521a43.337,43.337,0,0,1-1.868-4.292,47.659,47.659,0,0,1-1.4-5.8c-1.377-8.136-.891-8.836,7.038-10.5.639-.135,1.347.048,1.982-.1,7.511-1.727,8.783-2.971,9.277-10.329.576-8.574.851-17.168,1.272-26.069-12.863-7.872-27.082-4.912-40.7-5.3-3.805-.108-7.484,3.213-8.188,7.521-.633,3.869-.212,7.91-.255,11.874a31.8,31.8,0,0,1-3.266-4.748c-3.44-7.574-6.3-9.592-12.96-7.88a79.927,79.927,0,0,0-26.6,12.845c-6.585,4.706-6.353,5.607-2.993,12.884,2.989,6.472,10.671,10.476,9.851,18.859-7.25-5.948-11.724-13.856-16.337-21.858-4.213-7.309-9.021-7.545-16.332-3.15-6.673,4.013-11.384,10.978-19.467,12.835-1.1-8.057-.725-16.011.833-27.091,4.229,16.894,4.286,17,16.168,10.291,3.523-1.988,7-4.563,11.019-4.133,5.835.625,10.456-1.511,14.726-4.8,3.535-2.719,11.652-2.4,10.374-7.512-1.488-5.957-8.805-2.235-13.554-2.946a23.138,23.138,0,0,1-3.956-1.4c1.662-3.218,3.984-6.263,4.857-9.679,2.56-10.007-1.528-14.4-11.943-15.561-8.158-.91-17.241,4.562-24.485-3.247-1.189-1.282-2.289-.91-3.223.658-3.647,6.122-14.887,2.684-15.748,12.791-.27,3.156-3.744,2.365-6.462,2.17-4.6-.331-9.973-1.4-13.7.474-5.355,2.684-9.1,4.362-13.579-1.015-1.87-2.245-5.237-1.362-7.229.4-3.476,3.067-7.486,6.171-9.458,10.157-3.13,6.328-9.571,6.562-14.34,9.754-2.127,1.423-3.2-.143-4.466-1.763-7.367-9.4-7.7-9.584-14.4-.927a15.066,15.066,0,0,1-7.948,5.26c-2.822.937-4.031,3.159-4.118,6.068-.142,4.654-.37,9.307-.448,13.962-.084,5.026,3.256,7.469,7.508,7.372,14.574-.335,29.128,2.818,43.717.228,1.094-.194,3.213.557,3.452,1.313.656,2.073-.667,3.449-2.839,3.776-3.783.57-8.246-.666-10.607,3.742-1.987,3.711-2.547,8.183-.85,11.59,3.194,6.412,2.232,12.532,1.359,19.072a79.328,79.328,0,0,0,0,15.863,8.053,8.053,0,0,0,2.773,5.111c4.408,3.533,16.657,2.006,19.637-3.313,2.964-5.288,5.053-7.8,12.038-6.567,8.628,1.527,12.641-6.15,15.7-12.743,2.215-4.767-2.7-6.574-5.583-9.141a7.874,7.874,0,0,1-2.46-5c-.241-5.9-1.418-11.908.749-17.894,8.319-4.914,18.425-1.545,26.855-5.739-2.294,5.662-4.044,10.87,3.15,14.912,5.478,3.078,11.811,5.932,12.556,13.621-3.23-1.742-6.967-2.941-9.562-5.363C161.25,203.916,157.718,204.209,154.033,204.047ZM78.259,307.982c-3.227,4.39-8.479,2.706-12.654,4.235-4.713,1.727-4.875,5.683-4.22,9.7.618,3.787,2.97,5.371,6.95,4.959,5.229-.541,10.515-.536,15.744-1.081,3.649-.379,5.881-2.552,6.052-6.436.259-5.874.768-11.752.68-17.621-.042-2.785-2.558-4.362-4.911-5.632,5.04-4.625,4.562-10.674,4.444-16.7-.093-4.715-2.24-7.473-6.921-8.024-6.6-.779-13.29-1.714-19.742.511-1.986.685-4.065,1.472-4.868-.406-.756-1.768.737-3.58,3.051-3.881a8.631,8.631,0,0,0,1.976-.181c7.721-3.034,9.394-5.7,8.323-13.127-.8-5.557-3.837-7.243-12.041-7.124-3.8.056-6.591,1.344-6.9,5.311-.34,4.429-.077,8.9-.077,12.614-3.337,2.228-4.607.15-5.613-1.328-2.825-4.154-5.594-2.627-7.779.187-5.634,7.255-3.847,13.909,4.232,17.508,4.32,1.925,8.6,3.482,13.455,2.481,2.189-.451,3.686.7,4.305,2.826.928,3.187,2.668,6.46,2.445,9.58-.292,4.084-5.4,2.568-7.675,4.672a43.637,43.637,0,0,0-5.425,5.765,4.368,4.368,0,0,0-.556,3.713c.844,1.833,3.024,3.207,4.727,1.882C62.258,306.948,70.459,308.67,78.259,307.982Zm143-180.19c0,4.61-.393,7.952.076,11.169,1.211,8.295,6.841,11.875,14.124,8.49,6.011-2.793,11.484-6.692,18.45-6.933,3.4-.117,3.959-2.787,4.6-5.445.7-2.908-1.32-6.294,1.847-9.1a67.585,67.585,0,0,0,.8,8.008c.394,1.826,1.043,4.114,2.385,5.132,6.7,5.081,16.259,1.153,18.412-7.209.537-2.086-2.9-4.743.875-6.273,2.8.709,1.895,2.981,2.128,4.768,1.456,11.15,1.469,11.109,12.192,14.188,2.5.72,4.852,1.992,7.355,2.723,10.682,3.122,14.591.664,16.673-10.277.562-2.954-2.462-6.5,1.442-8.932,3.3.3,6.613.38,9.839.956,2.79.5,6.467-2.684,8.441,1.841-2.985,2.884-6.142.087-9.178.428-3.759.421-6.486,1.61-6.349,5.81a6.065,6.065,0,0,0,6.371,6.255c3.793-.082,8.472-3.457,11.177-2.139,14.055,6.85,28.726,3.177,43.1,3.678,11.151.388,22.335-.109,33.5-.324,2.853-.054,5.36-1.407,5.377-4.508a5.842,5.842,0,0,0-4.51-5.853c-3.836-.753-8.168-1.7-11.713-.639-6.7,2-11.518,3.007-10.941-6.534a3.845,3.845,0,0,0-2.376-2.834c-9.077-1.894-14.567-8.365-20.164-14.93-1.091-1.279-4.124-2.348-5.458-1.743-9.746,4.418-17.989-1.725-26.865-3.272-4.186-.729-5.352,1.7-6.052,5.529-.787,4.3-5.321,2.4-5.869,1-1.983-5.08-4.893-7.759-10.41-6.8-5.029.868-10.949-1.292-14.747,3.875-1.628,2.215-3.281,4.453-6.078,4.655-11.754.849-22.814,7.04-35.071,4.192-10.494-2.439-22.406-.562-30.255-10.754-.941-1.223-3.7-.991-5.57-1.565-12.622-3.869-18.344,7-26.161,12.762-4.115,3.03-.039,11.277,5.516,11.545C212.006,128.918,215.883,128.217,221.263,127.792ZM459,264.605c-5.328.693-10.322-.544-15.434-1.651-5.369-1.163-11.185-.261-17.263-.261.347-4.494.942-8.44.89-12.378-.088-6.57-4.679-10.793-8.922-14.9-4.261-4.128-8.653-.564-12.843.723-6.938,2.131-13.9,4.259-20.661,6.874-8.08,3.126-9.2,5.148-8.569,13.21.206,2.637.8,5.242,1.075,7.877,2.1,20.294,2.092,20.3,21.814,20.013,9.163-.131,15.339,6.322,14.84,15.718-.244,4.606-1.171,9.193-1.18,13.789-.018,8.275,2.32,10.764,10.6,10.582,13.8-.3,27.54-.418,41.219,1.978,3.872.678,7.928.376,11.9.4a5.077,5.077,0,0,0,5.425-4.67,14.454,14.454,0,0,0-.933-7.569c-.661-1.385-3.447-1.628-5-2.769-.827-.61-5.23-.262-1.76-2.83,7.643-5.657.66-15.393,6.463-21.37,2.4-14.8.29-17.117-15.467-16.589-4.582.153-9.149.723-13.748,1.1a7.218,7.218,0,0,1,.033-2.252C452.808,266.267,457.949,269.4,459,264.605Zm13.9-81.04c2.718,0,8.056.2,13.367-.084,2.666-.143,5.43-1.448,6.355-4.114,2.221-6.4,1.754-13.111.951-19.663-.5-4.069-4.871-3.764-7.714-5.093-2.731-1.278-2.861-4.192-4.213-6.348-3.264-5.2-6.621-5.44-11-1.372-7.752,7.205-13.384,6.949-19.492-1.34-3.574-4.85-7.212-9.613-12.3-12.86-2.43-1.551-5.039-.644-6.925,1.777-1.8,2.3-2.493,5.22-1.079,7.389a12.86,12.86,0,0,0,6.266,4.406c5.825,2.083,8.395,5.847,8.3,12.026a89.542,89.542,0,0,0,.908,15.9c1.244,7.507,6,10.741,14,10.357C463.645,184.391,466.96,184.038,472.894,183.565ZM176.882,334.408c-20.125-8.546-20.131-8.617-36.926-7.314-28.782,2.233-22.43-1.379-24.311,27.831-.343,5.324,2.909,8.551,8.055,9.594,11.8,2.394,23.622.824,35.4-.239,4.664-.422,6.847-4.338,6.933-8.392C166.217,347.108,169.445,339.926,176.882,334.408Zm190.046-.285c5.911,7.027,6.808,9.113,9.177,20.859,1.542,7.646,3,9.167,10.023,9.8,5.273.475,10.593,1.216,15.85.966,25.562-1.211,24.856-.092,24.271-24.008a39.231,39.231,0,0,0-.861-7.828c-.625-2.712-2.434-4.871-5.366-5.058C402.48,327.732,384.548,322.113,366.928,334.123Zm69.119-144.729c-3.343.31-9.3.721-15.221,1.446-7.818.958-9.054,1.948-9.5,9.835-.34,5.974.575,11.886-6.817,14.648-2.847,1.064-3.188,4.2-1.527,6.689,2.209,3.3,4.92,6.268,7.334,9.44,3.762,4.946,8.531,2.4,12.822,1.486,4.058-.86,3.895-4.731,4.269-8a15.5,15.5,0,0,0-1.731-9.584c-1.347-2.437.372-3.868,2.3-4.4,3.183-.886,7.609-1.908,9.2,1.074,2.023,3.785-2.763,2.641-4.537,3.586-2.565,1.366-4.13,3.242-4.124,6.161a85.473,85.473,0,0,0,.328,9.938c1.34,11.257,4.208,13.858,15.129,14.16,7.44.206,10.579-2.973,10.29-10.929-.191-5.272.042-10.821-1.569-15.7-1.361-4.119-1-6.894.349-10.959C458.079,193.041,455.036,189.466,436.047,189.394Zm-382.176.755c-.967,5.125-1.943,10.671.252,15.447,1.99,4.329,3.52,8.182,2.884,13.079-.922,7.107-7.035,7.121-11.571,9.225-3.889,1.8-3.717,5-3.568,8.321.133,2.968,1.8,4.758,4.5,5.831,12.546,4.988,24.812,3.128,36.908-1.585,1.731-.675,3.763-2.011,2.89-4.4-.63-1.725-1.653-3.746-3.112-4.649-4.986-3.085-11.8-1.218-16.448-5.853a21.8,21.8,0,0,1,2.937-.98c5.143-.949,11.283,1.89,15.395-2.2,5.32-5.293-2.636-9.207-2.671-14.148-.009-1.333.093-2.672-.005-4-1.2-16.193-1.2-16.219-16.641-16.046C61.665,188.238,57.586,187.73,53.871,190.149Zm254.863-38.735c-4.078-.039-5.84,1.245-6.857,5.419-.781,3.2-1.212,6.486-2.013,9.681-5.9,23.522-2.141,20.863,15.78,28.137a37.645,37.645,0,0,0,5.756,1.437c4.3.991,7.683.008,9.965-4.129a61.071,61.071,0,0,1,4.56-6.47c11.584-15.721,11.571-16.859-5.141-26.369C324.035,155.279,316.874,151.665,308.734,151.414ZM408.821,306.859c-.173-3.79-.189-7.086-.5-10.353-.66-6.955-1.618-7.918-8.067-8.515-1.959-.181-3.937-.147-5.9-.288-17.779-1.272-17.468,1.575-19.48,18.905a17.03,17.03,0,0,0,.394,3.91c1.333,10.9,3.8,12.826,15.082,12,3.931-.287,7.908-.147,11.8-.657,5.028-.659,7.549-4.154,7.328-9.64C409.4,310.26,409.007,308.311,408.821,306.859ZM133.6,302.872c-.5,16.06-1.56,19.844,18.183,19.643.661-.006,1.321.159,1.984.21,8.371.647,10.51-.856,12.3-8.628,4.664-20.307-1.044-27.468-21.016-26.375-1.33.073-2.666.049-4,.131-4.428.271-7.761,1.663-7.477,7.03C133.719,297.539,133.6,300.209,133.6,302.872Zm-21.436,21.185c1.734.085,3.72.271,5.706.265,9.7-.032,12.123-2.2,12.435-11,.5-14.022-1.448-15.918-16.73-16.771-3.254-.181-6.509-1.338-9.715-1.162a10.961,10.961,0,0,0-10.21,11.956C94.972,320.83,89.554,325.279,112.167,324.057Zm364.572-99.6q-.307,1.267-.614,2.535c-5.035,1.192-10.137,2.164-15.081,3.659-2.879.87-3.522,3.67-3.4,6.426.092,2.146,1.473,3.414,3.408,4.21,11.646,4.793,23.362,2.681,35.03.233,3.42-.718,6.5-7.526,4.217-9.684-6.276-5.926-15.9-8.479-18.153-18.436-.1-.451-1-.785-1.584-1.049a5.723,5.723,0,0,0-1.9-.549c-5.219-.356-10.464-1.1-15.655-.838-3.679.188-5.555,3.336-5.779,6.919-.24,3.853,1.859,6.285,5.689,6.51C467.508,224.66,472.13,224.454,476.739,224.454Zm-367.8,143.56c2.249-11.237,1.756-12.447-7.269-12.876-9.3-.443-18.637-.322-27.953-.183a11.014,11.014,0,0,0-5.462,2.034,4.344,4.344,0,0,0-1.409,3.4c.067,1.112,1.114,3.079,1.785,3.1a43.373,43.373,0,0,1,25.757,9.435c6.207,4.816,14.24,7.153,18.842,14.266.728,1.126,3.65,1.456,5.4,1.178,5-.793,8.549-6.062,8.133-12.04-.348-5-3.991-6.381-8.344-6.537C115.17,369.679,111.812,370.175,108.942,368.014ZM478.836,209.159c2.525-.2,7.827-.58,13.121-1.042,2.739-.239,5.219-1.1,5.956-4.135a7.774,7.774,0,0,0-2.133-7.274c-4.5-4.908-8.974-9.705-16.752-8.606-3.915.553-7.973,0-11.948.246-5.428.329-7.982,3.157-8.113,9.113-.2,9.294,2.608,13.318,11.111,11.751C472.007,208.856,474.057,209.159,478.836,209.159ZM393.128,391.506c2.759,0,6.08.244,9.351-.054,5.764-.526,7.845-2.911,8.358-8.906.724-8.449-.985-10.718-8.988-11.761-2.609-.339-5.24-.51-7.862-.752-15.523-1.43-19.386,2.791-16.073,17.691.8,3.605,3.288,5.7,6.932,5.564C387.433,393.193,389.989,392.217,393.128,391.506ZM78.586,338.751c-.04-3.536-.963-6.63-5.108-6.872-5.887-.344-11.806-.615-17.691-.388-8.165.316-10.088,2.5-10.578,10.746-.372,6.256,3.6,10.66,9.231,9.21,5.066-1.305,9.917-2.672,15.275-2.825C76.855,348.418,78.641,345.864,78.586,338.751Zm363.711,11c.015-.253.029-.507.044-.761,3.263.222,6.525.458,9.789.663,3.921.246,5.847-1.8,6.769-5.472,2.455-9.781-.214-13.608-10.169-13.936-3.274-.107-6.566.137-9.842.339-8.017.493-12.042,7.321-8.751,15.331.616,1.5,2.708,2.9,4.381,3.335C436.987,349.89,439.692,349.626,442.3,349.748Zm-349.67-.357c7.238,0,10.505.2,13.736-.054,3.786-.3,5.755-2.305,5.249-6.435-1.3-10.613-2.425-11.8-13.093-12.391a48.506,48.506,0,0,0-9.643.168c-5.544.815-7.788,3.928-7.411,9.418.517,7.549,2.325,9.435,9.289,9.44C92.706,349.539,94.659,349.2,92.627,349.391Zm1.147-71.719c.1,2.192.038,5.492.433,8.736.552,4.543,4.689,7.46,10,7.292,4.651-.147,6.844-2.972,7.957-7.192,1.407-5.342-.478-10.409-1.067-15.566-.777-6.816-2.2-8.03-8.141-8.068-6.127-.038-8.181,1.787-8.717,7.808C94.065,272.645,93.974,274.615,93.774,277.672Zm82.26,99.274c3.7-.812,7.909-1.178,7.326-6.778-.287-2.754.007-5.073,3.455-5.52,2.543-.329,6.569.037,7.324-1.339,2.343-4.27-3.588-3.67-4.785-6.235a33.227,33.227,0,0,0-3.82-6.649,5.471,5.471,0,0,0-6.916-1.709c-2.914,1.408-6.1,3.222-4.82,7.223,1.238,3.853,1.794,6.083-2.322,9.5C167.155,369.029,170.727,376.593,176.034,376.946Zm4.758-259.589c0-.163,0-.326,0-.489,3.271,0,6.543.044,9.813-.011,4.151-.07,7.5-2.124,10.571-4.627,1.969-1.607,4-3.817,2.634-6.331-.617-1.136-3.56-1.7-5.254-1.41a50.193,50.193,0,0,0-9.309,2.96c-4.4,1.693-8.474,2.448-13.181.192a6.55,6.55,0,0,0-8.525,2.349c-1.388,2.243,3.389,7.015,7.384,7.339C176.869,117.488,178.836,117.357,180.792,117.357ZM481.346,247.521c-9.41.051-11.614,1.737-11.695,8.947-.083,7.431,2.708,9.857,11.123,9.669,7.643-.171,9.651-2.6,9.349-11.306C489.918,248.944,488.167,247.485,481.346,247.521Zm-35.653,9.732c5.695-.39,10.932-.516,16.084-1.245a3.641,3.641,0,0,0,3.3-4.045,4.253,4.253,0,0,0-3.376-4.135,64.587,64.587,0,0,0-29.14.349,3.691,3.691,0,0,0-3.1,4.266c.472,3.051,1.984,4.684,4.958,4.779C438.33,257.347,442.249,257.253,445.693,257.253Zm-350.821-.31v-.333c5.242,0,10.507.277,15.71-.175a3.465,3.465,0,0,0,2.7-4.46c-.363-1.1-1.078-2.516-2.008-2.914a35.528,35.528,0,0,0-19.353-2.422c-4.724.7-11.029-2.075-13.463,4.857-1.244,3.543,2.448,5.145,12.447,5.442C92.228,256.977,93.551,256.943,94.872,256.943Zm82.339,138.713c6.4.393,9.042-1.452,8.695-5.508-.461-5.375-3.791-8.7-8.55-8.585-3.6.089-5.965,2.041-7.65,5.011-1.665,2.935-.41,7.218,2.546,8.171A32.314,32.314,0,0,0,177.211,395.656Zm188.661-18.567a7.577,7.577,0,0,0,7.349-10.386,3.86,3.86,0,0,0-2.713-1.956,8.98,8.98,0,0,0-8.4,3.76c-1.06,1.491-2.328,3.515-2.1,5.094C360.455,376.624,363.718,376.293,365.872,377.089Zm-154.919-245.8a26.2,26.2,0,0,0-4.453.725c-1.754.635-4.135.99-4,3.538a11.733,11.733,0,0,0,1.376,5.436c2.159,3.449,5.619,2.617,8.854,1.911,2.793-.61,4.813-2.329,5.233-5.138.271-1.811.342-4.122-1.971-5.031A46.57,46.57,0,0,0,210.953,131.288ZM70.464,371.009a58.621,58.621,0,0,0-6.4,3.066c-1.554.965-2.778,2.728-1.758,4.571.438.79,2.2,1.055,3.4,1.175a7.277,7.277,0,0,0,6.7-2.622,4.647,4.647,0,0,0,.89-3.436C73.1,372.87,71.78,372.222,70.464,371.009Zm123.238,27.9c3.693.281,4.229-3.166,5.307-6.071.818-2.207-.147-3.662-2.212-4.012-3.385-.573-6.623-.039-7.349,4.033C188.971,395.536,190.132,397.776,193.7,398.914Zm302.633-77.221c-.752-3.372-2.413-6.132-6.174-6.168-2.85-.027-4.773,1.789-4.393,4.9.485,3.961,3.285,4.98,6.823,4.77C494.806,325.059,495.764,323.587,496.335,321.693ZM124.853,283.869c-3.249-.047-6.895,3.593-5.957,6.2,1,2.769,3.508,3.81,6.189,3.459,2.555-.334,5.143-1.252,4.817-4.772C129.618,285.686,127.7,284.291,124.853,283.869Zm359.937,23.1c1.064,1.493,1.912,3.211,3.24,4.389,1.161,1.032,2.608.446,3.331-1a3.969,3.969,0,0,0-3.4-5.458C487.019,304.9,486.075,306.088,484.79,306.968Z"/><path class="a" d="M437.8,403.846c.871,2.36,2.617,4.81,2.384,7.054-.271,2.605-3.123,3.9-5.785,4.52-12.854,2.973-25.693,6.017-38.578,8.851a17.3,17.3,0,0,1-7.767.193c-1.559-.4-2.937-2.529-3.8-4.192a3.839,3.839,0,0,1,.592-3.636c5.681-4.376,11.556-8.5,17.371-12.7l-.492.286,36.469-.042Z"/><path class="a" d="M281.413,424.212c8.386-2.632,15.081-4.8,21.822-6.814a7.316,7.316,0,0,1,7.4,1.485,9.787,9.787,0,0,1,2.467,2.753c.6,1.3-.394,1.949-2.218,1.994-2.593.064-6.206-.7-7.6.686C296.525,431.045,289.974,427.7,281.413,424.212Z"/><path class="a" d="M229.392,421.789c1.936-3.342,4.758-5.05,8.141-4.477a63.96,63.96,0,0,1,13.147,3.593c2.289.923,7.906-.915,6.026,4.266-.664,1.83-5.657,2.31-8.766,2.978-4.44.954-6.67-3.514-10.341-4.7C234.948,422.6,231.638,424.639,229.392,421.789Z"/><path class="a" d="M160.3,434.04a87.776,87.776,0,0,1,6.718-6.769c3.311-2.714,7.227-2.9,11.106-1.284,2.323.97,5.14,2.24,4.106,5.361a6.781,6.781,0,0,1-4.225,3.612C172.3,436.447,166.364,433.16,160.3,434.04Z"/><path class="a" d="M383.145,435.7c-7.472,0-12.775.212-18.049-.084a5.5,5.5,0,0,1-5.077-5.2c-.1-2.89,2.765-4.457,5.412-5,4.016-.83,7.954-.665,10.944,2.9C378.018,430.265,379.822,432.088,383.145,435.7Z"/><path class="a" d="M103.484,428.182a66,66,0,0,1-7.722-.1c-1.011-.12-2.8-1.723-2.677-2.021.667-1.643,1.493-3.942,2.852-4.454,4.965-1.867,10.171-2.211,15.041.494.949.526,1.517,1.925,2.011,3.033.585,1.309-.13,2.457-1.808,2.581-2.553.19-5.13.05-7.7.05Z"/><path class="a" d="M252.216,404.972c-1.527,1.343-2.158,2.363-2.945,2.5-2.388.423-4.9.653-6.482-1.829-.086-.135.808-1.3,1.228-1.285C246.441,404.423,248.859,404.694,252.216,404.972Z"/><path class="b" d="M174.019,212.275c-.739-7.686-7.072-10.54-12.55-13.618-7.194-4.042-5.444-9.25-3.15-14.912l-.353.4c8.074-1.847,12.785-8.812,19.458-12.825,7.311-4.4,12.119-4.159,16.332,3.15,4.613,8,9.087,15.91,16.337,21.858l-.331-.356c3.06,6.886-7.85,8.171-6.248,15.368,3.029-.629,5.575-1.713,8.053-1.575,10.146.566,15.523-4.963,18.612-13.753l-.462.275c5.485-.275,10.82-.262,11.939,6.937.616,3.965,3.309,5.374,6.88,5.616,14.769,1,16.865-.7,18.8-15.364a40.657,40.657,0,0,0,.033-5.453,32.823,32.823,0,0,0-4.255-1.51c-1.28-.254-2.653-.019-3.943-.243-8.38-1.453-8.876-1.953-10.272-9.3-.837-4.406.751-9.389-3.09-13.086l.256.486c.044-3.964-.377-8.005.256-11.874.7-4.308,4.383-7.629,8.188-7.521,13.623.39,27.842-2.57,40.7,5.3-.421,8.9-.7,17.5-1.272,26.069-.494,7.358-1.766,8.6-9.277,10.329-.635.145-1.343-.038-1.982.1-7.929,1.669-8.415,2.369-7.038,10.5a47.659,47.659,0,0,0,1.4,5.8,43.337,43.337,0,0,0,1.868,4.292c4.2.5,8.745,1.259,13.319,1.521,5.147.295,7.929-1.813,9.949-7.269,2.6-7.019,9.428-7.478,12.4-1.283,2.573,5.37,5.514,8.561,11.726,8.812,4.489.182,8.935,1.407,13.328,2.155,1.9-3.79-1.123-4.911-2.719-6.307-4.276-3.741-4.74-7.557-1.329-12.1,4.763-6.341,9.233-12.906,14.1-19.166,5.079-6.534,5.2-6.377,14.842-2.566a36.427,36.427,0,0,0,5.756,1.28l-.414-.391c3.114,7.053,8.723,10.777,16.141,12.084l-.332-.366c1.742,8.007-.224,14.687-7.785,18.555-9.66,4.941-16.372,16.295-29.539,13.787-.43-.081-1.25.666-1.488,1.2-.179.4.159,1.492.483,1.595,6.674,2.125,5.852,7.452,5.519,12.612-.6,9.269,2.245,15.671,12.937,15.838,2.13.033,3.434,1.8,3.776,3.873.5,3.011-.967,5.063-3.68,6.206-1.213.51-2.57.671-3.808,1.133-8.672,3.237-11.795,6.448-8.359,14.266,4.4,10,1.606,16.14-5.781,22.346-2.488-2.8-4.669-5.3-6.907-7.752a8.066,8.066,0,0,1-1.765-9.078,34.6,34.6,0,0,0,2.127-9.583c.3-4.377-1.61-7.71-6.249-8.829a38.035,38.035,0,0,0-3.915-.743c-11.4-1.5-14.4,1.188-14.069,12.8.1,3.32.524,6.638.93,9.941.669,5.443-3.035,8.568-6.382,11.69-2.391,2.23-4.6,1.12-6.463-1.376-2.454-3.282-4.393-6.558-3.692-10.936a55.941,55.941,0,0,0,.849-9.858c-.254-13.082-9.389-18.708-21.357-13.151-2.514,1.167-3.75,3.59-4.026,6.427a50.178,50.178,0,0,0,1.529,17.806c1.193,4.538-2.063,7.34-4.374,10.53-1.682,2.322-3.8,1.493-5.009.244-3.508-3.609-8.944-6.654-5.192-13.272a16.979,16.979,0,0,0,1.907-5.621c2.253-14.261-3.452-19.638-17.963-17.125a8.74,8.74,0,0,0-7.3,5.948,49.47,49.47,0,0,0-1.681,7.733,15,15,0,0,0,1.652,9.607c3.243,6.382-2.547,9.554-5.44,13.585a2.892,2.892,0,0,1-4.913-.114c-2.528-4.221-8.988-6.751-5.91-13.521a18.905,18.905,0,0,0,1.407-5.763c1.444-13.576-2.29-17.273-15.446-15.438-6.947.969-8.89,3.35-8.589,10.677.082,1.987-.195,4.251.647,5.9,4.063,7.971-1.208,12.368-6.212,16.746-2.59,2.266-4.673.874-6.225-1.811-2.309-3.994-5.475-7.7-2.66-12.82a18.178,18.178,0,0,0,1.886-5.651c1.389-8.237-.624-11.34-9.774-13.871-3.736-1.034-7.167-3.794-12.414-2.339-1.367,7.23-2.742,14.924-4.3,22.582-.749,3.677-3.3,5.706-7,5.934a70.841,70.841,0,0,1-31.255-4.844c-5.648-2.3-10-7.159-8.529-14.2,1.881-8.99-1.28-18.768,4.685-27.158,2.614-3.675,5.5-5.819,9.9-4.391,10.085,3.271,20.551,5.859,29.968,10.526,6.238,3.091,11.236,3.425,17.906,2.239,8.784-1.562,10.543-5.4,11.314-13.386,1.192-12.347-5.7-18.129-16.058-21.6Zm166.975,23.2c-.063-1.321-.093-2.644-.2-3.962-.731-9.464-2.335-11.069-12.329-10.94-5.853.076-11.8,1.634-15.922-4.6-1-1.509-3.637-1.692-5.227.056-2.361,2.6-1.182,5.173,1.4,6.24,5.162,2.132,6.13,5.965,6.438,10.97.7,11.43,5.024,14.867,17.028,12.931C338.942,245.083,341.061,242.4,340.994,235.479Zm-138.8-3.8c0,3.1-.406,5.824.142,8.34a7.484,7.484,0,0,0,3.26,4.48c11.556,6.348,21.259.741,21.411-12.228a25.3,25.3,0,0,0-.411-5.889,5.955,5.955,0,0,0-5.308-5.011,107.3,107.3,0,0,0-11.821-.857c-3.632.011-6.219,1.928-6.846,5.726C202.305,228.181,202.307,230.173,202.2,231.681Zm99.4,1.562c.2-9.733-1.51-12.277-8.478-12.58-12.123-.529-16.471,1.8-16.817,9-.5,10.454,3.667,15.2,13.425,15.282C298.947,245.025,301.4,242.606,301.6,233.243Zm-59.978-1.3c-.078,10.467,1.871,12.972,10.135,13.027,9.89.066,14.519-4.354,14.865-14.194.265-7.515-3.655-10.064-15.546-10.106C243.223,220.643,241.688,222.473,241.618,231.944ZM233.7,249.323c-.746.345-2.554.762-2.585,1.283a3.883,3.883,0,0,0,1.393,3.162c1.932.993,3.593.066,3.615-2.176C236.128,250.866,234.6,250.125,233.7,249.323Zm77.69-.589c-1.024.588-2.561.963-2.92,1.827-.332.8.311,2.772,1.03,3.092,2.172.968,3.42-.594,3.652-2.538C313.235,250.4,312.017,249.531,311.387,248.734ZM345.274,252c.482.954.728,2.255,1.5,2.783,1.267.866,2.429.194,2.693-1.354.292-1.712.324-3.623-2.019-3.672C346.741,249.74,346,251.205,345.274,252Z"/><path class="b" d="M158.319,183.745c-8.43,4.194-18.536.825-26.855,5.739-2.167,5.986-.99,11.989-.749,17.894a7.874,7.874,0,0,0,2.46,5c2.884,2.567,7.8,4.374,5.583,9.141-3.063,6.593-7.076,14.27-15.7,12.743-6.985-1.235-9.074,1.279-12.038,6.567-2.98,5.319-15.229,6.846-19.637,3.313a8.053,8.053,0,0,1-2.773-5.111,79.328,79.328,0,0,1,0-15.863c.873-6.54,1.835-12.66-1.359-19.072-1.7-3.407-1.137-7.879.85-11.59,2.361-4.408,6.824-3.172,10.607-3.742,2.172-.327,3.495-1.7,2.839-3.776-.239-.756-2.358-1.507-3.452-1.313-14.589,2.59-29.143-.563-43.717-.228-4.252.1-7.592-2.346-7.508-7.372.078-4.655.306-9.308.448-13.962.087-2.909,1.3-5.131,4.118-6.068a15.066,15.066,0,0,0,7.948-5.26c6.707-8.657,7.037-8.47,14.4.927,1.27,1.62,2.339,3.186,4.466,1.763,4.769-3.192,11.21-3.426,14.34-9.754,1.972-3.986,5.982-7.09,9.458-10.157,1.992-1.758,5.359-2.641,7.229-.4,4.478,5.377,8.224,3.7,13.579,1.015,3.732-1.87,9.106-.805,13.7-.474,2.718.195,6.192.986,6.462-2.17.861-10.107,12.1-6.669,15.748-12.791.934-1.568,2.034-1.94,3.223-.658,7.244,7.809,16.327,2.337,24.485,3.247,10.415,1.163,14.5,5.554,11.943,15.561-.873,3.416-3.195,6.461-4.857,9.679a23.138,23.138,0,0,0,3.956,1.4c4.749.711,12.066-3.011,13.554,2.946,1.278,5.114-6.839,4.793-10.374,7.512-4.27,3.285-8.891,5.421-14.726,4.8-4.014-.43-7.5,2.145-11.019,4.133-11.882,6.7-11.939,6.6-16.168-10.291-1.558,11.08-1.936,19.034-.829,27.086ZM121.313,146.59a32.887,32.887,0,0,0-3.575-2.877c-2.518-1.53-5.049-.959-6.192,1.571-.856,1.894,1.281,2.841,2.917,3.355C116.913,149.409,119.289,149.556,121.313,146.59Z"/><path class="b" d="M221.263,127.792c-5.38.425-9.257,1.126-13.091.94-5.555-.268-9.631-8.515-5.516-11.545,7.817-5.758,13.539-16.631,26.161-12.762,1.874.574,4.629.342,5.57,1.565,7.849,10.192,19.761,8.315,30.255,10.754,12.257,2.848,23.317-3.343,35.071-4.192,2.8-.2,4.45-2.44,6.078-4.655,3.8-5.167,9.718-3.007,14.747-3.875,5.517-.954,8.427,1.725,10.41,6.8.548,1.4,5.082,3.3,5.869-1,.7-3.829,1.866-6.258,6.052-5.529,8.876,1.547,17.119,7.69,26.865,3.272,1.334-.605,4.367.464,5.458,1.743,5.6,6.565,11.087,13.036,20.164,14.93a3.845,3.845,0,0,1,2.376,2.834c-.577,9.541,4.245,8.536,10.941,6.534,3.545-1.059,7.877-.114,11.713.639a5.842,5.842,0,0,1,4.51,5.853c-.017,3.1-2.524,4.454-5.377,4.508-11.168.215-22.352.712-33.5.324-14.37-.5-29.041,3.172-43.1-3.678-2.705-1.318-7.384,2.057-11.177,2.139a6.065,6.065,0,0,1-6.371-6.255c-.137-4.2,2.59-5.389,6.349-5.81,3.036-.341,6.193,2.456,9.178-.428-1.974-4.525-5.651-1.344-8.441-1.841-3.226-.576-6.54-.658-9.839-.956-3.9,2.433-.88,5.978-1.442,8.932-2.082,10.941-5.991,13.4-16.673,10.277-2.5-.731-4.85-2-7.355-2.723-10.723-3.079-10.736-3.038-12.192-14.188-.233-1.787.667-4.059-2.128-4.768-3.772,1.53-.338,4.187-.875,6.273-2.153,8.362-11.712,12.29-18.412,7.209-1.342-1.018-1.991-3.306-2.385-5.132a67.585,67.585,0,0,1-.8-8.008c-3.167,2.8-1.145,6.188-1.847,9.1-.642,2.658-1.2,5.328-4.6,5.445-6.966.241-12.439,4.14-18.45,6.933-7.283,3.385-12.913-.195-14.124-8.49C220.87,135.744,221.263,132.4,221.263,127.792Z"/><path class="b" d="M459,264.605c-1.047,4.8-6.188,1.662-7.515,5.022a7.218,7.218,0,0,0-.033,2.252c4.6-.381,9.166-.951,13.748-1.1,15.757-.528,17.867,1.793,15.467,16.589-5.8,5.977,1.18,15.713-6.463,21.37-3.47,2.568.933,2.22,1.76,2.83,1.548,1.141,4.334,1.384,5,2.769a14.454,14.454,0,0,1,.933,7.569,5.077,5.077,0,0,1-5.425,4.67c-3.973-.02-8.029.282-11.9-.4-13.679-2.4-27.418-2.281-41.219-1.978-8.28.182-10.618-2.307-10.6-10.582.009-4.6.936-9.183,1.18-13.789.5-9.4-5.677-15.849-14.84-15.718-19.722.282-19.711.281-21.814-20.013-.273-2.635-.869-5.24-1.075-7.877-.631-8.062.489-10.084,8.569-13.21,6.763-2.615,13.723-4.743,20.661-6.874,4.19-1.287,8.582-4.851,12.843-.723,4.243,4.11,8.834,8.333,8.922,14.9.052,3.938-.543,7.884-.89,12.378,6.078,0,11.894-.9,17.263.261C448.674,264.061,453.668,265.3,459,264.605Zm-31.627,16.512c-5,4.8-2.784,8.991-3.74,12.616-.576,2.189,3.6,3.064,6.168,2.63,1.87-.316,3.183-1.478,2.1-3.9C430.38,289.073,429.127,285.565,427.369,281.117Z"/><path class="b" d="M438.2,404.177l-36.469.042c2.4-5.347,3.869-11.642,11.084-12.6,4.076-.542,5.933-2.345,5-6.468-.442-1.94-1.349-3.808-1.562-5.761-.675-6.16,1.076-8.508,7.125-9.5,2.6-.426,5.343-.043,7.918-.548,3.913-.767,2.7-2.7,1.415-5.466-2.627-5.636-1.728-7.685,2.992-8.113,12.529-1.135,25.1-2.481,37.578.388,1.918.441,3.847,1.549,5.47-.014a12.692,12.692,0,0,0,3.106-4.689c.544-1.527-.6-2.533-2.2-2.566-1.981-.041-3.98.082-5.94-.139-7.7-.868-9.9-4.036-8.5-11.843.524-2.931,2.062-4.863,5.057-5.02,5.3-.277,10.628-.574,15.924-.359,9.108.371,10.172,1.336,12.06,9.877,1.409,6.371,2.793,12.761,3.813,19.2.805,5.085-1.009,6.432-6.317,5.757-6.561-.834-13.179-1.213-19.761-1.891-9.672-1-18.478.909-26.171,7.19a65.433,65.433,0,0,1-6.716,4.3C428.516,385.124,428,388.084,438.2,404.177Z"/><path class="b" d="M386,184.146c-.212-9.3-.813-18.6-.5-27.884.217-6.464,4.242-9.377,10.957-7.906a84.826,84.826,0,0,0,35.233.124,7.834,7.834,0,0,1,9.563,7.452,160.669,160.669,0,0,1-.276,21.808c-.26,3.381-2.96,6.873-6.355,6.786-16.315-.418-32.75,5.813-48.949-.743Z"/><path class="b" d="M472.894,183.565c-5.934.473-9.249.826-12.574.985-8,.384-12.754-2.85-14-10.357a89.542,89.542,0,0,1-.908-15.9c.093-6.179-2.477-9.943-8.3-12.026a12.86,12.86,0,0,1-6.266-4.406c-1.414-2.169-.717-5.085,1.079-7.389,1.886-2.421,4.5-3.328,6.925-1.777,5.089,3.247,8.727,8.01,12.3,12.86,6.108,8.289,11.74,8.545,19.492,1.34,4.376-4.068,7.733-3.831,11,1.372,1.352,2.156,1.482,5.07,4.213,6.348,2.843,1.329,7.216,1.024,7.714,5.093.8,6.552,1.27,13.266-.951,19.663-.925,2.666-3.689,3.971-6.355,4.114C480.95,183.766,475.612,183.565,472.894,183.565Z"/><path class="b" d="M176.882,334.408c-7.437,5.518-10.665,12.7-10.851,21.48-.086,4.054-2.269,7.97-6.933,8.392-11.776,1.063-23.6,2.633-35.4.239-5.146-1.043-8.4-4.27-8.055-9.594,1.881-29.21-4.471-25.6,24.311-27.831C156.751,325.791,156.757,325.862,176.882,334.408Z"/><path class="b" d="M366.928,334.123c17.62-12.01,35.552-6.391,53.094-5.271,2.932.187,4.741,2.346,5.366,5.058a39.231,39.231,0,0,1,.861,7.828c.585,23.916,1.291,22.8-24.271,24.008-5.257.25-10.577-.491-15.85-.966-7.018-.631-8.481-2.152-10.023-9.8C373.736,343.236,372.839,341.15,366.928,334.123Z"/><path class="b" d="M436.047,189.394c18.989.072,22.032,3.647,16.989,18.887-1.346,4.065-1.71,6.84-.349,10.959,1.611,4.879,1.378,10.428,1.569,15.7.289,7.956-2.85,11.135-10.29,10.929-10.921-.3-13.789-2.9-15.129-14.16a85.473,85.473,0,0,1-.328-9.938c-.006-2.919,1.559-4.795,4.124-6.161,1.774-.945,6.56.2,4.537-3.586-1.592-2.982-6.018-1.96-9.2-1.074-1.925.536-3.644,1.967-2.3,4.4a15.5,15.5,0,0,1,1.731,9.584c-.374,3.269-.211,7.14-4.269,8-4.291.909-9.06,3.46-12.822-1.486-2.414-3.172-5.125-6.136-7.334-9.44-1.661-2.484-1.32-5.625,1.527-6.689,7.392-2.762,6.477-8.674,6.817-14.648.45-7.887,1.686-8.877,9.5-9.835C426.746,190.115,432.7,189.7,436.047,189.394Z"/><path class="b" d="M53.871,190.149c3.715-2.419,7.794-1.911,11.749-1.955,15.437-.173,15.444-.147,16.641,16.046.1,1.326,0,2.665.005,4,.035,4.941,7.991,8.855,2.671,14.148-4.112,4.092-10.252,1.253-15.395,2.2a21.8,21.8,0,0,0-2.937.98c4.646,4.635,11.462,2.768,16.448,5.853,1.459.9,2.482,2.924,3.112,4.649.873,2.386-1.159,3.722-2.89,4.4-12.1,4.713-24.362,6.573-36.908,1.585-2.7-1.073-4.366-2.863-4.5-5.831-.149-3.322-.321-6.517,3.568-8.321,4.536-2.1,10.649-2.118,11.571-9.225.636-4.9-.894-8.75-2.884-13.079C51.928,200.82,52.9,195.274,53.871,190.149Z"/><path class="b" d="M78.26,307.984c-7.8.686-16-1.036-23,4.4-1.7,1.325-3.883-.049-4.727-1.882a4.368,4.368,0,0,1,.556-3.713,43.637,43.637,0,0,1,5.425-5.765c2.276-2.1,7.383-.588,7.675-4.672.223-3.12-1.517-6.393-2.445-9.58-.619-2.124-2.116-3.277-4.3-2.826-4.859,1-9.135-.556-13.455-2.481-8.079-3.6-9.866-10.253-4.232-17.508,2.185-2.814,4.954-4.341,7.779-.187,1.006,1.478,2.276,3.556,5.613,1.328,0-3.71-.263-8.185.077-12.614.3-3.967,3.1-5.255,6.9-5.311,8.2-.119,11.239,1.567,12.041,7.124,1.071,7.427-.6,10.093-8.323,13.127a8.631,8.631,0,0,1-1.976.181c-2.314.3-3.807,2.113-3.051,3.881.8,1.878,2.882,1.091,4.868.406,6.452-2.225,13.138-1.29,19.742-.511,4.681.551,6.828,3.309,6.921,8.024.118,6.028.6,12.077-4.444,16.7l.3-.188a6.524,6.524,0,0,1-1.788.493c-4.361-.078-9.341-1.009-6.108,6.41.636,1.459-.321,3.611-.543,5.444Z"/><path class="b" d="M210.093,196.332c.82-8.383-6.862-12.387-9.851-18.859-3.36-7.277-3.592-8.178,2.993-12.884a79.927,79.927,0,0,1,26.6-12.845c6.665-1.712,9.52.306,12.96,7.88a31.863,31.863,0,0,0,3.265,4.748l-.256-.486c1.73,6.938,1.988,14.163-.154,20.755-2.153,6.625-11.252,4.75-15.2,9.893a7.451,7.451,0,0,0-.737,1.757l.462-.276-20.417-.039Z"/><path class="b" d="M308.734,151.414c8.14.251,15.3,3.865,22.05,7.706,16.712,9.51,16.725,10.648,5.141,26.369a61.071,61.071,0,0,0-4.56,6.47c-2.282,4.137-5.67,5.12-9.965,4.129a37.645,37.645,0,0,1-5.756-1.437c-17.921-7.274-21.678-4.615-15.78-28.137.8-3.2,1.232-6.481,2.013-9.681C302.894,152.659,304.656,151.375,308.734,151.414Z"/><path class="b" d="M105.84,404.059a19.755,19.755,0,0,0,2.165-3.341c3.081-7.778,8.1-11.787,16.756-8.761,4.778,1.671,5.744-1.21,5.838-4.864.05-1.963-.649-3.935-.711-5.912-.239-7.665.969-9.131,8.511-10.347,5.234-.844,10.469-1.86,15.743-2.229,5.595-.39,9.251,3.354,9.978,9.282.4,3.291,1.061,6.554,1.379,9.852.376,3.9-1.815,6.663-5.337,7.133-6.531.873-13.337.283-18.362,5.9-.768.86-2.646,1.615-3.612,1.278-11.143-3.891-21.646,3.653-32.637,1.669C105.545,403.719,105.84,404.059,105.84,404.059Z"/><path class="b" d="M408.821,306.859c.186,1.452.582,3.4.661,5.363.221,5.486-2.3,8.981-7.328,9.64-3.9.51-7.873.37-11.8.657-11.287.825-13.749-1.1-15.082-12a17.03,17.03,0,0,1-.394-3.91c2.012-17.33,1.7-20.177,19.48-18.905,1.964.141,3.942.107,5.9.288,6.449.6,7.407,1.56,8.067,8.515C408.632,299.773,408.648,303.069,408.821,306.859Z"/><path class="b" d="M133.6,302.872c0-2.663.116-5.333-.025-7.989-.284-5.367,3.049-6.759,7.477-7.03,1.329-.082,2.665-.058,4-.131,19.972-1.093,25.68,6.068,21.016,26.375-1.786,7.772-3.925,9.275-12.3,8.628-.663-.051-1.323-.216-1.984-.21C132.043,322.716,133.1,318.932,133.6,302.872Z"/><path class="b" d="M112.167,324.057c-22.613,1.222-17.2-3.227-18.514-16.715a10.961,10.961,0,0,1,10.21-11.956c3.206-.176,6.461.981,9.715,1.162,15.282.853,17.227,2.749,16.73,16.771-.312,8.806-2.735,10.971-12.435,11C115.887,324.328,113.9,324.142,112.167,324.057Z"/><path class="b" d="M476.739,224.454c-4.609,0-9.231.206-13.825-.064-3.83-.225-5.929-2.657-5.689-6.51.224-3.583,2.1-6.731,5.779-6.919,5.191-.265,10.436.482,15.655.838a5.723,5.723,0,0,1,1.9.549c.584.264,1.482.6,1.584,1.049,2.252,9.957,11.877,12.51,18.153,18.436,2.284,2.158-.8,8.966-4.217,9.684-11.668,2.448-23.384,4.56-35.03-.233-1.935-.8-3.316-2.064-3.408-4.21-.117-2.756.526-5.556,3.4-6.426,4.944-1.5,10.046-2.467,15.081-3.659Q476.433,225.722,476.739,224.454Z"/><path class="b" d="M154.044,204.032c3.674.177,7.206-.116,10.419,2.883,2.595,2.422,6.332,3.621,9.559,5.361l-.44-.4c9.5,11.655,9.23,11.461,1.223,22.785-6.034,8.532-9.184,7.2-16.814,4.912-3.7-1.106-7-3.618-10.389-5.641-7.782-4.642-8.479-8.27-2.94-15.571,3.57-4.706,7.981-8.841,9.733-14.742Z"/><path class="b" d="M389.755,207.973c1.162,1.615,2.256,3.284,3.5,4.836,11.263,14.1,10.724,16.9-4.832,24.813-11.779,5.99-15,5.131-22.941-5.833-1.965-2.714-3.974-5.326-4.151-8.885,4.326-8.8,13.815-11.669,20.749-17.5,2.87-2.412,6.2-.45,8.034,2.923Z"/><path class="b" d="M108.942,368.014c2.87,2.161,6.228,1.665,9.483,1.782,4.353.156,8,1.537,8.344,6.537.416,5.978-3.132,11.247-8.133,12.04-1.753.278-4.675-.052-5.4-1.178-4.6-7.113-12.635-9.45-18.842-14.266a43.373,43.373,0,0,0-25.757-9.435c-.671-.023-1.718-1.99-1.785-3.1a4.344,4.344,0,0,1,1.409-3.4,11.014,11.014,0,0,1,5.462-2.034c9.316-.139,18.651-.26,27.953.183C110.7,355.567,111.191,356.777,108.942,368.014Z"/><path class="b" d="M370.275,172.453a11.153,11.153,0,0,0-11.867-8.634c-9.518.61-15.928-5.451-23.6-8.762a6.316,6.316,0,0,1-3.234-4.241c-.3-2.434,2.218-2.989,4.1-2.992,11.213-.015,22.444-.22,33.634.333,10.084.5,12.981,3.765,13.384,13.077.445,10.266-.343,10.931-12.838,10.826Z"/><path class="b" d="M478.836,209.159c-4.779,0-6.829-.3-8.758.053-8.5,1.567-11.314-2.457-11.111-11.751.131-5.956,2.685-8.784,8.113-9.113,3.975-.241,8.033.307,11.948-.246,7.778-1.1,12.252,3.7,16.752,8.606a7.774,7.774,0,0,1,2.133,7.274c-.737,3.037-3.217,3.9-5.956,4.135C486.663,208.579,481.361,208.961,478.836,209.159Z"/><path class="b" d="M393.128,391.506c-3.139.711-5.695,1.687-8.282,1.782-3.644.135-6.13-1.959-6.932-5.564-3.313-14.9.55-19.121,16.073-17.691,2.622.242,5.253.413,7.862.752,8,1.043,9.712,3.312,8.988,11.761-.513,6-2.594,8.38-8.358,8.906C399.208,391.75,395.887,391.506,393.128,391.506Z"/><path class="b" d="M78.586,338.751c.055,7.113-1.731,9.667-8.871,9.871-5.358.153-10.209,1.52-15.275,2.825-5.628,1.45-9.6-2.954-9.231-9.21.49-8.245,2.413-10.43,10.578-10.746,5.885-.227,11.8.044,17.691.388C77.623,332.121,78.546,335.215,78.586,338.751Z"/><path class="b" d="M85.9,296.11c2.353,1.27,4.869,2.847,4.911,5.632.088,5.869-.421,11.747-.68,17.621-.171,3.884-2.4,6.057-6.052,6.436-5.229.545-10.515.54-15.744,1.081-3.98.412-6.332-1.172-6.95-4.959-.655-4.021-.493-7.977,4.22-9.7,4.175-1.529,9.427.155,12.654-4.234l-.494.286c2.514-.193,5.852.04,4.9-3.831-.987-4.021,1.77-5.939,3.537-8.516Z"/><path class="b" d="M442.3,349.748c-2.605-.122-5.31.142-7.779-.5-1.673-.435-3.765-1.836-4.381-3.335-3.291-8.01.734-14.838,8.751-15.331,3.276-.2,6.568-.446,9.842-.339,9.955.328,12.624,4.155,10.169,13.936-.922,3.675-2.848,5.718-6.769,5.472-3.264-.2-6.526-.441-9.789-.663C442.326,349.241,442.312,349.5,442.3,349.748Z"/><path class="b" d="M92.627,349.391c2.032-.189.079.148-1.873.146-6.964,0-8.772-1.891-9.289-9.44-.377-5.49,1.867-8.6,7.411-9.418a48.506,48.506,0,0,1,9.643-.168c10.668.588,11.792,1.778,13.093,12.391.506,4.13-1.463,6.133-5.249,6.435C103.132,349.6,99.865,349.391,92.627,349.391Z"/><path class="b" d="M93.774,277.672c.2-3.057.291-5.027.466-6.99.536-6.021,2.59-7.846,8.717-7.808,5.945.038,7.364,1.252,8.141,8.068.589,5.157,2.474,10.224,1.067,15.566-1.113,4.22-3.306,7.045-7.957,7.192-5.312.168-9.449-2.749-10-7.292C93.812,283.164,93.87,279.864,93.774,277.672Z"/><path class="b" d="M176.034,376.946c-5.307-.353-8.879-7.917-4.558-11.505,4.116-3.419,3.56-5.649,2.322-9.5-1.285-4,1.906-5.815,4.82-7.223a5.471,5.471,0,0,1,6.916,1.709,33.227,33.227,0,0,1,3.82,6.649c1.2,2.565,7.128,1.965,4.785,6.235-.755,1.376-4.781,1.01-7.324,1.339-3.448.447-3.742,2.766-3.455,5.52C183.943,375.768,179.73,376.134,176.034,376.946Z"/><path class="b" d="M180.792,117.357c-1.956,0-3.923.131-5.866-.028-3.995-.324-8.772-5.1-7.384-7.339a6.55,6.55,0,0,1,8.525-2.349c4.707,2.256,8.783,1.5,13.181-.192a50.193,50.193,0,0,1,9.309-2.96c1.694-.292,4.637.274,5.254,1.41,1.366,2.514-.665,4.724-2.634,6.331-3.067,2.5-6.42,4.557-10.571,4.627-3.27.055-6.542.011-9.813.011C180.793,117.031,180.793,117.194,180.792,117.357Z"/><path class="b" d="M481.346,247.521c6.821-.036,8.572,1.423,8.777,7.31.3,8.706-1.706,11.135-9.349,11.306-8.415.188-11.206-2.238-11.123-9.669C469.732,249.258,471.936,247.572,481.346,247.521Z"/><path class="b" d="M354,404.268c1.4-6.3,2.551-12.675,4.266-18.891,1.246-4.515,7.025-6.182,11.311-3.7,4.682,2.715,7.269,8.261,5.345,11.543-.309.527-.91,1.345-1.291,1.3-8.63-1.011-12.452,8.165-20,9.377Z"/><path class="b" d="M445.693,257.253c-3.444,0-7.363.094-11.275-.031-2.974-.095-4.486-1.728-4.958-4.779a3.691,3.691,0,0,1,3.1-4.266,64.587,64.587,0,0,1,29.14-.349,4.253,4.253,0,0,1,3.376,4.135,3.641,3.641,0,0,1-3.3,4.045C456.625,256.737,451.388,256.863,445.693,257.253Z"/><path class="b" d="M94.872,256.943c-1.321,0-2.644.034-3.964,0-10-.3-13.691-1.9-12.447-5.442,2.434-6.932,8.739-4.161,13.463-4.857a35.528,35.528,0,0,1,19.353,2.422c.93.4,1.645,1.817,2.008,2.914a3.465,3.465,0,0,1-2.7,4.46c-5.2.452-10.468.175-15.71.175Z"/><path class="b" d="M390.111,208.329c-.135-3.938-.411-7.877-.361-11.812.041-3.246.258-6.937,3.786-8.251,4.079-1.52,7.756.675,10.827,3.156,2.5,2.016,3.94,12.117,2.064,14.76a7.18,7.18,0,0,1-4.967,2.629c-3.889.124-7.8-.511-11.7-.837Z"/><path class="b" d="M154.4,203.62a50.792,50.792,0,0,0-5.127,2.816c-4.093,2.875-8.731,4.384-12.77,1.14-4.429-3.556-1.31-8.655-.275-12.716,1.3-5.11,6.329-6.351,10.986-6.827,3.539-.362,6.116,3.968,6.52,10.172.127,1.945.2,3.894.309,5.835Z"/><path class="b" d="M93.883,396.022c.26,6-6.135,6.007-8.683,9.542-1.2,1.667-2,.964-2.082-1.105-.336-8.87-11.632-4.293-13.79-11.11,3.619-2.2,7.676-2.23,10.59.364,4.5,4,9.447,2.418,14.327,2.553Z"/><path class="b" d="M177.211,395.656a32.314,32.314,0,0,1-4.959-.911c-2.956-.953-4.211-5.236-2.546-8.171,1.685-2.97,4.051-4.922,7.65-5.011,4.759-.119,8.089,3.21,8.55,8.585C186.253,394.2,183.614,396.049,177.211,395.656Z"/><path class="b" d="M365.872,377.089c-2.154-.8-5.417-.465-5.858-3.488-.23-1.579,1.038-3.6,2.1-5.094a8.98,8.98,0,0,1,8.4-3.76,3.86,3.86,0,0,1,2.713,1.956A7.577,7.577,0,0,1,365.872,377.089Z"/><path class="b" d="M210.953,131.288a46.57,46.57,0,0,1,5.041,1.441c2.313.909,2.242,3.22,1.971,5.031-.42,2.809-2.44,4.528-5.233,5.138-3.235.706-6.695,1.538-8.854-1.911a11.733,11.733,0,0,1-1.376-5.436c-.137-2.548,2.244-2.9,4-3.538A26.2,26.2,0,0,1,210.953,131.288Z"/><path class="b" d="M70.464,371.009c1.316,1.213,2.631,1.861,2.827,2.754a4.647,4.647,0,0,1-.89,3.436,7.277,7.277,0,0,1-6.7,2.622c-1.2-.12-2.959-.385-3.4-1.175-1.02-1.843.2-3.606,1.758-4.571A58.621,58.621,0,0,1,70.464,371.009Z"/><path class="b" d="M193.7,398.914c-3.57-1.138-4.731-3.378-4.254-6.05.726-4.072,3.964-4.606,7.349-4.033,2.065.35,3.03,1.805,2.212,4.012C197.931,395.748,197.4,399.2,193.7,398.914Z"/><path class="b" d="M496.331,321.692c-.567,1.895-1.525,3.367-3.74,3.5-3.538.21-6.338-.809-6.823-4.77-.38-3.107,1.543-4.923,4.393-4.9C493.922,315.561,495.583,318.321,496.331,321.692Z"/><path class="b" d="M124.855,283.867c2.848.424,4.763,1.819,5.047,4.887.326,3.52-2.262,4.438-4.817,4.772-2.681.351-5.191-.69-6.189-3.459C117.958,287.462,121.6,283.822,124.855,283.867Z"/><path class="b" d="M94.245,396.266c.252-6.664,5.04-10.851,9.675-8.309.566.311.726,2.945.345,3.15-3.367,1.812-6.9,3.318-10.382,4.915Z"/><path class="b" d="M484.79,306.968c1.285-.88,2.229-2.073,3.168-2.067a3.969,3.969,0,0,1,3.4,5.458c-.723,1.444-2.17,2.03-3.331,1C486.7,310.179,485.854,308.461,484.79,306.968Z"/><path class="a" d="M341,235.479c.064,6.917-2.055,9.6-8.81,10.693-12,1.936-16.323-1.5-17.028-12.931-.308-5.005-1.276-8.838-6.438-10.97-2.582-1.067-3.761-3.643-1.4-6.24,1.59-1.748,4.228-1.565,5.227-.056,4.127,6.236,10.069,4.678,15.922,4.6,9.994-.129,11.6,1.476,12.329,10.94C340.9,232.835,340.931,234.158,341,235.479Z"/><path class="a" d="M229.717,196.291a7.451,7.451,0,0,1,.737-1.757c3.947-5.143,13.046-3.268,15.2-9.893,2.142-6.592,1.884-13.817.154-20.755,3.841,3.7,2.253,8.68,3.09,13.086,1.4,7.349,1.892,7.849,10.272,9.3,1.29.224,2.663-.011,3.943.243a32.823,32.823,0,0,1,4.255,1.51,40.657,40.657,0,0,1-.033,5.453c-1.933,14.666-4.029,16.367-18.8,15.364-3.571-.242-6.264-1.651-6.88-5.616C240.537,196.029,235.2,196.016,229.717,196.291Z"/><path class="a" d="M202.2,231.681c.109-1.508.107-3.5.427-5.439.627-3.8,3.214-5.715,6.846-5.726a107.3,107.3,0,0,1,11.821.857,5.955,5.955,0,0,1,5.308,5.011,25.3,25.3,0,0,1,.411,5.889c-.152,12.969-9.855,18.576-21.411,12.228a7.484,7.484,0,0,1-3.26-4.48C201.792,237.505,202.2,234.782,202.2,231.681Z"/><path class="a" d="M301.6,233.243c-.2,9.363-2.649,11.782-11.87,11.706-9.758-.081-13.929-4.828-13.425-15.282.346-7.205,4.694-9.533,16.817-9C300.086,220.966,301.8,223.51,301.6,233.243Z"/><path class="a" d="M241.618,231.944c.07-9.471,1.605-11.3,9.454-11.273,11.891.042,15.811,2.591,15.546,10.106-.346,9.84-4.975,14.26-14.865,14.194C243.489,244.916,241.54,242.411,241.618,231.944Z"/><path class="a" d="M209.762,195.976l20.417.039c-3.089,8.791-8.466,14.32-18.612,13.754-2.478-.138-5.024.946-8.053,1.575C201.912,204.147,212.822,202.862,209.762,195.976Z"/><path class="a" d="M233.7,249.323c.9.8,2.431,1.543,2.423,2.269-.022,2.242-1.683,3.169-3.615,2.176a3.883,3.883,0,0,1-1.393-3.162C231.143,250.085,232.951,249.668,233.7,249.323Z"/><path class="a" d="M311.391,248.733c.626.8,1.844,1.668,1.758,2.382-.232,1.944-1.48,3.506-3.652,2.538-.719-.32-1.362-2.293-1.03-3.092C308.826,249.7,310.363,249.322,311.391,248.733Z"/><path class="a" d="M345.275,252c.727-.79,1.466-2.255,2.174-2.24,2.343.049,2.311,1.96,2.019,3.672-.264,1.548-1.426,2.22-2.693,1.354C346,254.253,345.756,252.952,345.275,252Z"/><path class="a" d="M121.313,146.59c-2.024,2.966-4.4,2.819-6.85,2.049-1.636-.514-3.773-1.461-2.917-3.355,1.143-2.53,3.674-3.1,6.192-1.571A32.887,32.887,0,0,1,121.313,146.59Z"/><path class="a" d="M427.369,281.117c1.758,4.448,3.011,7.956,4.527,11.345,1.084,2.423-.229,3.585-2.1,3.9-2.57.434-6.744-.441-6.168-2.63C424.585,290.108,422.368,285.918,427.369,281.117Z"/><path class="a" d="M86.2,295.922c-1.767,2.577-4.524,4.495-3.537,8.516.95,3.871-2.388,3.638-4.9,3.831.222-1.833,1.179-3.985.543-5.444-3.233-7.419,1.747-6.488,6.108-6.41A6.524,6.524,0,0,0,86.2,295.922Z"/></svg>