<svg xmlns="http://www.w3.org/2000/svg" viewBox="0 0 543.348 543.348"><defs><style>.a{fill:#dfcf06;}.b{fill:#fcfcfb;}</style></defs><path class="a" d="M35,270.661q0-108.9-.025-217.8c-.016-18.45.066-18.025,17.143-18.022q218.856.042,437.712.019c2.665,0,5.335-.064,7.993.082,7.392.405,8.742,1.807,9.091,9.839.2,4.654.093,9.323.093,13.985q0,212.8-.008,425.607c0,5.326-.069,10.654-.245,15.976-.163,4.925-3.195,6.941-7.767,7.04q-7.992.174-15.987.161-211.86.012-423.721-.011c-26.845-.007-24.23,2.425-24.256-25.072Q34.924,376.562,35,270.661Zm334.79-40.28a6.237,6.237,0,0,0,1.559-.668c.188-.147.073-1.061.04-1.063-1.366-.134-1.8.58-1.286,2.066-3.3-.775-3.978,1.263-4.141,3.855-4.14.364-6.1,3.5-8.1,6.5-1.173,1.755-2.517,2.089-4.308,1.161l.358.233c-.4-3.221,1-6.677-1.261-9.659-5.565,1.169-4.623,9.488-10.877,9.9-.3-4.52.544-9.551-1.187-13.434-2.279-5.113-.8-8.754,1.356-12.946,1.381-2.682,4.148-5.861.035-8.383-2.728-1.673-4.691,1.652-7.195,2.1-5.614,1-7.1,5.755-8.15,10.1-3.851,15.912-7.345,31.913-10.73,47.933-.321,1.516.594,4.36,1.748,4.921,3.459,1.685,3.845-1.525,5.017-3.814,1.976-3.86,1.64-8.89,5.741-11.748,3.785,6-.572,11.482-.71,17.169a3.478,3.478,0,0,0,2.216,2.556,3.825,3.825,0,0,0,2.968-1.646c2.665-4-1.757-10.861,5.276-13.185-.1,4.628-.178,9.258-.314,13.886-.063,2.142.787,4.437,2.643,4.6,2.456.217,5.64-.166,7.382-1.632,1.793-1.509,2.228-4.631,3.26-7.045,2.081-4.869,3.851-9.906,6.357-14.545a7.692,7.692,0,0,1,8.432-4.028c4.4.907,6.4,4.57,7.3,8.51.377,1.655-.4,3.928-1.37,5.463-2.154,3.4-2.208,7.486-3.457,10.732-3.484,9.059,3.013,17.961-1.05,26.635-.6,1.28-.451,4.273,2.693,3.476,1.067-.271,2.734-1.558,2.692-2.3-.414-7.374,7.576-11.163,8.232-16.9,1.884-16.47,2.446-33.377-12-45.75-3.073-2.63-1.548-6.174-3.084-8.956C369.238,235.08,369.786,232.99,369.793,230.381Zm32.465-120.015c-2.321,2.387-1.465,4.586.947,5.89,2.11,1.14,4.657,1.469,7.011,2.157-3.52,8-12.255,1.942-17.57,6.869,4.55,3.362,8.643,7.911,13.719,9.749,6.351,2.3,10.878,6.753,16.359,9.918,4.719,2.726,10.863,2.989,17.759,4.68-2.543-4.514-4.606-7.63-6.135-10.989-4.879-10.718-13.412-16.813-24.451-19.9-1.785-3.595-1.587-9.185-8.088-8.035-1.746-2.714-2.36-6.756-5.958-7.482-6.681-1.349-12.7.233-18.62,5.769,5.473.256,9.4.357,13.32.647S398.242,111.932,402.258,110.366ZM118,206.386c1.879,3.352-.854,6.348-.727,9.44.13,3.182,1.627,6.287,2.292,9.474.543,2.6-2.436,5.915,1.3,8.162,8.744-9.558,11.456-20.1,8.563-31.9-6.175-2.1-5.961,7.636-11.719,5.121-1.962-8.753,2.647-16.8,2.712-25.328.018-2.358-1.959-3.238-3.715-3.992a4.149,4.149,0,0,0-5.286,1.22c-6.281,9.261-7.147,19.6-4.905,30.173.445,2.1,2.846.9,4.371-.548C112.823,206.368,115.154,205.127,118,206.386Zm83.989-79.935a22.378,22.378,0,0,0,.918,3.805c3.626,8.417,8.677,10.883,14.181,4.952,5.342-5.755,13.723-4.526,18.609-11.463-5.358-1.573-9.763-5.864-16.1-4.093-3,9.863-11.617,5.658-17.951,7.171a20.81,20.81,0,0,1,1.382-3.327c3.872-6.145,3.723-7.281-2.209-8.363-4.293-.784-8.862-.424-11.479-4.925a47.065,47.065,0,0,1,19.312.771c5.976,1.58,8.929-.109,9.222-5.432.424-7.712,0-15.471-.066-23.21,3.96,1.909,7.577,5.8,12.164,4.765,7.357-1.661,13.386,2.578,20.137,3.292-1.091,4.858,5.3,7.337,3.914,12.291-7.46-2.277-14.933-4.515-22.373-6.858-1.845-.581-4.181-1.416-5,.444-.59,1.343.174,4.135,1.33,5.227,3.352,3.169-3.307,6.861-.417,7.8,10.69,3.489,21.119,11.526,33.195,3.948.545-5.54-7.236-5.666-7.119-10.924,2.615.22,5.228.463,7.846.659,8.064.6,7.18.046,11.543-6.97,5.961-9.582,1.821-19.319,4.619-33.19-9.167,10.481-17.072,15.958-21.127,24.9-1.438,3.172-4.416,2.119-6.7,2.969-4.6-11.963-4.6-12-14.046-11.709-2.609.082-5.206.609-7.815.667-1.967.045-4.313-.342-4.276-2.829.024-1.7,1.289-3.37,1.967-5.066.606-1.518,6.311-.7,2.1-4.351-1.939-1.683-4.322-2.845-6.424-4.353-2.455-1.76-4.856-1.71-7.069.216-2.469,2.151-4.9,4.319-2.805,8.241a54.646,54.646,0,0,1,2.7,7.244c-5.734,4.838-9.185-4.193-14.276-2.405-6.6,2.318-11.158-2.783-16.731-4.137-1.809-.44-4.894-.88-5.511,0-1.954,2.787,1.7,3.87,2.805,5.768s1.49,4.152-.954,4.126c-5.783-.063-10.657-.164-10.358,7.872.115,3.1-2.383,4.248-5.542,3.232-12.52-4.023-22.543,1.607-33.763,8.039,12.871,2.579,23.974-2.393,34.752-1.774,12.49.718,23.474-1.589,34.605-5.932,2.468-.963,5.013-1.9,7.637-.608a10.648,10.648,0,0,1,3.172,2.2c1.433,1.573.938,2.544-1.088,2.29-5.782-.728-8.589,5.775-14.41,5.607-4.565-.132-2.988,5.027-4.7,7.489-7.135-.705-9.455,8.427-16.811,7.929-7.189-.487-7.694,5.4-8.464,10.666,4.254,2.385,8.439,1.389,12.939.612C185.572,128.327,193.393,124.288,201.992,126.451Zm163.959,44.208c-.96.633-2.5,2.008-2.787,1.784-2.518-1.981-4.74-4.333-7.195-6.4-2.58-2.176-4.687-1.317-6.318,1.368-2.13,3.5-1.692,6.714-.983,10.895,1.839,10.848,9.332,19.728,9.792,30.9.07,1.7,1.182,4.034,3.8,3.051a3.815,3.815,0,0,0,2.145-2.713c.028-9.442,4.348-18.756-.1-28.476-1.169-2.556-2.634-7.625,1.379-10.7,2.654-.153,6.976-.145,6.82,2.218-.685,10.372,8.751,15.818,11.025,24.592.276,1.062,1.515,1.874,2.308,2.8-1.41-.591-1.4-1.323-.106-2.354a10.4,10.4,0,0,0,2.867-2.7c3.788-7,.244-14.163.12-21.24-.064-3.658-4.4-4.437-6.964-6.351-2.639-1.969-5.129-4.142-7.8-6.065-3.1-2.234-4.892-1.235-6.559,3.672C366.765,166.794,366.424,168.749,365.951,170.659Zm-10.218-22.184,4.286,3.392c1.991-2.572,1.715-4.579-1.46-5.864-3.206-8.583-7-16.733-16.639-19.861-9.283-3.013-18.6-5.945-27.982-8.616-1.709-.487-3.906.208-5.729.81-1.724.569-4.145.905-3.942,3.578.091,1.2.432,2.817,1.262,3.437,3.126,2.33,5.81,6.406,9.955,5.924,5.2-.6,8.445,1.982,12.539,4.242C336.93,140.432,346.449,144.239,355.733,148.475ZM177.959,182.439c1.861,3.362-.525,6.255-.989,9.371-1.622,10.877-2.213,21.681,3.112,31.95,3.83-1.844,10.288-1.362,9.839-7.36-.952-12.716,1.226-25.663-1.738-37.891-5.406-1.509-5.808,5.975-10.537,4.259-1.132-4.64-1.289-9.179,1.923-13.14,5.643-6.96,8.245-15.87,14.553-22.451a6.125,6.125,0,0,0,1.021-5.418c-1.122-2.639-4.1-3.2-6.748-2.687-2.5.486-5.5,1.022-7.184,2.662-9.014,8.788-13.705,20.112-17.281,31.886-1.12,3.687,3.425,8.125,8.2,8.614C174.056,182.432,176.011,182.38,177.959,182.439Zm-3.82,263.95c2.807,7.3-5.27,11.9-4.6,18.561.167,1.66,1.368,4.032,2.686,4.541a6.093,6.093,0,0,0,5.322-1.192,21.8,21.8,0,0,0,4.1-6.665c9.081-19.849,17.443-39.971,22.679-61.245.667-1.138,1.061-2.735,2.054-3.324,2.819-1.672,3.017-1.344,3.328.906,1.067,7.729-2.7,14.276-4.989,21.149-5.664,17.035-11.594,33.981-17.317,51-1.168,3.474-.7,6.616,3.447,7.869,3.459,1.045,6.9.664,8.826-2.562a33.579,33.579,0,0,0,3.529-9.215c6.3-25.805,12.751-51.58,18.495-77.511,1.5-6.759,4.407-13.172,2-21.215-1.872-6.257,3.836-13.483,3.343-21.092-.545-8.414,2.805-16.3,5.419-27.47,3.823,18.149.548,32.431-2.343,46.682-4.619,22.771-4.225,46.3-11.3,68.763-3.171,10.063-3.928,20.913-5.439,31.455a25.887,25.887,0,0,0,.591,9.8c.338,1.335,2.771,2.477,4.469,2.99.867.261,2.816-.79,3.23-1.716a42.665,42.665,0,0,0,3.206-9.4c3.2-16.993,6.587-33.966,9.137-51.061,2.835-19.006,4.821-38.138,7.209-57.211,1.481-11.826,2.883-23.665,4.611-35.455.592-4.036,2.512-7.684,7.353-7.942,4.326-.23,7.6,4.014,7.577,9.737-.015,3.312.186,6.822-.806,9.889-2.12,6.555-1.757,13.186-1.534,19.806.88,25.992-1.231,51.789-3.978,77.609-1.475,13.866-2.321,27.886-.712,41.874.391,3.4,1.007,7.1,5.4,6.609,3.692-.416,5.118-3.815,5.836-7.205a18.1,18.1,0,0,0,.448-3.963c-.381-25.993,2.19-51.834,3.686-77.739,1.42-24.573,1.391-49.23,2-73.85.067-2.7.305-5.263,3.954-5.085a71.672,71.672,0,0,1,.249,25.74,159.463,159.463,0,0,0-1.34,21.857c-.126,9.965.413,19.937.291,29.9-.309,25.31-.886,50.617-1.2,75.927a70.732,70.732,0,0,0,1.19,11.786c.377,2.4,2.732,2.879,4.613,2.9,6.008.082,10.633-4.338,9.745-9.869-6.042-37.628-4.32-75.569-4.739-113.417-.05-4.545-1.41-10,5.415-13.33.462,7.652,1.309,14.86,1.259,22.063-.18,26.011,2.124,51.887,4.13,77.766.768,9.9,2.812,19.744,4.858,29.492.736,3.5,4.225,4.989,7.885,4.5,3.73-.493,6.051-2.692,5.833-6.627a55.381,55.381,0,0,0-1.314-7.851c-7.833-38.6-8.778-77.985-13.348-116.957-.924-7.881-.412-15.932-.52-23.906a25.01,25.01,0,0,1,.284-5.874,3.883,3.883,0,0,1,2.48-2.221c2.452-.658,3.51,1.374,4.209,3.125.461,1.153.127,2.63.117,3.962-.159,23.211,1.964,46.322,4.791,69.273,2.758,22.4,7.485,44.567,11.464,66.816,1.052,5.884,2.441,11.713,3.859,17.523a3.958,3.958,0,0,0,4.347,3.155c3.462-.3,4.374-2.941,3.825-5.685-2.346-11.719-5.191-23.342-7.419-35.082-4.72-24.863-8.282-49.892-9.358-75.212-.155-3.659-1.132-7.747,2.756-10.457.819,1.062,2.115,1.985,2.292,3.087,2.851,17.713,5.42,35.473,8.339,53.174,3.246,19.689,6.713,39.348,12.421,58.516,1.814,6.095,6.3,9.737,9.334,7.717,4.215-2.807,3.307-6.979,1.958-10.751-11.281-31.549-15.73-64.567-21.193-97.374a163.383,163.383,0,0,1-.7-47.683c6.074,28.543,11.525,57.1,16.153,85.783,2.894,17.932,8.909,34.764,15.558,51.475,1.744,4.383,5.211,6.607,6.925,4.721,1.967-2.165,2.165-4.569,1.281-7.314-1.224-3.8-2.015-7.745-3.312-11.517-12.178-35.4-19.5-71.925-25.206-108.823-.712-4.6-.891-9.333-2.069-13.807-1.511-5.743,7.577-7.059,5.584-13.57-6.491-.654-12.436-2.034-18.278-1.684-13.356.8-26.563.012-39.878-1-28.648-2.187-57.019.726-85.247,6.072-2.473,10.4,3.843,22.132-6.312,30.335-.3.246.549,2.132,1.069,3.149,1.661,3.251.874,6.468-.013,9.681-3.339,12.11-7.293,24.089-9.871,36.357-2.035,9.685-7.855,18.531-6.506,28.952-6.92,5.084-9.106,11.977-7.731,20.228C168.917,441.083,168.938,442.427,174.139,446.389Zm235.8-255.975c.779,1.047,2.368,2.236,2.213,3.12-2.069,11.842.4,23.211,3.113,34.6.642,2.689,1.242,4.967,4.449,4.744,2.034-4.169,4.234-8.188,5.988-12.393,2.371-5.687-3.466-9.775-3.3-15.1.042-1.327.211-2.655.177-3.979-.215-8.429-5.581-10.752-12.861-10.772-2.332-2.917-2.044-6.238-.384-9.038,1.92-3.239,4.789-5.9,6.987-8.994,2.229-3.138-3.353-7.418,1.318-10.357,1.169.415,3.369.867,3.356,1.239-.292,8.094,4.825,14.138,7.878,20.9,3.277,7.254,7.164,14.233,11.243,22.232,2.882-6.15-2.212-11.309-.908-14.228,3.142-7.035,2.277-12.416-1.963-18.05,2.079-10.71-7.036-14.07-12.947-19.414-2.621-2.368-5.216.228-5.857,5.731a12.25,12.25,0,0,1-.533,1.9c-1.052.591-2.443,1.944-3.1,1.651a21.385,21.385,0,0,1-11.159-10.571c-3.916-7.868-12.819-10.741-19.4-15.957-2.561-2.028-9.079,1.058-9.785,4.165-.787,3.462.025,7.476,3.87,7.86,6.65.665,7.233,7.852,11.429,9.749,6.463,2.921,8.849,6.99,8.949,13.475.047,3.068,2.632,4.162,4.851,5.691C407.582,181.4,409.228,185.715,409.942,190.414Zm-96.284-27.553c-3.648-.033-10-1.961-9.243,3.446,1.668,11.922,8.125,22.384,14.311,32.633,1.188,1.969,3.709,3.905,6.645,3.1,3.218-.876,3.367-3.588,3.129-6.3-.51-5.8-.306-11.736-3.766-16.927-1.514-2.272-2.392-5.454.009-7.092,2.948-2.012,6.129-.91,8.329,2.233,1.13,1.615.749,5.751,5.342,2.825-2.719-5.759.3-11.888-2.542-18.56-4.047-9.5-11.7-13.443-19.323-18.136-1.668-1.026-4.07-1.014-5.052,1.137-.74,1.623-1.436,4.135-.7,5.406,2.616,4.493,6.5,8.425,4.227,14.317A15.349,15.349,0,0,1,313.658,162.861ZM126.1,138.433c-6.879-.095-13.8,1.17-18.06,6.614-6.212,7.944-14.49,15.326-11.513,28.8,2.525-9.083,13.342-6.434,16.694-14.2,1.292-2.991,1.844-7.391,5.886-6.675,5.579.988,3.031,6.065,3.307,9.611.1,1.3.229,2.606.352,3.993,5.054.583,8.06-3.639,12.033-5.453s3.166-9.129,8.9-9.7c5.274-.526,7.789-4.708,11.155-7.688,2.394-2.12,1.028-4.734-.273-7.12-1.536-2.814-3.145-3.658-5.844-1.149A10.1,10.1,0,0,1,143.7,138.2a7.21,7.21,0,0,1-5.211-1.454c-1.806-1.613.144-3.5.8-5.216,2.336-6.142,9.579-3.767,13.181-7.612a5.007,5.007,0,0,0,1.364-3.483c-.116-1.013-1.8-2.826-2.128-2.69-6.221,2.579-11.38-5.274-17.23-1.991-4.117,2.311-7.343,1.5-11.14-.263-7.129-3.3-13.843-4.857-15.5,6.123-.061.4-1.052.661-1.605,1-3.763,2.267-11.071,3.1-9.406,8.314,2.093,6.55,7.854-.431,11.612.447,7.167,1.673,13.97,1.05,20.943-.432,1.678-.357,2.5.93,2.019,2.549a3.4,3.4,0,0,1-1.012,1.5c-1.5,1.3-3.065,2.525-4.6,3.778Zm122.377,10.812,4.243,3.9a98.552,98.552,0,0,0-6.671,33.878c-.072,4.424-3.074,8.749,1.906,12.423,3.216,2.372.53,9.16,9.184,10.874-3.019-9.05,4.536-13.713,4.565-21.45.027-7.382,4.909-14.529.708-22.35-.607-1.132,2.273-4.34,3.877-6.312.4-.485,2.982-.145,3.1.247,1.1,3.72,1.987,7.512,2.733,11.323,1.843,9.415,4.65,18.291,12.5,24.189,6-12.221,5.307-24.8,1.134-37.451,11.379-6.594,10.438-17.772,10.533-28.513.029-3.3-2.86-4.263-5.233-5.1a87.845,87.845,0,0,0-9.334-2.258c-2.109-5.8,2.345-11.03,1.475-16.726-7.262.593-8.635,8.188-13.588,11.752-3.726,2.681-7.455,5.517-11.568,7.02-9.035,3.3-16.606,10.086-26.587,11.136-.434.046-.652,2.139-.99,3.259-1.283-.022-2.566-.032-3.849-.071-2.015-.059-2.56.741-1.387,2.231.2.255,1.293.058,1.8-.231a38.665,38.665,0,0,0,3.192-2.207c4.295-.115,6.564,1.49,7.619,6.152C239.348,151.6,239.885,151.507,248.478,149.245Zm-50.7,121.448a4.489,4.489,0,0,0,3.664,4.291c2.584,6.72,6.174,13.1-1.724,19.422-3.625,2.9-.962,7.481,4.083,7.491,5.286.01,10.742.346,15.827-.79,18.933-4.229,38.086-4.075,57.259-3.648,19.189.426,38.367,1.413,57.556,1.647,4.209.051,11.445,1.168,11.894-4.07.644-7.5-6.5-3.713-10.275-3.854-5.348-.2-8-4.026-11.652-6.75-13.773-10.285-14.815-11.55-18.7-25.966,2.133-2.206,6.76-.2,7.639-4.566.648-3.22.872-6.653,2.18-9.593,7.043-15.832-4.237-27.213-9.543-40.013-.275-.663-2.452-.966-3.589-.721-1.074.232-2.829,1.478-2.774,2.157.994,12.364-5.956,25.423,3.1,37.086-2.839,6.126,6.63,9.722,3.283,15.953-6.075,1.918-1.3,10.417-7.239,12.545-4.087-3.67-.953-7.486-.8-11.109.173-4.056-.006-7.991-2.851-11.2-1.212-1.369-2.405-3.383-4.746-2.156a5.879,5.879,0,0,0-2.78,2.49c-2.374,6.183-.2,13.256-3.634,19.277-12.554-3.667-12.952-3.671-12.847-13.068.134-11.884-1.343-23.831,1.167-35.668.633-2.984,1.733-7.249-3.119-7.59-3.906-.274-5.025,3.7-5.929,6.739a37.125,37.125,0,0,0-.927,7.852c-.567,7.861-1.068,15.727-1.624,24.024-7.521-7.436-4.9-17.14-9.146-24.577-.492-.862-2.057-1.271-3.208-1.561-1.439-.362-2.475.533-2.525,2.211-.34,11.231-.521,22.468-.929,33.7-.5,13.717-4.407,15.963-17.315,9.94-2.969-1.386-5.677-3.329-8.513-5.011-.293-3.3-.947-6.613-.812-9.893.421-10.157-3.882-19.313-5.965-28.925-.278-1.284-2.912-2.158-4.6-2.9a5.484,5.484,0,0,0-1.886,2.909c-.2,2.621-.444,5.443.291,7.9,3.315,11.077,6.963,22.054,10.492,33.066-1.891,7.672-1.9,7.684-8.74,5.439-1.257-.412-2.466-.968-3.7-1.425l-4.692-3.31c-.879-3.555-1.34-6.538,4.187-5.509,4.2.782,6.091-1.713,5.679-5.021-.647-5.178-7.348-6.286-7.212-11.411.2-7.595-4.9-11.893-9.482-16.8.529,12.9.529,12.9-3.846,23.527-2.956-.187-4.332-2.534-5.777-4.531a24.8,24.8,0,0,0-14.163-10.1c-10.672-2.966-10.86-5.4-8.467-17.086,1.523-7.442,5-14.989,2.143-22.914-.869-2.414-1.513-5.3-4.957-5.242-2.292.043-3.272,1.874-4.14,3.674-4.913,10.177-4.874,15.806.115,28.955a35.444,35.444,0,0,1,.99,3.841c2.439,9.523,1.47,11.865-8.128,13.53-5.706.991-9.954,3.134-13.342,7.621q-5.383,7.125-11.034,14.048c-5.924,7.253-2.5,15.179-1.666,22.892.034.306,3.134.583,3.141.549,1.321-6.769,8.483-9.895,10.276-16.194,3.736-13.123,15.1-18.8,24.968-25.856,2.694-1.925,6.41-1.676,9.678-.522,1.158.409,2.673,1.106,3.053,2.06a4.085,4.085,0,0,1-.757,3.6c-2.31,2.349-4.944,4.384-7.487,6.5-10.595,8.817-9.915,22.722-15.321,33.88,2.348,11.544,4.547,23.122,7.152,34.607.606,2.667,3.16,4.06,6.184,3.734,2.97-.32,6.264-2.849,5.73-4.584-2.472-8.038,3.321-15.071,1.483-23.339-2.084-9.374-1.061-19.413-1.726-29.139-.469-6.851,2.43-11.78,8.245-14.592,5.53-2.674,10.217-.072,14.255,4.009C191.959,265.428,194.912,268.017,197.778,270.693Zm17.754-120.572c-8.975,3.489-14.269,10.765-16.4,19.895a49.674,49.674,0,0,0,4.619,35.741c1.375-.052,1.9-1.018,2.456-2.452,1.343-3.461,1.881-8.629,6.85-7.945,3.154.434,4.584,4.364,5.18,7.832a57.856,57.856,0,0,0,1.877,6.31c12.736-13.056,16.306-29.3,19.346-45.7.253-1.367-1.5-3.885-2.934-4.56-1.383-.65-4.332-.261-5.257.816-3.345,3.9-6.034,8.355-9.206,12.417-.618.793-2.31,1.126-3.463,1.044-2.285-.163-3.392-2.033-3.749-4C213.661,162.974,218.218,156.668,215.532,150.121Zm37.834,184.692c-2.669.124-3.08,1.992-3.716,3.912-5.469,16.489-4.663,33.935-6.61,50.834-1.891,16.41-3.334,32.932-5.62,49.354-1.279,9.2-1.873,18.5-2.5,27.767-.257,3.791-1.15,8.126,3.615,10.28,3.338,1.509,6.318-2.533,7.011-9.569.2-1.984.368-3.98.376-5.971.107-26.635,3.683-52.908,7.077-79.279C255.006,366.543,253.366,350.477,253.366,334.813Zm72.4-233.61c4.28-3.95,8.223-7.405,14.24-5.085a8.822,8.822,0,0,0,3.871.674c3.843-.379,5.887-2.71,5.72-6.538-.138-3.173-2.195-4.505-5.272-4.186-10,1.036-18.805-2.365-27.412-6.962-2.793-1.491-8.088-3.622-8.882-2.669-5.344,6.421-15.37,3.957-19.949,11.084-1.708,2.66-6.324,5.169-4.408,8.077,3.094,4.693,6.859-.1,10.234-1.278a57.469,57.469,0,0,0,7.222-3.258c2.981-1.527,6.208-3.34,9.376-2,4.608,1.951.318,5.49.761,8.265.538,3.362,3.79,3.148,5.969,4.319,1.739.935,3.361,2.12,2.377,4.207a4.086,4.086,0,0,1-3.276,1.816c-3.873-.328-7.853-1.764-10.623,2.484-.36.552-.806,1.048-1.213,1.57.483.368,1.221,1.158,1.414,1.042,8.359-5.018,15.894-1.282,23.7,1.783,3.376,1.326,8.515,6.065,10.45,1.992,3.168-6.67-5.587-4.758-8.163-7.693C329.751,106.4,327.811,103.768,325.768,101.2Zm74.725,128.723c4.561-7.949-1.979-13.8-3.6-20.636-.363-1.528-1.591-2.022-3.113-1.229-1.113.581-2.687,1.295-2.973,2.268-1.478,5.027-1.907,10.466-4,15.184-4.418,9.949,3.022,18.627,2.291,28.09-.019.248,2.016.654,3.093.987C392.609,245.468,405.556,240.832,400.493,229.926Zm-163.015,9.118c.4-3.9,1.129-7.807,1.129-11.711,0-4.783-3.727-6.7-7.627-7.681a6.229,6.229,0,0,0-7.812,4.3c-1.36,4.32-3.93,10.075-2.241,13.174,3.953,7.245,2.838,15.3,5.711,22.6,1.53,3.891,2,7.609,6.991,7.605,3.657,0,5.817-3.411,5.2-8.759C238.083,252.088,237.178,245.637,237.478,239.044Zm-97.317-41.29c13.521-13.6,16.768-19.368,17.946-33,.149-1.721-.738-4.71-1.864-5.114a13.089,13.089,0,0,0-7.522-.079,7.433,7.433,0,0,0-3.969,3.9c-3.16,7-7.328,13.367-9.235,21.208C133.921,191.228,136.459,194.173,140.161,197.754Zm227.631-94.947c-4.533,0-7.85.175-11.142-.044-4.21-.281-8.295-.056-9.755,4.62-.937,3,3.587,9.421,6.982,11.015,4.43,2.08,10.774-.853,12.582-6.161C367.258,109.89,367.2,107.251,367.792,102.807ZM359.134,128.8c1.375,2.643,2.246,5.216,3.879,7.143,1.1,1.3,3.925,2.818,4.864,2.284,5.6-3.188,11.6-6.338,13.534-13.169.384-1.358-1.033-3.506-2.124-4.894-.645-.82-2.656-1.553-3.408-1.143C370.3,122.062,364.876,125.4,359.134,128.8ZM274.139,252.165a31.037,31.037,0,0,0,.786,3.925c.628,1.884,1.641,3.563,3.882,3.817,3.144.357,2.692-2.412,2.77-3.9.59-11.146-.348-22.388,2.257-33.421.091-.383-2.071-1.974-2.731-1.738-2.49.889-1.313-2.161-1.78.434C277.471,231.578,275.84,241.913,274.139,252.165ZM163.33,115.449c2.076-.409,5.21-.937,8.3-1.661,2.462-.578,2.443-2.736,2.056-4.51-.226-1.033-1.623-2.681-2.328-2.6-5.327.6-10.621,1.528-15.884,2.563a5.372,5.372,0,0,0,.1,3.343C156.989,115.115,159.724,115.083,163.33,115.449Zm231.287-18.9c-2.538-2.085-4.715-4.4-7.381-5.775-.921-.474-3.745,1.026-4.461,2.314-.9,1.626.327,3.683,2.2,4.452A9.708,9.708,0,0,0,394.617,96.544Z"/><path class="b" d="M181.738,418.3c-1.342-10.414,4.478-19.26,6.513-28.945,2.578-12.268,6.532-24.247,9.871-36.357.887-3.213,1.674-6.43.013-9.681-.52-1.017-1.373-2.9-1.069-3.149,10.155-8.2,3.839-19.932,6.312-30.335,28.228-5.346,56.6-8.259,85.247-6.072,13.315,1.016,26.522,1.8,39.878,1,5.842-.35,11.787,1.03,18.278,1.684,1.993,6.511-7.1,7.827-5.584,13.57,1.178,4.474,1.357,9.205,2.069,13.807,5.7,36.9,13.028,73.42,25.206,108.823,1.3,3.772,2.088,7.716,3.312,11.517.884,2.745.686,5.149-1.281,7.314-1.714,1.886-5.181-.338-6.925-4.721-6.649-16.711-12.664-33.543-15.558-51.475-4.628-28.687-10.079-57.24-16.153-85.783a163.383,163.383,0,0,0,.7,47.683c5.463,32.807,9.912,65.825,21.193,97.374,1.349,3.772,2.257,7.944-1.958,10.751-3.033,2.02-7.52-1.622-9.334-7.717-5.708-19.168-9.175-38.827-12.421-58.516-2.919-17.7-5.488-35.461-8.339-53.174-.177-1.1-1.473-2.025-2.292-3.087-3.888,2.71-2.911,6.8-2.756,10.457,1.076,25.32,4.638,50.349,9.358,75.212,2.228,11.74,5.073,23.363,7.419,35.082.549,2.744-.363,5.388-3.825,5.685a3.958,3.958,0,0,1-4.347-3.155c-1.418-5.81-2.807-11.639-3.859-17.523-3.979-22.249-8.706-44.413-11.464-66.816-2.827-22.951-4.95-46.062-4.791-69.273.01-1.332.344-2.809-.117-3.962-.7-1.751-1.757-3.783-4.209-3.125a3.883,3.883,0,0,0-2.48,2.221,25.01,25.01,0,0,0-.284,5.874c.108,7.974-.4,16.025.52,23.906,4.57,38.972,5.515,78.36,13.348,116.957a55.381,55.381,0,0,1,1.314,7.851c.218,3.935-2.1,6.134-5.833,6.627-3.66.484-7.149-1-7.885-4.5-2.046-9.748-4.09-19.589-4.858-29.492-2.006-25.879-4.31-51.755-4.13-77.766.05-7.2-.8-14.411-1.259-22.063-6.825,3.332-5.465,8.785-5.415,13.33.419,37.848-1.3,75.789,4.739,113.417.888,5.531-3.737,9.951-9.745,9.869-1.881-.025-4.236-.5-4.613-2.9a70.732,70.732,0,0,1-1.19-11.786c.313-25.31.89-50.617,1.2-75.927.122-9.965-.417-19.937-.291-29.9a159.463,159.463,0,0,1,1.34-21.857,71.672,71.672,0,0,0-.249-25.74c-3.649-.178-3.887,2.382-3.954,5.085-.607,24.62-.578,49.277-2,73.85-1.5,25.905-4.067,51.746-3.686,77.739a18.1,18.1,0,0,1-.448,3.963c-.718,3.39-2.144,6.789-5.836,7.205-4.389.5-5-3.206-5.4-6.609-1.609-13.988-.763-28.008.712-41.874,2.747-25.82,4.858-51.617,3.978-77.609-.223-6.62-.586-13.251,1.534-19.806.992-3.067.791-6.577.806-9.889.027-5.723-3.251-9.967-7.577-9.737-4.841.258-6.761,3.906-7.353,7.942-1.728,11.79-3.13,23.629-4.611,35.455-2.388,19.073-4.374,38.2-7.209,57.211-2.55,17.095-5.94,34.068-9.137,51.061a42.665,42.665,0,0,1-3.206,9.4c-.414.926-2.363,1.977-3.23,1.716-1.7-.513-4.131-1.655-4.469-2.99a25.887,25.887,0,0,1-.591-9.8c1.511-10.542,2.268-21.392,5.439-31.455,7.079-22.462,6.685-45.992,11.3-68.763,2.891-14.251,6.166-28.533,2.343-46.682-2.614,11.166-5.964,19.056-5.419,27.47.493,7.609-5.215,14.835-3.343,21.092,2.407,8.043-.5,14.456-2,21.215-5.744,25.931-12.192,51.706-18.495,77.511a33.579,33.579,0,0,1-3.529,9.215c-1.93,3.226-5.367,3.607-8.826,2.562-4.145-1.253-4.615-4.395-3.447-7.869,5.723-17.016,11.653-33.962,17.317-51,2.285-6.873,6.056-13.42,4.989-21.149-.311-2.25-.509-2.578-3.328-.906-.993.589-1.387,2.186-2.054,3.324L199.927,397c-.851-7.625,3.731-14.778,1.959-22.486,1.13-1.325,2.641-2.486,3.292-4.013.7-1.643.829-3.709-1.506-4.664a15.829,15.829,0,0,0-1.228,3.314c-.256,1.85-.193,3.744-.264,5.619-5.732,3.639-5.357,10.216-7.121,15.6-3.258,9.942-6.461,19.8-13.025,28.173Zm26.036-61.7c.313-.306.818-.573.907-.941a2.443,2.443,0,0,0-.149-1.644c-.621-1.079-1.2-.679-1.305,1.074A4.186,4.186,0,0,0,207.774,356.6Z"/><path class="b" d="M204.128,271.734c1.232.49,2.441,1.046,3.7,1.458,6.845,2.245,6.849,2.233,8.74-5.439q1.222-1.1,2.483-2.158a98.442,98.442,0,0,0,8.506,5.016c12.908,6.023,16.817,3.777,17.315-9.94.408-11.23.589-22.467.929-33.7.05-1.678,1.086-2.573,2.525-2.211,1.151.29,2.716.7,3.208,1.561,4.243,7.437,1.625,17.141,9.146,24.577.556-8.3,1.057-16.163,1.624-24.024a37.125,37.125,0,0,1,.927-7.852c.9-3.038,2.023-7.013,5.929-6.739,4.852.341,3.752,4.606,3.119,7.59-2.51,11.837-1.033,23.784-1.167,35.668-.105,9.4.293,9.4,12.847,13.068,3.433-6.021,1.26-13.094,3.634-19.277a5.879,5.879,0,0,1,2.78-2.49c2.341-1.227,3.534.787,4.746,2.156,2.845,3.214,3.024,7.149,2.851,11.2-.154,3.623-3.288,7.439.8,11.109,5.939-2.128,1.164-10.627,7.239-12.545l-.3-.3c3.887,14.413,4.929,15.678,18.7,25.963,3.649,2.724,6.3,6.549,11.652,6.75,3.77.141,10.919-3.643,10.275,3.854-.449,5.238-7.685,4.121-11.894,4.07-19.189-.234-38.367-1.221-57.556-1.647-19.173-.427-38.326-.581-57.259,3.648-5.085,1.136-10.541.8-15.827.79-5.045-.01-7.708-4.59-4.083-7.491,7.9-6.321,4.308-12.7,1.724-19.422Z"/><path class="b" d="M197.777,270.694c-2.865-2.677-5.818-5.266-8.574-8.05-4.038-4.081-8.725-6.683-14.255-4.009-5.815,2.812-8.714,7.741-8.245,14.592.665,9.726-.358,19.765,1.726,29.139,1.838,8.268-3.955,15.3-1.483,23.339.534,1.735-2.76,4.264-5.73,4.584-3.024.326-5.578-1.067-6.184-3.734-2.605-11.485-4.8-23.063-7.152-34.607,5.406-11.158,4.726-25.063,15.321-33.88,2.543-2.115,5.177-4.15,7.487-6.5a4.085,4.085,0,0,0,.757-3.6c-.38-.954-1.895-1.651-3.053-2.06-3.268-1.154-6.984-1.4-9.678.522-9.871,7.052-21.232,12.733-24.968,25.856-1.793,6.3-8.955,9.425-10.276,16.194-.007.034-3.107-.243-3.141-.549-.832-7.713-4.258-15.639,1.666-22.892q5.649-6.916,11.034-14.048c3.388-4.487,7.636-6.63,13.342-7.621,9.6-1.665,10.567-4.007,8.128-13.53a35.444,35.444,0,0,0-.99-3.841c-4.989-13.149-5.028-18.778-.115-28.955.868-1.8,1.848-3.631,4.14-3.674,3.444-.063,4.088,2.828,4.957,5.242,2.853,7.925-.62,15.472-2.143,22.914-2.393,11.685-2.205,14.12,8.467,17.086a24.8,24.8,0,0,1,14.163,10.1c1.445,2,2.821,4.344,5.777,4.531,4.375-10.624,4.375-10.624,3.846-23.527,4.579,4.907,9.684,9.2,9.482,16.8-.136,5.125,6.565,6.233,7.212,11.411.412,3.308-1.477,5.8-5.679,5.021-5.527-1.029-5.066,1.954-4.207,5.532A25.813,25.813,0,0,1,197.777,270.694Z"/><path class="b" d="M230.485,139.106c.319-1.14.537-3.233.971-3.279,9.981-1.05,17.552-7.835,26.587-11.136,4.113-1.5,7.842-4.339,11.568-7.02,4.953-3.564,6.326-11.159,13.588-11.752.87,5.7-3.584,10.922-1.475,16.726l.336-.232c-11.565,2.5-13.363,4.422-10.116,12.991,2.955,7.8,6.878,15.242,10.595,22.732.307.62,2.3.4,3.513.575l-.293-.193c4.172,12.653,4.868,25.227-1.135,37.448-7.853-5.9-10.66-14.774-12.5-24.189-.746-3.811-1.635-7.6-2.733-11.323-.116-.392-2.7-.732-3.1-.247-1.6,1.972-4.484,5.18-3.877,6.312,4.2,7.821-.681,14.968-.708,22.35-.029,7.737-7.584,12.4-4.565,21.45-8.654-1.714-5.968-8.5-9.184-10.874-4.98-3.674-1.978-8-1.906-12.423a98.762,98.762,0,0,1,6.663-33.881c2.308-2.311,5-4.357,6.829-7,1.711-2.481-.7-3.109-2.629-3.253-4.619-.345-7.568,1.664-8.435,6.361-8.593,2.262-9.13,2.357-10.633-4.285-1.055-4.662-3.324-6.267-7.619-6.152Z"/><path class="b" d="M125.78,138.757c1.54-1.253,3.106-2.477,4.6-3.778a3.4,3.4,0,0,0,1.012-1.5c.481-1.619-.341-2.906-2.019-2.549-6.973,1.482-13.776,2.1-20.943.432-3.758-.878-9.519,6.1-11.612-.447-1.665-5.209,5.643-6.047,9.406-8.314.553-.334,1.544-.592,1.605-1,1.657-10.98,8.371-9.424,15.5-6.123,3.8,1.758,7.023,2.574,11.14.263,5.85-3.283,11.009,4.57,17.23,1.991.33-.136,2.012,1.677,2.128,2.69a5.007,5.007,0,0,1-1.364,3.483c-3.6,3.845-10.845,1.47-13.181,7.612-.653,1.716-2.6,3.6-.8,5.216A7.21,7.21,0,0,0,143.7,138.2a10.1,10.1,0,0,0,5.038-2.724c2.7-2.509,4.308-1.665,5.844,1.149,1.3,2.386,2.667,5,.273,7.12-3.366,2.98-5.881,7.162-11.155,7.688-5.735.571-4.92,7.883-8.9,9.7s-6.979,6.036-12.033,5.453c-.123-1.387-.25-2.689-.352-3.993-.276-3.546,2.272-8.623-3.307-9.611-4.042-.716-4.594,3.684-5.886,6.675-3.352,7.763-14.169,5.114-16.694,14.2-2.977-13.477,5.3-20.859,11.513-28.8,4.256-5.444,11.181-6.709,18.06-6.615-.709,2.539-1.553,5.05-2.063,7.627-.217,1.1-.038,3.162.483,3.352,1.709.621,3.926,1.269,5.461.667,4.086-1.6,6.357-6.263,4.581-9.421C132.571,137.113,129.034,137.954,125.78,138.757Z"/><path class="b" d="M215.532,150.121c2.686,6.547-1.871,12.853-.682,19.405.357,1.964,1.464,3.834,3.749,4,1.153.082,2.845-.251,3.463-1.044,3.172-4.062,5.861-8.517,9.206-12.417.925-1.077,3.874-1.466,5.257-.816,1.435.675,3.187,3.193,2.934,4.56-3.04,16.392-6.61,32.64-19.346,45.7a57.856,57.856,0,0,1-1.877-6.31c-.6-3.468-2.026-7.4-5.18-7.832-4.969-.684-5.507,4.484-6.85,7.945-.556,1.434-1.081,2.4-2.456,2.452a49.674,49.674,0,0,1-4.619-35.741C201.263,160.886,206.557,153.61,215.532,150.121Z"/><path class="b" d="M189.777,110.512c1.727-2.452.15-7.611,4.715-7.479,5.821.168,8.628-6.335,14.41-5.607,2.026.254,2.521-.717,1.088-2.29a10.648,10.648,0,0,0-3.172-2.2c-2.624-1.3-5.169-.355-7.637.608-11.131,4.343-22.115,6.65-34.605,5.932-10.778-.619-21.881,4.353-34.752,1.774,11.22-6.432,21.243-12.062,33.763-8.039,3.159,1.016,5.657-.134,5.542-3.232-.3-8.036,4.575-7.935,10.358-7.872,2.444.026,2.069-2.217.954-4.126s-4.759-2.981-2.805-5.768c.617-.88,3.7-.44,5.511,0,5.573,1.354,10.13,6.455,16.731,4.137,5.091-1.788,8.542,7.243,14.276,2.405l-.344-.384c-1.618,4.473,1.861,3.915,4.315,4.368l-.315-.4c.064,7.739.49,15.5.066,23.21-.293,5.323-3.246,7.012-9.222,5.432a46.944,46.944,0,0,0-19.3-.766Zm1.412-20.962c1.493-.977,3.71-1.32,3.178-3.985-.694-3.472-3.61-3.164-5.875-3.052-1.314.065-4.143.173-3.035,3.345C186.45,88.7,188.315,89.8,191.189,89.55Z"/><path class="b" d="M341.779,242.7c6.254-.411,5.312-8.73,10.882-9.9,2.256,2.981.857,6.437,1.26,9.661-2.522,2.185-4.258,4.756-3.908,8.276a2.418,2.418,0,0,0,.72,1.482c1.44,1.231,2.2.841,2.76-.819,1.049-3.089,1.911-6.1.066-9.175,1.791.928,3.135.594,4.308-1.161,2-2.992,3.958-6.131,8.1-6.5l-.095-.1c1.54,2.786.015,6.33,3.088,8.96,14.451,12.373,13.889,29.28,12,45.75-.656,5.734-8.646,9.523-8.232,16.9.042.743-1.625,2.03-2.692,2.3-3.144.8-3.292-2.2-2.693-3.476,4.063-8.674-2.434-17.576,1.05-26.635,1.249-3.246,1.3-7.334,3.457-10.732.973-1.535,1.747-3.808,1.37-5.463-.9-3.94-2.9-7.6-7.3-8.51a7.692,7.692,0,0,0-8.432,4.028c-2.506,4.639-4.276,9.676-6.357,14.545-1.032,2.414-1.467,5.536-3.26,7.045-1.742,1.466-4.926,1.849-7.382,1.632-1.856-.164-2.706-2.459-2.643-4.6.136-4.628.213-9.258.314-13.886l-.313.42c2.821-.693,4.077-2.687,4.138-5.395.112-5.01.062-10.023.08-15.035Zm3.585,29.21-1.688-3.064c-.437,1.2-1.194,2.4-1.222,3.607a8.014,8.014,0,0,0,1.033,3.458C345.805,275.467,345.079,273.426,345.364,271.91Z"/><path class="b" d="M315.027,160.947c2.275-5.892-1.611-9.824-4.227-14.317-.739-1.271-.043-3.783.7-5.406.982-2.151,3.384-2.163,5.052-1.137,7.627,4.693,15.276,8.638,19.323,18.136,2.844,6.672-.177,12.8,2.542,18.56-4.593,2.926-4.212-1.21-5.342-2.825-2.2-3.143-5.381-4.245-8.329-2.233-2.4,1.638-1.523,4.82-.009,7.092,3.46,5.191,3.256,11.126,3.766,16.927.238,2.713.089,5.425-3.129,6.3-2.936.8-5.457-1.136-6.645-3.1-6.186-10.249-12.643-20.711-14.311-32.633-.757-5.407,5.595-3.479,9.244-3.446.884,1.593,1.45,3.542,2.733,4.69,1.638,1.467,3.929,3.736,6.024.648,1.737-2.561.169-4.863-2-6.151C318.922,161.166,316.842,161.279,315.027,160.947Z"/><path class="b" d="M253.366,334.813c0,15.664,1.64,31.73-.367,47.328-3.394,26.371-6.97,52.644-7.077,79.279-.008,1.991-.18,3.987-.376,5.971-.693,7.036-3.673,11.078-7.011,9.569-4.765-2.154-3.872-6.489-3.615-10.28.627-9.271,1.221-18.571,2.5-27.767,2.286-16.422,3.729-32.944,5.62-49.354,1.947-16.9,1.141-34.345,6.61-50.834C250.286,336.805,250.7,334.937,253.366,334.813Z"/><path class="b" d="M325.768,101.2c2.043,2.565,3.983,5.2,6.132,7.646,2.576,2.935,11.331,1.023,8.163,7.693-1.935,4.073-7.074-.666-10.45-1.992-7.8-3.065-15.337-6.8-23.7-1.783-.193.116-.931-.674-1.414-1.042.407-.522.853-1.018,1.213-1.57,2.77-4.248,6.75-2.812,10.623-2.484a4.086,4.086,0,0,0,3.276-1.816c.984-2.087-.638-3.272-2.377-4.207-2.179-1.171-5.431-.957-5.969-4.319-.443-2.775,3.847-6.314-.761-8.265-3.168-1.342-6.395.471-9.376,2a57.469,57.469,0,0,1-7.222,3.258c-3.375,1.175-7.14,5.971-10.234,1.278-1.916-2.908,2.7-5.417,4.408-8.077,4.579-7.127,14.605-4.663,19.949-11.084.794-.953,6.089,1.178,8.882,2.669,8.607,4.6,17.411,8,27.412,6.962,3.077-.319,5.134,1.013,5.272,4.186.167,3.828-1.877,6.159-5.72,6.538a8.822,8.822,0,0,1-3.871-.674C333.991,93.8,330.048,97.253,325.768,101.2Z"/><path class="b" d="M338.164,262.326c-7.033,2.324-2.611,9.181-5.276,13.185a3.825,3.825,0,0,1-2.968,1.646A3.478,3.478,0,0,1,327.7,274.6c.138-5.687,4.5-11.165.71-17.169-4.1,2.858-3.765,7.888-5.741,11.748-1.172,2.289-1.558,5.5-5.017,3.814-1.154-.561-2.069-3.405-1.748-4.921,3.385-16.02,6.879-32.021,10.73-47.933,1.052-4.348,2.536-9.1,8.15-10.1,2.5-.448,4.467-3.773,7.195-2.1,4.113,2.522,1.346,5.7-.035,8.383-2.159,4.192-3.635,7.833-1.356,12.946,1.731,3.883.886,8.914,1.187,13.434l.29-.384c-1.166.474-3.138.7-3.372,1.462-1.907,6.212-3.753,12.514-.846,18.968Z"/><path class="b" d="M417.637,162.245c-4.665,2.944.917,7.224-1.312,10.362-2.2,3.095-5.067,5.755-6.987,8.994-1.66,2.8-1.948,6.121.384,9.038l.217-.224c-.711-4.7-2.357-9.017-6.38-11.789-2.219-1.529-4.8-2.623-4.851-5.691-.1-6.485-2.486-10.554-8.949-13.475-4.2-1.9-4.779-9.084-11.429-9.749-3.845-.384-4.657-4.4-3.87-7.86.706-3.107,7.224-6.193,9.785-4.165,6.585,5.216,15.488,8.089,19.4,15.957a21.385,21.385,0,0,0,11.159,10.571c.661.293,2.052-1.06,3.1-1.651Z"/><path class="b" d="M306.006,258.769c3.347-6.231-6.122-9.827-3.283-15.953-9.057-11.663-2.107-24.722-3.1-37.086-.055-.679,1.7-1.925,2.774-2.157,1.137-.245,3.314.058,3.589.721,5.306,12.8,16.586,24.181,9.543,40.013-1.308,2.94-1.532,6.373-2.18,9.593-.879,4.362-5.506,2.36-7.64,4.568Z"/><path class="b" d="M204.333,400.389c-5.236,21.274-13.6,41.4-22.679,61.245a21.8,21.8,0,0,1-4.1,6.665,6.093,6.093,0,0,1-5.322,1.192c-1.318-.509-2.519-2.881-2.686-4.541-.672-6.664,7.405-11.261,4.6-18.561l-.365.263c5.833-.7,5.377-4.344,3.962-8.439,1.4,1.158,2.626,1.109,2.979-.323.176-.714-.573-1.655-.9-2.494q-.887,1.6-1.775,3.209l-4.157-.2.137.134c-1.378-8.253.808-15.146,7.725-20.234l.291.234c1.3,3.612-1.661,7.776,1.48,11.189,5.539-3.443,6.327-9.619,8.511-14.952,2.461-6.006,3.536-12.618,7.9-17.778Z"/><path class="b" d="M177.954,182.442c-1.943-.062-3.9-.01-5.828-.208-4.771-.489-9.316-4.927-8.2-8.614,3.576-11.774,8.267-23.1,17.281-31.886,1.683-1.64,4.683-2.176,7.184-2.662,2.643-.513,5.626.048,6.748,2.687a6.125,6.125,0,0,1-1.021,5.418c-6.308,6.581-8.91,15.491-14.553,22.451-3.212,3.961-3.055,8.5-1.923,13.14Z"/><path class="b" d="M355.718,148.5c-9.269-4.261-18.788-8.068-27.695-12.983-4.094-2.26-7.336-4.846-12.539-4.242-4.145.482-6.829-3.594-9.955-5.924-.83-.62-1.171-2.24-1.262-3.437-.2-2.673,2.218-3.009,3.942-3.578,1.823-.6,4.02-1.3,5.729-.81,9.385,2.671,18.7,5.6,27.982,8.616,9.635,3.128,13.433,11.278,16.639,19.861Q357.1,147.2,355.718,148.5Z"/><path class="b" d="M409.9,118.737c11.034,3.09,19.567,9.185,24.446,19.9,1.529,3.359,3.592,6.475,6.135,10.989-6.9-1.691-13.04-1.954-17.759-4.68-5.481-3.165-10.008-7.617-16.359-9.918-5.076-1.838-9.169-6.387-13.719-9.749,5.315-4.927,14.05,1.13,17.57-6.869Z"/><path class="b" d="M365.68,170.357c-4.009,3.078-2.544,8.147-1.375,10.7,4.445,9.72.125,19.034.1,28.476a3.815,3.815,0,0,1-2.145,2.713c-2.615.983-3.727-1.35-3.8-3.051-.46-11.168-7.953-20.048-9.792-30.9-.709-4.181-1.147-7.39.983-10.895,1.631-2.685,3.738-3.544,6.318-1.368,2.455,2.071,4.677,4.423,7.195,6.4.284.224,1.827-1.151,2.787-1.784Z"/><path class="b" d="M417.912,162.563a12.25,12.25,0,0,0,.533-1.9c.641-5.5,3.236-8.1,5.857-5.731,5.911,5.344,15.026,8.7,12.947,19.414,4.24,5.634,5.1,11.015,1.963,18.05-1.3,2.919,3.79,8.078.908,14.228-4.079-8-7.966-14.978-11.243-22.232-3.053-6.761-8.17-12.805-7.878-20.9.013-.372-2.187-.824-3.359-1.241Z"/><path class="b" d="M400.493,229.926c5.063,10.906-7.884,15.542-8.306,24.664-1.077-.333-3.112-.739-3.093-.987.731-9.463-6.709-18.141-2.291-28.09,2.094-4.718,2.523-10.157,4-15.184.286-.973,1.86-1.687,2.973-2.268,1.522-.793,2.75-.3,3.113,1.229C398.514,216.121,405.054,221.977,400.493,229.926Z"/><path class="b" d="M237.478,239.044c-.3,6.593.6,13.044,1.353,19.536.615,5.348-1.545,8.756-5.2,8.759-5,0-5.461-3.714-6.991-7.605-2.873-7.306-1.758-15.36-5.711-22.6-1.689-3.1.881-8.854,2.241-13.174a6.229,6.229,0,0,1,7.812-4.3c3.9.981,7.626,2.9,7.627,7.681C238.607,231.237,237.882,235.14,237.478,239.044Z"/><path class="b" d="M140.16,197.755c-3.7-3.582-6.239-6.527-4.643-13.087,1.907-7.841,6.075-14.2,9.235-21.208a7.433,7.433,0,0,1,3.969-3.9,13.089,13.089,0,0,1,7.522.079c1.126.4,2.013,3.393,1.864,5.114C156.929,178.386,153.682,184.158,140.16,197.755Z"/><path class="b" d="M254.022,102.683c1.385-4.952-5-7.431-3.912-12.287l-.288.3c2.286-.851,5.264.2,6.7-2.97,4.055-8.942,11.96-14.419,21.127-24.9-2.8,13.871,1.342,23.608-4.619,33.19-4.363,7.016-3.479,7.573-11.543,6.97-2.618-.2-5.231-.439-7.846-.659Z"/><path class="b" d="M177.646,182.768c4.729,1.716,5.131-5.768,10.537-4.259,2.964,12.228.786,25.175,1.738,37.891.449,6-6.009,5.516-9.839,7.36-5.325-10.269-4.734-21.073-3.112-31.95.464-3.116,2.85-6.009.987-9.369Z"/><path class="b" d="M365.951,170.659c.473-1.91.814-3.865,1.444-5.721,1.667-4.907,3.455-5.906,6.559-3.672,2.671,1.923,5.161,4.1,7.8,6.065,2.566,1.914,6.9,2.693,6.964,6.351.124,7.077,3.668,14.245-.12,21.24a10.4,10.4,0,0,1-2.867,2.7c-1.3,1.031-1.3,1.763.106,2.354-.793-.927-2.032-1.739-2.308-2.8-2.274-8.774-11.71-14.22-11.025-24.592.156-2.363-4.166-2.371-6.822-2.22Z"/><path class="b" d="M201.987,126.455c-8.594-2.167-16.415,1.872-24.53,3.274-4.5.777-8.685,1.773-12.939-.612.77-5.271,1.275-11.153,8.464-10.666,7.356.5,9.676-8.634,16.8-7.934l-.435-.3c2.609,4.5,7.178,4.136,11.471,4.92,5.932,1.082,6.081,2.218,2.209,8.363a20.81,20.81,0,0,0-1.382,3.327Z"/><path class="b" d="M214.154,78.753a54.646,54.646,0,0,0-2.7-7.244c-2.1-3.922.336-6.09,2.805-8.241,2.213-1.926,4.614-1.976,7.069-.216,2.1,1.508,4.485,2.67,6.424,4.353,4.21,3.655-1.5,2.833-2.1,4.351-.678,1.7-1.943,3.369-1.967,5.066-.037,2.487,2.309,2.874,4.276,2.829,2.609-.058,5.206-.585,7.815-.667,9.449-.293,9.45-.254,14.045,11.709l.288-.3c-6.75-.716-12.779-4.955-20.136-3.294-4.587,1.035-8.2-2.856-12.164-4.765l.315.4c-.456-2.426-1.709-4.065-4.315-4.368Z"/><path class="b" d="M409.722,190.639c7.28.02,12.646,2.343,12.861,10.772.034,1.324-.135,2.652-.177,3.979-.167,5.322,5.67,9.41,3.3,15.1-1.754,4.205-3.954,8.224-5.988,12.393-3.207.223-3.807-2.055-4.449-4.744-2.716-11.391-5.182-22.76-3.113-34.6.155-.884-1.434-2.073-2.214-3.12Z"/><path class="b" d="M253.643,102.325c-.117,5.258,7.664,5.384,7.119,10.924-12.076,7.578-22.5-.459-33.195-3.948-2.89-.942,3.769-4.634.417-7.8-1.156-1.092-1.92-3.884-1.33-5.227.817-1.86,3.153-1.025,5-.444,7.44,2.343,14.913,4.581,22.372,6.857Z"/><path class="b" d="M118,206.386c-2.847-1.259-5.178-.018-7.117,1.824-1.525,1.449-3.926,2.65-4.371.548-2.242-10.577-1.376-20.912,4.905-30.173a4.149,4.149,0,0,1,5.286-1.22c1.756.754,3.733,1.634,3.715,3.992-.065,8.528-4.674,16.575-2.712,25.328Z"/><path class="b" d="M281.724,122.645a87.845,87.845,0,0,1,9.334,2.258c2.373.836,5.262,1.8,5.233,5.1-.095,10.741.846,21.919-10.532,28.514l.294.2c.87-5.821,2.1-12.07-.693-17.263-3.343-6.219-1.718-12.8-3.3-19.035Z"/><path class="b" d="M201.648,126.823c6.334-1.513,14.954,2.692,17.951-7.171,6.338-1.771,10.743,2.52,16.1,4.093-4.886,6.937-13.267,5.708-18.609,11.463-5.5,5.931-10.555,3.465-14.181-4.952a22.7,22.7,0,0,1-.921-3.8Z"/><path class="b" d="M117.707,206.685c5.758,2.515,5.544-7.226,11.719-5.121,2.893,11.8.181,22.34-8.563,31.9-3.731-2.247-.752-5.563-1.3-8.162-.665-3.187-2.162-6.292-2.292-9.474-.127-3.092,2.606-6.088.726-9.44Z"/><path class="b" d="M367.792,102.807c-.59,4.444-.534,7.083-1.333,9.43-1.808,5.308-8.152,8.241-12.582,6.161-3.395-1.594-7.919-8.016-6.982-11.015,1.46-4.676,5.545-4.9,9.755-4.62C359.942,102.982,363.259,102.807,367.792,102.807Z"/><path class="b" d="M359.134,128.8c5.742-3.4,11.163-6.739,16.745-9.779.752-.41,2.763.323,3.408,1.143,1.091,1.388,2.508,3.536,2.124,4.894-1.931,6.831-7.936,9.981-13.534,13.169-.939.534-3.765-.988-4.864-2.284C361.38,134.017,360.509,131.444,359.134,128.8Z"/><path class="b" d="M216.566,267.753c-3.529-11.012-7.177-21.989-10.492-33.066-.735-2.454-.5-5.276-.291-7.9a5.484,5.484,0,0,1,1.886-2.909c1.684.743,4.318,1.617,4.6,2.9,2.083,9.612,6.386,18.768,5.965,28.925-.135,3.28.519,6.594.815,9.89Q217.791,266.653,216.566,267.753Z"/><path class="b" d="M274.139,252.165c1.7-10.252,3.332-20.587,5.184-30.883.467-2.595-.71.455,1.78-.434.66-.236,2.822,1.355,2.731,1.738-2.605,11.033-1.667,22.275-2.257,33.421-.078,1.488.374,4.257-2.77,3.9-2.241-.254-3.254-1.933-3.882-3.817A31.037,31.037,0,0,1,274.139,252.165Z"/><path class="b" d="M402.261,110.366c-4.019,1.566-7.809-.439-11.71-.729s-7.847-.391-13.32-.647c5.921-5.536,11.939-7.118,18.62-5.769,3.6.726,4.212,4.768,5.957,7.482Z"/><path class="b" d="M163.33,115.449c-3.606-.366-6.341-.334-7.756-2.867a5.372,5.372,0,0,1-.1-3.343c5.263-1.035,10.557-1.959,15.884-2.563.705-.079,2.1,1.569,2.328,2.6.387,1.774.406,3.932-2.056,4.51C168.54,114.512,165.406,115.04,163.33,115.449Z"/><path class="b" d="M394.617,96.544a9.708,9.708,0,0,1-9.645.991c-1.87-.769-3.1-2.826-2.2-4.452.716-1.288,3.54-2.788,4.461-2.314C389.9,92.14,392.079,94.459,394.617,96.544Z"/><path class="b" d="M410.216,118.413c-2.354-.688-4.9-1.017-7.011-2.157-2.412-1.3-3.268-3.5-.946-5.89l-.451.337c6.5-1.15,6.3,4.44,8.091,8.034Z"/><path class="b" d="M174.139,446.389c-5.2-3.962-5.222-5.306-.124-7.854l-.135-.132q-.053,4.125-.106,8.249Z"/><path class="b" d="M358.559,146c3.175,1.285,3.451,3.292,1.46,5.864-1.429-1.131-2.858-2.262-4.294-3.38C356.636,147.635,357.583,146.8,358.559,146Z"/><path class="b" d="M230.226,138.808a38.665,38.665,0,0,1-3.192,2.207c-.511.289-1.6.486-1.8.231-1.173-1.49-.628-2.29,1.387-2.231,1.283.039,2.566.049,3.859.081Z"/><path class="b" d="M370.109,230.719c-.513-1.489-.083-2.2,1.283-2.069.033,0,.148.916-.04,1.063a6.276,6.276,0,0,1-1.559.669Z"/><path class="b" d="M365.965,234.571c.163-2.592.842-4.63,4.143-3.854l-.315-.335c-.007,2.608-.555,4.7-3.921,4.091Z"/><path class="b" d="M201.442,274.984a4.49,4.49,0,0,1-3.665-4.291,25.641,25.641,0,0,0,1.632-2.213c1.584,1.08,3.148,2.184,4.716,3.271C203.233,272.817,202.337,273.9,201.442,274.984Z"/><path class="a" d="M199.927,397c-4.367,5.16-5.442,11.772-7.9,17.778-2.184,5.333-2.972,11.509-8.511,14.952-3.141-3.413-.185-7.577-1.48-11.189,6.565-8.37,9.768-18.23,13.026-28.172,1.764-5.383,1.389-11.96,7.121-15.6l-.292-.253C203.658,382.217,199.076,389.37,199.927,397Z"/><path class="a" d="M202.18,374.765c.071-1.875.008-3.769.264-5.619a15.829,15.829,0,0,1,1.228-3.314c2.335.955,2.207,3.021,1.506,4.664-.651,1.527-2.162,2.688-3.292,4.013Z"/><path class="a" d="M207.774,356.6a4.186,4.186,0,0,1-.547-1.511c.1-1.753.684-2.153,1.305-1.074a2.443,2.443,0,0,1,.149,1.644C208.592,356.024,208.087,356.291,207.774,356.6Z"/><path class="a" d="M282.06,122.413c1.582,6.231-.043,12.816,3.3,19.035,2.792,5.193,1.563,11.442.693,17.263-1.212-.172-3.207.045-3.514-.575-3.717-7.49-7.64-14.932-10.595-22.732C268.7,126.835,270.5,124.916,282.06,122.413Z"/><path class="a" d="M248.478,149.245c.867-4.7,3.816-6.706,8.435-6.361,1.924.144,4.34.772,2.629,3.253-1.825,2.647-4.521,4.693-6.829,7Q250.6,151.2,248.478,149.245Z"/><path class="a" d="M125.78,138.757c3.254-.8,6.791-1.644,8.783,1.9,1.776,3.158-.495,7.817-4.581,9.421-1.535.6-3.752-.046-5.461-.667-.521-.19-.7-2.255-.483-3.352.51-2.577,1.354-5.088,2.063-7.627Z"/><path class="a" d="M191.184,89.547c-2.869.254-4.734-.847-5.727-3.689-1.108-3.172,1.721-3.28,3.035-3.345,2.265-.112,5.181-.42,5.875,3.052C194.9,88.23,192.682,88.573,191.184,89.547Z"/><path class="a" d="M213.81,78.369c2.606.3,3.859,1.942,4.315,4.368C215.671,82.284,212.192,82.842,213.81,78.369Z"/><path class="a" d="M337.851,262.746c-2.907-6.454-1.061-12.756.846-18.968.234-.761,2.206-.988,3.372-1.462-.018,5.012.032,10.025-.08,15.035C341.928,260.059,340.672,262.053,337.851,262.746Z"/><path class="a" d="M345.364,271.91c-.285,1.516.441,3.557-1.877,4a8.014,8.014,0,0,1-1.033-3.458c.028-1.211.785-2.4,1.222-3.607Z"/><path class="a" d="M353.559,242.227c1.845,3.076.983,6.086-.066,9.175-.564,1.66-1.32,2.05-2.76.819a2.418,2.418,0,0,1-.72-1.482c-.35-3.52,1.386-6.091,3.908-8.276Z"/><path class="a" d="M315.027,160.947c1.815.332,3.9.219,5.384,1.1,2.174,1.288,3.742,3.59,2,6.151-2.095,3.088-4.386.819-6.024-.648-1.283-1.148-1.849-3.1-2.733-4.69A15.446,15.446,0,0,0,315.027,160.947Z"/><path class="a" d="M173.774,446.652q.054-4.125.106-8.249,2.079.1,4.157.2l-.3-.393C179.151,442.308,179.607,445.955,173.774,446.652Z"/><path class="a" d="M178.037,438.605q.888-1.605,1.775-3.209c.33.839,1.079,1.78.9,2.494-.353,1.432-1.584,1.481-2.979.323Z"/></svg>