<svg xmlns="http://www.w3.org/2000/svg" viewBox="0 0 543.348 543.348"><defs><style>.a{fill:#2d9e54;}.b{fill:#fcfcfb;}</style></defs><path class="a" d="M362.274,91.562c1.523,1.291,2.991,2.655,4.585,3.852,2.078,1.562,4.768,2.846,4.115,6.012-.827,4.012-4.282,2.771-6.434,2.141-10.427-3.056-21.126-2.52-31.752-2.83a35.219,35.219,0,0,0-9.862,1.074,8.192,8.192,0,0,0-1.908,15.216c14,7.307,28.778,9.921,44.344,6.463,3.222-.715,6.281-2.163,9.418-3.265,6.96-2.445,13.188-.9,18.593,3.821,4.5,3.931,8.8,8.09,13,12.341a3.906,3.906,0,0,1,.4,3.564,3.837,3.837,0,0,1-3.011,1.828,101.743,101.743,0,0,1-11.849-1.632c-9.186-1.83-18.372-3.1-27.78-2.019-4.04.462-7.779,1.329-11.2,3.7-6.754,4.681-6.66,12.108.517,15.918,11.634,6.176,24.212,6.99,36.882,5.143,6.512-.949,12.895-3.194,19.145-5.4,5.025-1.771,9.38-1.382,12.527,2.859,4.335,5.843,8.225,12.026,12.078,18.2.466.749-.16,2.636-.868,3.529-.69.87-2.325,1.812-3.219,1.561-4.462-1.25-8.856-2.775-13.2-4.4-9.734-3.647-19.671-2.748-29.6-1.385-5.136.705-8.359,4-9.612,8.918-1.3,5.11.779,9.237,4.925,12.113,6.124,4.247,12.786,6.957,20.512,6.631a152.332,152.332,0,0,0,25.658-3.489c9.317-2,13.741.817,15.968,10.35,1.453,6.218,5.5,12.412,2.362,19.268-6.754.781-8.7-5.587-12.78-8.563-8.954-6.538-18.531-10.323-29.666-9.809-7.156.33-10.468,5.865-7.81,12.539a22.225,22.225,0,0,0,7.136,9.435c7.943,6.205,16.6,11.1,26.56,13.29,2.594.571,5.309.589,7.905,1.152,12.592,2.731,16.02,8.728,12.562,21.761-.688,2.6-4.605,4.116-6.362,2.3-2.281-2.363-4.329-4.958-6.391-7.522a50.09,50.09,0,0,0-22.545-15.924c-7.692-2.761-13.154,1.843-12.149,10.145.481,3.975,1.371,7.857,4.411,10.886,7.52,7.492,14.355,15.858,25.594,18.215a25.459,25.459,0,0,1,7.3,3.071c5.2,3.015,7.414,7.67,5.823,13.377-1.578,5.655-1.9,12-7.129,16.186-5.236-.711-4.677-5.537-5.922-8.8-4.187-10.99-10.632-19.829-21.6-24.909-6.666-3.088-11.825-.945-13.518,6.268-3.362,14.316,1.762,26.282,11.393,36.46,4.544,4.8,10.1,8.634,15.155,12.962,2.883,2.471,3.537,5.536,1.706,8.881-2.236,4.083-4.584,8.109-7.01,12.081-1.428,2.335-3.55,4.419-6.34,4.1-4.339-.5-4.19-4.234-4.48-7.557-1.195-13.713-5.67-25.956-16.335-35.282-7.986-6.982-11.783-4.142-14.43,4.356a46.246,46.246,0,0,0,1.135,31.348c3.472,8.723,7.616,16.991,13.688,24.221,3.071,3.657,2.582,7.708-.286,10.855a184.764,184.764,0,0,1-14.371,13.684c-2.071,1.832-5.668.009-5.768-2.842-.258-7.31-.354-14.627-.447-21.942-.106-8.269-2.972-15.619-7.375-22.457-3.448-5.354-9.327-5.048-12.413.845-6.1,11.639-7.236,24.084-5.169,36.877a55.51,55.51,0,0,0,2.927,11.592c5.519,13.9,2.228,14.335-8.264,22.883-1.3,1.059-3.739,1.326-5.518,1.065-3.488-.512-3.264-3.679-3.347-6.226-.2-5.992-.051-12-.307-17.985a23.987,23.987,0,0,0-2.954-11.463c-2.226-3.8-6.647-4.459-9.927-1.28a29.664,29.664,0,0,0-8.084,29.517c4.387,15.905-3.08,22.565-15.127,29.45-19.77,11.3-19.358,18.261-48.261-.543a56.856,56.856,0,0,0-5.051-3.224c-6.409-3.26-8.489-8.8-6.347-15.075,3.9-11.427,1.873-22.412-1.263-33.358-.868-3.031-3.074-5.823-5.143-8.331-2.637-3.2-8.477-2.077-9.868,1.695-2.339,6.341-3.557,12.732-1.819,19.557a71.733,71.733,0,0,1,2.019,13.717c.095,1.714-1.634,4.03-3.957,3.077a81.442,81.442,0,0,1-12.352-6.189c-3.793-2.378-4.814-6.319-3.415-10.507,1.895-5.674,4.519-11.124,6.145-16.865,3.169-11.185,3.171-22.454-1.6-33.239a38.856,38.856,0,0,0-6.733-9.743c-3.262-3.663-9.33-3.01-12.109,1.17-5.643,8.487-8.306,18.032-9.234,28.087-.351,3.813,2.441,8.937-1.621,11.116-5.085,2.728-8.453-2.349-11.625-5.45-6.147-6.009-6.443-10.108.571-16.869,9.2-8.864,14.112-19.106,14.313-31.769.11-6.981-1.351-13.214-7.5-17.534-2.936-2.065-5.663-2.8-9.082-.737A29.934,29.934,0,0,0,149,344.539c-1.648,5.054-2.569,10.341-3.972,15.48-.934,3.421,1.2,9.062-4.66,9.225-4.4.122-6.176-4.464-8.143-7.844-4.786-8.224-4.659-10.273,2.257-17.447,7.393-7.668,14.9-14.969,19.332-25.125a43.354,43.354,0,0,0,3.242-23.354c-1.09-8.87-8.635-12.3-16.07-7.484-8.044,5.21-14.326,11.931-17.151,21.347-1.331,4.438-2.366,8.969-3.818,13.364a4.018,4.018,0,0,1-2.823,2.114,4.181,4.181,0,0,1-3.394-1.21c-4.739-6.6-7.1-14.245-8.668-22.076-.881-4.391,1.083-7.641,5.545-9.289,5.613-2.072,11.08-4.544,16.713-6.554,7.782-2.776,13.751-8.085,19.374-13.752a18.5,18.5,0,0,0,5.228-14.6c-.482-9.033-6.086-13.224-14.681-10.7a55.627,55.627,0,0,0-32.784,24.8c-5.2-8.314-5.936-12.26-3.812-18.122,1.005-2.771,3.114-4.158,5.832-4.8a187.218,187.218,0,0,0,33.944-11.655c7.345-3.316,14.135-7.458,18.382-14.749,5.185-8.9,1.452-16.284-8.5-16.607-15.534-.506-28.687,4.674-39.062,16.438-1.745,1.98-3.451,4-5.29,5.888-.34.349-1.233.165-1.872.212-1.459.108-2.325-.693-2.375-2.395-.264-8.935,3.143-16.889,6.782-24.749,1.637-3.536,4.954-4,8.393-4,9.321,0,18.652.262,27.961-.077,8.737-.318,17.276-2.2,24.567-7.272,5.4-3.756,11.469-7.717,9.853-15.83-1.345-6.759-7.334-9.65-17.68-9.321-9.418.3-18.389,2.88-27.427,5.141-3.218.8-6.367,2.072-9.626,2.449-1.816.209-4.144-1.031-3.405-3.6,3.2-11.118,8.654-14.733,20-14.359,11.981.394,23.976.418,35.966.472a27.956,27.956,0,0,0,21.4-9.13,8.1,8.1,0,0,0,1.647-9.224,6.441,6.441,0,0,0-6.515-3.664c-15.187.906-30.651-2.5-45.588,2.809-.812.288-2.618-.68-3.139-1.553a3.712,3.712,0,0,1,.159-3.488c3.644-3.871,7.459-7.593,11.374-11.194,3.819-3.511,8.242-4.512,12.739-1.474,21.44,14.484,40.69,4.364,59.986-5.22a11.445,11.445,0,0,0,2.975-2.621c1.868-2.006,3.407-4.45,2.663-7.148a6.963,6.963,0,0,0-5.542-5.094,48.268,48.268,0,0,0-7.943-.64c-7.331-.055-14.675.315-21.99-.018-6.686-.305-12.537,4.7-20.479,2.634,5.391-9.277,13.922-12.5,22.953-13.717a118.967,118.967,0,0,0,32.418-9.514,123.514,123.514,0,0,0,17.307-9.862,25.4,25.4,0,0,0,9.242-10.261c2.334-4.873.366-9.7-4.553-10.921C239.2,40.983,204.5,50.926,197.463,69.984c-1.556,4.215-3.737,8.725-8.167,10.978a8.542,8.542,0,0,1-5.7.782c-2.06-.6-2.378-3-1.827-4.974,1.96-7.026,4.762-13.9,5.939-21.041,1.459-8.854-5.506-14.228-13.774-10.836-10.364,4.252-17.789,11.551-20.019,23.039-1.535,7.907-2.749,16.149.015,23.735,2.753,7.558.785,12.744-4.64,17.7-1.95,1.78-3.3,4.209-5.224,6.028-1.759,1.664-2.742,5.02-6.024,4.051-3.631-1.072-2.095-4.248-1.981-6.607.351-7.3,1.655-14.65,1.175-21.885-.5-7.494,1.185-18.389-8.64-19.741-7.467-1.028-11.391,8.264-14.436,14.766-6.135,13.1-7.847,26.763-2.446,40.7,1.918,4.949,4.327,9.763,5.688,14.858,1.532,5.735-5.877,22.761-10.208,21.956-8.655-1.609-4.791-10.68-5.121-16.478-.671-11.794-4.012-22.15-12.04-30.875a5.131,5.131,0,0,0-8.372.835c-9.774,17.954-8.414,35.889,1.43,53.122,3.213,5.623,8.814,9.854,13.119,14.9,1.653,1.936,3.888,4.376,3.854,6.555-.082,5.248-1.262,10.492-2.16,15.71-.8,4.672-2.082,9.153-6.965,11.573-5.417-3.952-5.148-10.3-6.574-15.926-2.844-11.219-7.686-21.294-16.744-28.891-5.832-4.891-12.822-3.058-16.311,3.922-2.21,4.419-2.329,8.988-1.7,13.641,1.736,12.816,5.933,24.57,15.193,34.054,2.791,2.858,5.051,6.608,8.379,8.5,13.706,7.805,15.182,20.7,15.18,34.337,0,.978-1.015,2.6-1.81,2.774a4.052,4.052,0,0,1-3.438-1.166,48.588,48.588,0,0,1-3.947-6.825c-11.411-21.9-18.346-26.972-42.368-30.9-2.5-4.306-1.6-9.073-1.6-13.657q-.1-81.963-.041-163.926c0-2.665-.057-5.335.069-7.995.387-8.154,1.564-9.443,9-9.824,2.66-.137,5.331-.07,8-.07q219.958,0,439.919.009c3.329,0,6.665.025,9.985.245,3.789.251,6.033,2.323,6.279,6.208.168,2.656.246,5.322.246,7.983q.019,92.958-.017,185.917c0,3.256-.408,6.512-.615,9.611-19.328,2.434-20.037,2.771-32.711,16.56-2.245,2.442-4.115,5.236-6.436,7.594a3.923,3.923,0,0,1-3.487.549c-1.06-.418-2.46-1.8-2.466-2.767-.039-5.953.021-11.93.563-17.852.335-3.654,3.422-5.186,6.539-6.759,14.427-7.277,23.663-18.951,28.6-34.273a34.591,34.591,0,0,0,1.421-17.7c-1.656-8.272-10.617-11.49-16.655-5.812A48.478,48.478,0,0,0,476,195.753c-2.127,3.344-3.217,7.394-5.553,10.55-3.612,4.881-2.77,14.556-11.311,13.843-4.339-.363-5.667-20.554-1.95-25.492,2.389-3.173,5.731-5.668,7.908-8.955,9.832-14.845,15.506-30.834,12.187-48.986a30.312,30.312,0,0,0-1.57-5.734c-2.028-5.1-8.709-6.906-13.475-3.946a18.429,18.429,0,0,0-7.418,9.154c-2.684,6.776-5.533,13.546-5.531,21.076a84.157,84.157,0,0,1-.674,9.953c-.221,1.849-.393,3.954-2.8,4.613-3.387.929-4.664-1.457-6-3.763-4.859-8.357-6.926-16.233-2.39-26.211a64.922,64.922,0,0,0,2.8-46.832,43.725,43.725,0,0,0-1.76-5.706c-2.614-5.615-6.142-10.5-12.924-11.066-4.63-.388-8.586,7.442-8.044,16.263.284,4.621,1.5,9.177,2.15,13.783.834,5.933,1.623,11.877,2.167,17.84a4.146,4.146,0,0,1-1.759,3.245c-.935.542-3.04.577-3.665-.082-9.021-9.525-19.431-17.882-17.093-33.822,1.445-9.848-2.176-19.773-6.192-28.995-4.468-10.261-12.031-17.4-22.849-20.8-6-1.884-10.4,1.888-10.247,8.261.166,7.018,3.695,12.676,6.79,18.544,1.831,3.473,5.413,5.941,5.789,10.263.443,5.094-2.915,4.946-6.37,4.729-6.54-6.512-14.072-11.874-19.009-20.173-4.44-7.462-11.994-12.35-19.2-17.2-6.233-4.192-13.486-5.8-20.629-7.121-11.386-2.1-22.018,3.82-24.174,12.637-2.014,8.238,3.755,16.685,14.656,20.858,8.761,3.353,17.857,5.5,27.313,4.316,12.455-1.561,23.674,1.009,33.588,8.87A22.051,22.051,0,0,0,362.274,91.562Z"/><path class="a" d="M38.692,261.188c11.152,17.162,26.086,26.019,44.77,28.759a9.513,9.513,0,0,1,7.559,5.919c2.724,6.763,5.875,13.466,6.25,20.921a4.428,4.428,0,0,1-1.464,3.452,4,4,0,0,1-3.728-.136c-4.631-3.768-9.042-7.807-13.539-11.741-5.573-4.876-11.7-8.811-18.925-10.759-6.561-1.769-11.9,1.345-13.816,7.936a19.331,19.331,0,0,0,1.619,15.437,36.864,36.864,0,0,0,13.5,14.375c12.681,7.449,25.245,14.635,40.956,13.661,7.753-.481,13.955,6.326,15.507,15.045a2.826,2.826,0,0,1-3.6,3.262,53.335,53.335,0,0,1-9.27-3.619c-8.3-4-16.936-3.054-25.5-1.645-6.362,1.047-11.34,4.7-12.6,11.228-1.278,6.633,2.607,11.676,7.835,14.963,11.125,7,23.478,9.2,36.434,7.185,5.909-.917,11.686-2.647,17.561-3.822,10.367-2.073,17.344.958,23.38,10.048.268.4-.115,1.241-.2,1.875-.181,1.422-1.119,2.083-2.8,1.907-3.966-.415-7.938-.786-11.891-1.3a33.869,33.869,0,0,0-15.753,1.8c-4.474,1.581-8.375,4.242-8.786,9.762a12.778,12.778,0,0,0,5.653,12.022c14.552,10.53,30.6,12.068,47.518,7.729,3.844-.986,7.405-3.033,11.212-4.22,5.787-1.8,17.621,3.052,20.508,8.654.735,1.426-.348,4.017-2.82,4.247-6.015.562-11.765,1.66-16.993,5.059-2.962,1.926-5.429,3.923-5.21,7.688.206,3.547,2.163,6.157,5.2,7.994a22.522,22.522,0,0,0,11.421,3.1c8.766.2,17.481-.558,25.33-4.561,9.2-4.691,17.828-5,26.214,1.268,4.509,3.371,13.447,2.615,13.028,10.244-.313,5.7-7.661,6.687-12.12,9.328-8.645,5.118-18.523,7.188-27.771,10.1-.71,4.3,1.608,6.6,4.321,8.62,3.1,2.31,6.185,1.284,9.37-.036,12.265-5.081,24.827-9.526,36.777-15.253,7.985-3.827,14.7-4.242,22.521.348,11.511,6.753,24.356,10.471,37.07,14.459,5.923,1.858,10.378-.015,14.884-2.954.84-.548,1.1-2.211,1.327-3.416.276-1.5-.721-2.07-2.39-2.389-7.188-1.372-14.328-3-21.522-4.333a35.419,35.419,0,0,1-16.02-7.719c-3.552-2.88-3.392-7.14.464-9.932,8.5-6.155,17.185-9.685,27.81-4.533,4.691,2.275,10.292,2.627,15.428,4.041,8.712,2.4,17.151,1.392,25.491-1.645,6.681-2.433,10.524-5.87,9.26-8.4-2.31-4.63-6.725-6.549-11.289-7.218-5.226-.766-10.63-.223-15.934-.589-2.826-.195-7.3,2.05-7.831-2.794-.43-3.9,4.035-4.589,6.564-6.526,5.214-4,10.634-4.718,16.875-2.585a211.175,211.175,0,0,0,21.033,6.05c13.542,3.107,26.459.711,38.78-5.411a25.694,25.694,0,0,0,10.249-9.242c2.806-4.318,1.423-9.865-3.3-11.538-8.239-2.921-16.617-4.82-25.438-2.428-5.609,1.521-11.266,3.849-18.169.267,4.279-8.768,11.414-14.512,18.876-19.833,3.5-2.493,7.55-1.874,11.5-.545,13.952,4.695,27.63,2.514,41.165-1.888a49.922,49.922,0,0,0,18.78-11.088c6.015-5.615,5.071-12.4-1.887-16.358-6.748-3.836-14.009-4.163-21.354-3.328-4.6.522-9.081,2-13.648,2.877-3.5.675-7.36,5.985-10.313,1.3-2.221-3.525,1.951-7.291,3.989-10.647a72.676,72.676,0,0,1,4.456-6.63c2.24-2.908,5.411-3.733,8.888-3.126,1.944.339,3.784,1.24,5.716,1.688,15.742,3.651,30.421,2.467,42.959-9.177,1.821-1.691,4.408-2.559,6.327-3.632,4.946,2.03,3.411,5.869,3.419,8.76q.182,72.975.077,145.951c0,3.326-.1,6.66-.349,9.975-.219,2.914-1.714,5.069-4.8,5.334-3.972.341-7.971.509-11.958.51q-219.984.036-439.968,0a69.88,69.88,0,0,1-11.947-.608c-1.462-.255-3.309-2.4-3.675-3.979a44.371,44.371,0,0,1-.767-9.908q-.052-110.963,0-221.926C35.189,269.694,34.634,266.312,38.692,261.188Z"/><path class="a" d="M508.107,276.082V317.2c-16.964-9.119-32.121-5.342-46.841,3.27a3.564,3.564,0,0,1-5.2-3.578c1.476-11.453,4.608-15.865,15.1-17.008C487.71,298.077,499.219,289.91,508.107,276.082Z"/><path class="b" d="M362.274,91.563a22.136,22.136,0,0,1-3.514-1.89c-9.914-7.861-21.133-10.431-33.588-8.87-9.456,1.184-18.552-.963-27.313-4.316-10.9-4.173-16.67-12.62-14.656-20.858,2.156-8.817,12.788-14.735,24.174-12.637,7.143,1.316,14.4,2.929,20.629,7.121,7.207,4.848,14.761,9.736,19.2,17.2,4.937,8.3,12.469,13.661,19.009,20.173Q364.245,89.521,362.274,91.563Z"/></svg>