<svg xmlns="http://www.w3.org/2000/svg" viewBox="0 0 543.348 543.348"><defs><style>.a{fill:#1f1e15;}.b{fill:#fcfcfb;}</style></defs><path class="a" d="M506.415,302.1c.452,5.28,1.288,10.56,1.3,15.842q.141,86.9.048,173.81,0,4.989-.243,9.976c-.139,2.969-1.684,5.032-4.695,5.275-3.974.319-7.981.323-11.973.323q-218.82.021-437.639.027c-18.79,0-17.462.633-17.461-17.193q.007-81.911.032-163.822c0-3.983.378-7.966.579-11.931,2.119,2.41,1.55,6.779,5.663,7.729C50.071,354.648,65.1,382.929,91.4,404.513c3.068,2.517,5.332,6.02,8.421,8.5,7.25,5.829,14.7,11.416,22.249,16.859,1.483,1.07,3.742,1.312,5.667,1.4.739.033,2.319-1.983,2.2-2.144a109.869,109.869,0,0,0-7.2-9.435c-28.87-32.805-43.3-71.022-43.606-114.718-.119-16.866,3.658-33.007,7.744-49.16.592-2.341,2.139-2.96,4.752-3.357a127.593,127.593,0,0,1-1.249,39.5c-4.956,25.362.99,49.188,10.478,71.851,9.808,23.43,25.517,43.46,43,62.074,10.472,11.152,23.077,17.684,37.42,21.635,4.483,1.235,9,2.83,13.576,3.122,5.556.354,12.547,5.124,16.451-1,3.126-4.9-2.422-9.841-4.882-14.36-4.451-8.173-10.545-15.9-10.872-25.453-.794-23.195-1.66-18.587-21.978-27.039-2.457-1.021-5-1.834-7.5-2.748-28.344-10.358-48-31.118-61.7-56.561a81.338,81.338,0,0,1-9.507-48.375c.23-1.844.448-4.242,3.28-3.793,1.176.187,2.87.9,3.24,1.814,6.11,15.088,18.713,23.644,31.706,31.821,6.194,3.9,12.142,8.369,18.746,11.389,6.917,3.162,10.73,7.7,10.365,15.187-.353,7.258,3.72,10.991,9.658,13.526a51.121,51.121,0,0,0,7.455,2.76c3.18.8,6.64,2.08,9.668,1.507,4.132-.782,2.79-5.253,3.631-8.259,1.659-5.937,6.5-8.186,11.914-9.183a46.242,46.242,0,0,1,19.822,1.065c10.857,2.766,21.4,5.408,33.04,4.844,7.989-.388,17.158,2.433,19.332,13.457,1.226,6.217,6.089,8.14,12.177,7.273a107.36,107.36,0,0,1,11.9-1.3c8.154-.244,14.316-2.506,15.381-11.979.49-4.351,4.439-6.46,7.6-8.812a22.086,22.086,0,0,0,8.058-10.939c1.836-5.194,4.032-5.384,8.4-.79,3.382,3.556,6.421,6.249,11.787,5.869,5.982-.421,7.508,3.234,7.6,8.869.193,11.961,2.031,13.05,11.7,9,7.793-3.261,14-7.218,13.076-17.328-.564-6.186,3.719-9.6,9.308-11.317,1.906-.584,3.879-.952,5.821-1.421C412,315.359,420.8,308.135,426.2,296.36a85.771,85.771,0,0,1,9.373-15.3,140.419,140.419,0,0,1,11.951-13.292c.737-.761,2.471-.924,3.677-.785,2.3.265,3.272,2.222,3.542,4.188a27.29,27.29,0,0,1,.269,7.955c-2.578,15.76-5.16,31.528-8.248,47.192a26.36,26.36,0,0,1-5.283,10.59c-6.591,8.407-11.793,17.679-17.677,26.513-11.682,17.536-28.719,26.887-49.834,28.564-6.707.532-11.777-1.476-13.57-8.64-.876-3.5-2.924-6.206-6.5-6.737-6.615-.981-13.39-1.267-19.512,1.971-4.824,2.552-3.371,8.3-5.276,12.387a8.105,8.105,0,0,0-.5,1.932c-1.124,6-4.631,9.146-10.8,9.834-21.27,2.373-42.534.679-63.795.048-2.553-.076-5.013-1.888-7.607-2.251C235.557,399,227.956,394.542,225.54,382.6c-1.313-6.5-8.242-9.556-15.687-9.161-4.089.218-8.581,4.966-9.366,11.5-.624,5.191-.8,10.807.517,15.788,3.927,14.859,9.846,28.983,19.284,41.311,5.386,7.035,12.4,11.441,21.112,14.149,10.959,3.407,22.371,3.212,33.366,5.875,5.5,1.332,10.9-.906,15.24-3.645,10.67-6.743,21.179-13.9,26.156-26.514,1.933-4.9,3.646-10.12,7.954-13.659a5.688,5.688,0,0,1,3.574-1.111c2.537.111,3.2,2.334,3,4.205a66,66,0,0,1-8.714,26.193c-1.218,2.112-3.233,4.725-.691,6.906,1.287,1.105,3.8,1.439,5.615,1.173,17.552-2.561,33.693-7.083,42.742-24.944,5.3-10.451,12.448-19.961,19.264-30.68,2.4,5.707,1.345,9.883-.282,14.106-4.071,10.573-8.857,20.7-16.4,29.364-1,1.148-1.407,4.247-.615,5.147.949,1.08,3.611,1.342,5.3.958a57.552,57.552,0,0,0,18.389-7.1c14.924-9.347,25.912-22.811,38.306-34.774,15.63-15.084,24.868-34.4,33.287-53.979a54.2,54.2,0,0,0,3.963-19.44c.851-29.218,3.363-58.4.587-87.706-1.155-12.2-3.93-23.671-9.224-34.425-7.981-16.212-19.5-30.084-31.131-43.784-2.1-2.471-5.307-4.209-4.212-8.229.717-2.631,6.58-2.665,10.5.549,4.614,3.784,8.789,8.109,13.1,12.254,7.345,7.06,10.55,17,16.759,24.708,12,14.909,14.617,32.632,15.972,50.5,2.375,31.312-.875,62.514-4.116,93.633A64.931,64.931,0,0,1,474.116,361c-13.27,30.052-30,57.56-58.649,75.829-1.128.719-1.142,3.186-1.675,4.839,1.25.317,2.7,1.217,3.719.864,13.4-4.659,25.352-11.751,34.765-22.486,8.336-9.506,16.234-19.4,24.36-29.085a46.086,46.086,0,0,0,9.134-17.628c4.7-17.3,9.371-34.623,13.176-52.128a115.684,115.684,0,0,1,5.671-19.024l.927.556Zm-84.261,39.574c1.95-1.469,1.71-3.279.192-4.638-.51-.457-2.427.031-3.236.673a30.8,30.8,0,0,0-3.7,4.1c-9.5,5.97-18.387,12.119-21.87,24.009a15.31,15.31,0,0,1-12.986,10.765,6.608,6.608,0,0,0-5.56,4.883,6.215,6.215,0,0,0,7.29.864c14.878-7.2,29.231-15.007,35.142-32.133C418.474,347.172,420.553,344.5,422.154,341.672ZM163.863,359.729c-15.015-10.172-27.5-22.642-36.023-38.875-3.265-6.221-6.766-12.437-13.252-16.05-2.683,3.321-1.079,5.775-.2,8.169,8.879,24.113,24.041,42.57,47.988,53.077,8.919,2.26,16.573,8.91,29.716,8.675C181.16,367.93,173.1,362.771,163.863,359.729Zm184.229,5.856q-.278-1.017-.556-2.035c-5.3,0-10.613-.224-15.9.051-9.05.47-16.93,2.565-20.056,12.9-1.729,5.719-7.016,6.968-12.686,7.75-18.507,2.553-36.9,3.986-55.256-1.013a3.5,3.5,0,0,0-4.514,2.648c-.3,1.846-.088,4.163,2.308,4.788,23.394,6.1,47.044,7.839,70.963,3.713,4.226-.729,7-3.109,7.347-7.948,1-14.1,9.807-19.255,22.824-19.507C344.417,366.9,346.251,366.055,348.092,365.585ZM201.515,360c-.6,1.63-.083,2.723,1.608,2.916,7.093.811,14.189,1.622,21.305,2.181.62.048,1.512-1.685,2.025-2.715.226-.453-.023-1.675-.324-1.779-7.3-2.547-14.733-4.563-22.559-3.6C202.773,357.1,202.193,358.956,201.515,360Zm226.939-31.432c4.65-3.4,4.992-8.52,5.8-13.329.124-.737-1.325-2.389-2.159-2.471a4.617,4.617,0,0,0-3.3,1.577C424.85,318.828,425.556,323.559,428.454,328.565Z"/><path class="a" d="M36.662,244.4c-.3-4.637-.868-9.273-.872-13.911q-.09-88.917-.028-177.833c0-3.993.067-7.99.285-11.975.169-3.09,2.144-4.756,5.1-4.915,4.649-.252,9.312-.327,13.969-.328q216.853-.024,433.707-.012c3.332,0,6.666-.074,9.993.044,8.134.287,8.877.838,8.892,9.474q.141,76.929.021,153.856c-.041,17.958-.6,35.915-.916,53.856a2.6,2.6,0,0,0-2.616-.175c-1.424-6.5-3.009-12.964-4.245-19.5-6.832-36.111-24.307-65.807-53.461-88.343-7.634-5.9-15.7-11.4-26.93-12.185,1.29,7.172,1.958,13,3.45,18.617,1.711,6.439-1.329,10.11-6.316,12.979a31.706,31.706,0,0,1-7.163,3.416c-3.63.992-8.019,5-11,1.306-4.572-5.654,2.738-7.244,5.156-10.468,1.185-1.58,2.773-2.912,3.709-4.614,1.786-3.25,1.11-6.372-1.308-9.129-2.247-2.562-4.894-4.56-8.341-5.055-8.55-1.23-17.112-2.933-25.777-1.362-2.969.538-6.917.041-7.615,5.227,4.132,3.769,8.563,7.771,12.949,11.823,3.462,3.2,6.5,6.8,7.657,11.441a8.5,8.5,0,0,1-.8,5.475c-1.062,2.063-3.422,1.81-5.193.965-16.045-7.655-31.233-3.1-46.231,3.245-8.022,3.393-8.881,5.406-6.976,13.637.744,3.216,1.7,6.4,2.166,9.655a3.949,3.949,0,0,1-1.562,3.333c-.762.382-2.661-.376-3.349-1.212a14.345,14.345,0,0,1-2.809-5.217c-3.73-14.045-13.4-19.681-27.215-22.316-15.3-2.919-30.491-2.138-45.71-1.861-10.663.194-19.056,5.2-22.1,16.483-1.5,5.579-5.31,10.637-4.016,17.219,4.962,1.873,9.99,3.481,14.758,5.657,4.373,2,4.86,8.5,1,11.677a21.294,21.294,0,0,1-6.681,4.169,46.126,46.126,0,0,0-23.982,16.88c-1.886,2.532-5.587,5.885-7.953,5.528-12.86-1.938-20.975,6.4-30.239,12.482-7.776,5.1-11.8,3.68-14.565-5.174-.985-3.154-1.325-6.5-2.148-9.715-5.261-20.531-9.207-41.537-22.477-59.094-1.3-1.717-.367-5.116-.471-7.734,8.589-1.42,16.732-.546,25.32,1.79,12.233,3.329,23.6,8.336,34.969,13.586,4.781,2.207,9.387,4.828,14.262,6.787,4.821,1.936,7.487.4,8.694-4.308,1.142-4.457,2.234-8.927,3.367-13.387,2.9-11.423,1.312-16.223-8.749-21.04-12.512-5.991-25.919-9.648-39.367-12.948-4.625-1.135-10.036-.834-13.31,2.225-9.043,8.444-21.054,13.673-27.408,25.019-5.53,3.178-7.759,8.973-10.7,14.051-5.315,9.165-10.057,18.662-15.2,27.927a4.165,4.165,0,0,1-3.3,1.61c-.593-.029-1.192-1.882-1.6-2.982a3.113,3.113,0,0,1-.013-1.971c8.254-23.4,19.2-45.172,38.172-61.943,3.474-3.071,7.527-5.481,11.094-8.458,3.468-2.895,2.386-7.152-1.725-9.546-5.013-2.92-10.226-2.764-15.442-1.5a81.834,81.834,0,0,0-32.08,15.351c-3,2.378-5.411,6.054-9.866,6.219-.58.022-1.465-.038-1.7-.394a6.577,6.577,0,0,1-1.393-3.233,6.025,6.025,0,0,1,1.3-3.619c13.479-15.71,29.387-26.837,51.173-26.546,8.855.118,16.484-2.017,21.851-10.576-20.7-2.893-44.676,2.473-57.238,13.687-22.672,20.241-40.237,43.978-48.3,73.925-3.961,14.711-8.547,29.254-12.85,43.872l-.882-.61Zm201.562-95.055c2.364-5,1.616-8.775-3.842-11.279a30.753,30.753,0,0,0-15.594-2.491c-8.159.7-7.766-5.215-9.056-10.8a38.008,38.008,0,0,1-23.221-.122,35.24,35.24,0,0,0-25.371,1.3c-2.945,1.361-6.42,2.915-5.122,7.155,1.131,3.7,3.927,4.864,7.705,3.585s7.557-2.49,11.38-3.58c5.482-1.562,5.983-1.221,4.829,6.754-.35,2.42-.021,3.582,1.864,4.287,4.347,1.625,8.887,2.77,13.153,4.573,7.911,3.343,17.285,3.78,23.659,10.033,6.117,6,12.741,5.738,20.256,4.58,16.413-2.528,32.871-4.548,49.414-.471,2.949.727,6.389,1.513,10.169-2.088-4.7-7.9-10.274-16.071-20.26-16.086-11.711-.018-23.812,1.184-34.358,7.729ZM362.4,157.062c-24.446-23.924-35.66-26.2-61.107-13.76.674,6.5,6.288,11.393,5.971,18.53-.219,4.907,4.594,5.862,8.661,6.155a13.813,13.813,0,0,0,5.835-.814C334.087,162.372,347.084,160.127,362.4,157.062ZM295,134.421c-4.881-15.193-1.956-28.936,6.551-41.734,1.847-2.779,3.214-5.919.506-9.019-2.867-3.281-8.616-3.4-12.52.122-4.427,4-9.089,7.974-12.542,12.758a54.153,54.153,0,0,0-10.66,29.535c-.16,3.544.9,7.521,4.46,7.866C278.505,134.694,286.319,137.7,295,134.421ZM180.853,243.508c1.633-5.505-5.878-3.846-6.378-8.326s-2.536-8.828-4.017-13.192c-2.538-7.484-5.012-15-7.85-22.366-.906-2.351-2.46-4.966-4.485-6.229s-5.054-1.5-7.545-1.239c-3.521.366-3.468,3.725-3,6.073,2.6,12.884,5.01,25.84,8.437,38.515,3.681,13.615,7.294,14.784,21.386,8.776A31.249,31.249,0,0,0,180.853,243.508ZM310.134,69.748c-1.006-4.509-6.35-8.7-10.449-7.4-9.39,2.965-19.195,5.111-26.244,13.138-6.118,6.966-13.235,13.073-19.169,20.178A180.458,180.458,0,0,0,239.658,116.6c-1.195,1.933-.7,5.161-.38,7.72a7.33,7.33,0,0,0,6.274,6.754c3.549.593,6.826-.711,8.335-4.033,1.626-3.579,2.506-7.5,3.674-11.283,4.811-15.579,13.891-28.442,24.892-40.26,7.028-7.55,13.813-12.8,23.223-3.644a2.029,2.029,0,0,0,1.912.121A18.19,18.19,0,0,0,310.134,69.748ZM399.9,129.829c-14.43-12.088-30.164-11.82-45.925-7.783-7.691,1.97-14.023,1.779-20.832-2.275a34.033,34.033,0,0,0-25.035-4.287c-4.113.869-5.1,3.657-4.514,7.36a4.181,4.181,0,0,0,5.863,3.546c12.708-4.525,24.511-4.269,35.807,4.2,3.805,2.852,8.986,1.474,13.663,1.2C372.175,131.022,385.435,130.5,399.9,129.829ZM183.792,110.664c13.308,2.105,13.308,2.105,27.091-2.185-3.488-2.4-7.449-1.751-11.23-1.785A29.4,29.4,0,0,0,183.792,110.664Z"/><path class="b" d="M36.662,244.4l.817-.694s.882.61.885.6c.113,3.939,1.315,8.256.137,11.777-4.327,12.928-2.221,25.7-.379,38.562q1.968,13.733,3.9,27.471c-4.108-.929-3.539-5.3-5.658-7.708-.781-11.922-1.053-23.808,3.166-35.226a12.1,12.1,0,0,0-.317-9.591C35.52,261.447,35.1,253.039,36.662,244.4Z"/><path class="b" d="M504.2,252.481a2.6,2.6,0,0,1,2.616.175c-2.922,16.481,2.1,33.009-.392,49.46,0-.018-.875.622-.875.622s-.927-.556-.931-.538C503.237,285.648,507.269,269.035,504.2,252.481Z"/><path class="b" d="M504.2,252.481c3.074,16.554-.958,33.167.418,49.719a115.336,115.336,0,0,0-5.667,19.006c-3.805,17.5-8.473,34.832-13.176,52.128a46.086,46.086,0,0,1-9.134,17.628c-8.126,9.69-16.024,19.579-24.36,29.085-9.413,10.735-21.363,17.827-34.765,22.486-1.016.353-2.469-.547-3.719-.864.533-1.653.547-4.12,1.675-4.839,28.652-18.269,45.379-45.777,58.649-75.829a64.931,64.931,0,0,0,4.976-19.233c3.241-31.119,6.491-62.321,4.116-93.633-1.355-17.872-3.97-35.595-15.972-50.5-6.209-7.713-9.414-17.648-16.759-24.708-4.312-4.145-8.487-8.47-13.1-12.254-3.919-3.214-9.782-3.18-10.5-.549-1.1,4.02,2.114,5.758,4.212,8.229,11.631,13.7,23.15,27.572,31.131,43.784,5.294,10.754,8.069,22.228,9.224,34.425,2.776,29.306.264,58.488-.587,87.706a54.2,54.2,0,0,1-3.963,19.44c-8.419,19.574-17.657,38.895-33.287,53.979-12.394,11.963-23.382,25.427-38.306,34.774a57.552,57.552,0,0,1-18.389,7.1c-1.692.384-4.354.122-5.3-.958-.792-.9-.384-4,.615-5.147,7.547-8.665,12.333-18.791,16.4-29.364,1.627-4.223,2.678-8.4.282-14.106-6.816,10.719-13.968,20.229-19.264,30.68C360.6,448.52,344.456,453.042,326.9,455.6c-1.819.266-4.328-.068-5.615-1.173-2.542-2.181-.527-4.794.691-6.906a66,66,0,0,0,8.714-26.193c.2-1.871-.467-4.094-3-4.205a5.688,5.688,0,0,0-3.574,1.111c-4.308,3.539-6.021,8.759-7.954,13.659-4.977,12.61-15.486,19.771-26.156,26.514-4.336,2.739-9.739,4.977-15.24,3.645-11-2.663-22.407-2.468-33.366-5.875-8.715-2.708-15.726-7.114-21.112-14.149C210.85,429.7,204.931,415.579,201,400.72c-1.317-4.981-1.141-10.6-.517-15.788.785-6.529,5.277-11.277,9.366-11.5,7.445-.4,14.374,2.666,15.687,9.161,2.416,11.944,10.017,16.4,20.871,17.927,2.594.363,5.054,2.175,7.607,2.251,21.261.631,42.525,2.325,63.795-.048,6.169-.688,9.676-3.833,10.8-9.834a8.105,8.105,0,0,1,.5-1.932c1.9-4.089.452-9.835,5.276-12.387,6.122-3.238,12.9-2.952,19.512-1.971,3.574.531,5.622,3.239,6.5,6.737,1.793,7.164,6.863,9.172,13.57,8.64,21.115-1.677,38.152-11.028,49.834-28.564,5.884-8.834,11.086-18.106,17.677-26.513a26.36,26.36,0,0,0,5.283-10.59c3.088-15.664,5.67-31.432,8.248-47.192a27.29,27.29,0,0,0-.269-7.955c-.27-1.966-1.243-3.923-3.542-4.188-1.206-.139-2.94.024-3.677.785a140.419,140.419,0,0,0-11.951,13.292,85.771,85.771,0,0,0-9.373,15.3c-5.4,11.775-14.2,19-26.664,22.01-1.942.469-3.915.837-5.821,1.421-5.589,1.714-9.872,5.131-9.308,11.317.923,10.11-5.283,14.067-13.076,17.328-9.672,4.046-11.51,2.957-11.7-9-.091-5.635-1.617-9.29-7.6-8.869-5.366.38-8.4-2.313-11.787-5.869-4.368-4.594-6.564-4.4-8.4.79a22.086,22.086,0,0,1-8.058,10.939c-3.164,2.352-7.113,4.461-7.6,8.812-1.065,9.473-7.227,11.735-15.381,11.979a107.36,107.36,0,0,0-11.9,1.3c-6.088.867-10.951-1.056-12.177-7.273-2.174-11.024-11.343-13.845-19.332-13.457-11.636.564-22.183-2.078-33.04-4.844a46.242,46.242,0,0,0-19.822-1.065c-5.418,1-10.255,3.246-11.914,9.183-.841,3.006.5,7.477-3.631,8.259-3.028.573-6.488-.707-9.668-1.507a51.121,51.121,0,0,1-7.455-2.76c-5.938-2.535-10.011-6.268-9.658-13.526.365-7.485-3.448-12.025-10.365-15.187-6.6-3.02-12.552-7.491-18.746-11.389-12.993-8.177-25.6-16.733-31.706-31.821-.37-.913-2.064-1.627-3.24-1.814-2.832-.449-3.05,1.949-3.28,3.793a81.338,81.338,0,0,0,9.507,48.375c13.7,25.443,33.357,46.2,61.7,56.561,2.5.914,5.045,1.727,7.5,2.748,20.318,8.452,21.184,3.844,21.978,27.039.327,9.556,6.421,17.28,10.872,25.453,2.46,4.519,8.008,9.457,4.882,14.36-3.9,6.125-10.895,1.355-16.451,1-4.575-.292-9.093-1.887-13.576-3.122-14.343-3.951-26.948-10.483-37.42-21.635-17.48-18.614-33.189-38.644-43-62.074-9.488-22.663-15.434-46.489-10.478-71.851a127.593,127.593,0,0,0,1.249-39.5c-2.613.4-4.16,1.016-4.752,3.357-4.086,16.153-7.863,32.294-7.744,49.16.307,43.7,14.736,81.913,43.606,114.718a109.869,109.869,0,0,1,7.2,9.435c.114.161-1.466,2.177-2.2,2.144-1.925-.086-4.184-.328-5.667-1.4-7.546-5.443-15-11.03-22.249-16.859-3.089-2.484-5.353-5.987-8.421-8.5-26.3-21.584-41.327-49.865-49.375-82.379q-1.955-13.767-3.9-27.492c-1.842-12.864-3.948-25.634.379-38.562,1.178-3.521-.024-7.838-.137-11.777,4.3-14.6,8.886-29.148,12.847-43.859,8.066-29.947,25.631-53.684,48.3-73.925,12.562-11.214,36.536-16.58,57.238-13.687-5.367,8.559-13,10.694-21.851,10.576-21.786-.291-37.694,10.836-51.173,26.546a6.025,6.025,0,0,0-1.3,3.619,6.577,6.577,0,0,0,1.393,3.233c.233.356,1.118.416,1.7.394,4.455-.165,6.866-3.841,9.866-6.219a81.834,81.834,0,0,1,32.08-15.351c5.216-1.263,10.429-1.419,15.442,1.5,4.111,2.394,5.193,6.651,1.725,9.546-3.567,2.977-7.62,5.387-11.094,8.458-18.974,16.771-29.918,38.544-38.172,61.943a3.113,3.113,0,0,0,.013,1.971c.41,1.1,1.009,2.953,1.6,2.982a4.165,4.165,0,0,0,3.3-1.61c5.148-9.265,9.89-18.762,15.2-27.927,2.945-5.078,5.174-10.873,10.7-14.051a29.828,29.828,0,0,1,2.222,2.276c.1,2.618-.826,6.017.471,7.734,13.27,17.557,17.216,38.563,22.477,59.094.823,3.212,1.163,6.561,2.148,9.715,2.764,8.854,6.789,10.276,14.565,5.174,9.264-6.079,17.379-14.42,30.239-12.482,2.366.357,6.067-3,7.953-5.528a46.126,46.126,0,0,1,23.982-16.88,21.294,21.294,0,0,0,6.681-4.169c3.863-3.179,3.376-9.68-1-11.677-4.768-2.176-9.8-3.784-14.758-5.657-1.294-6.582,2.513-11.64,4.016-17.219,3.04-11.284,11.433-16.289,22.1-16.483,15.219-.277,30.41-1.058,45.71,1.861,13.811,2.635,23.485,8.271,27.215,22.316a14.345,14.345,0,0,0,2.809,5.217c.688.836,2.587,1.594,3.349,1.212a3.949,3.949,0,0,0,1.562-3.333c-.461-3.256-1.422-6.439-2.166-9.655-1.905-8.231-1.046-10.244,6.976-13.637,15-6.345,30.186-10.9,46.231-3.245,1.771.845,4.131,1.1,5.193-.965a8.5,8.5,0,0,0,.8-5.475C383.8,162,380.764,158.4,377.3,155.2c-4.386-4.052-8.817-8.054-12.949-11.823.7-5.186,4.646-4.689,7.615-5.227,8.665-1.571,17.227.132,25.777,1.362,3.447.495,6.094,2.493,8.341,5.055,2.418,2.757,3.094,5.879,1.308,9.129-.936,1.7-2.524,3.034-3.709,4.614-2.418,3.224-9.728,4.814-5.156,10.468,2.982,3.689,7.371-.314,11-1.306a31.706,31.706,0,0,0,7.163-3.416c4.987-2.869,8.027-6.54,6.316-12.979-1.492-5.613-2.16-11.445-3.45-18.617,11.233.788,19.3,6.285,26.93,12.185,29.154,22.536,46.629,52.232,53.461,88.343C501.186,239.517,502.771,245.983,504.2,252.481Zm-95.037-17.317c5.467,9.719,4.134,17.284,5.524,24.347,1.584,8.053-2.459,17.5,4.575,24.014,2.84,2.631,5.033-5.109,4.469-24.939-.094-3.314-.343-6.625-.583-9.932-1.1-15.14-6.221-29.86-4.433-45.339.409-3.537-2.6-7.022-5.887-6.791-7.06.5-8.815-3.839-11.16-8.908-1.3-2.8-4.342-4.881-6.878-6.945-.705-.574-2.672-.325-3.57.277-.838.562-1.668,2.313-1.379,3.157.839,2.447,2.3,4.671,3.409,7.036,2.413,5.166,1.587,6.75-3.9,8.12-10.905,2.724-22.017,4.857-32.627,8.46-10.229,3.474-20.333,5.363-31.123,4.524a48.394,48.394,0,0,0-13.7,1.295,8.289,8.289,0,0,0-6.727,6.609c-.435,2.8,1.88,5.031,4.224,6.039,13.624,5.858,24.141,15.18,33.306,26.79,5.252,6.653,12.444,11.862,19.117,17.286,14.594,11.862,18.168,11.073,28.208-5.591,1.364-2.263,2.143-4.893,3.606-7.075C398.292,250.635,403.152,243.8,409.158,235.164Zm-110.5,38.605c-.819-1.946-1.164-4.107-2.394-5.475-7.907-8.8-15.772-17.547-22.211-27.6-4.253-6.637-6.3-6.414-12.361,1.179-2.712,3.4-6.151,4.655-9.577,6.524-4.092,2.232-7.9,5.012-8.959,10a4.5,4.5,0,0,0,.62,3.462,3.9,3.9,0,0,0,3.342,1.035c3.093-.975,5.985-2.588,9.079-3.561,1.851-.582,3.982-.083,3.987,2.4a3.847,3.847,0,0,1-2.317,2.7c-2.841.908-8.077.688-5.3,5.212,3.469,5.663.383,6.657-3.587,7.84-5.332,1.588-4.371,5.918-4.292,9.683.1,4.662,4.017,4.483,7.124,4.714,4.625.344,10.185,1.18,13.4-2.121C274.452,280.278,287.567,279.522,298.657,273.769Zm-35.6,27.581c-10.011,2.058-19.1-.07-28.171-1.763-5.08-.947-5.56-2.342-3.884-8.645a21.159,21.159,0,0,1,1.42-3.7c1.175-2.44-.193-3.735-2.151-4.475-2.237-.846-3.692.832-4.9,2.285-3.286,3.969-1.307,8.942-2.256,13.41-1.607,7.567.074,9.805,6.947,10.037,15.122.513,30.319-2.7,45.4,1.119,2.582.655,8.4-5.007,7.514-7.885-1.912-6.238-4.517.3-6.887.22C271.528,301.8,266.963,301.535,263.059,301.35Zm-64.64,2.123c.261-1.488.831-2.836.657-4.079-.676-4.81,3.25-10.459-1.905-14.343-2.706-2.039-6.79,5.587-6.74,14.313.042,7.2.793,14.411,1.485,21.592.071.735,1.913,1.834,2.9,1.8a4.075,4.075,0,0,0,2.957-1.966C200.477,315.1,198.029,309.124,198.419,303.473ZM334.2,285a20.5,20.5,0,0,0,.045,3.953c.384,3.1-1.23,8.466,2.1,8.721,5.446.42,3.64-5.544,3.99-8.693.5-4.5-.325-9.159-.7-13.741-.211-2.583-2.142-2.814-4.2-2.689a2.136,2.136,0,0,0-2.265,2.678C333.437,277.828,333.712,280.428,334.2,285Zm-18.651,20.226c.265-3.846-3-8.842-6.191-8.767-2.869.068-4.75,2.167-5.227,4.968-.678,3.979,2.449,8.514,6.084,8.607C313.166,310.108,314.772,307.954,315.544,305.225ZM69.786,175.5c1.263-.264,2.793-.162,3.744-.855,4.952-3.6,8.248-8.541,10.663-14.107a2.179,2.179,0,0,0-1.3-3.2c-1.123-.448-2.774-1.065-3.577-.585-5.875,3.518-9.3,9-11.195,15.423C67.867,173.05,69.191,174.384,69.786,175.5Z"/><path class="b" d="M348.092,365.585c-1.841.47-3.675,1.315-5.525,1.35-13.017.252-21.819,5.4-22.824,19.507-.345,4.839-3.121,7.219-7.347,7.948-23.919,4.126-47.569,2.384-70.963-3.713-2.4-.625-2.611-2.942-2.308-4.788a3.5,3.5,0,0,1,4.514-2.648c18.358,5,36.749,3.566,55.256,1.013,5.67-.782,10.957-2.031,12.686-7.75,3.126-10.338,11.006-12.433,20.056-12.9,5.286-.275,10.6-.051,15.9-.051Q347.815,364.567,348.092,365.585Z"/><path class="b" d="M162.379,366.05c-23.947-10.507-39.109-28.964-47.988-53.077-.882-2.394-2.486-4.848.2-8.169,6.486,3.613,9.987,9.829,13.252,16.05,8.52,16.233,21.008,28.7,36.017,38.872Q163.112,362.885,162.379,366.05Z"/><path class="b" d="M422.154,341.672c-1.6,2.832-3.68,5.5-4.724,8.525-5.911,17.126-20.264,24.936-35.142,32.133a6.215,6.215,0,0,1-7.29-.864,6.608,6.608,0,0,1,5.56-4.883,15.31,15.31,0,0,0,12.986-10.765c3.483-11.89,12.372-18.039,21.867-24.007Q418.78,341.745,422.154,341.672Z"/><path class="b" d="M162.379,366.05q.737-3.164,1.478-6.324c9.245,3.045,17.3,8.2,28.238,15C178.952,374.96,171.3,368.31,162.379,366.05Z"/><path class="b" d="M201.514,360c.679-1.04,1.259-2.892,2.056-2.991,7.826-.968,15.257,1.048,22.559,3.6.3.1.55,1.326.324,1.779-.513,1.03-1.405,2.763-2.025,2.715-7.116-.559-14.212-1.37-21.305-2.181C201.432,362.72,200.91,361.627,201.514,360Z"/><path class="b" d="M428.454,328.565c-2.9-5.006-3.6-9.737.34-14.223a4.617,4.617,0,0,1,3.3-1.577c.834.082,2.283,1.734,2.159,2.471C433.446,320.045,433.1,325.168,428.454,328.565Z"/><path class="b" d="M422.154,341.672q-3.374.07-6.743.139a30.922,30.922,0,0,1,3.7-4.1c.809-.642,2.726-1.13,3.236-.673C423.864,338.393,424.1,340.2,422.154,341.672Z"/><path class="b" d="M243.829,152.43c10.546-6.545,22.647-7.747,34.358-7.729,9.986.015,15.56,8.184,20.26,16.086-3.78,3.6-7.22,2.815-10.169,2.088-16.543-4.077-33-2.057-49.414.471-7.515,1.158-14.139,1.423-20.256-4.58-6.374-6.253-15.748-6.69-23.659-10.033-4.266-1.8-8.806-2.948-13.153-4.573-1.885-.7-2.214-1.867-1.864-4.287,1.154-7.975.653-8.316-4.829-6.754-3.823,1.09-7.614,2.305-11.38,3.58s-6.574.112-7.705-3.585c-1.3-4.24,2.177-5.794,5.122-7.155a35.24,35.24,0,0,1,25.371-1.3,38.008,38.008,0,0,0,23.221.122c1.29,5.582.9,11.495,9.056,10.8a30.753,30.753,0,0,1,15.594,2.491c5.458,2.5,6.206,6.28,3.858,11.257-3.42,2.43-8.561,5.5-4.169,9.623,3.1,2.913,6.128-2.569,8.86-4.855A5.259,5.259,0,0,0,243.829,152.43Z"/><path class="b" d="M126.183,178.443c6.354-11.346,18.365-16.575,27.408-25.019,3.274-3.059,8.685-3.36,13.31-2.225,13.448,3.3,26.855,6.957,39.367,12.948,10.061,4.817,11.649,9.617,8.749,21.04-1.133,4.46-2.225,8.93-3.367,13.387-1.207,4.71-3.873,6.244-8.694,4.308-4.875-1.959-9.481-4.58-14.262-6.787-11.369-5.25-22.736-10.257-34.969-13.586-8.588-2.336-16.731-3.21-25.32-1.79A29.828,29.828,0,0,0,126.183,178.443Z"/><path class="b" d="M362.4,157.062c-15.311,3.065-28.308,5.31-40.64,10.111a13.813,13.813,0,0,1-5.835.814c-4.067-.293-8.88-1.248-8.661-6.155.317-7.137-5.3-12.029-5.971-18.53C326.735,130.858,337.949,133.138,362.4,157.062Z"/><path class="b" d="M295,134.421c-8.682,3.277-16.5.273-24.2-.472-3.564-.345-4.62-4.322-4.46-7.866A54.153,54.153,0,0,1,277,96.548c3.453-4.784,8.115-8.761,12.542-12.758,3.9-3.526,9.653-3.4,12.52-.122,2.708,3.1,1.341,6.24-.506,9.019C293.045,105.485,290.12,119.228,295,134.421Z"/><path class="b" d="M180.853,243.508a31.249,31.249,0,0,1-3.447,2.012c-14.092,6.008-17.705,4.839-21.386-8.776-3.427-12.675-5.838-25.631-8.437-38.515-.473-2.348-.526-5.707,3-6.073,2.491-.259,5.527-.02,7.545,1.239s3.579,3.878,4.485,6.229c2.838,7.37,5.312,14.882,7.85,22.366,1.481,4.364,3.515,8.7,4.017,13.192S182.486,238,180.853,243.508Z"/><path class="b" d="M310.134,69.748a18.19,18.19,0,0,1-2.546,2.229,2.029,2.029,0,0,1-1.912-.121c-9.41-9.151-16.195-3.906-23.223,3.644-11,11.818-20.081,24.681-24.892,40.26-1.168,3.783-2.048,7.7-3.674,11.283-1.509,3.322-4.786,4.626-8.335,4.033a7.33,7.33,0,0,1-6.274-6.754c-.318-2.559-.815-5.787.38-7.72A180.458,180.458,0,0,1,254.272,95.66c5.934-7.1,13.051-13.212,19.169-20.178,7.049-8.027,16.854-10.173,26.244-13.138C303.784,61.05,309.128,65.239,310.134,69.748Z"/><path class="b" d="M399.9,129.829c-14.468.675-27.728,1.193-40.973,1.963-4.677.273-9.858,1.651-13.663-1.2-11.3-8.47-23.1-8.726-35.807-4.2a4.181,4.181,0,0,1-5.863-3.546c-.582-3.7.4-6.491,4.514-7.36a34.033,34.033,0,0,1,25.035,4.287c6.809,4.054,13.141,4.245,20.832,2.275C369.739,118.009,385.473,117.741,399.9,129.829Z"/><path class="b" d="M183.792,110.664a29.4,29.4,0,0,1,15.861-3.97c3.781.034,7.742-.619,11.23,1.785C197.1,112.769,197.1,112.769,183.792,110.664Z"/><path class="b" d="M243.829,152.43a5.259,5.259,0,0,1-.9,1.661c-2.732,2.286-5.757,7.768-8.86,4.855-4.392-4.125.749-7.193,4.169-9.623C240.092,150.373,241.96,151.4,243.829,152.43Z"/><path class="a" d="M409.158,235.164c-6.006,8.638-10.866,15.471-15.532,22.434-1.463,2.182-2.242,4.812-3.606,7.075-10.04,16.664-13.614,17.453-28.208,5.591-6.673-5.424-13.865-10.633-19.117-17.286-9.165-11.61-19.682-20.932-33.306-26.79-2.344-1.008-4.659-3.238-4.224-6.039a8.289,8.289,0,0,1,6.727-6.609,48.394,48.394,0,0,1,13.7-1.295c10.79.839,20.894-1.05,31.123-4.524,10.61-3.6,21.722-5.736,32.627-8.46,5.489-1.37,6.315-2.954,3.9-8.12-1.105-2.365-2.57-4.589-3.409-7.036-.289-.844.541-2.595,1.379-3.157.9-.6,2.865-.851,3.57-.277,2.536,2.064,5.583,4.148,6.878,6.945,2.345,5.069,4.1,9.4,11.16,8.908,3.286-.231,6.3,3.254,5.887,6.791-1.788,15.479,3.336,30.2,4.433,45.339.24,3.307.489,6.618.583,9.932.564,19.83-1.629,27.57-4.469,24.939-7.034-6.517-2.991-15.961-4.575-24.014C413.292,252.448,414.625,244.883,409.158,235.164Zm-36.143,26.383c1.116-.6,2.523-.941,3.306-1.831C387.786,246.678,395.16,231.1,403.3,216c.3-.55.558-1.486.3-1.9-.993-1.589-1.976-4.034-3.382-4.362-5.515-1.286-11.094,2.751-12.1,8.412a60.248,60.248,0,0,1-13.39,28.335,69.314,69.314,0,0,0-6.553,9.7c-.366.637.681,2.433,1.493,3.308A14.019,14.019,0,0,0,373.015,261.547Z"/><path class="a" d="M298.657,273.769c-11.09,5.753-24.2,6.509-33.448,15.989-3.218,3.3-8.778,2.465-13.4,2.121-3.107-.231-7.027-.052-7.124-4.714-.079-3.765-1.04-8.1,4.292-9.683,3.97-1.183,7.056-2.177,3.587-7.84-2.772-4.524,2.464-4.3,5.3-5.212a3.847,3.847,0,0,0,2.317-2.7c0-2.483-2.136-2.982-3.987-2.4-3.094.973-5.986,2.586-9.079,3.561a3.9,3.9,0,0,1-3.342-1.035,4.5,4.5,0,0,1-.62-3.462c1.057-4.985,4.867-7.765,8.959-10,3.426-1.869,6.865-3.128,9.577-6.524,6.066-7.593,8.108-7.816,12.361-1.179,6.439,10.049,14.3,18.8,22.211,27.6C297.493,269.662,297.838,271.823,298.657,273.769Z"/><path class="a" d="M263.059,301.35c3.9.185,8.469.451,13.038.6,2.37.077,4.975-6.458,6.887-.22.882,2.878-4.932,8.54-7.514,7.885-15.082-3.821-30.279-.606-45.4-1.119-6.873-.232-8.554-2.47-6.947-10.037.949-4.468-1.03-9.441,2.256-13.41,1.2-1.453,2.658-3.131,4.9-2.285,1.958.74,3.326,2.035,2.151,4.475a21.159,21.159,0,0,0-1.42,3.7c-1.676,6.3-1.2,7.7,3.884,8.645C243.962,301.28,253.048,303.408,263.059,301.35Z"/><path class="b" d="M198.419,303.473c-.39,5.651,2.058,11.625-.647,17.316a4.075,4.075,0,0,1-2.957,1.966c-.986.035-2.828-1.064-2.9-1.8-.692-7.181-1.443-14.388-1.485-21.592-.05-8.726,4.034-16.352,6.74-14.313,5.155,3.884,1.229,9.533,1.905,14.343C199.25,300.637,198.68,301.985,198.419,303.473Z"/><path class="a" d="M334.2,285c-.483-4.571-.758-7.171-1.032-9.771a2.136,2.136,0,0,1,2.265-2.678c2.056-.125,3.987.106,4.2,2.689.375,4.582,1.2,9.241.7,13.741-.35,3.149,1.456,9.113-3.99,8.693-3.326-.255-1.712-5.624-2.1-8.721A20.5,20.5,0,0,1,334.2,285Z"/><path class="a" d="M315.544,305.225c-.772,2.729-2.378,4.883-5.334,4.808-3.635-.093-6.762-4.628-6.084-8.607.477-2.8,2.358-4.9,5.227-4.968C312.545,296.383,315.809,301.379,315.544,305.225Z"/><path class="a" d="M69.785,175.5c-.594-1.119-1.918-2.453-1.662-3.321,1.893-6.419,5.32-11.9,11.195-15.423.8-.48,2.454.137,3.577.585a2.179,2.179,0,0,1,1.3,3.2c-2.415,5.566-5.711,10.5-10.663,14.107C72.579,175.341,71.049,175.239,69.785,175.5Z"/><path class="b" d="M373.014,261.547a14.032,14.032,0,0,1-3.352-2.057c-.812-.875-1.859-2.671-1.493-3.308a69.314,69.314,0,0,1,6.553-9.7,60.248,60.248,0,0,0,13.39-28.335c1-5.661,6.583-9.7,12.1-8.412,1.406.328,2.389,2.773,3.382,4.362.262.418,0,1.354-.3,1.9-8.136,15.1-15.51,30.68-26.975,43.718C375.538,260.606,374.131,260.95,373.014,261.547Z"/></svg>