<svg xmlns="http://www.w3.org/2000/svg" viewBox="0 0 543.348 543.348"><defs><style>.a{fill:#2d9e54;}.b{fill:#fcfcfb;}</style></defs><path class="a" d="M267.069,149.932c-6.917-1.465-10.389-7.972-16.187-11.015a3.488,3.488,0,0,0-5.013,1.672c-.462,1.053-.708,2.909-.116,3.594a62.047,62.047,0,0,0,8.365,8.436c7.425,5.827,7.945,13.887,5.909,21.635-2.341,8.9-6.269,17.437-10,25.915-2.662,6.048-7.037,7.4-13.086,4.472a86.01,86.01,0,0,1-24.03-17.54c-3.284-3.363-6.385-6.724-10.814-8.558a10.322,10.322,0,0,0-13.94,7.193c-1.411,6.165-.7,11.767,3.862,16.676a98,98,0,0,0,15.1,12.879c18.179,13.022,37.6,22.266,60.509,22.481,3.88.037,7.76.882,11.618,1.5.408.064,1.015,1.159.918,1.656a10.6,10.6,0,0,1-1.339,3.446c-.267.438-1.2.465-1.825.69-3.956,1.428-10.053-2.533-11.856,3.917-1.363,4.874,5.089,5.415,6.424,9.065a8.671,8.671,0,0,1,.566,1.732c-1.124.582-2.506,1.642-3.47,1.363-2.457-.711-5.29-1.5-6.969-3.232-3.187-3.286-5.574-7.333-8.517-10.878-.737-.889-2.785-1.823-3.426-1.429-1.5.923-3.5,2.6-3.552,4.038-.249,7.266-.779,14.683.329,21.807,3.672,23.6,8.1,47.081,12.055,70.638,2.987,17.782,4.744,35.442-1.715,53.1-3.484,9.526-6.565,18.848-15.739,24.552a12.389,12.389,0,0,0-2.882,2.7c-3.03,3.681-1.269,10.266,3.258,11.442a50.663,50.663,0,0,0,11.737,1.946c14.633.235,29.272.158,43.908.061a18.176,18.176,0,0,0,5.658-1.3c3.093-1.08,4.834-5.707,3.244-8.288-.691-1.122-1.2-2.57-2.214-3.246-17.141-11.475-18.682-29.745-20.22-47.638a88.219,88.219,0,0,1,3.243-33.593c10.064-32.693,13.53-66.252,13.5-100.3,3.621-5.255,9.1-7.193,14.881-9.24,16.759-5.936,29.847-17.122,40.88-30.738a34.043,34.043,0,0,0,5.245-10.563c1.428-4.248-.6-7.745-4.063-10.315-2.854-2.115-6.006-2.926-9.225-.884-3.356,2.128-7.043,4.019-9.757,6.817a84.262,84.262,0,0,1-20.449,15.79c-8.9,4.793-13.44,11.963-15.51,21.723a97.75,97.75,0,0,0-1.668,17.765c-3.653.259-7.7,3.319-10.578-1.7-2.048-3.566-4.283-7.971-1.457-11.063,9.058-9.91,9.1-22.987,14.047-34-1.136-.908-1.582-1.574-2.06-1.6-4.424-.218-9.67,1.092-8.785-6.579.6-5.243.474-10.571.664-15.861.226-6.306-3.666-11.208-5.724-16.735L291.19,150c7.187.514,10.59-4.2,13.315-9.739,1.134-2.3-1.354-5.658-3.979-5.047-2.517.586-4.83,2.05-7.233,3.128l-5-3.576c2.23-6.932,8.343-8.4,14.2-8.983q45.667-4.553,91.406-8.4c9.293-.792,15.688,6.552,12.631,15.211-6.412,18.16-12.281,36.74-20.992,53.811-17.554,34.4-30.752,70.635-46.9,105.6-2.507,5.428-4.481,11.144-7.423,16.317-2.388,4.2-4.289,8.1-3.333,13.1.5,2.638-.5,5.044-2.447,7.2-2.332,2.575-9.233,2.359-6.728,7.507,1.749,3.594,7.2,2.384,11.149,2.1,6.333-.45,11.689,2.172,16.909,5.146,19.925,11.35,41.731,17.752,64.082,20.6,29.776,3.8,58.366-.816,82.966-20.169a38.055,38.055,0,0,1,8.5-4.989c2.954-1.262,5.12.167,5.419,3.416.305,3.305.285,6.646.286,9.971q.024,69.914-.006,139.827c0,3.987-.12,7.985-.436,11.958-.241,3.032-2.3,4.727-5.208,4.919-4.641.307-9.3.421-13.955.422q-216.79.029-433.579.006c-20.806,0-19.4,1.677-19.419-19.389q-.037-48.939.023-97.879a104.816,104.816,0,0,1,.672-11.9c.254-2.183,2.173-3.109,4.244-3.29a20.791,20.791,0,0,1,13.364,2.883c17.453,10.928,37.578,13.347,57.173,15.626,19.041,2.216,38.534,2.251,57.515-2.935,7.691-2.1,15.393-3.719,22.35-8.1,7.963-5.014,16.686-8.183,26.427-7.729,2.543.118,5.359-.359,6.421-3.467a6.839,6.839,0,0,0-1.629-7.317c-1.827-1.838-5.076-2.694-6.149-4.78-6.63-12.882-14.039-25.549-18.941-39.1-18.308-50.612-35.709-101.552-53.559-152.33-2.234-6.358-4.194-12.124-.981-19.121,4.05-8.824,9.557-13.3,19.633-13.867,24.571-1.376,49.123-3.369,73.615-5.8,15.387-1.527,27.044,3.492,35.326,16.474ZM146.734,466.765c17.206,3.9,34.2,4.726,51.543,4.525,38.477-.444,76.976,1.306,115.47,1.987,24.5.434,49,.575,73.507.8,3.181.028,6.718.706,8.792-3.8-6.12-4.711-13.7-3.554-20.664-4.679-3.256-.526-7.693-.093-8.881-3.346-3.954-10.836-12.837-9.606-21.246-9.464-11.289.191-22.652.074-33.832,1.381-10.408,1.217-19.978-3.86-32.56-2.349,4.239-.892,6.146-1.508,8.091-1.667,11.107-.905,22.225-1.67,33.332-2.573,1.628-.132,1.953-1.358,2.138-2.835.213-1.7-.128-2.468-1.983-2.606-1.972-.146-3.933-.6-5.9-.6-28.568-.1-57.136-.2-85.7-.137-2.892.006-6.287-1.7-9.822,2.76a53.718,53.718,0,0,0,19.033,4.028c3.052.134,6.622-.381,7.849,4.534-14.712,0-29.262-.041-43.813.017-7.871.031-15.809-1.109-21.61,6.9-2.73,3.772-8.18,3.613-13,3A33.42,33.42,0,0,0,146.734,466.765Z"/><path class="a" d="M111.928,129.37c-8.119,1.824-15.854,5.912-24.655,1.1-3.707-2.026-7.537,1.5-9.744,5.064-1.98,3.2-1.269,6.483,1.169,9.126,2.849,3.088,6.435,5.035,10.673,3.206,2.382-1.027,4.251-3.186,6.578-4.4,7.5-3.921,15.061.08,15.778,8.5a27.536,27.536,0,0,1-.847,9.873c-5.762,19.63-10.244,39.575-18.075,58.669-16.643,40.58-32.187,81.609-48.239,122.431-1.858,4.728-4.075,9.315-6.264,14.281-4.069-3.761-2.763-7.844-2.767-11.381q-.178-147.826-.091-295.652a77.8,77.8,0,0,1,.422-7.96c.311-3.006,2.1-4.819,5.132-4.972q6.977-.352,13.967-.365,216.8-.027,433.606-.018c21.072,0,19.457-1.012,19.462,19.478q.027,121.857.007,243.714v19.516c-8.253-21.156-17.892-41.316-25.675-62.254-10.41-28-19.086-56.577-29.587-84.524q-7-18.645-12.7-37.771c-3.1-10.468,5.381-21.488,16.557-22.2,3.951-.252,7.949.24,11.926.371,2.729.09,5.579-.225,6.709-3a10.364,10.364,0,0,0-.746-9.594c-1.985-3.119-5.852-4.734-8.632-2.966-11.127,7.077-21.037,4.835-31.558-1.618-8.28-5.078-17.1-3.363-23.839,3.318-5.225,5.175-10.965,6.418-17.868,7.042-29.79,2.7-59.527,5.974-89.3,8.913a53.147,53.147,0,0,1-9.933-.324c-3.426-.308-7.058-4.225-6.057-6.482,1.272-2.867,3.742-2.918,6.6-2.633,1.733.173,4.469-.394,5.213-1.588,1.457-2.338.329-4.892-1.5-7.108-6.574-7.98-15.372-9.722-24.285-8.158-3.305-4.609-2.778-8.576-2.286-12.517a27.438,27.438,0,0,0-2.094-13.649c-1.917-4.88-2.921-10.414-8.589-12.558-3.321-1.257-8.185,9.207-7.432,16.535a23.109,23.109,0,0,0,2.262,7.57c1.146,2.357,3.2,4.257,4.482,6.565,9.923,17.86.046,37.789-20.275,39.7-22.519,2.118-45.131,3.242-67.706,4.756-3.982.266-8.147-.353-11.934.6-9.1,2.29-16.616-.026-24.486-4.88-9.932-6.125-16.126-4.785-22.658,3.082-1.068,1.287-.75,3.725-1.073,5.632ZM255.187,96.235c-.724-.76-1.1-1.385-1.65-1.66a2.2,2.2,0,0,0-1.731-.073c-7.413,3.776-12.174,11.5-10.263,16.649.173.469.944,1.1,1.354,1.041,6.426-.883,5.759-8.023,9.727-11.206C253.948,99.924,254.4,97.773,255.187,96.235Z"/><path class="a" d="M414.459,331.763c-15.916,0-31.832.062-47.747-.038a89.157,89.157,0,0,1-13.883-.871c-12.187-2.009-17.3-11.993-12-23.593,2.467-5.408,5.815-10.407,8.581-15.687a441.827,441.827,0,0,0,21.753-49.038c9.372-24.809,19.453-49.348,29.056-74.07,3.589-9.24,6.193-18.884,10.136-27.957,4.224-9.723,16.188-10.581,22.048-1.812,2.163,3.236,3.313,7.2,4.654,10.926C449.162,183.3,461.1,217.029,473.328,250.66c5.2,14.307,11.224,28.317,16.371,42.643,3.129,8.709,5.669,17.607,3.013,27.207-1.614,5.829-4.338,9.422-10.7,9.725-15.235.724-30.459,1.69-45.7,2.317-7.275.3-14.573.052-21.86.052C414.458,332.324,414.458,332.044,414.459,331.763Zm-6.067-33.508a13.733,13.733,0,0,0-12.162,5.715c-1.761,2.336-2.886,5.49.259,6.49,6.231,1.981,10.1,5.232,11.615,11.8.647,2.8,5.072,3.967,6.029,1.558,3.331-8.383,10.839-8.715,17.623-10.743,1.92-.574,3.605-1.5,3.838-3.778a5.7,5.7,0,0,0-4-6.169C423.961,301.126,416.141,299.826,408.392,298.255Zm-32.977,26.217.021.625c5.847-.443,11.7-.846,17.538-1.355,1.452-.127,2.028-1.261,1.689-2.887-.115-.556-.266-1.47-.591-1.564-11.241-3.27-22.6-6.122-34.417-4.65-2.579.321-3.868,3.251-3.655,6.12a3.739,3.739,0,0,0,3.729,3.642C364.951,324.608,370.185,324.472,375.415,324.472Zm49.716-.095c11.368,4.421,21.937,1.879,32.478.046,1.491-.259,1.937-1.461,1.143-2.987-.566-1.088-1.178-2.594-2.136-2.964C447.735,315.044,436.888,317.012,425.131,324.377Z"/><path class="a" d="M133.617,365.566c-21.214-.979-42.475-1.377-63.626-3.12-16.725-1.379-20.84-9.569-14.614-25.71,5.735-14.868,11.488-29.731,17.051-44.664,6.022-16.169,11.836-32.416,17.733-48.633.907-2.5,2.224-4.942,2.584-7.519,3.446-24.637,15.885-46.266,23.164-69.613a33.642,33.642,0,0,1,3.271-7.172c1.828-3.052,8.225-3.623,10.557-.8a29.778,29.778,0,0,1,5.152,8.325c5.735,15.572,12.025,31.01,16.536,46.944a579.868,579.868,0,0,0,28.869,80.45c7.058,15.68,10.135,32.938,18.96,48.021,3.165,5.409,1.741,11.664-.377,17.426-1.259,3.428-3.785,5.813-7.463,5.331C172.15,362.31,152.9,364.927,133.617,365.566Zm9.684-7.711c0-6.406-.467-11.074.107-15.61.921-7.27-1.057-12.872-7.243-17.018A53.938,53.938,0,0,1,130.213,320c-2.124-1.935-4.663-2.75-7.253-1.595-7.223,3.22-14.677,6.081-20.65,11.552-2.531,2.318-2.261,7.569.853,8.192,8.582,1.719,14.023,6.709,17.4,14.418,2.166,4.947,6.231,6.568,11.232,6.357C135.018,358.786,138.227,358.34,143.3,357.855Zm10.907-2.556c6.926,2.4,14.015,1.644,21.043.878,1.775-.193,3.944-1.433,3.6-3.73a8.047,8.047,0,0,0-2.439-4.775c-3.79-3.044-8.583-2.507-13.032-2.5C157.038,345.19,154.25,348.983,154.208,355.3Zm-63.166,1.373c8.669.536,12.609,1.012,16.534.916,1.763-.043,3.851-.67,4.081-3.318.186-2.126-.3-3.917-2.056-5.043-6.86-4.409-20.612-3.167-27.544,2.615-.578.482-.168,3.411.107,3.462C86.654,356.139,91.2,356.692,91.042,356.672Z"/><path class="a" d="M270.929,147.321c2.52,5.043,1.984,10.33.987,15.553-1.691,8.855-.093,16.834,4.437,24.732,4.116,7.174,3.6,7.473-6.574,11.669,1.312,8.65,9.994,11.919,13.677,18.77.815,1.517,1.219,4.38.364,5.36-.9,1.03-3.546.744-5.41.65-1.254-.062-3.311-.494-3.582-1.263-3.127-8.862-13.6-14.6-11.017-25.924a14.906,14.906,0,0,0-.346-5.905c-2.724-14.033.857-27.491,3.6-41.03Z"/><path class="a" d="M111.58,129.832c2.434-2.146,4.683-4.561,7.341-6.38,5.574-3.817,10.293-3.864,14.312-.6,4.879,3.963,7.459,10.6,5.707,15.636-1.865,5.359-5.849,8.555-11.4,9.6-3.5.66-6.452-1.085-8.987-3.09-4.984-3.94-6.577-9.514-6.615-15.64Zm15.5,10.288c2.713-.968,4.3-2.915,3.034-5.667-.616-1.333-2.935-3.03-4.036-2.757-2.511.621-4.2,2.748-3.219,5.7A3.821,3.821,0,0,0,127.083,140.12Z"/><path class="a" d="M438.418,114.814c.335,5.321-5.137,10.275-12.094,10.948-7.719.748-13.568-3.588-14.263-10.57-.747-7.516,3.65-13.61,10.449-14.479C430.809,99.652,437.856,105.9,438.418,114.814Zm-11.636-2.808c-.595-1.569-1.8-2.139-3.169-1.094a5.164,5.164,0,0,0-2.024,3.012c-.073.6,1.543,2.011,2.38,2C426.243,115.884,427.256,114.388,426.782,112.006Z"/><path class="a" d="M262.8,120.8c.085-5.692,4.589-10.263,9.85-10,6.058.306,11.55,6.18,10.861,11.617-.665,5.254-7.466,10.8-12.6,10.279C266.527,132.247,262.712,126.652,262.8,120.8Z"/><path class="a" d="M289.758,253.787c-.175,3.306-.8,6.554-4.318,7.765a7.231,7.231,0,0,1-5.246-.326,3.028,3.028,0,0,1-.779-4.858,43.212,43.212,0,0,1,5.308-5.482,3.6,3.6,0,0,1,3.34-.252C288.941,251.179,289.218,252.692,289.758,253.787Z"/><path class="a" d="M286.8,154.325c-5.416-6.974-5.25-13.519,1.5-19.557q2.491,1.787,4.991,3.575c-.911,3.848-4.763,7.166-2.1,11.658Z"/><path class="a" d="M278.847,97.515a11.1,11.1,0,0,1,9.66,5.627c.853,1.442.8,2.46-.745,3.3-3.532,1.924-11.851-2.628-11.865-6.692C275.9,99.008,277.813,98.261,278.847,97.515Z"/><path class="b" d="M146.734,466.765a33.42,33.42,0,0,1,20.735-4.126c4.825.615,10.275.774,13-3,5.8-8.013,13.739-6.873,21.61-6.9,14.551-.058,29.1-.017,43.813-.017-1.227-4.915-4.8-4.4-7.849-4.534a53.718,53.718,0,0,1-19.033-4.028c3.535-4.463,6.93-2.754,9.822-2.76,28.568-.06,57.136.036,85.7.137,1.967.007,3.928.458,5.9.6,1.855.138,2.2.9,1.983,2.606-.185,1.477-.51,2.7-2.138,2.835-11.107.9-22.225,1.668-33.332,2.573-1.945.159-3.852.775-8.091,1.667,12.582-1.511,22.152,3.566,32.56,2.349,11.18-1.307,22.543-1.19,33.832-1.381,8.409-.142,17.292-1.372,21.246,9.464,1.188,3.253,5.625,2.82,8.881,3.346,6.964,1.125,14.544-.032,20.664,4.679-2.074,4.5-5.611,3.824-8.792,3.8-24.5-.221-49.008-.362-73.507-.8-38.494-.681-76.993-2.431-115.47-1.987C180.931,471.491,163.94,470.663,146.734,466.765Z"/><path class="b" d="M300.693,241.865a97.75,97.75,0,0,1,1.668-17.765c2.07-9.76,6.605-16.93,15.51-21.723a84.262,84.262,0,0,0,20.449-15.79c2.714-2.8,6.4-4.689,9.757-6.817,3.219-2.042,6.371-1.231,9.225.884,3.468,2.57,5.491,6.067,4.063,10.315a34.043,34.043,0,0,1-5.245,10.563c-11.033,13.616-24.121,24.8-40.88,30.738-5.782,2.047-11.26,3.985-14.881,9.24Zm40.2-41.111a2.332,2.332,0,0,0-1.392-3.207c-1.5-.757-2.849-.487-3.059,1.148-.141,1.1.788,2.339,1.238,3.515Q339.288,201.486,340.893,200.754Z"/><path class="b" d="M291.19,150c-2.66-4.492,1.192-7.81,2.1-11.658,2.4-1.078,4.716-2.542,7.233-3.128,2.625-.611,5.113,2.744,3.979,5.047C301.78,145.8,298.377,150.515,291.19,150Z"/><path class="b" d="M255.187,96.235c-.79,1.538-1.239,3.689-2.563,4.751-3.968,3.183-3.3,10.323-9.727,11.206-.41.057-1.181-.572-1.354-1.041-1.911-5.148,2.85-12.873,10.263-16.649a2.2,2.2,0,0,1,1.731.073C254.088,94.85,254.463,95.475,255.187,96.235Z"/><path class="b" d="M408.392,298.255c7.749,1.571,15.569,2.871,23.2,4.876a5.7,5.7,0,0,1,4,6.169c-.233,2.282-1.918,3.2-3.838,3.778-6.784,2.028-14.292,2.36-17.623,10.743-.957,2.409-5.382,1.246-6.029-1.558-1.514-6.571-5.384-9.822-11.615-11.8-3.145-1-2.02-4.154-.259-6.49A13.733,13.733,0,0,1,408.392,298.255Z"/><path class="b" d="M375.415,324.472c-5.23,0-10.464.136-15.686-.069A3.739,3.739,0,0,1,356,320.761c-.213-2.869,1.076-5.8,3.655-6.12,11.814-1.472,23.176,1.38,34.417,4.65.325.094.476,1.008.591,1.564.339,1.626-.237,2.76-1.689,2.887-5.841.509-11.691.912-17.538,1.355Z"/><path class="b" d="M425.131,324.377c11.757-7.365,22.6-9.333,31.485-5.905.958.37,1.57,1.876,2.136,2.964.794,1.526.348,2.728-1.143,2.987C447.068,326.256,436.5,328.8,425.131,324.377Z"/><path class="b" d="M143.3,357.855c-5.074.485-8.283.931-11.506,1.067-5,.211-9.066-1.41-11.232-6.357-3.377-7.709-8.818-12.7-17.4-14.418-3.114-.623-3.384-5.874-.853-8.192,5.973-5.471,13.427-8.332,20.65-11.552,2.59-1.155,5.129-.34,7.253,1.595a53.938,53.938,0,0,0,5.952,5.229c6.186,4.146,8.164,9.748,7.243,17.018C142.834,346.781,143.3,351.449,143.3,357.855Z"/><path class="b" d="M154.208,355.3c.042-6.316,2.83-10.109,9.172-10.123,4.449-.011,9.242-.548,13.032,2.5a8.047,8.047,0,0,1,2.439,4.775c.344,2.3-1.825,3.537-3.6,3.73C168.223,356.943,161.134,357.7,154.208,355.3Z"/><path class="b" d="M91.042,356.672c.154.02-4.388-.533-8.878-1.368-.275-.051-.685-2.98-.107-3.462,6.932-5.782,20.684-7.024,27.544-2.615,1.752,1.126,2.242,2.917,2.056,5.043-.23,2.648-2.318,3.275-4.081,3.318C103.651,357.684,99.711,357.208,91.042,356.672Z"/><path class="b" d="M127.083,140.12a3.821,3.821,0,0,1-4.221-2.723c-.983-2.953.708-5.08,3.219-5.7,1.1-.273,3.42,1.424,4.036,2.757C131.386,137.205,129.8,139.152,127.083,140.12Z"/><path class="b" d="M426.782,112.006c.474,2.382-.539,3.878-2.813,3.916-.837.013-2.453-1.4-2.38-2a5.164,5.164,0,0,1,2.024-3.012C424.983,109.867,426.187,110.437,426.782,112.006Z"/><path class="a" d="M340.894,200.758q-1.605.729-3.214,1.452c-.45-1.176-1.379-2.414-1.238-3.515.21-1.635,1.556-1.905,3.059-1.148A2.336,2.336,0,0,1,340.894,200.758Z"/></svg>