<svg xmlns="http://www.w3.org/2000/svg" viewBox="0 0 543.348 543.348"><defs><style>.a{fill:#077ec6;}.b{fill:#fcfcfb;}</style></defs><path class="a" d="M312.073,399.52c7.283-1.727,14.347.843,21.53,1.144,4.641.194,9.3,1.64,13.878,1.336,23.983-1.6,47.91.2,71.726,2,25.748,1.944,51.785,2.853,76.723,11.076,11.149,3.676,11.655,3.629,11.753,14.953q.249,28.979-.026,57.961c-.1,8.894-1.047,9.114-9.736,12.688-8.243,3.391-16.987,3.246-25.476,4.577-18.4,2.884-36.9,5.01-55.613,4.982q-114.954-.174-229.91-.072a173.01,173.01,0,0,1-23.872-1.368c-35.6-4.945-71.051-10.632-105.892-19.569-6.353-1.629-14.217.553-18.914-4.681-5.314-5.923-2.021-14.056-2.423-21.195-.449-7.969.178-16-.161-23.975-.31-7.289,3.275-10.67,9.844-12.772a366.55,366.55,0,0,1,74.087-15.542c14.564-1.512,29.2-2.419,43.458-6.112a22.866,22.866,0,0,1,5.908-.858c30.653.366,60.958-6.483,91.691-4.4a27.6,27.6,0,0,0,5.988-.066c3-.459,6.819,1.072,8.443-3.186,1.354-3.552-2.214-8.38-7.4-10.134-8.453-2.857-17.193-1.793-25.788-1.651-9.925.163-19.773,1.989-29.8,1.058-9.55-.887-17.891,4.769-27.054,5.854-8.741,1.036-15.91-6.166-25.043-5.3-19.856,1.881-39.864.614-59.739,3.809-18.357,2.95-37.005,4.126-55.544,5.88-6.749.638-8.594-1.043-8.884-7.356-.214-4.654-.108-9.325-.108-13.988q-.007-156.9.008-313.795,0-7.989.281-15.977c.137-3.9,2.408-6.232,6.2-6.259q32.979-.239,65.959-.157c5.724.013,7.514,4.153,9.017,8.927,12.176,38.69,25.489,77.065,31.812,117.343.06.388.757.676,1.627,1.4,5.77-2.972,3.435-9.358,5.488-13.8.81-1.75,1.284-4.174,3.844-3.726,1.785.312,4.092,1.048,5,2.386,6.021,8.825,10.088,18.643,14.409,28.394,9.15,20.652,19.018,40.987,28.7,61.4,1.41,2.972,3.439,6.1,7.281,5.7,5.957-.631,10.983-9.628,8.422-14.94-10.96-22.737-22.07-45.4-33.073-68.118-2.9-5.984-5.714-12.012-8.352-18.113-.942-2.178,2.127-5.515,4.663-5.038,5.1.962,10.148,2.238,15.316,3.406,2.052-4.765-1.774-6.17-3.577-8.209-17.195-19.436-35.173-38.18-50.417-59.3C143.292,69.145,137.2,62.9,131.494,56.4c-3.52-4.018-7.307-7.894-8.895-13.115-.525-1.725-.056-4.107,2.565-4.388a93.255,93.255,0,0,1,9.92-.62q177.93-.048,355.861-.019a95.453,95.453,0,0,1,9.985.279c3.566.377,6.315,2.075,6.5,6.148.178,3.989.3,7.985.3,11.978q.026,120.921.01,241.842c0,3.331.087,6.669-.087,9.992-.4,7.571-2.1,9.365-9.979,8.316-27.784-3.7-55.635-5.3-83.714-3.171,20.394.714,40.389,4.628,60.581,6.983,6.587.768,13.188,1.515,19.722,2.627,13.3,2.263,14.56,3.906,13.351,16.124-.451,4.562-3.272,7.5-8.069,6.565-26.989-5.235-54.465-1.047-81.629-4.833-18.352-2.558-37.223-1.739-55.864-1.8-23.292-.07-46.587.482-69.879.863-2.028.033-3.728,1.218-3.616,3.605.1,2.025.838,3.956,2.969,4.592a30.235,30.235,0,0,0,7.7,1.644c35.274.852,70.415,4.971,105.761,4.234,6.618-.138,13.257.967,19.892,1.418,17.255,1.175,34.519,2.22,51.767,3.485,9.929.728,19.977.915,29.362,4.573,4.587,35.233,2.414,28.576-24.411,27.43-30.555-1.305-61.015-4.695-91.558-6.462-23.9-1.382-47.864-1.926-71.807-2.323-9.519-.158-10.25,1.5-6.384,10.394,1.072,2.464,2.565,4.549.533,7.1-6,.114-7.223-5.188-9.355-8.873-6.643-11.481-12.74-23.276-19.161-34.887-3.842-6.949-7.256-14.3-15.454-17.52a41.555,41.555,0,0,1,3.076-3.688c8.021-7.382,8.117-7.4,4.3-16.056-11.176-25.356-22.425-50.68-33.86-76.5-10.384,2.118-19.716,6.89-28.632,12.568-6.156,3.92-6.934,6.247-2.393,13,12.239,18.2,21.183,38.184,31.747,57.286a90.046,90.046,0,0,0,5.11,8.525c1.487,2.1,3.33,5.373,5.224,5.526,10.728.865,11.047,9.847,14.074,16.8,2.906,6.674,5.8,13.356,8.815,19.979,6.6,14.472,13.278,28.909,19.92,43.362,3.6,7.825,7.143,15.673,10.8,23.471,1.179,2.514,3.137,4.449,6.053,4.477,4.62.045,9.329.217,13.832-.6a4.336,4.336,0,0,0,3.192-6.159c-3.172-6.546-7.017-12.767-10.178-19.317C316.149,414.336,310,408.3,312.073,399.52ZM285.433,423.3c-4.049-3.562-7.418-2.465-10.555-2.732-20.07-1.709-39.826,2.927-59.785,2.988-17.409.054-34.5,2.893-51.555,5.55-13.079,2.038-25.821,6.273-38.691,9.612a38.947,38.947,0,0,0-17.384,9.405c-2.224,2.117-1.717,4.7-.121,7.167,2.33,3.605,6.133,5.337,9.779,6.595,16.337,5.64,32.572,11.733,49.868,14.009,31.716,4.172,63.537,6.38,95.537,7.462,38,1.286,75.951,0,113.922.264a79.226,79.226,0,0,0,13.934-1.055q32.45-5.589,64.828-11.585A147.582,147.582,0,0,0,493.1,458.654c6.172-3.012,6.254-7.885.184-11.807-3.333-2.154-6.808-4.479-10.555-5.534-12.786-3.6-25.64-7.044-38.616-9.867-26.032-5.663-52.571-7.918-79.018-10.54-9.854-.977-19.916-1.4-29.813.594-1.5.3-2.053,1.378-1.6,3.018.142.509.405,1.315.741,1.387,2.586.56,5.218,1.434,7.809,1.356,19.393-.588,38.5,2.524,57.691,4.365,13.311,1.276,26.35,3.929,38.409,10,5.637,2.839,6.313,8.537,2.091,13.226-4.68,5.2-10.728,7.646-17.335,9.186-18.821,4.388-37.628,8.49-57.192,7.84a188.522,188.522,0,0,0-29.942.98c-34.645,4.413-69.173,1.771-103.6-1.627-13.8-1.362-27.328-5.678-40.931-8.856a25.217,25.217,0,0,1-7.217-3.33c-6.4-3.948-6.874-12.168-.985-16.753,4.811-3.746,10.438-5.6,16.309-7.15,22.069-5.813,44.662-6.981,67.279-8.112C272.611,426.744,278.714,428.069,285.433,423.3Zm69-112.724c-2.378-5.825-3.74-9.537-5.382-13.121-8.882-19.382-20.047-37.556-29.911-56.4-14.5-27.7-29.284-55.222-45.062-82.215a145.639,145.639,0,0,1-7-14.309c-1.087-2.439,1.459-5.357,4.036-5.316,5.588.089,10.185,2.787,14.907,5.25,2.682,1.4,5.334,3.877,8.455.751-13.3-19.3-67.956-83.135-80.041-92.944,4.925,19.316,9.175,37.2,14.088,54.907,4.808,17.324,4.659,35.961,13.479,54.242,1.585-4.446,2.186-7.056,3.4-9.344,2.964-5.6,7.4-6.233,10.555-1.286,4.649,7.282,9.643,14.532,12.962,22.437,8.521,20.292,19.289,39.4,29.424,58.855,4.6,8.84,8.866,17.862,13.1,26.888,1.651,3.52,3.89,7.467-.322,10.735-3.092,2.4-6.306,1-9.105-.918-3.266-2.239-6.084-5.247-10.5-5.134a84.118,84.118,0,0,1-25.575-3.413c-3.439-.99-5.988,2.232-5.227,6.075.387,1.954,1.177,3.833,1.514,5.792,1.612,9.372.809,12.108,13.92,11.949,21.857-.265,41.831,6.46,60.283,18.02C341.336,305.147,345.5,309.732,354.432,310.572ZM92.624,235.713c2.665-7.463,4.242-12.488,6.268-17.326,1.217-2.906,6.417-3.532,8.544-1.116a51.242,51.242,0,0,1,5.931,7.946c15.078,25.9,27.219,53.28,40.115,80.274,2.559,5.356,3.634,11.4,5.763,16.987,6.863,18,13.875,35.953,20.9,53.9,1,2.555,2.683,4.567,6.286,4.573A25.523,25.523,0,0,0,188.29,376c3.381-20.643,10.362-39.815,22.638-56.934a118.145,118.145,0,0,0,8.492-13.477c2.553-4.823-.759-12.716-6.691-17.252-2.841-2.173-7.014.047-10.671,6.171-2.373,3.975-4.19,8.278-6.356,12.382-3.1,5.87-6.079,11.819-9.515,17.489a6.093,6.093,0,0,1-10.113.188,58.774,58.774,0,0,1-5.139-8.448c-10.744-21.369-21.613-42.68-32.009-64.219-6.351-13.155-12.081-26.619-17.754-40.086-1.336-3.171,1.257-4.618,4.273-4.842,3.206-.237,6.062,3.035,10.572.3-15.848-20.438-32.235-40.336-45.708-62.356-4.82-7.878-11.456-14.658-17.4-21.822a21.258,21.258,0,0,0-4.656-3.575,5.325,5.325,0,0,0-1.942-.395C67.055,133.444,85.359,215.946,92.624,235.713Zm194.679,205c-7.934-1.533-14.385.126-20.855,1.527-7.11,1.539-14.227,3.047-21.307,4.712-1.819.428-4,1.549-3.154,3.733a7.558,7.558,0,0,0,4.088,3.9,99.555,99.555,0,0,0,27.277,5.012c26.485,1.586,52.952.068,79.424-.406,9.926-.178,19.925.249,29.593-2.727,3.5-1.078,9.023-.219,8.727-5.709-.184-3.425-4.549-4.5-7.683-5.337-5.109-1.37-10.335-2.312-15.526-3.367-2.061-.419-4.519.235-4.178,2.4,1.118,7.1-4.026,7.262-8.431,8.165-22.276,4.568-44.8,3.914-67.305,2.757-8.923-.458-13.265-3.318-12.414-6.8C276.966,442.811,283.356,444.7,287.3,440.713Zm-41.082-94.567c-14.857-4.411-25.658-3.608-36.468-1.885-2.613.416.115-.705-.74,1.8-.235.688,1.238,2.83,1.733,2.768C221.1,347.519,231.79,349.613,246.221,346.146Z"/><path class="b" d="M285.433,423.3c-6.719,4.773-12.822,3.448-18.628,3.738-22.617,1.131-45.21,2.3-67.279,8.112-5.871,1.546-11.5,3.4-16.309,7.15-5.889,4.585-5.418,12.805.985,16.753a25.217,25.217,0,0,0,7.217,3.33c13.6,3.178,27.127,7.494,40.931,8.856,34.43,3.4,68.958,6.04,103.6,1.627a188.522,188.522,0,0,1,29.942-.98c19.564.65,38.371-3.452,57.192-7.84,6.607-1.54,12.655-3.987,17.335-9.186,4.222-4.689,3.546-10.387-2.091-13.226-12.059-6.075-25.1-8.728-38.409-10-19.2-1.841-38.3-4.953-57.691-4.365-2.591.078-5.223-.8-7.809-1.356-.336-.072-.6-.878-.741-1.387-.454-1.64.1-2.716,1.6-3.018,9.9-1.992,19.959-1.571,29.813-.594,26.447,2.622,52.986,4.877,79.018,10.54,12.976,2.823,25.83,6.267,38.616,9.867,3.747,1.055,7.222,3.38,10.555,5.534,6.07,3.922,5.988,8.8-.184,11.807a147.582,147.582,0,0,1-37.888,12.322Q422.839,477,390.382,482.561a79.226,79.226,0,0,1-13.934,1.055c-37.971-.262-75.926,1.022-113.922-.264-32-1.082-63.821-3.29-95.537-7.462-17.3-2.276-33.531-8.369-49.868-14.009-3.646-1.258-7.449-2.99-9.779-6.595-1.6-2.469-2.1-5.05.121-7.167a38.947,38.947,0,0,1,17.384-9.405c12.87-3.339,25.612-7.574,38.691-9.612,17.05-2.657,34.146-5.5,51.555-5.55,19.959-.061,39.715-4.7,59.785-2.988C278.015,420.831,281.384,419.734,285.433,423.3Z"/><path class="b" d="M354.432,310.572c-8.928-.84-13.1-5.425-18.008-8.5-18.452-11.56-38.426-18.285-60.283-18.02-13.111.159-12.308-2.577-13.92-11.949-.337-1.959-1.127-3.838-1.514-5.792-.761-3.843,1.788-7.065,5.227-6.075a84.118,84.118,0,0,0,25.575,3.413c4.42-.113,7.238,2.895,10.5,5.134,2.8,1.918,6.013,3.316,9.105.918,4.212-3.268,1.973-7.215.322-10.735-4.235-9.026-8.5-18.048-13.1-26.888-10.135-19.455-20.9-38.563-29.424-58.855-3.319-7.905-8.313-15.155-12.962-22.437-3.159-4.947-7.591-4.312-10.555,1.286-1.211,2.288-1.812,4.9-3.4,9.344-8.82-18.281-8.671-36.918-13.479-54.242-4.913-17.7-9.163-35.591-14.088-54.907,12.085,9.809,66.744,73.644,80.041,92.944-3.121,3.126-5.773.649-8.455-.751-4.722-2.463-9.319-5.161-14.907-5.25-2.577-.041-5.123,2.877-4.036,5.316a145.639,145.639,0,0,0,7,14.309c15.778,26.993,30.562,54.511,45.062,82.215,9.864,18.848,21.029,37.022,29.911,56.4C350.692,301.035,352.054,304.747,354.432,310.572Z"/><path class="b" d="M92.624,235.713c-7.265-19.767-25.569-102.269-26.317-116.591a5.325,5.325,0,0,1,1.942.395,21.258,21.258,0,0,1,4.656,3.575c5.948,7.164,12.584,13.944,17.4,21.822,13.473,22.02,29.86,41.918,45.708,62.356-4.51,2.736-7.366-.536-10.572-.3-3.016.224-5.609,1.671-4.273,4.842,5.673,13.467,11.4,26.931,17.754,40.086,10.4,21.539,21.265,42.85,32.009,64.219a58.774,58.774,0,0,0,5.139,8.448,6.093,6.093,0,0,0,10.113-.188c3.436-5.67,6.416-11.619,9.515-17.489,2.166-4.1,3.983-8.407,6.356-12.382,3.657-6.124,7.83-8.344,10.671-6.171,5.932,4.536,9.244,12.429,6.691,17.252a118.145,118.145,0,0,1-8.492,13.477C198.652,336.184,191.671,355.356,188.29,376a25.523,25.523,0,0,1-1.863,4.949c-3.6-.006-5.286-2.018-6.286-4.573-7.021-17.944-14.033-35.892-20.9-53.9-2.129-5.586-3.2-11.631-5.763-16.987-12.9-26.994-25.037-54.374-40.115-80.274a51.242,51.242,0,0,0-5.931-7.946c-2.127-2.416-7.327-1.79-8.544,1.116C96.866,223.225,95.289,228.25,92.624,235.713Z"/><path class="b" d="M312.073,399.52c-2.07,8.78,4.076,14.816,7.413,21.731,3.161,6.55,7.006,12.771,10.178,19.317a4.336,4.336,0,0,1-3.192,6.159c-4.5.812-9.212.64-13.832.6-2.916-.028-4.874-1.963-6.053-4.477-3.655-7.8-7.2-15.646-10.8-23.471-6.642-14.453-13.321-28.89-19.92-43.362-3.02-6.623-5.909-13.305-8.815-19.979-3.027-6.948-3.346-15.93-14.074-16.8-1.894-.153-3.737-3.425-5.224-5.526a90.046,90.046,0,0,1-5.11-8.525c-10.564-19.1-19.508-39.083-31.747-57.286-4.541-6.754-3.763-9.081,2.393-13,8.916-5.678,18.248-10.45,28.632-12.568,11.435,25.822,22.684,51.146,33.86,76.5,3.814,8.651,3.718,8.674-4.3,16.056a41.555,41.555,0,0,0-3.076,3.688c8.2,3.216,11.612,10.571,15.454,17.52,6.421,11.611,12.518,23.406,19.161,34.887,2.132,3.685,3.355,8.987,9.355,8.873Z"/><path class="b" d="M287.3,440.713c-3.947,3.982-10.337,2.1-11.744,7.858-.851,3.484,3.491,6.344,12.414,6.8,22.5,1.157,45.029,1.811,67.305-2.757,4.4-.9,9.549-1.061,8.431-8.165-.341-2.164,2.117-2.818,4.178-2.4,5.191,1.055,10.417,2,15.526,3.367,3.134.84,7.5,1.912,7.683,5.337.3,5.49-5.226,4.631-8.727,5.709-9.668,2.976-19.667,2.549-29.593,2.727-26.472.474-52.939,1.992-79.424.406a99.555,99.555,0,0,1-27.277-5.012,7.558,7.558,0,0,1-4.088-3.9c-.846-2.184,1.335-3.305,3.154-3.733,7.08-1.665,14.2-3.173,21.307-4.712C272.918,440.839,279.369,439.18,287.3,440.713Z"/><path class="b" d="M246.221,346.146c-14.431,3.467-25.119,1.373-35.475,2.679-.5.062-1.968-2.08-1.733-2.768.855-2.5-1.873-1.38.74-1.8C220.563,342.538,231.364,341.735,246.221,346.146Z"/></svg>