<svg xmlns="http://www.w3.org/2000/svg" viewBox="0 0 543.348 543.348"><defs><style>.a{fill:#1f1e15;}.b{fill:#fcfcfb;}</style></defs><path class="a" d="M507.145,272.125q0,106.908-.008,213.815c0,5.325-.03,10.654-.232,15.973-.151,3.986-2.6,5.74-6.431,5.8-2.665.041-5.329.1-7.993.1q-220.866.009-441.733-.019c-15.414,0-15.592-.163-15.6-15.137q-.069-220.807-.024-441.616c0-2.664.085-5.328.054-7.992-.054-4.726,2.124-7.508,6.933-7.788,3.321-.2,6.659-.141,9.99-.141q219.867-.007,439.735-.02c15.773,0,15.323-.481,15.317,15.218Q507.116,161.222,507.145,272.125ZM274.724,364.8c5.277-.356,10.583-.49,15.814-1.188a3.851,3.851,0,0,0,3.333-4.23c-.4-3.232-.533-6.708-1.865-9.577-5.853-12.613-11.866-25.165-18.329-37.473-2.1-4-5.741-7.179-8.677-10.734-1.581-6.751-7.977-10.538-10.4-16.694-3.356-8.521-10-14.181-17.058-19.064-15.775-10.921-30.523-23.487-49.023-30.168-8.7-3.141-16.829-7.837-25.286-11.677-3.129-1.421-6.69-3.126-7.326-6.272-1.607-7.949-5.816-14.677-8.813-21.966-1.188-2.889.883-5.375,3.152-6.553a35.8,35.8,0,0,1,9.46-2.981q17.566-3.5,35.2-6.645c15.532-2.763,31.019-5.685,45.365-12.614,3.532-1.706,7.926-3.255,9.927-6.222,9.257-13.727,15.624-28.425,11.831-45.3-4.441-1.142-6.087,1.272-7.921,3.034-6.743,6.477-13.845,12.66-22.224,16.736-31.627,15.382-61.989,33.561-95.8,44.17-7.536,2.366-12.58,7.116-16.22,13.757-2.44,4.451-2.752,8.8.921,12.875,15.18,16.858,22.725,37.009,25.721,59.19a105.273,105.273,0,0,0,3.355,15.526c.448,1.525,2.712,2.518,4.145,3.754l-.3-.352c.685,8.311,5.5,15.868,3.132,24.646,6.143-.605,11.374-5.446,15.476,1.6.791,1.359,3.141,1.448,5.1-.154a30.261,30.261,0,0,1,8.348-4.974c1.49-.559,3.787.322,5.451,1.115,2.162,1.03,2.046,3.481,1.508,5.245-1.158,3.789-2.966,7.376-4.2,11.146-.3.916.265,2.856.985,3.215,1.558.777,4.32,1.768,5.118,1.046,12.579-11.382,27.738-20.783,31.389-39.312.6-3.055,3.072-4.266,5.786-4.4a18.509,18.509,0,0,1,11.338,2.969c2.476,1.634,3.883,4,2.552,6.692-2.324,4.7.8,13.577-9.62,12.484-2.068-.217-4.815,2.083-6.607,3.868-7.03,7-13.876,14.2-20.621,21.476-1.729,1.866-4.48,4.916-3.94,6.384,2.425,6.588-1.259,15.838,9.264,19.27,4.6,1.5,8.829,6.413,5.2,12.867-9.515-.178-9.493-9.444-13.98-15.772-7.777,7.011-15.522,13.095-22.181,20.2-11.608,12.376-14.551,13.681,3.309,24.141,14.962,8.762,28.111,20,37.5,34.957.973,1.55,1.189,3.609,1.578,5.468.111.529-.368,1.2-.636,1.786-.679,1.473-1.742,1.634-3.339,1.122-3.342-1.072-5.493-3.452-7.683-6.011-18.861-22.032-44.4-33.168-70.886-42.225-13.5-4.616-22.026-.609-28.645,10.535-3.508,5.907-4.262,14.7-14.3,13.93-4.2-6.909.532-13.091,2.418-18.967,6.861-21.364.778-39.058-13.638-54.793-7.2-7.863-7.453-7.755-1.153-15.73,3.544-4.486,7.746-8.624,6.128-15.484-16.671,5.428-20.3,17.621-18.508,31.856a411.924,411.924,0,0,0,16,73.785c2.549,7.99,7.267,14.405,14.882,17.858,18.691,8.474,36.409,18.993,56.124,25.386,8.8,2.854,16.5,3.077,25.02-.334,11.081-4.437,22.439-8.247,34.493-9.38a11.106,11.106,0,0,0,5.412-2.124c5.451-4.15,9.177-21.328,5.808-27.72a78.662,78.662,0,0,0-14.48-18.87c-6.36-6.345-6.375-9.484-2.171-17.689,2.109-4.116,4.4-8.138,6.612-12.2a21.31,21.31,0,0,0,3.664-1.56c2.567-1.694,6.936-3.528,2.989-7.091-4.139-3.735-3.3-8.341-4.186-12.722-.728-3.589-2.7-5.929-6.477-6.476-2.508-.362-5.76-.307-5.232-3.969.232-1.608,2.09-3.348,3.652-4.308a44.2,44.2,0,0,1,7.338-3.071c8.153-3.15,12.376-.172,12.373,8.968a68.915,68.915,0,0,1-.943,11.923c-.756,4.274-2.152,8.435-3.523,13.6,8.593,1.529,16.749,1.906,24.072,4.571,8.029,2.923,15.219,8.095,22.908,12.027,6.4,3.274,10.592,8.077,11.345,15.314,1.262,12.122,7.532,19.094,19.863,20.587,2.545.308,4.907,1.97,7.4,2.876,6.914,2.509,11.969.623,17.861-4.347,32.1-27.079,53.9-62.145,76.587-96.57.71-1.078.891-2.493,1.438-3.7,7.158-15.724,13.881-31.671,21.678-47.072,4.884-9.645,8.533-19.49,10.015-30.088a811.768,811.768,0,0,1,15.334-80.246c5.343-21.886,7.01-44.644,15.689-65.773,1.454-3.54-.223-6.31-3.493-8.254-7.973-4.74-16.241-4.664-25.054-2.635-15.537,3.576-31.08,7.674-46.859,9.517C379.709,97.09,357.7,97.692,335.8,99.227q-28.852,2.02-57.69,4.284c-4.627.359-10.33.269-11.87,5.44-1.021,3.426,4.949,3.663,6.417,6.511a17.8,17.8,0,0,1,2.316,7.405c.075,3.952-.9,7.912-1.161,11.886-.333,5.133,2.707,7.4,7.451,5.531q22.243-8.764,44.414-17.713c14.986-6.038,30.806-8.211,46.671-10.163a10.442,10.442,0,0,1,3.867.62,1.758,1.758,0,0,1,1.088,1.233c.014,1.234.182,3.163-.485,3.58a37.416,37.416,0,0,1-7,3.1c-24.951,9.158-50.094,17.825-74.812,27.572-17.212,6.788-28.166,19.189-29.893,38.67-.453,5.112,2.738,8.823,2.835,13.417a4.121,4.121,0,0,1-1.8,3.016,4.467,4.467,0,0,1-3.538.19c-7-2.962-10.4-9.984-16.048-14.564-3.83-3.107-7.214-4.727-12.466-4.2q-33.732,3.4-66.924,10.118c-4.8.965-5.9,4.89-2.759,8.805,6.407,7.992,15.331,12.564,24.09,17.2,12.343,6.534,24.882,12.623,34.97,22.672,9.543,9.507,21.543,9.145,33.554,7.2,3.108-.5,5.954-2.877,8.807-4.582,1.47-.879,2.516-.876,3.348.7.605,1.142,1.572,2.4,1.483,3.533a11.132,11.132,0,0,1-1.645,5.652c-7.011,9.256-5.774,18.054.139,27.4,3.879,6.135,6.459,13.081,9.785,19.58,1.179,2.3,2.755,4.474,8.171,4.471-9.2-16.855-.528-35.81-9.4-52.474a5.556,5.556,0,0,1,1.989-7.1c3.819-2.566,8.306-6.971,11.94-6.47,13.109,1.81,24.737-4.457,37.19-5.153,19.552-1.092,33.64-10.675,44.766-26.153a94.74,94.74,0,0,0,12.333-22.677c3.673-9.97,7.981-19.717,11.361-29.78,1.782-5.308,4.861-9.375,8.58-13.22,11.578-11.969,23.064-24.031,34.794-35.849A124.349,124.349,0,0,1,452.88,98.73c1.406-1.092,3.522-2.27,4.526.5a4.388,4.388,0,0,1-.5,3.69,452.517,452.517,0,0,0-36.665,49.66c-11.687,18.046-20.219,37.308-27.282,57.441-5.286,15.068-5.291,29.858.357,44.812,4.927,13.046,8.594,26.575,15.8,38.716,1.34,2.257,1.142,5.622-1.653,6.9-2.562,1.176-5.464-.2-6.993-2.477a108.95,108.95,0,0,1-8.05-13.712c-4.854-10.2-9.4-20.553-13.921-30.911-4.226-9.685-7.812-12.237-18.359-10.183a224.552,224.552,0,0,0-61.785,21.366c-7.1,3.727-9.4,8.979-7.884,16.532,2.353,11.7,4.473,23.51,7.792,34.955,4.258,14.684,10.221,28.756,19.294,41.29,10.485,14.484,18.02,16.911,35.723,11.218,3.253-1.046,6.807-2.286,9.179.639,1.873,2.312-.5,4.964-1.758,7.245-1.929,3.494-3.916,6.956-5.884,10.428-3.573,6.3-6.448,7.5-12.679,3.851-5.69-3.334-10.781-7.677-16.232-11.437-16.093-11.1-16.255-10.982-18.1,6.961-.271,2.647-.519,5.3-.854,7.937-.332,2.612-.782,5.7-3.895,5.909s-4.69-2.465-4.591-5.33c.414-11.948-6.536-18.171-16.668-22.08-1.855-.716-4.173-1.053-5.384-2.38C275.251,369,275.241,366.667,274.724,364.8Zm-85.282-25.1c0-1.827.114-3.8-.02-5.753-.513-7.474-1.244-8.359-7.79-4.395-6.377,3.863-11.256,2.952-16.009-1.7-3.728-3.647-7.969-7.043-8.606-12.907-.338-3.1-2.246-4-5.449-3.379a43.1,43.1,0,0,1-34.017-7.238,10.991,10.991,0,0,0-1.663-1.091c-5.544-2.5-8.776-.335-9.369,6.162-.238,2.609.021,5.559-1.12,7.741-6.789,12.995-2.078,24.548,4.473,35.607,3.344,5.645,7.939,10.566,12.1,15.7,7.386,9.113,17.252,12.145,28.461,10.421,14.263-2.194,26.416-8.379,34.78-20.674C188.989,352.646,192.8,347.063,189.442,339.694Z"/><path class="b" d="M219.367,369.319c3.626-6.453-.6-11.366-5.2-12.866-10.523-3.432-6.839-12.682-9.264-19.27-.54-1.468,2.211-4.518,3.94-6.384,6.745-7.28,13.591-14.473,20.621-21.476,1.792-1.785,4.539-4.085,6.607-3.868,10.417,1.093,7.3-7.788,9.62-12.484,1.331-2.688-.076-5.058-2.552-6.692A18.509,18.509,0,0,0,231.8,283.31c-2.714.133-5.185,1.344-5.786,4.4-3.651,18.529-18.81,27.93-31.389,39.312-.8.722-3.56-.269-5.118-1.046-.72-.359-1.286-2.3-.985-3.215,1.237-3.77,3.045-7.357,4.2-11.146.538-1.764.654-4.215-1.508-5.245-1.664-.793-3.961-1.674-5.451-1.115a30.261,30.261,0,0,0-8.348,4.974c-1.955,1.6-4.305,1.513-5.1.154-4.1-7.047-9.333-2.206-15.476-1.6,2.372-8.778-2.447-16.335-3.138-24.656.875-3.239,3.092-4.12,5.769-2.543,7.4,4.36,14.571,9.123,22.014,13.411,2.708,1.562,5.546,3.731,9.177,2.252,2.954-1.2,6.8-1.443,7.208-5.59.392-4.024-2.478-5.91-5.851-6.694-3.848-.894-7.844-1.136-11.714-1.955-7.687-1.626-13-4.963-13.824-14.161-.634-7.113-3.549-14.044-5.657-20.992-.766-2.525-2.707-5.188-5.289-4.84-2.772.373-4.471,3.791-3.581,6.2,3.949,10.677-.919,22.689,5.118,33.015a32.411,32.411,0,0,1-3.068,2.26c-1.433-1.236-3.7-2.229-4.145-3.754a105.273,105.273,0,0,1-3.355-15.526c-3-22.181-10.541-42.332-25.721-59.19-3.673-4.079-3.361-8.424-.921-12.875,3.64-6.641,8.684-11.391,16.22-13.757,33.809-10.609,64.171-28.788,95.8-44.17,8.379-4.076,15.481-10.259,22.224-16.736,1.834-1.762,3.48-4.176,7.921-3.034,3.793,16.87-2.574,31.568-11.831,45.3-2,2.967-6.4,4.516-9.927,6.222-14.346,6.929-29.833,9.851-45.365,12.614q-17.634,3.14-35.2,6.645a35.8,35.8,0,0,0-9.46,2.981c-2.269,1.178-4.34,3.664-3.152,6.553,3,7.289,7.206,14.017,8.813,21.966.636,3.146,4.2,4.851,7.326,6.272,8.457,3.84,16.587,8.536,25.286,11.677,18.5,6.681,33.248,19.247,49.023,30.168,7.056,4.883,13.7,10.543,17.058,19.064,2.424,6.156,8.82,9.943,10.4,16.694l-4.827,4.225c-4.414,1.876-12.152,1.572-9.589,9.2,4.972,14.806,8.8,29.838,12.336,45.017.91,3.909,4.927,3.2,7.953,1.049l3.85,3.709c.518,1.869.528,4.2,1.694,5.477,1.211,1.327,3.529,1.664,5.384,2.38,10.132,3.909,17.082,10.132,16.668,22.08-.1,2.865,1.485,5.536,4.591,5.33s3.563-3.3,3.895-5.909c.335-2.64.583-5.29.854-7.937,1.842-17.943,2-18.059,18.1-6.961,5.451,3.76,10.542,8.1,16.232,11.437,6.231,3.651,9.106,2.452,12.679-3.851,1.968-3.472,3.955-6.934,5.884-10.428,1.259-2.281,3.631-4.933,1.758-7.245-2.372-2.925-5.926-1.685-9.179-.639-17.7,5.693-25.238,3.266-35.723-11.218-9.073-12.534-15.036-26.606-19.294-41.29-3.319-11.445-5.439-23.25-7.792-34.955-1.519-7.553.783-12.805,7.884-16.532a224.552,224.552,0,0,1,61.785-21.366c10.547-2.054,14.133.5,18.359,10.183,4.519,10.358,9.067,20.708,13.921,30.911a108.95,108.95,0,0,0,8.05,13.712c1.529,2.28,4.431,3.653,6.993,2.477,2.795-1.282,2.993-4.647,1.653-6.9-7.209-12.141-10.876-25.67-15.8-38.716-5.648-14.954-5.643-29.744-.357-44.812,7.063-20.133,15.595-39.395,27.282-57.441a452.517,452.517,0,0,1,36.665-49.66,4.388,4.388,0,0,0,.5-3.69c-1-2.771-3.12-1.593-4.526-.5a124.349,124.349,0,0,0-12.21,10.189c-11.73,11.818-23.216,23.88-34.794,35.849-3.719,3.845-6.8,7.912-8.58,13.22-3.38,10.063-7.688,19.81-11.361,29.78A94.74,94.74,0,0,1,373.6,210.445c-11.126,15.478-25.214,25.061-44.766,26.153-12.453.7-24.081,6.963-37.19,5.153-3.634-.5-8.121,3.9-11.94,6.47a5.556,5.556,0,0,0-1.989,7.1c8.871,16.664.2,35.619,9.4,52.474-5.416,0-6.992-2.168-8.171-4.471-3.326-6.5-5.906-13.445-9.785-19.58-5.913-9.351-7.15-18.149-.139-27.4a11.132,11.132,0,0,0,1.645-5.652c.089-1.135-.878-2.391-1.483-3.533-.832-1.572-1.878-1.575-3.348-.7-2.853,1.705-5.7,4.08-8.807,4.582-12.011,1.944-24.011,2.306-33.554-7.2-10.088-10.049-22.627-16.138-34.97-22.672-8.759-4.637-17.683-9.209-24.09-17.2-3.139-3.915-2.036-7.84,2.759-8.805q33.212-6.684,66.924-10.118c5.252-.53,8.636,1.09,12.466,4.2,5.645,4.58,9.046,11.6,16.048,14.564a4.467,4.467,0,0,0,3.538-.19,4.121,4.121,0,0,0,1.8-3.016c-.1-4.594-3.288-8.305-2.835-13.417,1.727-19.481,12.681-31.882,29.893-38.67,24.718-9.747,49.861-18.414,74.812-27.572a37.416,37.416,0,0,0,7-3.1c.667-.417.5-2.346.485-3.58a1.758,1.758,0,0,0-1.088-1.233,10.442,10.442,0,0,0-3.867-.62c-15.865,1.952-31.685,4.125-46.671,10.163Q303.5,131.5,281.262,140.284c-4.744,1.87-7.784-.4-7.451-5.531.258-3.974,1.236-7.934,1.161-11.886a17.8,17.8,0,0,0-2.316-7.405c-1.468-2.848-7.438-3.085-6.417-6.511,1.54-5.171,7.243-5.081,11.87-5.44q28.838-2.23,57.69-4.284c21.9-1.535,43.91-2.137,65.691-4.681,15.779-1.843,31.322-5.941,46.859-9.517,8.813-2.029,17.081-2.1,25.054,2.635,3.27,1.944,4.947,4.714,3.493,8.254-8.679,21.129-10.346,43.887-15.689,65.773a811.768,811.768,0,0,0-15.334,80.246c-1.482,10.6-5.131,20.443-10.015,30.088-7.8,15.4-14.52,31.348-21.678,47.072-.547,1.2-.728,2.618-1.438,3.7-22.69,34.425-44.484,69.491-76.587,96.57-5.892,4.97-10.947,6.856-17.861,4.347-2.5-.906-4.857-2.568-7.4-2.876-12.331-1.493-18.6-8.465-19.863-20.587-.753-7.237-4.94-12.04-11.345-15.314-7.689-3.932-14.879-9.1-22.908-12.027-7.323-2.665-15.479-3.042-24.072-4.571,1.371-5.168,2.767-9.329,3.523-13.6a68.915,68.915,0,0,0,.943-11.923c0-9.14-4.22-12.118-12.373-8.968a44.2,44.2,0,0,0-7.338,3.071c-1.562.96-3.42,2.7-3.652,4.308-.528,3.662,2.724,3.607,5.232,3.969,3.781.547,5.749,2.887,6.477,6.476.888,4.381.047,8.987,4.186,12.722,3.947,3.563-.422,5.4-2.989,7.091a21.31,21.31,0,0,1-3.664,1.56Q221.207,371.179,219.367,369.319Zm-5.152-92.664a4.012,4.012,0,0,0-3.9,3.4c-.526,2.177,2.471,4.579,5.031,3.768,1.77-.563,3.528-1.7,2.788-4.1C217.564,277.863,216.6,276.269,214.215,276.655Z"/><path class="b" d="M223.049,373.038c-2.21,4.065-4.5,8.087-6.612,12.2-4.2,8.205-4.189,11.344,2.171,17.689a78.662,78.662,0,0,1,14.48,18.87c3.369,6.392-.357,23.57-5.808,27.72a11.106,11.106,0,0,1-5.412,2.124c-12.054,1.133-23.412,4.943-34.493,9.38-8.518,3.411-16.219,3.188-25.02.334-19.715-6.393-37.433-16.912-56.124-25.386-7.615-3.453-12.333-9.868-14.882-17.858a411.924,411.924,0,0,1-16-73.785c-1.8-14.235,1.837-26.428,18.508-31.856,1.618,6.86-2.584,11-6.128,15.484-6.3,7.975-6.051,7.867,1.153,15.73,14.416,15.735,20.5,33.429,13.638,54.793-1.886,5.876-6.621,12.058-2.418,18.967,10.039.772,10.793-8.023,14.3-13.93,6.619-11.144,15.145-15.151,28.645-10.535,26.486,9.057,52.025,20.193,70.886,42.225,2.19,2.559,4.341,4.939,7.683,6.011,1.6.512,2.66.351,3.339-1.122.268-.582.747-1.257.636-1.786-.389-1.859-.605-3.918-1.578-5.468-9.387-14.959-22.536-26.195-37.5-34.957-17.86-10.46-14.917-11.765-3.309-24.141,6.659-7.1,14.4-13.185,22.181-20.2,4.487,6.328,4.465,15.594,13.979,15.772Q221.207,371.179,223.049,373.038Z"/><path class="b" d="M189.442,339.694c3.362,7.369-.453,12.952-4.227,18.5-8.364,12.295-20.517,18.48-34.78,20.674-11.209,1.724-21.075-1.308-28.461-10.421-4.163-5.138-8.758-10.059-12.1-15.7-6.551-11.059-11.262-22.612-4.473-35.607,1.141-2.182.882-5.132,1.12-7.741.593-6.5,3.825-8.662,9.369-6.162a10.991,10.991,0,0,1,1.663,1.091,43.1,43.1,0,0,0,34.017,7.238c3.2-.619,5.111.275,5.449,3.379.637,5.864,4.878,9.26,8.606,12.907,4.753,4.65,9.632,5.561,16.009,1.7,6.546-3.964,7.277-3.079,7.79,4.395C189.556,335.9,189.442,337.867,189.442,339.694Z"/><path class="b" d="M265,301.6c2.936,3.555,6.58,6.738,8.677,10.734,6.463,12.308,12.476,24.86,18.329,37.473,1.332,2.869,1.463,6.345,1.865,9.577a3.851,3.851,0,0,1-3.333,4.23c-5.231.7-10.537.832-15.815,1.188l-3.849-3.71c2.855-19.665-2.492-37.743-10.7-55.267Z"/><path class="a" d="M154.008,284.487a32.411,32.411,0,0,0,3.068-2.26c-6.037-10.326-1.169-22.338-5.118-33.015-.89-2.408.809-5.826,3.581-6.2,2.582-.348,4.523,2.315,5.289,4.84,2.108,6.948,5.023,13.879,5.657,20.992.819,9.2,6.137,12.535,13.824,14.161,3.87.819,7.866,1.061,11.714,1.955,3.373.784,6.243,2.67,5.851,6.694-.405,4.147-4.254,4.386-7.208,5.59-3.631,1.479-6.469-.69-9.177-2.252-7.443-4.288-14.61-9.051-22.014-13.411-2.677-1.577-4.894-.7-5.769,2.543C153.712,284.135,154.008,284.487,154.008,284.487Z"/><path class="a" d="M260.173,305.821c8.209,17.524,13.556,35.6,10.7,55.267-3.027,2.151-7.044,2.861-7.954-1.048-3.532-15.179-7.364-30.211-12.336-45.017C248.021,307.393,255.759,307.7,260.173,305.821Z"/><path class="a" d="M214.215,276.655c2.385-.386,3.349,1.208,3.922,3.072.74,2.4-1.018,3.536-2.788,4.1-2.56.811-5.557-1.591-5.031-3.768A4.012,4.012,0,0,1,214.215,276.655Z"/></svg>