<svg xmlns="http://www.w3.org/2000/svg" viewBox="0 0 543.348 543.348"><defs><style>.a{fill:#077ec6;}.b{fill:#fcfcfb;}</style></defs><path class="a" d="M144.572,91.045c4.325-1.755,8.639-3.571,13.456-3.284,1.981.118,3.955.372,5.937.481,5.942.326,5.821,9.571,12.191,8.625,5.19-.772,10.047-3.362,15.58-1.227,3.36,1.3,5.934,3.052,6.778,6.574.8,3.339-2.288,8.035-5.889,9.438-7.85,3.059-11.413,1.79-21.039-7.923-8.617,10.355-17.964,19.869-32.493,13.415-5.5,4.162-2.5,9.327-3.742,13.548a25.58,25.58,0,0,1-5.52,10.464c-3.547,3.878-7.942,3.954-11.887-.343a94.532,94.532,0,0,1-5.806-7.768c-5.483,18.216-4.591,40.738,1.974,54.588a43.962,43.962,0,0,0,15.474,18.009c17.432,11.48,36.031,19.894,57.708,19.158a31.4,31.4,0,0,0,13.4-3.151c2.329-1.169,5.475-2.653,4.741-5.567-1.846-7.335,3.2-10.983,7.137-15.386,4.006-4.485,7.492-9.257,7.722-15.584-8.448-5.9-16.413-12.687-28.292-9.277,1.812-7.636,6.329-7.357,10.029-8.47,1.716-.516,4.266-.379,3.824-3.364a4.539,4.539,0,0,0-3.808-3.859,5.789,5.789,0,0,1-1.924-.47c-.892-.642-2.4-1.747-2.247-2.25.313-1.066,1.416-2.5,2.384-2.661a21.6,21.6,0,0,1,7.833-.243c3.746.784,6.052.24,7.877-3.545,1.339-2.778,4.308-2.615,6.757-.828,2.248,1.64,3.981,4,3.417,6.751-.756,3.686-5.23,6.42-3.14,10.89,2.107,4.508-4.625,12.073,5.437,14.2,2.386.5,1.859,6.185.908,9.306-5.038,16.544-11.126,32.708-19.531,47.868-4.772,8.6-13.507,12.638-21.82,16.622-9.97,4.777-17.506,11.954-23.753,20.775a13.627,13.627,0,0,0-1.754,3.552c-.651,1.966-.677,4.079,1.133,5.386a4.187,4.187,0,0,0,3.5.448,72.611,72.611,0,0,0,32.8-28.23c1.751-2.805,2.821-6.029,4.5-8.887,1.4-2.386,3.585-3.951,6.581-3.37,3.378.655,3.736,3.578,3.622,6.1-.242,5.366-1.453,10.524-4.971,14.889-15.778,19.579-34.051,33.859-61.373,29.293a49.694,49.694,0,0,0-5.99-.133,18.98,18.98,0,0,1-2.948-.786c-4.323-7.366-9.143-15.115-3.355-24.729.295-21.346-4.816-38.7-28.512-46.586-24.916-8.294-44.211-1.592-60.231,17.964-2.906,3.548-5.735,7.159-8.347,10.424-4.588-.454-3.832-3.431-3.833-5.833q-.041-95.936-.016-191.871c0-2.663.072-5.327.168-7.988.169-4.673,2.6-7.415,7.265-7.7s9.323-.253,13.986-.253q214.911-.016,429.823,0c22.04,0,20.767-1.5,20.769,20.323q.015,215.853.021,431.708c0,20.413.777,19.919-19.406,19.915q-216.911-.045-433.822-.029c-3.993,0-8.005.011-11.972-.365a6.806,6.806,0,0,1-6.527-6.309,44.112,44.112,0,0,1-.288-5.977q-.026-91.938,0-183.876c0-3.212-.555-6.871,4.18-7.533a19.487,19.487,0,0,0,1.978,3.094c1.087,1.155,2.259,3.254,4.117,1.176a3.723,3.723,0,0,0,.568-3.3,22.748,22.748,0,0,0-3.177-4.189c-6.852-11.988.569-22.779,2.879-33.994.128-.622.481-1.488.968-1.7,10.159-4.518,17.425-12.742,25.889-19.476,4.344-3.455,10.568-3.914,16.6.664,4.915,3.733,12.434,2.829,16.969,8.9,4.929,6.6,7.45,12.388,1.763,17.593-10.668,9.764-3.548,21.282-5.547,31.749a2.133,2.133,0,0,0,.724,1.8c9.8,6,15.52,19.691,29.757,17.1,6.547-1.193,11.393-.564,16.271,4.073,6.135,5.831,13.944,4.928,20.653,1.887,6.83-3.1,13.618-4.326,20.929-5.382,12.233-1.767,21.3-10.244,30.331-18.016,3.119-2.682,2.588-7.409-.314-10.806-2.569-3.006-5.656-3.132-8.876-1.3-6.929,3.953-13.757,8.082-20.7,12a27.332,27.332,0,0,1-21.191,2.9,3.5,3.5,0,0,1-2.106-2.528,3.725,3.725,0,0,1,1.761-2.96,14.292,14.292,0,0,1,5.767-1.017c8.58.365,15.425-3.168,21.553-8.814,9.046-8.334,19-11.81,30.77-5.444,3.233,1.749,4.844-.849,5.919-3.285,3.2-7.254,7.018-14.269,6.022-22.793-.317-2.72,2.408-4.452,5.529-4.266a5.53,5.53,0,0,1,5.54,4.683c1.084,4.837-.342,9.4-2.628,13.417-7.836,13.78-14.717,28.371-24.365,40.786-12.607,16.222-13.9,33.694-11.511,52.619,1.388,10.972,6.934,20.006,12.871,28.876,7.5,11.208,12.833,23.153,14.692,36.7.737,5.371,1.306,10.45-.167,15.729-.93,3.329,1.208,4.225,4.146,4.978,4.469,1.147,4.331,4.56,2.272,7.7-3.6,5.492-9.55,7.545-15.519,7.87-20.72,1.13-34.351-8.475-43.175-26.036-2.194-4.366-1.8-9.147.03-13.612,1.7-4.155,3.789-8.153,6.265-13.4-7.765-.321-14.11-.8-16.288,8.079-1.1,4.5-1.953,9.2-3.971,13.3-4.107,8.327-4.389,14.9,4.878,20.1,2.462,1.382,3.481,5.425,5.029,8.318,1.614,3.015,3.579,5.982,6.825,6.974a116.268,116.268,0,0,1,25.232,11.623,8.316,8.316,0,0,0,9.458-.472c4.706-3.568,9.266-4.381,14.842-1.984,5.7,2.448,10.346.071,13.826-4.748,1.938-2.685,3.182-6.9,5.745-7.934,13.135-5.3,11.637-15.645,10.466-26.423-1.449-13.325-4.109-26.246-9.82-38.469a121.045,121.045,0,0,1-10.4-32.2,56.451,56.451,0,0,1,2.876-29.288c3.958-10.743,9.567-18.915,20.609-22.55,3.339-1.1,5-2.433,6.269-6.242,2.238-6.734,7.547-8.994,13.822-6.9,7.579,2.529,14.73,5.9,20.309,12.105a52.73,52.73,0,0,1,12.608,26.713c1.416,8.047.245,15.96-5.757,22.4-2.248,2.412-4.24,5.061-6.437,7.523-11.254,12.612-10.819,29.37-15.53,44.281a13.728,13.728,0,0,0,.976,9.747c12.42,22.323,26.944,42.114,52.962,50.986,14.611,4.983,27.388,2.577,40.35-3.474a14.206,14.206,0,0,0,5.538-5.395c2.071-3.38,2.555-8.264,5.326-10.585,9.678-8.106,4.7-18.71,4.7-27.821,0-9.428-7.082-16.9-14.267-23.134-3.7-3.214-8.107-4.273-13.025-3.753-4.628.49-5.895,1.026-12.933,7.264,2.108,3.75,5.8,1.95,8.836,2.617,12.176,2.68,19.691,13.455,16.483,24.9a41.277,41.277,0,0,1-20.5,25.842c-6.276,3.417-12.809,2.772-19.369.579-4.209-1.407-7.358-3.458-5.82-8.549,1.212-4.012-1.319-6.351-3.766-8.376-9.789-8.1-11.628-18.735-10.859-30.615.447-6.892,4-13.955-1.878-20.778-2.047-2.374,1.257-6.148,3.5-8.6,7.187-7.857,14.636-15.481,21.67-23.47,13.354-15.167,15.986-33.274,12.857-52.386-.937-5.725-3.21-12.045-6.908-16.339-8.207-9.529-13.294-21.353-23.34-29.588-6.906-5.661-5.543-10.461,2.7-15.44,4.538-2.741,7.06-1.686,8.179,3.616.4,1.9-.292,5.279.553,5.657,8.835,3.948,6.551,13.953,11.314,19.986,1.632,2.066,3.366,4.051,4.192,5.042,3.241,2.051,5.024.964,6.538-.166,20.174-15.051,41.955-15.011,64.417-6.575,11.353,4.263,21.16,11.334,30.049,19.447A32.5,32.5,0,0,1,477.2,329.89c-.024,3.912-1.361,7.812-6.293,8.69-8.574,1.527-9.128,1.756-6.841,8.073,1.9,5.251,1.229,9.639-2.976,12.375-9.662,6.287-14.78,16.8-23.671,23.922-7.37,5.9-11.074,14.823-11.434,24.664-.591,16.153,7.278,26.763,22.88,30.407,4.527,1.058,9.331,1.041,13.774,2.324,12.365,3.57,21.925,11.206,19.672,25.758a43.886,43.886,0,0,0-.041,6.261c5.659-.284,6.211-4.681,6.719-7.892,2.567-16.222-3.139-26.846-18.027-33.985-3.562-1.708-7.6-2.4-11.285-3.879-9.463-3.788-13.38-10.329-12.094-20.325a29.882,29.882,0,0,1,9.735-19.075c5.551-5.073,12.065-8.173,18.517-11.613,12.55-6.692,20.2-17.027,22.484-31.167,3.113-19.317.239-36.926-13.694-51.9-11.546-12.407-25.414-21.366-40.347-28.9-6.7-3.381-13.981-3.751-21.411-3.84-19.52-.233-35.721-9.15-50.824-20.489-1.5-1.13-2.493-3.1-3.392-4.843-.913-1.774-1.412-3.886.74-5.187,1.031-.623,2.717-1.181,3.66-.763,5.461,2.422,10.865,5,16.136,7.813,3.509,1.872,6.614,4.524,10.171,6.275,4.314,2.125,9.165,3.007,13.327-.023,9.306-6.773,19.553-7.42,30.479-6.118,14.124,1.683,20.156-10.818,29.348-17.672,1.162-.866.774-3.762,1.177-5.7.806-3.877.459-8.754,2.711-11.436,8.362-9.955,6.142-17.608-2.988-25.421-3.667-3.139-3.249-8.4-3.234-13.168s-3.1-7.337-7.665-7.226c-6.25.152-11.98-.7-16.466-5.482-3.113-3.316-7.228-2.4-11.073-3.132-14.58-2.78-19.539-11.641-15.309-25.876,1.669-5.62,1.273-12.813,4.729-16.7,4.576-5.152,11.823-8.135,18.255-11.391,11.475-5.81,23.512-2.557,34.946-.167,7.176,1.5,9.081,10.47,14.272,15.518C488.5,82.661,474.822,71.332,450.937,74.3c-25.735,3.2-43.9,17.463-57.362,38.77-4.793,7.588-6.2,16.208-6.356,24.794-.256,13.708,10.09,25.433,23.978,27.752,5.208.869,10.647.241,15.946.7,14.186,1.243,22.329,13.577,17.571,27.085-4.645,13.19-13.261,23.342-26.595,28.083-19.051,6.774-37.829,6.05-55.74-4.431-7.852-4.595-13.764-10.883-15.769-19.684-1.828-8.021-5.585-14.987-9.722-21.759-6.449-10.556-7.395-21.1-1.972-32.264a23.958,23.958,0,0,0,2.415-7.433c.31-2.609-1.79-2.967-3.889-2.41-12.032,3.192-9.573,2.479-12.981-9.054-3.253-11.012,7.681-13.023,6.354-21.344,6.917,3.731,12.075,6.716,17.418,9.318,3.224,1.571,6.5.648,9.471-1.182,5.98-3.677,5.822-10.191-.157-14.183-3.473-2.319-6.555-2.8-10.948-1.818-5.873,1.311-9.576-4.382-7.428-10.005a12.925,12.925,0,0,1,1.8-3.53c2.085-2.58,4.349-5.016,6.865-7.878-6.13-2.618-11.348-.819-16.167,2.628-3.781,2.7-6.972,6.4-11.019,8.52-5.238,2.746-11.043,6-16.648,6.085-8.373.126-4.975-9.613-8.757-13.829-1.285-1.432-2.374-3.039-3.5-4.5-3.086,1.568-2.466,4.631-3.463,6.948-1.137,2.64-2.993,4.444-6.071,3.62-3.174-.85-6.186-2.391-9.389-3.016-2.728-.532-5.054,1.028-7.052,2.972-2.522,2.453-1.206,4.905.02,7.182.994,1.845,1.834,3.879-.261,4.849a6.9,6.9,0,0,1-5.663-.212c-4.822-3.019-7.09-7.636-7.152-13.446-.044-4.1,1.306-7.648,3.095-11.176a1.939,1.939,0,0,0-.818-1.69c-1.2-.274-2.659-.6-3.695-.154-4.642,1.991-6.971,6.12-8.44,10.591-1.444,4.392-2.119,9.031-3.426,13.475-1.147,3.9-2.749,8.09-8.058,6.363-5.07-1.649-5.052-5.321-2.552-9.413a13.26,13.26,0,0,0,1.569-3.607c.755-3.012-.515-6.027-3.373-5.988-18.691.254-36.782-5.736-55.54-4.895-10.463.469-19.589,3.2-26.692,11.217C130,93.3,120.71,101.543,116.322,114.11c-1.468,1.48-2.636,3.566-.979,5.022,2.029,1.783,2.985-.68,3.977-2.1l16.536-2.191C133.439,105.139,137.82,97.605,144.572,91.045ZM445.957,315.723c-2.339,4.484-5.025,2.743-7.71.407-11.973-10.418-25.277-8.9-39.009-4.252,11.58-3.416,21.356.772,30.941,6.582,3.18,1.927,7.042,5.211,10.717,2.272,1.631-1.3,1.737-4.755,4.917-5.155.449-.462.815-1.1,1.36-1.358,2.687-1.286,6.64,2.618,8.153-.853,1.392-3.194-2.077-5.706-4.265-8.006-1.22-1.282-2.472-2.814-4.644-1.767C443.76,307.531,450.752,311.853,445.957,315.723ZM116.848,385.98c7.326,4.5,13.631,8.815,20.355,12.334,4.641,2.429,8.68-2.675,13.324-2.358,2.613.179,5.45.213,7.751,1.264,7.188,3.284,12.624,3.168,15.837-5.439.788-2.111,3.59-4.648,5.7-4.887,10.426-1.176,12.463-7.138,12.015-16.536-.239-5,2.931-10.112,4.182-15.265a28.9,28.9,0,0,0,1.014-9.755A10.9,10.9,0,0,0,193.6,338.5c-5.1-4-24.323.544-27.4,6.12a11.153,11.153,0,0,0-1.157,3.715c-.389,2.625-.392,5.314-.893,7.912a37.9,37.9,0,0,1-15.708,24.492c-8.109,5.775-16.966,7.143-26.538,4.191C120.849,384.609,119.457,385.4,116.848,385.98ZM86.115,413.959c-6.377,3.248-10.887,5.761-15.579,7.868-3.882,1.742-8-.906-8.6-5.365-.352-2.6-.964-5.421-.334-7.851,1.819-7.013,4.128-13.9,6.394-20.8,2.839-8.632,9.49-13.686,17.967-12.82,13.186,1.347,25.316-2.05,37.735-4.985-.616-1.181-.912-2.657-1.81-3.331C107.921,356.191,92,357.092,76.3,360.137,64.37,362.45,56.862,370.3,53.707,382.6c-2.487,9.693-4.681,19.234-4.081,29.318a35.122,35.122,0,0,0,4.141,15.154c5.162,9.423,15.043,11.6,23.186,4.618C81.452,427.829,85.628,423.477,86.115,413.959Zm42.042,68.635c1.634-6.56,2.222-11.222,3.984-15.388,2-4.715.6-7.429-3.378-9.769a48.851,48.851,0,0,1-6.508-4.513c-2.654-2.208-4.811-5.258-3.4-8.615,1.9-4.52,1.722-8.663,1.107-13.422-.851-6.587,2.171-10.3,8.144-11.262,3.865-.626,8.165.4,11.327-2.563,5.049-4.727,13.482-.04,17.733-6.625-5.146-7.068-11.942-.22-17.719-2.1-3.749-1.217-7.652-2.021-11.3-3.473-5.794-2.305-10.431-.409-14.426,3.583-6.184,6.18-10.18,13.907-13.939,21.632-4.883,10.035-3.456,14.5,5.862,21.935,3.108,2.48,6.357,4.794,9.368,7.386C124.041,467.176,124.048,467.284,128.157,482.594ZM408.191,344.549c-8.888-2.18-14.638.531-18.679,6.438-6.627,9.684-10.842,20.459-5.155,31.7,5.677,11.224,15.744,17.637,28.335,19.421,3.029.429,4.787-1.845,5.228-4.717.3-1.959.011-4.6-2.231-4.759-11.571-.828-14.478-9.929-18.076-18.384-1.028-2.415-1.474-5.073-2.447-7.516-2.6-6.518-.844-11.594,4.806-15.516C402.62,349.382,406.22,348.823,408.191,344.549Zm-148.221,27.9c.552,3.576,1.09,8.838,2.293,13.943.453,1.925,2.848,2.485,4.859,1.57,3.854-1.752,6.9-4.558,6.433-9.023-1.12-10.7-.609-20.845,5.2-30.489,1.627-2.7-.487-6.527-4-7.963-2.725-1.112-5.083-.033-6.841,2.319C261.7,351.121,259.341,360.527,259.97,372.447Zm-41.34,35.536c-2.357-5.023-4.2-11.28-8.891-16.087a5.189,5.189,0,0,0-3.558-1.355c-10.958.525-20.756,3.4-26.2,14.122a4.217,4.217,0,0,0-.126,3.489,3.974,3.974,0,0,0,3.166,1.653c10.36-1.47,20.624-2.64,30.661,1.85C215.572,412.5,217.289,411.173,218.63,407.983ZM410.155,288.7a60.089,60.089,0,0,0-21.6,3.108c-1.633.581-2.4,1.5-1.556,2.821a6.992,6.992,0,0,0,2.767,2.445c2.455,1.159,5.335,1.635,7.333-.41,7.12-7.286,13.773-5.555,20.53.443a9.873,9.873,0,0,0,9.173,2.166,8.107,8.107,0,0,0,4.415-3.26c1.373-2.149-.528-3.381-2.317-4.13C422.792,289.327,416.482,287.826,410.155,288.7ZM155.483,96.823a10.88,10.88,0,0,0-3.193.356c-3.827,1.417-7,3.713-7.617,8.062a4.8,4.8,0,0,0,1.625,3.392c3.875,3.636,7.137.494,10.407-1.292a9.306,9.306,0,0,0,2.807-2.671c1.139-1.541,2.451-3.2,1.338-5.3C159.874,97.525,158.249,96.67,155.483,96.823ZM463.737,401.374c3.663,1.086,5.9-1.426,7.91-3.623,1.315-1.44,5.114-2.72,2.193-5.507-.818-.781-3.769-.063-5.275.791a21.783,21.783,0,0,0-5.623,4.933C462.5,398.489,463.425,400.171,463.737,401.374Z"/><path class="a" d="M293.8,110.825c-.717,1.567-1.233,3.559-2.389,5.057-3.367,4.366-8.043,6.814-13.342,8.061-2.789.656-5.47,2.184-5.446,4.9.041,4.578-.926,7.907-5.866,8.611-4.064.579-9.866-.166-10.608-3.307-1.969-8.332-9.87-7.924-14.556-11.989-2.81-2.438-2.919-5.57.62-7.574,3.22-1.824,5.449-5.941,10.382-4.23,9.589,3.325,18.23.521,26.345-4.793,4.72-3.092,8.894-1.084,12.812,1.667C292.684,107.879,293.016,109.385,293.8,110.825Z"/><path class="a" d="M179.458,216.424c-8.652.414-20.3-3.285-29.185-13.715a20.2,20.2,0,0,1-3.311-4.938c-.422-.982-.023-2.5.41-3.621.592-1.534,2.375-2.2,3.3-1.028,9.192,11.658,23.108,11.572,35.749,14.734a5.275,5.275,0,0,1,4.176,5.829c-.245,2.312-2.387,2.792-4.492,2.742C185.441,216.411,184.777,216.424,179.458,216.424Z"/><path class="a" d="M120.638,162.4c.079-7.964,4.974-11.7,11.866-9.647a22.605,22.605,0,0,1,7.056,3.366c3.753,2.826,5.372,10.237,3.573,14.336-1.946,4.434-8.039,7.52-13.183,6.5-5.173-1.026-7.791-4.587-8.743-9.517C120.834,165.509,120.759,163.523,120.638,162.4Zm11.778,8.214c2.4-5.873,1.578-7.945-.122-8.9-1.888-1.064-3.805.136-4.262,2.273s.938,3.622,2.85,4.457C132.254,169.039,133.307,168.456,132.416,170.614Z"/><path class="a" d="M149.492,143.753c-1.131-.055-3.041-1.662-4.361-4.071-2.565-4.683-.651-9.577,5-12.887,5.51-3.226,10.993-2.45,13.608,2.273a7.841,7.841,0,0,1,.782,5.482C162.671,140.574,157.133,144.232,149.492,143.753Z"/><path class="a" d="M254.764,234.559c-1.422,5.262-1.555,11.14-5.726,15.485-.661.69-2.545.787-3.549.38-.778-.314-1.637-2.607-1.484-2.721,4.868-3.653,3.4-8.629,3.333-13.5-.027-2.09,2.595-2.726,4.563-2.183C252.919,232.3,253.672,233.546,254.764,234.559Z"/><path class="a" d="M325.736,233.018c5.582,4.666,7.066,10.384,12.474,13.157,3.256,1.669.628,5.929-1.946,7.942-2.2,1.719-5.667,1.619-6.492-1.153C328,247.01,327.229,240.76,325.736,233.018Z"/><path class="b" d="M116.848,385.98c2.609-.58,4-1.371,5.049-1.048,9.572,2.952,18.429,1.584,26.538-4.191a37.9,37.9,0,0,0,15.708-24.492c.5-2.6.5-5.287.893-7.912a11.153,11.153,0,0,1,1.157-3.715c3.081-5.576,22.306-10.118,27.4-6.12a10.9,10.9,0,0,1,3.432,6.836,28.9,28.9,0,0,1-1.014,9.755c-1.251,5.153-4.421,10.261-4.182,15.265.448,9.4-1.589,15.36-12.015,16.536-2.113.239-4.915,2.776-5.7,4.887-3.213,8.607-8.649,8.723-15.837,5.439-2.3-1.051-5.138-1.085-7.751-1.264-4.644-.317-8.683,4.787-13.324,2.358C130.479,394.8,124.174,390.475,116.848,385.98Z"/><path class="b" d="M86.115,413.959c-.487,9.518-4.663,13.87-9.162,17.728-8.143,6.98-18.024,4.805-23.186-4.618a35.122,35.122,0,0,1-4.141-15.154c-.6-10.084,1.594-19.625,4.081-29.318,3.155-12.3,10.663-20.147,22.591-22.46,15.706-3.045,31.623-3.946,45.586,6.543.9.674,1.194,2.15,1.81,3.331-12.419,2.935-24.549,6.332-37.735,4.985-8.477-.866-15.128,4.188-17.967,12.82-2.266,6.89-4.575,13.782-6.394,20.8-.63,2.43-.018,5.25.334,7.851.6,4.459,4.722,7.107,8.6,5.365C75.228,419.72,79.738,417.207,86.115,413.959Z"/><path class="b" d="M128.157,482.594c-4.109-15.31-4.116-15.418-13.145-23.189-3.011-2.592-6.26-4.906-9.368-7.386-9.318-7.437-10.745-11.9-5.862-21.935,3.759-7.725,7.755-15.452,13.939-21.632,3.995-3.992,8.632-5.888,14.426-3.583,3.649,1.452,7.552,2.256,11.3,3.473,5.777,1.875,12.573-4.973,17.719,2.1-4.251,6.585-12.684,1.9-17.733,6.625-3.162,2.961-7.462,1.937-11.327,2.563-5.973.966-9,4.675-8.144,11.262.615,4.759.794,8.9-1.107,13.422-1.412,3.357.745,6.407,3.4,8.615a48.851,48.851,0,0,0,6.508,4.513c3.98,2.34,5.373,5.054,3.378,9.769C130.379,471.372,129.791,476.034,128.157,482.594Z"/><path class="b" d="M408.191,344.549c-1.971,4.274-5.571,4.833-8.219,6.672-5.65,3.922-7.4,9-4.806,15.516.973,2.443,1.419,5.1,2.447,7.516,3.6,8.455,6.5,17.556,18.076,18.384,2.242.16,2.531,2.8,2.231,4.759-.441,2.872-2.2,5.146-5.228,4.717-12.591-1.784-22.658-8.2-28.335-19.421-5.687-11.246-1.472-22.021,5.155-31.7C393.553,345.08,399.3,342.369,408.191,344.549Z"/><path class="b" d="M259.97,372.447c-.629-11.92,1.725-21.326,7.94-29.643,1.758-2.352,4.116-3.431,6.841-2.319,3.517,1.436,5.631,5.262,4,7.963-5.809,9.644-6.32,19.786-5.2,30.489.468,4.465-2.579,7.271-6.433,9.023-2.011.915-4.406.355-4.859-1.57C261.06,381.285,260.522,376.023,259.97,372.447Z"/><path class="b" d="M218.63,407.983c-1.341,3.19-3.058,4.518-4.948,3.672-10.037-4.49-20.3-3.32-30.661-1.85a3.974,3.974,0,0,1-3.166-1.653,4.217,4.217,0,0,1,.126-3.489c5.444-10.725,15.242-13.6,26.2-14.122a5.189,5.189,0,0,1,3.558,1.355C214.425,396.7,216.273,402.96,218.63,407.983Z"/><path class="b" d="M410.155,288.7c6.327-.877,12.637.624,18.749,3.183,1.789.749,3.69,1.981,2.317,4.13a8.107,8.107,0,0,1-4.415,3.26,9.873,9.873,0,0,1-9.173-2.166c-6.757-6-13.41-7.729-20.53-.443-2,2.045-4.878,1.569-7.333.41A6.992,6.992,0,0,1,387,294.632c-.843-1.317-.077-2.24,1.556-2.821A60.089,60.089,0,0,1,410.155,288.7Z"/><path class="b" d="M445.813,315.578c-3.18.4-3.286,3.851-4.917,5.154-3.675,2.939-7.537-.345-10.717-2.272-9.585-5.81-19.361-10-30.941-6.582,13.732-4.648,27.036-6.166,39.009,4.252,2.685,2.336,5.371,4.077,7.71-.407Z"/><path class="b" d="M116.317,114.106C120.71,101.543,130,93.3,140.781,86.36q1.893,2.336,3.79,4.678c-6.751,6.567-11.132,14.1-8.715,23.807l-16.536,2.191Z"/><path class="b" d="M155.483,96.823c2.766-.153,4.391.7,5.367,2.548,1.113,2.1-.2,3.758-1.338,5.3a9.306,9.306,0,0,1-2.807,2.671c-3.27,1.786-6.532,4.928-10.407,1.292a4.8,4.8,0,0,1-1.625-3.392c.62-4.349,3.79-6.645,7.617-8.062A10.88,10.88,0,0,1,155.483,96.823Z"/><path class="b" d="M445.957,315.723c4.8-3.87-2.2-8.192.46-12.13,2.172-1.047,3.424.485,4.644,1.767,2.188,2.3,5.657,4.812,4.265,8.006-1.513,3.471-5.466-.433-8.153.853-.545.261-.911.9-1.36,1.359Z"/><path class="b" d="M463.737,401.374c-.312-1.2-1.238-2.885-.8-3.406a21.783,21.783,0,0,1,5.623-4.933c1.506-.854,4.457-1.572,5.275-.791,2.921,2.787-.878,4.067-2.193,5.507C469.642,399.948,467.4,402.46,463.737,401.374Z"/><path class="b" d="M42.741,302.9a22.748,22.748,0,0,1,3.177,4.189,3.723,3.723,0,0,1-.568,3.3c-1.858,2.078-3.03-.021-4.117-1.176a19.487,19.487,0,0,1-1.978-3.094C40.414,305.047,41.577,303.971,42.741,302.9Z"/><path class="b" d="M119.32,117.036c-.992,1.416-1.948,3.879-3.977,2.1-1.657-1.456-.489-3.542.979-5.022Z"/><path class="b" d="M132.416,170.614c.891-2.158-.162-1.575-1.534-2.173-1.912-.835-3.31-2.306-2.85-4.457s2.374-3.337,4.262-2.273C133.994,162.669,134.812,164.741,132.416,170.614Z"/></svg>