<svg xmlns="http://www.w3.org/2000/svg" viewBox="0 0 543.348 543.348"><defs><style>.a{fill:#df271f;}</style></defs><path class="a" d="M35.822,266.312c5.614-.856,6.589,4.236,8.232,7.222,16.188,29.431,38.062,54.424,61.491,78.021a173.473,173.473,0,0,0,48.59,34.393c15.443,7.323,32.267,11.749,49.175,15.558,20.025,4.513,39.907,3.625,59.336-.825A103.715,103.715,0,0,0,303.665,381.2c17.806-13.992,29.723-32.1,37.332-53.12,7.805-21.558,4.778-41.989-8.277-60.7-9.377-13.438-28.53-17.8-42.808-10.163a7.466,7.466,0,0,0-3.186,4.386c-.685,2.718,1.969,3.135,3.748,3.418a78.726,78.726,0,0,0,7.958.369c20.1,1.1,33.339,13.85,34.467,33.877.881,15.643-2.47,29.877-12.364,42.961C306.574,360.688,288.662,371.241,266.45,377c-27.278,7.076-52.647.547-78.269-7.1-5.353-1.6-9.417-5.03-13.527-8.273-15.648-12.349-31.353-24.662-46.4-37.719a100.683,100.683,0,0,1-24.258-31.475C91.9,267.885,81.914,242.578,80.827,214.6c-.411-10.564-3.5-20.817-3.383-31.613A247.28,247.28,0,0,1,100.419,80.769c5.839-12.631,9.95-26.077,18.343-37.507,2.931-3.991,5.864-6.874,11.214-6.829,24.652.2,49.307.211,73.96.416.943.008,1.876,1.326,3.985,2.918-10.692,8.932-20.531,18.358-28.435,29.7-20.7,29.716-37.649,61.024-44.067,97.169-.464,2.611-1.415,5.164-1.635,7.786a425.149,425.149,0,0,0,.873,79.769c2.277,21.873,11.389,40.746,26.656,56.653,4.136,4.309,7.906,8.966,11.932,13.382,1.763,1.933,3.436,4.55,5.682,5.338,10.81,3.79,19.51,11.739,29.988,15.673,26.606,9.99,53.207,12.5,77.664-6.116,15.714-11.959,22.013-27.816,17.663-47.395-1.063-4.782-3.162-8.806-9.534-8.747-.182,7.865.311,15.792-2.629,23.363-8.284,21.325-32.591,35.632-55.75,32.849-34.277-4.118-54.946-24.639-65.9-55.788-6.174-17.554-9.556-35.757-9.015-54.755.692-24.334,6.509-46.946,16.264-69.227,14.4-32.886,39.251-56.722,65.951-78.727,27.343-22.534,60.154-33.354,94.87-38.913,29.229-4.68,58.544-3.858,87.616-.118,28.478,3.665,55.333,13.64,81.6,25.71v87.709c-3.912,2.9-6.637.465-9.464-1.044-11.736-6.264-23.578-12.343-35.135-18.923a143.947,143.947,0,0,0-23.449-10.91c-37.38-13.175-75.647-20.969-115.468-18.717-18.179,1.029-34.971,7.965-51.613,14.543-31.474,12.441-54.277,35.883-72.249,63.293-12.532,19.115-15.59,41.831-15.747,65.005-.131,19.461,7.841,34.517,19.769,48.552,12.518,14.731,29.157,17.917,46.993,15.81,8.145-.962,13.866-7.355,17.743-14.6a6.809,6.809,0,0,0,.006-5.7c-1.761-2.972-4.465-1.693-6.7-.147-5.547,3.839-11.242,6.642-18.381,6.592-10.676-.074-19.573-3.332-26.24-11.867-3.275-4.192-6.712-8.284-9.672-12.692-10.48-15.607-9.785-32.543-5.335-49.759,4.62-17.871,15.218-32.271,27.233-45.768,16.176-18.171,37.659-26.914,60.421-32.615a178.737,178.737,0,0,1,89.072.019c28.88,7.524,56.338,19.268,79.919,38.783,15.475,12.807,29.765,26.372,41.31,42.955,4.8,6.9,7.522,13.592,7.507,21.989q-.213,121.952-.089,243.9c0,2,.035,4-.119,5.994-.48,6.222-2.287,8.349-8.622,8.411-19.833.194-39.669.071-58.993.071-2.552-4.984.735-7.148,2.363-9.783,13.374-21.648,24.287-44.271,29.412-69.473,2.247-11.052,6.985-21.681,8.473-32.786,3.564-26.592,1.663-53.185-4.078-79.349-6.925-31.563-20.675-60.185-38.971-86.739-5.751-8.345-13.327-14.482-21.122-20.806-24.38-19.78-52.27-31.467-82.652-37.782-5.124-1.065-10.556-.959-15.839-.886a135.064,135.064,0,0,0-46.62,9.084c-25.777,9.92-43.613,40.849-41.668,68.794.8,11.464,7.509,17.987,17.3,22.113a6.684,6.684,0,0,0,5.432-.45c3.155-2.1,1.267-5.077-.4-6.753-14.335-14.439-11.949-30.812-3.2-45.918,6.64-11.459,17.993-19.386,30.9-23.962a68.809,68.809,0,0,1,19.423-4.071,160.235,160.235,0,0,1,41.708,3.43,56.319,56.319,0,0,1,14.974,5.287c33.675,18.1,57.465,44.587,68.108,81.865,13.019,45.6,10.093,90.3-5.481,135.04C405.987,451,382.1,478.06,355.931,503.893a14.352,14.352,0,0,1-10.754,4.432c-4-.086-8,.041-12,.041q-138.981.006-277.963,0c-4,0-8.006.108-11.995-.1-6.518-.346-8.447-2.037-8.613-8.318-.245-9.249-.063-18.51-.063-27.677,2.08-.206,3.673-.893,4.6-.379C59.06,483,81.6,487.172,102.487,495.746c8.457,3.471,18.038,5.013,27.238,5.711,29.3,2.224,58.892,2.167,87.473-4.313,22.5-5.1,44.171-14.315,64.532-25.751,12.747-7.159,25.84-13.886,37.829-22.177,42.643-29.493,67.675-68.93,66.792-122.345-.088-5.314-.335-10.656.052-15.944,1.624-22.2-6.53-41.732-16.147-60.93-3.46-6.91-10.184-10.454-15.616-15.225-15.01-13.186-32.851-19.677-52.775-20.781-15.692-.87-26.85,5.92-34.028,19.591a15.9,15.9,0,0,0-1.224,5.753,4.262,4.262,0,0,0,2.525,4.709c1.542.68,2.588.192,3.329-1.3,1.179-2.372,2.142-4.943,3.752-6.994,5.316-6.773,12.628-10.06,21.038-9.226,16.765,1.663,32.513,5.842,44.943,18.646,17.9,18.437,28.271,40.053,29.724,65.78a28.9,28.9,0,0,1-.613,7.918c-5.305,23.472-12.4,46.269-26.246,66.353a43.956,43.956,0,0,1-6.772,7.258c-21.269,19.362-44.55,35.089-71.571,46.076-32.843,13.354-66.842,14.293-100.326,9.525A237.7,237.7,0,0,1,65,408.515c-7.669-5.264-14.573-11.689-22.441-16.6-5.75-3.588-8.279-7.553-8.217-14.429.332-36.647.247-73.3.361-109.946C34.705,267.123,35.445,266.708,35.822,266.312Z"/></svg>